<svg width="40" height="40" viewBox="0 0 40 40" fill="none" xmlns="http://www.w3.org/2000/svg">
<g clip-path="url(#clip0_712_4007)">
<path d="M26.9393 1.93934C27.5251 1.35355 28.4749 1.35355 29.0607 1.93934C29.6464 2.52513 29.6464 3.47487 29.0607 4.06066L26.9393 1.93934ZM29.0607 35.8805C29.6464 36.4663 29.6464 37.416 29.0607 38.0018C28.4749 38.5876 27.5251 38.5876 26.9393 38.0018L29.0607 35.8805ZM29.0607 4.06066L12.7972 20.3241L10.6759 18.2028L26.9393 1.93934L29.0607 4.06066ZM12.7972 19.617L29.0607 35.8805L26.9393 38.0018L10.6759 21.7383L12.7972 19.617ZM12.7972 20.3241C12.9925 20.1289 12.9925 19.8123 12.7972 19.617L10.6759 21.7383C9.69957 20.762 9.69957 19.1791 10.6759 18.2028L12.7972 20.3241Z" fill="#312C93"/>
</g>
<defs>
<clipPath id="clip0_712_4007">
<rect width="40" height="40" fill="white"/>
</clipPath>
</defs>
</svg>
