<svg width="237" height="67" viewBox="0 0 237 67" fill="none" xmlns="http://www.w3.org/2000/svg">
<path d="M0 63.5611L0.426439 64.8401H27.2922L31.0084 62.5867V64.8401H73.6525L74.5054 63.0739V63.8048C74.4815 64.0125 74.5211 64.2226 74.619 64.4074C74.7168 64.5922 74.8684 64.7431 75.0537 64.8401H88.6389C89.4308 63.622 90.7101 64.8401 90.9538 62.4649C90.1009 62.4649 89.9182 62.4649 89.9182 62.0386H72.4341C72.44 62.4528 72.3559 62.8633 72.1876 63.2418C72.0193 63.6204 71.7709 63.9579 71.4594 64.2311C71.7788 63.8706 71.99 63.4272 72.0686 62.9521C72.0686 62.1603 70.6065 62.4649 70.1191 62.2822H67.8651C67.7713 63.0739 67.5229 63.8395 67.134 64.5356C67.2486 63.7888 67.2486 63.029 67.134 62.2822L37.4659 62.2822L36.2475 62.9521V62.2822H0.304596L0.304596 63.9875" fill="#312C93"/>
<path d="M2.10527 32.4135H1.1579L0.631594 31.6735L2.10527 32.6602V32.4135ZM2.57894 0.285223H1.05266H0V39.8752C0.1464 40.1831 0.350216 40.4484 0.596258 40.6513C0.842299 40.8541 1.12425 40.9893 1.42108 41.0468H1.89474L1.1579 42.4651L0 41.7251V65.0351H1.42108C1.83106 65.062 2.23739 64.9322 2.57894 64.6651V41.0468H2.26316L2.57894 40.6768V39.0735H1.8421L1.42108 36.7918V37.1002L1.05266 36.5452H2.00003H2.78947V29.3918L1.31579 27.9735L3 28.3435V0.0385742" fill="#312C93"/>
<path d="M235.436 32.4245H234.34L233.731 31.6934L235.436 32.6681V32.4245ZM235.984 0.685069H234.218H233V39.7958C233.169 40.1 233.405 40.3621 233.69 40.5625C233.975 40.7629 234.301 40.8965 234.644 40.9533H235.193L234.34 42.3545L233 41.6234V64.6512H234.644C235.119 64.6778 235.589 64.5496 235.984 64.2857V40.9533H235.619L235.984 40.5878V39.0038H235.132L234.644 36.7498V37.0544L234.218 36.5061H235.314H236.228V29.4394L234.523 28.0382L236.471 28.4038V0.441406" fill="#312C93"/>
<path d="M8 3.47144H8.73103L8.42644 2.07068L8 3.47144Z" fill="#312C93"/>
<path d="M144.446 2.19249L144.873 3.47144L171.739 3.47144L175.455 1.21802V3.47144L218.099 3.47144L218.952 1.70525V2.4361C218.928 2.64384 218.967 2.85395 219.065 3.03875C219.163 3.22356 219.315 3.3744 219.5 3.47144L233.085 3.47144C233.877 2.25338 235.156 3.47144 235.4 1.09624C234.547 1.09624 234.364 1.09624 234.364 0.669922L216.88 0.669922C216.886 1.08412 216.802 1.49464 216.634 1.87318C216.466 2.25171 216.217 2.58924 215.906 2.86242C216.225 2.50194 216.436 2.05857 216.515 1.58342C216.515 0.79169 215.053 1.09625 214.565 0.913538L212.311 0.913538C212.218 1.70527 211.969 2.47085 211.58 3.1669C211.695 2.42014 211.695 1.6603 211.58 0.913538L181.912 0.913538L180.694 1.58342V0.913538L144.751 0.913538V2.6188" fill="#312C93"/>
<path d="M67.139 0.487263C67.2286 1.39858 67.2286 2.31647 67.139 3.22778H67.7482L67.2608 2.13157L67.9919 1.09626V1.94887C67.9919 2.55788 67.9918 3.16686 68.9666 2.92326L71.0379 1.33987L70.6114 0.121826L69.5758 0.121826V0.730825V0.121826H66.7734" fill="#312C93"/>
<path d="M104.787 1.03529V2.13155L104.056 2.74058L105.031 1.03529H104.787ZM73.0479 0.487178V2.25334V3.47144L112.159 3.47144C112.463 3.30203 112.725 3.06618 112.925 2.78147C113.126 2.49676 113.259 2.17049 113.316 1.82702V1.27891L114.717 2.13155L113.986 3.47144L137.014 3.47144V1.82702C137.041 1.35259 136.912 0.882406 136.649 0.487178L113.316 0.487178V0.852584L112.951 0.487178L111.367 0.487178V1.33982L109.113 1.82702H109.417L108.869 2.25334V1.15707V0.243558L101.802 0.243558L100.401 1.94885L100.767 -6.10352e-05L72.8042 -6.10352e-05" fill="#312C93"/>
<path d="M45.3291 0.974405C46.182 1.52252 47.8268 0.487203 47.8268 1.46163L47.4613 2.55786H48.2533C48.6188 1.88794 49.228 1.15711 49.228 0.548096L45.5728 0.548096V1.03532" fill="#312C93"/>
<path d="M32.8404 2.0098V3.47144V2.0098ZM25.1036 2.0098C26.0783 2.0098 26.322 2.6797 26.322 3.22782V3.47144L30.3427 3.47144V2.80151H29.8553L31.0737 1.76618V2.13158L30.7691 3.47144H31.9266L35.7037 3.47144L36.9221 2.0098H36.0692V1.15713V0.791728L30.6473 0.791728H31.0128L28.2105 0.791728V0.426331H26.0783L24.6162 1.76618" fill="#312C93"/>
<path d="M6.52344 3.22778H6.82803L23.0328 3.22778V2.86239C23.0328 1.27893 24.9822 1.58344 25.7133 0.243591L7.68091 0.243591L7.98552 1.52253V2.13154L6.58436 2.98417" fill="#312C93"/>
<path d="M42.1611 1.09644L42.6485 0.852847L42.4048 0.487488H42.3439L42.1611 1.09644Z" fill="#312C93"/>
<path d="M38.3843 0.487549V0.913818C38.6873 0.763576 39.0208 0.685375 39.359 0.685375C39.6972 0.685375 40.0308 0.763576 40.3337 0.913818V0.487549L38.1406 0.487549" fill="#312C93"/>
<path d="M62.6307 3.28882H63.1789L66.7732 3.28882V2.00987C66.7473 1.38243 66.5113 0.781839 66.1031 0.304565L65.7376 0.304565C64.5192 0.730882 62.9962 -0.182624 62.9962 1.09633V1.64443L65.0675 1.64443C64.0928 3.34969 62.3261 0.730916 62.2651 3.28882" fill="#312C93"/>
<path d="M23.2148 3.47144H25.0424C24.7943 3.24025 24.4678 3.11169 24.1286 3.11169C23.7895 3.11169 23.4629 3.24025 23.2148 3.47144Z" fill="#312C93"/>
<path d="M231.215 3.47144H233.042C232.794 3.24025 232.468 3.11169 232.129 3.11169C231.789 3.11169 231.463 3.24025 231.215 3.47144Z" fill="#312C93"/>
<path d="M32.7188 3.47144L32.8406 2.00977L32.7188 3.47144Z" fill="#312C93"/>
<path d="M32.6582 4.01929L32.7191 3.47119L32.6582 4.01929Z" fill="#312C93"/>
<path d="M154.616 62.5258C154.705 63.4372 154.705 64.355 154.616 65.2664H155.225L154.737 64.1701L155.468 63.1348V63.9874C155.468 64.5965 155.468 65.2054 156.443 64.9618L158.514 63.3784L158.088 62.1604H157.052V62.7694V62.1604H154.25" fill="#312C93"/>
<path d="M196.264 63.0739V64.1701L195.533 64.7792L196.508 63.0739H196.264ZM164.524 62.5258V64.2919V65.51H203.635C203.939 65.3406 204.201 65.1048 204.402 64.82C204.602 64.5353 204.736 64.2091 204.793 63.8656V63.3175L206.194 64.1701L205.463 65.51H228.491V63.8656C228.517 63.3912 228.389 62.921 228.125 62.5258L204.793 62.5258V62.8912L204.427 62.5258H202.843V63.3784L200.589 63.8656H200.894L200.345 64.2919V63.1956V62.2821H193.279L191.878 63.9874L192.243 62.0385H164.281" fill="#312C93"/>
<path d="M132.806 63.013C133.659 63.5611 135.303 62.5258 135.303 63.5002L134.938 64.5964H135.73C136.095 63.9265 136.705 63.1957 136.705 62.5867H133.049V63.0739" fill="#312C93"/>
<path d="M120.317 64.0484V65.51V64.0484ZM112.58 64.0484C113.555 64.0484 113.799 64.7183 113.799 65.2664V65.51H117.819V64.8401H117.332L118.55 63.8048V64.1702L118.246 65.51H119.403H123.18L124.399 64.0484H123.546V63.1957V62.8303H118.124H118.489H115.687V62.4649H113.555L112.093 63.8048" fill="#312C93"/>
<path d="M94 65.2664H94.3046H110.509V64.901C110.509 63.3175 112.459 63.622 113.19 62.2822H95.1575L95.4621 63.5611V64.1701L94.0609 65.0227" fill="#312C93"/>
<path d="M129.638 63.135L130.125 62.8914L129.881 62.5261H129.82L129.638 63.135Z" fill="#312C93"/>
<path d="M125.861 62.5261V62.9524C126.164 62.8022 126.497 62.7239 126.836 62.7239C127.174 62.7239 127.507 62.8022 127.81 62.9524V62.5261H125.617" fill="#312C93"/>
<path d="M150.107 65.3274H150.656H154.25V64.0484C154.224 63.421 153.988 62.8204 153.58 62.3431H153.214C151.996 62.7695 150.473 61.8559 150.473 63.1349V63.683H152.544C151.569 65.3883 149.803 62.7695 149.742 65.3274" fill="#312C93"/>
<path d="M110.691 65.51H112.519C112.271 65.2788 111.944 65.1503 111.605 65.1503C111.266 65.1503 110.94 65.2788 110.691 65.51Z" fill="#312C93"/>
<path d="M120.195 65.51L120.317 64.0483L120.195 65.51Z" fill="#312C93"/>
<path d="M120.135 66.0579L120.196 65.5098L120.135 66.0579Z" fill="#312C93"/>
</svg>
