<svg width="30" height="30" viewBox="0 0 30 30" fill="none" xmlns="http://www.w3.org/2000/svg">
<path d="M5.7189 5.71865C6.07051 5.36714 6.54734 5.16968 7.04452 5.16968C7.5417 5.16968 8.01853 5.36714 8.37015 5.71865L15.0001 12.3487L21.6301 5.71865C21.9838 5.37711 22.4574 5.18812 22.949 5.19239C23.4406 5.19666 23.9109 5.39385 24.2586 5.74149C24.6062 6.08913 24.8034 6.55941 24.8077 7.05103C24.8119 7.54264 24.6229 8.01627 24.2814 8.3699L17.6514 14.9999L24.2814 21.6299C24.6229 21.9835 24.8119 22.4572 24.8077 22.9488C24.8034 23.4404 24.6062 23.9107 24.2586 24.2583C23.9109 24.606 23.4406 24.8031 22.949 24.8074C22.4574 24.8117 21.9838 24.6227 21.6301 24.2812L15.0001 17.6512L8.37015 24.2812C8.01652 24.6227 7.54289 24.8117 7.05127 24.8074C6.55965 24.8031 6.08938 24.606 5.74174 24.2583C5.3941 23.9107 5.1969 23.4404 5.19263 22.9488C5.18836 22.4572 5.37735 21.9835 5.7189 21.6299L12.3489 14.9999L5.7189 8.3699C5.36739 8.01829 5.16992 7.54146 5.16992 7.04428C5.16992 6.54709 5.36739 6.07027 5.7189 5.71865Z" fill="#312C93"/>
</svg>
