<svg width="323" height="59" viewBox="0 0 323 59" fill="none" xmlns="http://www.w3.org/2000/svg">
<path d="M84 55.5611L84.4264 56.8401H111.292L115.008 54.5867V56.8401L157.652 56.8401L158.505 55.0739V55.8048C158.481 56.0125 158.521 56.2226 158.619 56.4074C158.717 56.5922 158.868 56.7431 159.054 56.8401H172.639C173.431 55.622 174.71 56.8401 174.954 54.4649C174.101 54.4649 173.918 54.4649 173.918 54.0386H156.434C156.44 54.4528 156.356 54.8633 156.188 55.2418C156.019 55.6204 155.771 55.9579 155.459 56.2311C155.779 55.8706 155.99 55.4272 156.069 54.9521C156.069 54.1603 154.606 54.4649 154.119 54.2822H151.865C151.771 55.0739 151.523 55.8395 151.134 56.5356C151.249 55.7888 151.249 55.029 151.134 54.2822L121.466 54.2822L120.248 54.9521V54.2822H84.3046V55.9875" fill="#312C93"/>
<path d="M230.446 7.19249L230.873 8.47144L257.739 8.47144L261.455 6.21802V8.47144L304.099 8.47144L304.952 6.70525V7.4361C304.928 7.64384 304.967 7.85395 305.065 8.03875C305.163 8.22356 305.315 8.3744 305.5 8.47144H319.085C319.877 7.25338 321.156 8.47144 321.4 6.09624C320.547 6.09624 320.364 6.09624 320.364 5.66992L302.88 5.66992C302.886 6.08412 302.802 6.49464 302.634 6.87318C302.466 7.25171 302.217 7.58924 301.906 7.86242C302.225 7.50194 302.436 7.05857 302.515 6.58342C302.515 5.79169 301.053 6.09625 300.565 5.91354L298.311 5.91354C298.218 6.70527 297.969 7.47085 297.58 8.1669C297.695 7.42014 297.695 6.6603 297.58 5.91354L267.912 5.91354L266.694 6.58342V5.91354L230.751 5.91354V7.6188" fill="#312C93"/>
<path d="M190.787 6.03529V7.13155L190.056 7.74058L191.031 6.03529H190.787ZM159.048 5.48718V7.25334V8.47144L198.159 8.47144C198.463 8.30203 198.725 8.06618 198.925 7.78147C199.126 7.49676 199.259 7.17049 199.316 6.82702V6.27891L200.717 7.13155L199.986 8.47144L223.014 8.47144V6.82702C223.041 6.35259 222.912 5.88241 222.649 5.48718L199.316 5.48718V5.85258L198.951 5.48718L197.367 5.48718V6.33982L195.113 6.82702H195.417L194.869 7.25334V6.15707V5.24356H187.802L186.401 6.94885L186.767 4.99994L158.804 4.99994" fill="#312C93"/>
<path d="M124.983 6.03529V7.13155L124.252 7.74058L125.227 6.03529H124.983ZM93.2437 5.48718V7.25334V8.47144L132.354 8.47144C132.659 8.30203 132.921 8.06618 133.121 7.78147C133.322 7.49676 133.455 7.17049 133.512 6.82702V6.27891L134.913 7.13155L134.182 8.47144L157.21 8.47144V6.82702C157.236 6.35259 157.108 5.88241 156.844 5.48718L133.512 5.48718V5.85258L133.146 5.48718L131.562 5.48718V6.33982L129.308 6.82702H129.613L129.065 7.25334V6.15707V5.24356H121.998L120.597 6.94885L120.962 4.99994L93 4.99994" fill="#312C93"/>
<path d="M317.215 8.47144H319.042C318.794 8.24025 318.468 8.11169 318.129 8.11169C317.789 8.11169 317.463 8.24025 317.215 8.47144Z" fill="#312C93"/>
<path d="M246.616 54.5258C246.705 55.4372 246.705 56.355 246.616 57.2664H247.225L246.737 56.1701L247.468 55.1348V55.9874C247.468 56.5965 247.468 57.2054 248.443 56.9618L250.514 55.3784L250.088 54.1604H249.052V54.7694V54.1604H246.25" fill="#312C93"/>
<path d="M288.264 55.0739V56.1701L287.533 56.7792L288.508 55.0739H288.264ZM256.524 54.5258V56.2919V57.51H295.635C295.939 57.3406 296.201 57.1048 296.402 56.82C296.602 56.5353 296.736 56.2091 296.793 55.8656V55.3175L298.194 56.1701L297.463 57.51L320.491 57.51V55.8656C320.517 55.3912 320.389 54.921 320.125 54.5258L296.793 54.5258V54.8912L296.427 54.5258H294.843V55.3784L292.589 55.8656H292.894L292.345 56.2919V55.1956V54.2821H285.279L283.878 55.9874L284.243 54.0385H256.281" fill="#312C93"/>
<path d="M224.806 55.013C225.659 55.5611 227.303 54.5258 227.303 55.5002L226.938 56.5964H227.73C228.095 55.9265 228.705 55.1957 228.705 54.5867H225.049V55.0739" fill="#312C93"/>
<path d="M212.317 56.0484V57.51V56.0484ZM204.58 56.0484C205.555 56.0484 205.799 56.7183 205.799 57.2664V57.51H209.819V56.8401H209.332L210.55 55.8048V56.1702L210.246 57.51H211.403H215.18L216.399 56.0484H215.546V55.1957V54.8303H210.124H210.489H207.687V54.4649H205.555L204.093 55.8048" fill="#312C93"/>
<path d="M186 57.2664H186.305H202.509V56.901C202.509 55.3175 204.459 55.622 205.19 54.2822H187.157L187.462 55.5611V56.1701L186.061 57.0227" fill="#312C93"/>
<path d="M221.638 55.135L222.125 54.8914L221.881 54.5261H221.82L221.638 55.135Z" fill="#312C93"/>
<path d="M217.861 54.5261V54.9524C218.164 54.8022 218.497 54.7239 218.836 54.7239C219.174 54.7239 219.507 54.8022 219.81 54.9524V54.5261H217.617" fill="#312C93"/>
<path d="M242.107 57.3274H242.656H246.25V56.0484C246.224 55.421 245.988 54.8204 245.58 54.3431H245.214C243.996 54.7695 242.473 53.8559 242.473 55.1349V55.683H244.544C243.569 57.3883 241.803 54.7695 241.742 57.3274" fill="#312C93"/>
<path d="M202.691 57.51H204.519C204.271 57.2788 203.944 57.1503 203.605 57.1503C203.266 57.1503 202.94 57.2788 202.691 57.51Z" fill="#312C93"/>
<path d="M212.195 57.51L212.317 56.0483L212.195 57.51Z" fill="#312C93"/>
<path d="M212.135 58.0579L212.196 57.5098L212.135 58.0579Z" fill="#312C93"/>
<path d="M89.317 6.76615V8.22778V6.76615ZM81.5801 6.76615C82.5549 6.76615 82.7985 7.43605 82.7985 7.98417V8.22778H86.8193V7.55786H86.3319L87.5503 6.52253V6.88793L87.2457 8.22778H88.4032H92.1802L93.3987 6.76615H92.5458V5.91347V5.54808L87.1239 5.54808H87.4894H84.6871V5.18268H82.5549L81.0928 6.52253" fill="#312C93"/>
<path d="M60 7.98413H60.3046L76.5094 7.98413V7.61873C76.5094 6.03528 78.4588 6.33979 79.1898 4.99994L61.1575 4.99994L61.4621 6.27888V6.88789L60.0609 7.74052" fill="#312C93"/>
<path d="M80.6914 8.22778H82.519C82.2709 7.9966 81.9444 7.86804 81.6052 7.86804C81.2661 7.86804 80.9395 7.9966 80.6914 8.22778Z" fill="#312C93"/>
<path d="M90.1953 8.22778L90.3172 6.76611L90.1953 8.22778Z" fill="#312C93"/>
<path d="M89.1348 8.77563L89.1957 8.22754L89.1348 8.77563Z" fill="#312C93"/>
<path d="M62.317 56.0484V57.51V56.0484ZM54.5801 56.0484C55.5549 56.0484 55.7985 56.7183 55.7985 57.2664V57.51H59.8193V56.8401H59.3319L60.5503 55.8048V56.1702L60.2457 57.51H61.4032H65.1802L66.3987 56.0484H65.5458V55.1957V54.8303H60.1239H60.4894H57.6871V54.4649H55.5549L54.0928 55.8048" fill="#312C93"/>
<path d="M36 57.2664H36.3046H52.5094V56.901C52.5094 55.3175 54.4588 55.622 55.1898 54.2822H37.1575L37.4621 55.5611V56.1701L36.0609 57.0227" fill="#312C93"/>
<path d="M52.6914 57.51H54.519C54.2709 57.2788 53.9444 57.1503 53.6052 57.1503C53.2661 57.1503 52.9395 57.2788 52.6914 57.51Z" fill="#312C93"/>
<path d="M62.1953 57.51L62.3172 56.0483L62.1953 57.51Z" fill="#312C93"/>
<path d="M62.1348 58.0579L62.1957 57.5098L62.1348 58.0579Z" fill="#312C93"/>
<path d="M57.7368 8.03796C57.6946 7.88874 57.6371 7.74432 57.565 7.60702C56.9404 6.02511 56.2763 4.47047 55.5289 2.95946C55.5044 2.91037 55.4198 2.93492 55.4348 2.99083C55.4567 3.07129 55.4839 3.15175 55.5058 3.23221C55.4891 3.21277 55.468 3.19765 55.4443 3.18815C55.4205 3.17865 55.3948 3.17505 55.3694 3.17766C55.3311 3.18354 55.2933 3.1922 55.2562 3.20357C55.2426 3.19369 55.2269 3.18689 55.2104 3.18366C55.1939 3.18043 55.1768 3.18085 55.1605 3.18487C55.1441 3.18889 55.1288 3.19643 55.1157 3.20696C55.1026 3.21749 55.0919 3.23076 55.0844 3.24585C54.8307 3.34131 54.5825 3.50904 54.3302 3.58405C54.2348 3.61132 54.1393 3.63314 54.0439 3.65087C53.8892 3.54996 53.7075 3.49859 53.5229 3.50359C53.4936 3.50319 53.4649 3.51172 53.4405 3.52804C53.4161 3.54436 53.3973 3.5677 53.3865 3.59496L53.3374 3.69996C53.2283 3.39313 53.1193 3.08629 53.0061 2.78218L53.032 2.759C53.1002 2.68263 53.0824 2.51353 52.9501 2.51898C52.2028 2.55171 51.4132 3.39313 51.0614 3.99998C50.985 4.13635 51.1569 4.30955 51.2769 4.18681C51.4391 4.02317 51.6028 3.86361 51.7705 3.70678C51.7579 3.72263 51.7511 3.7424 51.7514 3.7627C51.8073 4.71665 51.8023 5.67319 51.7364 6.62651C51.7368 6.64373 51.7425 6.66041 51.7528 6.67424C51.0532 5.07323 50.34 3.47768 49.5995 1.90122L49.609 1.88894C49.6324 1.85277 49.6404 1.80882 49.6313 1.76675C49.6222 1.72468 49.5968 1.68794 49.5606 1.66461C49.5245 1.64128 49.4805 1.63328 49.4384 1.64236C49.3964 1.65144 49.3596 1.67685 49.3363 1.71302C48.8494 2.39488 48.2985 2.91582 47.4966 3.21312C47.0812 2.24487 46.6629 1.27572 46.242 0.305663L46.3266 0.203384C46.4111 0.0956502 46.2393 -0.0570865 46.1438 0.0438288L46.1329 0.0561023C46.0797 -0.0516316 45.8847 0.00837209 45.9243 0.129743C45.9352 0.1652 45.9474 0.200657 45.9584 0.23475C45.2929 0.93843 44.6151 1.62711 43.9319 2.30897C44 2.21896 44.0682 2.13305 44.1378 2.03622C44.2073 1.9394 44.0532 1.83576 43.981 1.93258C41.6217 5.12096 38.3297 7.21973 34.754 8.84119C32.4234 9.89808 29.1832 10.3972 27.7281 12.6746C27.5252 12.9154 27.3428 13.1726 27.1826 13.4437C27.1376 13.5215 27.0899 13.6074 27.0463 13.6974C26.9495 13.6156 26.8513 13.5365 26.7517 13.4574C26.6522 13.3783 26.554 13.5338 26.6413 13.6129C26.6267 13.6221 26.6142 13.6343 26.6046 13.6486C26.595 13.6629 26.5884 13.6791 26.5853 13.696C26.2811 13.6124 25.9711 13.5509 25.658 13.5119C25.3417 13.47 25.0223 13.4554 24.7034 13.4683C22.0128 13.231 19.6399 15.4798 17.3802 16.6744C13.9096 18.5086 10.2343 19.8273 6.26454 19.74C6.14316 19.74 6.12816 19.9228 6.2509 19.9269C6.37363 19.931 6.47591 19.9269 6.58774 19.9269C5.63313 20.0496 4.67171 20.1628 3.70756 20.2583L3.64619 20.1669C3.57528 20.0632 3.40618 20.1778 3.46073 20.2869H3.443C3.30663 20.3005 3.3189 20.531 3.45663 20.5283H3.59301C4.10122 21.4556 4.61171 22.3798 5.12447 23.3007C5.12447 23.3007 5.12447 23.3007 5.11628 23.3007C4.39078 23.7507 3.64483 23.8708 2.79796 23.8353C2.75722 23.8347 2.71778 23.8496 2.68772 23.8771C2.65767 23.9046 2.63927 23.9426 2.63631 23.9832C2.63334 24.0239 2.64603 24.0641 2.67178 24.0957C2.69753 24.1272 2.73438 24.1478 2.77477 24.153H2.78978C7.15368 32.6572 12.2308 40.8341 16.8961 49.1746C16.9171 49.2106 16.9482 49.2398 16.9856 49.2584C17.0229 49.277 17.0649 49.2843 17.1063 49.2793C17.1478 49.2744 17.1868 49.2575 17.2188 49.2306C17.2507 49.2038 17.2741 49.1682 17.2861 49.1282C21.0514 47.995 24.7089 46.3585 28.365 44.9184C31.7743 43.582 35.1522 42.0669 38.7661 41.4573C38.7387 41.4891 38.7136 41.5228 38.6911 41.5582C34.7308 43.1401 30.7701 44.7216 26.809 46.3026C24.8998 47.0676 22.9769 47.8354 21.1741 48.8309C20.4186 49.2482 19.7435 49.7774 19.0017 50.2056C18.5435 50.4701 17.7634 51.1029 17.177 50.8738C16.8129 50.7374 16.3438 49.5033 16.1501 49.1869C12.1804 42.6969 8.10419 36.0201 3.52073 29.8902C3.48255 29.7539 3.44436 29.6175 3.40754 29.4811C3.40043 29.4563 3.38707 29.4337 3.36875 29.4154C3.35043 29.3972 3.32774 29.384 3.30286 29.377C3.27798 29.3701 3.25173 29.3696 3.22661 29.3756C3.20149 29.3817 3.17833 29.394 3.15934 29.4116C2.63749 28.7215 2.10882 28.0396 1.57334 27.366C1.87063 27.2964 2.15974 27.1423 2.4543 27.07C2.82447 26.9876 3.19926 26.9275 3.57664 26.89C3.74574 26.8696 3.71301 26.6268 3.56028 26.605C2.86614 26.5109 1.71789 26.6187 1.23377 27.1914C1.14786 27.2937 1.27059 27.4096 1.37014 27.4028L1.40287 27.396C1.5747 27.6687 1.75062 27.9415 1.92654 28.221L1.81335 28.1951C1.785 28.1855 1.75428 28.1856 1.72594 28.1952C1.6976 28.2048 1.67321 28.2235 1.65652 28.2483C1.53885 28.3909 1.46749 28.5659 1.45196 28.7502C1.38066 28.8163 1.30553 28.8783 1.22695 28.9356C0.933751 29.1456 0.505543 29.2425 0.272347 29.5084C0.255824 29.5266 0.24377 29.5484 0.237142 29.5721C0.230514 29.5957 0.229494 29.6206 0.234162 29.6448C0.185068 29.5847 0.135975 29.5111 0.0868806 29.4484C0.0514238 29.402 -0.0194896 29.4484 0.00505733 29.5029C2.26202 34.1559 5.34948 38.5117 8.05101 42.9219C10.7089 47.2627 13.3477 51.6157 16.0124 55.9523C16.1242 56.27 16.2429 56.5851 16.3752 56.896C16.398 56.9401 16.437 56.9737 16.484 56.9897C16.531 57.0058 16.5824 57.0029 16.6274 56.9819C20.4009 55.3604 24.087 53.514 27.8004 51.7602C31.4647 50.0256 35.4563 48.5405 38.9106 46.4131C38.9468 46.4082 38.9796 46.3891 39.0017 46.3601C39.0238 46.3311 39.0335 46.2944 39.0286 46.2583C39.0237 46.2221 39.0047 46.1894 38.9756 46.1672C38.9466 46.1451 38.91 46.1354 38.8738 46.1403L39.0102 46.068C39.0219 46.0785 39.0368 46.0847 39.0525 46.0858C39.3646 46.0732 39.6746 46.0274 39.9771 45.9494C41.4485 46.394 43.3127 45.813 44.161 44.5529C44.3574 44.3928 44.5399 44.2162 44.7065 44.0252C44.7678 44.0143 44.8292 43.9979 44.8892 43.9843C44.8956 44.0034 44.9059 44.021 44.9196 44.0359C44.9332 44.0508 44.9499 44.0626 44.9684 44.0706C44.987 44.0786 45.007 44.0825 45.0272 44.0822C45.0474 44.0819 45.0673 44.0774 45.0856 44.0688C47.9289 42.9942 50.6768 41.4641 53.4043 39.9913C53.5406 39.9163 53.6906 39.8399 53.8352 39.7663C55.5926 38.8635 57.3486 37.9585 59.1033 37.0511C61.7843 35.7092 64.4695 34.3673 67.0892 32.9163C67.1333 32.8935 67.1669 32.8545 67.183 32.8075C67.199 32.7604 67.1962 32.709 67.1751 32.664C67.0115 32.3695 66.8342 32.0831 66.6515 31.7994C64.8541 27.0373 63.028 22.2861 61.2238 17.5267C60.0306 14.4093 58.9614 11.1745 57.7368 8.03796Z" fill="#FFFDF6"/>
<path d="M1.90892 25.9027C1.98665 25.9027 1.99347 25.7841 1.91847 25.7841H1.55981C1.49162 25.7841 1.48344 25.8891 1.55163 25.8904L1.90892 25.9027Z" fill="#312C93"/>
<path d="M51.5237 2.25855L51.7337 1.9708C51.7746 1.91489 51.6873 1.85898 51.6464 1.91216C51.5714 2.00489 51.4978 2.09899 51.4241 2.19309C51.3778 2.25309 51.4773 2.32128 51.5237 2.25855Z" fill="#312C93"/>
<path d="M57.7368 8.03796C57.6946 7.88874 57.6371 7.74432 57.565 7.60702C56.9404 6.02511 56.2763 4.47047 55.5289 2.95946C55.5044 2.91037 55.4198 2.93492 55.4348 2.99083C55.4567 3.07129 55.4839 3.15175 55.5058 3.23221C55.4891 3.21277 55.468 3.19765 55.4443 3.18815C55.4205 3.17865 55.3948 3.17505 55.3694 3.17766C55.3311 3.18354 55.2933 3.1922 55.2562 3.20357C55.2426 3.19369 55.2269 3.18689 55.2104 3.18366C55.1939 3.18043 55.1768 3.18085 55.1605 3.18487C55.1441 3.18889 55.1288 3.19643 55.1157 3.20696C55.1026 3.21749 55.0919 3.23076 55.0844 3.24585C54.8307 3.34131 54.5825 3.50904 54.3302 3.58405C54.2348 3.61132 54.1393 3.63314 54.0439 3.65087C53.8892 3.54996 53.7075 3.49859 53.5229 3.50359C53.4936 3.50319 53.4649 3.51172 53.4405 3.52804C53.4161 3.54436 53.3973 3.5677 53.3865 3.59496L53.3374 3.69996C53.2283 3.39313 53.1193 3.08629 53.0061 2.78218L53.032 2.759C53.1002 2.68263 53.0824 2.51353 52.9501 2.51898C52.2028 2.55171 51.4132 3.39313 51.0614 3.99998C50.985 4.13635 51.1569 4.30955 51.2769 4.18681C51.4391 4.02317 51.6028 3.86361 51.7705 3.70678C51.7579 3.72263 51.7511 3.7424 51.7514 3.7627C51.8073 4.71665 51.8023 5.67319 51.7364 6.62651C51.7368 6.64373 51.7425 6.66041 51.7528 6.67424C51.0532 5.07323 50.34 3.47768 49.5995 1.90122L49.609 1.88894C49.6324 1.85277 49.6404 1.80882 49.6313 1.76675C49.6222 1.72468 49.5968 1.68794 49.5606 1.66461C49.5245 1.64128 49.4805 1.63328 49.4384 1.64236C49.3964 1.65144 49.3596 1.67685 49.3363 1.71302C48.8494 2.39488 48.2985 2.91582 47.4966 3.21312C47.0812 2.24487 46.6629 1.27572 46.242 0.305663L46.3266 0.203384C46.4111 0.0956502 46.2393 -0.0570865 46.1438 0.0438288L46.1329 0.0561023C46.0797 -0.0516316 45.8847 0.00837209 45.9243 0.129743C45.9352 0.1652 45.9474 0.200657 45.9584 0.23475C45.2929 0.93843 44.6151 1.62711 43.9319 2.30897C44 2.21896 44.0682 2.13305 44.1378 2.03622C44.2073 1.9394 44.0532 1.83576 43.981 1.93258C41.6217 5.12096 38.3297 7.21973 34.754 8.84119C32.4234 9.89808 29.1832 10.3972 27.7281 12.6746C27.5252 12.9154 27.3428 13.1726 27.1826 13.4437C27.1376 13.5215 27.0899 13.6074 27.0463 13.6974C26.9495 13.6156 26.8513 13.5365 26.7517 13.4574C26.6522 13.3783 26.554 13.5338 26.6413 13.6129C26.6267 13.6221 26.6142 13.6343 26.6046 13.6486C26.595 13.6629 26.5884 13.6791 26.5853 13.696C26.2811 13.6124 25.9711 13.5509 25.658 13.5119C25.3417 13.47 25.0223 13.4554 24.7034 13.4683C22.0128 13.231 19.6399 15.4798 17.3802 16.6744C13.9096 18.5086 10.2343 19.8273 6.26454 19.74C6.14316 19.74 6.12816 19.9228 6.2509 19.9269C6.37363 19.931 6.47591 19.9269 6.58774 19.9269C5.63313 20.0496 4.67171 20.1628 3.70756 20.2583L3.64619 20.1669C3.57528 20.0632 3.40618 20.1778 3.46073 20.2869H3.443C3.30663 20.3005 3.3189 20.531 3.45663 20.5283H3.59301C4.10122 21.4556 4.61171 22.3798 5.12447 23.3007C5.12447 23.3007 5.12447 23.3007 5.11628 23.3007C4.39078 23.7507 3.64483 23.8708 2.79796 23.8353C2.75722 23.8347 2.71778 23.8496 2.68772 23.8771C2.65767 23.9046 2.63927 23.9426 2.63631 23.9832C2.63334 24.0239 2.64603 24.0641 2.67178 24.0957C2.69753 24.1272 2.73438 24.1478 2.77477 24.153H2.78978C7.15368 32.6572 12.2308 40.8341 16.8961 49.1746C16.9171 49.2106 16.9482 49.2398 16.9856 49.2584C17.0229 49.277 17.0649 49.2843 17.1063 49.2793C17.1478 49.2744 17.1868 49.2575 17.2188 49.2306C17.2507 49.2038 17.2741 49.1682 17.2861 49.1282C21.0514 47.995 24.7089 46.3585 28.365 44.9184C31.7743 43.582 35.1522 42.0669 38.7661 41.4573C38.7387 41.4891 38.7136 41.5228 38.6911 41.5582C34.7308 43.1401 30.7701 44.7216 26.809 46.3026C24.8998 47.0676 22.9769 47.8354 21.1741 48.8309C20.4186 49.2482 19.7435 49.7774 19.0017 50.2056C18.5435 50.4701 17.7634 51.1029 17.177 50.8738C16.8129 50.7374 16.3438 49.5033 16.1501 49.1869C12.1804 42.6969 8.10419 36.0201 3.52073 29.8902C3.48255 29.7539 3.44436 29.6175 3.40754 29.4811C3.40043 29.4563 3.38707 29.4337 3.36875 29.4154C3.35043 29.3972 3.32774 29.384 3.30286 29.377C3.27798 29.3701 3.25173 29.3696 3.22661 29.3756C3.20149 29.3817 3.17833 29.394 3.15934 29.4116C2.63749 28.7215 2.10882 28.0396 1.57334 27.366C1.87063 27.2964 2.15974 27.1423 2.4543 27.07C2.82447 26.9876 3.19926 26.9275 3.57664 26.89C3.74574 26.8696 3.71301 26.6268 3.56028 26.605C2.86614 26.5109 1.71789 26.6187 1.23377 27.1914C1.14786 27.2937 1.27059 27.4096 1.37014 27.4028L1.40287 27.396C1.5747 27.6687 1.75062 27.9415 1.92654 28.221L1.81335 28.1951C1.785 28.1855 1.75428 28.1856 1.72594 28.1952C1.6976 28.2048 1.67321 28.2235 1.65652 28.2483C1.53885 28.3909 1.46749 28.5659 1.45196 28.7502C1.38066 28.8163 1.30553 28.8783 1.22695 28.9356C0.933751 29.1456 0.505543 29.2425 0.272347 29.5084C0.255824 29.5266 0.24377 29.5484 0.237142 29.5721C0.230514 29.5957 0.229494 29.6206 0.234162 29.6448C0.185068 29.5847 0.135975 29.5111 0.0868806 29.4484C0.0514238 29.402 -0.0194896 29.4484 0.00505733 29.5029C2.26202 34.1559 5.34948 38.5117 8.05101 42.9219C10.7089 47.2627 13.3477 51.6157 16.0124 55.9523C16.1242 56.27 16.2429 56.5851 16.3752 56.896C16.398 56.9401 16.437 56.9737 16.484 56.9897C16.531 57.0058 16.5824 57.0029 16.6274 56.9819C20.4009 55.3604 24.087 53.514 27.8004 51.7602C31.4647 50.0256 35.4563 48.5405 38.9106 46.4131C38.9468 46.4082 38.9796 46.3891 39.0017 46.3601C39.0238 46.3311 39.0335 46.2944 39.0286 46.2583C39.0237 46.2221 39.0047 46.1894 38.9756 46.1672C38.9466 46.1451 38.91 46.1354 38.8738 46.1403L39.0102 46.068C39.0219 46.0785 39.0368 46.0847 39.0525 46.0858C39.3646 46.0732 39.6746 46.0274 39.9771 45.9494C41.4485 46.394 43.3127 45.813 44.161 44.5529C44.3574 44.3928 44.5399 44.2162 44.7065 44.0252C44.7678 44.0143 44.8292 43.9979 44.8892 43.9843C44.8956 44.0034 44.9059 44.021 44.9196 44.0359C44.9332 44.0508 44.9499 44.0626 44.9684 44.0706C44.987 44.0786 45.007 44.0825 45.0272 44.0822C45.0474 44.0819 45.0673 44.0774 45.0856 44.0688C47.9289 42.9942 50.6768 41.4641 53.4043 39.9913C53.5406 39.9163 53.6906 39.8399 53.8352 39.7663C55.5926 38.8635 57.3486 37.9585 59.1033 37.0511C61.7843 35.7092 64.4695 34.3673 67.0892 32.9163C67.1333 32.8935 67.1669 32.8545 67.183 32.8075C67.199 32.7604 67.1962 32.709 67.1751 32.664C67.0115 32.3695 66.8342 32.0831 66.6515 31.7994C64.8541 27.0373 63.028 22.2861 61.2238 17.5267C60.0306 14.4093 58.9614 11.1745 57.7368 8.03796ZM2.04518 28.4638H2.08064C2.15428 28.5783 2.22519 28.6929 2.29884 28.8074C2.51976 29.522 2.75159 30.2321 2.99433 30.9376C2.51839 30.1493 1.95109 29.1238 1.93472 28.682C1.97631 28.6117 2.01321 28.5389 2.04518 28.4638ZM5.9577 34.2214L5.94679 34.2364L5.92633 34.1764L5.9577 34.2214ZM17.3489 54.2285C17.3677 54.2358 17.3874 54.2404 17.4075 54.2422C17.4075 54.2422 17.4075 54.2517 17.4075 54.2558C17.4075 54.324 17.4961 54.2804 17.4675 54.2408C17.5053 54.2354 17.541 54.2198 17.5708 54.1958C17.6005 54.1718 17.6233 54.1403 17.6366 54.1044C18.7949 53.5835 19.949 53.0562 21.0991 52.5225C19.8267 53.1526 18.5639 53.8003 17.3161 54.4781C17.2302 54.3281 17.1429 54.1808 17.0516 54.039C16.3959 52.9502 15.6669 51.9072 14.8696 50.9174C14.8385 50.878 14.7976 50.8474 14.751 50.8288C14.4637 50.3742 14.1673 49.9196 13.8618 49.4651L13.8182 49.3996C13.7977 49.3661 13.7688 49.3387 13.7343 49.32C13.6998 49.3013 13.661 49.2921 13.6218 49.2932C13.3832 48.8146 13.1418 48.3386 12.9031 47.8572C12.3385 46.7267 11.8831 45.5253 10.9707 44.6498L10.1525 43.1497C10.1465 43.1054 10.1296 43.0632 10.1034 43.0269C10.068 42.9751 10.0352 42.9233 9.99977 42.8728C9.66156 42.2578 9.32745 41.6455 8.99061 41.0236C11.7181 45.3339 14.436 49.6478 17.1443 53.9653C17.1335 53.9969 17.1306 54.0307 17.1359 54.0636C17.1413 54.0966 17.1546 54.1277 17.1749 54.1543C17.1951 54.1808 17.2215 54.202 17.2519 54.2159C17.2822 54.2298 17.3155 54.236 17.3489 54.234V54.2285ZM30.9861 45.1134L33.2007 45.8362C33.2962 45.8676 33.4026 45.9112 33.5117 45.9535L32.9853 46.2262C32.5584 46.1308 32.1139 46.0762 31.6993 45.9958L29.7396 45.6166L30.9861 45.1134ZM32.2816 44.5939C32.8255 44.8903 33.3935 45.1403 33.9794 45.3412L34.4226 45.4912C34.2617 45.573 34.0981 45.6548 33.9372 45.738C33.7503 45.6917 33.5635 45.6112 33.4108 45.5648L32.5612 45.3071L31.3911 44.9512L32.2816 44.5939ZM33.2362 44.2134C33.9578 44.5323 34.6994 44.8038 35.4563 45.0262C35.2722 45.1025 35.099 45.1762 34.9395 45.2471C34.6517 45.1884 34.3585 45.138 34.0844 45.0548C33.5794 44.8972 33.0871 44.7017 32.6116 44.4698L33.2362 44.2134ZM34.4117 43.7415C34.9762 44.0012 35.5549 44.2289 36.145 44.4234C36.2746 44.4657 36.4096 44.5134 36.5541 44.5598C36.4041 44.6266 36.2541 44.6961 36.1027 44.7575C35.7168 44.6689 35.3254 44.5952 34.9477 44.4848C34.5045 44.3593 34.0681 44.212 33.6358 44.0552L34.4117 43.7415ZM35.4427 43.3324C35.9446 43.5288 36.4464 43.7224 36.9523 43.9052C37.116 43.9652 37.281 44.0279 37.446 44.0906C37.3315 44.1616 37.2101 44.227 37.0805 44.2993C36.771 44.227 36.4519 44.1738 36.1668 44.0893C35.6977 43.9529 35.2395 43.7784 34.7854 43.5956L35.4427 43.3324ZM37.8483 42.3696L38.3938 42.6083C38.3663 42.7898 38.3266 42.9693 38.2752 43.1456C38.1511 43.121 38.0283 43.0951 37.9097 43.0651C37.5592 42.9738 37.2114 42.8701 36.8664 42.761L37.8483 42.3696ZM60.7493 28.3574C60.1129 26.8546 59.4837 25.3449 58.8619 23.8285C58.8703 23.8298 58.879 23.8294 58.8873 23.8273C58.8956 23.8252 58.9033 23.8214 58.9101 23.8161C58.9169 23.8109 58.9225 23.8043 58.9266 23.7968C58.9308 23.7894 58.9333 23.7811 58.9342 23.7726C58.9342 23.3171 58.7787 22.8302 58.6887 22.3857C58.6844 22.3707 58.6746 22.3578 58.6613 22.3496C58.648 22.3414 58.6321 22.3385 58.6168 22.3414C58.6014 22.3443 58.5877 22.3528 58.5783 22.3653C58.5689 22.3778 58.5645 22.3933 58.566 22.4088C58.6178 22.7525 58.641 23.1316 58.7201 23.4835C57.7027 21.0015 56.6963 18.5113 55.683 16.0239C55.6984 16.0333 55.7159 16.0386 55.7339 16.0393C55.7519 16.04 55.7698 16.036 55.7858 16.0278C55.8018 16.0196 55.8155 16.0074 55.8254 15.9924C55.8354 15.9774 55.8413 15.96 55.8426 15.9421C55.9203 14.7802 55.7362 13.5433 55.623 12.3637C55.8049 12.9019 55.984 13.4387 56.1604 13.9742C56.1017 13.962 56.0335 13.9961 56.0485 14.0711C56.2749 15.1375 56.3635 16.1985 56.4767 17.2785C56.4815 17.3003 56.4938 17.3198 56.5115 17.3333C56.5293 17.3469 56.5512 17.3537 56.5735 17.3525C56.5958 17.3514 56.617 17.3423 56.6332 17.327C56.6494 17.3117 56.6597 17.2912 56.6622 17.269C56.6394 16.2969 56.5178 15.3296 56.2994 14.382C56.6822 15.5084 57.075 16.6326 57.4777 17.7545C57.4702 17.7668 57.466 17.7809 57.4654 17.7954C57.5609 18.5972 57.6618 19.4659 57.9727 20.2174C57.9986 20.2814 58.0927 20.2433 58.0846 20.1792C58.0109 19.6555 57.8923 19.1414 57.7886 18.6218C58.9014 21.7011 60.0633 24.7585 61.2088 27.771C61.3575 28.161 61.7775 28.8374 61.7734 29.2479C61.7666 29.9557 61.3343 30.2216 60.6156 30.553C59.856 30.9035 58.9628 31.0576 58.1841 31.3794C56.2831 32.1649 54.4871 33.2109 52.717 34.25C48.9376 36.4684 45.1592 38.6921 41.3817 40.9214C41.3534 40.9047 41.3225 40.8927 41.2903 40.8859C43.9769 38.4217 47.2307 36.6815 50.355 34.8173C53.7302 32.8031 57.2663 30.9171 60.4738 28.6397C60.513 28.6544 60.5555 28.6573 60.5963 28.6482C60.6371 28.6391 60.6744 28.6183 60.7036 28.5884C60.7328 28.5585 60.7527 28.5207 60.7608 28.4797C60.7689 28.4387 60.7649 28.3962 60.7493 28.3574ZM54.3875 12.8683C54.4073 12.8819 54.4303 12.8901 54.4542 12.8921C54.4782 12.894 54.5022 12.8895 54.5239 12.8792C54.5653 12.8669 54.6014 12.8409 54.6262 12.8055C54.6509 12.7701 54.663 12.7273 54.6603 12.6842C54.6615 12.6576 54.6543 12.6314 54.6396 12.6093C54.6248 12.5872 54.6034 12.5704 54.5784 12.5614H54.5675C54.5979 12.488 54.6226 12.4123 54.6412 12.335C54.693 11.9682 54.4625 11.36 54.4175 10.9918C54.3119 10.0784 54.2859 9.15764 54.3398 8.23979C54.4734 8.69436 54.6098 9.14621 54.7489 9.59533C54.7266 9.6101 54.7085 9.63046 54.6966 9.6544C54.6846 9.67833 54.6791 9.70499 54.6807 9.7317C54.7816 11.1909 54.7257 12.7864 55.038 14.2129C55.0432 14.2371 55.0569 14.2587 55.0766 14.2737C55.0964 14.2887 55.1208 14.2961 55.1456 14.2946C55.1703 14.2932 55.1937 14.2829 55.2115 14.2656C55.2293 14.2484 55.2403 14.2253 55.2426 14.2006C55.3312 13.0237 55.1703 11.7705 55.0476 10.5636C55.1739 10.9636 55.3021 11.3632 55.4321 11.7623C55.3921 11.7684 55.3559 11.7893 55.3306 11.8209C55.3053 11.8524 55.2929 11.8924 55.2957 11.9327C55.3912 13.2024 55.3598 14.5784 55.6121 15.8303C55.203 14.8411 54.7948 13.8538 54.3875 12.8683ZM53.4329 3.95907C53.4408 3.94976 53.4495 3.9411 53.4588 3.93316C53.5387 3.95313 53.6198 3.96816 53.7016 3.97816C54.2634 4.45001 55.1457 7.05063 55.2357 7.30291C55.6394 8.4198 56.0485 9.53805 56.4481 10.6481C56.6536 11.2145 56.8586 11.7809 57.0631 12.3473C57.2977 13.0746 57.5386 13.802 57.7859 14.5293C58.39 16.2926 58.9669 18.1227 59.7688 19.8287C60.5352 21.9561 61.3002 24.084 62.0639 26.2123C62.0434 26.9896 62.008 27.7683 61.9739 28.5456C60.4547 24.5281 58.9737 20.4996 57.5609 16.4398C56.1235 12.305 54.8975 8.08569 53.4343 3.95907H53.4329ZM55.4403 4.56456C55.4573 4.55687 55.4723 4.54536 55.4841 4.53094C55.4959 4.51651 55.5043 4.49955 55.5085 4.48138L55.5221 4.51547C55.5221 4.57956 55.5317 4.64502 55.5344 4.70912C55.503 4.66002 55.4744 4.61093 55.4417 4.56456H55.4403ZM3.31481 32.0831C3.78302 32.8268 4.25259 33.5695 4.72353 34.3114C4.67351 34.3129 4.62517 34.3298 4.58513 34.3598C4.5451 34.3899 4.51532 34.4315 4.49988 34.4791L3.4089 32.544C3.48255 32.4076 3.37072 32.2072 3.08161 31.9644L3.02979 31.8744C2.98769 31.7346 2.93573 31.5979 2.87433 31.4653C3.04888 31.7053 3.20844 31.914 3.31481 32.0831ZM7.52598 38.7353H7.50689C7.39915 38.5553 7.29414 38.3739 7.18641 38.1898L7.52598 38.7353ZM39.497 41.3468L39.6498 41.3291C39.6597 41.3756 39.687 41.4166 39.7262 41.4437C39.7322 41.4482 39.7386 41.4523 39.7452 41.4559C39.7007 41.5102 39.6601 41.5676 39.6239 41.6278C39.597 41.6117 39.5681 41.5993 39.538 41.591C39.5516 41.5685 39.5588 41.5428 39.5588 41.5166C39.5588 41.4904 39.5516 41.4647 39.538 41.4423C39.5257 41.4109 39.512 41.3782 39.497 41.3468ZM62.1348 28.9533C62.2057 28.2169 62.2439 27.4778 62.2589 26.7373L62.5003 27.4096C62.4362 28.0697 62.3639 28.7324 62.3025 29.3966L62.1348 28.9533ZM60.8665 21.8115L60.9593 21.9479C61.2002 22.6352 61.4425 23.3216 61.6861 24.0071V24.0399C61.4116 23.298 61.1384 22.5552 60.8665 21.8115ZM64.0031 31.6194L63.849 31.6985C63.8558 31.5444 63.8626 31.3917 63.8667 31.2389L64.0031 31.6194ZM64.194 31.9672C64.2302 31.977 64.2684 31.9773 64.3047 31.9679C64.341 31.9586 64.3743 31.94 64.4013 31.914C64.4149 31.9603 64.505 31.914 64.449 31.8758C64.449 31.8758 64.449 31.8676 64.4409 31.8649C64.4449 31.8602 64.4486 31.8552 64.4518 31.8499C64.4859 31.9494 64.5213 32.0476 64.5554 32.1472C64.5002 32.0916 64.4283 32.0557 64.3507 32.0449C64.2732 32.034 64.1942 32.0489 64.1258 32.0872L63.8217 32.2413C63.8217 32.2154 63.8217 32.1895 63.8285 32.1622L64.194 31.9672ZM64.7613 32.7281V32.7363C64.7673 32.7481 64.7742 32.7595 64.7818 32.7704H64.7395C64.7504 32.7554 64.7572 32.7418 64.7627 32.7281H64.7613ZM63.5735 30.4207C63.5326 30.9226 63.4672 31.4258 63.4031 31.9208L63.1767 32.0367C63.2832 31.2231 63.3151 30.4015 63.2722 29.582L63.5735 30.4207ZM63.3403 32.4158L63.3322 32.4813L63.0676 32.6177C63.0676 32.5986 63.0771 32.5781 63.0812 32.5577L63.3403 32.4158ZM62.7948 32.7458C59.7292 34.2719 56.7058 35.8947 53.6347 37.4098C51.9983 38.2198 50.3454 39.0135 48.6994 39.8127C48.6067 39.8577 48.5112 39.9054 48.4158 39.949C48.424 39.9204 48.4349 39.8918 48.4417 39.8631C49.2845 39.4604 50.1259 39.0567 50.9659 38.6521C54.938 36.7429 58.8742 34.7605 62.7744 32.7049C62.7813 32.7202 62.791 32.7341 62.803 32.7458H62.7948ZM40.3248 44.3498L40.3576 44.332V44.3429L40.3248 44.3498ZM42.5722 42.341L42.4931 42.3683C42.4687 42.3778 42.4464 42.3922 42.4277 42.4105C42.4018 42.3505 42.3731 42.2905 42.3472 42.2305C42.3997 42.2669 42.4591 42.2919 42.5218 42.3042C42.5368 42.3042 42.5504 42.3042 42.5641 42.3042C42.5651 42.3168 42.5678 42.3292 42.5722 42.341ZM41.1171 44.7043C41.1312 44.6575 41.1489 44.6119 41.1703 44.5679L41.2058 44.5598C41.1643 44.6434 41.1553 44.7395 41.1805 44.8294C41.2057 44.9193 41.2633 44.9967 41.3422 45.0466C41.2672 45.0766 41.1908 45.1053 41.1144 45.1325C41.147 45.0659 41.1642 44.9929 41.1646 44.9187C41.1651 44.8446 41.1489 44.7713 41.1171 44.7043ZM48.2262 40.0554C48.0444 40.1463 47.8626 40.2436 47.6807 40.3472C47.6807 40.3091 47.6875 40.2709 47.6903 40.2313L48.2426 39.9681C48.2358 39.9981 48.2317 40.0268 48.2262 40.0554ZM47.4544 40.4645C47.1816 40.6145 46.9089 40.7673 46.6225 40.9186C46.6293 40.8504 46.6443 40.7823 46.647 40.7168C46.9198 40.5913 47.1857 40.4659 47.4544 40.3377C47.4562 40.3831 47.4571 40.4268 47.4571 40.4686L47.4544 40.4645ZM46.4397 41.01C46.2134 41.1309 45.9861 41.2487 45.7579 41.3632L45.5861 41.4068C45.5861 41.3414 45.5779 41.2705 45.5738 41.2105L46.4288 40.815C46.4302 40.89 46.4357 40.9541 46.4397 41.0196V41.01ZM45.3924 41.4587L44.9219 41.5855C44.9219 41.5596 44.9219 41.535 44.9151 41.5105L45.376 41.2991L45.3924 41.4587ZM44.7965 41.6182L44.4719 41.7123L44.7896 41.5678C44.7924 41.5937 44.7951 41.6114 44.7965 41.6278V41.6182ZM48.8781 40.695C48.8441 40.6708 48.8056 40.6537 48.7649 40.6445C49.0649 40.5082 49.3663 40.3718 49.6649 40.2354C49.4045 40.3991 49.1413 40.5532 48.8781 40.7045V40.695ZM56.4031 6.38922V6.37286L56.4126 6.39058L56.4031 6.38922ZM61.7761 24.3112V24.2894C61.8752 24.5694 61.9743 24.8499 62.0734 25.1308V25.139C61.9793 24.8635 61.8798 24.5881 61.7761 24.3112ZM62.4362 31.539C62.6203 30.448 62.6994 29.327 62.7812 28.2142C62.8576 28.4297 62.9349 28.6451 63.013 28.8606C62.9967 28.8719 62.9837 28.8873 62.9753 28.9053C62.9669 28.9233 62.9635 28.9431 62.9653 28.9629C63.0021 30.0689 62.8644 31.1448 62.7976 32.2358C58.6955 34.3414 54.5716 36.4061 50.4136 38.3957C49.7918 38.693 49.1672 38.9849 48.544 39.2794C48.5783 38.7481 48.5182 38.2148 48.3667 37.7043C48.3449 37.628 48.2303 37.6484 48.2439 37.7275C48.3763 38.2681 48.4059 38.8288 48.3312 39.3804L47.6971 39.6804C47.6971 39.6081 47.6971 39.5358 47.6971 39.4676C47.6869 39.0465 47.6528 38.6262 47.5948 38.2089C47.5812 38.1039 47.4257 38.1366 47.4353 38.2389C47.4769 38.6923 47.4956 39.1474 47.4912 39.6026C47.4912 39.6613 47.4912 39.7199 47.4844 39.7786L46.9225 40.0513C46.8284 40.0949 46.7329 40.144 46.6375 40.1877C46.6116 39.8495 46.557 39.5126 46.5011 39.199C46.4946 39.1742 46.4789 39.1528 46.4573 39.1392C46.4356 39.1255 46.4095 39.1207 46.3844 39.1255C46.3592 39.1304 46.3369 39.1446 46.3218 39.1653C46.3068 39.1861 46.3002 39.2118 46.3034 39.2372C46.3617 39.5917 46.3945 39.9499 46.4016 40.3091C46.1179 40.4591 45.8261 40.62 45.5315 40.7768C45.4865 40.4277 45.4251 40.0799 45.3638 39.7458C45.3577 39.7267 45.3448 39.7104 45.3275 39.7001C45.3102 39.6899 45.2897 39.6864 45.27 39.6903C45.2503 39.6941 45.2326 39.7051 45.2205 39.7212C45.2084 39.7372 45.2026 39.7572 45.2042 39.7772C45.271 40.144 45.3065 40.5109 45.3406 40.8777C45.1756 40.9636 45.0106 41.0441 44.8456 41.1205C44.7775 40.8513 44.6862 40.5884 44.5728 40.335C44.5564 40.2968 44.5033 40.3254 44.5169 40.3622C44.6137 40.6262 44.685 40.8988 44.7296 41.1764C44.5391 41.2623 44.3443 41.3383 44.146 41.4041C44.1228 41.0986 44.0723 40.7932 44.0273 40.5177C44.0096 40.4018 43.8309 40.4359 43.85 40.5518C43.8973 40.8377 43.9296 41.1258 43.9469 41.415C43.9469 41.43 43.9469 41.445 43.9469 41.4587C43.8869 41.475 43.8269 41.4955 43.7669 41.5091C43.6819 41.5252 43.5953 41.5302 43.5091 41.5241C43.4723 41.1068 43.4177 40.6909 43.3727 40.2777C43.3727 40.2777 43.3727 40.2777 43.3727 40.2681L51.2823 35.6247C52.7688 34.7505 54.2484 33.8518 55.7662 33.0336C57.6563 32.0108 60.0265 30.6294 62.2166 30.4875C62.1948 30.8326 62.1784 31.1694 62.1757 31.5199C62.181 31.5496 62.196 31.5767 62.2184 31.597C62.2408 31.6173 62.2693 31.6296 62.2994 31.6319C62.3295 31.6342 62.3596 31.6265 62.3848 31.6099C62.4101 31.5934 62.4291 31.5689 62.4389 31.5403L62.4362 31.539ZM43.25 41.4941C42.8627 41.4096 42.4318 41.205 42.0227 41.0645L43.1368 40.41C43.175 40.7673 43.2077 41.1273 43.2527 41.4887L43.25 41.4941ZM39.0797 43.3147L39.0866 43.2983C39.0934 43.3801 39.1002 43.462 39.1084 43.5438L39.0661 43.5656C39.0835 43.5364 39.0894 43.5018 39.0826 43.4685C39.0758 43.4352 39.0568 43.4056 39.0293 43.3856C39.0484 43.3583 39.0661 43.3351 39.0825 43.3092L39.0797 43.3147ZM38.9338 43.6311L38.7252 43.7361C38.7647 43.7006 38.8029 43.6624 38.8411 43.6229C38.8656 43.6215 38.9025 43.6311 38.9338 43.6311ZM17.473 54.7999C17.6284 54.7359 17.7839 54.6745 17.938 54.609C17.7852 54.6936 17.6311 54.7781 17.4798 54.864C17.4795 54.8425 17.4772 54.821 17.473 54.7999ZM52.571 39.4895L56.744 37.2448C56.8504 37.2284 56.954 37.2039 57.0577 37.1807C56.1031 37.6866 55.1389 38.1885 54.183 38.6985C53.1152 39.2672 52.0433 39.829 50.9741 40.3936C51.5155 40.0854 52.0487 39.7717 52.571 39.4895ZM60.8011 35.176C60.8802 35.1283 61.6343 34.8283 62.4607 34.4791C61.6261 34.8787 60.8447 35.2237 60.4152 35.4242C60.5406 35.3397 60.6688 35.2565 60.8011 35.176ZM65.3218 32.8577C65.3368 32.8454 65.3546 32.8345 65.3696 32.8209L65.3218 32.8577ZM65.4909 32.5958C65.5018 32.5208 65.5059 32.4445 65.5127 32.3695C65.567 32.4138 65.6328 32.4417 65.7023 32.4499C65.6177 32.5888 65.5087 32.7113 65.3805 32.8113C65.4387 32.753 65.4765 32.6774 65.4882 32.5958H65.4909ZM55.2303 6.02511C55.1976 5.89692 55.1621 5.766 55.1253 5.63372L55.2385 5.93237C55.2315 5.96277 55.2288 5.99397 55.2303 6.02511ZM39.1493 40.4059C39.1594 40.4276 39.174 40.447 39.192 40.4628C39.2101 40.4785 39.2314 40.4903 39.2543 40.4972C39.2857 40.5641 39.317 40.6336 39.3498 40.6977H39.2011C39.0647 40.38 38.9393 40.0595 38.8193 39.7431C38.9284 39.9613 39.0402 40.1836 39.1493 40.4059ZM38.4674 42.2442L38.3092 42.1896L38.4933 42.116C38.4811 42.1583 38.4729 42.2005 38.4647 42.2442H38.4674ZM36.7478 43.0119C37.1214 43.1474 37.4978 43.2715 37.8769 43.3842C37.9656 43.4101 38.0556 43.4388 38.1497 43.4674C38.1187 43.5228 38.0821 43.5749 38.0406 43.6229C37.9738 43.6993 37.9003 43.7696 37.821 43.8329C37.5401 43.7456 37.2537 43.6665 36.981 43.5752C36.6032 43.447 36.2282 43.3106 35.8532 43.1742L36.6714 42.8469C36.6614 42.8787 36.6634 42.913 36.677 42.9434C36.6905 42.9738 36.7148 42.9982 36.7451 43.0119H36.7478ZM6.37636 36.2806C6.39524 36.2572 6.4045 36.2274 6.40227 36.1974C6.37109 35.8171 6.3049 35.4405 6.20453 35.0724C6.47728 35.8674 6.76366 36.6734 7.10868 37.4357L6.37636 36.2806ZM5.97815 35.6506L5.73814 35.2715L5.32902 34.6305C5.23574 33.9133 5.05625 33.21 4.79444 32.5358L5.13947 33.0404C5.49403 33.8941 5.70814 34.7792 5.97815 35.6506ZM3.62301 31.9317C3.57937 31.8635 3.44982 31.659 3.27935 31.3862C3.28706 31.3785 3.29262 31.3689 3.29549 31.3584C3.29836 31.3479 3.29844 31.3368 3.29572 31.3262C3.1498 30.7466 2.99161 30.1711 2.82796 29.597C2.99979 29.8575 3.17025 30.1193 3.34481 30.3784C3.48118 30.9717 3.61755 31.5676 3.77165 32.1513C3.7212 32.0872 3.67347 32.0094 3.62301 31.9317ZM12.4095 48.8787C12.6486 49.3814 12.8977 49.8783 13.1568 50.3692C12.4831 49.2782 11.8103 48.1873 11.1385 47.0963C11.4839 47.5909 11.8408 48.08 12.209 48.5637L12.4095 48.8787ZM17.1825 55.895C17.2236 55.873 17.2601 55.8434 17.2902 55.8077C17.323 55.8037 17.3551 55.7955 17.3857 55.7832L17.7948 55.58C18.2639 55.43 18.7303 55.265 19.1926 55.0904C18.5871 55.565 17.9462 55.9591 17.1743 55.895H17.1825ZM39.5857 45.8035L39.6239 45.8212L39.4875 45.8512L39.5857 45.8035ZM66.2423 32.1322C66.2095 32.112 66.1728 32.099 66.1346 32.094C66.1365 32.0318 66.1268 31.9699 66.106 31.9113L64.2977 26.9609C64.9441 28.6847 65.5923 30.4084 66.2423 32.1322ZM55.5208 3.40131C55.5307 3.38094 55.5359 3.35853 55.5358 3.33585C55.5849 3.51041 55.638 3.68496 55.6885 3.85952C55.6162 3.73406 55.5412 3.60859 55.4649 3.48586C55.486 3.4594 55.5047 3.4311 55.5208 3.40131ZM55.2139 3.70678C55.2576 3.84315 55.3012 3.96862 55.3503 4.09681L55.2794 4.12408C55.253 4.13615 55.2306 4.15529 55.2144 4.17936C55.1983 4.20343 55.1892 4.2315 55.188 4.26045C55.1017 4.17 55.0051 4.08991 54.9003 4.0218C54.8845 4.01449 54.8672 4.01121 54.8498 4.01226C54.8266 3.96998 54.8062 3.92498 54.7816 3.88407C54.9326 3.84143 55.0777 3.78052 55.2139 3.70269V3.70678ZM54.4748 3.9468L54.5893 3.92225C54.633 4.14317 54.6916 4.36137 54.7571 4.57684C54.6613 4.35646 54.539 4.14856 54.393 3.95771L54.4748 3.9468ZM51.8946 6.62651C52.0198 5.66308 52.034 4.68845 51.9369 3.72178C51.9369 3.64951 51.866 3.6386 51.8142 3.66314C51.911 3.5745 52.0051 3.4845 52.1087 3.40404C52.346 3.21448 52.6447 3.07947 52.882 2.88719C53.302 4.60547 53.7697 6.31967 54.2743 8.02978C54.2545 8.01525 54.2312 8.00634 54.2067 8.00398C54.1823 8.00163 54.1577 8.00591 54.1355 8.01639C54.1133 8.02686 54.0943 8.04314 54.0806 8.0635C54.0668 8.08386 54.0589 8.10754 54.0575 8.13206C53.9976 9.10125 54.025 10.0739 54.1393 11.0381C54.198 11.5264 54.2661 12.0091 54.3111 12.4932C54.3145 12.5391 54.3104 12.5851 54.2989 12.6296C54.077 12.0914 53.8529 11.5536 53.6266 11.0163C53.6743 10.1449 53.6047 9.25576 53.5843 8.38571C53.5638 7.57566 53.5843 6.74924 53.4711 5.9501C53.4506 5.80282 53.2256 5.84646 53.2447 5.99374C53.4356 7.43247 53.2843 8.90256 53.347 10.3576C53.1652 9.91944 52.9806 9.48214 52.7933 9.04575C52.8085 9.05267 52.825 9.05602 52.8417 9.05554C52.8584 9.05507 52.8747 9.05078 52.8894 9.04301C52.9042 9.03524 52.917 9.0242 52.9268 9.01073C52.9366 8.99725 52.9432 8.98171 52.9461 8.96529C53.1452 7.59339 53.0142 6.10148 53.0279 4.71594C53.0279 4.53592 52.7551 4.51411 52.7483 4.69548C52.732 6.07147 52.5765 7.54156 52.736 8.91074C52.4169 8.16342 52.0937 7.41792 51.7664 6.67424C51.7773 6.68263 51.7901 6.68813 51.8036 6.69019C51.8171 6.69226 51.831 6.69084 51.8438 6.68606C51.8567 6.68128 51.8681 6.6733 51.877 6.66288C51.8858 6.65246 51.8919 6.63994 51.8946 6.62651ZM49.5027 2.03759C52.7756 10.9904 56.7958 19.7087 60.3852 28.5401C56.5231 30.4207 52.8656 32.8386 49.1685 35.0205C46.6102 36.5288 43.9455 37.9689 41.6681 39.8918C42.7168 38.483 43.6946 37.0211 45.256 36.1061C47.4066 34.8474 49.7959 34.1587 51.9028 32.7663C53.8491 31.4907 55.6111 29.954 57.1395 28.1992C57.6304 27.6305 58.2605 26.9828 58.0177 26.29C58.0315 26.2657 58.0387 26.2382 58.0387 26.2102C58.0387 26.1823 58.0315 26.1548 58.0177 26.1304C54.0534 18.7036 50.8582 11.0381 47.5566 3.33858C48.3347 3.13943 49.0213 2.68041 49.5027 2.03759ZM27.784 12.9078C28.9487 11.2713 30.9438 10.7709 32.7098 10.0685C34.2945 9.45385 35.8378 8.73731 37.3301 7.92341C38.2559 7.40811 39.1469 6.83275 39.9975 6.20103C39.6852 6.51468 39.3702 6.82425 39.0607 7.142C39.038 7.16251 39.0243 7.19115 39.0227 7.22168C39.021 7.25221 39.0315 7.28216 39.0518 7.305C39.0722 7.32785 39.1007 7.34173 39.1312 7.34364C39.1617 7.34555 39.1917 7.33532 39.2148 7.31519C41.7431 5.4578 44.0737 2.97446 46.0606 0.523859C48.9572 9.42077 53.2993 18.0572 57.685 26.2968C57.7045 26.3342 57.737 26.3633 57.7764 26.3786C57.64 27.0537 56.789 28.1747 56.4781 28.5388C56.1497 28.896 55.8 29.233 55.4308 29.5479C54.6234 30.2842 53.7722 30.9709 52.882 31.6044C51.0123 32.934 49.0185 33.9582 46.9102 34.8446C43.7437 36.1756 42.2981 38.4039 40.2771 40.9459C40.2638 40.9189 40.2458 40.8944 40.2239 40.8736C40.226 40.8495 40.223 40.8252 40.2152 40.8022C40.2074 40.7793 40.1948 40.7582 40.1784 40.7404C40.162 40.7225 40.142 40.7083 40.1198 40.6986C40.0976 40.6889 40.0736 40.684 40.0494 40.6841C40.2198 40.5941 40.078 40.3091 39.9007 40.4113L39.7643 40.4863C39.7469 40.4965 39.7313 40.5094 39.718 40.5245C39.1779 39.4399 38.6324 38.3589 38.0815 37.2816C38.1049 37.2759 38.1264 37.2641 38.1437 37.2475C38.1611 37.2308 38.1737 37.2099 38.1804 37.1867C38.187 37.1636 38.1875 37.1391 38.1816 37.1158C38.1757 37.0924 38.1638 37.0711 38.147 37.0538C38.0379 36.9448 37.9219 36.8411 37.8033 36.7416C37.6928 36.5302 37.5797 36.3215 37.4692 36.1115L37.5469 36.2015C37.5626 36.2169 37.583 36.2264 37.6048 36.2284C37.6266 36.2305 37.6485 36.225 37.6667 36.2128C37.685 36.2006 37.6985 36.1826 37.7049 36.1617C37.7114 36.1407 37.7105 36.1182 37.7024 36.0979C37.6069 35.8694 37.4762 35.6573 37.3151 35.4692C37.2177 34.947 37.1495 34.4198 37.1105 33.89C37.1105 33.8273 36.9973 33.8327 36.9987 33.8968C37.011 34.3346 37.0355 34.7819 37.0846 35.2251C36.9591 35.1121 36.8251 35.0091 36.6837 34.9169V34.9033C36.4546 34.0223 36.3291 33.2136 36.505 32.2549C36.5146 32.2031 36.4341 32.199 36.4246 32.2549C36.3058 32.8324 36.2668 33.4234 36.3087 34.0114C36.0959 33.4877 35.8995 32.9545 35.71 32.4063C35.6186 31.2526 35.7659 30.1411 36.3578 29.0188C36.3932 28.9533 36.2978 28.8824 36.2582 28.9533C35.6579 29.9862 35.3651 31.169 35.4141 32.3626L35.0213 31.5444L34.9968 29.9175C34.9968 29.8929 34.9586 29.8902 34.9586 29.9175L34.9954 31.4899C33.4408 28.2169 31.9679 24.899 30.4788 21.5933C30.4788 21.5852 30.491 21.5797 30.4924 21.5661C30.5235 20.9321 30.4694 20.2969 30.3315 19.6773C30.3291 19.6652 30.3221 19.6545 30.3118 19.6476C30.3016 19.6407 30.289 19.6381 30.2769 19.6405C30.2648 19.6428 30.2541 19.6499 30.2472 19.6601C30.2403 19.6704 30.2378 19.6829 30.2401 19.695C30.3064 20.2243 30.3401 20.7572 30.341 21.2906C30.2047 20.9974 30.0778 20.7042 29.9442 20.411C29.7557 19.213 29.6835 17.9995 29.7287 16.7876C29.7298 16.7735 29.7252 16.7595 29.716 16.7488C29.7068 16.738 29.6937 16.7314 29.6796 16.7303C29.6655 16.7292 29.6516 16.7338 29.6408 16.743C29.6301 16.7522 29.6234 16.7653 29.6223 16.7794C29.5157 17.7042 29.4942 18.6368 29.5583 19.5655L29.4219 19.2614C29.3932 18.7718 29.3551 18.2836 29.3578 17.7927C29.3578 17.0426 29.4342 16.2926 29.4601 15.5493C29.4601 15.4716 29.3401 15.4375 29.3237 15.5207C29.104 16.459 29.0023 17.421 29.0209 18.3845C28.9391 18.2045 28.8559 18.0259 28.7727 17.839C28.7348 17.5611 28.7179 17.2808 28.7223 17.0003C28.7574 16.3529 28.8399 15.7088 28.9691 15.0734C28.9828 14.997 28.8682 14.982 28.8409 15.0475C28.5922 15.6786 28.4418 16.3441 28.395 17.0208L28.1223 16.4289C28.1427 16.2544 28.1645 16.0894 28.1809 15.953C28.2627 15.2584 28.4116 14.5733 28.6255 13.9074C28.6312 13.8825 28.6275 13.8563 28.615 13.8339C28.6025 13.8115 28.5823 13.7945 28.558 13.7862C28.5338 13.7779 28.5074 13.7789 28.4838 13.7889C28.4603 13.799 28.4412 13.8174 28.4305 13.8406C28.1868 14.5568 28.0226 15.2977 27.9409 16.0498C27.6745 15.4834 27.4058 14.9193 27.1349 14.3574C27.1341 14.3502 27.1341 14.3429 27.1349 14.3356C27.3272 14.4079 27.559 14.472 27.6722 14.397C27.6732 14.5217 27.6837 14.6462 27.7036 14.7693C27.7145 14.8334 27.8236 14.832 27.8209 14.7693C27.784 14.1624 27.9107 13.5568 28.1877 13.0155C28.2341 12.9283 28.1086 12.841 28.0513 12.9296C27.8475 13.2787 27.721 13.6675 27.6804 14.0697C27.6706 14.0482 27.6554 14.0296 27.6363 14.0157C27.6172 14.0019 27.5948 13.9932 27.5713 13.9906L27.514 13.9824C27.4899 13.981 27.4659 13.9868 27.4451 13.999C27.4242 14.0112 27.4074 14.0293 27.3968 14.051C27.3861 14.0726 27.3821 14.097 27.3853 14.121C27.3885 14.1449 27.3986 14.1674 27.4145 14.1856C27.3756 14.1392 27.3327 14.0963 27.2863 14.0574C27.2957 14.0527 27.3038 14.0458 27.31 14.0374C27.3163 14.0289 27.3204 14.0191 27.3221 14.0087C27.3239 13.9984 27.3231 13.9878 27.32 13.9777C27.3168 13.9677 27.3114 13.9586 27.304 13.9511L27.2754 13.9251C27.4126 13.5708 27.5829 13.2302 27.784 12.9078ZM13.3995 19.0445C12.9604 19.095 12.5213 19.1536 12.0835 19.2096C13.1056 18.9237 14.1078 18.5711 15.0837 18.154C16.6389 17.4718 18.1481 16.6892 19.6017 15.8112C21.2382 14.8443 22.8597 13.5733 24.8657 13.6551C25.5095 13.7216 26.1384 13.8911 26.7285 14.157L26.7735 14.277C26.735 14.3725 26.7014 14.4699 26.6726 14.5688V14.2961C26.6726 14.172 26.4762 14.1597 26.479 14.2824C26.4781 14.5284 26.4908 14.7743 26.5172 15.0188C26.5187 15.0293 26.5226 15.0392 26.5287 15.0478C26.5347 15.0564 26.5428 15.0634 26.5521 15.0683C26.5614 15.0733 26.5717 15.0759 26.5822 15.0761C26.5927 15.0762 26.6032 15.0739 26.6126 15.0693C26.6136 15.1299 26.6209 15.1902 26.6344 15.2493C26.6295 15.2258 26.6179 15.2043 26.6009 15.1874C26.5839 15.1705 26.5623 15.1589 26.5388 15.1541C26.5153 15.1493 26.4909 15.1515 26.4686 15.1604C26.4464 15.1694 26.4272 15.1846 26.4135 15.2043L26.3835 15.2534C26.367 15.2806 26.3593 15.3123 26.3615 15.344C26.3637 15.3757 26.3757 15.406 26.3958 15.4307C26.7353 15.9366 26.9413 15.1116 26.9985 14.8702C27.2713 15.6066 27.5618 16.3417 27.8591 17.0726C27.8359 17.5676 27.8591 18.1186 28.1686 18.3859C28.184 18.404 28.2059 18.4152 28.2296 18.4171C28.2532 18.419 28.2767 18.4115 28.2948 18.3961C28.3128 18.3807 28.3241 18.3588 28.326 18.3351C28.3279 18.3115 28.3204 18.288 28.305 18.27C28.1794 18.0759 28.1057 17.8529 28.0909 17.6222C30.296 22.9693 32.9375 28.1447 35.575 33.305C35.5913 33.3663 35.6118 33.4277 35.6323 33.4891C34.5849 32.6981 33.2717 32.2372 31.9925 32.0776C31.9202 32.0694 31.9148 32.1772 31.9843 32.1908C33.588 32.4813 34.8481 33.2354 36.0591 34.2528L36.2637 34.6537C35.455 34.2173 34.4826 33.9718 33.7149 33.7973C33.6494 33.7823 33.614 33.8777 33.6808 33.8982C34.4199 34.13 35.1809 34.3632 35.8627 34.7273C36.0852 34.8455 36.2957 34.9848 36.4914 35.1433C36.6305 35.4824 36.7787 35.8206 36.936 36.1579C36.3515 35.827 35.7261 35.5744 35.0759 35.4065C34.9872 35.3833 34.9395 35.5142 35.0295 35.5428C35.7993 35.7966 36.5232 36.1728 37.1733 36.657C37.1951 36.702 37.2155 36.747 37.2374 36.7934C37.8592 38.0535 38.192 39.4458 38.777 40.7113C35.8014 40.7263 33.3139 40.6309 30.506 42.2114C28.6268 43.2724 26.7026 44.1997 24.642 44.8448C23.5511 45.1857 18.4726 46.8031 17.1307 45.6876C17.1531 45.6617 17.1675 45.6299 17.1721 45.596C17.1767 45.5621 17.1713 45.5275 17.1566 45.4966C13.3122 36.9843 9.13653 28.2674 3.88212 20.5256C7.0364 20.4546 10.428 20.1328 13.4432 19.2709C13.4734 19.2651 13.5 19.2476 13.5173 19.2221C13.5346 19.1967 13.541 19.1654 13.5352 19.1352C13.5294 19.105 13.5119 19.0784 13.4864 19.0611C13.461 19.0438 13.4297 19.0374 13.3995 19.0432V19.0445ZM17.2684 49.0055C12.4831 40.755 8.04556 32.2399 2.9766 24.1694C3.77728 24.1827 4.55853 23.9224 5.19129 23.4316C9.25654 30.7548 13.3627 37.9757 16.8102 45.6603C16.8203 45.6859 16.837 45.7085 16.8585 45.7257C16.88 45.7429 16.9057 45.7542 16.9329 45.7585C17.3298 46.3803 18.2203 46.2671 18.9785 46.2331C21.3031 46.1083 23.5986 45.6565 25.7971 44.8912C28.1877 44.0729 30.1965 42.6206 32.5066 41.6823C34.1813 41.0005 35.9446 41.1259 37.7038 41.1614C34.7895 41.7805 32.017 43.0079 29.2555 44.107C25.2707 45.6917 21.1209 47.1017 17.2684 49.0041V49.0055ZM17.2002 51.7411C17.2175 51.7744 17.2431 51.8026 17.2745 51.8231C17.3059 51.8437 17.342 51.8557 17.3794 51.8582C17.4169 51.8607 17.4543 51.8534 17.4881 51.8372C17.5219 51.821 17.551 51.7964 17.5725 51.7657C19.0031 50.0501 21.6323 48.9891 23.6465 48.1013C25.2257 47.4045 26.8376 46.7813 28.44 46.1403L29.3946 45.7571C29.4075 45.7767 29.4276 45.7905 29.4505 45.7953L31.6434 46.2753C31.9161 46.3353 32.2025 46.4117 32.4875 46.4812C32.1616 46.6463 31.837 46.814 31.5111 46.9776C31.1579 46.9558 30.802 46.9449 30.461 46.8917C29.6931 46.7674 28.9394 46.5674 28.2109 46.2944C28.0595 46.2385 27.9804 46.4731 28.1304 46.5317C28.806 46.8003 29.5043 47.008 30.2169 47.1522C30.4324 47.1958 30.6642 47.2436 30.8988 47.2886L29.8419 47.8136C28.959 47.6416 28.0866 47.4194 27.229 47.1481C27.2158 47.1435 27.2017 47.1416 27.1877 47.1425C27.1738 47.1433 27.1601 47.1469 27.1475 47.1531C27.1349 47.1592 27.1236 47.1678 27.1143 47.1783C27.105 47.1888 27.0979 47.201 27.0933 47.2142C27.0888 47.2275 27.0868 47.2415 27.0877 47.2555C27.0886 47.2695 27.0921 47.2832 27.0983 47.2958C27.1044 47.3084 27.113 47.3197 27.1235 47.3289C27.134 47.3382 27.1462 47.3454 27.1595 47.3499C27.8672 47.5995 28.6132 47.8545 29.3687 48.0482L28.3773 48.5405C28.2736 48.52 28.1713 48.5009 28.0704 48.4736C27.4774 48.3142 26.9017 48.0958 26.3521 47.8218C26.2158 47.7522 26.0685 47.9582 26.2158 48.0304C26.7712 48.3204 27.3501 48.5631 27.9463 48.7559L27.1526 49.1446L27.0722 49.1282C26.4243 48.9641 25.7886 48.7549 25.1698 48.5023C25.0334 48.4477 24.9639 48.6577 25.0962 48.715C25.598 48.9278 26.1612 49.1569 26.7435 49.3437L26.3085 49.5551C25.3634 49.2823 24.3857 49.0778 23.4556 48.8241C23.3356 48.7914 23.2729 48.9728 23.3929 49.0069C24.2111 49.2414 25.0293 49.5292 25.8626 49.7719C25.5557 49.9206 25.2503 50.0706 24.9421 50.2178C24.0515 50.0228 23.1569 49.8333 22.2814 49.5673C22.2539 49.5579 22.2239 49.5598 22.1978 49.5726C22.1717 49.5854 22.1517 49.608 22.1423 49.6355C22.1329 49.663 22.1348 49.6931 22.1476 49.7192C22.1604 49.7453 22.183 49.7652 22.2105 49.7746C22.9306 50.0037 23.6806 50.2519 24.4416 50.4565L23.8865 50.7224C23.6397 50.6611 23.3942 50.6051 23.1583 50.5451C22.3728 50.3433 21.5805 50.1701 20.7841 50.016C20.6054 49.9819 20.5891 50.2615 20.7636 50.2969C21.6218 50.4715 22.4728 50.6733 23.3165 50.9024L23.4324 50.9379L22.8433 51.2188C22.6455 51.182 22.4505 51.1424 22.2596 51.0961C21.59 50.9311 20.9245 50.7429 20.2659 50.5383C20.2439 50.5335 20.221 50.537 20.2015 50.548C20.1819 50.559 20.1671 50.5768 20.1599 50.5981C20.1526 50.6193 20.1534 50.6425 20.1622 50.6631C20.1709 50.6838 20.1869 50.7005 20.2072 50.7101C20.8829 50.9801 21.572 51.2149 22.2719 51.4138L22.3728 51.4425C22.2023 51.5243 22.0332 51.6061 21.8614 51.6866C21.7414 51.662 21.6214 51.6375 21.5068 51.6116C20.9286 51.4752 20.2509 51.2215 19.6535 51.2556C19.6207 51.2526 19.5879 51.2626 19.5624 51.2835C19.5369 51.3045 19.5206 51.3346 19.5172 51.3675C19.5172 51.4697 19.5267 51.5038 19.6263 51.5202C19.6303 51.5205 19.6344 51.5194 19.6378 51.5172C19.6413 51.515 19.6439 51.5117 19.6454 51.5079L19.659 51.4697C19.8117 51.5325 20.795 51.8325 21.2627 51.9702C20.0017 52.5675 18.7394 53.1585 17.4757 53.7431C14.8382 49.5946 12.1817 45.4462 9.54565 41.2855L7.41415 37.9198C7.42449 37.9177 7.4343 37.9136 7.44299 37.9076C7.45167 37.9016 7.45904 37.8939 7.46466 37.885C7.47027 37.876 7.47401 37.8661 7.47564 37.8556C7.47727 37.8452 7.47677 37.8346 7.47416 37.8244C7.21232 36.8207 6.7923 35.8374 6.39545 34.8637L7.22732 36.0829C7.20211 36.0806 7.17674 36.0849 7.15368 36.0953C7.13063 36.1058 7.1107 36.1221 7.09584 36.1425C7.08098 36.163 7.07171 36.1871 7.06894 36.2122C7.06617 36.2374 7.07 36.2628 7.08004 36.2861C7.46461 37.1316 7.71144 38.0275 8.0851 38.8771C8.09653 38.8977 8.1148 38.9137 8.13673 38.9222C8.15867 38.9307 8.1829 38.9313 8.20523 38.9239C8.22756 38.9164 8.24659 38.9014 8.25902 38.8814C8.27144 38.8614 8.2765 38.8377 8.2733 38.8144C8.15329 37.9962 7.80418 37.1779 7.45506 36.4224C8.12147 37.3952 8.77787 38.3753 9.42428 39.3626C12.0835 43.4456 14.6623 47.5859 17.2002 51.7398V51.7411ZM4.10849 31.5267C4.10684 31.5483 4.11108 31.57 4.12077 31.5894C4.47195 32.3862 4.75436 33.2115 4.96491 34.0564L4.20259 32.8509C4.11595 32.2784 3.99988 31.7108 3.85484 31.1503L4.10849 31.5267ZM0.299621 29.7375C0.318481 29.7498 0.339202 29.759 0.360988 29.7648C0.741467 29.8398 1.16422 29.5166 1.43696 29.2752C1.45742 29.2575 1.47515 29.237 1.4956 29.2179C1.50651 29.2629 1.51879 29.3093 1.53379 29.3543C1.37969 29.3052 1.18195 29.4511 1.2815 29.627L1.51742 30.0511C1.55152 30.1725 1.58561 30.2925 1.62107 30.4125L1.16558 29.7457C1.1547 29.7328 1.14113 29.7224 1.12582 29.7153C1.11051 29.7081 1.09383 29.7044 1.07694 29.7044C1.06006 29.7044 1.04337 29.7081 1.02806 29.7153C1.01275 29.7224 0.999181 29.7328 0.9883 29.7457C0.967921 29.7512 0.94896 29.761 0.932679 29.7745C0.916398 29.788 0.903172 29.8047 0.893881 29.8237C0.884591 29.8427 0.879449 29.8634 0.878799 29.8845C0.878149 29.9056 0.882006 29.9266 0.890112 29.9461C1.5897 31.3344 2.29338 32.634 3.27117 33.8232C3.99235 35.2538 4.81258 36.6322 5.72587 37.9484C6.08043 38.4871 6.45273 39.0149 6.83457 39.5358C7.44279 40.5695 8.05919 41.5978 8.68378 42.6206C8.94093 43.2937 9.24017 43.9501 9.57974 44.5857C9.12971 43.8584 8.67968 43.1288 8.22966 42.3969C5.64132 38.1898 3.25753 33.6977 0.299621 29.7375ZM16.637 56.0259C16.1897 55.2963 15.7397 54.5708 15.2924 53.844C15.3355 53.8619 15.3829 53.8667 15.4287 53.8576C15.7833 54.4795 16.1447 55.0972 16.5197 55.7095C16.5542 55.7682 16.606 55.8148 16.6681 55.8429C16.7301 55.8709 16.7992 55.8792 16.8661 55.8664C16.895 55.8958 16.9313 55.917 16.9711 55.9277C16.9573 55.9479 16.9518 55.9725 16.9556 55.9966C16.9594 56.0207 16.9722 56.0424 16.9916 56.0573C17.0216 56.0778 17.0516 56.0928 17.0816 56.1105C16.93 56.1043 16.7802 56.0759 16.637 56.0259ZM27.2317 51.4997L21.4768 54.2176C21.3514 54.2763 21.2041 54.354 21.0609 54.4331C22.9974 53.308 25.0771 52.5525 27.079 51.4888C27.439 51.2965 27.7881 51.0988 28.1359 50.8997C28.1481 50.9125 28.1638 50.9213 28.1811 50.925C28.1984 50.9286 28.2164 50.927 28.2327 50.9202C28.5436 50.8015 28.8559 50.6774 29.1669 50.556C28.5191 50.8779 27.8741 51.1956 27.229 51.4997H27.2317Z" fill="#312C93"/>
<path d="M51.2618 5.08132C51.2648 5.07989 51.2674 5.07789 51.2696 5.07543C51.2718 5.07298 51.2735 5.07012 51.2745 5.06702C51.2756 5.06391 51.2761 5.06063 51.2759 5.05735C51.2757 5.05407 51.2748 5.05087 51.2734 5.04791C51.272 5.04496 51.27 5.04231 51.2675 5.04013C51.2651 5.03795 51.2622 5.03627 51.2591 5.03519C51.256 5.03412 51.2527 5.03366 51.2494 5.03386C51.2462 5.03405 51.243 5.03489 51.24 5.03632C51.2114 5.05132 51.2332 5.09632 51.2618 5.08132Z" fill="#312C93"/>
<path d="M52.3133 6.85565C52.4183 5.95559 52.3583 5.03099 52.2956 4.12821C52.2846 3.97138 52.0446 4.01775 52.0555 4.17321C52.1196 5.06372 52.0951 5.94605 52.1387 6.84201C52.1369 6.86516 52.1444 6.88808 52.1595 6.90572C52.1746 6.92337 52.196 6.9343 52.2192 6.93611C52.2423 6.93792 52.2653 6.93045 52.2829 6.91537C52.3005 6.90028 52.3115 6.8788 52.3133 6.85565Z" fill="#312C93"/>
<path d="M57.4003 18.6014C57.3594 17.7504 57.0143 16.8462 56.8111 16.0198C56.7825 15.9026 56.6011 15.9353 56.627 16.0539C56.8125 16.8844 56.8998 17.8527 57.2462 18.6314C57.2762 18.7023 57.4044 18.6832 57.4003 18.6014Z" fill="#312C93"/>
<path d="M58.0628 20.2609C58.1167 20.8971 58.2285 21.527 58.397 22.1428C58.4201 22.2274 58.5524 22.2042 58.5333 22.1169C58.3807 21.498 58.2714 20.8691 58.206 20.235C58.1951 20.1423 58.0547 20.175 58.0628 20.2609Z" fill="#312C93"/>
<path d="M35.1615 27.9047C35.2584 27.5297 35.3361 27.1492 35.4179 26.7701C35.4212 26.7613 35.4225 26.7518 35.4217 26.7424C35.421 26.7331 35.4182 26.7239 35.4136 26.7157C35.409 26.7075 35.4027 26.7003 35.3951 26.6948C35.3875 26.6892 35.3788 26.6853 35.3696 26.6835C35.3603 26.6816 35.3508 26.6817 35.3416 26.6838C35.3325 26.686 35.3238 26.6901 35.3164 26.6958C35.3089 26.7016 35.3028 26.7089 35.2985 26.7173C35.2941 26.7256 35.2916 26.7348 35.2911 26.7442C35.2188 27.1261 35.1438 27.5065 35.0879 27.8897C35.0877 27.8987 35.0907 27.9074 35.0962 27.9144C35.1018 27.9214 35.1097 27.9262 35.1185 27.928C35.1272 27.9298 35.1363 27.9285 35.1442 27.9242C35.1521 27.9199 35.1582 27.9131 35.1615 27.9047Z" fill="#312C93"/>
<path d="M37.7984 36.6112C37.8123 36.6112 37.7984 36.5806 37.7873 36.5876C37.7857 36.5883 37.7843 36.5893 37.7832 36.5906C37.782 36.5919 37.7811 36.5933 37.7806 36.595C37.78 36.5966 37.7797 36.5983 37.7798 36.6C37.7799 36.6017 37.7803 36.6034 37.781 36.6049C37.7818 36.6065 37.7828 36.6079 37.7841 36.609C37.7853 36.6102 37.7868 36.6111 37.7884 36.6117C37.79 36.6122 37.7917 36.6125 37.7934 36.6124C37.7952 36.6123 37.7968 36.6119 37.7984 36.6112Z" fill="#312C93"/>
<mask id="mask0_993_538" style="mask-type:alpha" maskUnits="userSpaceOnUse" x="318" y="10" width="5" height="48">
<path d="M318 10H323V58H318V10Z" fill="#C4C4C4"/>
</mask>
<g mask="url(#mask0_993_538)">
<path d="M321.436 25.4245H320.34L319.731 24.6934L321.436 25.6681V25.4245ZM321.984 -6.31493H320.218H319V32.7958C319.169 33.1 319.405 33.3621 319.69 33.5625C319.975 33.7629 320.301 33.8965 320.644 33.9533H321.193L320.34 35.3545L319 34.6234V57.6512H320.644C321.119 57.6778 321.589 57.5496 321.984 57.2857V33.9533H321.619L321.984 33.5878V32.0038H321.132L320.644 29.7498V30.0544L320.218 29.5061H321.314H322.228V22.4394L320.523 21.0382L322.471 21.4038V-6.55859" fill="#312C93"/>
</g>
<mask id="mask1_993_538" style="mask-type:alpha" maskUnits="userSpaceOnUse" x="34" y="49" width="5" height="8">
<path d="M34 49H39V57H34V49Z" fill="#C4C4C4"/>
</mask>
<g mask="url(#mask1_993_538)">
<path d="M37.4361 25.4245H36.3399L35.7309 24.6934L37.4361 25.6681V25.4245ZM37.9843 -6.31493H36.2181H35V32.7958C35.1694 33.1 35.4053 33.3621 35.69 33.5625C35.9747 33.7629 36.3009 33.8965 36.6444 33.9533H37.1925L36.3399 35.3545L35 34.6234V57.6512H36.6444C37.1188 57.6778 37.589 57.5496 37.9843 57.2857V33.9533H37.6189L37.9843 33.5878V32.0038H37.1316L36.6444 29.7498V30.0544L36.2181 29.5061H37.3144H38.2279V22.4394L36.5226 21.0382L38.4715 21.4038V-6.55859" fill="#312C93"/>
</g>
</svg>
