<svg width="61" height="61" viewBox="0 0 61 61" fill="none" xmlns="http://www.w3.org/2000/svg">
<path fill-rule="evenodd" clip-rule="evenodd" d="M29.6559 2.10506C29.8446 2.20904 30.0252 2.30857 30.1263 1.97792C30.1374 1.94109 30.1504 1.90066 30.1641 1.85777C30.257 1.56753 30.3861 1.1644 30.246 1.0007C30.4956 0.994437 30.7454 0.991211 30.997 0.991211C32.797 0.991211 34.5605 1.15082 36.2746 1.45619C36.3623 1.63231 36.5048 1.75093 36.6751 1.69532C36.9732 1.59733 37.1415 1.75407 37.2914 1.8937C37.3802 1.97638 37.4625 2.05305 37.5616 2.06731C37.6504 1.95059 37.7081 1.84772 37.7422 1.75586C39.7266 2.21363 41.6357 2.86972 43.4487 3.70042L43.4486 3.7011L43.4483 3.70181L43.4483 3.70189C43.4481 3.70241 43.4478 3.70295 43.4478 3.70364C43.5313 3.83972 43.6573 3.87541 43.7849 3.85719C44.6936 4.28686 45.5761 4.76 46.4301 5.27527C46.332 5.34313 46.2383 5.41711 46.1444 5.49118L46.1444 5.49122C46.0737 5.54701 46.0029 5.60285 45.9302 5.65618C45.7167 5.81237 45.7402 6.02019 45.8833 6.19308C46.2193 6.5979 47.034 6.58936 47.3882 6.19821C47.3981 6.18694 47.4092 6.1748 47.4209 6.16205C47.4701 6.10817 47.5295 6.04333 47.5548 5.98716C47.8099 6.15664 48.0625 6.32878 48.3124 6.50604L48.2972 6.51611C48.2075 6.57532 48.1144 6.63678 48.2031 6.80021C48.4453 7.23861 48.9085 7.39823 49.3642 7.28967C49.5126 7.40449 49.661 7.52102 49.8068 7.63869C49.4684 7.73586 49.1325 7.87099 48.8357 8.18755C49.4762 8.44073 49.8119 8.19305 50.0958 7.8725C54.2717 11.3297 57.5002 15.8956 59.3225 21.1139L59.3167 21.1252C59.2794 21.1965 59.2396 21.2728 59.1976 21.2811C58.9443 21.3307 58.7186 21.2563 58.4908 21.1812C58.33 21.1282 58.1682 21.0748 57.9948 21.0644C57.875 20.7351 57.7448 20.4094 57.6122 20.0855C57.6088 20.0028 57.6078 19.9183 57.6069 19.8328C57.6022 19.3937 57.5971 18.9272 57.2529 18.5258C57.2711 18.8004 57.2867 19.0764 57.2996 19.3523C54.7223 13.5505 50.2807 8.75312 44.7404 5.72659C44.7828 5.70461 44.8244 5.68392 44.8647 5.66385L44.8648 5.6638L44.8652 5.66361L44.8653 5.66356C45.139 5.52725 45.356 5.4192 45.3992 5.12838C45.407 5.0741 45.1466 4.90557 45.0215 4.91809C44.6258 4.95852 44.5685 5.23295 44.592 5.64687C43.8188 5.23048 43.0248 4.84806 42.2127 4.50265L42.3013 4.33283L42.3035 4.32864L42.306 4.32389C42.3688 4.2038 42.429 4.08838 42.488 3.97485C42.2249 3.72831 41.9187 3.71285 41.6206 3.6978C41.3742 3.68535 41.1333 3.67319 40.9269 3.53094C40.9273 3.52997 40.9275 3.529 40.9278 3.52801C40.9281 3.52687 40.9283 3.5257 40.929 3.52448C40.929 3.52431 40.9229 3.5274 40.9217 3.52799L40.929 3.5243C40.9257 3.52525 40.9236 3.52544 40.9206 3.5262C40.2761 2.34968 39.4034 2.60386 38.5217 2.86068C38.3179 2.92004 38.1136 2.97954 37.9115 3.02155C37.9187 3.03977 37.9246 3.05534 37.9309 3.0728C35.7092 2.52052 33.387 2.22578 30.997 2.22578C23.8404 2.22578 17.2863 4.85356 12.2472 9.19398C12.0408 9.1664 11.8319 9.15903 11.623 9.15166H11.623C11.4266 9.14474 11.2302 9.13781 11.0356 9.11409C10.8159 9.08733 10.6796 9.18659 10.6828 9.34867C10.6947 10.0285 10.2534 10.2045 9.74445 10.4075L9.66423 10.4396C9.35677 10.5633 9.09657 10.9245 9.25448 11.4403C9.51562 11.3422 9.75001 11.3371 9.97073 11.3834C9.72116 11.6515 9.47444 11.9233 9.23398 12.2008C9.20608 12.1336 9.14516 12.0474 9.07702 12.0032C8.82161 11.8367 8.65068 12.0012 8.47793 12.1673C8.29755 12.3408 8.11519 12.5162 7.8326 12.3188C7.7563 12.2651 7.61909 12.5003 7.73258 12.5424C7.93565 12.6185 8.0017 12.7591 8.02656 12.9178C7.76959 12.7665 7.60959 12.8597 7.76427 13.2615C7.88133 13.5621 7.76351 13.6122 7.59166 13.6852L7.56518 13.6965C7.5544 13.7011 7.54471 13.7059 7.53502 13.7106C7.52902 13.7136 7.52303 13.7166 7.51679 13.7195C7.51833 13.7124 7.51963 13.7053 7.52094 13.6982L7.52252 13.6896L7.52495 13.6775L7.52386 13.6784C7.51742 13.6836 7.51138 13.689 7.50522 13.6945L7.49193 13.7062C7.47131 13.6892 7.45125 13.6715 7.43117 13.6538L7.43116 13.6538L7.43115 13.6538L7.43114 13.6538L7.43113 13.6537L7.43112 13.6537L7.43111 13.6537L7.43109 13.6537C7.39701 13.6236 7.36286 13.5935 7.32586 13.5669C7.16151 13.4484 6.99241 13.3435 6.81306 13.5414C6.7882 13.5688 6.75935 13.6276 6.77149 13.6487C6.87986 13.8329 7.04802 13.9349 7.25773 13.8827C7.28449 13.876 7.30954 13.8629 7.33422 13.8466C7.15866 14.0197 7.14519 14.2566 7.23496 14.5071C7.14101 14.5724 7.01006 14.6151 6.81932 14.6225C6.70659 14.6264 6.6191 14.6893 6.56823 14.7815C6.42476 14.5623 6.20081 14.5067 5.96471 14.4773C6.7138 13.3448 7.53729 12.2657 8.43004 11.2473C8.46003 11.2222 8.48679 11.1924 8.50937 11.1573C13.7716 5.19765 21.3595 1.33909 29.8393 1.01569C29.8272 1.06892 29.8239 1.1337 29.8206 1.20058V1.20059V1.2006V1.20061V1.20062V1.20063V1.20064V1.20066V1.20067V1.20068V1.2007V1.20071V1.20072C29.8117 1.3792 29.8021 1.57257 29.6203 1.601C29.5219 1.61638 29.4301 1.67747 29.3158 1.75355C29.2565 1.79297 29.1912 1.83641 29.1159 1.8796C29.1727 1.91544 29.2128 1.94407 29.2421 1.96501L29.2421 1.96502C29.2851 1.99574 29.3049 2.00987 29.3203 2.00581C29.4245 1.97754 29.5417 2.04212 29.6559 2.10506ZM7.52386 13.6784L7.50676 13.7148C7.50866 13.7173 7.5098 13.7196 7.51075 13.7222C7.4745 13.7406 7.44185 13.7607 7.41187 13.782L7.43199 13.7625L7.43204 13.7625L7.43212 13.7624L7.43228 13.7622C7.45166 13.7434 7.47143 13.7242 7.4912 13.7063C7.49571 13.7093 7.4994 13.7131 7.50273 13.7164L7.50449 13.7182C7.50657 13.7151 7.52132 13.6838 7.52386 13.6784ZM15.6185 56.2672L15.6185 56.2672C15.6535 56.2486 15.6886 56.23 15.7237 56.216C15.9444 56.1283 16.0953 55.9302 16.0416 55.7311C15.9656 55.4505 15.8248 55.5537 15.6972 55.6472L15.6971 55.6472C15.6567 55.6769 15.6176 55.7055 15.5823 55.7207C15.4684 55.7701 15.3809 55.7161 15.288 55.6586C15.1655 55.5829 15.0336 55.5013 14.8188 55.6432C14.871 55.7128 14.9213 55.775 14.9683 55.8333C15.0643 55.9522 15.1471 56.0548 15.2067 56.1695C15.3352 56.4175 15.4756 56.343 15.6185 56.2672ZM6.96238 48.6982C6.99559 48.7673 7.17494 48.8003 7.28312 48.7919C7.3875 48.784 7.53592 48.7363 7.4545 48.5579C7.44534 48.5478 7.43624 48.5373 7.42711 48.5267L7.42707 48.5266C7.3571 48.4455 7.28461 48.3615 7.15957 48.4382L7.14372 48.4477C7.13392 48.4534 7.12367 48.4593 7.11322 48.4652L7.11281 48.4654C7.01802 48.5191 6.90688 48.582 6.96238 48.6982ZM12.1109 52.6702C14.5865 54.8292 17.4327 56.572 20.542 57.789C20.4853 57.8188 20.4295 57.8497 20.3769 57.8808C20.0023 58.0953 19.6308 58.338 19.2913 58.6123C13.8497 56.2976 9.22749 52.4184 5.99029 47.5445C5.99029 47.5424 5.99105 47.5403 5.99238 47.5382C6.03451 47.3626 5.95101 47.178 5.77868 47.1307C5.75401 47.1233 5.73123 47.1192 5.70865 47.1152C3.68989 43.9603 2.24618 40.4034 1.52366 36.5951C1.60033 36.5004 1.69921 36.4116 1.83244 36.3281C2.23081 36.077 2.13781 35.5767 1.8983 35.2009C1.79321 35.0354 1.64923 34.895 1.49154 34.7413C1.41742 34.669 1.34026 34.5938 1.2627 34.5116C1.24733 34.5397 1.23082 34.5693 1.21412 34.5982C1.1811 34.326 1.15244 34.0533 1.12758 33.7788C1.13141 33.7788 1.13508 33.7792 1.13871 33.7796H1.13872H1.13873H1.13874H1.13874H1.13875H1.13876H1.13876H1.13877H1.13877H1.13878H1.13878H1.13879C1.14394 33.7801 1.14901 33.7805 1.15433 33.78C1.30825 33.7788 1.57965 33.6965 1.59616 33.6118C1.68171 33.1659 1.96944 33.1754 2.25188 33.1848L2.25221 33.1848L2.25253 33.1849L2.25286 33.1849L2.25318 33.1849L2.2535 33.1849L2.25381 33.1849L2.25412 33.1849L2.25443 33.1849L2.25475 33.1849C2.27459 33.1856 2.29441 33.1862 2.31412 33.1867C2.4948 35.5756 2.97078 37.8832 3.70241 40.075C3.67828 40.1021 3.6543 40.1285 3.63078 40.1544C3.38168 40.4289 3.18425 40.6464 3.40293 40.9708C3.44639 41.0357 3.66408 41.0638 3.73753 41.0141C3.85519 40.9357 3.91687 40.8522 3.94079 40.7613C5.15011 44.0996 6.9603 47.1533 9.24096 49.7891C9.20168 49.857 9.20073 49.9354 9.25539 50.013C9.28609 50.0561 9.31097 50.1076 9.33607 50.1595C9.41741 50.3279 9.50111 50.5011 9.79305 50.4082C10.3647 51.0326 10.9642 51.6311 11.5886 52.2028C11.5844 52.2656 11.5938 52.3316 11.6186 52.3863C11.7321 52.637 11.897 52.6949 12.1109 52.6702ZM5.79601 16.028C5.80854 16.0032 5.82087 15.9855 5.83416 15.9726C5.83353 15.9643 5.83373 15.9567 5.83394 15.9488L5.83416 15.9362C5.81878 15.6936 5.65253 15.4953 5.3986 15.3621C5.2462 15.612 5.09531 15.8641 4.94975 16.1189C5.04742 16.0755 5.16029 16.1197 5.27548 16.1647C5.46087 16.2373 5.65226 16.3121 5.79601 16.028ZM39.7631 3.55573C40.1538 3.60165 40.5374 3.64674 40.9202 3.52618C40.9212 3.52675 40.9212 3.52731 40.9212 3.52807L40.9234 3.5292L40.9251 3.53004L40.9265 3.53092C40.8851 3.70287 40.8851 3.85223 40.914 3.98812C40.4818 3.82907 40.0451 3.68048 39.6044 3.54193C39.65 3.54421 39.6942 3.54762 39.7377 3.55275L39.7631 3.55573ZM4.11067 18.0203C4.13971 17.8994 4.38416 17.7075 4.43255 17.7331C4.69277 17.8695 4.7239 18.1096 4.76321 18.4128C4.77519 18.5051 4.78793 18.6034 4.80814 18.7063C4.3221 18.5835 4.00838 18.4537 4.11067 18.0203ZM2.63698 24.0707C2.5958 24.3199 2.46978 24.5115 2.22837 24.6017C2.09514 24.5597 1.96001 24.491 2.00139 24.3538C2.01223 24.3182 2.02151 24.2804 2.03091 24.2421C2.07959 24.0437 2.13156 23.832 2.42138 23.8382C2.54911 23.841 2.66165 23.9169 2.63698 24.0707ZM5.35833 17.6521C5.26743 17.8544 4.80112 17.4594 4.61835 17.2531C4.44185 17.0546 4.58856 16.7817 4.84021 16.6369C4.84578 16.634 4.85186 16.6318 4.85794 16.6295L4.86698 16.6261C4.84762 16.5263 4.83509 16.4259 4.83509 16.3224C4.06835 17.6857 3.40372 19.114 2.85353 20.5977C2.96236 20.7128 3.07722 20.8348 3.20214 20.9674L3.44927 21.2297C3.1906 21.2607 2.95831 21.3467 2.73671 21.4288C2.6689 21.4539 2.60208 21.4786 2.53582 21.5013C1.90839 23.3791 1.46163 25.3388 1.217 27.36C1.38211 27.1619 1.60795 27.0773 1.89795 27.2991C1.89795 27.2977 1.89773 27.2961 1.8975 27.2943C1.89726 27.2925 1.897 27.2905 1.897 27.2889C2.02815 27.3342 2.14069 27.293 2.23331 27.2012C2.36881 27.067 2.41303 26.9674 2.18396 26.8518C1.81444 26.6654 1.90023 26.4102 2.1591 26.1222C2.343 26.2686 2.46466 26.4458 2.56069 26.636C3.04882 23.4362 4.06721 20.4095 5.52022 17.6454C5.46461 17.6581 5.40996 17.661 5.35833 17.6521ZM40.0721 59.1872C39.8507 59.1812 39.5482 59.1731 39.6807 59.5813C39.6932 59.6187 39.7025 59.6576 39.7118 59.698C36.9521 60.5368 34.0265 60.9912 30.9966 60.9912C30.0617 60.9912 29.1371 60.9457 28.224 60.861C28.2166 60.8301 28.2062 60.7969 28.1919 60.7618C28.074 60.4692 27.8263 60.4756 27.5837 60.4818C27.4481 60.4853 27.3141 60.4888 27.2052 60.4399C26.974 60.3352 26.6633 60.3658 26.3516 60.3965C25.6829 60.4625 25.0094 60.5288 25.1052 59.2603C25.1073 59.2398 25.031 59.1873 25.0064 59.1953C24.7357 59.2829 24.5459 59.1385 24.3548 58.9808C26.4878 59.4864 28.711 59.7557 30.9966 59.7557C32.3177 59.7557 33.6168 59.665 34.8914 59.4915C34.8996 59.5008 34.9079 59.5101 34.9172 59.5183C35.066 59.6545 35.2091 59.6671 35.3609 59.5587C35.4291 59.509 35.464 59.4585 35.4754 59.4069C40.9574 58.5462 45.9298 56.1315 49.9288 52.629C50.0199 52.5681 50.0954 52.5039 50.1396 52.4421C50.676 51.9623 51.1966 51.4626 51.694 50.9448C51.7407 51.1893 51.962 51.3358 52.1939 51.3316C52.4698 51.3274 52.9879 51.1914 53.0009 50.7579C53.0113 50.469 52.8109 50.1697 52.4645 50.1151C53.355 49.1172 54.1751 48.0563 54.9223 46.9417L54.9334 46.9444L54.9431 46.9468C54.9405 46.9377 54.9378 46.9284 54.9378 46.9179C55.0889 46.6889 55.24 46.4577 55.3857 46.2247L55.394 46.2688L55.3943 46.2702L55.3943 46.2704C55.3992 46.2967 55.4041 46.3229 55.4091 46.3484C55.4177 46.394 55.4259 46.4438 55.4347 46.4967L55.4347 46.4971C55.4915 46.8412 55.5699 47.317 55.9376 47.6425C55.6617 48.0531 55.3779 48.4565 55.0836 48.8528C54.9405 48.7467 54.8025 48.7777 54.7374 48.9809C54.7323 49.0026 54.7478 49.0583 54.7816 49.1346C54.7556 49.1532 54.7374 49.1749 54.7323 49.2007C54.7165 49.2646 54.701 49.3246 54.6801 49.3821C54.4355 49.696 54.1829 50.0058 53.9278 50.31C53.8408 50.3742 53.7505 50.4362 53.6596 50.4985C53.59 50.5462 53.5201 50.5941 53.4512 50.6435C53.355 50.7137 53.3732 50.8076 53.4357 50.8786C50.0563 54.6869 45.7241 57.6318 40.8192 59.3366C40.6323 59.2262 40.4155 59.1645 40.2028 59.1861C40.1671 59.1897 40.1217 59.1885 40.0721 59.1872ZM57.0938 45.0741C57.175 45.0346 57.2562 44.9951 57.3122 44.9394C57.4086 44.8446 57.5179 44.7806 57.6428 44.761C57.4762 45.082 57.3044 45.3997 57.1273 45.7134C56.9998 45.7092 56.8905 45.6847 56.8358 45.5453C56.7197 45.2562 56.907 45.1651 57.0938 45.0741ZM58.1378 43.759C58.4893 43.0191 58.8095 42.2626 59.0985 41.4917C59.0686 41.4934 59.0394 41.4946 59.0102 41.4959L59.0035 41.4962C58.9764 41.4973 58.9492 41.4985 58.9215 41.5C58.8459 40.8673 59.0881 40.4679 59.502 40.0965C59.5254 40.113 59.5462 40.1296 59.5671 40.1463C60.0748 38.561 60.4549 36.9203 60.6945 35.2338C60.5096 35.1061 60.3585 34.9338 60.2439 34.6385C60.4887 34.6054 60.6605 34.5828 60.7802 34.588C60.8429 34.0699 60.8897 33.5487 60.9262 33.0232C60.8922 33.0657 60.8506 33.1029 60.7933 33.1298C60.7778 33.138 60.6631 33.0194 60.6736 32.9905C60.6939 32.9383 60.6992 32.8773 60.7045 32.8161C60.717 32.673 60.7296 32.5296 60.934 32.4992C60.9417 32.4982 60.9495 32.5003 60.9573 32.5034C60.9833 32.0029 60.9964 31.4982 60.9964 30.9915C60.9964 29.8564 60.9313 28.7355 60.8064 27.6325C60.7231 27.5962 60.6371 27.5332 60.5538 27.4313C60.6294 27.3734 60.6996 27.3362 60.77 27.3136C60.5278 25.3364 60.0904 23.4188 59.4812 21.579C59.4291 21.6159 59.3614 21.6398 59.2676 21.642C59.2103 21.6435 59.1528 21.6357 59.0954 21.6278C59.0279 21.6186 58.9603 21.6093 58.8928 21.6153C58.6402 21.6375 58.6455 21.8645 58.7393 21.9696C58.7802 22.0143 58.8399 22.0496 58.8982 22.0841C59.0509 22.1745 59.1944 22.2595 58.9683 22.4927C58.8026 22.6656 58.6551 22.5768 58.5024 22.4848L58.4711 22.4661C58.6064 22.9003 58.7313 23.3387 58.8459 23.7811C58.8746 23.7195 58.9084 23.6583 58.9526 23.5974C59.6113 24.7139 59.7753 25.0527 59.1974 25.3112C59.364 26.1375 59.4916 26.9771 59.588 27.8274C59.6275 27.7809 59.6595 27.7242 59.6916 27.6672C59.7841 27.503 59.8779 27.3367 60.1581 27.4064C60.2965 27.5937 60.2107 27.7511 60.1246 27.9088C60.0779 27.9945 60.0311 28.0803 60.0201 28.1711C59.996 28.3754 59.867 28.3036 59.7518 28.2395C59.7174 28.2204 59.6843 28.202 59.6556 28.1918L59.6244 28.1794C59.6869 28.8276 59.7284 29.4808 59.7467 30.1413L59.7618 30.146C60.0909 30.2486 60.4472 30.3597 60.6216 30.7541C60.3143 30.9213 60.0306 30.942 59.7598 30.8592C59.7598 30.8808 59.7604 30.9026 59.7611 30.9245V30.9245C59.7617 30.9467 59.7624 30.9691 59.7624 30.9915C59.7624 33.1524 59.5202 35.2587 59.0672 37.2845C59.1168 37.2928 59.1688 37.2938 59.2285 37.2845C59.1896 37.4473 59.1063 37.5177 59.0048 37.5528C58.8824 38.0768 58.7444 38.5961 58.5933 39.1089C58.596 39.2307 58.5829 39.3474 58.4971 39.4384C58.1507 40.5589 57.7395 41.6507 57.2656 42.7086C57.7941 42.7674 58.0623 43.1111 58.1378 43.759ZM1.18836 32.0841C1.18836 32.0853 1.18722 32.0875 1.18627 32.0894H1.18931L1.13188 32.1299C1.09316 32.1572 1.05746 32.1824 1.02324 32.206C1.01584 32.0336 1.00977 31.8624 1.00578 31.6901C1.06364 31.7261 1.09858 31.831 1.13366 31.9363C1.15094 31.9882 1.16825 32.0402 1.18836 32.0841ZM1.90456 27.3601C1.51126 27.822 1.86731 27.974 2.22134 28.125C2.24623 28.1357 2.2711 28.1463 2.29571 28.157C2.03058 27.9505 1.93568 27.6696 1.90456 27.3601ZM1.31887 32.1024H1.31885C1.27268 32.0987 1.22654 32.095 1.18944 32.0895C1.18944 32.0895 1.19057 32.0895 1.19057 32.0883C1.18995 32.0879 1.18966 32.087 1.18938 32.0861C1.18914 32.0854 1.18891 32.0847 1.18849 32.0842C1.29921 31.8029 1.50287 31.5828 1.70531 31.364C1.83321 31.2257 1.96061 31.088 2.06378 30.9358C1.87671 30.7735 1.73097 30.8159 1.59771 30.8546C1.53521 30.8728 1.47546 30.8902 1.41547 30.8853C1.35449 30.8799 1.28712 30.9 1.21947 30.9202H1.21946H1.21946C1.14289 30.943 1.06597 30.966 0.997559 30.9523C0.997559 30.8864 0.998547 30.8204 0.999534 30.7545L0.999534 30.7545L1.00079 30.6645C1.60754 30.3516 1.8666 29.813 1.94498 29.1607C1.95731 29.1256 1.96547 29.0876 1.96965 29.0432C1.9687 29.0421 1.96756 29.0379 1.96661 29.0329C1.96863 29.0208 1.96959 29.0106 1.97068 28.999L1.97079 28.9978C2.09434 28.9957 2.20517 28.9749 2.305 28.94C2.25737 29.6179 2.23079 30.3011 2.23079 30.9916C2.23079 31.6013 2.25243 32.2071 2.29039 32.8078C1.94498 32.7571 1.63126 32.6436 1.52782 32.1462C1.52221 32.1187 1.4205 32.1105 1.31887 32.1024ZM22.93 58.603C23.0756 58.7516 23.2779 58.7897 23.4607 58.7527C23.283 58.7043 23.1065 58.6546 22.93 58.603ZM1.62189 28.5109C1.8187 28.6127 2.00988 28.7116 1.97056 28.9978C1.96894 28.9978 1.96738 28.9981 1.96581 28.9983C1.96425 28.9986 1.96268 28.9988 1.96107 28.9988C1.95708 29.0535 1.95101 29.1072 1.94475 29.1607C1.87991 29.3525 1.70896 29.4264 1.54065 29.4991C1.48332 29.5239 1.42629 29.5485 1.37387 29.5776C1.22754 29.6583 1.10987 29.75 1.01991 29.8532C1.04269 29.2402 1.08293 28.6316 1.1429 28.0288C1.1677 28.0687 1.19503 28.1095 1.22312 28.1514C1.24878 28.1897 1.27506 28.2289 1.30061 28.2693C1.37305 28.3821 1.49858 28.4471 1.62189 28.5109Z" fill="#986B0D"/>
<g clip-path="url(#clip0_721_221)">
<path d="M44.775 19.8923H18.1617C16.5937 19.8923 15.3237 21.1702 15.3237 22.7303V39.7578C15.3237 41.3271 16.603 42.5957 18.1617 42.5957H44.775C46.3299 42.5957 47.613 41.3325 47.613 39.7578V22.7303C47.613 21.1729 46.3481 19.8923 44.775 19.8923ZM44.3776 21.7843C43.7978 22.361 33.8196 32.2867 33.4751 32.6294C32.939 33.1654 32.2264 33.4606 31.4683 33.4606C30.7103 33.4606 29.9977 33.1654 29.4599 32.6276C29.2282 32.3971 19.3601 22.581 18.5591 21.7843H44.3776ZM17.2157 39.3727V23.1165L25.3913 31.2491L17.2157 39.3727ZM18.5603 40.7038L26.7327 32.5833L28.1238 33.9672C29.0172 34.8605 30.205 35.3525 31.4683 35.3525C32.7317 35.3525 33.9195 34.8605 34.8111 33.9689L36.204 32.5833L44.3764 40.7038H18.5603ZM45.721 39.3727L37.5454 31.2491L45.721 23.1165V39.3727Z" fill="#986B0D"/>
</g>
<defs>
<clipPath id="clip0_721_221">
<rect width="32.6154" height="32.6154" fill="white" transform="translate(14.9976 15)"/>
</clipPath>
</defs>
</svg>
