<svg width="206" height="52" viewBox="0 0 206 52" fill="none" xmlns="http://www.w3.org/2000/svg">
<path d="M18.3439 0C14.5344 0 10.0091 3.63971 6.21168 9.83927C2.32456 16.2312 0.182684 23.5311 0 31.0099C0 41.0675 5.64144 51.21 18.2832 51.21C30.9249 51.21 36.5786 41.0675 36.5786 31.0099C36.4044 23.555 34.2884 16.2746 30.4397 9.88777C26.6787 3.72461 22.1534 0.0485762 18.3075 0.0485762L18.3439 0Z" fill="#E30611"/>
<path d="M117.088 15.0926H129.887V48.4561H143.609V15.0926H156.408V2.75415H117.088V15.0926Z" fill="#E30611"/>
<path d="M185.659 15.0925H205.774V2.74194H185.659C167.182 2.74194 157.318 11.9382 157.318 25.6112C157.318 39.2842 167.182 48.4682 185.659 48.4682H205.774V36.1176H185.659C177.166 36.1176 171.489 33.0603 171.489 25.6112C171.489 18.162 177.106 15.0925 185.659 15.0925Z" fill="#E30611"/>
<path d="M89.1959 2.75415L81.8923 30.0394L74.5766 2.75415H50.3486V48.4561H64.058V11.2831L74.0307 48.4561H89.754L99.7266 11.2588V48.4561H113.436V2.75415H89.1959Z" fill="#E30611"/>
</svg>
