<svg width="65" height="99" viewBox="0 0 65 99" fill="none" xmlns="http://www.w3.org/2000/svg">
<path fill-rule="evenodd" clip-rule="evenodd" d="M43.3549 4.38904C44.5884 4.742 44.6208 5.96018 44.8242 6.95194C44.3849 6.07528 43.0979 5.35202 43.3549 4.38904Z" fill="url(#paint0_linear_854_2242)"/>
<path fill-rule="evenodd" clip-rule="evenodd" d="M54.1718 75.8614C54.4193 75.3109 57.3465 74.745 57.5498 73.5441C56.1878 74.3364 55.5011 73.0589 55.5989 71.9942C54.7203 72.9534 53.9589 75.0653 54.1718 75.8614ZM49.1017 76.5482C50.2392 76.7592 52.543 76.8302 53.5943 75.7886C51.3326 76.5482 51.9964 73.6554 51.8583 72.4852C50.1855 73.4827 50.5385 75.4375 49.1017 76.5482ZM16.4525 92.6254C12.8193 95.3609 8.57401 93.4273 5.46638 94.0027C5.47597 93.128 6.22598 93.8819 5.94783 92.9957C4.45732 92.4988 3.96428 89.9186 2.93608 88.4627C1.04848 95.4452 13.3871 99.8266 16.4525 92.6254ZM7.6091 84.2789C7.20242 85.8058 6.39869 87.1467 5.43379 88.4147C5.69084 90.3867 7.44792 90.3867 7.42682 91.6278C8.93843 91.4245 10.4616 92.7252 11.6836 91.7967C9.83819 91.8063 7.82395 87.2311 7.6091 84.2789ZM14.4479 88.5721C14.7375 88.9922 18.104 88.4262 17.4173 86.6749C17.0106 86.8226 16.5925 86.9741 16.1743 87.1141C14.6742 85.1038 15.2842 81.6068 15.2727 79.0439C13.8378 79.5101 11.4783 81.177 10.3101 81.6432C11.3824 82.7865 8.74475 88.0541 12.3799 89.0286C11.2865 85.8212 9.99926 81.4283 14.1485 81.3976C12.7443 83.2008 13.0763 86.6116 14.4479 88.5721ZM17.3521 83.3428C20.0108 82.6541 17.6322 78.547 20.7724 78.7715C20.172 77.8641 21.2443 77.7548 20.6535 76.8532C17.2888 77.4133 16.978 80.4059 17.3521 83.3428ZM45.34 72.282C46.6368 69.3834 48.4169 65.6197 48.0736 62.631C46.1112 65.3435 44.494 68.2248 45.34 72.282ZM57.9565 73.1202C59.2322 72.7384 59.0499 71.3477 58.8351 70.8508C62.8021 66.8781 62.7696 61.6354 61.0546 55.7827C58.4611 56.9241 55.3514 57.7854 53.0898 58.6122C52.9613 59.8399 52.3934 60.3099 53.3142 61.6105C50.8722 63.2717 51.3116 66.3026 50.8723 68.9153C53.604 66.5002 51.9217 61.9826 55.202 59.8207C55.2979 60.0701 55.5127 60.0451 55.6201 60.2312C56.2627 61.505 54.5055 62.7211 55.6948 63.5652C56.0919 62.4487 55.6834 60.9467 56.7135 60.1238C57.6995 60.3329 58.1062 61.1079 58.4074 61.762C58.91 60.5554 58.7277 59.0189 59.9286 58.1441C61.7931 59.4409 62.1479 63.3715 60.6363 64.8907C60.0359 65.002 60.0149 63.8894 59.2974 64.2462C58.9214 67.0604 58.5569 69.9493 57.9565 73.1202ZM17.0739 64.4035C18.4244 63.2026 16.3238 59.8841 15.7886 58.4185C15.6064 60.0932 16.7516 62.1035 17.0739 64.4035ZM6.70952 24.9711C7.27734 27.1215 8.93857 29.483 10.0109 31.9115C13.4619 28.5277 17.4385 25.3913 21.4266 22.2568C21.534 22.5867 21.0622 22.6443 21.1044 22.9301C23.3449 20.7625 27.2467 19.3832 28.7468 16.8607C21.5647 21.3053 16.3776 24.576 10.053 29.6576C9.8708 29.1607 9.70007 28.6639 9.51783 28.167C9.99932 27.6376 10.1068 26.9317 11.2424 26.7111C10.3427 25.9246 10.3005 24.3611 10.3427 23.3924C8.74472 23.8816 8.17702 24.9711 6.70952 24.9711ZM28.3075 15.6156C29.1554 14.9634 30.1624 15.1457 30.5268 13.9871C29.3586 14.1981 28.0083 15.3931 28.3075 15.6156ZM19.7653 18.3684C21.7469 17.1311 25.2306 15.9494 26.2703 13.8201C24.3098 15.4353 21.1791 16.4981 19.7653 18.3684ZM28.9079 12.5982C29.8076 12.8284 30.7419 11.641 31.1274 10.9734C30.1625 11.405 29.2091 11.85 28.9079 12.5982ZM47.7628 16.8222C47.3561 16.3887 47.0338 15.5274 46.9801 14.5836C44.4825 15.3682 42.2419 16.7033 40.1087 18.142C30.3235 24.7524 20.9335 28.9305 11.1579 35.1439C10.8683 34.6624 11.0928 34.4283 11.0506 34.0619C11.1254 39.6633 14.8449 45.9093 15.7446 51.9922C17.567 55.9458 20.2678 63.2928 20.4712 67.6799C23.0666 74.3518 24.2675 80.5574 23.1626 85.4798C22.8729 86.3391 23.9338 85.8999 23.6883 86.9741C20.8895 89.9302 19.2071 95.146 15.123 97.5727C10.8894 100.099 6.97611 97.9025 3.01101 96.5598C1.85236 94.0775 -0.676046 91.1464 0.16992 87.7663C0.352157 87.0105 1.55304 85.6121 2.27048 84.2175C5.33591 78.2305 12.1114 75.4528 19.9476 74.862C19.0997 71.5702 19.046 67.5495 17.4059 64.5666C17.1066 65.5564 19.165 67.7317 17.7397 68.6448C11.9177 55.0288 9.43156 39.0149 4.10447 23.9314C4.52266 23.2389 4.36148 22.2683 5.30528 21.8213C5.52013 22.9685 6.22604 23.0701 6.44089 24.223C16.5925 15.7634 29.7021 8.39525 43.485 2.38525C44.1929 1.18632 45.7792 -0.00305218 47.5267 0.384442C48.1061 1.75794 47.2487 2.45425 47.2583 3.56685C49.3914 7.40727 50.4101 13.872 51.4939 19.4177C51.4709 20.4882 52.3397 19.6575 52.4356 20.4843C55.0196 34.0466 63.1973 48.2285 64.9564 63.6381C63.8956 66.5117 63.606 69.51 61.7088 72.6272C59.3608 76.4964 54.6015 79.2223 48.7373 79.4736C47.7091 79.159 46.7882 77.3826 45.6411 78.6199C45.6948 77.7126 45.4051 77.7376 44.5362 77.8853C44.1295 74.9119 42.0501 73.2775 42.0501 70.0912C42.0501 65.284 45.5432 60.0355 50.3888 57.3269C53.5617 55.5659 57.314 55.8882 60.6786 53.9565C56.6176 38.5699 50.2182 24.5741 47.2045 8.90547C46.4756 8.24941 45.083 9.00337 44.4288 8.21112C44.0643 6.64388 45.4686 8.23027 45.6508 6.93735C45.5338 5.90723 45.2766 4.82146 44.7606 3.61294C40.6996 4.76967 38.6088 6.90092 35.34 8.63505C35.9078 8.73288 37.1719 7.70464 37.3656 9.59991C39.1554 9.15295 39.8959 7.53965 41.7604 7.76217C41.9849 10.0584 39.2514 10.6089 37.8261 11.6774C32.7023 15.4987 27.2045 20.3731 21.4592 23.9257C22.9382 24.9098 24.139 22.3623 25.8424 22.0899C26.1206 21.946 25.8847 21.5643 25.8214 21.2555C31.63 19.4024 35.8963 14.3093 42.2535 12.3412C40.646 15.0306 35.6065 17.4668 31.7162 19.7227C28.2537 21.7293 25.2843 24.3803 21.9944 26.2545C30.5154 22.4754 39.1016 17.5896 46.5196 12.5061C46.0899 11.5719 45.2862 10.465 44.7836 9.20473C46.6578 8.70598 45.9614 12.4985 47.3656 13.3272C46.9053 14.4935 48.0198 15.3835 47.7628 16.8222Z" fill="url(#paint1_linear_854_2242)"/>
<defs>
<linearGradient id="paint0_linear_854_2242" x1="44.8242" y1="4.1034" x2="42.478" y2="5.4109" gradientUnits="userSpaceOnUse">
<stop stop-color="#986B0D"/>
<stop offset="0.489583" stop-color="#EEC267"/>
<stop offset="0.93436" stop-color="#A07314"/>
</linearGradient>
<linearGradient id="paint1_linear_854_2242" x1="64.9564" y1="-10.6595" x2="-30.4209" y2="49.1628" gradientUnits="userSpaceOnUse">
<stop stop-color="#986B0D"/>
<stop offset="0.489583" stop-color="#EEC267"/>
<stop offset="0.93436" stop-color="#A07314"/>
</linearGradient>
</defs>
</svg>
