<svg width="21" height="34" viewBox="0 0 21 34" fill="none" xmlns="http://www.w3.org/2000/svg">
<path fill-rule="evenodd" clip-rule="evenodd" d="M12.4544 26.5712C13.8537 22.7171 14.8848 18.4781 15.9116 14.2501C16.1947 13.1138 16.5191 11.6118 16.9644 9.85101C17.296 8.58578 18.0198 7.43214 18.1904 6.29976C18.2922 5.65471 18.1735 4.96735 18.3738 4.37624C18.7632 3.25638 19.9405 2.12714 19.5306 1.15539C19.8384 0.892574 20.1697 0.667981 20.7569 0.839986C19.7052 9.05127 16.9004 18.624 14.4357 27.5742C14.3077 28.0824 14.5286 28.2247 14.3185 28.7039C13.5969 29.276 12.9929 30.2235 12.3748 31.2935C9.57228 33.323 2.73714 35.7405 0.912203 30.8015C0.755923 30.8177 0.63283 29.4689 0.725646 29.0258C1.14022 26.9999 3.47797 25.1397 4.92854 24.493C6.41164 24.1588 10.3856 25.5753 12.4544 26.5712Z" fill="#312C93"/>
</svg>
