<svg width="60" height="227" viewBox="0 0 60 227" fill="none" xmlns="http://www.w3.org/2000/svg">
<path d="M31.2911 103.117C30.6838 103.177 30.0721 103.177 29.4648 103.117V103.523L30.1954 103.198L30.8853 103.685H30.3171C29.9113 103.685 29.5054 103.685 29.6678 104.335L30.7229 105.715L31.5347 105.431V104.741H31.1288H31.5347V102.873" fill="url(#paint0_linear_712_15312)"/>
<path d="M30.9257 146.206H30.1951L29.7893 145.719L30.9257 146.368V146.206ZM31.291 125.055H30.114H29.3022V151.118C29.4151 151.321 29.5723 151.496 29.762 151.629C29.9518 151.763 30.1692 151.852 30.3981 151.89H30.7633L30.1951 152.823L29.3022 152.336V167.682H30.3981C30.7142 167.7 31.0276 167.614 31.291 167.438V151.89H31.0474L31.291 151.646V150.59H30.7228L30.3981 149.088V149.291L30.114 148.926H30.8445H31.4533V144.217L30.3169 143.283L31.6157 143.527V124.892" fill="url(#paint1_linear_712_15312)"/>
<path d="M30.9663 88.5833C30.6011 89.1516 31.291 90.2477 30.6417 90.2477L29.9111 90.0042V90.5319C30.3576 90.7755 30.8446 91.1815 31.2504 91.1815V88.7456H30.9258" fill="url(#paint2_linear_712_15312)"/>
<path d="M30.2763 80.2608H29.3022H30.2763ZM30.2763 75.1049C30.2763 75.7545 29.8299 75.9169 29.4646 75.9169H29.3022V78.5963H29.7487V78.2715L30.4386 79.0835H30.1951L29.3022 78.8805V79.6518V82.1688L30.2763 82.9808V82.4124H30.8445H31.088V78.7993V79.0429V77.1754H31.3315V75.7545L30.4386 74.7802" fill="url(#paint3_linear_712_15312)"/>
<path d="M29.4648 62.7228V62.9258V73.7246H29.7083C30.7636 73.7246 30.5606 75.0237 31.4535 75.5109V63.4941L30.6012 63.6971H30.1954L29.6272 62.7634" fill="url(#paint4_linear_712_15312)"/>
<path d="M30.8853 86.472L31.0476 86.7968L31.2911 86.6344V86.5938L30.8853 86.472Z" fill="url(#paint5_linear_712_15312)"/>
<path d="M31.2909 83.955H31.0068C31.107 84.1569 31.1591 84.3792 31.1591 84.6045C31.1591 84.8299 31.107 85.0522 31.0068 85.2541H31.2909V83.7926" fill="url(#paint6_linear_712_15312)"/>
<path d="M29.4241 100.113V100.478V102.873H30.2764C30.6945 102.856 31.0947 102.699 31.4128 102.427V102.183C31.1287 101.371 31.7374 100.356 30.8851 100.356H30.5199V101.737C29.3835 101.087 31.1287 99.9099 29.4241 99.8693" fill="url(#paint7_linear_712_15312)"/>
<path d="M29.3022 73.8463V75.0642C29.4563 74.8989 29.542 74.6813 29.542 74.4553C29.542 74.2293 29.4563 74.0116 29.3022 73.8463Z" fill="url(#paint8_linear_712_15312)"/>
<path d="M30.9257 205.154H30.1951L29.7893 204.667L30.9257 205.316V205.154ZM31.291 184.003H30.114H29.3022V210.066C29.4151 210.269 29.5723 210.444 29.762 210.577C29.9518 210.711 30.1692 210.8 30.3981 210.838H30.7633L30.1951 211.771L29.3022 211.284V226.63H30.3981C30.7142 226.648 31.0276 226.562 31.291 226.386V210.838H31.0474L31.291 210.594V209.538H30.7228L30.3981 208.036V208.239L30.114 207.874H30.8445H31.4533V203.165L30.3169 202.231L31.6157 202.475V183.84" fill="url(#paint9_linear_712_15312)"/>
<path d="M29.3022 212.457V213.675C29.4563 213.51 29.542 213.292 29.542 213.066C29.542 212.84 29.4563 212.623 29.3022 212.457Z" fill="url(#paint10_linear_712_15312)"/>
<path d="M29.3022 61.7078V62.1949L30.2357 61.9919L29.3022 61.7078Z" fill="url(#paint11_linear_712_15312)"/>
<path d="M19.8867 1.70508H19.075C19.2795 1.70353 19.4809 1.65517 19.6638 1.56369C19.8467 1.4722 20.0063 1.34003 20.1302 1.17732C20.1302 1.70508 20.1302 1.86747 19.8867 1.86747V1.70508ZM23.9452 0.568362H21.9565L21.5507 1.01493L21.3072 0.365375H17.6545L17.898 0.60896L16.437 0.933737L17.0051 0.365375H14.1236H0V2.23285H11.7291C11.2015 1.94867 11.7291 1.21792 11.2827 0.933737C12.2973 0.933737 12.3379 1.62389 11.7697 2.23285H18.1009C17.6951 1.78628 17.7763 1.62389 18.1009 1.58329V1.33971H18.9532H17.9386V1.98926H23.6205L23.9046 1.62389H24.3105H24.5946C24.5946 1.05553 24.5946 0.893139 24.2293 0.893139H23.7828H23.2958L22.7682 0.568362C23.2324 0.499938 23.6682 0.303074 24.0264 0" fill="url(#paint12_linear_712_15312)"/>
<path d="M30.5604 17.0508V17.8221H29.3022V18.7153C29.8554 18.4316 30.4664 18.2788 31.088 18.2687V18.0251C30.8445 17.6597 30.7633 17.0508 30.3575 17.0508" fill="url(#paint13_linear_712_15312)"/>
<path d="M59.2542 0.365356H25.5686C26.4209 0.568342 26.5427 1.38029 26.6238 2.23283H29.3024V5.64299C29.3024 6.13016 29.8706 6.41434 30.0329 6.82031L29.3024 7.18569V14.209C29.8481 14.1323 30.3576 13.8917 30.7635 13.5188C30.7287 13.8054 30.758 14.096 30.8493 14.3699C30.9405 14.6437 31.0914 14.8938 31.2911 15.1021V2.27343H59.2542V0.365356Z" fill="url(#paint14_linear_712_15312)"/>
<path d="M31.0883 31.0975H30.033V30.6509L29.2619 30.2043L29.6678 29.9202C30.1142 29.9202 30.5607 30.8945 30.9259 31.2193L31.0883 31.0975ZM30.9259 21.5977L28.9373 21.9225V25.9822L29.1808 25.5763C29.1808 25.9822 29.1808 26.0634 29.1808 26.0634H29.5054C29.8301 26.0634 30.1548 26.0634 30.1548 26.8754H29.3025V33.2897C29.9519 32.9244 30.6824 32.762 31.2912 32.356V28.2963L31.0477 27.4437L31.2912 27.1596V21.476" fill="url(#paint15_linear_712_15312)"/>
<path d="M31.2911 36.294C30.6484 36.3993 30.0298 36.6194 29.4648 36.9435V37.9585H31.1288V36.2128" fill="url(#paint16_linear_712_15312)"/>
<path d="M29.3022 16.2389V16.8478L30.114 17.0914C30.0902 16.8802 29.9979 16.6826 29.8514 16.5287C29.7048 16.3747 29.512 16.273 29.3022 16.2389Z" fill="url(#paint17_linear_712_15312)"/>
<path d="M29.3022 42.8301V44.4134L31.2909 45.1847V43.642C30.7129 43.1976 30.026 42.9172 29.3022 42.8301Z" fill="url(#paint18_linear_712_15312)"/>
<path d="M34.335 37.2683L35.6743 37.3901L34.335 37.2683Z" fill="url(#paint19_linear_712_15312)"/>
<path d="M29.3022 80.1794L30.2763 80.2606L29.3022 80.1794Z" fill="url(#paint20_linear_712_15312)"/>
<path d="M28.9373 80.139L29.3025 80.1796L28.9373 80.139Z" fill="url(#paint21_linear_712_15312)"/>
<path d="M43.3042 111.48L44.6435 111.602L43.3042 111.48Z" fill="url(#paint22_linear_712_15312)"/>
<path d="M7.50818 11.9357L8.7663 12.707L7.50818 11.9357Z" fill="#58595B"/>
<path d="M9.74036 44.9412L10.6738 46.3215L9.74036 44.9412Z" fill="#58595B"/>
<defs>
<linearGradient id="paint0_linear_712_15312" x1="-114.987" y1="1330.31" x2="2351.48" y2="1330.31" gradientUnits="userSpaceOnUse">
<stop stop-color="#B47E11"/>
<stop offset="0.51" stop-color="#EAD98B"/>
<stop offset="1" stop-color="#B47E11"/>
</linearGradient>
<linearGradient id="paint1_linear_712_15312" x1="-132.15" y1="18607.5" x2="2624.6" y2="18607.5" gradientUnits="userSpaceOnUse">
<stop stop-color="#B47E11"/>
<stop offset="0.51" stop-color="#EAD98B"/>
<stop offset="1" stop-color="#B47E11"/>
</linearGradient>
<linearGradient id="paint2_linear_712_15312" x1="-63.5592" y1="1210.8" x2="1532.41" y2="1210.8" gradientUnits="userSpaceOnUse">
<stop stop-color="#B47E11"/>
<stop offset="0.51" stop-color="#EAD98B"/>
<stop offset="1" stop-color="#B47E11"/>
</linearGradient>
<linearGradient id="paint3_linear_712_15312" x1="-112.32" y1="3616.8" x2="2305.83" y2="3616.8" gradientUnits="userSpaceOnUse">
<stop stop-color="#B47E11"/>
<stop offset="0.51" stop-color="#EAD98B"/>
<stop offset="1" stop-color="#B47E11"/>
</linearGradient>
<linearGradient id="paint4_linear_712_15312" x1="-109.324" y1="5586.17" x2="2260.45" y2="5586.17" gradientUnits="userSpaceOnUse">
<stop stop-color="#B47E11"/>
<stop offset="0.51" stop-color="#EAD98B"/>
<stop offset="1" stop-color="#B47E11"/>
</linearGradient>
<linearGradient id="paint5_linear_712_15312" x1="2.56428" y1="226.756" x2="486.135" y2="226.756" gradientUnits="userSpaceOnUse">
<stop stop-color="#B47E11"/>
<stop offset="0.51" stop-color="#EAD98B"/>
<stop offset="1" stop-color="#B47E11"/>
</linearGradient>
<linearGradient id="paint6_linear_712_15312" x1="11.1819" y1="715.04" x2="349.686" y2="715.04" gradientUnits="userSpaceOnUse">
<stop stop-color="#B47E11"/>
<stop offset="0.51" stop-color="#EAD98B"/>
<stop offset="1" stop-color="#B47E11"/>
</linearGradient>
<linearGradient id="paint7_linear_712_15312" x1="-109.368" y1="1397.44" x2="2260.45" y2="1397.44" gradientUnits="userSpaceOnUse">
<stop stop-color="#B47E11"/>
<stop offset="0.51" stop-color="#EAD98B"/>
<stop offset="1" stop-color="#B47E11"/>
</linearGradient>
<linearGradient id="paint8_linear_712_15312" x1="12.5714" y1="599.889" x2="298.245" y2="599.889" gradientUnits="userSpaceOnUse">
<stop stop-color="#B47E11"/>
<stop offset="0.51" stop-color="#EAD98B"/>
<stop offset="1" stop-color="#B47E11"/>
</linearGradient>
<linearGradient id="paint9_linear_712_15312" x1="-132.15" y1="18666.4" x2="2624.6" y2="18666.4" gradientUnits="userSpaceOnUse">
<stop stop-color="#B47E11"/>
<stop offset="0.51" stop-color="#EAD98B"/>
<stop offset="1" stop-color="#B47E11"/>
</linearGradient>
<linearGradient id="paint10_linear_712_15312" x1="12.5714" y1="738.5" x2="298.245" y2="738.5" gradientUnits="userSpaceOnUse">
<stop stop-color="#B47E11"/>
<stop offset="0.51" stop-color="#EAD98B"/>
<stop offset="1" stop-color="#B47E11"/>
</linearGradient>
<linearGradient id="paint11_linear_712_15312" x1="-35.8442" y1="272.122" x2="1076.51" y2="272.122" gradientUnits="userSpaceOnUse">
<stop stop-color="#B47E11"/>
<stop offset="0.51" stop-color="#EAD98B"/>
<stop offset="1" stop-color="#B47E11"/>
</linearGradient>
<linearGradient id="paint12_linear_712_15312" x1="-1716.45" y1="964.411" x2="27591.4" y2="964.411" gradientUnits="userSpaceOnUse">
<stop stop-color="#B47E11"/>
<stop offset="0.51" stop-color="#EAD98B"/>
<stop offset="1" stop-color="#B47E11"/>
</linearGradient>
<linearGradient id="paint13_linear_712_15312" x1="-95.3248" y1="735.977" x2="2032.64" y2="735.977" gradientUnits="userSpaceOnUse">
<stop stop-color="#B47E11"/>
<stop offset="0.51" stop-color="#EAD98B"/>
<stop offset="1" stop-color="#B47E11"/>
</linearGradient>
<linearGradient id="paint14_linear_712_15312" x1="-2325.35" y1="6365.48" x2="37815.7" y2="6365.48" gradientUnits="userSpaceOnUse">
<stop stop-color="#B47E11"/>
<stop offset="0.51" stop-color="#EAD98B"/>
<stop offset="1" stop-color="#B47E11"/>
</linearGradient>
<linearGradient id="paint15_linear_712_15312" x1="-135.343" y1="5124.09" x2="2669.68" y2="5124.09" gradientUnits="userSpaceOnUse">
<stop stop-color="#B47E11"/>
<stop offset="0.51" stop-color="#EAD98B"/>
<stop offset="1" stop-color="#B47E11"/>
</linearGradient>
<linearGradient id="paint16_linear_712_15312" x1="-97.9923" y1="790.209" x2="2078.29" y2="790.209" gradientUnits="userSpaceOnUse">
<stop stop-color="#B47E11"/>
<stop offset="0.51" stop-color="#EAD98B"/>
<stop offset="1" stop-color="#B47E11"/>
</linearGradient>
<linearGradient id="paint17_linear_712_15312" x1="-27.3482" y1="384.467" x2="939.939" y2="384.467" gradientUnits="userSpaceOnUse">
<stop stop-color="#B47E11"/>
<stop offset="0.51" stop-color="#EAD98B"/>
<stop offset="1" stop-color="#B47E11"/>
</linearGradient>
<linearGradient id="paint18_linear_712_15312" x1="-109.487" y1="1059.85" x2="2260.29" y2="1059.85" gradientUnits="userSpaceOnUse">
<stop stop-color="#B47E11"/>
<stop offset="0.51" stop-color="#EAD98B"/>
<stop offset="1" stop-color="#B47E11"/>
</linearGradient>
<linearGradient id="paint19_linear_712_15312" x1="-59.1353" y1="89.8708" x2="1536.84" y2="89.8708" gradientUnits="userSpaceOnUse">
<stop stop-color="#B47E11"/>
<stop offset="0.51" stop-color="#EAD98B"/>
<stop offset="1" stop-color="#B47E11"/>
</linearGradient>
<linearGradient id="paint20_linear_712_15312" x1="-38.6772" y1="115.249" x2="1122.05" y2="115.249" gradientUnits="userSpaceOnUse">
<stop stop-color="#B47E11"/>
<stop offset="0.51" stop-color="#EAD98B"/>
<stop offset="1" stop-color="#B47E11"/>
</linearGradient>
<linearGradient id="paint21_linear_712_15312" x1="3.44639" y1="97.6717" x2="438.694" y2="97.6717" gradientUnits="userSpaceOnUse">
<stop stop-color="#B47E11"/>
<stop offset="0.51" stop-color="#EAD98B"/>
<stop offset="1" stop-color="#B47E11"/>
</linearGradient>
<linearGradient id="paint22_linear_712_15312" x1="-50.1632" y1="164.087" x2="1545.76" y2="164.087" gradientUnits="userSpaceOnUse">
<stop stop-color="#B47E11"/>
<stop offset="0.51" stop-color="#EAD98B"/>
<stop offset="1" stop-color="#B47E11"/>
</linearGradient>
</defs>
</svg>
