<svg width="61" height="61" viewBox="0 0 61 61" fill="none" xmlns="http://www.w3.org/2000/svg">
<path fill-rule="evenodd" clip-rule="evenodd" d="M29.6572 2.10507C29.8458 2.20904 30.0264 2.30857 30.1275 1.97792C30.1387 1.94109 30.1516 1.90066 30.1653 1.85776C30.2583 1.56752 30.3873 1.1644 30.2473 1.0007C30.4968 0.994437 30.7466 0.991211 30.9982 0.991211C32.7982 0.991211 34.5617 1.15082 36.2758 1.45619C36.3635 1.63231 36.5061 1.75093 36.6763 1.69532C36.9744 1.59733 37.1427 1.75407 37.2927 1.8937C37.3814 1.97638 37.4638 2.05305 37.5628 2.06731C37.6516 1.95059 37.7093 1.84772 37.7435 1.75586C39.7279 2.21363 41.6369 2.86972 43.45 3.70042L43.4499 3.70088L43.4495 3.7019C43.4493 3.70242 43.449 3.70295 43.449 3.70364C43.5325 3.83972 43.6585 3.87541 43.7861 3.85719C44.6948 4.28686 45.5773 4.76 46.4313 5.27527C46.3333 5.34314 46.2395 5.41712 46.1457 5.49119C46.0749 5.54699 46.0042 5.60285 45.9314 5.65618C45.7179 5.81237 45.7415 6.02019 45.8846 6.19308C46.2205 6.5979 47.0352 6.58936 47.3894 6.19821C47.3993 6.18703 47.4103 6.17498 47.4218 6.16233L47.4221 6.16204C47.4714 6.10817 47.5307 6.04332 47.556 5.98716C47.8111 6.15664 48.0637 6.32878 48.3136 6.50604L48.2984 6.51611C48.2087 6.57531 48.1156 6.63678 48.2043 6.80021C48.4465 7.23861 48.9098 7.39823 49.3654 7.28967C49.5139 7.40449 49.6623 7.52102 49.808 7.63869C49.4696 7.73586 49.1337 7.87099 48.8369 8.18755C49.4774 8.44073 49.8131 8.19305 50.0971 7.8725C54.2729 11.3297 57.5014 15.8956 59.3237 21.1139L59.3179 21.1252L59.3179 21.1252C59.2806 21.1966 59.2409 21.2728 59.1989 21.2811C58.9455 21.3307 58.7198 21.2563 58.492 21.1812C58.3313 21.1282 58.1694 21.0748 57.996 21.0644C57.8762 20.7351 57.746 20.4094 57.6134 20.0855C57.61 20.0027 57.6091 19.9183 57.6081 19.8328C57.6034 19.3937 57.5984 18.9272 57.2541 18.5258C57.2723 18.8004 57.2879 19.0764 57.3008 19.3523C54.7235 13.5505 50.2819 8.75312 44.7417 5.72659C44.784 5.70461 44.8256 5.68392 44.8659 5.66385L44.866 5.6638L44.8664 5.66361L44.8665 5.66356C45.1403 5.52725 45.3573 5.4192 45.4004 5.12838C45.4082 5.0741 45.1478 4.90557 45.0227 4.91809C44.627 4.95852 44.5697 5.23295 44.5932 5.64687C43.8201 5.23048 43.026 4.84806 42.2139 4.50265L42.3026 4.33283L42.3048 4.32864L42.3072 4.32389C42.37 4.2038 42.4303 4.08838 42.4893 3.97485C42.2261 3.72831 41.9199 3.71285 41.6218 3.6978C41.3754 3.68535 41.1345 3.67319 40.9281 3.53094C40.9285 3.52999 40.9287 3.52903 40.929 3.52805L40.929 3.52801L40.9295 3.5261L40.9302 3.52448C40.9302 3.52431 40.9241 3.5274 40.923 3.52799L40.9302 3.5243C40.9269 3.52525 40.9249 3.52544 40.9218 3.5262C40.2773 2.34968 39.4046 2.60386 38.5229 2.86068C38.3191 2.92004 38.1148 2.97954 37.9127 3.02155C37.92 3.03977 37.9258 3.05534 37.9321 3.0728C35.7105 2.52052 33.3882 2.22578 30.9982 2.22578C23.8416 2.22578 17.2875 4.85356 12.2484 9.19398C12.042 9.1664 11.8332 9.15903 11.6242 9.15166H11.6242C11.4278 9.14474 11.2314 9.13781 11.0368 9.11409C10.8171 9.08733 10.6808 9.18659 10.684 9.34867C10.6959 10.0285 10.2546 10.2045 9.74567 10.4075L9.66545 10.4396C9.358 10.5633 9.0978 10.9245 9.2557 11.4403C9.51684 11.3422 9.75123 11.3371 9.97195 11.3834C9.72238 11.6515 9.47566 11.9233 9.2352 12.2008C9.2073 12.1336 9.14638 12.0474 9.07825 12.0032C8.82283 11.8367 8.6519 12.0012 8.47915 12.1673C8.29877 12.3408 8.11641 12.5162 7.83382 12.3188C7.75752 12.2651 7.62031 12.5003 7.7338 12.5424C7.93687 12.6185 8.00292 12.7591 8.02778 12.9178C7.77081 12.7665 7.61082 12.8597 7.76549 13.2615C7.88255 13.5621 7.76473 13.6122 7.59288 13.6852L7.56641 13.6965C7.55562 13.7011 7.54593 13.7059 7.53624 13.7106C7.53024 13.7136 7.52425 13.7166 7.51801 13.7195C7.51955 13.7124 7.52086 13.7053 7.52216 13.6982L7.52374 13.6896L7.52617 13.6775L7.52508 13.6784C7.51864 13.6836 7.5126 13.689 7.50644 13.6945L7.49315 13.7062C7.47251 13.6892 7.45242 13.6715 7.43231 13.6537L7.43229 13.6537C7.39822 13.6236 7.36408 13.5935 7.32708 13.5669C7.16273 13.4484 6.99363 13.3435 6.81428 13.5414C6.78942 13.5688 6.76057 13.6276 6.77272 13.6487C6.88108 13.8329 7.04924 13.9349 7.25895 13.8827C7.28571 13.876 7.31076 13.8629 7.33544 13.8466C7.15988 14.0197 7.14641 14.2566 7.23618 14.5071C7.14223 14.5724 7.01128 14.6151 6.82054 14.6225C6.70781 14.6264 6.62032 14.6893 6.56945 14.7815C6.42598 14.5623 6.20203 14.5067 5.96593 14.4773C6.71502 13.3448 7.53851 12.2657 8.43127 11.2473C8.46125 11.2222 8.48801 11.1924 8.51059 11.1573C13.7728 5.19765 21.3607 1.33909 29.8405 1.01569C29.8284 1.06896 29.8252 1.13379 29.8218 1.20073C29.8129 1.37921 29.8033 1.57257 29.6215 1.601C29.5231 1.61638 29.4313 1.67747 29.317 1.75355C29.2577 1.79297 29.1925 1.83641 29.1171 1.8796C29.1739 1.91544 29.214 1.94409 29.2433 1.96502C29.2863 1.99575 29.3061 2.00987 29.3215 2.00581C29.4258 1.97754 29.5429 2.04212 29.6572 2.10507ZM7.52508 13.6784L7.50798 13.7148C7.50988 13.7173 7.51102 13.7196 7.51197 13.7222C7.47572 13.7406 7.44308 13.7607 7.41309 13.782L7.43321 13.7625L7.43326 13.7625L7.43334 13.7624L7.4335 13.7622C7.45289 13.7434 7.47265 13.7242 7.49242 13.7063C7.49693 13.7093 7.50062 13.7131 7.50395 13.7164L7.50571 13.7182C7.50779 13.7151 7.52254 13.6838 7.52508 13.6784ZM15.6197 56.2672L15.6197 56.2672C15.6547 56.2486 15.6898 56.23 15.7249 56.216C15.9456 56.1283 16.0965 55.9302 16.0428 55.7311C15.9669 55.4505 15.826 55.5537 15.6984 55.6472C15.658 55.6768 15.6188 55.7055 15.5835 55.7207C15.4696 55.7701 15.3821 55.7161 15.2892 55.6586C15.1668 55.5829 15.0348 55.5013 14.82 55.6432C14.8723 55.7128 14.9225 55.775 14.9696 55.8333C15.0656 55.9522 15.1483 56.0548 15.2079 56.1695C15.3365 56.4175 15.4768 56.343 15.6197 56.2672ZM6.9636 48.6982C6.99681 48.7673 7.17616 48.8003 7.28434 48.7919C7.38872 48.784 7.53714 48.7363 7.45572 48.5579C7.44656 48.5478 7.43746 48.5373 7.42833 48.5267L7.42829 48.5266C7.35832 48.4455 7.28583 48.3615 7.16079 48.4382L7.14494 48.4477C7.13514 48.4534 7.12489 48.4593 7.11444 48.4652L7.11403 48.4654C7.01924 48.5191 6.9081 48.582 6.9636 48.6982ZM12.1121 52.6702C14.5877 54.8292 17.4339 56.572 20.5432 57.789C20.4865 57.8188 20.4307 57.8497 20.3781 57.8808C20.0035 58.0953 19.6321 58.338 19.2925 58.6123C13.851 56.2976 9.22871 52.4184 5.99151 47.5445C5.99151 47.5433 5.99173 47.5422 5.99214 47.5411C5.99249 47.5401 5.99299 47.5392 5.9936 47.5382C6.03573 47.3627 5.95223 47.178 5.7799 47.1307C5.75523 47.1233 5.73245 47.1192 5.70987 47.1152C3.69111 43.9603 2.2474 40.4034 1.52488 36.5951C1.60155 36.5004 1.70043 36.4116 1.83366 36.3281C2.23203 36.077 2.13903 35.5767 1.89952 35.2009C1.79443 35.0354 1.65045 34.895 1.49276 34.7413C1.41864 34.669 1.34148 34.5938 1.26392 34.5116C1.24855 34.5397 1.23204 34.5693 1.21534 34.5982C1.18232 34.326 1.15366 34.0533 1.1288 33.7788C1.13263 33.7788 1.1363 33.7792 1.13993 33.7796H1.13994H1.13995H1.13996H1.13996H1.13997H1.13998H1.13998H1.13999H1.13999H1.14H1.14001H1.14001C1.14516 33.7801 1.15023 33.7805 1.15556 33.78C1.30947 33.7788 1.58087 33.6965 1.59738 33.6118C1.68293 33.1659 1.97066 33.1754 2.2531 33.1848L2.25343 33.1848L2.25375 33.1849L2.25408 33.1849L2.2544 33.1849L2.25472 33.1849L2.25503 33.1849L2.25534 33.1849L2.25566 33.1849L2.25597 33.1849C2.27581 33.1856 2.29563 33.1862 2.31534 33.1867C2.49602 35.5756 2.97201 37.8832 3.70363 40.075C3.6795 40.1021 3.65552 40.1285 3.632 40.1544C3.3829 40.4289 3.18547 40.6464 3.40415 40.9708C3.44761 41.0357 3.6653 41.0638 3.73875 41.0141C3.85641 40.9357 3.91809 40.8522 3.94201 40.7613C5.15133 44.0996 6.96152 47.1533 9.24218 49.7891C9.2029 49.857 9.20195 49.9354 9.25661 50.013C9.28731 50.0561 9.31219 50.1076 9.33729 50.1595C9.41863 50.3279 9.50233 50.5011 9.79427 50.4082C10.3659 51.0326 10.9654 51.6311 11.5898 52.2028C11.5857 52.2656 11.595 52.3316 11.6198 52.3863C11.7333 52.637 11.8982 52.6949 12.1121 52.6702ZM5.79723 16.028C5.80976 16.0032 5.82209 15.9855 5.83538 15.9726C5.83475 15.9643 5.83495 15.9567 5.83516 15.9488L5.83538 15.9362C5.82 15.6936 5.65375 15.4953 5.39982 15.3621C5.24742 15.612 5.09654 15.8641 4.95097 16.1189C5.04865 16.0755 5.16151 16.1197 5.2767 16.1647C5.46209 16.2373 5.65348 16.3121 5.79723 16.028ZM39.7643 3.55573C40.155 3.60165 40.5386 3.64674 40.9214 3.52618C40.9224 3.52675 40.9224 3.52731 40.9224 3.52807L40.9247 3.5292L40.9263 3.53004L40.9277 3.53092C40.8863 3.70287 40.8863 3.85223 40.9152 3.98812C40.483 3.82907 40.0463 3.68048 39.6057 3.54193C39.6512 3.54421 39.6954 3.54762 39.7389 3.55275L39.7643 3.55573ZM4.1119 18.0203C4.14093 17.8994 4.38538 17.7075 4.43377 17.7331C4.69399 17.8695 4.72512 18.1096 4.76443 18.4128C4.77641 18.5051 4.78915 18.6034 4.80936 18.7063C4.32332 18.5835 4.0096 18.4537 4.1119 18.0203ZM2.6382 24.0707C2.59702 24.3199 2.471 24.5115 2.22959 24.6017C2.09636 24.5597 1.96123 24.491 2.00261 24.3538C2.01345 24.3182 2.02273 24.2804 2.03213 24.2421C2.08081 24.0437 2.13278 23.832 2.4226 23.8382C2.55033 23.841 2.66288 23.9169 2.6382 24.0707ZM5.35955 17.6521C5.26865 17.8544 4.80234 17.4594 4.61958 17.2531C4.44307 17.0546 4.58978 16.7817 4.84143 16.6369C4.847 16.634 4.85308 16.6318 4.85916 16.6295L4.8682 16.6261C4.84884 16.5263 4.83631 16.4259 4.83631 16.3224C4.06957 17.6857 3.40494 19.114 2.85475 20.5977C2.96155 20.7106 3.07416 20.8302 3.19638 20.96L3.19741 20.9611L3.19787 20.9616L3.19882 20.9626L3.20108 20.965L3.20232 20.9663L3.20352 20.9676L3.20364 20.9677L3.45049 21.2297C3.19183 21.2607 2.95954 21.3467 2.73794 21.4288L2.73784 21.4288L2.73717 21.4291C2.66962 21.4541 2.60306 21.4787 2.53705 21.5013C1.90961 23.3791 1.46285 25.3388 1.21822 27.36C1.38333 27.1619 1.60918 27.0773 1.89917 27.2991L1.89898 27.2964L1.89872 27.2943L1.89831 27.2908L1.89822 27.2889C2.02937 27.3342 2.14191 27.293 2.23453 27.2012C2.37003 27.067 2.41425 26.9674 2.18518 26.8518C1.81566 26.6654 1.90145 26.4102 2.16032 26.1222C2.34422 26.2686 2.46588 26.4458 2.56191 26.636C3.05004 23.4362 4.06843 20.4095 5.52144 17.6454C5.46584 17.6581 5.41118 17.661 5.35955 17.6521ZM40.0734 59.1872C39.852 59.1812 39.5494 59.1731 39.6819 59.5813C39.6944 59.6187 39.7037 59.6576 39.713 59.698C36.9533 60.5368 34.0278 60.9912 30.9978 60.9912C30.0629 60.9912 29.1383 60.9457 28.2252 60.861C28.2178 60.8301 28.2074 60.7969 28.1931 60.7618C28.0752 60.4692 27.8275 60.4756 27.5849 60.4818C27.4493 60.4853 27.3153 60.4887 27.2064 60.4399C26.9752 60.3352 26.6645 60.3658 26.3528 60.3965C25.6841 60.4625 25.0107 60.5288 25.1065 59.2603C25.1085 59.2398 25.0322 59.1873 25.0076 59.1953C24.7369 59.2829 24.5472 59.1385 24.356 58.9808C26.4891 59.4864 28.7122 59.7557 30.9978 59.7557C32.3189 59.7557 33.618 59.665 34.8926 59.4915C34.9008 59.5008 34.9091 59.5101 34.9184 59.5183C35.0672 59.6545 35.2103 59.6671 35.3622 59.5587C35.4303 59.509 35.4652 59.4585 35.4766 59.4069C40.9586 58.5462 45.931 56.1315 49.93 52.629C50.0211 52.5681 50.0966 52.5039 50.1409 52.4421C50.6772 51.9623 51.1978 51.4626 51.6952 50.9448C51.7419 51.1893 51.9632 51.3358 52.1951 51.3316C52.4711 51.3274 52.9892 51.1914 53.0021 50.7579C53.0125 50.469 52.8121 50.1697 52.4657 50.1151C53.3562 49.1172 54.1763 48.0563 54.9235 46.9417C54.9313 46.9437 54.9366 46.9447 54.9444 46.9468C54.9417 46.9377 54.939 46.9284 54.939 46.9179C55.0901 46.6889 55.2412 46.4577 55.3869 46.2247L55.3951 46.268L55.3952 46.2687L55.4024 46.307L55.4103 46.3484C55.419 46.394 55.4272 46.4438 55.4359 46.4967L55.436 46.4971C55.4927 46.8412 55.5711 47.317 55.9388 47.6425C55.6629 48.0531 55.3792 48.4565 55.0848 48.8528C54.9417 48.7467 54.8037 48.7777 54.7386 48.9809C54.7335 49.0026 54.7491 49.0583 54.7828 49.1346C54.7568 49.1532 54.7386 49.1749 54.7335 49.2007C54.7177 49.2646 54.7022 49.3246 54.6813 49.3821C54.4367 49.696 54.1841 50.0058 53.929 50.31C53.842 50.3742 53.7517 50.4362 53.6609 50.4985C53.5913 50.5462 53.5214 50.5941 53.4524 50.6435C53.3562 50.7137 53.3744 50.8076 53.4369 50.8786C50.0575 54.6869 45.7253 57.6318 40.8204 59.3366C40.6335 59.2262 40.4167 59.1645 40.204 59.1861C40.1684 59.1897 40.1229 59.1885 40.0734 59.1872ZM57.095 45.0741C57.1763 45.0346 57.2574 44.9951 57.3134 44.9394C57.4098 44.8446 57.5191 44.7806 57.644 44.761C57.4774 45.082 57.3056 45.3997 57.1286 45.7134C57.001 45.7092 56.8917 45.6847 56.837 45.5453C56.7209 45.2562 56.9082 45.1651 57.095 45.0741ZM58.1391 43.759C58.4905 43.0191 58.8107 42.2626 59.0998 41.4917C59.068 41.4935 59.037 41.4948 59.0059 41.4961C58.9784 41.4973 58.9508 41.4985 58.9227 41.5C58.8471 40.8673 59.0893 40.4679 59.5032 40.0965C59.5266 40.113 59.5475 40.1296 59.5683 40.1463C60.076 38.561 60.4562 36.9203 60.6957 35.2338C60.5108 35.1061 60.3598 34.9338 60.2451 34.6385C60.4899 34.6054 60.6617 34.5828 60.7815 34.588C60.8441 34.0699 60.891 33.5487 60.9274 33.0232C60.8934 33.0657 60.8519 33.1029 60.7946 33.1298C60.779 33.138 60.6644 33.0194 60.6748 32.9905C60.6951 32.9383 60.7004 32.8773 60.7057 32.8161C60.7183 32.673 60.7308 32.5296 60.9352 32.4992C60.943 32.4982 60.9507 32.5003 60.9585 32.5034C60.9845 32.0029 60.9976 31.4982 60.9976 30.9915C60.9976 29.8564 60.9325 28.7355 60.8076 27.6325C60.7243 27.5962 60.6384 27.5332 60.555 27.4313C60.6306 27.3734 60.7008 27.3362 60.7712 27.3136C60.529 25.3364 60.0916 23.4188 59.4824 21.579C59.4304 21.6159 59.3626 21.6398 59.2689 21.642C59.2115 21.6435 59.154 21.6357 59.0966 21.6278C59.0291 21.6186 58.9615 21.6093 58.894 21.6153C58.6414 21.6375 58.6467 21.8645 58.7405 21.9696C58.7815 22.0143 58.8411 22.0496 58.8994 22.0841C59.0522 22.1745 59.1956 22.2595 58.9696 22.4927C58.8038 22.6656 58.6563 22.5768 58.5036 22.4848L58.4723 22.4661C58.6076 22.9003 58.7325 23.3387 58.8472 23.7811C58.8758 23.7195 58.9096 23.6583 58.9538 23.5974C59.6126 24.7139 59.7765 25.0527 59.1986 25.3112C59.3653 26.1375 59.4928 26.9771 59.5892 27.8274C59.6288 27.7809 59.6607 27.7242 59.6928 27.6672C59.7854 27.503 59.8791 27.3367 60.1593 27.4064C60.2977 27.5937 60.2119 27.7511 60.1259 27.9088C60.0791 27.9945 60.0323 28.0803 60.0214 28.1711C59.9972 28.3754 59.8682 28.3036 59.753 28.2395C59.7187 28.2204 59.6855 28.202 59.6568 28.1918L59.6257 28.1794C59.6881 28.8276 59.7297 29.4808 59.7479 30.1413L59.7631 30.146C60.0922 30.2486 60.4484 30.3597 60.6228 30.7541C60.3155 30.9213 60.0318 30.942 59.761 30.8592L59.7612 30.8815C59.7614 30.8957 59.7619 30.9101 59.7623 30.9245V30.9245C59.763 30.9467 59.7636 30.9691 59.7636 30.9915C59.7636 33.1524 59.5215 35.2587 59.0684 37.2845C59.118 37.2928 59.17 37.2938 59.2298 37.2845C59.1909 37.4473 59.1075 37.5177 59.006 37.5528C58.8836 38.0768 58.7456 38.5961 58.5945 39.1089C58.5972 39.2307 58.5841 39.3474 58.4983 39.4384C58.152 40.5589 57.7407 41.6507 57.2668 42.7086C57.7954 42.7674 58.0635 43.1111 58.1391 43.759ZM1.18958 32.0841C1.18958 32.0853 1.18844 32.0875 1.18749 32.0894H1.19053L1.1331 32.1299C1.09438 32.1572 1.05868 32.1824 1.02447 32.206C1.01706 32.0336 1.01099 31.8624 1.007 31.6901C1.06486 31.7261 1.0998 31.831 1.13488 31.9363C1.15216 31.9882 1.16947 32.0402 1.18958 32.0841ZM1.90578 27.3601C1.51248 27.822 1.86853 27.974 2.22256 28.125C2.24745 28.1357 2.27233 28.1463 2.29693 28.157C2.0318 27.9505 1.9369 27.6696 1.90578 27.3601ZM1.32009 32.1024H1.32007C1.2739 32.0987 1.22776 32.095 1.19066 32.0895C1.19066 32.0895 1.1918 32.0895 1.1918 32.0883C1.19117 32.0879 1.19088 32.087 1.1906 32.0861C1.19037 32.0854 1.19013 32.0847 1.18971 32.0842C1.30043 31.8029 1.50409 31.5828 1.70653 31.364C1.83443 31.2257 1.96183 31.088 2.065 30.9358C1.87793 30.7735 1.73219 30.8159 1.59893 30.8546C1.53643 30.8728 1.47668 30.8902 1.41669 30.8853C1.35571 30.8799 1.28834 30.9 1.22069 30.9202H1.22068H1.22068C1.14411 30.943 1.06719 30.966 0.998779 30.9523C0.998779 30.8864 0.999767 30.8204 1.00076 30.7545L1.00201 30.6645C1.60876 30.3516 1.86782 29.813 1.9462 29.1607C1.95853 29.1256 1.96669 29.0876 1.97087 29.0432C1.96992 29.0421 1.96878 29.0379 1.96783 29.0329C1.96985 29.0208 1.97081 29.0106 1.9719 28.999L1.97201 28.9978C2.09556 28.9957 2.2064 28.9749 2.30622 28.94C2.25859 29.6179 2.23201 30.3011 2.23201 30.9916C2.23201 31.6013 2.25365 32.2071 2.29161 32.8078C1.9462 32.7571 1.63248 32.6436 1.52904 32.1462C1.52343 32.1187 1.42172 32.1105 1.32009 32.1024ZM22.9312 58.603C23.0768 58.7516 23.2791 58.7897 23.4619 58.7527C23.2842 58.7043 23.1077 58.6546 22.9312 58.603ZM1.62311 28.5109C1.81993 28.6127 2.0111 28.7116 1.97178 28.9978C1.97016 28.9978 1.9686 28.9981 1.96703 28.9983C1.96547 28.9986 1.9639 28.9988 1.96229 28.9988C1.9583 29.0535 1.95223 29.1072 1.94597 29.1607C1.88113 29.3525 1.71018 29.4264 1.54188 29.4991C1.48454 29.5239 1.42751 29.5485 1.37509 29.5776C1.22876 29.6583 1.11109 29.75 1.02113 29.8532C1.04391 29.2402 1.08415 28.6316 1.14412 28.0288C1.16892 28.0687 1.19625 28.1095 1.22434 28.1514C1.25 28.1897 1.27628 28.2289 1.30183 28.2693C1.37427 28.3821 1.4998 28.4471 1.62311 28.5109Z" fill="#986B0D"/>
<g clip-path="url(#clip0_721_219)">
<path d="M45.9755 17.6723C45.4508 17.1915 44.705 17.0313 44.0291 17.254L15.3512 26.7075C14.5697 26.9651 14.0397 27.6628 14.001 28.4847C13.9624 29.3067 14.4246 30.0511 15.1784 30.381L22.2707 33.484C22.3053 33.6446 24.3412 43.0875 24.4105 43.4085C24.4994 43.8207 24.7086 44.188 25.1519 44.3009C25.6003 44.4151 25.9171 44.1701 26.2517 43.9196C26.4379 43.7802 31.5147 39.9787 31.5147 39.9787L37.6676 45.0136C38.026 45.307 38.464 45.4601 38.9106 45.4601C39.1233 45.46 39.3379 45.4253 39.5468 45.3545C40.1944 45.1349 40.6744 44.6064 40.8309 43.9408L46.5619 19.5746C46.7248 18.8819 46.5002 18.153 45.9755 17.6723ZM26.7101 35.2621C26.7066 35.2704 26.7032 35.2798 26.6999 35.291L25.5136 39.436L24.1896 33.2954L33.2937 28.2372L26.9285 34.8926C26.8282 34.9975 26.7545 35.1242 26.7101 35.2621ZM27.0867 40.9014L27.6255 39.0186L28.1409 37.2179L29.9877 38.7291L27.0867 40.9014ZM44.6973 19.136L38.9663 43.5021C38.9634 43.5142 38.9596 43.5309 38.9316 43.5404C38.9038 43.5498 38.8903 43.5391 38.8808 43.5312L32.148 38.0217C32.1479 38.0216 32.1477 38.0214 32.1475 38.0213L29.0281 35.4686L39.0499 24.9898C39.3772 24.6475 39.4052 24.1174 39.1158 23.7425C38.8263 23.3676 38.3064 23.2605 37.8925 23.4906L23.0531 31.7355L15.9463 28.626C15.9246 28.6166 15.9127 28.6113 15.9144 28.5746C15.9162 28.5381 15.9285 28.534 15.9509 28.5266L44.6288 19.0732C44.6427 19.0687 44.6583 19.0635 44.6814 19.0845C44.7045 19.1057 44.7006 19.1217 44.6973 19.136Z" fill="#986B0D"/>
</g>
<defs>
<clipPath id="clip0_721_219">
<rect width="32.6154" height="32.6154" fill="white" transform="translate(13.9988 15)"/>
</clipPath>
</defs>
</svg>
