<svg width="22" height="22" viewBox="0 0 22 22" fill="none" xmlns="http://www.w3.org/2000/svg">
<g clip-path="url(#clip0_785_10576)">
<path d="M21.0436 20.2637L13.6269 12.847C16.2319 9.661 15.7609 4.96646 12.5749 2.36144C9.38894 -0.243591 4.69437 0.227423 2.08934 3.4134C-0.515685 6.59939 -0.0446711 11.294 3.14131 13.899C5.88557 16.1428 9.83066 16.1428 12.5749 13.899L19.9916 21.3157C20.2872 21.6011 20.7581 21.5929 21.0436 21.2974C21.322 21.0091 21.322 20.552 21.0436 20.2637ZM7.87002 14.0939C4.58447 14.0902 1.9219 11.4277 1.91824 8.14212C1.91824 4.85504 4.58295 2.19034 7.87002 2.19034C11.1571 2.19034 13.8218 4.85504 13.8218 8.14212C13.8218 11.4292 11.1571 14.0939 7.87002 14.0939Z" fill="white"/>
<path d="M11.59 7.3982H8.61404V4.42233C8.61404 4.01143 8.28095 3.67834 7.87005 3.67834C7.45915 3.67834 7.12606 4.01143 7.12606 4.42233V7.39824H4.15024C3.73934 7.39824 3.40625 7.73133 3.40625 8.14223C3.40625 8.55313 3.73934 8.88622 4.15024 8.88622H7.12615V11.8621C7.12615 12.273 7.45924 12.6061 7.87014 12.6061C8.28104 12.6061 8.61413 12.273 8.61413 11.8621V8.88622H11.59C12.0009 8.88622 12.334 8.55313 12.334 8.14223C12.334 7.73133 12.0009 7.3982 11.59 7.3982Z" fill="white"/>
</g>
<defs>
<clipPath id="clip0_785_10576">
<rect width="20.8462" height="20.8462" fill="white" transform="translate(0.40625 0.678223)"/>
</clipPath>
</defs>
</svg>
