<svg width="590" height="590" fill="none" xmlns="http://www.w3.org/2000/svg"><path d="M296.011 31.014a23.116 23.116 0 0 0-2.555 2.905c-.578 1.278-2.099 5.279-4.563 12.017a100.249 100.249 0 0 0-3.803 11.362c0 .608 1.248 5.47 3.742 14.587 2.383 8.842 3.853 14.064 4.411 15.667a7.752 7.752 0 0 0 1.521 2.479 7.37 7.37 0 0 1 1.217 1.658 11.353 11.353 0 0 0-2.053 0h-1.886a19.334 19.334 0 0 1-5.537-.578c.4-.794.672-1.646.806-2.525 0-.416-.867-3.61-2.601-9.583-1.658-5.734-2.768-9.126-3.301-10.358h-.121c-.122 0-.228.091-.32.259-.654 1.43-1.947 4.776-3.848 10.023a59.036 59.036 0 0 0-3.042 9.537c.126.906.356 1.794.684 2.647a5.832 5.832 0 0 1-1.125.076c-.533 0-1.339 0-2.419-.076s-1.886 0-2.433 0c.958-.122 1.718-.882 2.266-2.327.548-1.445 2.175-5.993 4.822-13.69 2.809-8.112 4.218-12.315 4.228-12.61 0-.76-1.967-7.61-5.901-20.549a5236.8 5236.8 0 0 0-1.521-5.795 13.104 13.104 0 0 0-2.373-5.065 27.762 27.762 0 0 1 5.004-.654c-.167 0 1.171.304 4.031.897a2.427 2.427 0 0 0-1.05 2.084 61.425 61.425 0 0 0 2.358 9.37 97.076 97.076 0 0 0 3.042 9.522c.679-1.23 1.284-2.5 1.81-3.803.497-1.278 1.43-3.848 2.799-7.712a56.261 56.261 0 0 0 2.297-7.377c0-.44-.502-1.17-1.522-2.16a10.848 10.848 0 0 1 3.727-.821c1.086.097 2.161.296 3.209.593Z" fill="url(#a)"/><path d="M308.256 91.263a9.832 9.832 0 0 1-1.871.167c-.578 0-3.301-.258-8.138-.745a78.17 78.17 0 0 0 1.856-2.403v-1.323c0-.73 0-1.81-.091-3.286-.091-1.475-.091-2.555-.091-3.27 0-.715 0-1.765.213-3.149.128-1.045.205-2.096.228-3.148V36.657a13.402 13.402 0 0 0-.563-3.483c-.456-1.612-.974-2.433-1.521-2.494a69.268 69.268 0 0 1 6.951-.746 8.227 8.227 0 0 1 2.616.67 10.07 10.07 0 0 1-1.125 1.9 3.703 3.703 0 0 0-.73 2.07v49.662a15.86 15.86 0 0 0 .425 4.396 13.164 13.164 0 0 1 1.841 2.631Z" fill="url(#b)"/><path d="M320.941 91.263a9.532 9.532 0 0 1-1.855.167c-.578 0-3.301-.258-8.153-.745.411-.502 1.034-1.308 1.871-2.403v-1.323c0-.73 0-1.81-.091-3.286-.092-1.475-.092-2.555-.092-3.27.017-1.053.088-2.104.213-3.149.137-1.384.213-2.434.213-3.148V36.657a12.745 12.745 0 0 0-.563-3.483c-.456-1.612-.973-2.433-1.521-2.494a69.468 69.468 0 0 1 6.967-.746 8.406 8.406 0 0 1 2.616.67c-.311.67-.688 1.306-1.126 1.9a3.636 3.636 0 0 0-.745 2.07v49.662a15.714 15.714 0 0 0 .441 4.396c.708.804 1.32 1.687 1.825 2.631Z" fill="url(#c)"/><path d="M500.334 288.087a8.443 8.443 0 0 1-.167-1.856c0-.593.243-3.3.745-8.153.502.426 1.293 1.035 2.403 1.871h1.324c.715 0 1.81 0 3.27-.091s2.555-.091 3.285-.091c1.053.016 2.104.087 3.149.213 1.369.137 2.434.213 3.149.213h37.463a12.866 12.866 0 0 0 3.483-.563c1.597-.456 2.434-.974 2.479-1.521.374 2.307.623 4.632.746 6.966a8.3 8.3 0 0 1-.654 2.616 10.928 10.928 0 0 1-1.917-1.125 3.587 3.587 0 0 0-2.068-.746h-49.647a15.567 15.567 0 0 0-4.396.442 15.064 15.064 0 0 1-2.647 1.825Z" fill="url(#d)"/><path d="M500.334 300.712a8.578 8.578 0 0 1-.167-1.871c0-.578.243-3.286.745-8.138a79.925 79.925 0 0 0 2.403 1.871h1.324c.715 0 1.81 0 3.27-.107 1.46-.106 2.555-.091 3.285-.091 1.053.023 2.104.099 3.149.228 1.369.137 2.434.213 3.149.213h37.463a12.821 12.821 0 0 0 3.483-.563c1.597-.456 2.434-.973 2.48-1.521.374 2.307.623 4.633.745 6.967a8.132 8.132 0 0 1-.654 2.601 10.52 10.52 0 0 1-1.917-1.11 3.587 3.587 0 0 0-2.068-.746h-49.647a15.71 15.71 0 0 0-4.396.426c-.81.712-1.698 1.33-2.647 1.841Z" fill="url(#e)"/><path d="M500.334 313.336a8.704 8.704 0 0 1-.167-1.871c0-.578.243-3.3.745-8.137a64.34 64.34 0 0 0 2.403 1.855h1.324c.714 0 1.81 0 3.27-.091s2.555-.091 3.285-.091 1.765 0 3.149.213a31.28 31.28 0 0 0 3.148.228h37.464a13.44 13.44 0 0 0 3.483-.563c1.597-.456 2.434-.973 2.48-1.521.374 2.302.623 4.622.745 6.951a8.193 8.193 0 0 1-.654 2.617 10.017 10.017 0 0 1-1.917-1.126 3.7 3.7 0 0 0-2.068-.745h-49.648a15.523 15.523 0 0 0-4.395.441 14.22 14.22 0 0 1-2.647 1.84Z" fill="url(#f)"/><path d="M91.871 297c.117.612.173 1.233.168 1.856 0 .593-.244 3.301-.746 8.153a77.879 77.879 0 0 0-2.403-1.871h-1.323c-.715 0-1.81 0-3.27.091s-2.556.107-3.286.107a31.574 31.574 0 0 1-3.148-.229c-1.385-.137-2.434-.213-3.149-.213H37.251a12.862 12.862 0 0 0-3.484.563c-1.597.457-2.433.974-2.479 1.521a64.93 64.93 0 0 1-.745-6.966 8.284 8.284 0 0 1 .654-2.616c.67.311 1.306.688 1.901 1.125.602.456 1.33.717 2.084.746h49.647c1.479.069 2.96-.08 4.396-.442A14.5 14.5 0 0 1 91.872 297Z" fill="url(#g)"/><path d="M31.607 268.085c.9.928 1.87 1.782 2.906 2.555 1.277.578 5.278 2.099 12.016 4.563a103.928 103.928 0 0 0 11.362 3.803c.608 0 5.47-1.247 14.587-3.742 8.842-2.403 14.065-3.873 15.667-4.411a7.853 7.853 0 0 0 2.48-1.521 7.759 7.759 0 0 1 1.657-1.217c-.046.684-.046 1.37 0 2.054v1.992a18.86 18.86 0 0 1-.578 5.537 8.285 8.285 0 0 0-2.525-.806c-.416 0-3.605.867-9.567 2.601-5.75 1.658-9.203 2.768-10.374 3.301v.121c0 .122.091.228.259.304 1.43.67 4.77 1.958 10.023 3.864a60.839 60.839 0 0 0 9.537 3.042 11.975 11.975 0 0 0 2.647-.684c.068.371.098.748.091 1.125 0 .538-.03 1.344-.091 2.419v2.433c-.101-.953-.877-1.713-2.327-2.281-1.45-.568-6.013-2.17-13.69-4.807-8.061-2.829-12.26-4.228-12.594-4.228-.78 0-7.636 1.967-20.565 5.901l-5.795 1.521a13.341 13.341 0 0 0-5.065 2.358 27.628 27.628 0 0 1-.654-5.096c0 .168.304-1.171.913-4.03a2.383 2.383 0 0 0 2.068 1.049 63.612 63.612 0 0 0 9.37-2.357 91.248 91.248 0 0 0 9.522-3.043 37.266 37.266 0 0 0-3.803-1.794c-1.277-.507-3.848-1.44-7.712-2.799a55.3 55.3 0 0 0-7.377-2.297c-.44 0-1.156.502-2.16 1.521a10.84 10.84 0 0 1-.82-3.726c.094-1.092.292-2.171.592-3.225Z" fill="url(#h)"/><path d="M67.215 159.482c.376 1.232.85 2.432 1.415 3.59.867 1.11 3.726 4.289 8.609 9.552a97.863 97.863 0 0 0 8.35 8.563c.548.289 5.43 1.415 14.679 3.377 8.953 1.917 14.267 3.002 15.94 3.255a7.88 7.88 0 0 0 2.905-.213 6.719 6.719 0 0 1 2.039-.319 12.073 12.073 0 0 0-.943 1.825l-.913 1.765a18.67 18.67 0 0 1-3.042 4.654 8.387 8.387 0 0 0-1.871-1.871c-.365-.193-3.6-.882-9.704-2.069-5.872-1.156-9.446-1.764-10.724-1.825v.107a.333.333 0 0 0 .076.395c.974 1.247 3.347 3.924 7.149 8.016a62.231 62.231 0 0 0 7.012 7.058c.868.3 1.765.504 2.677.608-.124.349-.271.69-.441 1.019a62.84 62.84 0 0 1-1.186 2.13c-.548.943-.943 1.627-1.187 2.114a3.036 3.036 0 0 0-1.019-3.042c-1.014-1.156-4.33-4.67-9.947-10.541-5.882-6.206-8.97-9.385-9.264-9.537-.69-.345-7.68-1.734-20.975-4.168a359.42 359.42 0 0 0-5.871-1.277 12.923 12.923 0 0 0-5.582-.213 27.378 27.378 0 0 1 1.749-4.837c0 .152.806-.913 2.662-3.179a2.402 2.402 0 0 0 1.353 1.886 61.017 61.017 0 0 0 9.416 2.19 96.876 96.876 0 0 0 9.886 1.613 33.502 33.502 0 0 0-2.555-3.347c-.897-1.034-2.753-3.042-5.567-6.084a55.78 55.78 0 0 0-5.506-5.43 4.378 4.378 0 0 0-2.601.35c.099-1.281.429-2.533.973-3.696a18.269 18.269 0 0 1 2.008-2.419Z" fill="url(#i)"/><path d="M149.808 73.664a25.647 25.647 0 0 0-.411 3.91c.259 1.368 1.354 5.52 3.24 12.427.932 3.886 2.09 7.716 3.468 11.468.365.487 4.193 3.737 11.484 9.75 7.098 5.821 11.317 9.228 12.655 10.222.811.551 1.72.944 2.677 1.156a7.13 7.13 0 0 1 1.947.654c-.588.35-1.148.747-1.673 1.186l-1.627 1.141a19.404 19.404 0 0 1-4.852 2.738 8.94 8.94 0 0 0-.791-2.54c-.244-.335-2.779-2.434-7.606-6.298a106.16 106.16 0 0 0-8.685-6.555h-.091c-.107 0-.137.197-.107.38.284 1.551 1.167 5.019 2.647 10.404a61.97 61.97 0 0 0 3.042 9.552c.636.66 1.339 1.252 2.099 1.765a5.816 5.816 0 0 1-.867.714 58.01 58.01 0 0 1-2.023 1.339c-.912.578-1.521 1.019-2.023 1.323a3.041 3.041 0 0 0 .502-3.209c-.365-1.491-1.688-6.135-3.97-13.933-2.362-8.214-3.64-12.457-3.833-12.731-.436-.619-6.013-5.075-16.731-13.37-1.521-1.278-3.042-2.57-4.564-3.833a12.924 12.924 0 0 0-4.836-2.753 27.027 27.027 0 0 1 3.772-3.499c-.137.107 1.141-.426 3.818-1.52a2.406 2.406 0 0 0 .334 2.296 62.815 62.815 0 0 0 7.347 6.282 97.083 97.083 0 0 0 7.955 5.932 35.613 35.613 0 0 0-.73-4.152c-.335-1.324-1.05-3.955-2.175-7.91a57.212 57.212 0 0 0-2.388-7.347c-.259-.365-1.08-.654-2.464-.897a10.65 10.65 0 0 1 2.57-2.83 17.773 17.773 0 0 1 2.89-1.262Z" fill="url(#j)"/><path d="M194.694 115.767a8.96 8.96 0 0 1-1.414 1.217c-.487.335-2.85 1.704-7.088 4.107 0-.654.106-1.658.137-3.042l-.761-1.08c-.426-.593-1.08-1.521-1.977-2.632-.898-1.11-1.521-2.023-1.962-2.616-.442-.593-.959-1.521-1.643-2.692-.685-1.171-1.232-2.114-1.643-2.692l-21.675-30.573a12.239 12.239 0 0 0-2.464-2.525c-1.293-1.05-2.19-1.415-2.707-1.126a67.953 67.953 0 0 1 5.262-4.563 8.431 8.431 0 0 1 2.51-.974c.136.728.197 1.467.183 2.206a3.75 3.75 0 0 0 .593 2.13l28.565 40.444a15.466 15.466 0 0 0 3.042 3.331c1.05.249 2.07.611 3.042 1.08Z" fill="url(#k)"/><path d="M481.914 380.065c.203-.594.457-1.17.761-1.719.273-.502 1.81-2.753 4.563-6.769.228.609.639 1.521 1.202 2.799l1.171.639c.623.334 1.597.836 2.905 1.521 1.308.684 2.282 1.156 2.92 1.521.639.365 1.521.928 2.647 1.719a32.182 32.182 0 0 0 2.662 1.703l32.824 18.07c1.05.537 2.164.936 3.316 1.187 1.627.365 2.601.319 2.936-.167a69.35 69.35 0 0 1-2.708 6.464 8.37 8.37 0 0 1-1.84 1.962 11.098 11.098 0 0 1-1.126-1.901 3.73 3.73 0 0 0-1.521-1.643l-43.502-23.941a15.4 15.4 0 0 0-4.061-1.734 14.353 14.353 0 0 1-3.149.289Z" fill="url(#l)"/><path d="M516.336 443.553a8.698 8.698 0 0 0-1.765-2.814c-.654-.638-2.19-2.053-4.563-4.213-2.373-2.16-6.084-5.369-10.921-9.567-1.268-1.014-3.078-2.596-5.43-4.746a20.18 20.18 0 0 0-1.597-1.81 36.428 36.428 0 0 0-3.225-2.844c-2.525-2.028-5.567-4.645-9.126-7.849-2.936-2.692-5.872-5.385-8.822-8.046a6.715 6.715 0 0 1 .791-2.814 9.023 9.023 0 0 1 2.023-2.297c2.281.446 5.019 1.146 8.213 2.099 2.728.791 5.435 1.597 8.123 2.418 1.338.213 3.3.609 5.886 1.172 5.851 1.612 14.673 4.03 26.466 7.255.122 0 1.597.502 4.411 1.445 1.372.53 2.81.868 4.275 1.004a2.598 2.598 0 0 0 1.521-.472c.791-.41 1.277-.638 1.429-.699l1.08.593v.152a4.881 4.881 0 0 1-.867 1.08c-.324.304-.61.646-.851 1.019-.38.747-.705 1.519-.974 2.312-.27.766-.59 1.513-.958 2.236a2.744 2.744 0 0 1-1.247.882 18.597 18.597 0 0 0-1.734-1.658 8.653 8.653 0 0 0-2.115-.456l-2.494-.456c-5.141-1.329-11.733-3.124-19.774-5.385-10.86-3.042-17.492-4.918-19.895-5.628a24.299 24.299 0 0 0-5.004-.699c-.082.709 1.764 2.626 5.536 5.749 2.241 1.795 5.045 4.264 8.412 7.408 4.335 3.939 7.103 6.464 8.335 7.605.355.284 2.93 2.647 7.727 7.088 4.32 3.985 6.586 6.084 6.829 6.175a4.18 4.18 0 0 0 3.195 0 15.024 15.024 0 0 1-1.521 4.031 3.226 3.226 0 0 1-.457.67 1.715 1.715 0 0 0-.912.06Z" fill="url(#m)"/><path d="M419.566 532.732a8.385 8.385 0 0 0-.197-3.315c-.259-.883-.913-2.86-1.978-5.917-1.064-3.058-2.707-7.606-4.958-13.69-.609-1.511-1.43-3.767-2.464-6.768a17.594 17.594 0 0 0-.533-2.358 31.082 31.082 0 0 0-1.521-4.046c-1.217-3.042-2.616-6.799-4.198-11.271a922.444 922.444 0 0 0-3.848-11.301 6.775 6.775 0 0 1 2.068-2.084 8.767 8.767 0 0 1 2.875-1.035c1.78 1.521 3.833 3.423 6.176 5.796a321.132 321.132 0 0 1 5.962 6.084c1.065.821 2.586 2.114 4.563 3.863 4.371 4.239 10.937 10.612 19.698 19.12.091 0 1.156 1.201 3.179 3.377a16.016 16.016 0 0 0 3.255 2.95c.463.257.995.363 1.521.305.508-.001 1.016.025 1.521.076l.669 1.049v.137a5.9 5.9 0 0 1-1.293.517c-.429.11-.843.273-1.232.487-.694.46-1.355.968-1.977 1.521-.6.554-1.241 1.063-1.917 1.521-.48.202-1.008.26-1.521.167a22.755 22.755 0 0 0-.715-2.296 12.102 12.102 0 0 0-1.627-1.415c-1.202-.943-1.856-1.521-1.977-1.597-3.864-3.63-8.792-8.391-14.785-14.283-8.031-7.94-12.939-12.777-14.724-14.511a23.216 23.216 0 0 0-4.046-3.042c-.41.578.274 3.149 2.084 7.697 1.08 2.647 2.358 6.084 3.803 10.541l3.65 10.647c.173.416 1.293 3.732 3.362 9.948 1.855 5.552 2.859 8.457 3.042 8.685a4.138 4.138 0 0 0 2.768 1.521 14.828 14.828 0 0 1-3.316 2.784c-.23.145-.475.268-.73.365a1.636 1.636 0 0 0-.639-.229Z" fill="url(#n)"/><path d="M99.157 365.995a15.4 15.4 0 0 0-4.061 1.734L51.609 391.67c-.667.374-1.2.949-1.52 1.643a10.448 10.448 0 0 1-1.126 1.901 8.02 8.02 0 0 1-1.81-1.962 61.542 61.542 0 0 1-2.708-6.464c.32.487 1.308.532 2.92.167a13.784 13.784 0 0 0 3.332-1.186l32.824-18.07a31.16 31.16 0 0 0 2.647-1.704 28.615 28.615 0 0 1 2.661-1.704 50.598 50.598 0 0 1 2.906-1.521c1.384-.669 2.296-1.14 2.92-1.521l1.156-.639c.578-1.262.973-2.19 1.217-2.798 2.768 4.015 4.289 6.266 4.563 6.784a8.77 8.77 0 0 1 .745 1.703 13.58 13.58 0 0 1-3.179-.304Z" fill="url(#o)"/><path d="M105.241 377.053a15.393 15.393 0 0 0-4.061 1.688l-43.487 23.972c-.667.38-1.2.96-1.52 1.658a10.733 10.733 0 0 1-1.142 1.901 8.707 8.707 0 0 1-1.794-1.962 66.618 66.618 0 0 1-2.693-6.464c.32.486 1.309.532 2.92.167a13.783 13.783 0 0 0 3.332-1.186l32.84-18.086c.623-.35 1.52-.912 2.646-1.703a28.41 28.41 0 0 1 2.662-1.704c.623-.35 1.52-.852 2.905-1.521a46.535 46.535 0 0 0 2.92-1.521l1.156-.639c.578-1.262.974-2.19 1.217-2.799 2.769 4.016 4.29 6.267 4.563 6.784.302.543.552 1.114.746 1.704a14.418 14.418 0 0 1-3.21-.289Z" fill="url(#p)"/><path d="M111.326 388.111a15.42 15.42 0 0 0-4.062 1.734l-43.502 23.88a3.652 3.652 0 0 0-1.52 1.658 10.741 10.741 0 0 1-1.142 1.902 8.72 8.72 0 0 1-1.78-1.917 68.424 68.424 0 0 1-2.691-6.464c.32.471 1.293.532 2.92.167a13.348 13.348 0 0 0 3.331-1.202l32.824-18.054c.624-.35 1.522-.913 2.647-1.704 1.126-.791 2.023-1.369 2.662-1.719.639-.35 1.521-.836 2.905-1.521 1.384-.684 2.282-1.156 2.921-1.521l1.156-.639c.578-1.262.973-2.19 1.201-2.798 2.784 4 4.305 6.266 4.563 6.768.302.549.552 1.124.746 1.719a14.374 14.374 0 0 1-3.179-.289Z" fill="url(#q)"/><path d="M79.353 451.889a3.28 3.28 0 0 1-.471-.67 14.434 14.434 0 0 1-1.522-4.03c1.02.413 2.16.413 3.18 0 .243-.142 2.52-2.201 6.829-6.176 4.807-4.441 7.392-6.799 7.727-7.088l8.335-7.605c3.377-3.149 6.191-5.613 8.412-7.408 3.772-3.113 5.623-5.029 5.552-5.749a24.364 24.364 0 0 0-5.02.699c-2.403.67-9.035 2.546-19.895 5.628-8.112 2.262-14.704 4.056-19.774 5.385-.167 0-.989.197-2.494.441-.719.081-1.427.234-2.115.456-.09 0-.669.609-1.734 1.673a2.727 2.727 0 0 1-1.247-.882 18.2 18.2 0 0 1-.943-2.251 20.823 20.823 0 0 0-.973-2.297 6.09 6.09 0 0 0-.852-1.019 5.623 5.623 0 0 1-.882-1.08v-.106l1.095-.594c.152 0 .623.289 1.414.7.444.315.978.475 1.521.456a15.212 15.212 0 0 0 4.275-.988c2.829-.943 4.304-1.43 4.41-1.445l26.36-7.256c2.601-.562 4.563-.958 5.887-1.171a759.97 759.97 0 0 1 8.137-2.418c3.195-.954 5.927-1.653 8.199-2.099a8.955 8.955 0 0 1 2.023 2.281 6.66 6.66 0 0 1 .791 2.829 1408.612 1408.612 0 0 0-8.807 8.047c-3.559 3.179-6.586 5.795-9.126 7.848a32.382 32.382 0 0 0-3.225 2.845 20.933 20.933 0 0 0-1.612 1.795c-2.343 2.159-4.148 3.746-5.415 4.76-4.888 4.199-8.528 7.388-10.921 9.568-2.404 2.16-3.925 3.574-4.563 4.213a8.705 8.705 0 0 0-1.765 2.814 1.72 1.72 0 0 0-.79-.106Z" fill="url(#r)"/><path d="M169.247 461.806a15.577 15.577 0 0 0-2.722 3.483l-26.588 41.935a3.654 3.654 0 0 0-.487 2.16 10.7 10.7 0 0 1 0 2.206 8.21 8.21 0 0 1-2.556-.837 64.398 64.398 0 0 1-5.491-4.365c.533.274 1.4-.152 2.647-1.263a12.38 12.38 0 0 0 2.342-2.646l20.048-31.638a31.648 31.648 0 0 0 1.521-2.784c.459-.948.967-1.872 1.521-2.768.38-.608.989-1.521 1.825-2.723.837-1.201 1.521-2.114 1.841-2.707l.699-1.126c-.106-1.384-.197-2.388-.289-3.042 4.366 2.175 6.784 3.423 7.286 3.727a9.558 9.558 0 0 1 1.521 1.141 14.04 14.04 0 0 1-3.118 1.247Z" fill="url(#s)"/><path d="M179.895 468.574a15.53 15.53 0 0 0-2.708 3.468l-26.603 41.936a3.777 3.777 0 0 0-.472 2.16c.077.733.077 1.472 0 2.205a8.203 8.203 0 0 1-2.555-.836 64.607 64.607 0 0 1-5.491-4.366c.517.274 1.399-.152 2.647-1.262a13.215 13.215 0 0 0 2.342-2.632l19.987-31.638c.385-.608.892-1.536 1.521-2.783.453-.951.961-1.876 1.521-2.768.38-.609.988-1.521 1.825-2.723s1.521-2.114 1.825-2.707c.305-.594.502-.807.715-1.126a76.908 76.908 0 0 0-.289-3.042c4.366 2.175 6.784 3.422 7.286 3.726a9.558 9.558 0 0 1 1.521 1.141c-.976.527-2.006.945-3.072 1.247Z" fill="url(#t)"/><path d="M182.632 539.866a2.714 2.714 0 0 1-.73-.365 14.508 14.508 0 0 1-3.316-2.783 4.186 4.186 0 0 0 2.769-1.521c.152-.229 1.156-3.134 3.042-8.686 2.068-6.221 3.194-9.521 3.346-9.947.548-1.552 1.77-5.101 3.666-10.648 1.45-4.38 2.717-7.894 3.803-10.541 1.794-4.543 2.489-7.113 2.083-7.711a23.191 23.191 0 0 0-4.046 3.042 6272.171 6272.171 0 0 0-14.723 14.511c-5.993 5.901-10.922 10.662-14.785 14.282-.122.122-.791.654-1.977 1.597-.588.418-1.133.892-1.628 1.415 0 .106-.304.867-.715 2.297a2.644 2.644 0 0 1-1.521-.168 17.543 17.543 0 0 1-1.916-1.521 20.039 20.039 0 0 0-1.962-1.521 5.258 5.258 0 0 0-1.233-.486 5.2 5.2 0 0 1-1.292-.518v-.136l.669-1.05c.167 0 .7 0 1.521-.076a2.588 2.588 0 0 0 1.521-.304 16.284 16.284 0 0 0 3.255-2.936c2.023-2.19 3.042-3.316 3.179-3.392 8.771-8.497 15.337-14.871 19.698-19.119 1.977-1.75 3.513-3.043 4.563-3.864a825.955 825.955 0 0 1 5.962-6.084c2.343-2.373 4.401-4.305 6.176-5.795a9.1 9.1 0 0 1 2.874 1.034 6.708 6.708 0 0 1 2.054 2.084 2365.54 2365.54 0 0 0-3.848 11.301c-1.562 4.503-2.961 8.26-4.198 11.271a33.173 33.173 0 0 0-1.522 4.046 18.32 18.32 0 0 0-.547 2.358c-1.019 3.042-1.841 5.263-2.449 6.784-2.251 6.023-3.904 10.586-4.959 13.689-1.064 3.042-1.718 5.035-1.977 5.917a8.41 8.41 0 0 0-.198 3.316 1.53 1.53 0 0 0-.639.228Z" fill="url(#u)"/><path d="M481.899 204.52a15.334 15.334 0 0 0 4.061-1.734l43.502-23.941a3.725 3.725 0 0 0 1.521-1.643c.307-.671.684-1.309 1.126-1.901a8.368 8.368 0 0 1 1.84 1.962 69.368 69.368 0 0 1 2.708 6.465c-.335-.487-1.308-.533-2.936-.168-1.152.251-2.266.65-3.316 1.187l-32.824 18.07a30.868 30.868 0 0 0-2.662 1.703 31.013 31.013 0 0 1-2.646 1.704c-.639.35-1.598.852-2.921 1.521-1.323.669-2.281 1.141-2.905 1.521l-1.232.639a84.481 84.481 0 0 0-1.202 2.799c-2.768-4.016-4.304-6.267-4.563-6.784a10.03 10.03 0 0 1-.76-1.704 13.466 13.466 0 0 1 3.209.304Z" fill="url(#v)"/><path d="M475.815 193.462a15.4 15.4 0 0 0 4.061-1.734l43.502-23.941a3.73 3.73 0 0 0 1.521-1.643c.311-.669.688-1.306 1.125-1.901a8.353 8.353 0 0 1 1.841 1.962 65.165 65.165 0 0 1 2.707 6.465c-.334-.487-1.308-.533-2.935-.168-1.152.251-2.266.65-3.316 1.187l-32.824 18.07c-.624.35-1.521.912-2.662 1.703s-2.023 1.369-2.647 1.719c-.623.35-1.597.837-2.92 1.521-1.323.685-2.282 1.141-2.905 1.521l-1.172.639a84.871 84.871 0 0 0-1.201 2.799c-2.768-4.016-4.305-6.267-4.563-6.784a8.817 8.817 0 0 1-.746-1.704 13.41 13.41 0 0 1 3.134.289Z" fill="url(#w)"/><path d="M412.919 125.152a15.698 15.698 0 0 0 2.86-3.377l28.231-40.84a3.63 3.63 0 0 0 .562-2.13c-.024-.738.032-1.478.168-2.205a8.465 8.465 0 0 1 2.525.943 63.827 63.827 0 0 1 5.293 4.563c-.502-.289-1.399.092-2.692 1.156a13.705 13.705 0 0 0-2.434 2.54l-21.295 30.832c-.395.578-.943 1.521-1.612 2.708-.669 1.186-1.202 2.129-1.521 2.707-.32.578-1.065 1.521-1.947 2.647-.882 1.125-1.521 2.053-1.932 2.646-.41.594-.547.761-.76 1.08 0 1.384.106 2.404.167 3.042-4.279-2.342-6.652-3.681-7.118-4.015a9.295 9.295 0 0 1-1.445-1.202 13.681 13.681 0 0 1 2.95-1.095Z" fill="#E30611"/><path d="M283.098 559.746a8.74 8.74 0 0 0 1.627-2.905c.244-.882.746-2.905 1.521-6.084.776-3.179 1.78-7.864 3.042-14.161.289-1.612.807-3.955 1.522-7.058.323-.74.592-1.502.806-2.281.407-1.372.722-2.769.943-4.183.578-3.194 1.404-7.119 2.479-11.773.953-3.864 1.886-7.732 2.799-11.606a6.815 6.815 0 0 1 2.859-.654 9 9 0 0 1 3.042.654c.71 2.221 1.415 4.959 2.115 8.214a543.271 543.271 0 0 1 1.81 8.29c.456 1.262 1.049 3.179 1.795 5.719 1.419 5.922 3.554 14.82 6.403 26.694 0 .107.335 1.628.867 4.563a15.515 15.515 0 0 0 1.187 4.229c.25.471.644.849 1.125 1.08.746.502 1.171.806 1.308.912v1.248h-.137a5.408 5.408 0 0 1-1.369-.244 5.034 5.034 0 0 0-1.292-.243c-.837.021-1.67.102-2.495.243-.799.139-1.608.22-2.418.244a2.58 2.58 0 0 1-1.369-.654c.41-1.521.623-2.221.623-2.328-.141-.707-.35-1.4-.623-2.068-.502-1.445-.776-2.236-.807-2.403-1.338-5.142-2.955-11.799-4.852-19.972-2.525-11.002-4.081-17.72-4.669-20.154a23.2 23.2 0 0 0-1.795-4.715c-.669.274-1.445 2.814-2.358 7.605-.507 2.819-1.318 6.465-2.433 10.937a3955.681 3955.681 0 0 0-2.617 10.951c-.081.436-.907 3.833-2.479 10.191-1.409 5.689-2.114 8.675-2.114 8.959a4.227 4.227 0 0 0 1.521 2.814 14.994 14.994 0 0 1-4.29.578c-.27 0-.54-.026-.806-.076-.03-.015-.167-.228-.471-.563Z" fill="url(#x)"/><path d="M269.058 498.98a9.709 9.709 0 0 1 1.856-.152c.593 0 3.301.243 8.153.745-.411.487-1.034 1.293-1.871 2.404v1.323c0 .715 0 1.81.091 3.27.092 1.46.092 2.556.092 3.271a30.128 30.128 0 0 1-.213 3.148c-.137 1.384-.213 2.434-.213 3.149v37.524c.027 1.181.217 2.353.563 3.483.456 1.597.973 2.419 1.521 2.48a65.128 65.128 0 0 1-6.967.745 8.433 8.433 0 0 1-2.616-.669c.314-.668.691-1.305 1.126-1.902a3.633 3.633 0 0 0 .745-2.068v-49.693a15.566 15.566 0 0 0-.441-4.396 14.725 14.725 0 0 1-1.826-2.662Z" fill="url(#y)"/><path d="M295.008 0v14.313" stroke="url(#z)" stroke-width="1.5" stroke-miterlimit="10"/><path d="m264.176 1.612 1.491 14.237" stroke="url(#A)" stroke-width="1.5" stroke-miterlimit="10"/><path d="m233.679 6.45 2.981 13.993" stroke="url(#B)" stroke-width="1.5" stroke-miterlimit="10"/><path d="m203.851 14.435 4.426 13.613" stroke="url(#C)" stroke-width="1.5" stroke-miterlimit="10"/><path d="m175.027 25.493 5.811 13.08" stroke="url(#D)" stroke-width="1.5" stroke-miterlimit="10"/><path d="m147.511 39.517 7.149 12.396" stroke="url(#E)" stroke-width="1.5" stroke-miterlimit="10"/><path d="m121.608 56.34 8.411 11.575" stroke="url(#F)" stroke-width="1.5" stroke-miterlimit="10"/><path d="m97.621 75.763 9.567 10.633" stroke="url(#G)" stroke-width="1.5" stroke-miterlimit="10"/><path d="m75.779 97.59 10.632 9.583" stroke="url(#H)" stroke-width="1.5" stroke-miterlimit="10"/><path d="m56.34 121.593 11.59 8.411" stroke="url(#I)" stroke-width="1.5" stroke-miterlimit="10"/><path d="m39.532 147.496 12.397 7.149" stroke="url(#J)" stroke-width="1.5" stroke-miterlimit="10"/><path d="m25.508 174.997 13.081 5.825" stroke="url(#K)" stroke-width="1.5" stroke-miterlimit="10"/><path d="m14.435 203.821 13.613 4.426" stroke="url(#L)" stroke-width="1.5" stroke-miterlimit="10"/><path d="m6.45 233.648 13.993 2.982" stroke="url(#M)" stroke-width="1.5" stroke-miterlimit="10"/><path d="m1.612 264.146 14.237 1.505" stroke="url(#N)" stroke-width="1.5" stroke-miterlimit="10"/><path d="M0 294.992h14.313" stroke="url(#O)" stroke-width="1.5" stroke-miterlimit="10"/><path d="m1.612 325.824 14.237-1.491" stroke="url(#P)" stroke-width="1.5" stroke-miterlimit="10"/><path d="m6.45 356.321 13.993-2.981" stroke="url(#Q)" stroke-width="1.5" stroke-miterlimit="10"/><path d="m14.435 386.149 13.613-4.426" stroke="url(#R)" stroke-width="1.5" stroke-miterlimit="10"/><path d="m25.493 414.973 13.08-5.826" stroke="url(#S)" stroke-width="1.5" stroke-miterlimit="10"/><path d="m39.517 442.488 12.396-7.148" stroke="url(#T)" stroke-width="1.5" stroke-miterlimit="10"/><path d="m56.34 468.392 11.575-8.411" stroke="url(#U)" stroke-width="1.5" stroke-miterlimit="10"/><path d="m75.763 492.379 10.633-9.567" stroke="url(#V)" stroke-width="1.5" stroke-miterlimit="10"/><path d="m97.59 514.221 9.583-10.632" stroke="url(#W)" stroke-width="1.5" stroke-miterlimit="10"/><path d="m121.593 533.645 8.411-11.575" stroke="url(#X)" stroke-width="1.5" stroke-miterlimit="10"/><path d="m147.496 550.468 7.149-12.397" stroke="url(#Y)" stroke-width="1.5" stroke-miterlimit="10"/><path d="m174.997 564.492 5.825-13.081" stroke="url(#Z)" stroke-width="1.5" stroke-miterlimit="10"/><path d="m203.821 575.55 4.426-13.598" stroke="url(#aa)" stroke-width="1.5" stroke-miterlimit="10"/><path d="m233.648 583.551 2.982-13.994" stroke="url(#ab)" stroke-width="1.5" stroke-miterlimit="10"/><path d="m264.146 588.388 1.505-14.237" stroke="url(#ac)" stroke-width="1.5" stroke-miterlimit="10"/><path d="M294.992 590v-14.313" stroke="url(#ad)" stroke-width="1.5" stroke-miterlimit="10"/><path d="m325.824 588.388-1.491-14.237" stroke="url(#ae)" stroke-width="1.5" stroke-miterlimit="10"/><path d="m356.321 583.551-2.981-13.994" stroke="url(#af)" stroke-width="1.5" stroke-miterlimit="10"/><path d="m386.149 575.565-4.426-13.613" stroke="url(#ag)" stroke-width="1.5" stroke-miterlimit="10"/><path d="m414.973 564.507-5.826-13.081" stroke="url(#ah)" stroke-width="1.5" stroke-miterlimit="10"/><path d="m442.489 550.483-7.149-12.397" stroke="url(#ai)" stroke-width="1.5" stroke-miterlimit="10"/><path d="m468.392 533.66-8.411-11.575" stroke="url(#aj)" stroke-width="1.5" stroke-miterlimit="10"/><path d="m492.379 514.236-9.567-10.632" stroke="url(#ak)" stroke-width="1.5" stroke-miterlimit="10"/><path d="m514.221 492.409-10.632-9.582" stroke="url(#al)" stroke-width="1.5" stroke-miterlimit="10"/><path d="m533.645 468.407-11.575-8.411" stroke="url(#am)" stroke-width="1.5" stroke-miterlimit="10"/><path d="m550.468 442.504-12.397-7.149" stroke="url(#an)" stroke-width="1.5" stroke-miterlimit="10"/><path d="m564.492 415.003-13.081-5.825" stroke="url(#ao)" stroke-width="1.5" stroke-miterlimit="10"/><path d="m575.55 386.164-13.598-4.411" stroke="url(#ap)" stroke-width="1.5" stroke-miterlimit="10"/><path d="m583.551 356.352-13.994-2.982" stroke="url(#aq)" stroke-width="1.5" stroke-miterlimit="10"/><path d="m588.388 325.854-14.237-1.505" stroke="url(#ar)" stroke-width="1.5" stroke-miterlimit="10"/><path d="M590 295.008h-14.313" stroke="url(#as)" stroke-width="1.5" stroke-miterlimit="10"/><path d="m588.388 264.176-14.237 1.491" stroke="url(#at)" stroke-width="1.5" stroke-miterlimit="10"/><path d="m583.551 233.679-13.994 2.981" stroke="url(#au)" stroke-width="1.5" stroke-miterlimit="10"/><path d="m575.565 203.851-13.613 4.426" stroke="url(#av)" stroke-width="1.5" stroke-miterlimit="10"/><path d="m564.507 175.027-13.081 5.81" stroke="url(#aw)" stroke-width="1.5" stroke-miterlimit="10"/><path d="m550.483 147.511-12.396 7.149" stroke="url(#ax)" stroke-width="1.5" stroke-miterlimit="10"/><path d="m533.66 121.608-11.575 8.411" stroke="url(#ay)" stroke-width="1.5" stroke-miterlimit="10"/><path d="m514.236 97.621-10.632 9.567" stroke="url(#az)" stroke-width="1.5" stroke-miterlimit="10"/><path d="m492.409 75.779-9.582 10.632" stroke="url(#aA)" stroke-width="1.5" stroke-miterlimit="10"/><path d="m468.407 56.34-8.411 11.59" stroke="url(#aB)" stroke-width="1.5" stroke-miterlimit="10"/><path d="m442.504 39.532-7.149 12.397" stroke="url(#aC)" stroke-width="1.5" stroke-miterlimit="10"/><path d="m415.003 25.508-5.825 13.081" stroke="url(#aD)" stroke-width="1.5" stroke-miterlimit="10"/><path d="m386.164 14.435-4.411 13.613" stroke="url(#aE)" stroke-width="1.5" stroke-miterlimit="10"/><path d="m356.352 6.45-2.982 13.993" stroke="url(#aF)" stroke-width="1.5" stroke-miterlimit="10"/><path d="m325.854 1.612-1.505 14.237" stroke="url(#aG)" stroke-width="1.5" stroke-miterlimit="10"/><defs><linearGradient id="a" x1="-1631.37" y1="26500.1" x2="30813.2" y2="26500.1" gradientUnits="userSpaceOnUse"><stop stop-color="#B47E11"/><stop offset=".51" stop-color="#EAD98B"/><stop offset="1" stop-color="#B47E11"/></linearGradient><linearGradient id="b" x1="-400.247" y1="26591.4" x2="11526.3" y2="26591.4" gradientUnits="userSpaceOnUse"><stop stop-color="#B47E11"/><stop offset=".51" stop-color="#EAD98B"/><stop offset="1" stop-color="#B47E11"/></linearGradient><linearGradient id="c" x1="-387.559" y1="26591.4" x2="11539" y2="26591.4" gradientUnits="userSpaceOnUse"><stop stop-color="#B47E11"/><stop offset=".51" stop-color="#EAD98B"/><stop offset="1" stop-color="#B47E11"/></linearGradient><linearGradient id="d" x1="-3791.76" y1="4600.93" x2="69491.4" y2="4600.93" gradientUnits="userSpaceOnUse"><stop stop-color="#B47E11"/><stop offset=".51" stop-color="#EAD98B"/><stop offset="1" stop-color="#B47E11"/></linearGradient><linearGradient id="e" x1="-3791.77" y1="4613.62" x2="69491.5" y2="4613.62" gradientUnits="userSpaceOnUse"><stop stop-color="#B47E11"/><stop offset=".51" stop-color="#EAD98B"/><stop offset="1" stop-color="#B47E11"/></linearGradient><linearGradient id="f" x1="-3791.76" y1="4626.18" x2="69491.4" y2="4626.18" gradientUnits="userSpaceOnUse"><stop stop-color="#B47E11"/><stop offset=".51" stop-color="#EAD98B"/><stop offset="1" stop-color="#B47E11"/></linearGradient><linearGradient id="g" x1="-4261.29" y1="4619.89" x2="69020.2" y2="4619.89" gradientUnits="userSpaceOnUse"><stop stop-color="#B47E11"/><stop offset=".51" stop-color="#EAD98B"/><stop offset="1" stop-color="#B47E11"/></linearGradient><linearGradient id="h" x1="-4246.15" y1="12073.9" x2="68785" y2="12073.9" gradientUnits="userSpaceOnUse"><stop stop-color="#B47E11"/><stop offset=".51" stop-color="#EAD98B"/><stop offset="1" stop-color="#B47E11"/></linearGradient><linearGradient id="i" x1="-4533.64" y1="22503.1" x2="73822.6" y2="22503.1" gradientUnits="userSpaceOnUse"><stop stop-color="#B47E11"/><stop offset=".51" stop-color="#EAD98B"/><stop offset="1" stop-color="#B47E11"/></linearGradient><linearGradient id="j" x1="-3778.65" y1="28034.4" x2="62941.1" y2="28034.4" gradientUnits="userSpaceOnUse"><stop stop-color="#B47E11"/><stop offset=".51" stop-color="#EAD98B"/><stop offset="1" stop-color="#B47E11"/></linearGradient><linearGradient id="k" x1="-2863.28" y1="23612.4" x2="48613" y2="23612.4" gradientUnits="userSpaceOnUse"><stop stop-color="#B47E11"/><stop offset=".51" stop-color="#EAD98B"/><stop offset="1" stop-color="#B47E11"/></linearGradient><linearGradient id="l" x1="-3559.37" y1="16533.1" x2="65444.2" y2="16533.1" gradientUnits="userSpaceOnUse"><stop stop-color="#B47E11"/><stop offset=".51" stop-color="#EAD98B"/><stop offset="1" stop-color="#B47E11"/></linearGradient><linearGradient id="m" x1="-4010.94" y1="20697" x2="72514.7" y2="20697" gradientUnits="userSpaceOnUse"><stop stop-color="#B47E11"/><stop offset=".51" stop-color="#EAD98B"/><stop offset="1" stop-color="#B47E11"/></linearGradient><linearGradient id="n" x1="-3193.44" y1="27255.7" x2="58161.1" y2="27255.7" gradientUnits="userSpaceOnUse"><stop stop-color="#B47E11"/><stop offset=".51" stop-color="#EAD98B"/><stop offset="1" stop-color="#B47E11"/></linearGradient><linearGradient id="o" x1="-3995.78" y1="16512.8" x2="64989.6" y2="16512.8" gradientUnits="userSpaceOnUse"><stop stop-color="#B47E11"/><stop offset=".51" stop-color="#EAD98B"/><stop offset="1" stop-color="#B47E11"/></linearGradient><linearGradient id="p" x1="-3990.74" y1="16530.4" x2="65012.8" y2="16530.4" gradientUnits="userSpaceOnUse"><stop stop-color="#B47E11"/><stop offset=".51" stop-color="#EAD98B"/><stop offset="1" stop-color="#B47E11"/></linearGradient><linearGradient id="q" x1="-3982.53" y1="16521.7" x2="64984.8" y2="16521.7" gradientUnits="userSpaceOnUse"><stop stop-color="#B47E11"/><stop offset=".51" stop-color="#EAD98B"/><stop offset="1" stop-color="#B47E11"/></linearGradient><linearGradient id="r" x1="-4412.93" y1="20705.4" x2="71985.8" y2="20705.4" gradientUnits="userSpaceOnUse"><stop stop-color="#B47E11"/><stop offset=".51" stop-color="#EAD98B"/><stop offset="1" stop-color="#B47E11"/></linearGradient><linearGradient id="s" x1="-2727.33" y1="24599.4" x2="46084.5" y2="24599.4" gradientUnits="userSpaceOnUse"><stop stop-color="#B47E11"/><stop offset=".51" stop-color="#EAD98B"/><stop offset="1" stop-color="#B47E11"/></linearGradient><linearGradient id="t" x1="-2712.42" y1="24599.6" x2="46026.9" y2="24599.6" gradientUnits="userSpaceOnUse"><stop stop-color="#B47E11"/><stop offset=".51" stop-color="#EAD98B"/><stop offset="1" stop-color="#B47E11"/></linearGradient><linearGradient id="u" x1="-3440.75" y1="27269.2" x2="57895.7" y2="27269.2" gradientUnits="userSpaceOnUse"><stop stop-color="#B47E11"/><stop offset=".51" stop-color="#EAD98B"/><stop offset="1" stop-color="#B47E11"/></linearGradient><linearGradient id="v" x1="-3566.83" y1="16330.2" x2="65509.1" y2="16330.2" gradientUnits="userSpaceOnUse"><stop stop-color="#B47E11"/><stop offset=".51" stop-color="#EAD98B"/><stop offset="1" stop-color="#B47E11"/></linearGradient><linearGradient id="w" x1="-3567.54" y1="16325.8" x2="65417.8" y2="16325.8" gradientUnits="userSpaceOnUse"><stop stop-color="#B47E11"/><stop offset=".51" stop-color="#EAD98B"/><stop offset="1" stop-color="#B47E11"/></linearGradient><linearGradient id="x" x1="-2316.62" y1="27106.4" x2="42072.6" y2="27106.4" gradientUnits="userSpaceOnUse"><stop stop-color="#B47E11"/><stop offset=".51" stop-color="#EAD98B"/><stop offset="1" stop-color="#B47E11"/></linearGradient><linearGradient id="y" x1="-429.436" y1="27080.4" x2="11497.1" y2="27080.4" gradientUnits="userSpaceOnUse"><stop stop-color="#B47E11"/><stop offset=".51" stop-color="#EAD98B"/><stop offset="1" stop-color="#B47E11"/></linearGradient><linearGradient id="z" x1="225.218" y1="6182.1" x2="1416.86" y2="6182.1" gradientUnits="userSpaceOnUse"><stop stop-color="#B47E11"/><stop offset=".51" stop-color="#EAD98B"/><stop offset="1" stop-color="#B47E11"/></linearGradient><linearGradient id="A" x1="160.145" y1="6150.87" x2="1936.44" y2="6150.87" gradientUnits="userSpaceOnUse"><stop stop-color="#B47E11"/><stop offset=".51" stop-color="#EAD98B"/><stop offset="1" stop-color="#B47E11"/></linearGradient><linearGradient id="B" x1="25.616" y1="6050.59" x2="3578.21" y2="6050.59" gradientUnits="userSpaceOnUse"><stop stop-color="#B47E11"/><stop offset=".51" stop-color="#EAD98B"/><stop offset="1" stop-color="#B47E11"/></linearGradient><linearGradient id="C" x1="-105.056" y1="5894.34" x2="5169.43" y2="5894.34" gradientUnits="userSpaceOnUse"><stop stop-color="#B47E11"/><stop offset=".51" stop-color="#EAD98B"/><stop offset="1" stop-color="#B47E11"/></linearGradient><linearGradient id="D" x1="-230.482" y1="5675.45" x2="6693.45" y2="5675.45" gradientUnits="userSpaceOnUse"><stop stop-color="#B47E11"/><stop offset=".51" stop-color="#EAD98B"/><stop offset="1" stop-color="#B47E11"/></linearGradient><linearGradient id="E" x1="-351.411" y1="5393.84" x2="8167.52" y2="5393.84" gradientUnits="userSpaceOnUse"><stop stop-color="#B47E11"/><stop offset=".51" stop-color="#EAD98B"/><stop offset="1" stop-color="#B47E11"/></linearGradient><linearGradient id="F" x1="-465.425" y1="5055.89" x2="9557.96" y2="5055.89" gradientUnits="userSpaceOnUse"><stop stop-color="#B47E11"/><stop offset=".51" stop-color="#EAD98B"/><stop offset="1" stop-color="#B47E11"/></linearGradient><linearGradient id="G" x1="-570.088" y1="4668" x2="10830.8" y2="4668" gradientUnits="userSpaceOnUse"><stop stop-color="#B47E11"/><stop offset=".51" stop-color="#EAD98B"/><stop offset="1" stop-color="#B47E11"/></linearGradient><linearGradient id="H" x1="-666.237" y1="4236.51" x2="12003.4" y2="4236.51" gradientUnits="userSpaceOnUse"><stop stop-color="#B47E11"/><stop offset=".51" stop-color="#EAD98B"/><stop offset="1" stop-color="#B47E11"/></linearGradient><linearGradient id="I" x1="-752.554" y1="3754.64" x2="13059" y2="3754.64" gradientUnits="userSpaceOnUse"><stop stop-color="#B47E11"/><stop offset=".51" stop-color="#EAD98B"/><stop offset="1" stop-color="#B47E11"/></linearGradient><linearGradient id="J" x1="-825.623" y1="3235.26" x2="13946.6" y2="3235.26" gradientUnits="userSpaceOnUse"><stop stop-color="#B47E11"/><stop offset=".51" stop-color="#EAD98B"/><stop offset="1" stop-color="#B47E11"/></linearGradient><linearGradient id="K" x1="-887.417" y1="2691.21" x2="14700.5" y2="2691.21" gradientUnits="userSpaceOnUse"><stop stop-color="#B47E11"/><stop offset=".51" stop-color="#EAD98B"/><stop offset="1" stop-color="#B47E11"/></linearGradient><linearGradient id="L" x1="-935.644" y1="2115.62" x2="15286.6" y2="2115.62" gradientUnits="userSpaceOnUse"><stop stop-color="#B47E11"/><stop offset=".51" stop-color="#EAD98B"/><stop offset="1" stop-color="#B47E11"/></linearGradient><linearGradient id="M" x1="-970.168" y1="1521.32" x2="15705.2" y2="1521.32" gradientUnits="userSpaceOnUse"><stop stop-color="#B47E11"/><stop offset=".51" stop-color="#EAD98B"/><stop offset="1" stop-color="#B47E11"/></linearGradient><linearGradient id="N" x1="-991.99" y1="914.53" x2="15973.4" y2="914.53" gradientUnits="userSpaceOnUse"><stop stop-color="#B47E11"/><stop offset=".51" stop-color="#EAD98B"/><stop offset="1" stop-color="#B47E11"/></linearGradient><linearGradient id="O" x1="-998.91" y1="726.912" x2="16057.1" y2="726.912" gradientUnits="userSpaceOnUse"><stop stop-color="#B47E11"/><stop offset=".51" stop-color="#EAD98B"/><stop offset="1" stop-color="#B47E11"/></linearGradient><linearGradient id="P" x1="-991.99" y1="968.193" x2="15973.4" y2="968.193" gradientUnits="userSpaceOnUse"><stop stop-color="#B47E11"/><stop offset=".51" stop-color="#EAD98B"/><stop offset="1" stop-color="#B47E11"/></linearGradient><linearGradient id="Q" x1="-970.168" y1="1641.01" x2="15705.2" y2="1641.01" gradientUnits="userSpaceOnUse"><stop stop-color="#B47E11"/><stop offset=".51" stop-color="#EAD98B"/><stop offset="1" stop-color="#B47E11"/></linearGradient><linearGradient id="R" x1="-935.644" y1="2293.5" x2="15286.6" y2="2293.5" gradientUnits="userSpaceOnUse"><stop stop-color="#B47E11"/><stop offset=".51" stop-color="#EAD98B"/><stop offset="1" stop-color="#B47E11"/></linearGradient><linearGradient id="S" x1="-887.433" y1="2925.38" x2="14700.5" y2="2925.38" gradientUnits="userSpaceOnUse"><stop stop-color="#B47E11"/><stop offset=".51" stop-color="#EAD98B"/><stop offset="1" stop-color="#B47E11"/></linearGradient><linearGradient id="T" x1="-825.64" y1="3523.06" x2="13946.6" y2="3523.06" gradientUnits="userSpaceOnUse"><stop stop-color="#B47E11"/><stop offset=".51" stop-color="#EAD98B"/><stop offset="1" stop-color="#B47E11"/></linearGradient><linearGradient id="U" x1="-751.493" y1="4093.06" x2="13042" y2="4093.06" gradientUnits="userSpaceOnUse"><stop stop-color="#B47E11"/><stop offset=".51" stop-color="#EAD98B"/><stop offset="1" stop-color="#B47E11"/></linearGradient><linearGradient id="V" x1="-666.254" y1="4615.18" x2="12003.4" y2="4615.18" gradientUnits="userSpaceOnUse"><stop stop-color="#B47E11"/><stop offset=".51" stop-color="#EAD98B"/><stop offset="1" stop-color="#B47E11"/></linearGradient><linearGradient id="W" x1="-571.18" y1="5095.84" x2="10847.8" y2="5095.84" gradientUnits="userSpaceOnUse"><stop stop-color="#B47E11"/><stop offset=".51" stop-color="#EAD98B"/><stop offset="1" stop-color="#B47E11"/></linearGradient><linearGradient id="X" x1="-465.441" y1="5521.58" x2="9557.96" y2="5521.58" gradientUnits="userSpaceOnUse"><stop stop-color="#B47E11"/><stop offset=".51" stop-color="#EAD98B"/><stop offset="1" stop-color="#B47E11"/></linearGradient><linearGradient id="Y" x1="-351.427" y1="5892.39" x2="8167.52" y2="5892.39" gradientUnits="userSpaceOnUse"><stop stop-color="#B47E11"/><stop offset=".51" stop-color="#EAD98B"/><stop offset="1" stop-color="#B47E11"/></linearGradient><linearGradient id="Z" x1="-231.575" y1="6201.38" x2="6710.49" y2="6201.38" gradientUnits="userSpaceOnUse"><stop stop-color="#B47E11"/><stop offset=".51" stop-color="#EAD98B"/><stop offset="1" stop-color="#B47E11"/></linearGradient><linearGradient id="aa" x1="-105.089" y1="6435.29" x2="5169.43" y2="6435.29" gradientUnits="userSpaceOnUse"><stop stop-color="#B47E11"/><stop offset=".51" stop-color="#EAD98B"/><stop offset="1" stop-color="#B47E11"/></linearGradient><linearGradient id="ab" x1="25.586" y1="6613.67" x2="3578.18" y2="6613.67" gradientUnits="userSpaceOnUse"><stop stop-color="#B47E11"/><stop offset=".51" stop-color="#EAD98B"/><stop offset="1" stop-color="#B47E11"/></linearGradient><linearGradient id="ac" x1="159.052" y1="6723.42" x2="1953.49" y2="6723.42" gradientUnits="userSpaceOnUse"><stop stop-color="#B47E11"/><stop offset=".51" stop-color="#EAD98B"/><stop offset="1" stop-color="#B47E11"/></linearGradient><linearGradient id="ad" x1="225.202" y1="6757.81" x2="1416.84" y2="6757.81" gradientUnits="userSpaceOnUse"><stop stop-color="#B47E11"/><stop offset=".51" stop-color="#EAD98B"/><stop offset="1" stop-color="#B47E11"/></linearGradient><linearGradient id="ae" x1="220.298" y1="6723.42" x2="1996.67" y2="6723.42" gradientUnits="userSpaceOnUse"><stop stop-color="#B47E11"/><stop offset=".51" stop-color="#EAD98B"/><stop offset="1" stop-color="#B47E11"/></linearGradient><linearGradient id="af" x1="145.278" y1="6613.67" x2="3697.87" y2="6613.67" gradientUnits="userSpaceOnUse"><stop stop-color="#B47E11"/><stop offset=".51" stop-color="#EAD98B"/><stop offset="1" stop-color="#B47E11"/></linearGradient><linearGradient id="ag" x1="72.818" y1="6441.83" x2="5347.26" y2="6441.83" gradientUnits="userSpaceOnUse"><stop stop-color="#B47E11"/><stop offset=".51" stop-color="#EAD98B"/><stop offset="1" stop-color="#B47E11"/></linearGradient><linearGradient id="ah" x1="2.573" y1="6201.4" x2="6944.69" y2="6201.4" gradientUnits="userSpaceOnUse"><stop stop-color="#B47E11"/><stop offset=".51" stop-color="#EAD98B"/><stop offset="1" stop-color="#B47E11"/></linearGradient><linearGradient id="ai" x1="-63.584" y1="5892.48" x2="8455.36" y2="5892.48" gradientUnits="userSpaceOnUse"><stop stop-color="#B47E11"/><stop offset=".51" stop-color="#EAD98B"/><stop offset="1" stop-color="#B47E11"/></linearGradient><linearGradient id="aj" x1="-127.054" y1="5521.67" x2="9896.35" y2="5521.67" gradientUnits="userSpaceOnUse"><stop stop-color="#B47E11"/><stop offset=".51" stop-color="#EAD98B"/><stop offset="1" stop-color="#B47E11"/></linearGradient><linearGradient id="ak" x1="-184.894" y1="5095.81" x2="11215.9" y2="5095.81" gradientUnits="userSpaceOnUse"><stop stop-color="#B47E11"/><stop offset=".51" stop-color="#EAD98B"/><stop offset="1" stop-color="#B47E11"/></linearGradient><linearGradient id="al" x1="-238.43" y1="4621.75" x2="12431.3" y2="4621.75" gradientUnits="userSpaceOnUse"><stop stop-color="#B47E11"/><stop offset=".51" stop-color="#EAD98B"/><stop offset="1" stop-color="#B47E11"/></linearGradient><linearGradient id="am" x1="-285.759" y1="4093.06" x2="13507.6" y2="4093.06" gradientUnits="userSpaceOnUse"><stop stop-color="#B47E11"/><stop offset=".51" stop-color="#EAD98B"/><stop offset="1" stop-color="#B47E11"/></linearGradient><linearGradient id="an" x1="-327.084" y1="3523.15" x2="14445.1" y2="3523.15" gradientUnits="userSpaceOnUse"><stop stop-color="#B47E11"/><stop offset=".51" stop-color="#EAD98B"/><stop offset="1" stop-color="#B47E11"/></linearGradient><linearGradient id="ao" x1="-361.52" y1="2925.35" x2="15226.5" y2="2925.35" gradientUnits="userSpaceOnUse"><stop stop-color="#B47E11"/><stop offset=".51" stop-color="#EAD98B"/><stop offset="1" stop-color="#B47E11"/></linearGradient><linearGradient id="ap" x1="-387.067" y1="2286.96" x2="15817.1" y2="2286.96" gradientUnits="userSpaceOnUse"><stop stop-color="#B47E11"/><stop offset=".51" stop-color="#EAD98B"/><stop offset="1" stop-color="#B47E11"/></linearGradient><linearGradient id="aq" x1="-407.064" y1="1641.04" x2="16268.4" y2="1641.04" gradientUnits="userSpaceOnUse"><stop stop-color="#B47E11"/><stop offset=".51" stop-color="#EAD98B"/><stop offset="1" stop-color="#B47E11"/></linearGradient><linearGradient id="ar" x1="-419.454" y1="974.759" x2="16546" y2="974.759" gradientUnits="userSpaceOnUse"><stop stop-color="#B47E11"/><stop offset=".51" stop-color="#EAD98B"/><stop offset="1" stop-color="#B47E11"/></linearGradient><linearGradient id="as" x1="-423.225" y1="726.928" x2="16632.8" y2="726.928" gradientUnits="userSpaceOnUse"><stop stop-color="#B47E11"/><stop offset=".51" stop-color="#EAD98B"/><stop offset="1" stop-color="#B47E11"/></linearGradient><linearGradient id="at" x1="-419.454" y1="908.022" x2="16546" y2="908.022" gradientUnits="userSpaceOnUse"><stop stop-color="#B47E11"/><stop offset=".51" stop-color="#EAD98B"/><stop offset="1" stop-color="#B47E11"/></linearGradient><linearGradient id="au" x1="-407.064" y1="1521.35" x2="16268.4" y2="1521.35" gradientUnits="userSpaceOnUse"><stop stop-color="#B47E11"/><stop offset=".51" stop-color="#EAD98B"/><stop offset="1" stop-color="#B47E11"/></linearGradient><linearGradient id="av" x1="-388.119" y1="2115.63" x2="15834" y2="2115.63" gradientUnits="userSpaceOnUse"><stop stop-color="#B47E11"/><stop offset=".51" stop-color="#EAD98B"/><stop offset="1" stop-color="#B47E11"/></linearGradient><linearGradient id="aw" x1="-361.501" y1="2684.65" x2="15226.4" y2="2684.65" gradientUnits="userSpaceOnUse"><stop stop-color="#B47E11"/><stop offset=".51" stop-color="#EAD98B"/><stop offset="1" stop-color="#B47E11"/></linearGradient><linearGradient id="ax" x1="-327.064" y1="3235.26" x2="14445.1" y2="3235.26" gradientUnits="userSpaceOnUse"><stop stop-color="#B47E11"/><stop offset=".51" stop-color="#EAD98B"/><stop offset="1" stop-color="#B47E11"/></linearGradient><linearGradient id="ay" x1="-285.756" y1="3754.67" x2="13507.9" y2="3754.67" gradientUnits="userSpaceOnUse"><stop stop-color="#B47E11"/><stop offset=".51" stop-color="#EAD98B"/><stop offset="1" stop-color="#B47E11"/></linearGradient><linearGradient id="az" x1="-238.404" y1="4229.97" x2="12431.1" y2="4229.97" gradientUnits="userSpaceOnUse"><stop stop-color="#B47E11"/><stop offset=".51" stop-color="#EAD98B"/><stop offset="1" stop-color="#B47E11"/></linearGradient><linearGradient id="aA" x1="-185.944" y1="4668.01" x2="11233.1" y2="4668.01" gradientUnits="userSpaceOnUse"><stop stop-color="#B47E11"/><stop offset=".51" stop-color="#EAD98B"/><stop offset="1" stop-color="#B47E11"/></linearGradient><linearGradient id="aB" x1="-127.032" y1="5062.47" x2="9896.26" y2="5062.47" gradientUnits="userSpaceOnUse"><stop stop-color="#B47E11"/><stop offset=".51" stop-color="#EAD98B"/><stop offset="1" stop-color="#B47E11"/></linearGradient><linearGradient id="aC" x1="-63.567" y1="5393.85" x2="8455.34" y2="5393.85" gradientUnits="userSpaceOnUse"><stop stop-color="#B47E11"/><stop offset=".51" stop-color="#EAD98B"/><stop offset="1" stop-color="#B47E11"/></linearGradient><linearGradient id="aD" x1="2.612" y1="5675.47" x2="6944.58" y2="5675.47" gradientUnits="userSpaceOnUse"><stop stop-color="#B47E11"/><stop offset=".51" stop-color="#EAD98B"/><stop offset="1" stop-color="#B47E11"/></linearGradient><linearGradient id="aE" x1="73.909" y1="5894.34" x2="5330.25" y2="5894.34" gradientUnits="userSpaceOnUse"><stop stop-color="#B47E11"/><stop offset=".51" stop-color="#EAD98B"/><stop offset="1" stop-color="#B47E11"/></linearGradient><linearGradient id="aF" x1="145.308" y1="6050.59" x2="3697.9" y2="6050.59" gradientUnits="userSpaceOnUse"><stop stop-color="#B47E11"/><stop offset=".51" stop-color="#EAD98B"/><stop offset="1" stop-color="#B47E11"/></linearGradient><linearGradient id="aG" x1="219.257" y1="6150.87" x2="2013.66" y2="6150.87" gradientUnits="userSpaceOnUse"><stop stop-color="#B47E11"/><stop offset=".51" stop-color="#EAD98B"/><stop offset="1" stop-color="#B47E11"/></linearGradient></defs></svg>