<svg width="252" height="265" fill="none" xmlns="http://www.w3.org/2000/svg"><path d="M229.152 214.654a1.973 1.973 0 1 0-.027-3.945 1.973 1.973 0 0 0 .027 3.945Z" fill="#E30611"/><path d="M229.129 215.206c-.497 0-.984-.148-1.398-.424a2.523 2.523 0 0 1-1.07-2.583 2.518 2.518 0 0 1 3.431-1.834 2.512 2.512 0 0 1 .816 4.103 2.521 2.521 0 0 1-1.779.738Zm0-3.946a1.437 1.437 0 0 0-1.319.884 1.432 1.432 0 0 0 .311 1.557 1.43 1.43 0 1 0 1.008-2.441Z" fill="#E30611"/><path fill-rule="evenodd" clip-rule="evenodd" d="M248.374 244.78a1.969 1.969 0 0 1-2.357 1.938 1.973 1.973 0 1 1 2.357-1.938Z" fill="#E30611"/><path d="M246.401 247.296a2.51 2.51 0 0 1-1.398-.424 2.508 2.508 0 0 1-1.07-2.583 2.518 2.518 0 0 1 3.432-1.833 2.516 2.516 0 0 1-.964 4.84Zm0-3.945a1.437 1.437 0 0 0-1.324.882 1.436 1.436 0 0 0 .309 1.56 1.434 1.434 0 0 0 2.203-.216 1.432 1.432 0 0 0-1.188-2.226Z" fill="#E30611"/><path fill-rule="evenodd" clip-rule="evenodd" d="M196.759 227.376a1.732 1.732 0 0 1-1.069 1.597 1.728 1.728 0 1 1 1.069-1.597Z" fill="#E30611"/><path d="M195.039 229.638a2.261 2.261 0 1 1 0-4.522 2.261 2.261 0 0 1 0 4.522Zm0-3.437a1.171 1.171 0 0 0-1.085.725 1.17 1.17 0 0 0 .254 1.281 1.178 1.178 0 0 0 1.808-.178 1.178 1.178 0 0 0-.977-1.828Z" fill="#E30611"/><path fill-rule="evenodd" clip-rule="evenodd" d="M217.213 54.016a1.725 1.725 0 0 1-1.06 1.602 1.73 1.73 0 0 1-2.362-1.254 1.727 1.727 0 0 1 1.694-2.068 1.722 1.722 0 0 1 1.728 1.72Z" fill="#E30611"/><path d="M215.494 56.278a2.261 2.261 0 1 1 0-4.523 2.261 2.261 0 0 1 0 4.523Zm0-3.44a1.178 1.178 0 1 0 0 2.357 1.178 1.178 0 0 0 0-2.356ZM15.867 203.895a2.793 2.793 0 1 0-5.585-.045 2.793 2.793 0 0 0 5.585.045Z" fill="#E30611"/><path d="M13.073 207.21a3.336 3.336 0 0 1-3.273-3.989 3.337 3.337 0 1 1 3.273 3.989Zm0-5.586a2.246 2.246 0 1 0 0 4.492 2.246 2.246 0 0 0 0-4.492Z" fill="#E30611"/><path fill-rule="evenodd" clip-rule="evenodd" d="M228.599 238.284a2.797 2.797 0 0 1-4.771 1.978 2.795 2.795 0 1 1 4.771-1.978Z" fill="#E30611"/><path d="M225.804 241.621a3.34 3.34 0 0 1-2.36-5.697 3.332 3.332 0 0 1 5.135.506 3.335 3.335 0 0 1-.416 4.213 3.344 3.344 0 0 1-2.359.978Zm0-5.587a2.245 2.245 0 0 0-2.203 2.685 2.248 2.248 0 0 0 4.071.81 2.248 2.248 0 0 0-1.868-3.495Z" fill="#E30611"/><path fill-rule="evenodd" clip-rule="evenodd" d="M11.06 258.013a2.44 2.44 0 0 1-1.51 2.257 2.446 2.446 0 0 1-2.662-.529 2.444 2.444 0 1 1 4.171-1.728Z" fill="#E30611"/><path d="M8.616 261.001a2.983 2.983 0 0 1-2.76-1.845 2.987 2.987 0 1 1 2.76 1.845Zm0-4.887a1.9 1.9 0 0 0-.371 3.765 1.903 1.903 0 0 0 2.272-1.864 1.902 1.902 0 0 0-1.901-1.901Z" fill="#E30611"/><path fill-rule="evenodd" clip-rule="evenodd" d="M243.108 52.132a2.44 2.44 0 0 1-2.921 2.4 2.442 2.442 0 0 1-1.783-3.334 2.445 2.445 0 0 1 4.704.934Z" fill="#E30611"/><path d="M240.663 55.12a2.987 2.987 0 1 1 0-5.974 2.987 2.987 0 0 1 0 5.974Zm0-4.89a1.901 1.901 0 1 0 0 3.803 1.901 1.901 0 0 0 0-3.802Z" fill="#E30611"/><path fill-rule="evenodd" clip-rule="evenodd" d="M212.672 36.38a2.795 2.795 0 1 1-5.59.002 2.795 2.795 0 0 1 5.59-.002Z" fill="#E30611"/><path d="M209.874 39.715a3.333 3.333 0 0 1-3.271-3.986 3.332 3.332 0 0 1 4.547-2.431 3.33 3.33 0 0 1 2.059 3.081 3.34 3.34 0 0 1-3.335 3.336Zm0-5.586a2.243 2.243 0 0 0-2.076 1.387 2.253 2.253 0 0 0 .487 2.449 2.247 2.247 0 1 0 1.589-3.836Z" fill="#E30611"/><path fill-rule="evenodd" clip-rule="evenodd" d="M27.121 229.788a3.208 3.208 0 1 1-6.415-.01 3.208 3.208 0 0 1 6.415.01Z" fill="#E30611"/><path d="M23.922 233.537a3.748 3.748 0 1 1 0-7.495 3.748 3.748 0 0 1 0 7.495Zm0-6.412a2.66 2.66 0 0 0-2.46 1.644 2.664 2.664 0 0 0 4.675 2.499 2.664 2.664 0 0 0-2.215-4.143Z" fill="#E30611"/><path d="M247.121 206.512a3.206 3.206 0 1 0-6.411-.045 3.206 3.206 0 0 0 6.411.045Z" fill="#312C93"/><path d="M243.919 210.248a3.752 3.752 0 0 1-3.678-4.483 3.753 3.753 0 0 1 2.947-2.946 3.756 3.756 0 0 1 3.85 1.596 3.754 3.754 0 0 1-3.119 5.833Zm0-6.412a2.662 2.662 0 0 0-.52 5.275 2.667 2.667 0 0 0 2.734-1.132 2.661 2.661 0 0 0-.331-3.362c-.5-.5-1.177-.78-1.883-.781Z" fill="#312C93"/><path d="M215.536 217.159a2.792 2.792 0 1 0-5.584-.044 2.792 2.792 0 0 0 5.584.044Z" fill="#E30611"/><path fill-rule="evenodd" clip-rule="evenodd" d="M171.788 241.092a1.745 1.745 0 1 1-3.49.001 1.745 1.745 0 0 1 3.49-.001Z" fill="#E30611"/><path d="M170.043 243.372a2.286 2.286 0 0 1-2.248-2.736 2.294 2.294 0 0 1 1.8-1.8 2.287 2.287 0 0 1 2.351.975 2.293 2.293 0 0 1-1.903 3.561Zm0-3.491a1.21 1.21 0 1 0 0 2.416 1.21 1.21 0 0 0 0-2.414v-.002Z" fill="#E30611"/><path fill-rule="evenodd" clip-rule="evenodd" d="M13.662 233.887a2.007 2.007 0 0 1-2.395 1.969 2.007 2.007 0 0 1-.724-3.634 2.006 2.006 0 0 1 3.119 1.665Z" fill="#E30611"/><path d="M11.652 236.435a2.547 2.547 0 1 1 0-5.093 2.547 2.547 0 0 1 0 5.093Zm0-4.008a1.464 1.464 0 0 0-1.35.902 1.458 1.458 0 0 0 1.065 1.991 1.465 1.465 0 0 0 1.745-1.433 1.463 1.463 0 0 0-1.46-1.46Z" fill="#E30611"/><path fill-rule="evenodd" clip-rule="evenodd" d="M61.49 241.638a1.75 1.75 0 0 1-2.087 1.716 1.75 1.75 0 0 1-.63-3.167 1.75 1.75 0 0 1 2.207.217c.327.327.51.771.51 1.234Z" fill="#312C93"/><path d="M59.745 243.926a2.288 2.288 0 0 1-.448-4.535 2.288 2.288 0 0 1 2.065 3.864 2.287 2.287 0 0 1-1.617.671Zm0-3.49a1.21 1.21 0 1 0 .001 2.418 1.21 1.21 0 0 0 0-2.418Z" fill="#312C93"/><path fill-rule="evenodd" clip-rule="evenodd" d="M250.989 87.032a1.75 1.75 0 0 1-2.088 1.716 1.75 1.75 0 0 1-1.273-2.383 1.747 1.747 0 0 1 3.361.667Z" fill="#312C93"/><path d="M249.243 89.322a2.291 2.291 0 1 1-.001-4.582 2.291 2.291 0 0 1 .001 4.582Zm0-3.49a1.214 1.214 0 0 0-1.118.748 1.207 1.207 0 0 0 .266 1.32 1.212 1.212 0 0 0 1.863-.193 1.214 1.214 0 0 0-.158-1.525 1.21 1.21 0 0 0-.853-.35Z" fill="#312C93"/><path fill-rule="evenodd" clip-rule="evenodd" d="M25.768 46.937a1.72 1.72 0 1 1-3.44 0 1.72 1.72 0 0 1 3.44 0Z" fill="#E30611"/><path d="M24.048 49.199a2.262 2.262 0 1 1 0-4.524 2.262 2.262 0 0 1 0 4.524Zm0-3.437a1.175 1.175 0 1 0 .004 2.35 1.175 1.175 0 0 0-.004-2.35Z" fill="#E30611"/><path fill-rule="evenodd" clip-rule="evenodd" d="M38.612 225.423a1.73 1.73 0 1 1-3.459.02 1.73 1.73 0 0 1 3.459-.02Z" fill="#E30611"/><path d="M36.883 227.685a2.267 2.267 0 0 1-2.09-1.396 2.263 2.263 0 1 1 4.353-.866 2.263 2.263 0 0 1-2.263 2.262Zm0-3.437a1.173 1.173 0 0 0-1.088.725 1.18 1.18 0 0 0 .858 1.606c.228.045.465.022.68-.067a1.182 1.182 0 0 0 .726-1.089 1.177 1.177 0 0 0-1.175-1.175Z" fill="#E30611"/><path fill-rule="evenodd" clip-rule="evenodd" d="M7.358 83.3a1.728 1.728 0 1 1-3.457.017 1.728 1.728 0 0 1 3.457-.017Z" fill="#E30611"/><path d="M5.638 85.556a2.262 2.262 0 1 1 0-4.523 2.262 2.262 0 0 1 0 4.523Zm0-3.437a1.176 1.176 0 1 0 1.177 1.175 1.177 1.177 0 0 0-1.177-1.17v-.005Z" fill="#E30611"/><path fill-rule="evenodd" clip-rule="evenodd" d="M4.622 177.468a1.72 1.72 0 1 1-3.439 0 1.72 1.72 0 0 1 3.439 0Z" fill="#E30611"/><path d="M2.902 179.73a2.266 2.266 0 0 1-2.09-1.397 2.262 2.262 0 1 1 2.09 1.397Zm0-3.437a1.174 1.174 0 1 0 .98 1.827 1.173 1.173 0 0 0 .11-1.104 1.174 1.174 0 0 0-1.09-.73v.007Zm220.357 85.834a1.975 1.975 0 0 0-3.947-.026 1.973 1.973 0 1 0 3.947.026Z" fill="#E30611"/><path d="M221.28 264.621a2.512 2.512 0 0 1-2.325-1.553 2.522 2.522 0 0 1 .546-2.742 2.515 2.515 0 1 1 1.779 4.295Zm0-3.945a1.437 1.437 0 0 0-1.324.882 1.44 1.44 0 0 0 .31 1.561 1.436 1.436 0 0 0 1.561.309 1.432 1.432 0 0 0-.547-2.752Z" fill="#E30611"/><path fill-rule="evenodd" clip-rule="evenodd" d="M246.579 181.736a1.974 1.974 0 1 1-3.948 0 1.974 1.974 0 0 1 3.948 0Z" fill="#E30611"/><path d="M244.61 184.253a2.514 2.514 0 0 1-2.324-1.554 2.512 2.512 0 0 1 1.833-3.43 2.512 2.512 0 0 1 3.007 2.467 2.514 2.514 0 0 1-2.516 2.517Zm0-3.946a1.431 1.431 0 0 0-1.402 1.708 1.438 1.438 0 0 0 1.123 1.123 1.432 1.432 0 0 0 1.468-.608 1.428 1.428 0 0 0-.179-1.804 1.433 1.433 0 0 0-1.01-.419Z" fill="#E30611"/><path fill-rule="evenodd" clip-rule="evenodd" d="M6.675 59.746a1.974 1.974 0 1 1-3.947 0 1.974 1.974 0 0 1 3.947 0Z" fill="#E30611"/><path d="M4.706 62.262a2.516 2.516 0 1 1 0-5.033 2.516 2.516 0 0 1 0 5.033Zm0-3.946a1.43 1.43 0 1 0 0 2.86 1.43 1.43 0 0 0 0-2.86Z" fill="#E30611"/><path fill-rule="evenodd" clip-rule="evenodd" d="M53.424 71.247a1.632 1.632 0 1 1-3.264 0 1.632 1.632 0 0 1 3.264 0Z" fill="#E30611"/><path d="M51.792 73.421a2.176 2.176 0 1 1-.003-4.351 2.176 2.176 0 0 1 .003 4.351Zm0-3.263a1.09 1.09 0 1 0 0 2.179 1.09 1.09 0 0 0 0-2.178Z" fill="#E30611"/><path fill-rule="evenodd" clip-rule="evenodd" d="M30.914 33.449a1.631 1.631 0 1 1-3.262-.014 1.631 1.631 0 0 1 3.262.014Z" fill="#312C93"/><path d="M29.28 35.623a2.174 2.174 0 1 1 0-4.348 2.174 2.174 0 0 1 0 4.348Zm0-3.263a1.089 1.089 0 1 0 0 2.177 1.089 1.089 0 0 0 0-2.177Z" fill="#312C93"/><path fill-rule="evenodd" clip-rule="evenodd" d="M97.795 41.626a1.631 1.631 0 1 1-3.262 0 1.631 1.631 0 0 1 3.262 0Z" fill="#E30611"/><path d="M96.16 43.802a2.175 2.175 0 1 1 .003-4.35 2.175 2.175 0 0 1-.003 4.35Zm0-3.263a1.089 1.089 0 1 0 0 2.178 1.089 1.089 0 0 0 0-2.178Z" fill="#E30611"/><path fill-rule="evenodd" clip-rule="evenodd" d="M90.578 247.569a1.632 1.632 0 1 1-3.263 0 1.632 1.632 0 0 1 3.263 0Z" fill="#E30611"/><path d="M88.947 249.744a2.181 2.181 0 0 1-2.008-1.344 2.173 2.173 0 1 1 2.008 1.344Zm0-3.262a1.087 1.087 0 0 0-1.068 1.302 1.087 1.087 0 0 0 1.485.793 1.093 1.093 0 0 0 .671-1.008 1.088 1.088 0 0 0-1.088-1.087Z" fill="#E30611"/><path fill-rule="evenodd" clip-rule="evenodd" d="M32.195 220.147a1.632 1.632 0 1 1-3.263 0 1.632 1.632 0 0 1 3.263 0Z" fill="#E30611"/><path d="M30.564 222.323a2.18 2.18 0 0 1-2.138-2.599 2.171 2.171 0 0 1 1.708-1.711 2.18 2.18 0 0 1 2.602 2.134 2.179 2.179 0 0 1-2.172 2.176Zm0-3.263a1.09 1.09 0 0 0-.211 2.157 1.093 1.093 0 0 0 1.117-.465 1.089 1.089 0 0 0-.906-1.692Z" fill="#E30611"/><path fill-rule="evenodd" clip-rule="evenodd" d="M26.552 117.412a1.628 1.628 0 0 1-1.007 1.507 1.627 1.627 0 0 1-1.778-.354 1.628 1.628 0 0 1-.353-1.777 1.633 1.633 0 0 1 3.139.624Z" fill="#312C93"/><path d="M24.921 119.586a2.178 2.178 0 0 1-2.136-2.6 2.174 2.174 0 0 1 1.71-1.71 2.174 2.174 0 0 1 2.6 2.136 2.178 2.178 0 0 1-2.174 2.174Zm0-3.263a1.086 1.086 0 0 0-1.006.672 1.089 1.089 0 1 0 2.013-.001 1.092 1.092 0 0 0-1.007-.676v.005Z" fill="#312C93"/><path d="M195.039 82.741a1.632 1.632 0 1 0-3.263-.022 1.632 1.632 0 0 0 3.263.022Z" fill="#E30611"/><path d="M193.394 84.9a2.176 2.176 0 1 1-.003-4.352 2.176 2.176 0 0 1 .003 4.352Zm0-3.263a1.09 1.09 0 1 0 0 2.179 1.09 1.09 0 0 0 0-2.179Z" fill="#E30611"/><path fill-rule="evenodd" clip-rule="evenodd" d="M188.23 180.513c0 .323-.095.638-.275.906a1.625 1.625 0 0 1-2.51.247 1.629 1.629 0 0 1-.353-1.777 1.63 1.63 0 0 1 3.138.624Z" fill="#E30611"/><path d="M186.599 182.689a2.175 2.175 0 1 1-.003-4.35 2.175 2.175 0 0 1 .003 4.35Zm0-3.263a1.092 1.092 0 0 0-1.006.672 1.086 1.086 0 0 0 .794 1.485 1.095 1.095 0 0 0 1.118-.465 1.092 1.092 0 0 0-.906-1.692ZM89.007 4.052a1.631 1.631 0 1 0 0-3.263 1.631 1.631 0 0 0 0 3.263Z" fill="#E30611"/><path d="M89.007 4.597a2.176 2.176 0 1 1-.004-4.352 2.176 2.176 0 0 1 .004 4.352Zm0-3.265a1.089 1.089 0 1 0 0 2.177 1.089 1.089 0 0 0 0-2.177Z" fill="#E30611"/><path fill-rule="evenodd" clip-rule="evenodd" d="M150.001 48.593a1.626 1.626 0 0 1-1.007 1.507 1.63 1.63 0 0 1-2.131-2.132 1.628 1.628 0 0 1 2.66-.53 1.625 1.625 0 0 1 .478 1.154Z" fill="#E30611"/><path d="M148.37 50.767a2.176 2.176 0 0 1-2.009-1.343 2.177 2.177 0 0 1 1.585-2.964 2.174 2.174 0 1 1 .424 4.306Zm0-3.263a1.09 1.09 0 0 0-.213 2.156 1.087 1.087 0 0 0 .982-1.837 1.09 1.09 0 0 0-.769-.32Z" fill="#E30611"/><path fill-rule="evenodd" clip-rule="evenodd" d="M166.096 12.745a1.634 1.634 0 0 1-1.95 1.6 1.632 1.632 0 1 1 1.95-1.6Z" fill="#E30611"/><path d="M164.464 14.92a2.177 2.177 0 1 1 0-4.355 2.177 2.177 0 0 1 0 4.354Zm0-3.264a1.092 1.092 0 0 0-1.006.672 1.09 1.09 0 1 0 1.006-.672Z" fill="#E30611"/><path fill-rule="evenodd" clip-rule="evenodd" d="M215.565 193.289a1.637 1.637 0 0 1-1.007 1.507 1.628 1.628 0 0 1-1.778-.353 1.633 1.633 0 0 1 .247-2.51 1.625 1.625 0 0 1 1.531-.151 1.615 1.615 0 0 1 .883.883c.082.198.124.41.124.624Z" fill="#E30611"/><path d="M213.933 195.468a2.172 2.172 0 0 1-2.01-1.343 2.18 2.18 0 0 1 .472-2.371 2.177 2.177 0 1 1 1.538 3.714Zm0-3.264a1.091 1.091 0 0 0-1.005.672 1.084 1.084 0 0 0 .236 1.187 1.087 1.087 0 0 0 1.186.236c.199-.083.369-.222.489-.401a1.097 1.097 0 0 0-.135-1.377 1.08 1.08 0 0 0-.771-.321v.004Z" fill="#E30611"/><path fill-rule="evenodd" clip-rule="evenodd" d="M86.01 206.807a1.628 1.628 0 0 1-1.007 1.507 1.627 1.627 0 0 1-1.778-.353 1.635 1.635 0 0 1-.353-1.778 1.63 1.63 0 0 1 3.138.624Z" fill="#E30611"/><path d="M84.379 208.981a2.173 2.173 0 1 1-.002-4.346 2.173 2.173 0 0 1 .002 4.346Zm0-3.263a1.087 1.087 0 0 0-.772 1.858 1.085 1.085 0 0 0 1.186.237 1.087 1.087 0 0 0 .354-1.775 1.09 1.09 0 0 0-.768-.32ZM46.82 234.354a1.631 1.631 0 1 0-.027-3.263 1.631 1.631 0 0 0 .028 3.263Z" fill="#E30611"/><path d="M46.819 234.895a2.177 2.177 0 0 1-1.541-3.714 2.173 2.173 0 0 1 3.348.329 2.178 2.178 0 0 1-1.807 3.385Zm0-3.264a1.086 1.086 0 0 0-1.07 1.3 1.092 1.092 0 0 0 .855.856 1.085 1.085 0 0 0 1.118-.463 1.087 1.087 0 0 0-.903-1.693Zm89.614-14.45a1.632 1.632 0 1 0 0-3.263 1.632 1.632 0 0 0 0 3.263Z" fill="#E30611"/><path d="M136.426 217.726a2.178 2.178 0 0 1-1.54-3.715 2.18 2.18 0 0 1 2.372-.471 2.169 2.169 0 0 1 1.342 2.012 2.176 2.176 0 0 1-2.174 2.174Zm0-3.263a1.085 1.085 0 0 0-1.069 1.3 1.087 1.087 0 0 0 2.156-.211 1.09 1.09 0 0 0-1.087-1.089Z" fill="#E30611"/><path fill-rule="evenodd" clip-rule="evenodd" d="M211.032 221.737a1.633 1.633 0 0 1-1.95 1.6 1.634 1.634 0 0 1-1.189-2.225 1.633 1.633 0 0 1 3.139.625Z" fill="#E30611"/><path d="M209.4 223.909a2.178 2.178 0 0 1-2.135-2.6 2.17 2.17 0 0 1 1.71-1.71 2.17 2.17 0 0 1 2.233.927 2.174 2.174 0 0 1-1.808 3.383Zm0-3.263a1.086 1.086 0 0 0-1.069 1.3 1.082 1.082 0 0 0 1.484.795 1.09 1.09 0 0 0-.415-2.095Z" fill="#E30611"/><path fill-rule="evenodd" clip-rule="evenodd" d="M203.198 145.058a1.633 1.633 0 0 1-1.95 1.6 1.634 1.634 0 0 1-1.189-2.225 1.636 1.636 0 0 1 1.508-1.007 1.631 1.631 0 0 1 1.631 1.632Z" fill="#E30611"/><path d="M201.567 147.232a2.178 2.178 0 0 1-2.012-1.343 2.172 2.172 0 0 1 .471-2.372 2.183 2.183 0 0 1 2.372-.471 2.177 2.177 0 0 1-.831 4.186Zm0-3.263a1.092 1.092 0 0 0-1.006.672 1.084 1.084 0 0 0 .236 1.186 1.092 1.092 0 0 0 1.675-.164 1.085 1.085 0 0 0-.905-1.694Zm47.813-2.19a1.632 1.632 0 1 0-3.263-.025 1.632 1.632 0 0 0 3.263.025Z" fill="#E30611"/><path d="M247.738 143.934a2.17 2.17 0 0 1-2.011-1.342 2.18 2.18 0 0 1 .47-2.371 2.175 2.175 0 1 1 1.541 3.713Zm0-3.262a1.086 1.086 0 0 0-.769 1.859 1.09 1.09 0 0 0 1.858-.772 1.087 1.087 0 0 0-1.089-1.087Z" fill="#E30611"/><path fill-rule="evenodd" clip-rule="evenodd" d="M182.175 71.266a1.634 1.634 0 0 1-1.95 1.6 1.631 1.631 0 1 1 1.95-1.6Z" fill="#312C93"/><path d="M180.543 73.44a2.175 2.175 0 1 1-.003-4.35 2.175 2.175 0 0 1 .003 4.35Zm0-3.263a1.088 1.088 0 1 0-.004 2.18 1.088 1.088 0 0 0 .004-2.181v.001Z" fill="#312C93"/><path fill-rule="evenodd" clip-rule="evenodd" d="M102.686 37.686a1.22 1.22 0 0 1-.756 1.13 1.223 1.223 0 1 1 .756-1.13Z" fill="#312C93"/><path d="M101.462 39.46a1.768 1.768 0 1 1-.004-3.535 1.768 1.768 0 0 1 .004 3.536Zm0-2.446a.68.68 0 1 0-.004 1.36.68.68 0 0 0 .004-1.36Z" fill="#312C93"/><path fill-rule="evenodd" clip-rule="evenodd" d="M50.052 22.502a1.224 1.224 0 1 1-2.448 0 1.224 1.224 0 0 1 2.448 0Z" fill="#E30611"/><path d="M48.829 24.268a1.766 1.766 0 1 1 0-3.531 1.766 1.766 0 0 1 0 3.532Zm0-2.447a.681.681 0 1 0 0 1.362.681.681 0 0 0 0-1.362Z" fill="#E30611"/><path fill-rule="evenodd" clip-rule="evenodd" d="M53.177 64.079a1.224 1.224 0 1 1-2.447 0 1.224 1.224 0 0 1 2.447 0Z" fill="#E30611"/><path d="M51.953 65.855a1.769 1.769 0 1 1-.003-3.538 1.769 1.769 0 0 1 .003 3.538Zm0-2.447a.68.68 0 1 0 .681.68.681.681 0 0 0-.68-.689v.01Z" fill="#E30611"/><path fill-rule="evenodd" clip-rule="evenodd" d="M72.935 239.461a1.226 1.226 0 0 1-1.462 1.2 1.223 1.223 0 1 1 1.462-1.2Z" fill="#E30611"/><path d="M71.711 241.227a1.772 1.772 0 0 1-1.634-1.09 1.77 1.77 0 0 1 1.288-2.412 1.77 1.77 0 0 1 1.595 2.984c-.331.331-.78.518-1.249.518Zm0-2.447a.68.68 0 1 0-.003 1.362.68.68 0 0 0 .003-1.362Z" fill="#E30611"/><path fill-rule="evenodd" clip-rule="evenodd" d="M157.032 202.359a1.223 1.223 0 1 1-2.445-.001 1.223 1.223 0 0 1 2.445.001Z" fill="#E30611"/><path d="M155.808 204.125a1.766 1.766 0 1 1 .001-3.532 1.766 1.766 0 0 1-.001 3.532Zm0-2.447a.678.678 0 0 0-.629.42.681.681 0 1 0 .629-.42Z" fill="#E30611"/><path fill-rule="evenodd" clip-rule="evenodd" d="M190.423 231.216a1.222 1.222 0 0 1-2.088.865 1.221 1.221 0 0 1 .865-2.089 1.223 1.223 0 0 1 1.223 1.224Z" fill="#E30611"/><path d="M189.2 232.982a1.77 1.77 0 0 1-1.733-2.111 1.775 1.775 0 0 1 1.388-1.388 1.767 1.767 0 1 1 .345 3.499Zm0-2.447a.681.681 0 1 0 0 1.363.681.681 0 0 0 0-1.363Z" fill="#E30611"/><path fill-rule="evenodd" clip-rule="evenodd" d="M39.486 169.179a1.632 1.632 0 1 1-3.265 0 1.632 1.632 0 0 1 3.265 0Z" fill="#E30611"/><path d="M37.855 171.355a2.176 2.176 0 1 1-.002-4.352 2.176 2.176 0 0 1 .002 4.352Zm0-3.263a1.087 1.087 0 0 0-1.006.673 1.088 1.088 0 1 0 1.006-.673Z" fill="#E30611"/><path fill-rule="evenodd" clip-rule="evenodd" d="M169.027 244.327a1.634 1.634 0 0 1-1.007 1.508 1.636 1.636 0 0 1-2.225-1.189 1.636 1.636 0 0 1 .694-1.675 1.633 1.633 0 0 1 2.538 1.356Z" fill="#E30611"/><path d="M167.395 246.501a2.17 2.17 0 0 1-2.011-1.342 2.173 2.173 0 0 1 .471-2.372 2.18 2.18 0 0 1 2.372-.471 2.169 2.169 0 0 1 1.342 2.011 2.17 2.17 0 0 1-.637 1.537 2.17 2.17 0 0 1-1.537.637Zm0-3.262a1.083 1.083 0 0 0-1.005.672 1.084 1.084 0 0 0 .236 1.186 1.082 1.082 0 0 0 1.186.236 1.09 1.09 0 0 0-.417-2.094Z" fill="#E30611"/><path fill-rule="evenodd" clip-rule="evenodd" d="M121.986 209.384a1.633 1.633 0 0 1-1.95 1.6 1.634 1.634 0 0 1-1.189-2.225 1.633 1.633 0 0 1 3.139.625Z" fill="#312C93"/><path d="M120.354 211.559a2.172 2.172 0 0 1-2.01-1.343 2.178 2.178 0 0 1 3.82-2.041 2.175 2.175 0 0 1-1.81 3.384Zm0-3.262c-.215 0-.426.064-.605.183a1.092 1.092 0 0 0 .394 1.973 1.092 1.092 0 0 0 1.118-.464 1.085 1.085 0 0 0 .099-1.022 1.078 1.078 0 0 0-.589-.588 1.066 1.066 0 0 0-.417-.082Z" fill="#312C93"/><path d="M247.453 123.664a1.632 1.632 0 1 0-.005-3.263 1.632 1.632 0 0 0 .005 3.263Z" fill="#E30611"/><path d="M247.458 124.192a2.175 2.175 0 1 1 1.81-3.38 2.176 2.176 0 0 1-1.81 3.38Zm0-3.263c-.215 0-.425.064-.605.183a1.092 1.092 0 0 0 .393 1.973 1.084 1.084 0 0 0 1.118-.463 1.091 1.091 0 0 0-.136-1.374 1.09 1.09 0 0 0-.77-.319Z" fill="#E30611"/><path fill-rule="evenodd" clip-rule="evenodd" d="M236.977 79.18a1.634 1.634 0 0 1-1.95 1.6 1.633 1.633 0 1 1 1.95-1.6Z" fill="#E30611"/><path d="M235.345 81.353a2.175 2.175 0 1 1 .012-4.35 2.175 2.175 0 0 1-.012 4.35Zm0-3.262a1.087 1.087 0 0 0-1.067 1.3 1.084 1.084 0 0 0 .855.856 1.088 1.088 0 1 0 .212-2.156Z" fill="#E30611"/></svg>