<svg width="252" height="265" fill="none" xmlns="http://www.w3.org/2000/svg"><path fill-rule="evenodd" clip-rule="evenodd" d="M217.213 54.016a1.725 1.725 0 0 1-1.06 1.602 1.73 1.73 0 0 1-2.362-1.254 1.727 1.727 0 0 1 1.694-2.068 1.722 1.722 0 0 1 1.728 1.72Z" fill="url(#a)"/><path d="M215.494 56.278a2.261 2.261 0 1 1 0-4.523 2.261 2.261 0 0 1 0 4.523Zm0-3.44a1.178 1.178 0 1 0 0 2.357 1.178 1.178 0 0 0 0-2.356Z" fill="url(#b)"/><path d="M15.867 203.895a2.793 2.793 0 1 0-5.585-.045 2.793 2.793 0 0 0 5.585.045Z" fill="#E30611"/><path d="M13.073 207.21a3.336 3.336 0 0 1-3.273-3.989 3.337 3.337 0 1 1 3.273 3.989Zm0-5.586a2.246 2.246 0 1 0 0 4.492 2.246 2.246 0 0 0 0-4.492Z" fill="#E30611"/><path fill-rule="evenodd" clip-rule="evenodd" d="M228.599 238.284a2.797 2.797 0 0 1-4.771 1.978 2.795 2.795 0 1 1 4.771-1.978Z" fill="url(#c)"/><path d="M225.804 241.621a3.34 3.34 0 0 1-2.36-5.697 3.332 3.332 0 0 1 5.135.506 3.335 3.335 0 0 1-.416 4.213 3.344 3.344 0 0 1-2.359.978Zm0-5.587a2.245 2.245 0 0 0-2.203 2.685 2.248 2.248 0 0 0 4.071.81 2.248 2.248 0 0 0-1.868-3.495Z" fill="url(#d)"/><path fill-rule="evenodd" clip-rule="evenodd" d="M11.06 258.013a2.44 2.44 0 0 1-1.51 2.257 2.446 2.446 0 0 1-2.662-.529 2.444 2.444 0 1 1 4.171-1.728Z" fill="#E30611"/><path d="M8.616 261.001a2.983 2.983 0 0 1-2.76-1.845 2.987 2.987 0 1 1 2.76 1.845Zm0-4.887a1.9 1.9 0 0 0-.371 3.765 1.903 1.903 0 0 0 2.272-1.864 1.902 1.902 0 0 0-1.901-1.901Z" fill="#E30611"/><path fill-rule="evenodd" clip-rule="evenodd" d="M243.108 52.132a2.44 2.44 0 0 1-2.921 2.4 2.442 2.442 0 0 1-1.783-3.334 2.445 2.445 0 0 1 4.704.934Z" fill="url(#e)"/><path d="M240.663 55.12a2.987 2.987 0 1 1 0-5.974 2.987 2.987 0 0 1 0 5.974Zm0-4.89a1.901 1.901 0 1 0 0 3.803 1.901 1.901 0 0 0 0-3.802Z" fill="url(#f)"/><path fill-rule="evenodd" clip-rule="evenodd" d="M212.672 36.38a2.795 2.795 0 1 1-5.59.002 2.795 2.795 0 0 1 5.59-.002Z" fill="url(#g)"/><path d="M209.874 39.715a3.333 3.333 0 0 1-3.271-3.986 3.332 3.332 0 0 1 4.547-2.431 3.33 3.33 0 0 1 2.059 3.081 3.34 3.34 0 0 1-3.335 3.336Zm0-5.586a2.243 2.243 0 0 0-2.076 1.387 2.253 2.253 0 0 0 .487 2.449 2.247 2.247 0 1 0 1.589-3.836Z" fill="url(#h)"/><path fill-rule="evenodd" clip-rule="evenodd" d="M27.121 229.788a3.208 3.208 0 1 1-6.415-.01 3.208 3.208 0 0 1 6.415.01Z" fill="url(#i)"/><path d="M23.922 233.537a3.748 3.748 0 1 1 0-7.495 3.748 3.748 0 0 1 0 7.495Zm0-6.412a2.66 2.66 0 0 0-2.46 1.644 2.664 2.664 0 0 0 4.675 2.499 2.664 2.664 0 0 0-2.215-4.143Z" fill="url(#j)"/><path d="M247.121 206.512a3.206 3.206 0 1 0-6.411-.045 3.206 3.206 0 0 0 6.411.045Z" fill="#312C93"/><path d="M243.919 210.248a3.752 3.752 0 0 1-3.678-4.483 3.753 3.753 0 0 1 2.947-2.946 3.756 3.756 0 0 1 3.85 1.596 3.754 3.754 0 0 1-3.119 5.833Zm0-6.412a2.662 2.662 0 0 0-.52 5.275 2.667 2.667 0 0 0 2.734-1.132 2.661 2.661 0 0 0-.331-3.362c-.5-.5-1.177-.78-1.883-.781Z" fill="#312C93"/><path d="M215.536 217.159a2.792 2.792 0 1 0-5.584-.044 2.792 2.792 0 0 0 5.584.044Z" fill="#E30611"/><path fill-rule="evenodd" clip-rule="evenodd" d="M171.788 241.092a1.745 1.745 0 1 1-3.49.001 1.745 1.745 0 0 1 3.49-.001Z" fill="url(#k)"/><path d="M170.043 243.372a2.286 2.286 0 0 1-2.248-2.736 2.294 2.294 0 0 1 1.8-1.8 2.287 2.287 0 0 1 2.351.975 2.293 2.293 0 0 1-1.903 3.561Zm0-3.491a1.21 1.21 0 1 0 0 2.416 1.21 1.21 0 0 0 0-2.414v-.002Z" fill="url(#l)"/><path fill-rule="evenodd" clip-rule="evenodd" d="M13.662 233.887a2.007 2.007 0 0 1-2.395 1.969 2.007 2.007 0 0 1-.724-3.634 2.006 2.006 0 0 1 3.119 1.665Z" fill="url(#m)"/><path d="M11.652 236.435a2.547 2.547 0 1 1 0-5.093 2.547 2.547 0 0 1 0 5.093Zm0-4.008a1.464 1.464 0 0 0-1.35.902 1.458 1.458 0 0 0 1.065 1.991 1.465 1.465 0 0 0 1.745-1.433 1.463 1.463 0 0 0-1.46-1.46Z" fill="url(#n)"/><path fill-rule="evenodd" clip-rule="evenodd" d="M61.491 241.638a1.75 1.75 0 0 1-2.088 1.716 1.75 1.75 0 0 1-.63-3.167 1.749 1.749 0 0 1 2.207.217c.327.327.511.771.511 1.234Z" fill="#312C93"/><path d="M59.745 243.926a2.288 2.288 0 0 1-.448-4.535 2.288 2.288 0 0 1 2.065 3.864 2.287 2.287 0 0 1-1.617.671Zm0-3.49a1.211 1.211 0 0 0-.236 2.396 1.213 1.213 0 0 0 1.446-1.187 1.209 1.209 0 0 0-1.21-1.209Z" fill="#312C93"/><path fill-rule="evenodd" clip-rule="evenodd" d="M250.989 87.032a1.75 1.75 0 0 1-2.088 1.716 1.75 1.75 0 0 1-1.273-2.383 1.747 1.747 0 0 1 3.361.667Z" fill="#312C93"/><path d="M249.243 89.322a2.291 2.291 0 1 1-.001-4.582 2.291 2.291 0 0 1 .001 4.582Zm0-3.49a1.214 1.214 0 0 0-1.118.748 1.207 1.207 0 0 0 .266 1.32 1.212 1.212 0 0 0 1.863-.193 1.214 1.214 0 0 0-.158-1.525 1.21 1.21 0 0 0-.853-.35Z" fill="#312C93"/><path fill-rule="evenodd" clip-rule="evenodd" d="M25.768 46.937a1.72 1.72 0 1 1-3.44 0 1.72 1.72 0 0 1 3.44 0Z" fill="url(#o)"/><path d="M24.048 49.199a2.262 2.262 0 1 1 0-4.524 2.262 2.262 0 0 1 0 4.524Zm0-3.437a1.175 1.175 0 1 0 .004 2.35 1.175 1.175 0 0 0-.004-2.35Z" fill="url(#p)"/><path fill-rule="evenodd" clip-rule="evenodd" d="M38.612 225.423a1.73 1.73 0 1 1-3.459.02 1.73 1.73 0 0 1 3.459-.02Z" fill="url(#q)"/><path d="M36.883 227.685a2.267 2.267 0 0 1-2.09-1.396 2.263 2.263 0 1 1 4.353-.866 2.263 2.263 0 0 1-2.263 2.262Zm0-3.437a1.173 1.173 0 0 0-1.088.725 1.18 1.18 0 0 0 .858 1.606c.228.045.465.022.68-.067a1.182 1.182 0 0 0 .726-1.089 1.177 1.177 0 0 0-1.175-1.175Z" fill="url(#r)"/><path fill-rule="evenodd" clip-rule="evenodd" d="M7.358 83.3a1.728 1.728 0 1 1-3.457.017 1.728 1.728 0 0 1 3.457-.017Z" fill="url(#s)"/><path d="M5.638 85.556a2.262 2.262 0 1 1 0-4.523 2.262 2.262 0 0 1 0 4.523Zm0-3.437a1.176 1.176 0 1 0 1.177 1.175 1.177 1.177 0 0 0-1.177-1.17v-.005Z" fill="url(#t)"/><path fill-rule="evenodd" clip-rule="evenodd" d="M4.622 177.468a1.72 1.72 0 1 1-3.439 0 1.72 1.72 0 0 1 3.439 0Z" fill="url(#u)"/><path d="M2.902 179.73a2.266 2.266 0 0 1-2.09-1.397 2.262 2.262 0 1 1 2.09 1.397Zm0-3.437a1.174 1.174 0 1 0 .98 1.827 1.173 1.173 0 0 0 .11-1.104 1.174 1.174 0 0 0-1.09-.73v.007Z" fill="url(#v)"/><path d="M223.259 262.127a1.975 1.975 0 0 0-3.947-.026 1.973 1.973 0 1 0 3.947.026Z" fill="#E30611"/><path d="M221.28 264.621a2.512 2.512 0 0 1-2.325-1.553 2.522 2.522 0 0 1 .546-2.742 2.515 2.515 0 1 1 1.779 4.295Zm0-3.945a1.437 1.437 0 0 0-1.324.882 1.44 1.44 0 0 0 .31 1.561 1.436 1.436 0 0 0 1.561.309 1.432 1.432 0 0 0-.547-2.752Z" fill="#E30611"/><path fill-rule="evenodd" clip-rule="evenodd" d="M246.579 181.736a1.974 1.974 0 1 1-3.948 0 1.974 1.974 0 0 1 3.948 0Z" fill="#E30611"/><path d="M244.61 184.253a2.514 2.514 0 0 1-2.324-1.554 2.512 2.512 0 0 1 1.833-3.43 2.512 2.512 0 0 1 3.007 2.467 2.514 2.514 0 0 1-2.516 2.517Zm0-3.946a1.431 1.431 0 0 0-1.402 1.708 1.438 1.438 0 0 0 1.123 1.123 1.432 1.432 0 0 0 1.468-.608 1.428 1.428 0 0 0-.179-1.804 1.433 1.433 0 0 0-1.01-.419Z" fill="#E30611"/><path fill-rule="evenodd" clip-rule="evenodd" d="M6.675 59.746a1.974 1.974 0 1 1-3.947 0 1.974 1.974 0 0 1 3.947 0Z" fill="#E30611"/><path d="M4.706 62.262a2.516 2.516 0 1 1 0-5.033 2.516 2.516 0 0 1 0 5.033Zm0-3.946a1.43 1.43 0 1 0 0 2.86 1.43 1.43 0 0 0 0-2.86Z" fill="#E30611"/><path d="M229.152 214.654a1.973 1.973 0 1 0-.027-3.945 1.973 1.973 0 0 0 .027 3.945Z" fill="url(#w)"/><path d="M229.129 215.206c-.497 0-.984-.148-1.398-.424a2.523 2.523 0 0 1-1.07-2.583 2.518 2.518 0 0 1 3.431-1.834 2.512 2.512 0 0 1 .816 4.103 2.521 2.521 0 0 1-1.779.738Zm0-3.946a1.437 1.437 0 0 0-1.319.884 1.432 1.432 0 0 0 .311 1.557 1.43 1.43 0 1 0 1.008-2.441Z" fill="url(#x)"/><path fill-rule="evenodd" clip-rule="evenodd" d="M248.374 244.78a1.969 1.969 0 0 1-2.357 1.938 1.973 1.973 0 1 1 2.357-1.938Z" fill="url(#y)"/><path d="M246.401 247.296a2.51 2.51 0 0 1-1.398-.424 2.508 2.508 0 0 1-1.07-2.583 2.518 2.518 0 0 1 3.432-1.833 2.516 2.516 0 0 1-.964 4.84Zm0-3.945a1.437 1.437 0 0 0-1.324.882 1.436 1.436 0 0 0 .309 1.56 1.434 1.434 0 0 0 2.203-.216 1.432 1.432 0 0 0-1.188-2.226Z" fill="url(#z)"/><path fill-rule="evenodd" clip-rule="evenodd" d="M196.759 227.376a1.732 1.732 0 0 1-1.069 1.597 1.728 1.728 0 1 1 1.069-1.597Z" fill="url(#A)"/><path d="M195.039 229.638a2.261 2.261 0 1 1 0-4.522 2.261 2.261 0 0 1 0 4.522Zm0-3.437a1.171 1.171 0 0 0-1.085.725 1.17 1.17 0 0 0 .254 1.281 1.178 1.178 0 0 0 1.808-.178 1.178 1.178 0 0 0-.977-1.828Z" fill="url(#B)"/><path fill-rule="evenodd" clip-rule="evenodd" d="M53.424 71.247a1.631 1.631 0 1 1-3.262 0 1.631 1.631 0 0 1 3.262 0Z" fill="url(#C)"/><path d="M51.792 73.421a2.176 2.176 0 1 1-.003-4.351 2.176 2.176 0 0 1 .003 4.351Zm0-3.263a1.09 1.09 0 1 0 0 2.179 1.09 1.09 0 0 0 0-2.178Z" fill="url(#D)"/><path fill-rule="evenodd" clip-rule="evenodd" d="M30.914 33.449a1.631 1.631 0 1 1-3.262-.014 1.631 1.631 0 0 1 3.262.014Z" fill="#312C93"/><path d="M29.28 35.623a2.174 2.174 0 1 1 0-4.349 2.174 2.174 0 0 1 0 4.349Zm0-3.263a1.089 1.089 0 1 0 0 2.177 1.089 1.089 0 0 0 0-2.177Z" fill="#312C93"/><path fill-rule="evenodd" clip-rule="evenodd" d="M97.795 41.626a1.631 1.631 0 1 1-3.262 0 1.631 1.631 0 0 1 3.262 0Z" fill="url(#E)"/><path d="M96.16 43.802a2.175 2.175 0 1 1 .003-4.35 2.175 2.175 0 0 1-.003 4.35Zm0-3.263a1.089 1.089 0 1 0 0 2.178 1.089 1.089 0 0 0 0-2.178Z" fill="url(#F)"/><path fill-rule="evenodd" clip-rule="evenodd" d="M90.578 247.569a1.632 1.632 0 1 1-3.263 0 1.632 1.632 0 0 1 3.263 0Z" fill="url(#G)"/><path d="M88.947 249.744a2.181 2.181 0 0 1-2.008-1.344 2.173 2.173 0 1 1 2.008 1.344Zm0-3.262a1.087 1.087 0 0 0-1.068 1.302 1.087 1.087 0 0 0 1.485.793 1.093 1.093 0 0 0 .671-1.008 1.088 1.088 0 0 0-1.088-1.087Z" fill="url(#H)"/><path fill-rule="evenodd" clip-rule="evenodd" d="M32.195 220.147a1.632 1.632 0 1 1-3.263 0 1.632 1.632 0 0 1 3.263 0Z" fill="url(#I)"/><path d="M30.564 222.323a2.18 2.18 0 0 1-2.138-2.599 2.171 2.171 0 0 1 1.708-1.711 2.179 2.179 0 0 1 2.602 2.134 2.179 2.179 0 0 1-2.172 2.176Zm0-3.263a1.094 1.094 0 0 0-1.006.672 1.09 1.09 0 0 0 .794 1.485 1.093 1.093 0 0 0 1.118-.465 1.088 1.088 0 0 0-.906-1.692Z" fill="url(#J)"/><path fill-rule="evenodd" clip-rule="evenodd" d="M26.552 117.412a1.628 1.628 0 0 1-1.007 1.507 1.627 1.627 0 0 1-1.778-.354 1.628 1.628 0 0 1-.353-1.777 1.633 1.633 0 0 1 3.139.624Z" fill="#312C93"/><path d="M24.921 119.586a2.178 2.178 0 0 1-2.136-2.6 2.174 2.174 0 0 1 1.71-1.71 2.174 2.174 0 0 1 2.6 2.136 2.178 2.178 0 0 1-2.174 2.174Zm0-3.263a1.086 1.086 0 0 0-1.006.672 1.089 1.089 0 1 0 2.013-.001 1.092 1.092 0 0 0-1.007-.676v.005Z" fill="#312C93"/><path d="M195.039 82.741a1.632 1.632 0 1 0-3.263-.022 1.632 1.632 0 0 0 3.263.022Z" fill="#E30611"/><path d="M193.394 84.9a2.176 2.176 0 1 1-.003-4.352 2.176 2.176 0 0 1 .003 4.352Zm0-3.263a1.09 1.09 0 1 0 0 2.179 1.09 1.09 0 0 0 0-2.179Z" fill="#E30611"/><path fill-rule="evenodd" clip-rule="evenodd" d="M188.23 180.513c0 .323-.095.638-.275.906a1.625 1.625 0 0 1-2.51.247 1.629 1.629 0 0 1-.353-1.777 1.63 1.63 0 0 1 3.138.624Z" fill="#E30611"/><path d="M186.599 182.689a2.175 2.175 0 1 1-.003-4.35 2.175 2.175 0 0 1 .003 4.35Zm0-3.263a1.092 1.092 0 0 0-1.006.672 1.086 1.086 0 0 0 .794 1.485 1.095 1.095 0 0 0 1.118-.465 1.092 1.092 0 0 0-.906-1.692ZM89.007 4.052a1.631 1.631 0 1 0 0-3.263 1.631 1.631 0 0 0 0 3.263Z" fill="#E30611"/><path d="M89.007 4.597a2.176 2.176 0 1 1-.004-4.352 2.176 2.176 0 0 1 .004 4.352Zm0-3.265a1.089 1.089 0 1 0 0 2.177 1.089 1.089 0 0 0 0-2.177Z" fill="#E30611"/><path fill-rule="evenodd" clip-rule="evenodd" d="M150.001 48.593a1.626 1.626 0 0 1-1.007 1.507 1.63 1.63 0 0 1-2.131-2.132 1.628 1.628 0 0 1 2.66-.53 1.625 1.625 0 0 1 .478 1.154Z" fill="url(#K)"/><path d="M148.37 50.767a2.176 2.176 0 0 1-2.009-1.343 2.177 2.177 0 0 1 1.585-2.964 2.174 2.174 0 1 1 .424 4.306Zm0-3.263a1.09 1.09 0 0 0-.213 2.156 1.087 1.087 0 0 0 .982-1.837 1.09 1.09 0 0 0-.769-.32Z" fill="url(#L)"/><path fill-rule="evenodd" clip-rule="evenodd" d="M166.096 12.745a1.634 1.634 0 0 1-1.95 1.6 1.632 1.632 0 1 1 1.95-1.6Z" fill="#E30611"/><path d="M164.464 14.92a2.177 2.177 0 1 1 0-4.355 2.177 2.177 0 0 1 0 4.354Zm0-3.264a1.092 1.092 0 0 0-1.006.672 1.09 1.09 0 1 0 1.006-.672Z" fill="#E30611"/><path fill-rule="evenodd" clip-rule="evenodd" d="M215.565 193.289a1.637 1.637 0 0 1-1.007 1.507 1.628 1.628 0 0 1-1.778-.353 1.633 1.633 0 0 1 .247-2.51 1.625 1.625 0 0 1 1.531-.151 1.615 1.615 0 0 1 .883.883c.082.198.124.41.124.624Z" fill="url(#M)"/><path d="M213.933 195.468a2.172 2.172 0 0 1-2.01-1.343 2.18 2.18 0 0 1 .472-2.371 2.177 2.177 0 1 1 1.538 3.714Zm0-3.264a1.091 1.091 0 0 0-1.005.672 1.084 1.084 0 0 0 .236 1.187 1.087 1.087 0 0 0 1.186.236c.199-.083.369-.222.489-.401a1.097 1.097 0 0 0-.135-1.377 1.08 1.08 0 0 0-.771-.321v.004Z" fill="url(#N)"/><path fill-rule="evenodd" clip-rule="evenodd" d="M86.01 206.807a1.628 1.628 0 0 1-1.007 1.507 1.627 1.627 0 0 1-1.778-.353 1.635 1.635 0 0 1-.353-1.778 1.63 1.63 0 0 1 3.138.624Z" fill="url(#O)"/><path d="M84.379 208.981a2.173 2.173 0 0 1-.424-4.306 2.177 2.177 0 0 1 2.232.924 2.176 2.176 0 0 1-.271 2.745c-.408.407-.96.637-1.537.637Zm0-3.263a1.087 1.087 0 0 0-1.07 1.3 1.085 1.085 0 0 0 .855.857 1.093 1.093 0 0 0 1.118-.463 1.09 1.09 0 0 0-.903-1.694Z" fill="url(#P)"/><path d="M46.82 234.354a1.631 1.631 0 1 0-.027-3.263 1.631 1.631 0 0 0 .028 3.263Z" fill="url(#Q)"/><path d="M46.819 234.895a2.177 2.177 0 0 1-1.541-3.714 2.173 2.173 0 0 1 3.348.329 2.178 2.178 0 0 1-1.807 3.385Zm0-3.264a1.086 1.086 0 0 0-1.07 1.3 1.092 1.092 0 0 0 .855.856 1.085 1.085 0 0 0 1.118-.463 1.087 1.087 0 0 0-.903-1.693Z" fill="url(#R)"/><path d="M136.433 217.181a1.632 1.632 0 1 0 0-3.263 1.632 1.632 0 0 0 0 3.263Z" fill="url(#S)"/><path d="M136.426 217.726a2.178 2.178 0 0 1-1.54-3.715 2.18 2.18 0 0 1 2.372-.471 2.169 2.169 0 0 1 1.342 2.012 2.176 2.176 0 0 1-2.174 2.174Zm0-3.263a1.085 1.085 0 0 0-1.069 1.3 1.087 1.087 0 0 0 2.156-.211 1.09 1.09 0 0 0-1.087-1.089Z" fill="url(#T)"/><path fill-rule="evenodd" clip-rule="evenodd" d="M211.032 221.737a1.633 1.633 0 0 1-1.95 1.6 1.634 1.634 0 0 1-1.189-2.225 1.633 1.633 0 0 1 3.139.625Z" fill="url(#U)"/><path d="M209.4 223.909a2.178 2.178 0 0 1-2.135-2.6 2.17 2.17 0 0 1 1.71-1.71 2.17 2.17 0 0 1 2.233.927 2.174 2.174 0 0 1-1.808 3.383Zm0-3.263a1.086 1.086 0 0 0-1.069 1.3 1.082 1.082 0 0 0 1.484.795 1.09 1.09 0 0 0-.415-2.095Z" fill="url(#V)"/><path fill-rule="evenodd" clip-rule="evenodd" d="M203.198 145.058a1.633 1.633 0 0 1-1.95 1.6 1.634 1.634 0 0 1-1.189-2.225 1.636 1.636 0 0 1 1.508-1.007 1.631 1.631 0 0 1 1.631 1.632Z" fill="url(#W)"/><path d="M201.567 147.232a2.178 2.178 0 0 1-2.012-1.343 2.172 2.172 0 0 1 .471-2.372 2.183 2.183 0 0 1 2.372-.471 2.177 2.177 0 0 1-.831 4.186Zm0-3.263a1.092 1.092 0 0 0-1.006.672 1.084 1.084 0 0 0 .236 1.186 1.092 1.092 0 0 0 1.675-.164 1.085 1.085 0 0 0-.905-1.694Z" fill="url(#X)"/><path d="M249.38 141.779a1.632 1.632 0 1 0-3.263-.025 1.632 1.632 0 0 0 3.263.025Z" fill="url(#Y)"/><path d="M247.738 143.934a2.17 2.17 0 0 1-2.011-1.342 2.18 2.18 0 0 1 .47-2.371 2.175 2.175 0 1 1 1.541 3.713Zm0-3.262a1.086 1.086 0 0 0-.769 1.859 1.09 1.09 0 0 0 1.858-.772 1.087 1.087 0 0 0-1.089-1.087Z" fill="url(#Z)"/><path fill-rule="evenodd" clip-rule="evenodd" d="M182.175 71.266a1.634 1.634 0 0 1-1.95 1.6 1.631 1.631 0 1 1 1.95-1.6Z" fill="#312C93"/><path d="M180.543 73.44a2.175 2.175 0 1 1-.003-4.35 2.175 2.175 0 0 1 .003 4.35Zm0-3.263a1.088 1.088 0 1 0-.004 2.18 1.088 1.088 0 0 0 .004-2.181v.001Z" fill="#312C93"/><path fill-rule="evenodd" clip-rule="evenodd" d="M102.686 37.686a1.22 1.22 0 0 1-.756 1.13 1.223 1.223 0 1 1 .756-1.13Z" fill="#312C93"/><path d="M101.462 39.46a1.768 1.768 0 1 1-.004-3.535 1.768 1.768 0 0 1 .004 3.536Zm0-2.446a.68.68 0 1 0-.004 1.36.68.68 0 0 0 .004-1.36Z" fill="#312C93"/><path fill-rule="evenodd" clip-rule="evenodd" d="M50.052 22.502a1.224 1.224 0 1 1-2.448 0 1.224 1.224 0 0 1 2.448 0Z" fill="url(#aa)"/><path d="M48.829 24.268a1.766 1.766 0 1 1 0-3.531 1.766 1.766 0 0 1 0 3.532Zm0-2.447a.681.681 0 1 0 0 1.362.681.681 0 0 0 0-1.362Z" fill="url(#ab)"/><path fill-rule="evenodd" clip-rule="evenodd" d="M53.177 64.079a1.224 1.224 0 1 1-2.447 0 1.224 1.224 0 0 1 2.447 0Z" fill="url(#ac)"/><path d="M51.953 65.855a1.769 1.769 0 1 1-.003-3.538 1.769 1.769 0 0 1 .003 3.538Zm0-2.447a.68.68 0 1 0 .681.68.681.681 0 0 0-.68-.689v.01Z" fill="url(#ad)"/><path fill-rule="evenodd" clip-rule="evenodd" d="M72.935 239.461a1.226 1.226 0 0 1-1.462 1.2 1.223 1.223 0 1 1 1.462-1.2Z" fill="url(#ae)"/><path d="M71.711 241.227a1.771 1.771 0 0 1-1.634-1.09 1.77 1.77 0 0 1 3.103-1.659 1.768 1.768 0 0 1-1.469 2.749Zm0-2.447a.68.68 0 1 0-.003 1.361.68.68 0 0 0 .003-1.361Z" fill="url(#af)"/><path fill-rule="evenodd" clip-rule="evenodd" d="M157.032 202.359a1.223 1.223 0 1 1-2.445-.001 1.223 1.223 0 0 1 2.445.001Z" fill="url(#ag)"/><path d="M155.808 204.125a1.766 1.766 0 1 1 .001-3.532 1.766 1.766 0 0 1-.001 3.532Zm0-2.447a.678.678 0 0 0-.629.42.681.681 0 1 0 .629-.42Z" fill="url(#ah)"/><path fill-rule="evenodd" clip-rule="evenodd" d="M190.423 231.216a1.222 1.222 0 0 1-2.088.865 1.221 1.221 0 0 1 .865-2.089 1.223 1.223 0 0 1 1.223 1.224Z" fill="url(#ai)"/><path d="M189.2 232.982a1.77 1.77 0 0 1-1.733-2.111 1.775 1.775 0 0 1 1.388-1.388 1.767 1.767 0 1 1 .345 3.499Zm0-2.447a.681.681 0 1 0 0 1.363.681.681 0 0 0 0-1.363Z" fill="url(#aj)"/><path fill-rule="evenodd" clip-rule="evenodd" d="M39.486 169.179a1.632 1.632 0 1 1-3.265 0 1.632 1.632 0 0 1 3.265 0Z" fill="url(#ak)"/><path d="M37.855 171.355a2.176 2.176 0 1 1-.002-4.352 2.176 2.176 0 0 1 .002 4.352Zm0-3.263a1.087 1.087 0 0 0-1.006.673 1.088 1.088 0 1 0 1.006-.673Z" fill="url(#al)"/><path fill-rule="evenodd" clip-rule="evenodd" d="M169.027 244.327a1.634 1.634 0 0 1-1.007 1.508 1.636 1.636 0 0 1-2.225-1.189 1.636 1.636 0 0 1 .694-1.675 1.633 1.633 0 0 1 2.538 1.356Z" fill="url(#am)"/><path d="M167.395 246.501a2.17 2.17 0 0 1-2.011-1.342 2.173 2.173 0 0 1 .471-2.372 2.18 2.18 0 0 1 2.372-.471 2.169 2.169 0 0 1 1.342 2.011 2.17 2.17 0 0 1-.637 1.537 2.17 2.17 0 0 1-1.537.637Zm0-3.262a1.083 1.083 0 0 0-1.005.672 1.084 1.084 0 0 0 .236 1.186 1.082 1.082 0 0 0 1.186.236 1.09 1.09 0 0 0-.417-2.094Z" fill="url(#an)"/><path fill-rule="evenodd" clip-rule="evenodd" d="M121.986 209.384a1.633 1.633 0 0 1-1.95 1.6 1.634 1.634 0 0 1-1.189-2.225 1.633 1.633 0 0 1 3.139.625Z" fill="#312C93"/><path d="M120.354 211.559a2.172 2.172 0 0 1-2.01-1.343 2.178 2.178 0 0 1 3.82-2.041 2.175 2.175 0 0 1-1.81 3.384Zm0-3.262c-.215 0-.426.064-.605.183a1.092 1.092 0 0 0 .394 1.973 1.092 1.092 0 0 0 1.118-.464 1.085 1.085 0 0 0 .099-1.022 1.078 1.078 0 0 0-.589-.588 1.066 1.066 0 0 0-.417-.082Z" fill="#312C93"/><path d="M247.453 123.664a1.632 1.632 0 1 0-.005-3.263 1.632 1.632 0 0 0 .005 3.263Z" fill="url(#ao)"/><path d="M247.458 124.191a2.174 2.174 0 1 1-.001-4.349 2.174 2.174 0 0 1 .001 4.349Zm0-3.262c-.215 0-.425.064-.605.183a1.092 1.092 0 0 0 .393 1.973 1.084 1.084 0 0 0 1.118-.463 1.092 1.092 0 0 0-.136-1.374 1.09 1.09 0 0 0-.77-.319Z" fill="url(#ap)"/><path fill-rule="evenodd" clip-rule="evenodd" d="M236.977 79.18a1.634 1.634 0 0 1-1.95 1.6 1.633 1.633 0 1 1 1.95-1.6Z" fill="url(#aq)"/><path d="M235.345 81.353a2.175 2.175 0 1 1 .012-4.35 2.175 2.175 0 0 1-.012 4.35Zm0-3.262a1.087 1.087 0 0 0-1.067 1.3 1.084 1.084 0 0 0 .855.856 1.088 1.088 0 1 0 .212-2.156Z" fill="url(#ar)"/><defs><linearGradient id="a" x1="-27.461" y1="1545.17" x2="4091.25" y2="1545.17" gradientUnits="userSpaceOnUse"><stop stop-color="#B47E11"/><stop offset=".51" stop-color="#EAD98B"/><stop offset="1" stop-color="#B47E11"/></linearGradient><linearGradient id="b" x1="-102.524" y1="2005.92" x2="5288.89" y2="2005.92" gradientUnits="userSpaceOnUse"><stop stop-color="#B47E11"/><stop offset=".51" stop-color="#EAD98B"/><stop offset="1" stop-color="#B47E11"/></linearGradient><linearGradient id="c" x1="-167.041" y1="2649.46" x2="6492.94" y2="2649.46" gradientUnits="userSpaceOnUse"><stop stop-color="#B47E11"/><stop offset=".51" stop-color="#EAD98B"/><stop offset="1" stop-color="#B47E11"/></linearGradient><linearGradient id="d" x1="-243.326" y1="3117.68" x2="7709.93" y2="3117.68" gradientUnits="userSpaceOnUse"><stop stop-color="#B47E11"/><stop offset=".51" stop-color="#EAD98B"/><stop offset="1" stop-color="#B47E11"/></linearGradient><linearGradient id="e" x1="-103.108" y1="2162.1" x2="5724.91" y2="2162.1" gradientUnits="userSpaceOnUse"><stop stop-color="#B47E11"/><stop offset=".51" stop-color="#EAD98B"/><stop offset="1" stop-color="#B47E11"/></linearGradient><linearGradient id="f" x1="-179.391" y1="2630.31" x2="6941.87" y2="2630.31" gradientUnits="userSpaceOnUse"><stop stop-color="#B47E11"/><stop offset=".51" stop-color="#EAD98B"/><stop offset="1" stop-color="#B47E11"/></linearGradient><linearGradient id="g" x1="-182.967" y1="2447.56" x2="6476.99" y2="2447.56" gradientUnits="userSpaceOnUse"><stop stop-color="#B47E11"/><stop offset=".51" stop-color="#EAD98B"/><stop offset="1" stop-color="#B47E11"/></linearGradient><linearGradient id="h" x1="-259.015" y1="2914.28" x2="7690.15" y2="2914.28" gradientUnits="userSpaceOnUse"><stop stop-color="#B47E11"/><stop offset=".51" stop-color="#EAD98B"/><stop offset="1" stop-color="#B47E11"/></linearGradient><linearGradient id="i" x1="-426.997" y1="2997.34" x2="7217.37" y2="2997.34" gradientUnits="userSpaceOnUse"><stop stop-color="#B47E11"/><stop offset=".51" stop-color="#EAD98B"/><stop offset="1" stop-color="#B47E11"/></linearGradient><linearGradient id="j" x1="-503.03" y1="3464.07" x2="8430.49" y2="3464.07" gradientUnits="userSpaceOnUse"><stop stop-color="#B47E11"/><stop offset=".51" stop-color="#EAD98B"/><stop offset="1" stop-color="#B47E11"/></linearGradient><linearGradient id="k" x1="-75.334" y1="1747.14" x2="4084.59" y2="1747.14" gradientUnits="userSpaceOnUse"><stop stop-color="#B47E11"/><stop offset=".51" stop-color="#EAD98B"/><stop offset="1" stop-color="#B47E11"/></linearGradient><linearGradient id="l" x1="-151.863" y1="2216.84" x2="5305.44" y2="2216.84" gradientUnits="userSpaceOnUse"><stop stop-color="#B47E11"/><stop offset=".51" stop-color="#EAD98B"/><stop offset="1" stop-color="#B47E11"/></linearGradient><linearGradient id="m" x1="-270.161" y1="1963.62" x2="4507.56" y2="1963.62" gradientUnits="userSpaceOnUse"><stop stop-color="#B47E11"/><stop offset=".51" stop-color="#EAD98B"/><stop offset="1" stop-color="#B47E11"/></linearGradient><linearGradient id="n" x1="-346.452" y1="2431.83" x2="5724.55" y2="2431.83" gradientUnits="userSpaceOnUse"><stop stop-color="#B47E11"/><stop offset=".51" stop-color="#EAD98B"/><stop offset="1" stop-color="#B47E11"/></linearGradient><linearGradient id="o" x1="-217.684" y1="1530.63" x2="3880.45" y2="1530.63" gradientUnits="userSpaceOnUse"><stop stop-color="#B47E11"/><stop offset=".51" stop-color="#EAD98B"/><stop offset="1" stop-color="#B47E11"/></linearGradient><linearGradient id="p" x1="-293.969" y1="1998.84" x2="5097.45" y2="1998.84" gradientUnits="userSpaceOnUse"><stop stop-color="#B47E11"/><stop offset=".51" stop-color="#EAD98B"/><stop offset="1" stop-color="#B47E11"/></linearGradient><linearGradient id="q" x1="-206.063" y1="1716.57" x2="3912.66" y2="1716.57" gradientUnits="userSpaceOnUse"><stop stop-color="#B47E11"/><stop offset=".51" stop-color="#EAD98B"/><stop offset="1" stop-color="#B47E11"/></linearGradient><linearGradient id="r" x1="-281.134" y1="2177.32" x2="5110.28" y2="2177.32" gradientUnits="userSpaceOnUse"><stop stop-color="#B47E11"/><stop offset=".51" stop-color="#EAD98B"/><stop offset="1" stop-color="#B47E11"/></linearGradient><linearGradient id="s" x1="-237.317" y1="1574.45" x2="3881.41" y2="1574.45" gradientUnits="userSpaceOnUse"><stop stop-color="#B47E11"/><stop offset=".51" stop-color="#EAD98B"/><stop offset="1" stop-color="#B47E11"/></linearGradient><linearGradient id="t" x1="-312.379" y1="2035.2" x2="5079.03" y2="2035.2" gradientUnits="userSpaceOnUse"><stop stop-color="#B47E11"/><stop offset=".51" stop-color="#EAD98B"/><stop offset="1" stop-color="#B47E11"/></linearGradient><linearGradient id="u" x1="-238.83" y1="1661.15" x2="3859.31" y2="1661.15" gradientUnits="userSpaceOnUse"><stop stop-color="#B47E11"/><stop offset=".51" stop-color="#EAD98B"/><stop offset="1" stop-color="#B47E11"/></linearGradient><linearGradient id="v" x1="-315.115" y1="2129.38" x2="5076.3" y2="2129.38" gradientUnits="userSpaceOnUse"><stop stop-color="#B47E11"/><stop offset=".51" stop-color="#EAD98B"/><stop offset="1" stop-color="#B47E11"/></linearGradient><linearGradient id="w" x1="-36.412" y1="1917.45" x2="4667.05" y2="1884.62" gradientUnits="userSpaceOnUse"><stop stop-color="#B47E11"/><stop offset=".51" stop-color="#EAD98B"/><stop offset="1" stop-color="#B47E11"/></linearGradient><linearGradient id="x" x1="-124.601" y1="2383.79" x2="5872.26" y2="2383.79" gradientUnits="userSpaceOnUse"><stop stop-color="#B47E11"/><stop offset=".51" stop-color="#EAD98B"/><stop offset="1" stop-color="#B47E11"/></linearGradient><linearGradient id="y" x1="-31.045" y1="1947.66" x2="4672.55" y2="1947.66" gradientUnits="userSpaceOnUse"><stop stop-color="#B47E11"/><stop offset=".51" stop-color="#EAD98B"/><stop offset="1" stop-color="#B47E11"/></linearGradient><linearGradient id="z" x1="-107.331" y1="2415.88" x2="5889.55" y2="2415.88" gradientUnits="userSpaceOnUse"><stop stop-color="#B47E11"/><stop offset=".51" stop-color="#EAD98B"/><stop offset="1" stop-color="#B47E11"/></linearGradient><linearGradient id="A" x1="-47.916" y1="1718.52" x2="4070.8" y2="1718.52" gradientUnits="userSpaceOnUse"><stop stop-color="#B47E11"/><stop offset=".51" stop-color="#EAD98B"/><stop offset="1" stop-color="#B47E11"/></linearGradient><linearGradient id="B" x1="-122.978" y1="2179.28" x2="5268.43" y2="2179.28" gradientUnits="userSpaceOnUse"><stop stop-color="#B47E11"/><stop offset=".51" stop-color="#EAD98B"/><stop offset="1" stop-color="#B47E11"/></linearGradient><linearGradient id="C" x1="-177.549" y1="1478.88" x2="3710.53" y2="1478.88" gradientUnits="userSpaceOnUse"><stop stop-color="#B47E11"/><stop offset=".51" stop-color="#EAD98B"/><stop offset="1" stop-color="#B47E11"/></linearGradient><linearGradient id="D" x1="-254.079" y1="1948.59" x2="4931.4" y2="1948.59" gradientUnits="userSpaceOnUse"><stop stop-color="#B47E11"/><stop offset=".51" stop-color="#EAD98B"/><stop offset="1" stop-color="#B47E11"/></linearGradient><linearGradient id="E" x1="-133.179" y1="1449.26" x2="3754.9" y2="1449.26" gradientUnits="userSpaceOnUse"><stop stop-color="#B47E11"/><stop offset=".51" stop-color="#EAD98B"/><stop offset="1" stop-color="#B47E11"/></linearGradient><linearGradient id="F" x1="-209.708" y1="1918.97" x2="4975.76" y2="1918.97" gradientUnits="userSpaceOnUse"><stop stop-color="#B47E11"/><stop offset=".51" stop-color="#EAD98B"/><stop offset="1" stop-color="#B47E11"/></linearGradient><linearGradient id="G" x1="-140.395" y1="1655.2" x2="3747.68" y2="1655.2" gradientUnits="userSpaceOnUse"><stop stop-color="#B47E11"/><stop offset=".51" stop-color="#EAD98B"/><stop offset="1" stop-color="#B47E11"/></linearGradient><linearGradient id="H" x1="-216.679" y1="2123.43" x2="4964.68" y2="2123.43" gradientUnits="userSpaceOnUse"><stop stop-color="#B47E11"/><stop offset=".51" stop-color="#EAD98B"/><stop offset="1" stop-color="#B47E11"/></linearGradient><linearGradient id="I" x1="-198.778" y1="1627.78" x2="3689.3" y2="1627.78" gradientUnits="userSpaceOnUse"><stop stop-color="#B47E11"/><stop offset=".51" stop-color="#EAD98B"/><stop offset="1" stop-color="#B47E11"/></linearGradient><linearGradient id="J" x1="-275.31" y1="2097.49" x2="4910.17" y2="2097.49" gradientUnits="userSpaceOnUse"><stop stop-color="#B47E11"/><stop offset=".51" stop-color="#EAD98B"/><stop offset="1" stop-color="#B47E11"/></linearGradient><linearGradient id="K" x1="-80.972" y1="1456.23" x2="3807.11" y2="1456.23" gradientUnits="userSpaceOnUse"><stop stop-color="#B47E11"/><stop offset=".51" stop-color="#EAD98B"/><stop offset="1" stop-color="#B47E11"/></linearGradient><linearGradient id="L" x1="-157.257" y1="1924.45" x2="5024.1" y2="1924.45" gradientUnits="userSpaceOnUse"><stop stop-color="#B47E11"/><stop offset=".51" stop-color="#EAD98B"/><stop offset="1" stop-color="#B47E11"/></linearGradient><linearGradient id="M" x1="-15.409" y1="1600.93" x2="3872.67" y2="1600.93" gradientUnits="userSpaceOnUse"><stop stop-color="#B47E11"/><stop offset=".51" stop-color="#EAD98B"/><stop offset="1" stop-color="#B47E11"/></linearGradient><linearGradient id="N" x1="-91.936" y1="2070.64" x2="5093.52" y2="2070.64" gradientUnits="userSpaceOnUse"><stop stop-color="#B47E11"/><stop offset=".51" stop-color="#EAD98B"/><stop offset="1" stop-color="#B47E11"/></linearGradient><linearGradient id="O" x1="-144.963" y1="1614.44" x2="3743.12" y2="1614.44" gradientUnits="userSpaceOnUse"><stop stop-color="#B47E11"/><stop offset=".51" stop-color="#EAD98B"/><stop offset="1" stop-color="#B47E11"/></linearGradient><linearGradient id="P" x1="-221.248" y1="2082.66" x2="4960.11" y2="2082.66" gradientUnits="userSpaceOnUse"><stop stop-color="#B47E11"/><stop offset=".51" stop-color="#EAD98B"/><stop offset="1" stop-color="#B47E11"/></linearGradient><linearGradient id="Q" x1="-170.489" y1="1642.27" x2="3717.45" y2="1609.02" gradientUnits="userSpaceOnUse"><stop stop-color="#B47E11"/><stop offset=".51" stop-color="#EAD98B"/><stop offset="1" stop-color="#B47E11"/></linearGradient><linearGradient id="R" x1="-259.053" y1="2110.07" x2="4926.42" y2="2110.07" gradientUnits="userSpaceOnUse"><stop stop-color="#B47E11"/><stop offset=".51" stop-color="#EAD98B"/><stop offset="1" stop-color="#B47E11"/></linearGradient><linearGradient id="S" x1="-92.909" y1="1623.19" x2="3795.17" y2="1623.19" gradientUnits="userSpaceOnUse"><stop stop-color="#B47E11"/><stop offset=".51" stop-color="#EAD98B"/><stop offset="1" stop-color="#B47E11"/></linearGradient><linearGradient id="T" x1="-169.446" y1="2092.9" x2="5016.04" y2="2092.9" gradientUnits="userSpaceOnUse"><stop stop-color="#B47E11"/><stop offset=".51" stop-color="#EAD98B"/><stop offset="1" stop-color="#B47E11"/></linearGradient><linearGradient id="U" x1="-19.941" y1="1629.37" x2="3868.13" y2="1629.37" gradientUnits="userSpaceOnUse"><stop stop-color="#B47E11"/><stop offset=".51" stop-color="#EAD98B"/><stop offset="1" stop-color="#B47E11"/></linearGradient><linearGradient id="V" x1="-96.471" y1="2099.07" x2="5088.99" y2="2099.07" gradientUnits="userSpaceOnUse"><stop stop-color="#B47E11"/><stop offset=".51" stop-color="#EAD98B"/><stop offset="1" stop-color="#B47E11"/></linearGradient><linearGradient id="W" x1="-27.775" y1="1552.69" x2="3860.3" y2="1552.69" gradientUnits="userSpaceOnUse"><stop stop-color="#B47E11"/><stop offset=".51" stop-color="#EAD98B"/><stop offset="1" stop-color="#B47E11"/></linearGradient><linearGradient id="X" x1="-104.306" y1="2022.4" x2="5081.18" y2="2022.4" gradientUnits="userSpaceOnUse"><stop stop-color="#B47E11"/><stop offset=".51" stop-color="#EAD98B"/><stop offset="1" stop-color="#B47E11"/></linearGradient><linearGradient id="Y" x1="1653.54" y1="382.157" x2="1684.08" y2="-3505.8" gradientUnits="userSpaceOnUse"><stop stop-color="#B47E11"/><stop offset=".51" stop-color="#EAD98B"/><stop offset="1" stop-color="#B47E11"/></linearGradient><linearGradient id="Z" x1="-58.134" y1="2019.1" x2="5127.35" y2="2019.1" gradientUnits="userSpaceOnUse"><stop stop-color="#B47E11"/><stop offset=".51" stop-color="#EAD98B"/><stop offset="1" stop-color="#B47E11"/></linearGradient><linearGradient id="aa" x1="-123.178" y1="1078.23" x2="2792.89" y2="1078.23" gradientUnits="userSpaceOnUse"><stop stop-color="#B47E11"/><stop offset=".51" stop-color="#EAD98B"/><stop offset="1" stop-color="#B47E11"/></linearGradient><linearGradient id="ab" x1="-199.463" y1="1546.45" x2="4009.88" y2="1546.45" gradientUnits="userSpaceOnUse"><stop stop-color="#B47E11"/><stop offset=".51" stop-color="#EAD98B"/><stop offset="1" stop-color="#B47E11"/></linearGradient><linearGradient id="ac" x1="-120.053" y1="1119.81" x2="2796" y2="1119.81" gradientUnits="userSpaceOnUse"><stop stop-color="#B47E11"/><stop offset=".51" stop-color="#EAD98B"/><stop offset="1" stop-color="#B47E11"/></linearGradient><linearGradient id="ad" x1="-196.584" y1="1589.52" x2="4016.88" y2="1589.52" gradientUnits="userSpaceOnUse"><stop stop-color="#B47E11"/><stop offset=".51" stop-color="#EAD98B"/><stop offset="1" stop-color="#B47E11"/></linearGradient><linearGradient id="ae" x1="-100.295" y1="1295.19" x2="2815.76" y2="1295.19" gradientUnits="userSpaceOnUse"><stop stop-color="#B47E11"/><stop offset=".51" stop-color="#EAD98B"/><stop offset="1" stop-color="#B47E11"/></linearGradient><linearGradient id="af" x1="-176.825" y1="1764.9" x2="4036.63" y2="1764.9" gradientUnits="userSpaceOnUse"><stop stop-color="#B47E11"/><stop offset=".51" stop-color="#EAD98B"/><stop offset="1" stop-color="#B47E11"/></linearGradient><linearGradient id="ag" x1="-16.198" y1="1258.08" x2="2899.85" y2="1258.08" gradientUnits="userSpaceOnUse"><stop stop-color="#B47E11"/><stop offset=".51" stop-color="#EAD98B"/><stop offset="1" stop-color="#B47E11"/></linearGradient><linearGradient id="ah" x1="-92.484" y1="1726.3" x2="4116.85" y2="1726.3" gradientUnits="userSpaceOnUse"><stop stop-color="#B47E11"/><stop offset=".51" stop-color="#EAD98B"/><stop offset="1" stop-color="#B47E11"/></linearGradient><linearGradient id="ai" x1="17.194" y1="1286.94" x2="2933.24" y2="1286.94" gradientUnits="userSpaceOnUse"><stop stop-color="#B47E11"/><stop offset=".51" stop-color="#EAD98B"/><stop offset="1" stop-color="#B47E11"/></linearGradient><linearGradient id="aj" x1="-59.092" y1="1755.15" x2="4150.25" y2="1755.15" gradientUnits="userSpaceOnUse"><stop stop-color="#B47E11"/><stop offset=".51" stop-color="#EAD98B"/><stop offset="1" stop-color="#B47E11"/></linearGradient><linearGradient id="ak" x1="-191.487" y1="1576.82" x2="3696.59" y2="1576.82" gradientUnits="userSpaceOnUse"><stop stop-color="#B47E11"/><stop offset=".51" stop-color="#EAD98B"/><stop offset="1" stop-color="#B47E11"/></linearGradient><linearGradient id="al" x1="-268.015" y1="2046.52" x2="4917.46" y2="2046.52" gradientUnits="userSpaceOnUse"><stop stop-color="#B47E11"/><stop offset=".51" stop-color="#EAD98B"/><stop offset="1" stop-color="#B47E11"/></linearGradient><linearGradient id="am" x1="-61.947" y1="1651.96" x2="3826.13" y2="1651.96" gradientUnits="userSpaceOnUse"><stop stop-color="#B47E11"/><stop offset=".51" stop-color="#EAD98B"/><stop offset="1" stop-color="#B47E11"/></linearGradient><linearGradient id="an" x1="-138.477" y1="2121.67" x2="5047.01" y2="2121.67" gradientUnits="userSpaceOnUse"><stop stop-color="#B47E11"/><stop offset=".51" stop-color="#EAD98B"/><stop offset="1" stop-color="#B47E11"/></linearGradient><linearGradient id="ao" x1="19.829" y1="1529.95" x2="3907.9" y2="1525.2" gradientUnits="userSpaceOnUse"><stop stop-color="#B47E11"/><stop offset=".51" stop-color="#EAD98B"/><stop offset="1" stop-color="#B47E11"/></linearGradient><linearGradient id="ap" x1="-58.17" y1="1997.87" x2="5123.2" y2="1997.87" gradientUnits="userSpaceOnUse"><stop stop-color="#B47E11"/><stop offset=".51" stop-color="#EAD98B"/><stop offset="1" stop-color="#B47E11"/></linearGradient><linearGradient id="aq" x1="6.004" y1="1486.81" x2="3894.08" y2="1486.81" gradientUnits="userSpaceOnUse"><stop stop-color="#B47E11"/><stop offset=".51" stop-color="#EAD98B"/><stop offset="1" stop-color="#B47E11"/></linearGradient><linearGradient id="ar" x1="-70.276" y1="1955.03" x2="5111.07" y2="1955.03" gradientUnits="userSpaceOnUse"><stop stop-color="#B47E11"/><stop offset=".51" stop-color="#EAD98B"/><stop offset="1" stop-color="#B47E11"/></linearGradient></defs></svg>