<svg width="61" height="70" fill="none" xmlns="http://www.w3.org/2000/svg"><path d="M52.934 19.791a.688.688 0 0 1 .489.84l-.373 1.391 1.397.373a.683.683 0 0 1 .481.841.682.682 0 0 1-.838.485l-2.724-.728.73-2.716a.682.682 0 0 1 .838-.486Zm-7.706.095c.372.098.59.475.489.84l-1.754 6.526L50.513 29a.683.683 0 0 1 .48.84.687.687 0 0 1-.845.485l-7.869-2.103 2.111-7.851a.682.682 0 0 1 .838-.485Zm-7.333 6.224a.694.694 0 0 1 .489.84l-1.118 4.157 4.167 1.114a.693.693 0 0 1 .49.84.69.69 0 0 1-.846.486l-5.502-1.469 1.474-5.483a.695.695 0 0 1 .846-.485Zm23.016-8.611a.694.694 0 0 1-.256.938L30.84 35.594a.686.686 0 1 1-.683-1.188l29.806-17.157a.695.695 0 0 1 .947.25Zm-5.983 29.265a.682.682 0 0 1-.48.84l-1.398.373.373 1.391a.688.688 0 0 1-1.327.355l-.73-2.716 2.724-.729a.68.68 0 0 1 .838.486Zm-3.934-6.604a.682.682 0 0 1-.481.84l-6.55 1.748 1.754 6.524a.682.682 0 0 1-.489.841.685.685 0 0 1-.838-.486l-2.11-7.85 7.868-2.103a.762.762 0 0 1 .186-.023.68.68 0 0 1 .66.509Zm-9.072-3.222a.693.693 0 0 1-.489.84l-4.167 1.114 1.118 4.157a.693.693 0 0 1-.489.84.693.693 0 0 1-.846-.485l-1.474-5.482 5.502-1.47a.695.695 0 0 1 .846.486Zm-11.08-2.532 29.813 17.157c.326.19.442.61.256.937a.696.696 0 0 1-.947.25L30.159 35.595a.686.686 0 1 1 .683-1.188ZM32.493 61a.68.68 0 0 1 0 .97.695.695 0 0 1-.978.002l-1.016-1.02-1.025 1.02a.685.685 0 0 1-.97-.001.68.68 0 0 1 0-.971l1.995-1.988L32.493 61Zm3.771-6.699a.694.694 0 0 1 0 .97.694.694 0 0 1-.977 0L30.5 50.496l-4.796 4.776a.685.685 0 0 1-.97 0 .68.68 0 0 1 0-.97l5.766-5.747 5.765 5.747Zm-1.738-9.444a.68.68 0 0 1 0 .97.685.685 0 0 1-.97 0L30.5 42.785l-3.05 3.043a.695.695 0 0 1-.978 0 .694.694 0 0 1 0-.97l4.028-4.015 4.027 4.015ZM31.19 35v34.313a.69.69 0 0 1-.69.687.689.689 0 0 1-.69-.687V35c0-.38.31-.686.69-.686.38 0 .69.306.69.686ZM6.91 46.278l2.723.729-.73 2.716a.68.68 0 0 1-.838.486.682.682 0 0 1-.489-.84l.373-1.392-1.397-.373a.693.693 0 0 1-.489-.84.696.696 0 0 1 .846-.486Zm3.934-6.604 7.876 2.104-2.11 7.85a.685.685 0 0 1-.846.485.683.683 0 0 1-.482-.84l1.754-6.525L10.494 41a.68.68 0 0 1-.488-.84.682.682 0 0 1 .838-.486Zm9.079-3.222 5.502 1.47-1.475 5.483a.689.689 0 0 1-.846.484.682.682 0 0 1-.48-.84l1.117-4.157-4.175-1.114a.693.693 0 0 1-.49-.84.695.695 0 0 1 .847-.486Zm11.174-1.796a.686.686 0 0 1-.256.938L1.027 52.75a.679.679 0 0 1-.931-.25.677.677 0 0 1 .248-.938l29.814-17.157a.679.679 0 0 1 .342-.093c.232 0 .465.123.597.343ZM8.903 20.276l.73 2.717-2.724.728a.695.695 0 0 1-.846-.485.694.694 0 0 1 .49-.84l1.396-.374-.373-1.39a.682.682 0 0 1 .668-.864.68.68 0 0 1 .66.508Zm7.706.095 2.111 7.851-7.876 2.103a.68.68 0 0 1-.838-.485.682.682 0 0 1 .488-.84l6.542-1.748-1.754-6.525a.683.683 0 0 1 .668-.864.68.68 0 0 1 .66.508Zm7.341 6.225 1.475 5.482-5.502 1.469a.69.69 0 0 1-.846-.486.693.693 0 0 1 .489-.84l4.175-1.114-1.118-4.157a.683.683 0 0 1 .66-.864c.302 0 .582.202.667.51ZM1.027 17.248l29.814 17.157a.686.686 0 1 1-.683 1.188L.344 18.437a.678.678 0 0 1-.248-.938.68.68 0 0 1 .931-.25Zm31.467-9.22a.68.68 0 0 1 0 .97L30.5 10.986l-1.995-1.989a.68.68 0 0 1 0-.97.686.686 0 0 1 .97 0L30.5 9.045l1.016-1.019c.14-.133.319-.2.497-.2.17 0 .349.067.48.201Zm3.771 6.698a.693.693 0 0 1 0 .97L30.5 21.445l-5.766-5.748a.68.68 0 0 1 0-.97.685.685 0 0 1 .97 0l4.796 4.776 4.788-4.776a.712.712 0 0 1 .488-.201.69.69 0 0 1 .49.2Zm-1.738 9.445a.68.68 0 0 1 0 .97L30.5 29.157l-4.028-4.015a.694.694 0 0 1 0-.97.695.695 0 0 1 .978 0l3.05 3.043 3.057-3.043a.667.667 0 0 1 .481-.201c.179 0 .35.067.489.201ZM30.5 0c-.38 0-.69.307-.69.686V35c0 .379.31.686.69.686.38 0 .69-.307.69-.686V.686c0-.38-.31-.686-.69-.686Z" fill="#312C93"/><path d="M52.934 50.209a.688.688 0 0 0 .489-.84l-.373-1.391 1.397-.373a.683.683 0 0 0 .481-.841.682.682 0 0 0-.838-.485l-2.724.728.73 2.717a.682.682 0 0 0 .838.485Zm-7.706-.095a.682.682 0 0 0 .489-.84l-1.754-6.526 6.55-1.747a.683.683 0 0 0 .48-.841.687.687 0 0 0-.845-.485l-7.869 2.103 2.111 7.851a.682.682 0 0 0 .838.485Zm-7.333-6.224a.694.694 0 0 0 .489-.84l-1.118-4.157 4.167-1.114a.693.693 0 0 0 .49-.84.69.69 0 0 0-.846-.486l-5.502 1.469 1.474 5.483a.695.695 0 0 0 .846.485Zm23.016 8.611a.694.694 0 0 0-.256-.938L30.84 34.406a.686.686 0 1 0-.683 1.188l29.806 17.157a.695.695 0 0 0 .947-.25Zm-5.983-29.265a.682.682 0 0 0-.48-.84l-1.398-.373.373-1.391a.688.688 0 0 0-1.327-.355l-.73 2.716 2.724.729a.68.68 0 0 0 .838-.486Zm-3.934 6.604a.682.682 0 0 0-.481-.84l-6.55-1.748 1.754-6.524a.682.682 0 0 0-.489-.841.685.685 0 0 0-.838.486l-2.11 7.85 7.868 2.103a.762.762 0 0 0 .186.023.68.68 0 0 0 .66-.509Zm-9.072 3.222a.693.693 0 0 0-.489-.84l-4.167-1.114 1.118-4.157a.693.693 0 0 0-.489-.84.693.693 0 0 0-.846.485l-1.474 5.482 5.502 1.47a.695.695 0 0 0 .846-.486Zm-11.08 2.532 29.813-17.157a.693.693 0 0 0 .256-.937.696.696 0 0 0-.947-.25L30.159 34.405a.686.686 0 1 0 .683 1.188ZM32.493 9a.68.68 0 0 0 0-.97.695.695 0 0 0-.978-.001L30.5 9.046l-1.025-1.018a.685.685 0 0 0-.97 0 .68.68 0 0 0 0 .971l1.995 1.988 1.994-1.988Zm3.771 6.699a.694.694 0 0 0 0-.97.694.694 0 0 0-.977 0L30.5 19.504l-4.796-4.776a.685.685 0 0 0-.97 0 .68.68 0 0 0 0 .97l5.766 5.747 5.765-5.747Zm-1.738 9.444a.68.68 0 0 0 0-.97.685.685 0 0 0-.97 0L30.5 27.215l-3.05-3.043a.695.695 0 0 0-.978 0 .694.694 0 0 0 0 .97l4.028 4.015 4.027-4.015ZM31.19 35V.687A.69.69 0 0 0 30.5 0c-.38 0-.69.307-.69.687V35c0 .38.31.686.69.686.38 0 .69-.306.69-.686ZM6.91 23.722l2.723-.729-.73-2.716a.68.68 0 0 0-.838-.486.682.682 0 0 0-.489.84l.373 1.392-1.397.373a.693.693 0 0 0-.489.84.696.696 0 0 0 .846.486Zm3.934 6.604 7.876-2.104-2.11-7.85a.685.685 0 0 0-.846-.485.683.683 0 0 0-.482.84l1.754 6.525L10.494 29a.68.68 0 0 0-.488.84.682.682 0 0 0 .838.486Zm9.079 3.222 5.502-1.47-1.475-5.483a.689.689 0 0 0-.846-.484.682.682 0 0 0-.48.84l1.117 4.157-4.175 1.114a.693.693 0 0 0-.49.84.695.695 0 0 0 .847.486Zm11.174 1.796a.686.686 0 0 0-.256-.938L1.027 17.25a.679.679 0 0 0-.931.25.677.677 0 0 0 .248.938l29.814 17.157a.679.679 0 0 0 .342.093.703.703 0 0 0 .597-.343ZM8.903 49.724l.73-2.717-2.724-.728a.695.695 0 0 0-.846.485.694.694 0 0 0 .49.84l1.396.374-.373 1.39a.682.682 0 0 0 .668.864.68.68 0 0 0 .66-.508Zm7.706-.095 2.111-7.851-7.876-2.103a.68.68 0 0 0-.838.485.68.68 0 0 0 .488.84l6.542 1.748-1.754 6.525a.683.683 0 0 0 .668.864.68.68 0 0 0 .66-.508Zm7.341-6.224 1.475-5.483-5.502-1.469a.69.69 0 0 0-.846.486.693.693 0 0 0 .489.84l4.175 1.114-1.118 4.157a.683.683 0 0 0 .66.864.695.695 0 0 0 .667-.51ZM1.027 52.75l29.814-17.157a.686.686 0 1 0-.683-1.188L.344 51.563a.678.678 0 0 0-.248.938.68.68 0 0 0 .931.25Zm31.467 9.22a.68.68 0 0 0 0-.97L30.5 59.014l-1.995 1.989a.68.68 0 0 0 0 .97.686.686 0 0 0 .97 0l1.025-1.018 1.016 1.019c.14.133.319.2.497.2.17 0 .349-.067.48-.201Zm3.771-6.698a.693.693 0 0 0 0-.97L30.5 48.555l-5.766 5.748a.68.68 0 0 0 0 .97.685.685 0 0 0 .97 0l4.796-4.776 4.788 4.776a.71.71 0 0 0 .488.201.686.686 0 0 0 .49-.2Zm-1.738-9.445a.68.68 0 0 0 0-.97L30.5 40.843l-4.028 4.015a.694.694 0 0 0 0 .97.695.695 0 0 0 .978 0l3.05-3.043 3.057 3.043a.667.667 0 0 0 .481.201c.179 0 .35-.067.489-.201ZM30.5 70a.689.689 0 0 1-.69-.686V35c0-.379.31-.686.69-.686.38 0 .69.307.69.686v34.314c0 .38-.31.686-.69.686Z" fill="#312C93"/></svg>