<svg width="590" height="590" viewBox="0 0 590 590" fill="none" xmlns="http://www.w3.org/2000/svg">
<path d="M296.011 31.0142C295.08 31.9093 294.225 32.8811 293.456 33.9194C292.878 35.1971 291.357 39.1975 288.893 45.9357C287.4 49.6438 286.13 53.438 285.09 57.298C285.09 57.9064 286.338 62.7687 288.832 71.8848C291.215 80.7272 292.685 85.9495 293.243 87.5517C293.589 88.4666 294.105 89.3078 294.764 90.031C295.245 90.5241 295.655 91.0821 295.981 91.6889C295.298 91.6269 294.611 91.6269 293.928 91.6889H292.042C290.178 91.7643 288.313 91.5697 286.505 91.1109C286.905 90.3171 287.177 89.4649 287.311 88.586C287.311 88.1702 286.444 84.976 284.71 79.0033C283.052 73.269 281.942 69.8771 281.409 68.645H281.288C281.166 68.645 281.06 68.7363 280.968 68.9036C280.314 70.3334 279.021 73.6797 277.12 78.9273C275.838 82.0144 274.82 85.2049 274.078 88.4643C274.204 89.3698 274.434 90.2578 274.762 91.1109C274.391 91.1725 274.014 91.198 273.637 91.187C273.104 91.187 272.298 91.187 271.218 91.1109C270.138 91.0349 269.332 91.1109 268.785 91.1109C269.743 90.9892 270.503 90.2287 271.051 88.7837C271.599 87.3387 273.226 82.7908 275.873 75.0942C278.682 66.982 280.091 62.7788 280.101 62.4848C280.101 61.7242 278.134 54.8744 274.2 41.9354C273.693 39.9986 273.186 38.0668 272.679 36.1402C272.262 34.3006 271.452 32.5729 270.306 31.0751C271.951 30.7056 273.625 30.4867 275.31 30.421C275.143 30.421 276.481 30.7252 279.341 31.3184C279.005 31.5501 278.733 31.8623 278.55 32.2264C278.367 32.5905 278.278 32.9948 278.291 33.4023C278.83 36.5826 279.618 39.7155 280.649 42.7719C281.499 45.996 282.514 49.1742 283.691 52.2937C284.37 51.0637 284.975 49.7938 285.501 48.4911C285.998 47.2134 286.931 44.6428 288.3 40.7794C289.234 38.3761 290.001 35.9112 290.597 33.4023C290.597 32.9612 290.095 32.2311 289.075 31.2424C290.259 30.7505 291.521 30.4724 292.802 30.421C293.888 30.5181 294.963 30.7167 296.011 31.0142Z" fill="url(#paint0_linear_669_34085)"/>
<path d="M308.256 91.2631C307.639 91.3784 307.013 91.4345 306.385 91.4304C305.807 91.4304 303.084 91.1718 298.247 90.6851C298.658 90.1831 299.282 89.377 300.103 88.2818V86.9585C300.103 86.2284 300.103 85.1484 300.012 83.673C299.921 82.1976 299.921 81.1177 299.921 80.4028C299.921 79.6879 299.921 78.6383 300.134 77.2542C300.262 76.2092 300.339 75.1583 300.362 74.1056V36.6574C300.329 35.4766 300.139 34.3053 299.799 33.1742C299.343 31.5618 298.825 30.7405 298.278 30.6796C300.581 30.3143 302.901 30.0656 305.229 29.9343C306.132 30.0118 307.016 30.238 307.845 30.6036C307.541 31.2767 307.163 31.9143 306.72 32.5049C306.273 33.1051 306.019 33.8262 305.99 34.5735V84.2358C305.926 85.7138 306.069 87.1934 306.415 88.6316C307.134 89.4305 307.752 90.3142 308.256 91.2631Z" fill="url(#paint1_linear_669_34085)"/>
<path d="M320.941 91.263C320.33 91.3792 319.708 91.4353 319.086 91.4304C318.508 91.4304 315.785 91.1718 310.933 90.685C311.344 90.1831 311.967 89.3769 312.804 88.2818V86.9585C312.804 86.2284 312.804 85.1484 312.713 83.673C312.621 82.1976 312.621 81.1176 312.621 80.4027C312.638 79.3502 312.709 78.2993 312.834 77.2542C312.971 75.87 313.047 74.8205 313.047 74.1056V36.6574C313.022 35.4759 312.832 34.3036 312.484 33.1742C312.028 31.5618 311.511 30.7405 310.963 30.6796C313.272 30.3141 315.597 30.0653 317.93 29.9343C318.832 30.0151 319.716 30.2411 320.546 30.6036C320.235 31.2733 319.858 31.9102 319.42 32.5049C318.964 33.101 318.704 33.8236 318.675 34.5735V84.2358C318.614 85.7145 318.763 87.1944 319.116 88.6316C319.824 89.4357 320.436 90.3187 320.941 91.263Z" fill="url(#paint2_linear_669_34085)"/>
<path d="M500.334 288.087C500.21 287.476 500.154 286.854 500.167 286.231C500.167 285.638 500.41 282.931 500.912 278.078C501.414 278.504 502.205 279.113 503.315 279.949H504.639C505.354 279.949 506.449 279.949 507.909 279.858C509.369 279.767 510.464 279.767 511.194 279.767C512.247 279.783 513.298 279.854 514.343 279.98C515.712 280.117 516.777 280.193 517.492 280.193H554.955C556.136 280.166 557.308 279.977 558.438 279.63C560.035 279.174 560.872 278.656 560.917 278.109C561.291 280.416 561.54 282.741 561.663 285.075C561.589 285.977 561.368 286.861 561.009 287.691C560.333 287.382 559.691 287.005 559.092 286.566C558.498 286.107 557.774 285.846 557.024 285.82H507.377C505.898 285.758 504.418 285.906 502.981 286.262C502.166 286.963 501.279 287.575 500.334 288.087Z" fill="url(#paint3_linear_669_34085)"/>
<path d="M500.334 300.712C500.21 300.096 500.154 299.469 500.167 298.841C500.167 298.263 500.41 295.555 500.912 290.703C501.414 291.114 502.205 291.737 503.315 292.574H504.639C505.354 292.574 506.449 292.574 507.909 292.467C509.369 292.361 510.464 292.376 511.194 292.376C512.247 292.399 513.298 292.475 514.343 292.604C515.712 292.741 516.777 292.817 517.492 292.817H554.955C556.136 292.791 557.309 292.601 558.438 292.254C560.035 291.798 560.872 291.281 560.918 290.733C561.292 293.04 561.541 295.366 561.663 297.7C561.591 298.597 561.369 299.476 561.009 300.301C560.333 300 559.69 299.627 559.092 299.191C558.498 298.732 557.774 298.471 557.024 298.445H507.377C505.899 298.379 504.419 298.523 502.981 298.871C502.171 299.583 501.283 300.201 500.334 300.712Z" fill="url(#paint4_linear_669_34085)"/>
<path d="M500.334 313.336C500.211 312.72 500.155 312.093 500.167 311.465C500.167 310.887 500.41 308.165 500.912 303.328C501.414 303.738 502.205 304.362 503.315 305.183H504.639C505.353 305.183 506.449 305.183 507.909 305.092C509.369 305.001 510.464 305.001 511.194 305.001C511.924 305.001 512.959 305.001 514.343 305.214C515.388 305.343 516.439 305.419 517.491 305.442H554.955C556.136 305.408 557.307 305.219 558.438 304.879C560.035 304.423 560.872 303.906 560.918 303.358C561.292 305.66 561.541 307.98 561.663 310.309C561.591 311.212 561.37 312.096 561.009 312.926C560.33 312.623 559.687 312.245 559.092 311.8C558.494 311.348 557.773 311.088 557.024 311.055H507.376C505.898 310.992 504.417 311.14 502.981 311.496C502.171 312.208 501.283 312.825 500.334 313.336Z" fill="url(#paint5_linear_669_34085)"/>
<path d="M91.8715 297C91.9877 297.612 92.0437 298.233 92.0388 298.856C92.0388 299.449 91.7954 302.157 91.2935 307.009C90.7915 306.598 90.0006 305.974 88.8902 305.138H87.5669C86.852 305.138 85.7568 305.138 84.2966 305.229C82.8364 305.32 81.7413 305.336 81.0112 305.336C79.9585 305.312 78.9076 305.236 77.8626 305.107C76.4784 304.97 75.4289 304.894 74.714 304.894H37.2506C36.0691 304.921 34.897 305.11 33.7674 305.457C32.1702 305.914 31.3337 306.431 31.288 306.978C30.9144 304.671 30.6656 302.346 30.5427 300.012C30.6165 299.11 30.8374 298.226 31.1968 297.396C31.8664 297.707 32.5034 298.084 33.0981 298.521C33.6998 298.977 34.4273 299.238 35.1819 299.267H84.829C86.308 299.336 87.7891 299.187 89.2248 298.825C90.0365 298.121 90.9242 297.508 91.8715 297Z" fill="url(#paint6_linear_669_34085)"/>
<path d="M31.6074 268.085C32.5061 269.013 33.4776 269.867 34.5126 270.64C35.7903 271.218 39.7906 272.739 46.5289 275.203C50.24 276.688 54.0337 277.958 57.8911 279.006C58.4995 279.006 63.3618 277.759 72.478 275.264C81.3203 272.861 86.5426 271.391 88.1448 270.853C89.0586 270.505 89.8994 269.989 90.6241 269.332C91.1202 268.855 91.6777 268.445 92.282 268.115C92.2358 268.799 92.2358 269.485 92.282 270.169V272.161C92.3643 274.025 92.1695 275.891 91.704 277.698C90.9111 277.296 90.0585 277.023 89.1791 276.892C88.7634 276.892 85.5742 277.759 79.6117 279.493C73.8621 281.151 70.4094 282.261 69.2381 282.794V282.915C69.2381 283.037 69.3294 283.143 69.4967 283.219C70.9265 283.889 74.2677 285.177 79.5204 287.083C82.6105 288.357 85.8003 289.375 89.0574 290.125C89.9629 289.999 90.8509 289.769 91.704 289.441C91.7718 289.812 91.8024 290.189 91.7953 290.566C91.7953 291.104 91.7649 291.91 91.704 292.985C91.704 294.065 91.704 294.871 91.704 295.418C91.6026 294.465 90.8269 293.705 89.3768 293.137C87.9268 292.569 83.3636 290.967 75.6874 288.33C67.6258 285.501 63.4277 284.102 63.0931 284.102C62.3123 284.102 55.4574 286.069 42.5285 290.003L36.7333 291.524C34.8975 291.944 33.1712 292.747 31.6682 293.882C31.2925 292.208 31.0735 290.502 31.0142 288.786C31.0142 288.954 31.3184 287.615 31.9268 284.756C32.154 285.092 32.4632 285.365 32.8251 285.548C33.1871 285.732 33.5898 285.82 33.9954 285.805C37.174 285.258 40.3062 284.47 43.3651 283.448C46.5922 282.608 49.7709 281.593 52.8869 280.405C51.6542 279.736 50.3847 279.137 49.0842 278.611C47.8066 278.104 45.236 277.171 41.3725 275.812C38.97 274.875 36.505 274.108 33.9954 273.515C33.5543 273.515 32.8394 274.017 31.8355 275.036C31.3436 273.852 31.0655 272.591 31.0142 271.31C31.1088 270.218 31.3074 269.139 31.6074 268.085Z" fill="url(#paint7_linear_669_34085)"/>
<path d="M67.2152 159.482C67.5915 160.714 68.0645 161.914 68.6297 163.072C69.4967 164.182 72.3563 167.361 77.2389 172.624C79.8454 175.646 82.6342 178.506 85.5894 181.187C86.137 181.476 91.0196 182.602 100.268 184.564C109.221 186.481 114.535 187.566 116.208 187.819C117.181 187.929 118.167 187.857 119.113 187.606C119.772 187.395 120.46 187.288 121.152 187.287C120.786 187.868 120.471 188.478 120.209 189.112L119.296 190.877C118.52 192.571 117.495 194.14 116.254 195.531C115.733 194.812 115.102 194.181 114.383 193.66C114.018 193.467 110.783 192.778 104.679 191.591C98.8074 190.435 95.2329 189.827 93.9552 189.766V189.873C93.9232 189.938 93.9134 190.012 93.9271 190.083C93.9408 190.154 93.9774 190.219 94.0313 190.268C95.0047 191.515 97.3776 194.192 101.18 198.284C103.325 200.82 105.67 203.18 108.192 205.342C109.06 205.642 109.957 205.846 110.869 205.95C110.745 206.299 110.598 206.64 110.428 206.969C110.17 207.456 109.789 208.156 109.242 209.099C108.694 210.042 108.299 210.726 108.055 211.213C108.186 210.661 108.159 210.084 107.979 209.547C107.799 209.009 107.473 208.533 107.036 208.171C106.022 207.015 102.706 203.501 97.0886 197.63C91.2072 191.424 88.1195 188.245 87.8254 188.093C87.1358 187.748 80.1441 186.359 66.8501 183.925C64.9032 183.484 62.941 183.058 60.9789 182.648C59.1559 182.171 57.2506 182.098 55.3966 182.435C55.8266 180.771 56.4123 179.152 57.1458 177.598C57.1458 177.75 57.952 176.685 59.8077 174.419C59.8556 174.822 60.0049 175.206 60.2417 175.536C60.4784 175.866 60.7948 176.13 61.1614 176.305C64.237 177.283 67.3853 178.015 70.5767 178.495C73.8422 179.203 77.1423 179.741 80.4635 180.108C79.6828 178.94 78.8293 177.822 77.9081 176.761C77.0107 175.727 75.155 173.719 72.3411 170.677C70.6334 168.742 68.7936 166.927 66.8349 165.247C65.9525 165.095 65.0448 165.217 64.2339 165.597C64.3328 164.316 64.6626 163.064 65.2074 161.901C65.8062 161.038 66.4779 160.229 67.2152 159.482Z" fill="url(#paint8_linear_669_34085)"/>
<path d="M149.808 73.6644C149.571 74.955 149.434 76.2619 149.397 77.5735C149.656 78.9425 150.751 83.0949 152.637 90.0005C153.569 93.8875 154.727 97.7169 156.105 101.469C156.47 101.956 160.298 105.206 167.589 111.219C174.687 117.04 178.906 120.447 180.244 121.441C181.055 121.992 181.964 122.385 182.921 122.597C183.598 122.72 184.254 122.94 184.868 123.251C184.28 123.601 183.72 123.998 183.195 124.437L181.568 125.578C180.091 126.719 178.456 127.642 176.716 128.316C176.58 127.434 176.314 126.578 175.925 125.776C175.681 125.441 173.146 123.342 168.319 119.478C165.538 117.146 162.639 114.958 159.634 112.923H159.543C159.436 112.923 159.406 113.12 159.436 113.303C159.72 114.854 160.603 118.322 162.083 123.707C162.837 126.968 163.855 130.162 165.125 133.259C165.761 133.919 166.464 134.511 167.224 135.024C166.959 135.289 166.668 135.529 166.357 135.738C165.916 136.043 165.247 136.499 164.334 137.077C163.422 137.655 162.813 138.096 162.311 138.4C162.69 137.967 162.938 137.436 163.026 136.868C163.115 136.3 163.041 135.719 162.813 135.191C162.448 133.7 161.125 129.056 158.843 121.258C156.481 113.044 155.203 108.801 155.01 108.527C154.574 107.908 148.997 103.452 138.279 95.1569C136.758 93.8792 135.237 92.5863 133.715 91.3238C132.322 90.0659 130.672 89.1264 128.879 88.5707C130.022 87.2875 131.285 86.1161 132.651 85.0723C132.514 85.1788 133.792 84.6464 136.469 83.5513C136.326 83.9312 136.282 84.3411 136.34 84.7427C136.399 85.1443 136.558 85.5246 136.803 85.848C139.087 88.1275 141.543 90.2277 144.15 92.13C146.699 94.2418 149.354 96.2217 152.105 98.0621C151.944 96.6647 151.7 95.2781 151.375 93.9096C151.04 92.5863 150.325 89.9549 149.2 86.0001C148.57 83.5002 147.773 81.0457 146.812 78.6535C146.553 78.2884 145.732 77.9994 144.348 77.7561C145.027 76.6656 145.898 75.7072 146.918 74.9269C147.842 74.4213 148.809 73.9988 149.808 73.6644Z" fill="url(#paint9_linear_669_34085)"/>
<path d="M194.694 115.767C194.266 116.221 193.792 116.629 193.28 116.984C192.793 117.319 190.43 118.688 186.192 121.091C186.192 120.437 186.298 119.433 186.329 118.049L185.568 116.969C185.142 116.376 184.488 115.448 183.591 114.337C182.693 113.227 182.07 112.314 181.629 111.721C181.187 111.128 180.67 110.2 179.986 109.029C179.301 107.858 178.754 106.915 178.343 106.337L156.668 75.7636C155.973 74.8074 155.143 73.9569 154.204 73.2386C152.911 72.1891 152.014 71.824 151.497 72.113C153.172 70.503 154.928 68.98 156.759 67.5499C157.538 67.093 158.386 66.7643 159.269 66.5764C159.405 67.3035 159.466 68.0425 159.452 68.7819C159.431 69.5352 159.638 70.2771 160.045 70.9114L188.61 111.356C189.456 112.609 190.481 113.732 191.652 114.687C192.702 114.936 193.722 115.298 194.694 115.767Z" fill="url(#paint10_linear_669_34085)"/>
<path d="M481.914 380.065C482.117 379.471 482.371 378.895 482.675 378.346C482.948 377.844 484.485 375.593 487.238 371.577C487.466 372.186 487.877 373.098 488.44 374.376L489.611 375.015C490.234 375.349 491.208 375.851 492.516 376.536C493.824 377.22 494.798 377.692 495.436 378.057C496.075 378.422 496.957 378.985 498.083 379.776C499.209 380.567 500.121 381.129 500.745 381.479L533.569 399.549C534.619 400.086 535.733 400.485 536.885 400.736C538.512 401.101 539.486 401.055 539.821 400.569C539.028 402.768 538.124 404.925 537.113 407.033C536.609 407.782 535.988 408.445 535.273 408.995C534.835 408.4 534.458 407.763 534.147 407.094C533.82 406.403 533.289 405.83 532.626 405.451L489.124 381.51C487.861 380.74 486.493 380.156 485.063 379.776C484.027 379.988 482.971 380.085 481.914 380.065Z" fill="url(#paint11_linear_669_34085)"/>
<path d="M516.336 443.553C515.934 442.511 515.335 441.555 514.571 440.739C513.917 440.101 512.381 438.686 510.008 436.526C507.635 434.366 503.924 431.157 499.087 426.959C497.819 425.945 496.009 424.363 493.657 422.213C493.161 421.578 492.628 420.974 492.06 420.403C491.042 419.392 489.965 418.443 488.835 417.559C486.31 415.531 483.268 412.914 479.709 409.71C476.773 407.018 473.837 404.325 470.887 401.664C470.941 400.679 471.211 399.718 471.678 398.85C472.216 397.975 472.901 397.198 473.701 396.553C475.982 396.999 478.72 397.699 481.914 398.652C484.642 399.443 487.349 400.249 490.037 401.07C491.375 401.283 493.337 401.679 495.923 402.242C501.774 403.854 510.596 406.272 522.389 409.497C522.511 409.497 523.986 409.999 526.8 410.942C528.172 411.472 529.61 411.81 531.075 411.946C531.618 411.952 532.15 411.787 532.596 411.474C533.387 411.064 533.873 410.836 534.025 410.775L535.105 411.368V411.52C534.869 411.919 534.577 412.283 534.238 412.6C533.914 412.904 533.628 413.246 533.387 413.619C533.007 414.366 532.682 415.138 532.413 415.931C532.143 416.697 531.823 417.444 531.455 418.167C531.131 418.573 530.699 418.879 530.208 419.049C529.666 418.459 529.087 417.906 528.474 417.391C527.791 417.151 527.08 416.998 526.359 416.935L523.865 416.479C518.724 415.15 512.132 413.355 504.091 411.094C493.231 408.052 486.599 406.176 484.196 405.466C482.556 405.06 480.879 404.825 479.192 404.767C479.11 405.476 480.956 407.393 484.728 410.516C486.969 412.311 489.773 414.78 493.14 417.924C497.475 421.863 500.243 424.388 501.475 425.529C501.83 425.813 504.405 428.176 509.202 432.617C513.522 436.602 515.788 438.701 516.031 438.792C517.054 439.215 518.203 439.215 519.226 438.792C518.915 440.202 518.403 441.56 517.705 442.823C517.581 443.065 517.428 443.29 517.248 443.493C516.944 443.43 516.629 443.451 516.336 443.553Z" fill="url(#paint12_linear_669_34085)"/>
<path d="M419.566 532.732C419.722 531.625 419.655 530.498 419.369 529.417C419.11 528.534 418.456 526.557 417.391 523.5C416.327 520.442 414.684 515.894 412.433 509.81C411.824 508.299 411.003 506.043 409.969 503.042C409.845 502.244 409.668 501.457 409.436 500.684C409.024 499.302 408.515 497.95 407.915 496.638C406.698 493.596 405.299 489.839 403.717 485.367C402.46 481.595 401.177 477.828 399.869 474.066C400.398 473.228 401.104 472.517 401.937 471.982C402.828 471.471 403.801 471.121 404.812 470.947C406.592 472.468 408.645 474.37 410.988 476.743C412.995 478.735 414.973 480.758 416.95 482.827C418.015 483.648 419.536 484.941 421.513 486.69C425.884 490.929 432.45 497.302 441.211 505.81C441.302 505.81 442.367 507.011 444.39 509.187C445.334 510.315 446.43 511.308 447.645 512.137C448.108 512.394 448.64 512.5 449.166 512.442C449.674 512.441 450.182 512.467 450.687 512.518L451.356 513.567V513.704C450.947 513.927 450.513 514.1 450.063 514.221C449.634 514.331 449.22 514.494 448.831 514.708C448.137 515.168 447.476 515.676 446.854 516.229C446.254 516.783 445.613 517.292 444.937 517.75C444.457 517.952 443.929 518.01 443.416 517.917C443.218 517.14 442.98 516.373 442.701 515.621C442.202 515.102 441.657 514.628 441.074 514.206C439.872 513.263 439.218 512.685 439.097 512.609C435.233 508.979 430.305 504.218 424.312 498.326C416.281 490.386 411.373 485.549 409.588 483.815C408.355 482.657 406.998 481.637 405.542 480.773C405.132 481.351 405.816 483.922 407.626 488.47C408.706 491.117 409.984 494.554 411.429 499.011L415.079 509.658C415.252 510.074 416.372 513.39 418.441 519.606C420.296 525.158 421.3 528.063 421.483 528.291C422.168 529.144 423.164 529.691 424.251 529.812C423.288 530.897 422.171 531.835 420.935 532.596C420.705 532.741 420.46 532.864 420.205 532.961C420.011 532.841 419.793 532.763 419.566 532.732Z" fill="url(#paint13_linear_669_34085)"/>
<path d="M99.1572 365.995C97.7272 366.375 96.3594 366.959 95.096 367.729L51.6092 391.67C50.942 392.044 50.4097 392.619 50.0882 393.313C49.7811 393.985 49.4038 394.622 48.9626 395.214C48.2542 394.666 47.6424 394.003 47.1525 393.252C46.128 391.151 45.2241 388.992 44.4451 386.788C44.7645 387.275 45.7532 387.32 47.3655 386.955C48.5222 386.704 49.6418 386.306 50.6966 385.769L83.5208 367.699C84.4313 367.176 85.3147 366.607 86.1675 365.995C87.0226 365.378 87.9113 364.81 88.8293 364.291C89.4529 363.942 90.3504 363.44 91.7345 362.77C93.1187 362.101 94.0313 361.63 94.6549 361.249L95.8109 360.61C96.3889 359.348 96.7844 358.42 97.0278 357.812C99.7961 361.827 101.317 364.078 101.591 364.596C101.899 365.136 102.149 365.707 102.336 366.299C101.268 366.323 100.201 366.221 99.1572 365.995Z" fill="url(#paint14_linear_669_34085)"/>
<path d="M105.241 377.053C103.814 377.418 102.446 377.987 101.18 378.741L57.6934 402.713C57.0257 403.093 56.4939 403.673 56.1723 404.371C55.8586 405.042 55.4763 405.68 55.0315 406.272C54.3364 405.714 53.7311 405.052 53.2367 404.31C52.2265 402.204 51.3278 400.046 50.5444 397.846C50.8639 398.332 51.8525 398.378 53.4649 398.013C54.6216 397.762 55.7411 397.364 56.7959 396.827L89.6354 378.741C90.259 378.391 91.1564 377.829 92.282 377.038C93.1372 376.421 94.0258 375.852 94.9439 375.334C95.5675 374.984 96.4649 374.482 97.8491 373.813C99.2332 373.144 100.131 372.657 100.769 372.292L101.925 371.653C102.503 370.391 102.899 369.463 103.142 368.854C105.911 372.87 107.432 375.121 107.705 375.638C108.007 376.181 108.257 376.752 108.451 377.342C107.374 377.366 106.297 377.269 105.241 377.053Z" fill="url(#paint15_linear_669_34085)"/>
<path d="M111.326 388.111C109.896 388.491 108.528 389.075 107.264 389.845L63.7624 413.725C63.0935 414.104 62.5611 414.684 62.2413 415.383C61.9276 416.055 61.5453 416.692 61.1005 417.285C60.4143 416.739 59.8144 416.093 59.3209 415.368C58.3138 413.261 57.4152 411.103 56.6287 408.904C56.9481 409.375 57.9216 409.436 59.5491 409.071C60.7078 408.82 61.828 408.416 62.8802 407.869L95.7044 389.815C96.3281 389.465 97.2255 388.902 98.3511 388.111C99.4766 387.32 100.374 386.742 101.013 386.392C101.652 386.042 102.534 385.556 103.918 384.871C105.302 384.187 106.2 383.715 106.839 383.35L107.995 382.711C108.573 381.449 108.968 380.521 109.196 379.913C111.98 383.913 113.501 386.179 113.759 386.681C114.061 387.23 114.311 387.805 114.505 388.4C113.438 388.422 112.371 388.325 111.326 388.111Z" fill="url(#paint16_linear_669_34085)"/>
<path d="M79.3531 451.889C79.1684 451.686 79.01 451.461 78.8816 451.219C78.1758 449.959 77.6631 448.601 77.3605 447.189C78.3799 447.602 79.5202 447.602 80.5395 447.189C80.7829 447.047 83.0594 444.988 87.369 441.013C92.1756 436.572 94.7613 434.214 95.096 433.925L103.431 426.32C106.808 423.171 109.622 420.707 111.843 418.912C115.615 415.799 117.466 413.883 117.395 413.163C115.702 413.221 114.019 413.455 112.375 413.862C109.972 414.532 103.34 416.408 92.4798 419.49C84.3675 421.752 77.7763 423.546 72.7061 424.875C72.5388 424.875 71.7174 425.072 70.2116 425.316C69.4935 425.397 68.7852 425.55 68.0974 425.772C68.0061 425.772 67.4281 426.381 66.3634 427.445C65.8723 427.276 65.4397 426.97 65.1161 426.563C64.7519 425.835 64.4368 425.083 64.173 424.312C63.8949 423.528 63.5699 422.761 63.1996 422.015C62.9537 421.645 62.6681 421.304 62.3478 420.996C62.01 420.674 61.7136 420.311 61.4656 419.916V419.81L62.5607 419.216C62.7128 419.216 63.1844 419.505 63.9753 419.916C64.4186 420.231 64.953 420.391 65.4964 420.372C66.9614 420.251 68.401 419.918 69.7705 419.384C72.5997 418.441 74.0751 417.954 74.1816 417.939L100.541 410.683C103.142 410.121 105.104 409.725 106.428 409.512C109.135 408.691 111.848 407.885 114.565 407.094C117.76 406.14 120.492 405.441 122.764 404.995C123.564 405.634 124.248 406.406 124.787 407.276C125.258 408.148 125.528 409.115 125.578 410.105C122.642 412.767 119.691 415.459 116.771 418.152C113.212 421.331 110.185 423.947 107.645 426C106.508 426.876 105.431 427.826 104.42 428.845C103.849 429.412 103.31 430.011 102.808 430.64C100.465 432.799 98.6603 434.386 97.3928 435.4C92.5051 439.599 88.8647 442.788 86.4716 444.968C84.0684 447.128 82.5473 448.542 81.9085 449.181C81.1451 449.997 80.546 450.953 80.1441 451.995C79.8924 451.898 79.6215 451.862 79.3531 451.889Z" fill="url(#paint17_linear_669_34085)"/>
<path d="M169.247 461.806C168.179 462.832 167.262 464.004 166.525 465.289L139.937 507.224C139.555 507.877 139.385 508.631 139.45 509.384C139.526 510.118 139.526 510.857 139.45 511.59C138.558 511.453 137.694 511.171 136.894 510.753C134.986 509.399 133.153 507.942 131.403 506.388C131.936 506.662 132.803 506.236 134.05 505.125C134.953 504.36 135.742 503.468 136.392 502.479L156.44 470.841C156.993 469.939 157.501 469.01 157.961 468.057C158.42 467.109 158.928 466.185 159.482 465.289C159.862 464.681 160.471 463.768 161.307 462.566C162.144 461.365 162.828 460.452 163.148 459.859L163.847 458.733C163.741 457.349 163.65 456.345 163.558 455.691C167.924 457.866 170.342 459.114 170.844 459.418C171.388 459.747 171.897 460.129 172.365 460.559C171.38 461.098 170.333 461.516 169.247 461.806Z" fill="url(#paint18_linear_669_34085)"/>
<path d="M179.895 468.574C178.832 469.596 177.92 470.764 177.187 472.042L150.584 513.978C150.215 514.635 150.05 515.387 150.112 516.138C150.189 516.871 150.189 517.61 150.112 518.343C149.22 518.207 148.357 517.924 147.557 517.507C145.649 516.152 143.816 514.695 142.066 513.141C142.583 513.415 143.465 512.989 144.713 511.879C145.608 511.11 146.395 510.225 147.055 509.247L167.042 477.609C167.427 477.001 167.934 476.073 168.563 474.826C169.016 473.875 169.524 472.95 170.084 472.058C170.464 471.449 171.072 470.537 171.909 469.335C172.746 468.133 173.43 467.221 173.734 466.628C174.039 466.034 174.236 465.821 174.449 465.502C174.343 464.118 174.236 463.114 174.16 462.46C178.526 464.635 180.944 465.882 181.446 466.186C181.99 466.515 182.499 466.897 182.967 467.327C181.991 467.854 180.961 468.272 179.895 468.574Z" fill="url(#paint19_linear_669_34085)"/>
<path d="M182.632 539.866C182.372 539.782 182.126 539.659 181.902 539.501C180.664 538.745 179.546 537.806 178.586 536.718C179.673 536.592 180.666 536.046 181.355 535.197C181.507 534.968 182.511 532.063 184.397 526.511C186.465 520.29 187.591 516.99 187.743 516.564C188.291 515.012 189.513 511.463 191.409 505.916C192.859 501.536 194.126 498.022 195.212 495.375C197.006 490.832 197.701 488.262 197.295 487.664C195.84 488.527 194.483 489.547 193.249 490.706C191.455 492.46 186.547 497.297 178.526 505.217C172.533 511.118 167.604 515.879 163.741 519.499C163.619 519.621 162.95 520.153 161.764 521.096C161.176 521.514 160.631 521.988 160.136 522.511C160.136 522.617 159.832 523.378 159.421 524.808C158.909 524.903 158.38 524.845 157.9 524.64C157.227 524.178 156.586 523.67 155.984 523.119C155.362 522.572 154.707 522.064 154.022 521.598C153.633 521.385 153.219 521.221 152.789 521.112C152.337 520.998 151.903 520.824 151.497 520.594V520.458L152.166 519.408C152.333 519.408 152.866 519.408 153.687 519.332C154.213 519.389 154.744 519.282 155.208 519.028C156.42 518.201 157.515 517.213 158.463 516.092C160.486 513.902 161.505 512.776 161.642 512.7C170.413 504.203 176.979 497.829 181.34 493.581C183.317 491.831 184.853 490.538 185.903 489.717C187.87 487.689 189.857 485.661 191.865 483.633C194.208 481.26 196.266 479.328 198.041 477.838C199.05 478.018 200.022 478.368 200.915 478.872C201.745 479.407 202.446 480.119 202.969 480.956C201.681 484.708 200.398 488.475 199.121 492.257C197.559 496.76 196.16 500.517 194.923 503.528C194.328 504.842 193.82 506.194 193.401 507.574C193.167 508.347 192.984 509.135 192.854 509.932C191.835 512.974 191.013 515.195 190.405 516.716C188.154 522.739 186.501 527.302 185.446 530.405C184.382 533.447 183.728 535.44 183.469 536.322C183.183 537.403 183.116 538.531 183.271 539.638C183.044 539.665 182.826 539.743 182.632 539.866Z" fill="url(#paint20_linear_669_34085)"/>
<path d="M481.899 204.52C483.329 204.141 484.697 203.557 485.96 202.786L529.462 178.845C530.126 178.466 530.656 177.893 530.983 177.202C531.29 176.531 531.667 175.893 532.109 175.301C532.824 175.852 533.446 176.514 533.949 177.263C534.96 179.371 535.864 181.529 536.657 183.728C536.322 183.241 535.349 183.195 533.721 183.56C532.569 183.811 531.455 184.21 530.405 184.747L497.581 202.817C496.665 203.339 495.777 203.907 494.919 204.52C494.066 205.133 493.183 205.701 492.273 206.224C491.634 206.574 490.675 207.076 489.352 207.745C488.029 208.414 487.071 208.886 486.447 209.266L485.215 209.905C484.652 211.167 484.257 212.095 484.013 212.704C481.245 208.688 479.709 206.437 479.45 205.92C479.144 205.377 478.89 204.806 478.69 204.216C479.768 204.188 480.845 204.291 481.899 204.52Z" fill="url(#paint21_linear_669_34085)"/>
<path d="M475.815 193.462C477.245 193.082 478.613 192.498 479.876 191.728L523.378 167.787C524.041 167.408 524.572 166.835 524.899 166.144C525.21 165.475 525.587 164.838 526.024 164.243C526.74 164.793 527.361 165.456 527.865 166.205C528.883 168.31 529.786 170.468 530.572 172.67C530.238 172.183 529.264 172.137 527.637 172.502C526.485 172.753 525.371 173.152 524.321 173.689L491.497 191.759C490.873 192.109 489.976 192.671 488.835 193.462C487.694 194.253 486.812 194.831 486.188 195.181C485.565 195.531 484.591 196.018 483.268 196.702C481.945 197.387 480.986 197.843 480.363 198.223L479.191 198.862C478.629 200.125 478.233 201.052 477.99 201.661C475.222 197.645 473.685 195.394 473.427 194.877C473.119 194.337 472.869 193.766 472.681 193.173C473.734 193.146 474.785 193.243 475.815 193.462Z" fill="url(#paint22_linear_669_34085)"/>
<path d="M412.919 125.152C414.027 124.167 414.99 123.03 415.779 121.775L444.01 80.9351C444.413 80.3005 444.61 79.5566 444.572 78.8056C444.548 78.0666 444.604 77.3271 444.74 76.6001C445.626 76.7774 446.479 77.0958 447.265 77.5431C449.111 78.9661 450.878 80.4894 452.558 82.1063C452.056 81.8173 451.159 82.1976 449.866 83.2623C448.949 84.0008 448.131 84.8546 447.432 85.8025L426.137 116.634C425.742 117.212 425.194 118.155 424.525 119.342C423.856 120.528 423.323 121.471 423.004 122.049C422.684 122.627 421.939 123.57 421.057 124.696C420.175 125.821 419.536 126.749 419.125 127.342C418.715 127.936 418.578 128.103 418.365 128.422C418.365 129.806 418.471 130.826 418.532 131.464C414.253 129.122 411.88 127.783 411.414 127.449C410.893 127.098 410.408 126.695 409.969 126.247C410.907 125.77 411.897 125.402 412.919 125.152Z" fill="#E30611"/>
<path d="M283.098 559.746C283.821 558.891 284.374 557.905 284.725 556.841C284.969 555.959 285.471 553.936 286.246 550.757C287.022 547.578 288.026 542.893 289.288 536.596C289.577 534.984 290.095 532.641 290.81 529.538C291.133 528.798 291.402 528.036 291.616 527.257C292.023 525.885 292.338 524.488 292.559 523.074C293.137 519.88 293.963 515.955 295.038 511.301C295.991 507.437 296.924 503.569 297.837 499.695C298.731 499.272 299.707 499.049 300.696 499.041C301.741 499.081 302.77 499.302 303.738 499.695C304.448 501.916 305.153 504.654 305.853 507.909C306.476 510.677 307.085 513.43 307.663 516.199C308.119 517.461 308.712 519.378 309.458 521.918C310.877 527.84 313.012 536.738 315.861 548.612C315.861 548.719 316.196 550.24 316.728 553.175C316.921 554.634 317.321 556.058 317.915 557.404C318.165 557.875 318.559 558.253 319.04 558.484C319.786 558.986 320.211 559.29 320.348 559.396V560.644H320.211C319.747 560.622 319.286 560.54 318.842 560.4C318.424 560.263 317.989 560.181 317.55 560.157C316.713 560.178 315.88 560.259 315.055 560.4C314.256 560.539 313.447 560.62 312.637 560.644C312.125 560.568 311.648 560.34 311.268 559.99C311.678 558.469 311.891 557.769 311.891 557.662C311.75 556.955 311.541 556.262 311.268 555.594C310.766 554.149 310.492 553.358 310.461 553.191C309.123 548.049 307.506 541.392 305.609 533.219C303.084 522.217 301.528 515.499 300.94 513.065C300.515 511.433 299.913 509.852 299.145 508.35C298.476 508.624 297.7 511.164 296.787 515.955C296.28 518.774 295.469 522.42 294.354 526.892C292.985 532.596 292.118 536.231 291.737 537.843C291.656 538.279 290.83 541.676 289.258 548.034C287.849 553.723 287.144 556.709 287.144 556.993C287.263 558.094 287.809 559.105 288.665 559.807C287.27 560.206 285.826 560.401 284.375 560.385C284.105 560.385 283.835 560.359 283.569 560.309C283.539 560.294 283.402 560.081 283.098 559.746Z" fill="url(#paint23_linear_669_34085)"/>
<path d="M269.058 498.98C269.671 498.87 270.292 498.819 270.914 498.828C271.507 498.828 274.215 499.071 279.067 499.573C278.656 500.06 278.033 500.866 277.196 501.977V503.3C277.196 504.015 277.196 505.11 277.287 506.57C277.379 508.03 277.379 509.126 277.379 509.841C277.363 510.893 277.292 511.944 277.166 512.989C277.029 514.373 276.953 515.423 276.953 516.138V553.662C276.98 554.843 277.17 556.015 277.516 557.145C277.972 558.742 278.489 559.564 279.037 559.625C276.73 559.998 274.404 560.247 272.07 560.37C271.168 560.289 270.284 560.063 269.454 559.701C269.768 559.033 270.145 558.396 270.58 557.799C271.036 557.203 271.296 556.481 271.325 555.731V506.038C271.388 504.559 271.239 503.079 270.884 501.642C270.18 500.824 269.567 499.932 269.058 498.98Z" fill="url(#paint24_linear_669_34085)"/>
<path d="M295.008 0V14.3131" stroke="url(#paint25_linear_669_34085)" stroke-width="1.5" stroke-miterlimit="10"/>
<path d="M264.176 1.6123L265.667 15.8493" stroke="url(#paint26_linear_669_34085)" stroke-width="1.5" stroke-miterlimit="10"/>
<path d="M233.679 6.44922L236.66 20.4429" stroke="url(#paint27_linear_669_34085)" stroke-width="1.5" stroke-miterlimit="10"/>
<path d="M203.851 14.4348L208.277 28.0482" stroke="url(#paint28_linear_669_34085)" stroke-width="1.5" stroke-miterlimit="10"/>
<path d="M175.027 25.4928L180.838 38.5738" stroke="url(#paint29_linear_669_34085)" stroke-width="1.5" stroke-miterlimit="10"/>
<path d="M147.511 39.5168L154.66 51.9134" stroke="url(#paint30_linear_669_34085)" stroke-width="1.5" stroke-miterlimit="10"/>
<path d="M121.608 56.3397L130.019 67.9149" stroke="url(#paint31_linear_669_34085)" stroke-width="1.5" stroke-miterlimit="10"/>
<path d="M97.621 75.7634L107.188 86.3956" stroke="url(#paint32_linear_669_34085)" stroke-width="1.5" stroke-miterlimit="10"/>
<path d="M75.7787 97.5906L86.4108 107.173" stroke="url(#paint33_linear_669_34085)" stroke-width="1.5" stroke-miterlimit="10"/>
<path d="M56.3397 121.593L67.9301 130.004" stroke="url(#paint34_linear_669_34085)" stroke-width="1.5" stroke-miterlimit="10"/>
<path d="M39.5321 147.496L51.9287 154.645" stroke="url(#paint35_linear_669_34085)" stroke-width="1.5" stroke-miterlimit="10"/>
<path d="M25.5081 174.997L38.5891 180.822" stroke="url(#paint36_linear_669_34085)" stroke-width="1.5" stroke-miterlimit="10"/>
<path d="M14.4348 203.821L28.0482 208.247" stroke="url(#paint37_linear_669_34085)" stroke-width="1.5" stroke-miterlimit="10"/>
<path d="M6.44922 233.648L20.4429 236.63" stroke="url(#paint38_linear_669_34085)" stroke-width="1.5" stroke-miterlimit="10"/>
<path d="M1.6123 264.146L15.8493 265.651" stroke="url(#paint39_linear_669_34085)" stroke-width="1.5" stroke-miterlimit="10"/>
<path d="M0 294.992H14.3131" stroke="url(#paint40_linear_669_34085)" stroke-width="1.5" stroke-miterlimit="10"/>
<path d="M1.6123 325.824L15.8493 324.333" stroke="url(#paint41_linear_669_34085)" stroke-width="1.5" stroke-miterlimit="10"/>
<path d="M6.44922 356.321L20.4429 353.34" stroke="url(#paint42_linear_669_34085)" stroke-width="1.5" stroke-miterlimit="10"/>
<path d="M14.4348 386.149L28.0482 381.723" stroke="url(#paint43_linear_669_34085)" stroke-width="1.5" stroke-miterlimit="10"/>
<path d="M25.4928 414.973L38.5738 409.147" stroke="url(#paint44_linear_669_34085)" stroke-width="1.5" stroke-miterlimit="10"/>
<path d="M39.5168 442.488L51.9134 435.34" stroke="url(#paint45_linear_669_34085)" stroke-width="1.5" stroke-miterlimit="10"/>
<path d="M56.3397 468.392L67.9149 459.981" stroke="url(#paint46_linear_669_34085)" stroke-width="1.5" stroke-miterlimit="10"/>
<path d="M75.7634 492.379L86.3956 482.812" stroke="url(#paint47_linear_669_34085)" stroke-width="1.5" stroke-miterlimit="10"/>
<path d="M97.5906 514.221L107.173 503.589" stroke="url(#paint48_linear_669_34085)" stroke-width="1.5" stroke-miterlimit="10"/>
<path d="M121.593 533.645L130.004 522.07" stroke="url(#paint49_linear_669_34085)" stroke-width="1.5" stroke-miterlimit="10"/>
<path d="M147.496 550.468L154.645 538.071" stroke="url(#paint50_linear_669_34085)" stroke-width="1.5" stroke-miterlimit="10"/>
<path d="M174.997 564.492L180.822 551.411" stroke="url(#paint51_linear_669_34085)" stroke-width="1.5" stroke-miterlimit="10"/>
<path d="M203.821 575.55L208.247 561.952" stroke="url(#paint52_linear_669_34085)" stroke-width="1.5" stroke-miterlimit="10"/>
<path d="M233.648 583.551L236.63 569.557" stroke="url(#paint53_linear_669_34085)" stroke-width="1.5" stroke-miterlimit="10"/>
<path d="M264.146 588.388L265.651 574.151" stroke="url(#paint54_linear_669_34085)" stroke-width="1.5" stroke-miterlimit="10"/>
<path d="M294.992 590V575.687" stroke="url(#paint55_linear_669_34085)" stroke-width="1.5" stroke-miterlimit="10"/>
<path d="M325.824 588.388L324.333 574.151" stroke="url(#paint56_linear_669_34085)" stroke-width="1.5" stroke-miterlimit="10"/>
<path d="M356.321 583.551L353.34 569.557" stroke="url(#paint57_linear_669_34085)" stroke-width="1.5" stroke-miterlimit="10"/>
<path d="M386.149 575.565L381.723 561.952" stroke="url(#paint58_linear_669_34085)" stroke-width="1.5" stroke-miterlimit="10"/>
<path d="M414.973 564.507L409.147 551.426" stroke="url(#paint59_linear_669_34085)" stroke-width="1.5" stroke-miterlimit="10"/>
<path d="M442.489 550.483L435.34 538.086" stroke="url(#paint60_linear_669_34085)" stroke-width="1.5" stroke-miterlimit="10"/>
<path d="M468.392 533.66L459.981 522.085" stroke="url(#paint61_linear_669_34085)" stroke-width="1.5" stroke-miterlimit="10"/>
<path d="M492.379 514.236L482.812 503.604" stroke="url(#paint62_linear_669_34085)" stroke-width="1.5" stroke-miterlimit="10"/>
<path d="M514.221 492.409L503.589 482.827" stroke="url(#paint63_linear_669_34085)" stroke-width="1.5" stroke-miterlimit="10"/>
<path d="M533.645 468.407L522.07 459.996" stroke="url(#paint64_linear_669_34085)" stroke-width="1.5" stroke-miterlimit="10"/>
<path d="M550.468 442.504L538.071 435.355" stroke="url(#paint65_linear_669_34085)" stroke-width="1.5" stroke-miterlimit="10"/>
<path d="M564.492 415.003L551.411 409.178" stroke="url(#paint66_linear_669_34085)" stroke-width="1.5" stroke-miterlimit="10"/>
<path d="M575.55 386.164L561.952 381.753" stroke="url(#paint67_linear_669_34085)" stroke-width="1.5" stroke-miterlimit="10"/>
<path d="M583.551 356.352L569.557 353.37" stroke="url(#paint68_linear_669_34085)" stroke-width="1.5" stroke-miterlimit="10"/>
<path d="M588.388 325.854L574.151 324.349" stroke="url(#paint69_linear_669_34085)" stroke-width="1.5" stroke-miterlimit="10"/>
<path d="M590 295.008H575.687" stroke="url(#paint70_linear_669_34085)" stroke-width="1.5" stroke-miterlimit="10"/>
<path d="M588.388 264.176L574.151 265.667" stroke="url(#paint71_linear_669_34085)" stroke-width="1.5" stroke-miterlimit="10"/>
<path d="M583.551 233.679L569.557 236.66" stroke="url(#paint72_linear_669_34085)" stroke-width="1.5" stroke-miterlimit="10"/>
<path d="M575.565 203.851L561.952 208.277" stroke="url(#paint73_linear_669_34085)" stroke-width="1.5" stroke-miterlimit="10"/>
<path d="M564.507 175.027L551.426 180.837" stroke="url(#paint74_linear_669_34085)" stroke-width="1.5" stroke-miterlimit="10"/>
<path d="M550.483 147.511L538.087 154.66" stroke="url(#paint75_linear_669_34085)" stroke-width="1.5" stroke-miterlimit="10"/>
<path d="M533.66 121.608L522.085 130.019" stroke="url(#paint76_linear_669_34085)" stroke-width="1.5" stroke-miterlimit="10"/>
<path d="M514.236 97.621L503.604 107.188" stroke="url(#paint77_linear_669_34085)" stroke-width="1.5" stroke-miterlimit="10"/>
<path d="M492.409 75.7787L482.827 86.4108" stroke="url(#paint78_linear_669_34085)" stroke-width="1.5" stroke-miterlimit="10"/>
<path d="M468.407 56.3397L459.996 67.9301" stroke="url(#paint79_linear_669_34085)" stroke-width="1.5" stroke-miterlimit="10"/>
<path d="M442.504 39.5321L435.355 51.9286" stroke="url(#paint80_linear_669_34085)" stroke-width="1.5" stroke-miterlimit="10"/>
<path d="M415.003 25.5081L409.178 38.5891" stroke="url(#paint81_linear_669_34085)" stroke-width="1.5" stroke-miterlimit="10"/>
<path d="M386.164 14.4348L381.753 28.0482" stroke="url(#paint82_linear_669_34085)" stroke-width="1.5" stroke-miterlimit="10"/>
<path d="M356.352 6.44922L353.37 20.4429" stroke="url(#paint83_linear_669_34085)" stroke-width="1.5" stroke-miterlimit="10"/>
<path d="M325.854 1.6123L324.349 15.8493" stroke="url(#paint84_linear_669_34085)" stroke-width="1.5" stroke-miterlimit="10"/>
<defs>
<linearGradient id="paint0_linear_669_34085" x1="-1631.37" y1="26500.1" x2="30813.2" y2="26500.1" gradientUnits="userSpaceOnUse">
<stop stop-color="#B47E11"/>
<stop offset="0.51" stop-color="#EAD98B"/>
<stop offset="1" stop-color="#B47E11"/>
</linearGradient>
<linearGradient id="paint1_linear_669_34085" x1="-400.247" y1="26591.4" x2="11526.3" y2="26591.4" gradientUnits="userSpaceOnUse">
<stop stop-color="#B47E11"/>
<stop offset="0.51" stop-color="#EAD98B"/>
<stop offset="1" stop-color="#B47E11"/>
</linearGradient>
<linearGradient id="paint2_linear_669_34085" x1="-387.559" y1="26591.4" x2="11539" y2="26591.4" gradientUnits="userSpaceOnUse">
<stop stop-color="#B47E11"/>
<stop offset="0.51" stop-color="#EAD98B"/>
<stop offset="1" stop-color="#B47E11"/>
</linearGradient>
<linearGradient id="paint3_linear_669_34085" x1="-3791.76" y1="4600.93" x2="69491.4" y2="4600.93" gradientUnits="userSpaceOnUse">
<stop stop-color="#B47E11"/>
<stop offset="0.51" stop-color="#EAD98B"/>
<stop offset="1" stop-color="#B47E11"/>
</linearGradient>
<linearGradient id="paint4_linear_669_34085" x1="-3791.77" y1="4613.62" x2="69491.5" y2="4613.62" gradientUnits="userSpaceOnUse">
<stop stop-color="#B47E11"/>
<stop offset="0.51" stop-color="#EAD98B"/>
<stop offset="1" stop-color="#B47E11"/>
</linearGradient>
<linearGradient id="paint5_linear_669_34085" x1="-3791.76" y1="4626.18" x2="69491.4" y2="4626.18" gradientUnits="userSpaceOnUse">
<stop stop-color="#B47E11"/>
<stop offset="0.51" stop-color="#EAD98B"/>
<stop offset="1" stop-color="#B47E11"/>
</linearGradient>
<linearGradient id="paint6_linear_669_34085" x1="-4261.29" y1="4619.89" x2="69020.2" y2="4619.89" gradientUnits="userSpaceOnUse">
<stop stop-color="#B47E11"/>
<stop offset="0.51" stop-color="#EAD98B"/>
<stop offset="1" stop-color="#B47E11"/>
</linearGradient>
<linearGradient id="paint7_linear_669_34085" x1="-4246.15" y1="12073.9" x2="68785" y2="12073.9" gradientUnits="userSpaceOnUse">
<stop stop-color="#B47E11"/>
<stop offset="0.51" stop-color="#EAD98B"/>
<stop offset="1" stop-color="#B47E11"/>
</linearGradient>
<linearGradient id="paint8_linear_669_34085" x1="-4533.64" y1="22503.1" x2="73822.6" y2="22503.1" gradientUnits="userSpaceOnUse">
<stop stop-color="#B47E11"/>
<stop offset="0.51" stop-color="#EAD98B"/>
<stop offset="1" stop-color="#B47E11"/>
</linearGradient>
<linearGradient id="paint9_linear_669_34085" x1="-3778.65" y1="28034.4" x2="62941.1" y2="28034.4" gradientUnits="userSpaceOnUse">
<stop stop-color="#B47E11"/>
<stop offset="0.51" stop-color="#EAD98B"/>
<stop offset="1" stop-color="#B47E11"/>
</linearGradient>
<linearGradient id="paint10_linear_669_34085" x1="-2863.28" y1="23612.4" x2="48613" y2="23612.4" gradientUnits="userSpaceOnUse">
<stop stop-color="#B47E11"/>
<stop offset="0.51" stop-color="#EAD98B"/>
<stop offset="1" stop-color="#B47E11"/>
</linearGradient>
<linearGradient id="paint11_linear_669_34085" x1="-3559.37" y1="16533.1" x2="65444.2" y2="16533.1" gradientUnits="userSpaceOnUse">
<stop stop-color="#B47E11"/>
<stop offset="0.51" stop-color="#EAD98B"/>
<stop offset="1" stop-color="#B47E11"/>
</linearGradient>
<linearGradient id="paint12_linear_669_34085" x1="-4010.94" y1="20697" x2="72514.7" y2="20697" gradientUnits="userSpaceOnUse">
<stop stop-color="#B47E11"/>
<stop offset="0.51" stop-color="#EAD98B"/>
<stop offset="1" stop-color="#B47E11"/>
</linearGradient>
<linearGradient id="paint13_linear_669_34085" x1="-3193.44" y1="27255.7" x2="58161.1" y2="27255.7" gradientUnits="userSpaceOnUse">
<stop stop-color="#B47E11"/>
<stop offset="0.51" stop-color="#EAD98B"/>
<stop offset="1" stop-color="#B47E11"/>
</linearGradient>
<linearGradient id="paint14_linear_669_34085" x1="-3995.78" y1="16512.8" x2="64989.6" y2="16512.8" gradientUnits="userSpaceOnUse">
<stop stop-color="#B47E11"/>
<stop offset="0.51" stop-color="#EAD98B"/>
<stop offset="1" stop-color="#B47E11"/>
</linearGradient>
<linearGradient id="paint15_linear_669_34085" x1="-3990.74" y1="16530.4" x2="65012.8" y2="16530.4" gradientUnits="userSpaceOnUse">
<stop stop-color="#B47E11"/>
<stop offset="0.51" stop-color="#EAD98B"/>
<stop offset="1" stop-color="#B47E11"/>
</linearGradient>
<linearGradient id="paint16_linear_669_34085" x1="-3982.53" y1="16521.7" x2="64984.8" y2="16521.7" gradientUnits="userSpaceOnUse">
<stop stop-color="#B47E11"/>
<stop offset="0.51" stop-color="#EAD98B"/>
<stop offset="1" stop-color="#B47E11"/>
</linearGradient>
<linearGradient id="paint17_linear_669_34085" x1="-4412.93" y1="20705.4" x2="71985.8" y2="20705.4" gradientUnits="userSpaceOnUse">
<stop stop-color="#B47E11"/>
<stop offset="0.51" stop-color="#EAD98B"/>
<stop offset="1" stop-color="#B47E11"/>
</linearGradient>
<linearGradient id="paint18_linear_669_34085" x1="-2727.33" y1="24599.4" x2="46084.5" y2="24599.4" gradientUnits="userSpaceOnUse">
<stop stop-color="#B47E11"/>
<stop offset="0.51" stop-color="#EAD98B"/>
<stop offset="1" stop-color="#B47E11"/>
</linearGradient>
<linearGradient id="paint19_linear_669_34085" x1="-2712.42" y1="24599.6" x2="46026.9" y2="24599.6" gradientUnits="userSpaceOnUse">
<stop stop-color="#B47E11"/>
<stop offset="0.51" stop-color="#EAD98B"/>
<stop offset="1" stop-color="#B47E11"/>
</linearGradient>
<linearGradient id="paint20_linear_669_34085" x1="-3440.75" y1="27269.2" x2="57895.7" y2="27269.2" gradientUnits="userSpaceOnUse">
<stop stop-color="#B47E11"/>
<stop offset="0.51" stop-color="#EAD98B"/>
<stop offset="1" stop-color="#B47E11"/>
</linearGradient>
<linearGradient id="paint21_linear_669_34085" x1="-3566.83" y1="16330.2" x2="65509.1" y2="16330.2" gradientUnits="userSpaceOnUse">
<stop stop-color="#B47E11"/>
<stop offset="0.51" stop-color="#EAD98B"/>
<stop offset="1" stop-color="#B47E11"/>
</linearGradient>
<linearGradient id="paint22_linear_669_34085" x1="-3567.54" y1="16325.8" x2="65417.8" y2="16325.8" gradientUnits="userSpaceOnUse">
<stop stop-color="#B47E11"/>
<stop offset="0.51" stop-color="#EAD98B"/>
<stop offset="1" stop-color="#B47E11"/>
</linearGradient>
<linearGradient id="paint23_linear_669_34085" x1="-2316.62" y1="27106.4" x2="42072.6" y2="27106.4" gradientUnits="userSpaceOnUse">
<stop stop-color="#B47E11"/>
<stop offset="0.51" stop-color="#EAD98B"/>
<stop offset="1" stop-color="#B47E11"/>
</linearGradient>
<linearGradient id="paint24_linear_669_34085" x1="-429.436" y1="27080.4" x2="11497.1" y2="27080.4" gradientUnits="userSpaceOnUse">
<stop stop-color="#B47E11"/>
<stop offset="0.51" stop-color="#EAD98B"/>
<stop offset="1" stop-color="#B47E11"/>
</linearGradient>
<linearGradient id="paint25_linear_669_34085" x1="225.218" y1="6182.1" x2="1416.86" y2="6182.1" gradientUnits="userSpaceOnUse">
<stop stop-color="#B47E11"/>
<stop offset="0.51" stop-color="#EAD98B"/>
<stop offset="1" stop-color="#B47E11"/>
</linearGradient>
<linearGradient id="paint26_linear_669_34085" x1="160.145" y1="6150.87" x2="1936.44" y2="6150.87" gradientUnits="userSpaceOnUse">
<stop stop-color="#B47E11"/>
<stop offset="0.51" stop-color="#EAD98B"/>
<stop offset="1" stop-color="#B47E11"/>
</linearGradient>
<linearGradient id="paint27_linear_669_34085" x1="25.6165" y1="6050.59" x2="3578.21" y2="6050.59" gradientUnits="userSpaceOnUse">
<stop stop-color="#B47E11"/>
<stop offset="0.51" stop-color="#EAD98B"/>
<stop offset="1" stop-color="#B47E11"/>
</linearGradient>
<linearGradient id="paint28_linear_669_34085" x1="-105.056" y1="5894.34" x2="5169.43" y2="5894.34" gradientUnits="userSpaceOnUse">
<stop stop-color="#B47E11"/>
<stop offset="0.51" stop-color="#EAD98B"/>
<stop offset="1" stop-color="#B47E11"/>
</linearGradient>
<linearGradient id="paint29_linear_669_34085" x1="-230.482" y1="5675.45" x2="6693.45" y2="5675.45" gradientUnits="userSpaceOnUse">
<stop stop-color="#B47E11"/>
<stop offset="0.51" stop-color="#EAD98B"/>
<stop offset="1" stop-color="#B47E11"/>
</linearGradient>
<linearGradient id="paint30_linear_669_34085" x1="-351.411" y1="5393.84" x2="8167.52" y2="5393.84" gradientUnits="userSpaceOnUse">
<stop stop-color="#B47E11"/>
<stop offset="0.51" stop-color="#EAD98B"/>
<stop offset="1" stop-color="#B47E11"/>
</linearGradient>
<linearGradient id="paint31_linear_669_34085" x1="-465.425" y1="5055.89" x2="9557.96" y2="5055.89" gradientUnits="userSpaceOnUse">
<stop stop-color="#B47E11"/>
<stop offset="0.51" stop-color="#EAD98B"/>
<stop offset="1" stop-color="#B47E11"/>
</linearGradient>
<linearGradient id="paint32_linear_669_34085" x1="-570.088" y1="4668" x2="10830.8" y2="4668" gradientUnits="userSpaceOnUse">
<stop stop-color="#B47E11"/>
<stop offset="0.51" stop-color="#EAD98B"/>
<stop offset="1" stop-color="#B47E11"/>
</linearGradient>
<linearGradient id="paint33_linear_669_34085" x1="-666.237" y1="4236.51" x2="12003.4" y2="4236.51" gradientUnits="userSpaceOnUse">
<stop stop-color="#B47E11"/>
<stop offset="0.51" stop-color="#EAD98B"/>
<stop offset="1" stop-color="#B47E11"/>
</linearGradient>
<linearGradient id="paint34_linear_669_34085" x1="-752.554" y1="3754.64" x2="13059" y2="3754.64" gradientUnits="userSpaceOnUse">
<stop stop-color="#B47E11"/>
<stop offset="0.51" stop-color="#EAD98B"/>
<stop offset="1" stop-color="#B47E11"/>
</linearGradient>
<linearGradient id="paint35_linear_669_34085" x1="-825.623" y1="3235.26" x2="13946.6" y2="3235.26" gradientUnits="userSpaceOnUse">
<stop stop-color="#B47E11"/>
<stop offset="0.51" stop-color="#EAD98B"/>
<stop offset="1" stop-color="#B47E11"/>
</linearGradient>
<linearGradient id="paint36_linear_669_34085" x1="-887.417" y1="2691.21" x2="14700.5" y2="2691.21" gradientUnits="userSpaceOnUse">
<stop stop-color="#B47E11"/>
<stop offset="0.51" stop-color="#EAD98B"/>
<stop offset="1" stop-color="#B47E11"/>
</linearGradient>
<linearGradient id="paint37_linear_669_34085" x1="-935.644" y1="2115.62" x2="15286.6" y2="2115.62" gradientUnits="userSpaceOnUse">
<stop stop-color="#B47E11"/>
<stop offset="0.51" stop-color="#EAD98B"/>
<stop offset="1" stop-color="#B47E11"/>
</linearGradient>
<linearGradient id="paint38_linear_669_34085" x1="-970.168" y1="1521.32" x2="15705.2" y2="1521.32" gradientUnits="userSpaceOnUse">
<stop stop-color="#B47E11"/>
<stop offset="0.51" stop-color="#EAD98B"/>
<stop offset="1" stop-color="#B47E11"/>
</linearGradient>
<linearGradient id="paint39_linear_669_34085" x1="-991.99" y1="914.53" x2="15973.4" y2="914.53" gradientUnits="userSpaceOnUse">
<stop stop-color="#B47E11"/>
<stop offset="0.51" stop-color="#EAD98B"/>
<stop offset="1" stop-color="#B47E11"/>
</linearGradient>
<linearGradient id="paint40_linear_669_34085" x1="-998.91" y1="726.912" x2="16057.1" y2="726.912" gradientUnits="userSpaceOnUse">
<stop stop-color="#B47E11"/>
<stop offset="0.51" stop-color="#EAD98B"/>
<stop offset="1" stop-color="#B47E11"/>
</linearGradient>
<linearGradient id="paint41_linear_669_34085" x1="-991.99" y1="968.193" x2="15973.4" y2="968.193" gradientUnits="userSpaceOnUse">
<stop stop-color="#B47E11"/>
<stop offset="0.51" stop-color="#EAD98B"/>
<stop offset="1" stop-color="#B47E11"/>
</linearGradient>
<linearGradient id="paint42_linear_669_34085" x1="-970.168" y1="1641.01" x2="15705.2" y2="1641.01" gradientUnits="userSpaceOnUse">
<stop stop-color="#B47E11"/>
<stop offset="0.51" stop-color="#EAD98B"/>
<stop offset="1" stop-color="#B47E11"/>
</linearGradient>
<linearGradient id="paint43_linear_669_34085" x1="-935.644" y1="2293.5" x2="15286.6" y2="2293.5" gradientUnits="userSpaceOnUse">
<stop stop-color="#B47E11"/>
<stop offset="0.51" stop-color="#EAD98B"/>
<stop offset="1" stop-color="#B47E11"/>
</linearGradient>
<linearGradient id="paint44_linear_669_34085" x1="-887.433" y1="2925.38" x2="14700.5" y2="2925.38" gradientUnits="userSpaceOnUse">
<stop stop-color="#B47E11"/>
<stop offset="0.51" stop-color="#EAD98B"/>
<stop offset="1" stop-color="#B47E11"/>
</linearGradient>
<linearGradient id="paint45_linear_669_34085" x1="-825.64" y1="3523.06" x2="13946.6" y2="3523.06" gradientUnits="userSpaceOnUse">
<stop stop-color="#B47E11"/>
<stop offset="0.51" stop-color="#EAD98B"/>
<stop offset="1" stop-color="#B47E11"/>
</linearGradient>
<linearGradient id="paint46_linear_669_34085" x1="-751.493" y1="4093.06" x2="13042" y2="4093.06" gradientUnits="userSpaceOnUse">
<stop stop-color="#B47E11"/>
<stop offset="0.51" stop-color="#EAD98B"/>
<stop offset="1" stop-color="#B47E11"/>
</linearGradient>
<linearGradient id="paint47_linear_669_34085" x1="-666.254" y1="4615.18" x2="12003.4" y2="4615.18" gradientUnits="userSpaceOnUse">
<stop stop-color="#B47E11"/>
<stop offset="0.51" stop-color="#EAD98B"/>
<stop offset="1" stop-color="#B47E11"/>
</linearGradient>
<linearGradient id="paint48_linear_669_34085" x1="-571.18" y1="5095.84" x2="10847.8" y2="5095.84" gradientUnits="userSpaceOnUse">
<stop stop-color="#B47E11"/>
<stop offset="0.51" stop-color="#EAD98B"/>
<stop offset="1" stop-color="#B47E11"/>
</linearGradient>
<linearGradient id="paint49_linear_669_34085" x1="-465.441" y1="5521.58" x2="9557.96" y2="5521.58" gradientUnits="userSpaceOnUse">
<stop stop-color="#B47E11"/>
<stop offset="0.51" stop-color="#EAD98B"/>
<stop offset="1" stop-color="#B47E11"/>
</linearGradient>
<linearGradient id="paint50_linear_669_34085" x1="-351.427" y1="5892.39" x2="8167.52" y2="5892.39" gradientUnits="userSpaceOnUse">
<stop stop-color="#B47E11"/>
<stop offset="0.51" stop-color="#EAD98B"/>
<stop offset="1" stop-color="#B47E11"/>
</linearGradient>
<linearGradient id="paint51_linear_669_34085" x1="-231.575" y1="6201.38" x2="6710.49" y2="6201.38" gradientUnits="userSpaceOnUse">
<stop stop-color="#B47E11"/>
<stop offset="0.51" stop-color="#EAD98B"/>
<stop offset="1" stop-color="#B47E11"/>
</linearGradient>
<linearGradient id="paint52_linear_669_34085" x1="-105.089" y1="6435.29" x2="5169.43" y2="6435.29" gradientUnits="userSpaceOnUse">
<stop stop-color="#B47E11"/>
<stop offset="0.51" stop-color="#EAD98B"/>
<stop offset="1" stop-color="#B47E11"/>
</linearGradient>
<linearGradient id="paint53_linear_669_34085" x1="25.5861" y1="6613.67" x2="3578.18" y2="6613.67" gradientUnits="userSpaceOnUse">
<stop stop-color="#B47E11"/>
<stop offset="0.51" stop-color="#EAD98B"/>
<stop offset="1" stop-color="#B47E11"/>
</linearGradient>
<linearGradient id="paint54_linear_669_34085" x1="159.052" y1="6723.42" x2="1953.49" y2="6723.42" gradientUnits="userSpaceOnUse">
<stop stop-color="#B47E11"/>
<stop offset="0.51" stop-color="#EAD98B"/>
<stop offset="1" stop-color="#B47E11"/>
</linearGradient>
<linearGradient id="paint55_linear_669_34085" x1="225.202" y1="6757.81" x2="1416.84" y2="6757.81" gradientUnits="userSpaceOnUse">
<stop stop-color="#B47E11"/>
<stop offset="0.51" stop-color="#EAD98B"/>
<stop offset="1" stop-color="#B47E11"/>
</linearGradient>
<linearGradient id="paint56_linear_669_34085" x1="220.298" y1="6723.42" x2="1996.67" y2="6723.42" gradientUnits="userSpaceOnUse">
<stop stop-color="#B47E11"/>
<stop offset="0.51" stop-color="#EAD98B"/>
<stop offset="1" stop-color="#B47E11"/>
</linearGradient>
<linearGradient id="paint57_linear_669_34085" x1="145.278" y1="6613.67" x2="3697.87" y2="6613.67" gradientUnits="userSpaceOnUse">
<stop stop-color="#B47E11"/>
<stop offset="0.51" stop-color="#EAD98B"/>
<stop offset="1" stop-color="#B47E11"/>
</linearGradient>
<linearGradient id="paint58_linear_669_34085" x1="72.8176" y1="6441.83" x2="5347.26" y2="6441.83" gradientUnits="userSpaceOnUse">
<stop stop-color="#B47E11"/>
<stop offset="0.51" stop-color="#EAD98B"/>
<stop offset="1" stop-color="#B47E11"/>
</linearGradient>
<linearGradient id="paint59_linear_669_34085" x1="2.57275" y1="6201.4" x2="6944.69" y2="6201.4" gradientUnits="userSpaceOnUse">
<stop stop-color="#B47E11"/>
<stop offset="0.51" stop-color="#EAD98B"/>
<stop offset="1" stop-color="#B47E11"/>
</linearGradient>
<linearGradient id="paint60_linear_669_34085" x1="-63.5839" y1="5892.48" x2="8455.36" y2="5892.48" gradientUnits="userSpaceOnUse">
<stop stop-color="#B47E11"/>
<stop offset="0.51" stop-color="#EAD98B"/>
<stop offset="1" stop-color="#B47E11"/>
</linearGradient>
<linearGradient id="paint61_linear_669_34085" x1="-127.054" y1="5521.67" x2="9896.35" y2="5521.67" gradientUnits="userSpaceOnUse">
<stop stop-color="#B47E11"/>
<stop offset="0.51" stop-color="#EAD98B"/>
<stop offset="1" stop-color="#B47E11"/>
</linearGradient>
<linearGradient id="paint62_linear_669_34085" x1="-184.894" y1="5095.81" x2="11215.9" y2="5095.81" gradientUnits="userSpaceOnUse">
<stop stop-color="#B47E11"/>
<stop offset="0.51" stop-color="#EAD98B"/>
<stop offset="1" stop-color="#B47E11"/>
</linearGradient>
<linearGradient id="paint63_linear_669_34085" x1="-238.43" y1="4621.75" x2="12431.3" y2="4621.75" gradientUnits="userSpaceOnUse">
<stop stop-color="#B47E11"/>
<stop offset="0.51" stop-color="#EAD98B"/>
<stop offset="1" stop-color="#B47E11"/>
</linearGradient>
<linearGradient id="paint64_linear_669_34085" x1="-285.759" y1="4093.06" x2="13507.6" y2="4093.06" gradientUnits="userSpaceOnUse">
<stop stop-color="#B47E11"/>
<stop offset="0.51" stop-color="#EAD98B"/>
<stop offset="1" stop-color="#B47E11"/>
</linearGradient>
<linearGradient id="paint65_linear_669_34085" x1="-327.084" y1="3523.15" x2="14445.1" y2="3523.15" gradientUnits="userSpaceOnUse">
<stop stop-color="#B47E11"/>
<stop offset="0.51" stop-color="#EAD98B"/>
<stop offset="1" stop-color="#B47E11"/>
</linearGradient>
<linearGradient id="paint66_linear_669_34085" x1="-361.52" y1="2925.35" x2="15226.5" y2="2925.35" gradientUnits="userSpaceOnUse">
<stop stop-color="#B47E11"/>
<stop offset="0.51" stop-color="#EAD98B"/>
<stop offset="1" stop-color="#B47E11"/>
</linearGradient>
<linearGradient id="paint67_linear_669_34085" x1="-387.067" y1="2286.96" x2="15817.1" y2="2286.96" gradientUnits="userSpaceOnUse">
<stop stop-color="#B47E11"/>
<stop offset="0.51" stop-color="#EAD98B"/>
<stop offset="1" stop-color="#B47E11"/>
</linearGradient>
<linearGradient id="paint68_linear_669_34085" x1="-407.064" y1="1641.04" x2="16268.4" y2="1641.04" gradientUnits="userSpaceOnUse">
<stop stop-color="#B47E11"/>
<stop offset="0.51" stop-color="#EAD98B"/>
<stop offset="1" stop-color="#B47E11"/>
</linearGradient>
<linearGradient id="paint69_linear_669_34085" x1="-419.454" y1="974.759" x2="16546" y2="974.759" gradientUnits="userSpaceOnUse">
<stop stop-color="#B47E11"/>
<stop offset="0.51" stop-color="#EAD98B"/>
<stop offset="1" stop-color="#B47E11"/>
</linearGradient>
<linearGradient id="paint70_linear_669_34085" x1="-423.225" y1="726.928" x2="16632.8" y2="726.928" gradientUnits="userSpaceOnUse">
<stop stop-color="#B47E11"/>
<stop offset="0.51" stop-color="#EAD98B"/>
<stop offset="1" stop-color="#B47E11"/>
</linearGradient>
<linearGradient id="paint71_linear_669_34085" x1="-419.454" y1="908.022" x2="16546" y2="908.022" gradientUnits="userSpaceOnUse">
<stop stop-color="#B47E11"/>
<stop offset="0.51" stop-color="#EAD98B"/>
<stop offset="1" stop-color="#B47E11"/>
</linearGradient>
<linearGradient id="paint72_linear_669_34085" x1="-407.064" y1="1521.35" x2="16268.4" y2="1521.35" gradientUnits="userSpaceOnUse">
<stop stop-color="#B47E11"/>
<stop offset="0.51" stop-color="#EAD98B"/>
<stop offset="1" stop-color="#B47E11"/>
</linearGradient>
<linearGradient id="paint73_linear_669_34085" x1="-388.119" y1="2115.63" x2="15834" y2="2115.63" gradientUnits="userSpaceOnUse">
<stop stop-color="#B47E11"/>
<stop offset="0.51" stop-color="#EAD98B"/>
<stop offset="1" stop-color="#B47E11"/>
</linearGradient>
<linearGradient id="paint74_linear_669_34085" x1="-361.501" y1="2684.65" x2="15226.4" y2="2684.65" gradientUnits="userSpaceOnUse">
<stop stop-color="#B47E11"/>
<stop offset="0.51" stop-color="#EAD98B"/>
<stop offset="1" stop-color="#B47E11"/>
</linearGradient>
<linearGradient id="paint75_linear_669_34085" x1="-327.064" y1="3235.26" x2="14445.1" y2="3235.26" gradientUnits="userSpaceOnUse">
<stop stop-color="#B47E11"/>
<stop offset="0.51" stop-color="#EAD98B"/>
<stop offset="1" stop-color="#B47E11"/>
</linearGradient>
<linearGradient id="paint76_linear_669_34085" x1="-285.756" y1="3754.67" x2="13507.9" y2="3754.67" gradientUnits="userSpaceOnUse">
<stop stop-color="#B47E11"/>
<stop offset="0.51" stop-color="#EAD98B"/>
<stop offset="1" stop-color="#B47E11"/>
</linearGradient>
<linearGradient id="paint77_linear_669_34085" x1="-238.404" y1="4229.97" x2="12431.1" y2="4229.97" gradientUnits="userSpaceOnUse">
<stop stop-color="#B47E11"/>
<stop offset="0.51" stop-color="#EAD98B"/>
<stop offset="1" stop-color="#B47E11"/>
</linearGradient>
<linearGradient id="paint78_linear_669_34085" x1="-185.944" y1="4668.01" x2="11233.1" y2="4668.01" gradientUnits="userSpaceOnUse">
<stop stop-color="#B47E11"/>
<stop offset="0.51" stop-color="#EAD98B"/>
<stop offset="1" stop-color="#B47E11"/>
</linearGradient>
<linearGradient id="paint79_linear_669_34085" x1="-127.032" y1="5062.47" x2="9896.26" y2="5062.47" gradientUnits="userSpaceOnUse">
<stop stop-color="#B47E11"/>
<stop offset="0.51" stop-color="#EAD98B"/>
<stop offset="1" stop-color="#B47E11"/>
</linearGradient>
<linearGradient id="paint80_linear_669_34085" x1="-63.5666" y1="5393.85" x2="8455.34" y2="5393.85" gradientUnits="userSpaceOnUse">
<stop stop-color="#B47E11"/>
<stop offset="0.51" stop-color="#EAD98B"/>
<stop offset="1" stop-color="#B47E11"/>
</linearGradient>
<linearGradient id="paint81_linear_669_34085" x1="2.61166" y1="5675.47" x2="6944.58" y2="5675.47" gradientUnits="userSpaceOnUse">
<stop stop-color="#B47E11"/>
<stop offset="0.51" stop-color="#EAD98B"/>
<stop offset="1" stop-color="#B47E11"/>
</linearGradient>
<linearGradient id="paint82_linear_669_34085" x1="73.9086" y1="5894.34" x2="5330.25" y2="5894.34" gradientUnits="userSpaceOnUse">
<stop stop-color="#B47E11"/>
<stop offset="0.51" stop-color="#EAD98B"/>
<stop offset="1" stop-color="#B47E11"/>
</linearGradient>
<linearGradient id="paint83_linear_669_34085" x1="145.308" y1="6050.59" x2="3697.9" y2="6050.59" gradientUnits="userSpaceOnUse">
<stop stop-color="#B47E11"/>
<stop offset="0.51" stop-color="#EAD98B"/>
<stop offset="1" stop-color="#B47E11"/>
</linearGradient>
<linearGradient id="paint84_linear_669_34085" x1="219.257" y1="6150.87" x2="2013.66" y2="6150.87" gradientUnits="userSpaceOnUse">
<stop stop-color="#B47E11"/>
<stop offset="0.51" stop-color="#EAD98B"/>
<stop offset="1" stop-color="#B47E11"/>
</linearGradient>
</defs>
</svg>
