<svg width="40" height="40" fill="none" xmlns="http://www.w3.org/2000/svg"><g clip-path="url(#a)"><path d="M26.94 1.94a1.5 1.5 0 0 1 2.12 2.12l-2.12-2.12Zm2.12 33.94a1.5 1.5 0 0 1-2.12 2.122l2.12-2.122Zm0-31.82L12.798 20.325l-2.121-2.121L26.939 1.939l2.122 2.122ZM12.798 19.618 29.061 35.88l-2.122 2.122-16.263-16.264 2.121-2.121Zm0 .707a.5.5 0 0 0 0-.707l-2.121 2.121a2.5 2.5 0 0 1 0-3.535l2.121 2.121Z" fill="#312C93"/></g><defs><clipPath id="a"><path fill="#fff" d="M0 0h40v40H0z"/></clipPath></defs></svg>