<svg width="323" height="59" fill="none" xmlns="http://www.w3.org/2000/svg"><path d="m84 55.561.426 1.28h26.866l3.716-2.254v2.253h42.644l.853-1.766v.73a1.033 1.033 0 0 0 .549 1.036h13.585c.792-1.218 2.071 0 2.315-2.375-.853 0-1.036 0-1.036-.426h-17.484a2.864 2.864 0 0 1-.975 2.192c.32-.36.531-.804.61-1.279 0-.792-1.463-.487-1.95-.67h-2.254a6.09 6.09 0 0 1-.731 2.254 7.402 7.402 0 0 0 0-2.254h-29.668l-1.218.67v-.67H84.305v1.706M230.446 7.192l.427 1.28h26.866l3.716-2.254v2.253h42.644l.853-1.766v.731a1.033 1.033 0 0 0 .548 1.035h13.585c.792-1.218 2.071 0 2.315-2.375-.853 0-1.036 0-1.036-.426H302.88a2.864 2.864 0 0 1-.974 2.192c.319-.36.53-.803.609-1.279 0-.791-1.462-.487-1.95-.67h-2.254a6.072 6.072 0 0 1-.731 2.254 7.402 7.402 0 0 0 0-2.253h-29.668l-1.218.67v-.67h-35.943v1.705m-39.964-1.584v1.097l-.731.609.975-1.706h-.244Zm-31.739-.548v2.984h39.111a2.31 2.31 0 0 0 1.157-1.644v-.548l1.401.853-.731 1.34h23.028V6.826a2.195 2.195 0 0 0-.365-1.34h-23.333v.366l-.365-.366h-1.584v.853l-2.254.487h.304l-.548.426V5.244h-7.067l-1.401 1.705.366-1.95h-27.963m-33.821 1.036v1.097l-.731.609.975-1.706h-.244Zm-31.74-.548v2.984h39.111a2.304 2.304 0 0 0 1.158-1.644v-.548l1.401.853-.731 1.34h23.028V6.826a2.195 2.195 0 0 0-.366-1.34h-23.332v.366l-.366-.366h-1.584v.853l-2.254.487h.305l-.548.426V5.244h-7.067l-1.401 1.705.365-1.95H93" fill="#312C93"/><path d="M317.215 8.471h1.827a1.339 1.339 0 0 0-1.827 0Zm-70.599 46.055c.089.911.089 1.829 0 2.74h.609l-.488-1.096.731-1.035v.852c0 .61 0 1.218.975.975l2.071-1.584-.426-1.218h-1.036v.61-.61h-2.802m42.014.914v1.096l-.731.61.975-1.706h-.244Zm-31.74-.548v2.984h39.111a2.323 2.323 0 0 0 1.158-1.644v-.548l1.401.852-.731 1.34h23.028v-1.644a2.195 2.195 0 0 0-.366-1.34h-23.332v.365l-.366-.365h-1.584v.852l-2.254.488h.305l-.549.426v-2.01h-7.066l-1.401 1.705.365-1.949h-27.962m-31.475.975c.853.548 2.497-.487 2.497.487l-.365 1.096h.792c.365-.67.975-1.4.975-2.01h-3.656v.488m-12.732.974v1.462-1.462Zm-7.737 0c.975 0 1.219.67 1.219 1.218v.244h4.02v-.67h-.487l1.218-1.035v.365l-.304 1.34h4.934l1.219-1.462h-.853V54.83h-5.422.365-2.802v-.365h-2.132l-1.462 1.34M186 57.266h16.509v-.365c0-1.584 1.95-1.279 2.681-2.619h-18.033l.305 1.28v.608l-1.401.853m35.577-1.888.487-.244-.244-.365h-.061l-.182.609Zm-3.777-.609v.426a2.193 2.193 0 0 1 1.949 0v-.426h-2.193m24.49 2.801h4.143v-1.279a2.803 2.803 0 0 0-.67-1.705h-.366c-1.218.426-2.741-.487-2.741.792v.548h2.071c-.975 1.705-2.741-.913-2.802 1.644m-39.051.183h1.828a1.34 1.34 0 0 0-1.828 0Zm9.504 0 .122-1.462-.122 1.462Zm-.06.548.061-.548-.061.548ZM89.317 6.766v1.462-1.462Zm-7.737 0c.975 0 1.219.67 1.219 1.218v.244h4.02v-.67h-.487l1.218-1.035v.365l-.304 1.34h4.934l1.22-1.462h-.853V5.548h-5.422.365-2.802v-.365h-2.132l-1.462 1.34M60 7.984h16.509V7.62c0-1.584 1.95-1.28 2.68-2.62h-18.03l.304 1.28v.609l-1.401.853m20.629.486h1.828a1.34 1.34 0 0 0-1.828 0Zm9.504 0 .122-1.462-.122 1.462Zm-1.06.548.06-.548-.06.548ZM62.317 56.048v1.462-1.462Zm-7.737 0c.975 0 1.218.67 1.218 1.218v.244h4.021v-.67h-.487l1.218-1.035v.365l-.304 1.34h4.934l1.219-1.462h-.853V54.83h-5.422.365-2.802v-.365h-2.132l-1.462 1.34M36 57.266h16.509v-.365c0-1.584 1.95-1.279 2.68-2.619H37.158l.305 1.28v.608l-1.401.853m16.629.487h1.828a1.34 1.34 0 0 0-1.828 0Zm9.504 0 .122-1.462-.122 1.462Zm-.06.548.06-.548-.06.548Z" fill="#312C93"/><path d="M57.737 8.038c-.042-.15-.1-.294-.172-.431a60.92 60.92 0 0 0-2.036-4.648c-.025-.049-.11-.024-.094.032.022.08.049.16.07.241a.16.16 0 0 0-.136-.054.801.801 0 0 0-.113.026.116.116 0 0 0-.172.042c-.253.095-.502.263-.754.338-.095.027-.19.05-.286.067a.909.909 0 0 0-.521-.147.145.145 0 0 0-.137.091l-.049.105c-.109-.307-.218-.614-.33-.918l.025-.023c.068-.076.05-.245-.082-.24-.747.033-1.537.874-1.889 1.481-.076.136.096.31.216.187.162-.164.326-.323.493-.48a.088.088 0 0 0-.019.056c.056.954.051 1.91-.015 2.864 0 .017.007.033.017.047-.7-1.6-1.413-3.196-2.154-4.773l.01-.012a.162.162 0 1 0-.273-.176c-.487.682-1.038 1.203-1.84 1.5-.415-.968-.833-1.937-1.254-2.907l.085-.103c.084-.107-.088-.26-.183-.16l-.011.013c-.053-.108-.248-.048-.209.074l.034.105a100.44 100.44 0 0 1-2.026 2.074c.068-.09.136-.176.206-.273.07-.097-.085-.2-.157-.103-2.36 3.188-5.651 5.287-9.227 6.908-2.33 1.057-5.57 1.556-7.026 3.834a5.67 5.67 0 0 0-.545.769 3.944 3.944 0 0 0-.137.253c-.096-.081-.195-.16-.294-.24-.1-.079-.198.077-.11.156a.124.124 0 0 0-.057.083 6.56 6.56 0 0 0-.927-.184 5.559 5.559 0 0 0-.955-.044c-2.69-.237-5.063 2.012-7.323 3.206-3.47 1.835-7.146 3.153-11.115 3.066-.122 0-.137.183-.014.187.123.004.225 0 .337 0-.955.123-1.916.236-2.88.331l-.062-.091c-.07-.104-.24.01-.185.12h-.018c-.136.014-.124.244.014.241h.136a485.76 485.76 0 0 0 1.531 2.773h-.008c-.725.45-1.471.57-2.318.534a.16.16 0 0 0-.023.318h.015c4.364 8.504 9.44 16.681 14.106 25.022a.214.214 0 0 0 .39-.047c3.765-1.133 7.423-2.77 11.079-4.21 3.41-1.336 6.787-2.851 10.401-3.46a.868.868 0 0 0-.075.1c-3.96 1.582-7.92 3.164-11.882 4.745-1.91.765-3.832 1.532-5.635 2.528-.755.417-1.43.946-2.172 1.375-.458.264-1.239.897-1.825.668-.364-.137-.833-1.37-1.027-1.687-3.97-6.49-8.046-13.167-12.63-19.297a44.906 44.906 0 0 1-.112-.409.152.152 0 0 0-.181-.105.151.151 0 0 0-.068.036c-.522-.69-1.05-1.372-1.586-2.046.298-.07.587-.224.881-.296a9.48 9.48 0 0 1 1.123-.18c.169-.02.136-.263-.017-.285-.694-.094-1.842.014-2.326.586-.086.103.037.219.136.212l.033-.007c.172.273.348.546.524.825l-.114-.026a.136.136 0 0 0-.156.053.908.908 0 0 0-.205.502 2.483 2.483 0 0 1-.225.186c-.293.21-.721.306-.955.572a.158.158 0 0 0-.038.137c-.049-.06-.098-.134-.147-.197-.036-.046-.106 0-.082.055 2.257 4.653 5.344 9.009 8.046 13.419 2.658 4.34 5.297 8.694 7.961 13.03.112.318.23.633.363.944a.192.192 0 0 0 .252.086c3.774-1.622 7.46-3.468 11.173-5.222 3.665-1.734 7.656-3.22 11.11-5.347a.138.138 0 0 0-.036-.273l.136-.072a.07.07 0 0 0 .043.018c.312-.013.622-.059.924-.137 1.472.445 3.336-.136 4.184-1.396a4.48 4.48 0 0 0 .545-.528c.062-.01.123-.027.183-.04a.144.144 0 0 0 .197.084c2.843-1.075 5.59-2.605 8.318-4.078.137-.075.287-.151.431-.225a2198.42 2198.42 0 0 0 5.268-2.715c2.681-1.342 5.366-2.684 7.986-4.135a.193.193 0 0 0 .086-.252c-.163-.294-.34-.58-.523-.865-1.798-4.762-3.624-9.513-5.428-14.272-1.193-3.118-2.263-6.353-3.487-9.489Z" fill="#FFFDF6"/><path d="M1.909 25.903c.078 0 .084-.119.01-.119h-.36c-.067 0-.076.105-.007.106l.357.013ZM51.524 2.259l.21-.288c.04-.056-.047-.112-.088-.059-.075.093-.148.187-.222.281-.046.06.053.128.1.066Z" fill="#312C93"/><path d="M57.737 8.038c-.042-.15-.1-.294-.172-.431a60.92 60.92 0 0 0-2.036-4.648c-.025-.049-.11-.024-.094.032.022.08.049.16.07.241a.16.16 0 0 0-.136-.054.801.801 0 0 0-.113.026.116.116 0 0 0-.172.042c-.253.095-.502.263-.754.338-.095.027-.19.05-.286.067a.909.909 0 0 0-.521-.147.145.145 0 0 0-.137.091l-.049.105c-.109-.307-.218-.614-.33-.918l.025-.023c.068-.076.05-.245-.082-.24-.747.033-1.537.874-1.889 1.481-.076.136.096.31.216.187.162-.164.326-.323.493-.48a.088.088 0 0 0-.019.056c.056.954.051 1.91-.015 2.864 0 .017.007.033.017.047-.7-1.6-1.413-3.196-2.154-4.773l.01-.012a.162.162 0 1 0-.273-.176c-.487.682-1.038 1.203-1.84 1.5-.415-.968-.833-1.937-1.254-2.907l.085-.103c.084-.107-.088-.26-.183-.16l-.011.013c-.053-.108-.248-.048-.209.074l.034.105a100.44 100.44 0 0 1-2.026 2.074c.068-.09.136-.176.206-.273.07-.097-.085-.2-.157-.103-2.36 3.188-5.651 5.287-9.227 6.908-2.33 1.057-5.57 1.556-7.026 3.834a5.67 5.67 0 0 0-.545.769 3.944 3.944 0 0 0-.137.253c-.096-.081-.195-.16-.294-.24-.1-.079-.198.077-.11.156a.124.124 0 0 0-.057.083 6.56 6.56 0 0 0-.927-.184 5.559 5.559 0 0 0-.955-.044c-2.69-.237-5.063 2.012-7.323 3.206-3.47 1.835-7.146 3.153-11.115 3.066-.122 0-.137.183-.014.187.123.004.225 0 .337 0-.955.123-1.916.236-2.88.331l-.062-.091c-.07-.104-.24.01-.185.12h-.018c-.136.014-.124.244.014.241h.136a485.76 485.76 0 0 0 1.531 2.773h-.008c-.725.45-1.471.57-2.318.534a.16.16 0 0 0-.023.318h.015c4.364 8.504 9.44 16.681 14.106 25.022a.214.214 0 0 0 .39-.047c3.765-1.133 7.423-2.77 11.079-4.21 3.41-1.336 6.787-2.851 10.401-3.46a.868.868 0 0 0-.075.1c-3.96 1.582-7.92 3.164-11.882 4.745-1.91.765-3.832 1.532-5.635 2.528-.755.417-1.43.946-2.172 1.375-.458.264-1.239.897-1.825.668-.364-.137-.833-1.37-1.027-1.687-3.97-6.49-8.046-13.167-12.63-19.297a44.906 44.906 0 0 1-.112-.409.152.152 0 0 0-.181-.105.151.151 0 0 0-.068.036c-.522-.69-1.05-1.372-1.586-2.046.298-.07.587-.224.881-.296a9.48 9.48 0 0 1 1.123-.18c.169-.02.136-.263-.017-.285-.694-.094-1.842.014-2.326.586-.086.103.037.219.136.212l.033-.007c.172.273.348.546.524.825l-.114-.026a.136.136 0 0 0-.156.053.908.908 0 0 0-.205.502 2.483 2.483 0 0 1-.225.186c-.293.21-.721.306-.955.572a.158.158 0 0 0-.038.137c-.049-.06-.098-.134-.147-.197-.036-.046-.106 0-.082.055 2.257 4.653 5.344 9.009 8.046 13.419 2.658 4.34 5.297 8.694 7.961 13.03.112.318.23.633.363.944a.192.192 0 0 0 .252.086c3.774-1.622 7.46-3.468 11.173-5.222 3.665-1.734 7.656-3.22 11.11-5.347a.138.138 0 0 0-.036-.273l.136-.072a.07.07 0 0 0 .043.018c.312-.013.622-.059.924-.137 1.472.445 3.336-.136 4.184-1.396a4.48 4.48 0 0 0 .545-.528c.062-.01.123-.027.183-.04a.144.144 0 0 0 .197.084c2.843-1.075 5.59-2.605 8.318-4.078.137-.075.287-.151.431-.225a2198.42 2198.42 0 0 0 5.268-2.715c2.681-1.342 5.366-2.684 7.986-4.135a.193.193 0 0 0 .086-.252c-.163-.294-.34-.58-.523-.865-1.798-4.762-3.624-9.513-5.428-14.272-1.193-3.118-2.263-6.353-3.487-9.489ZM2.045 28.464h.036c.073.114.144.229.218.343.22.715.453 1.425.695 2.13-.476-.788-1.043-1.813-1.06-2.255.042-.07.08-.143.111-.218Zm3.913 5.757-.011.015-.02-.06.03.045Zm11.39 20.008a.215.215 0 0 0 .06.013v.014c0 .068.088.024.06-.015a.213.213 0 0 0 .169-.137c1.158-.52 2.312-1.048 3.462-1.581a112.65 112.65 0 0 0-3.783 1.955 9.89 9.89 0 0 0-.264-.439 28.018 28.018 0 0 0-2.182-3.122.286.286 0 0 0-.119-.088c-.287-.455-.584-.91-.89-1.364l-.043-.065a.223.223 0 0 0-.196-.107c-.239-.478-.48-.954-.719-1.436-.565-1.13-1.02-2.332-1.932-3.207l-.819-1.5a.272.272 0 0 0-.049-.123c-.035-.052-.068-.104-.103-.154-.338-.615-.673-1.227-1.01-1.85a3885.08 3885.08 0 0 1 8.154 12.942.204.204 0 0 0 .205.269v-.006Zm13.638-9.116 2.215.723c.095.032.202.075.31.117l-.526.273c-.427-.095-.871-.15-1.286-.23l-1.96-.38 1.247-.503Zm1.296-.52c.544.297 1.112.547 1.697.748l.444.15c-.161.082-.325.164-.486.247-.187-.046-.373-.127-.526-.173l-.85-.258-1.17-.356.89-.357Zm.954-.38c.722.32 1.463.59 2.22.813-.184.076-.357.15-.517.221-.287-.059-.58-.109-.855-.192a10.487 10.487 0 0 1-1.472-.585l.624-.257Zm1.176-.471c.564.26 1.143.487 1.733.681.13.043.265.09.41.137-.15.067-.3.136-.452.197-.386-.088-.778-.162-1.155-.272-.444-.126-.88-.273-1.312-.43l.776-.313Zm1.03-.41c.503.197 1.004.39 1.51.573.164.06.329.123.494.186-.114.07-.236.136-.365.208-.31-.072-.63-.125-.914-.21-.47-.136-.928-.31-1.382-.493l.658-.264Zm2.406-.962.546.238a4.13 4.13 0 0 1-.119.538 7.232 7.232 0 0 1-.365-.08c-.35-.092-.699-.196-1.044-.305l.982-.391ZM60.75 28.357a428.928 428.928 0 0 1-1.887-4.529.064.064 0 0 0 .048-.012.062.062 0 0 0 .024-.043c0-.456-.155-.943-.245-1.387a.063.063 0 0 0-.123.023c.052.344.075.723.154 1.075-1.017-2.483-2.024-4.973-3.037-7.46a.106.106 0 0 0 .142-.032.104.104 0 0 0 .018-.05c.077-1.162-.107-2.399-.22-3.578.182.538.361 1.075.537 1.61-.058-.012-.127.022-.111.097.226 1.066.315 2.127.428 3.208a.094.094 0 0 0 .156.048.094.094 0 0 0 .03-.058 14.353 14.353 0 0 0-.364-2.887c.383 1.126.776 2.25 1.179 3.373a.085.085 0 0 0-.013.04c.096.802.197 1.67.508 2.422.026.064.12.026.112-.038-.074-.523-.193-1.038-.296-1.557a588.703 588.703 0 0 0 3.42 9.149c.148.39.569 1.066.564 1.477-.006.708-.439.974-1.157 1.305-.76.35-1.653.505-2.432.826-1.9.786-3.697 1.832-5.467 2.871-3.78 2.218-7.558 4.442-11.335 6.671a.303.303 0 0 0-.092-.035c2.687-2.464 5.94-4.205 9.065-6.069 3.375-2.014 6.911-3.9 10.119-6.177a.215.215 0 0 0 .275-.283Zm-6.361-15.489a.138.138 0 0 0 .136.011.192.192 0 0 0 .136-.195.125.125 0 0 0-.082-.123h-.01c.03-.073.055-.149.073-.226.052-.367-.178-.975-.224-1.343a15.864 15.864 0 0 1-.077-2.752c.133.454.27.906.409 1.355a.152.152 0 0 0-.068.137c.1 1.459.045 3.054.357 4.48a.104.104 0 0 0 .205-.011c.088-1.177-.073-2.43-.195-3.637.126.4.254.8.384 1.198a.161.161 0 0 0-.136.17c.095 1.27.064 2.646.316 3.898l-1.224-2.962Zm-.955-8.909a.229.229 0 0 1 .026-.026c.08.02.16.035.243.045.561.472 1.444 3.073 1.534 3.325.403 1.117.813 2.235 1.212 3.345.206.566.41 1.133.615 1.7.235.727.476 1.454.723 2.181.604 1.764 1.18 3.594 1.983 5.3.766 2.127 1.531 4.255 2.295 6.383-.02.778-.056 1.556-.09 2.334-1.52-4.018-3-8.046-4.413-12.106-1.438-4.135-2.663-8.354-4.127-12.48h-.001Zm2.007.606a.121.121 0 0 0 .069-.084l.013.034c0 .065.01.13.012.194-.031-.049-.06-.098-.092-.144h-.002ZM3.315 32.083c.468.744.938 1.486 1.409 2.228a.243.243 0 0 0-.224.168l-1.091-1.935c.074-.136-.038-.337-.327-.58l-.052-.09a3.103 3.103 0 0 0-.156-.409c.175.24.334.449.44.618Zm4.211 6.652h-.02c-.107-.18-.212-.361-.32-.545l.34.545Zm31.971 2.612.153-.018a.187.187 0 0 0 .095.127 1.45 1.45 0 0 0-.121.172.347.347 0 0 0-.086-.037.144.144 0 0 0 0-.149 1.452 1.452 0 0 0-.041-.095Zm22.638-12.394c.07-.736.109-1.475.124-2.216l.241.673c-.064.66-.136 1.322-.197 1.987l-.168-.444Zm-1.268-7.142.092.137c.241.687.483 1.374.727 2.06v.032a732.33 732.33 0 0 1-.82-2.229Zm3.136 9.808-.154.08c.007-.155.014-.307.018-.46l.136.38Zm.191.348a.216.216 0 0 0 .207-.053c.014.046.104 0 .048-.038 0 0 0-.008-.008-.011a.115.115 0 0 0 .01-.015l.104.297a.358.358 0 0 0-.43-.06l-.303.154c0-.026 0-.051.006-.079l.366-.195Zm.567.761v.008a.288.288 0 0 0 .02.034h-.041a.189.189 0 0 0 .023-.042h-.002Zm-1.187-2.307c-.041.502-.107 1.005-.17 1.5l-.227.116c.106-.814.138-1.636.095-2.455l.302.839Zm-.234 1.995-.008.065-.264.137c0-.02.01-.04.013-.06l.26-.142Zm-.545.33c-3.066 1.526-6.09 3.149-9.16 4.664-1.637.81-3.29 1.604-4.936 2.403-.092.045-.188.092-.283.136.008-.029.019-.057.026-.086.843-.403 1.684-.806 2.524-1.21a357.307 357.307 0 0 0 11.808-5.948c.007.015.017.03.029.04h-.008ZM40.325 44.35l.033-.018v.01l-.033.008Zm2.247-2.009-.079.027a.195.195 0 0 0-.065.042c-.026-.06-.055-.12-.08-.18a.462.462 0 0 0 .174.074h.042a.136.136 0 0 0 .008.037Zm-1.455 2.363a.915.915 0 0 1 .053-.136l.036-.008a.377.377 0 0 0 .136.487 7.68 7.68 0 0 1-.228.086.492.492 0 0 0 .003-.429Zm7.11-4.649c-.183.091-.364.189-.546.292 0-.038.007-.076.01-.116l.552-.263c-.007.03-.011.059-.017.087Zm-.773.41c-.272.15-.545.302-.831.454.006-.069.021-.137.024-.202.273-.126.539-.251.807-.38l.003.132-.003-.005Zm-1.014.545c-.227.12-.454.239-.682.353l-.172.044c0-.066-.008-.136-.012-.196l.855-.396c.001.075.007.14.01.205v-.01Zm-1.048.449-.47.127c0-.026 0-.051-.007-.075l.461-.212.016.16Zm-.596.16-.324.093.318-.144c.002.026.005.043.007.06v-.01Zm4.082-.924a.315.315 0 0 0-.113-.05l.9-.41c-.26.164-.524.318-.787.47v-.01Zm7.525-34.306v-.016l.01.018-.01-.002Zm5.373 17.922v-.022c.1.28.198.56.297.842v.008c-.094-.276-.193-.55-.297-.828Zm.66 7.228c.184-1.091.263-2.212.345-3.325l.232.647a.112.112 0 0 0-.048.102c.037 1.106-.1 2.182-.167 3.273a495.295 495.295 0 0 1-12.384 6.16c-.622.297-1.247.589-1.87.883a4.514 4.514 0 0 0-.177-1.575c-.022-.076-.137-.056-.123.023.132.541.162 1.102.087 1.653l-.634.3v-.212c-.01-.422-.044-.842-.102-1.26-.014-.104-.17-.071-.16.03.042.454.06.91.056 1.365 0 .058 0 .117-.007.176l-.562.272c-.094.044-.19.093-.284.137a10.029 10.029 0 0 0-.137-.989.1.1 0 0 0-.198.038c.059.355.092.713.099 1.072-.284.15-.576.311-.87.468-.045-.35-.107-.697-.168-1.031a.082.082 0 0 0-.094-.056.081.081 0 0 0-.066.087c.067.367.102.734.137 1.1-.165.087-.33.167-.495.243a4.813 4.813 0 0 0-.273-.785c-.017-.038-.07-.01-.056.027.097.264.168.537.213.814-.19.086-.386.162-.584.228-.023-.305-.074-.61-.119-.886-.017-.116-.196-.082-.177.034.047.286.08.574.097.863v.044c-.06.016-.12.036-.18.05a1.004 1.004 0 0 1-.258.015c-.037-.417-.091-.833-.136-1.246v-.01l7.91-4.643c1.486-.874 2.965-1.773 4.483-2.591 1.89-1.023 4.26-2.405 6.45-2.546-.021.345-.038.681-.04 1.032a.136.136 0 0 0 .263.02l-.003-.001ZM43.25 41.494c-.387-.084-.818-.289-1.227-.43l1.114-.654c.038.357.07.717.116 1.079l-.003.005Zm-4.17 1.82.007-.016.021.246-.042.022a.136.136 0 0 0-.037-.18c.02-.028.037-.05.053-.077l-.002.006Zm-.146.317-.209.105c.04-.035.078-.074.116-.113.025-.002.062.008.093.008ZM17.473 54.8c.155-.064.31-.125.465-.191l-.458.255a.354.354 0 0 0-.007-.064Zm35.098-15.31 4.173-2.245c.106-.017.21-.041.314-.064-.955.506-1.92 1.008-2.875 1.518-1.068.568-2.14 1.13-3.209 1.695.542-.309 1.075-.622 1.597-.904Zm8.23-4.314c.08-.048.833-.348 1.66-.697-.835.4-1.616.745-2.046.945a9.89 9.89 0 0 1 .386-.248Zm4.52-2.318c.016-.013.034-.023.049-.037l-.048.037Zm.17-.262c.01-.075.015-.151.022-.226.054.044.12.072.19.08a1.347 1.347 0 0 1-.323.361.382.382 0 0 0 .108-.215h.003ZM55.23 6.026a16.46 16.46 0 0 0-.106-.392l.114.298a.34.34 0 0 0-.009.093Zm-16.082 34.38a.173.173 0 0 0 .105.091c.032.067.063.137.096.2H39.2a23.899 23.899 0 0 1-.382-.954c.11.218.221.44.33.663Zm-.682 1.838-.158-.054.184-.074a1.32 1.32 0 0 0-.028.128h.002Zm-1.72.768c.374.135.75.26 1.13.372.089.026.179.055.273.083a.939.939 0 0 1-.11.156c-.066.076-.14.147-.219.21-.28-.087-.567-.166-.84-.258a55.123 55.123 0 0 1-1.128-.4l.818-.328a.136.136 0 0 0 .074.165h.003ZM6.378 36.28a.119.119 0 0 0 .025-.084 6.203 6.203 0 0 0-.197-1.125c.272.795.559 1.601.904 2.364l-.733-1.155Zm-.399-.63-.24-.38-.409-.64a8.99 8.99 0 0 0-.535-2.095l.345.504c.355.854.57 1.74.84 2.61Zm-2.355-3.72a73.046 73.046 0 0 1-.344-.545.063.063 0 0 0 .017-.06 57.663 57.663 0 0 0-.468-1.729c.172.26.342.522.517.781.136.594.273 1.19.427 1.773-.05-.064-.099-.142-.149-.22Zm8.786 16.95c.239.502.488 1 .747 1.49-.674-1.09-1.347-2.182-2.018-3.273.345.495.702.984 1.07 1.468l.2.315Zm4.773 7.016a.368.368 0 0 0 .107-.087.379.379 0 0 0 .096-.025l.409-.203c.469-.15.935-.315 1.398-.49-.606.475-1.247.87-2.019.805h.009Zm22.403-10.092.038.018-.137.03.099-.047Zm26.656-13.67a.273.273 0 0 0-.107-.039.5.5 0 0 0-.029-.183l-1.808-4.95a2716.98 2716.98 0 0 0 1.944 5.171ZM55.521 3.4a.148.148 0 0 0 .015-.065c.049.174.102.349.152.524a12.712 12.712 0 0 0-.223-.374.571.571 0 0 0 .056-.085Zm-.307.306c.044.136.087.262.136.39l-.07.027a.157.157 0 0 0-.092.136 1.611 1.611 0 0 0-.288-.238.105.105 0 0 0-.05-.01c-.023-.042-.044-.087-.068-.128.15-.043.296-.103.432-.181v.004Zm-.74.24.115-.025c.044.221.103.44.168.655a2.964 2.964 0 0 0-.364-.62l.082-.01Zm-2.58 2.68c.126-.964.14-1.939.043-2.905 0-.072-.071-.083-.123-.059.097-.088.191-.178.295-.259.237-.19.536-.325.773-.517.42 1.718.888 3.433 1.392 5.143a.136.136 0 0 0-.217.102c-.06.97-.032 1.942.082 2.906.059.488.127.971.172 1.455a.42.42 0 0 1-.012.137 249.9 249.9 0 0 0-.672-1.614c.047-.871-.022-1.76-.043-2.63-.02-.81 0-1.637-.113-2.436-.02-.147-.245-.104-.226.044.19 1.438.04 2.909.102 4.364-.182-.439-.366-.876-.554-1.312a.11.11 0 0 0 .153-.08c.2-1.373.068-2.865.082-4.25 0-.18-.273-.202-.28-.02-.016 1.375-.171 2.846-.012 4.215a221.89 221.89 0 0 0-.97-2.237.081.081 0 0 0 .111-.011.081.081 0 0 0 .018-.036Zm-2.391-4.59c3.273 8.953 7.293 17.672 10.882 26.503-3.862 1.88-7.52 4.299-11.216 6.48-2.559 1.509-5.223 2.949-7.5 4.872 1.048-1.409 2.026-2.87 3.587-3.786 2.15-1.259 4.54-1.947 6.647-3.34a25.43 25.43 0 0 0 5.236-4.567c.491-.569 1.121-1.216.879-1.909a.162.162 0 0 0 0-.16c-3.965-7.426-7.16-15.092-10.461-22.791a3.522 3.522 0 0 0 1.946-1.301Zm-21.719 10.87c1.165-1.636 3.16-2.136 4.926-2.838a39.423 39.423 0 0 0 4.62-2.146A24.273 24.273 0 0 0 39.998 6.2c-.313.314-.628.623-.937.941a.116.116 0 0 0 .07.202.12.12 0 0 0 .084-.029c2.528-1.857 4.859-4.34 6.846-6.791 2.896 8.897 7.238 17.533 11.624 25.773.02.037.052.066.091.082-.136.675-.987 1.796-1.298 2.16-.328.357-.678.694-1.047 1.009a27.11 27.11 0 0 1-2.549 2.056c-1.87 1.33-3.863 2.354-5.972 3.24-3.166 1.332-4.612 3.56-6.633 6.102a.255.255 0 0 0-.053-.072.175.175 0 0 0-.175-.19c.17-.09.029-.375-.148-.273l-.137.075a.19.19 0 0 0-.046.039 340.137 340.137 0 0 0-1.637-3.243.137.137 0 0 0 .066-.228 5.358 5.358 0 0 0-.344-.312c-.11-.212-.223-.42-.334-.63l.078.09a.095.095 0 0 0 .158-.04.096.096 0 0 0-.003-.064 2.374 2.374 0 0 0-.387-.629 14.363 14.363 0 0 1-.204-1.579c0-.063-.114-.057-.112.007.012.438.036.885.086 1.328a3.26 3.26 0 0 0-.401-.308v-.014c-.23-.88-.355-1.69-.179-2.648.01-.052-.07-.056-.08 0a6.444 6.444 0 0 0-.116 1.756 32.191 32.191 0 0 1-.599-1.605c-.091-1.153.056-2.265.648-3.387.035-.066-.06-.137-.1-.066a6.273 6.273 0 0 0-.844 3.41l-.393-.819-.024-1.627c0-.024-.038-.027-.038 0l.036 1.573c-1.554-3.273-3.027-6.591-4.516-9.897 0-.008.012-.013.013-.027a7.094 7.094 0 0 0-.16-1.889.047.047 0 0 0-.092.018c.066.53.1 1.062.101 1.596-.136-.294-.263-.587-.397-.88a18.803 18.803 0 0 1-.215-3.623.053.053 0 1 0-.107-.009 15.194 15.194 0 0 0-.064 2.787l-.136-.305c-.029-.49-.067-.977-.064-1.468 0-.75.076-1.5.102-2.244 0-.077-.12-.111-.136-.028-.22.938-.322 1.9-.303 2.863-.082-.18-.165-.358-.248-.545a5.56 5.56 0 0 1-.05-.839c.034-.647.117-1.291.246-1.927.014-.076-.1-.091-.128-.026a6.63 6.63 0 0 0-.446 1.974l-.273-.592c.02-.175.043-.34.059-.476.082-.695.23-1.38.444-2.046a.103.103 0 0 0-.195-.066 10.317 10.317 0 0 0-.49 2.209 195.29 195.29 0 0 0-.805-1.693.1.1 0 0 1 0-.021c.192.072.424.136.537.061.001.125.012.25.032.372.01.064.12.063.117 0a3.397 3.397 0 0 1 .367-1.754c.046-.087-.08-.174-.137-.085-.203.349-.33.738-.37 1.14a.137.137 0 0 0-.11-.08l-.057-.008a.122.122 0 0 0-.129.139.123.123 0 0 0 .03.065 1.035 1.035 0 0 0-.129-.129.066.066 0 0 0 .018-.106l-.029-.026a6.05 6.05 0 0 1 .509-1.017ZM13.4 19.045c-.44.051-.879.11-1.316.166a24.267 24.267 0 0 0 3-1.056 39.18 39.18 0 0 0 4.518-2.343c1.636-.967 3.258-2.238 5.264-2.156a6.047 6.047 0 0 1 1.863.502l.044.12a3.093 3.093 0 0 0-.1.292v-.273c0-.124-.197-.136-.194-.014 0 .246.012.492.038.737a.066.066 0 0 0 .035.05.066.066 0 0 0 .06 0c.002.06.009.121.022.18a.122.122 0 0 0-.22-.045l-.03.05a.154.154 0 0 0 .012.177c.34.506.545-.32.602-.56.273.736.564 1.47.861 2.202-.023.495 0 1.046.31 1.313a.09.09 0 0 0 .136-.116 1.352 1.352 0 0 1-.214-.648c2.205 5.347 4.846 10.523 7.484 15.683.016.061.037.123.057.184-1.047-.79-2.36-1.252-3.64-1.411-.072-.009-.077.1-.008.113 1.604.29 2.864 1.044 4.075 2.062l.205.4c-.809-.436-1.781-.681-2.55-.856-.065-.015-.1.08-.033.101.739.232 1.5.465 2.182.83.222.117.433.257.628.415.14.34.288.678.445 1.015a7.666 7.666 0 0 0-1.86-.752c-.089-.023-.136.108-.047.137a7.55 7.55 0 0 1 2.144 1.114l.064.136c.622 1.26.955 2.653 1.54 3.918-2.976.015-5.463-.08-8.271 1.5-1.88 1.061-3.803 1.989-5.864 2.634-1.09.34-6.17 1.958-7.511.843a.176.176 0 0 0 .026-.191c-3.845-8.513-8.02-17.23-13.275-24.971 3.154-.071 6.546-.393 9.561-1.255a.116.116 0 1 0-.043-.228v.002Zm3.868 29.961C12.483 40.755 8.046 32.24 2.977 24.17c.8.014 1.582-.247 2.214-.737 4.066 7.323 8.172 14.544 11.62 22.228a.158.158 0 0 0 .122.099c.397.621 1.287.508 2.046.474a24.783 24.783 0 0 0 6.818-1.342c2.39-.818 4.4-2.27 6.71-3.209 1.674-.681 3.438-.556 5.197-.52-2.915.619-5.687 1.846-8.448 2.945-3.985 1.585-8.135 2.995-11.988 4.897v.002Zm-.068 2.736a.218.218 0 0 0 .373.025c1.43-1.716 4.06-2.777 6.073-3.665 1.58-.697 3.192-1.32 4.794-1.96l.955-.384c.012.02.033.034.056.038l2.192.48c.273.06.56.137.844.206-.325.165-.65.333-.976.497-.353-.022-.709-.033-1.05-.086a11.773 11.773 0 0 1-2.25-.598c-.151-.055-.23.18-.08.238.675.268 1.373.476 2.086.62.215.044.447.092.682.137l-1.057.525a23.668 23.668 0 0 1-2.613-.666.105.105 0 0 0-.081.005.106.106 0 0 0 .012.197c.707.25 1.453.505 2.209.698l-.992.492a5.23 5.23 0 0 1-.307-.066 9.21 9.21 0 0 1-1.718-.652c-.136-.07-.284.136-.136.208.555.29 1.134.533 1.73.726l-.793.389-.08-.017a14.368 14.368 0 0 1-1.903-.626c-.137-.054-.206.156-.074.213a19.55 19.55 0 0 0 1.648.629l-.436.211c-.945-.273-1.922-.477-2.852-.73-.12-.034-.183.148-.063.182.818.234 1.636.522 2.47.765-.307.149-.613.299-.92.446-.892-.195-1.786-.385-2.662-.65a.11.11 0 1 0-.07.207c.72.229 1.47.477 2.23.681l-.554.266c-.247-.06-.493-.117-.729-.177a40.318 40.318 0 0 0-2.374-.529c-.179-.034-.195.245-.02.28a41.16 41.16 0 0 1 2.553.606l.115.036-.589.28a11.068 11.068 0 0 1-.583-.122 34.769 34.769 0 0 1-1.994-.558.091.091 0 0 0-.059.172c.676.27 1.365.505 2.065.704l.1.029-.51.244-.355-.075c-.578-.137-1.256-.39-1.854-.356a.126.126 0 0 0-.136.111c0 .103.01.137.11.153.003 0 .007 0 .01-.003a.02.02 0 0 0 .008-.01l.014-.037c.153.063 1.136.363 1.604.5a460.847 460.847 0 0 1-3.787 1.773c-2.638-4.148-5.294-8.297-7.93-12.458L7.414 37.92a.078.078 0 0 0 .06-.096c-.262-1.003-.682-1.987-1.079-2.96l.832 1.219a.147.147 0 0 0-.158.13.146.146 0 0 0 .011.073c.385.846.631 1.742 1.005 2.591a.1.1 0 0 0 .188-.063c-.12-.818-.469-1.636-.818-2.392.666.973 1.323 1.953 1.97 2.94 2.659 4.084 5.237 8.224 7.775 12.378v.001ZM4.108 31.527a.12.12 0 0 0 .013.062c.35.797.633 1.623.844 2.467l-.762-1.205a16.857 16.857 0 0 0-.348-1.7l.253.376ZM.3 29.737c.018.013.04.022.061.028.38.075.803-.248 1.076-.49.02-.017.038-.038.059-.057.01.045.023.091.038.136-.154-.049-.352.097-.252.273l.235.424.104.362-.455-.667a.116.116 0 0 0-.178 0 .147.147 0 0 0-.11.139c0 .02.004.042.012.061.7 1.388 1.403 2.688 2.381 3.877a34.394 34.394 0 0 0 2.455 4.125 38.39 38.39 0 0 0 1.109 1.588 219.495 219.495 0 0 0 1.849 3.085c.257.673.556 1.33.896 1.965-.45-.728-.9-1.457-1.35-2.19C5.64 38.19 3.258 33.699.3 29.738Zm16.337 26.289c-.447-.73-.897-1.455-1.345-2.182.043.018.09.023.137.014a68.6 68.6 0 0 0 1.09 1.852.33.33 0 0 0 .347.156.23.23 0 0 0 .105.062.096.096 0 0 0 .02.13c.03.02.06.035.09.053a1.54 1.54 0 0 1-.444-.085ZM27.232 51.5l-5.755 2.718a7.36 7.36 0 0 0-.416.215c1.936-1.125 4.016-1.88 6.018-2.944.36-.192.71-.39 1.057-.59a.088.088 0 0 0 .097.021c.31-.119.623-.243.934-.364-.648.322-1.293.64-1.938.944h.003Z" fill="#312C93"/><path d="M51.262 5.081a.025.025 0 0 0 .013-.014.025.025 0 0 0-.008-.027.025.025 0 0 0-.018-.006.025.025 0 0 0-.009.002c-.029.015-.007.06.022.045Zm1.051 1.775c.105-.9.045-1.825-.017-2.728-.011-.157-.251-.11-.24.045.064.89.04 1.773.083 2.669a.088.088 0 0 0 .174.014ZM57.4 18.601c-.04-.85-.386-1.755-.589-2.581-.029-.117-.21-.085-.184.034.185.83.273 1.799.62 2.577.03.071.157.052.153-.03Zm.663 1.659c.054.637.165 1.267.334 1.883.023.084.155.061.136-.026a13.757 13.757 0 0 1-.327-1.882c-.01-.093-.151-.06-.143.026Zm-22.902 7.645c.097-.375.175-.756.257-1.135a.064.064 0 0 0-.004-.054.065.065 0 0 0-.072-.032.064.064 0 0 0-.043.034.065.065 0 0 0-.008.026c-.072.382-.147.762-.203 1.146a.04.04 0 0 0 .008.024.038.038 0 0 0 .048.01.038.038 0 0 0 .017-.02Zm2.637 8.706c.014 0 0-.03-.01-.023a.011.011 0 0 0-.005.003.011.011 0 0 0-.002.004l-.001.005.001.005c0 .002.002.003.003.004a.012.012 0 0 0 .01.003h.004Z" fill="#312C93"/><mask id="a" style="mask-type:alpha" maskUnits="userSpaceOnUse" x="318" y="10" width="5" height="48"><path d="M318 10h5v48h-5V10Z" fill="#C4C4C4"/></mask><g mask="url(#a)"><path d="M321.436 25.424h-1.096l-.609-.73 1.705.974v-.244Zm.548-31.739H319v39.11a2.307 2.307 0 0 0 1.644 1.158h.549l-.853 1.401-1.34-.73V57.65h1.644a2.19 2.19 0 0 0 1.34-.365V33.953h-.365l.365-.365v-1.584h-.852l-.488-2.254v.304l-.426-.548h2.01V22.44l-1.705-1.4 1.948.365V-6.56" fill="#312C93"/></g><mask id="b" style="mask-type:alpha" maskUnits="userSpaceOnUse" x="34" y="49" width="5" height="8"><path d="M34 49h5v8h-5v-8Z" fill="#C4C4C4"/></mask><g mask="url(#b)"><path d="M37.436 25.424H36.34l-.61-.73 1.706.974v-.244Zm.548-31.739H35v39.11a2.315 2.315 0 0 0 1.644 1.158h.549l-.853 1.401-1.34-.73V57.65h1.644c.475.027.945-.101 1.34-.365V33.953h-.365l.365-.365v-1.584h-.852l-.488-2.254v.304l-.426-.548h2.01V22.44l-1.705-1.4 1.948.365V-6.56" fill="#312C93"/></g></svg>