<svg width="61" height="61" fill="none" xmlns="http://www.w3.org/2000/svg"><path fill-rule="evenodd" clip-rule="evenodd" d="M29.656 2.105c.189.104.37.204.47-.127l.038-.12c.093-.29.222-.694.082-.857a30.07 30.07 0 0 1 6.029.455c.087.176.23.295.4.24.298-.099.467.058.616.198.09.082.172.159.27.173.09-.116.147-.22.181-.311A29.75 29.75 0 0 1 43.45 3.7v.001l-.001.003c.083.136.21.171.337.153.909.43 1.791.903 2.645 1.418a5.95 5.95 0 0 0-.286.216c-.07.056-.141.112-.214.165-.213.156-.19.364-.047.537.336.405 1.151.396 1.505.005l.033-.036a.801.801 0 0 0 .134-.175c.255.17.508.342.757.519l-.015.01c-.09.06-.183.12-.094.284.242.439.705.598 1.161.49.149.114.297.231.443.349-.339.097-.675.232-.971.549.64.253.976.005 1.26-.316a30.103 30.103 0 0 1 9.227 13.242l-.006.011c-.038.072-.077.148-.12.156-.253.05-.478-.025-.706-.1a1.992 1.992 0 0 0-.496-.117 26.45 26.45 0 0 0-.383-.979 8.324 8.324 0 0 1-.005-.252c-.005-.44-.01-.906-.354-1.307.018.274.034.55.047.826A28.957 28.957 0 0 0 44.74 5.727l.125-.063c.274-.137.491-.245.534-.536.008-.054-.252-.222-.377-.21-.396.04-.453.315-.43.729a28.761 28.761 0 0 0-2.38-1.144l.09-.17.002-.004.002-.005.182-.35c-.263-.246-.57-.261-.867-.276-.247-.013-.488-.025-.694-.167v-.003l.002-.004-.007.004.007-.004-.008.002c-.645-1.176-1.518-.922-2.4-.665-.203.059-.407.119-.61.16l.02.052a28.709 28.709 0 0 0-6.934-.847c-7.157 0-13.71 2.628-18.75 6.968-.206-.028-.415-.035-.624-.042a6.844 6.844 0 0 1-.587-.038c-.22-.027-.356.073-.353.235.012.68-.43.855-.939 1.059l-.08.032c-.307.123-.567.485-.41 1 .262-.098.496-.103.717-.057-.25.269-.497.54-.737.818a.472.472 0 0 0-.157-.198c-.255-.166-.426-.002-.6.164-.18.174-.362.35-.644.152-.077-.054-.214.181-.1.223.203.076.269.217.294.376-.257-.151-.417-.058-.263.344.117.3 0 .35-.172.423l-.027.011-.03.015-.018.008.004-.02.002-.01.002-.011h-.001l-.019.016-.013.012-.06-.052a1.362 1.362 0 0 0-.106-.087c-.164-.119-.334-.223-.513-.026-.025.028-.054.087-.042.108.109.184.277.286.487.234a.25.25 0 0 0 .076-.036c-.175.173-.189.41-.099.66-.094.065-.225.108-.416.116a.294.294 0 0 0-.25.159c-.144-.22-.368-.275-.604-.305a30.039 30.039 0 0 1 2.465-3.23.396.396 0 0 0 .08-.09c5.262-5.96 12.85-9.818 21.33-10.141a1.135 1.135 0 0 0-.02.185c-.008.178-.018.372-.2.4-.098.015-.19.076-.304.153-.06.039-.125.082-.2.126.057.035.097.064.126.085.043.03.063.045.078.04.104-.027.222.037.336.1ZM7.524 13.678l-.017.037a.027.027 0 0 1 .004.007.778.778 0 0 0-.1.06l.021-.02.06-.056.01.01.002.002a1.1 1.1 0 0 0 .02-.04Zm8.095 42.59a.787.787 0 0 1 .105-.052c.22-.088.371-.286.318-.485-.076-.28-.217-.177-.345-.084a.653.653 0 0 1-.115.074c-.114.05-.201-.005-.294-.062-.123-.076-.254-.158-.47-.016.053.07.103.132.15.19.096.12.18.222.239.337.128.247.269.173.411.097Zm-8.657-7.57c.034.07.213.102.321.094.104-.008.253-.056.171-.234a1.63 1.63 0 0 1-.027-.031c-.07-.081-.142-.166-.267-.089l-.016.01-.03.017h-.001c-.095.054-.206.117-.15.233Zm5.149 3.972a28.807 28.807 0 0 0 8.431 5.119 8.267 8.267 0 0 0-1.25.823A30.185 30.185 0 0 1 5.99 47.544l.002-.006c.043-.175-.041-.36-.213-.407a.598.598 0 0 0-.07-.016 29.82 29.82 0 0 1-4.185-10.52c.076-.095.175-.183.308-.267.399-.251.306-.751.066-1.127-.105-.166-.249-.306-.406-.46a6.232 6.232 0 0 1-.23-.23 4.276 4.276 0 0 1-.048.087 27.083 27.083 0 0 1-.086-.82.1.1 0 0 1 .01.002h.016c.154-.001.426-.084.442-.168.086-.446.373-.437.656-.427h.002l.06.002a28.53 28.53 0 0 0 1.388 6.888l-.071.08c-.25.274-.447.491-.228.816.043.065.261.093.335.043.117-.078.179-.162.203-.253a28.79 28.79 0 0 0 5.3 9.028.197.197 0 0 0 .014.224.98.98 0 0 1 .081.147c.081.168.165.341.457.248a28.824 28.824 0 0 0 1.796 1.795.39.39 0 0 0 .03.183c.113.251.278.309.492.284ZM5.796 16.028a.204.204 0 0 1 .038-.055v-.037c-.015-.242-.181-.44-.435-.574-.153.25-.304.502-.45.757.098-.043.211 0 .326.046.186.072.377.147.521-.137ZM39.763 3.556c.39.046.774.09 1.157-.03l.001.002.002.001.002.001h.002a1.016 1.016 0 0 0-.013.458 28.815 28.815 0 0 0-1.31-.446c.046.002.09.006.134.01l.025.004ZM4.111 18.02c.029-.12.273-.313.322-.287.26.136.29.377.33.68.012.092.025.19.045.293-.486-.122-.8-.252-.697-.686Zm-1.474 6.05c-.041.25-.167.442-.409.532-.133-.042-.268-.111-.227-.248.011-.036.02-.074.03-.112.049-.198.1-.41.39-.404.128.003.24.079.216.233Zm2.721-6.418c-.09.202-.557-.193-.74-.399-.176-.198-.03-.471.222-.616l.018-.008.009-.003c-.02-.1-.032-.2-.032-.304a30 30 0 0 0-1.981 4.276l.348.37.247.262a3.092 3.092 0 0 0-.712.199c-.068.025-.135.05-.201.072a29.76 29.76 0 0 0-1.319 5.859c.165-.198.39-.283.68-.06v-.011c.131.045.244.004.336-.088.136-.134.18-.234-.049-.35-.37-.186-.284-.44-.025-.729.184.147.306.324.402.514a28.563 28.563 0 0 1 2.96-8.99.412.412 0 0 1-.163.006Zm34.714 41.535c-.221-.006-.524-.014-.391.394.012.038.022.077.03.117a29.922 29.922 0 0 1-11.487 1.163.687.687 0 0 0-.032-.1c-.118-.292-.366-.285-.608-.28-.136.004-.27.008-.379-.041-.231-.105-.542-.074-.853-.043-.67.066-1.343.132-1.247-1.137.002-.02-.074-.073-.099-.065-.27.088-.46-.056-.651-.214a28.764 28.764 0 0 0 10.536.51c.009.01.017.02.026.027.149.136.292.15.444.04.068-.049.103-.1.114-.151a28.678 28.678 0 0 0 14.454-6.778.831.831 0 0 0 .21-.187 28.54 28.54 0 0 0 1.555-1.497.488.488 0 0 0 .5.387c.276-.005.794-.14.807-.574a.63.63 0 0 0-.536-.643c.89-.998 1.71-2.059 2.457-3.173l.011.002.01.003c-.002-.01-.005-.019-.005-.03.15-.228.302-.46.448-.692l.008.044v.001l.015.078.026.149c.056.344.135.82.503 1.145-.276.411-.56.814-.854 1.21-.144-.105-.282-.074-.347.129-.005.022.01.077.045.154-.026.018-.045.04-.05.066a1.781 1.781 0 0 1-.052.181c-.245.314-.497.624-.752.928a9.434 9.434 0 0 1-.268.188c-.07.048-.14.096-.209.146-.096.07-.078.164-.015.235a30.103 30.103 0 0 1-12.617 8.458 1.024 1.024 0 0 0-.616-.15 1.121 1.121 0 0 1-.13 0Zm17.022-14.113c.081-.04.162-.079.218-.135a.605.605 0 0 1 .33-.178c-.166.321-.338.639-.515.952-.127-.004-.236-.028-.291-.168-.116-.289.071-.38.258-.47Zm1.044-1.315c.351-.74.672-1.496.96-2.267l-.088.004h-.006a6.041 6.041 0 0 0-.082.004c-.076-.633.166-1.032.58-1.404l.065.05a29.875 29.875 0 0 0 1.127-4.912 1.202 1.202 0 0 1-.45-.596c.245-.033.416-.055.536-.05.063-.518.11-1.04.146-1.565a.366.366 0 0 1-.133.107c-.015.008-.13-.11-.12-.14a.643.643 0 0 0 .032-.174c.012-.143.025-.286.229-.317a.047.047 0 0 1 .023.004 29.846 29.846 0 0 0-.15-4.87.681.681 0 0 1-.253-.202.71.71 0 0 1 .216-.117 29.736 29.736 0 0 0-1.289-5.735.372.372 0 0 1-.213.063 1.065 1.065 0 0 1-.173-.014.858.858 0 0 0-.202-.013c-.253.023-.248.25-.154.355.041.044.1.08.16.114.152.09.295.175.07.409-.166.173-.314.084-.467-.008l-.03-.019c.134.434.26.873.374 1.315.029-.061.062-.123.107-.184.658 1.117.822 1.456.244 1.714a29.6 29.6 0 0 1 .391 2.516 1.02 1.02 0 0 0 .104-.16c.092-.164.186-.33.466-.26.139.187.053.344-.033.502a.751.751 0 0 0-.105.262c-.024.204-.153.133-.268.069a.658.658 0 0 0-.096-.048l-.032-.013c.063.649.104 1.302.123 1.962l.015.005c.329.103.685.214.86.608-.308.167-.591.188-.862.105l.001.065.001.067c0 2.161-.242 4.268-.695 6.294a.51.51 0 0 0 .161 0c-.038.162-.122.233-.223.268a28 28 0 0 1-.412 1.556c.003.122-.01.238-.096.33a28.816 28.816 0 0 1-1.231 3.27c.528.058.796.402.872 1.05ZM1.188 32.084c0 .001 0 .003-.002.005h.003l-.057.04-.109.077a26.088 26.088 0 0 1-.017-.516c.058.036.093.141.128.246.017.052.034.104.054.148Zm.717-4.724c-.394.462-.038.614.316.765l.075.032c-.265-.206-.36-.487-.391-.797Zm-.586 4.742a2.09 2.09 0 0 1-.13-.012s.002 0 .002-.002l-.002-.002v-.002c.11-.281.314-.501.516-.72.128-.138.256-.276.359-.428-.187-.163-.333-.12-.466-.081a.52.52 0 0 1-.183.03.553.553 0 0 0-.196.035.474.474 0 0 1-.221.032c0-.066 0-.132.002-.198v-.09c.608-.312.867-.851.945-1.503a.487.487 0 0 0 .025-.118.033.033 0 0 1-.003-.01.45.45 0 0 0 .004-.034v-.001a1.06 1.06 0 0 0 .334-.058 29.243 29.243 0 0 0-.074 2.052c0 .61.021 1.215.06 1.816-.346-.05-.66-.164-.763-.662-.006-.027-.107-.035-.21-.044ZM22.93 58.603a.572.572 0 0 0 .53.15 29.76 29.76 0 0 1-.53-.15ZM1.622 28.511c.197.102.388.2.349.487h-.01a3.71 3.71 0 0 1-.016.163c-.065.191-.236.265-.404.338-.058.025-.115.05-.167.079-.146.08-.264.172-.354.275.023-.613.063-1.221.123-1.824.025.04.052.08.08.122l.078.118c.072.113.198.178.32.242Z" fill="#986B0D"/><g clip-path="url(#a)"><path d="M44.775 19.892H18.162a2.842 2.842 0 0 0-2.838 2.838v17.028a2.842 2.842 0 0 0 2.838 2.838h26.613a2.841 2.841 0 0 0 2.838-2.838V22.73a2.84 2.84 0 0 0-2.838-2.838Zm-.397 1.892L33.475 32.63a2.82 2.82 0 0 1-2.007.832 2.82 2.82 0 0 1-2.008-.833l-10.9-10.844h25.818ZM17.216 39.373V23.117l8.175 8.132-8.175 8.124Zm1.344 1.33 8.173-8.12 1.39 1.384a4.7 4.7 0 0 0 3.345 1.386 4.698 4.698 0 0 0 3.343-1.384l1.393-1.386 8.172 8.12H18.56Zm27.161-1.33-8.176-8.124 8.176-8.133v16.257Z" fill="#986B0D"/></g><defs><clipPath id="a"><path fill="#fff" transform="translate(14.998 15)" d="M0 0h32.615v32.615H0z"/></clipPath></defs></svg>