<svg width="481" height="271" fill="none" xmlns="http://www.w3.org/2000/svg"><g clip-path="url(#a)"><path d="M36.386 102.849 5.188 3.215H-.458V0h34.964v3.231H27.78l23.396 77 28.52-77h-5.928V0H88.56v3.231h-4.844l-30.411 81.31L82.89 185.236h5.647v3.231H53.063v-3.231h6.719l-20.707-77.544-30.659 77.544h5.916v3.231H-.458v-3.231h4.827l32.017-82.388Zm104.892-62.461c0-4.309.184-8.84.55-13.597a32.032 32.032 0 0 1 3.767-13.062c2.151-3.942 5.602-7.217 10.353-9.826 4.751-2.61 11.422-3.91 20.014-3.903 8.768 0 15.535 1.121 20.3 3.363 4.765 2.243 8.26 5.204 10.485 8.885a28.243 28.243 0 0 1 3.899 12.793c.361 5.107.451 10.23.269 15.347 0 13.64.046 25.62.138 35.94.091 10.319.135 19.293.132 26.923 0 7.637.045 14.059.137 19.266.088 5.213.132 9.424.132 12.661 0 7.706.09 12.015.269 12.925 0 6.825-.183 12.748-.549 17.769-.367 5.02-1.661 9.18-3.882 12.479-2.244 3.325-5.785 5.838-10.623 7.541-4.839 1.703-11.741 2.556-20.707 2.56-8.603 0-15.282-.853-20.036-2.56-4.754-1.706-8.205-4.264-10.353-7.673-2.152-3.41-3.408-7.582-3.767-12.518-.359-4.936-.542-10.807-.55-17.615v-47.659h-15.587v84.81h5.382v3.231H96.896v-3.231h6.724V3.231h-6.724V0h34.155v3.231h-5.646l.264 93.965h15.609V40.388Zm20.696 107.687c0 5.923.09 11.173.27 15.749.09 3.894.586 7.768 1.479 11.56.81 3.145 2.155 5.569 4.035 7.271 1.881 1.703 4.615 2.556 8.204 2.56 3.405 0 6.05-.853 7.934-2.56 1.884-1.706 3.274-4.13 4.168-7.271a46.48 46.48 0 0 0 1.479-11.56c.081-4.573.121-9.822.121-15.749v-18.303c0-7.534-.044-18.349-.132-32.444-.088-14.096-.227-33.076-.418-56.94.18-4.668.18-9.2 0-13.597a64.71 64.71 0 0 0-1.479-11.846c-.803-3.5-2.146-6.328-4.03-8.483-1.884-2.154-4.432-3.23-7.643-3.23-3.589 0-6.323 1.21-8.204 3.632a22.65 22.65 0 0 0-4.035 9.155 70.086 70.086 0 0 0-1.479 12.11 289.209 289.209 0 0 0-.27 12.253v25.845c0 8.807-.044 19.98-.132 33.517-.088 13.538-.044 29.648.132 48.331ZM290.52 0v14.268h-3.76V3.258h-25.551l.269 182.007h5.378v3.231H232.7v-3.231h6.724V3.231H232.7V0h57.82Zm68.845 0v14.268h-3.761V3.258h-25.551l.27 182.007h5.377v3.231h-34.156v-3.231h6.725V3.231h-6.725V0h57.821Zm77.175 0v11.846h-3.497V3.231h-34.144l.253 88.042a4.766 4.766 0 0 1 2.149-4.173c1.434-.983 4.034-1.477 7.803-1.48h12.921v-5.654h3.519v14.268h-3.519v-5.12h-13.983c-3.225 0-5.511.9-6.856 2.698-1.345 1.798-2.023 4.49-2.034 8.075v85.322h33.886v-8.592h3.502v11.851h-66.15v-3.231h6.724V3.231h-6.724V0h66.15Z" fill="#E30611"/><path d="M43.996 238.447c-.462.802-.953 1.648-1.475 2.539a43.993 43.993 0 0 0-1.5 2.79 32.616 32.616 0 0 0-1.283 2.954c-.376.97-.663 1.973-.855 2.996-.368 1.938-.39 3.353-.069 4.246.32.891.855 1.366 1.544 1.43.688.064 1.535-.231 2.488-.878a13.303 13.303 0 0 0 2.813-2.675 41.773 41.773 0 0 0 2.138-3.095 27.243 27.243 0 0 0 1.869-3.458c.213-.428.461-.646.735-.646.273 0 .295.278.047.83a55.687 55.687 0 0 1-.782 1.614 36.5 36.5 0 0 1-1.04 1.917 92.83 92.83 0 0 1-1.197 2.008 20.602 20.602 0 0 1-1.282 1.845 12.34 12.34 0 0 1-1.364 1.498 10.6 10.6 0 0 1-1.633 1.284 8.662 8.662 0 0 1-1.847.877 6.05 6.05 0 0 1-1.933.321 3.077 3.077 0 0 1-2.03-.646 3.95 3.95 0 0 1-1.177-1.682 7.256 7.256 0 0 1-.427-2.307c-.031-.859.015-1.718.137-2.568a20.221 20.221 0 0 1-4.532 4.357 9.076 9.076 0 0 1-4.1 1.635 4.227 4.227 0 0 1-3.16-.899c-.855-.707-1.408-1.799-1.66-3.274a9.599 9.599 0 0 1 .116-3.532 31.34 31.34 0 0 1 1.155-4.156 58.388 58.388 0 0 1 1.774-4.499c.678-1.538 1.338-3.05 1.98-4.537a294.403 294.403 0 0 0 1.82-4.28 26.907 26.907 0 0 0 1.284-3.716c.268-1.071.475-2.158.62-3.253a16.35 16.35 0 0 0 .14-2.932 6.937 6.937 0 0 0-.487-2.329 3.065 3.065 0 0 0-1.244-1.502 7.84 7.84 0 0 0-3.25-1.083 14.46 14.46 0 0 0-3.847.116 21.29 21.29 0 0 0-4.152 1.108 26.957 26.957 0 0 0-4.079 1.935 27.98 27.98 0 0 0-7.418 6.035 22.272 22.272 0 0 0-3.963 6.669 15.025 15.025 0 0 0-.945 6.365c.099 1.809.67 3.56 1.659 5.077a6.958 6.958 0 0 0 3.873 2.795c1.642.494 3.523.34 5.644-.462a8.888 8.888 0 0 0 2.993-1.961 14.22 14.22 0 0 0 2.394-3.047 14.132 14.132 0 0 0 1.475-3.425 6.4 6.4 0 0 0 .21-3.043 2.908 2.908 0 0 0-1.385-1.986c-.736-.445-1.842-.5-3.318-.163-.352.131-.73.179-1.103.141-.124-.064-.141-.154-.047-.278.129-.158.285-.291.461-.394.144-.099.297-.184.458-.252 1.57-.676 2.853-.86 3.848-.552a3.282 3.282 0 0 1 2.07 1.849 6.239 6.239 0 0 1 .388 3.343 12.04 12.04 0 0 1-1.282 4.041 15.695 15.695 0 0 1-2.86 3.899 13.193 13.193 0 0 1-4.353 2.906 10.366 10.366 0 0 1-4.819.946 8.162 8.162 0 0 1-3.963-1.284 8.625 8.625 0 0 1-2.813-3.047A11.549 11.549 0 0 1 .09 238.61a15.116 15.116 0 0 1 .329-5.192 19.399 19.399 0 0 1 2.304-5.608 25.76 25.76 0 0 1 4.537-5.534 34.143 34.143 0 0 1 7.054-5.008 23.05 23.05 0 0 1 7.949-2.795 12.928 12.928 0 0 1 7.076.761 7.066 7.066 0 0 1 2.693 1.952 7.2 7.2 0 0 1 1.407 2.723c.285 1.082.393 2.204.32 3.321a22.77 22.77 0 0 1-.504 3.694 26.951 26.951 0 0 1-1.223 3.9 86.36 86.36 0 0 1-1.796 4.22l-1.983 4.349a56.049 56.049 0 0 0-1.753 4.332 34.667 34.667 0 0 0-1.198 4.084 11.287 11.287 0 0 0-.252 3.672c.12 1.199.492 2.046 1.103 2.538a2.482 2.482 0 0 0 2.33.343 8.835 8.835 0 0 0 3.181-1.914 21.996 21.996 0 0 0 3.665-4.28 39.465 39.465 0 0 0 2.236-3.643 147.1 147.1 0 0 0 2.073-3.946 419.337 419.337 0 0 0 1.869-3.737 62.89 62.89 0 0 1 1.565-3.069 6.847 6.847 0 0 1 1.475-1.892 2.012 2.012 0 0 1 1.107-.556 1.467 1.467 0 0 1 .898 1.224 4.178 4.178 0 0 1-.3 1.798c-.275.72-.614 1.415-1.013 2.076-.43.704-.845 1.379-1.244 2.024Z" fill="url(#b)"/><path d="M62.8 245.437a65.355 65.355 0 0 1-1.659 3.369 14.191 14.191 0 0 1-1.864 2.748 7.738 7.738 0 0 1-2.399 1.845 7.311 7.311 0 0 1-3.25.668 5.442 5.442 0 0 1-2.855-.647 3.662 3.662 0 0 1-1.522-1.682 5.141 5.141 0 0 1-.394-2.376c.055-.94.226-1.871.51-2.769.298-.971.683-1.914 1.15-2.817a17.45 17.45 0 0 1 1.543-2.491 9.845 9.845 0 0 1 2.903-2.701 6.434 6.434 0 0 1 3.275-.946c1.167 0 2.018.296 2.565.856a2.725 2.725 0 0 1 .625 2.308 3.65 3.65 0 0 1-.428 1.155 4.186 4.186 0 0 1-.808 1.015 2.204 2.204 0 0 1-.97.53.876.876 0 0 1-.856-.256c.244-.304.513-.668.804-1.083a4.32 4.32 0 0 0 .624-1.284c.214-.801.223-1.379.022-1.734a1.013 1.013 0 0 0-.945-.531 2.562 2.562 0 0 0-1.283.373 9.277 9.277 0 0 0-1.313.92 9.936 9.936 0 0 0-1.282 1.284 15.36 15.36 0 0 0-1.056 1.408c-.276.402-.53.817-.761 1.246-.31.554-.588 1.125-.83 1.712a14.711 14.711 0 0 0-.671 2.008 8.216 8.216 0 0 0-.274 2.076 4.869 4.869 0 0 0 .62 2.469 2.227 2.227 0 0 0 2.1 1.083 4.82 4.82 0 0 0 2.693-.762 9.213 9.213 0 0 0 2.138-1.939 16.567 16.567 0 0 0 1.749-2.606 72.093 72.093 0 0 0 1.475-2.813c.218-.428.427-.599.645-.509.218.09.197.39-.021.873Z" fill="url(#c)"/><path d="M64.506 244.911a50.435 50.435 0 0 1 1.637-1.939 25.35 25.35 0 0 1 1.912-1.939 23.242 23.242 0 0 1 2.073-1.687 9.848 9.848 0 0 1 2.138-1.173 6.451 6.451 0 0 1 2.86-.509 1.799 1.799 0 0 1 1.428.783c.12.34.153.706.094 1.062-.054.321-.19.623-.393.877-.198.246-.462.43-.761.531-.312.108-.65.115-.966.021a1.01 1.01 0 0 0-.53-.757 2.241 2.241 0 0 0-1.317-.257 6.24 6.24 0 0 0-1.959.509 10.25 10.25 0 0 0-2.372 1.43 14.23 14.23 0 0 0-.898 5.513c.108 1.618.484 2.872 1.128 3.763a3.106 3.106 0 0 0 2.442 1.408c.983.047 2-.484 3.044-1.592a13.58 13.58 0 0 0 1.821-2.607 63.179 63.179 0 0 0 1.912-3.716c.183-.368.367-.483.555-.346.188.137.197.394.043.762a32.687 32.687 0 0 1-2.604 4.961 12.002 12.002 0 0 1-2.351 2.722 4.912 4.912 0 0 1-2.164 1.083 7.715 7.715 0 0 1-2.052.094 4.63 4.63 0 0 1-1.313-.3 4.135 4.135 0 0 1-1.282-.783 5.784 5.784 0 0 1-1.082-1.318 5.25 5.25 0 0 1-.671-1.982 14.024 14.024 0 0 1-.205-2.448 8.512 8.512 0 0 1 .162-1.614 54.995 54.995 0 0 0-1.223 1.661 13.27 13.27 0 0 0-1.081 1.802c-.189.368-.428.856-.672 1.476-.243.621-.637 1.49-1.129 2.629a1.081 1.081 0 0 1-.645.599 4.731 4.731 0 0 1-1.107.094c-.338.03-.62.047-.855.047a1.34 1.34 0 0 0-.715.231 236.626 236.626 0 0 0 3.156-6.553 106.994 106.994 0 0 1 3.206-6.369 10.07 10.07 0 0 1 1.518-2.307 2.203 2.203 0 0 1 1.753-.6c.319.031.634.084.945.159.325.077.663.085.992.025a3.624 3.624 0 0 0-.945.878c-.403.495-.78 1.011-1.129 1.545a38.853 38.853 0 0 0-2.399 4.131Z" fill="url(#d)"/><path d="M96.726 245.463a83.017 83.017 0 0 1-2.138 4.036 13.782 13.782 0 0 1-2.052 2.817c-.8.821-1.716 1.52-2.719 2.076a25.697 25.697 0 0 1-4.079 1.776 83.091 83.091 0 0 1-2.51 4.109 27.168 27.168 0 0 1-3.16 3.99 16.009 16.009 0 0 1-3.915 2.996 9.704 9.704 0 0 1-4.704 1.177 5.954 5.954 0 0 1-2.719-.509 2.942 2.942 0 0 1-1.36-1.336 3.19 3.19 0 0 1-.256-1.823 6.04 6.04 0 0 1 .646-1.961 6.486 6.486 0 0 1 1.821-2.217 13.626 13.626 0 0 1 2.514-1.566 27.15 27.15 0 0 1 5.37-1.824c2.012-.479 3.956-.98 5.832-1.502.46-.833.876-1.691 1.244-2.569.4-.953.768-1.907 1.107-2.863.338-.95.646-1.862.92-2.723.273-.86.508-1.596.692-2.212l-1.428 2.512a22.438 22.438 0 0 1-1.868 2.77 13.158 13.158 0 0 1-2.258 2.26 4.114 4.114 0 0 1-2.565.946 5.152 5.152 0 0 1-.804-.069 2.58 2.58 0 0 1-.855-.3 2.727 2.727 0 0 1-.76-.646 2.48 2.48 0 0 1-.484-1.061 4.618 4.618 0 0 1-.047-1.43c.065-.465.18-.922.346-1.361.171-.441.371-.87.599-1.284.23-.428.453-.856.671-1.284a.781.781 0 0 1-.428-.142c-.136-.09-.128-.291.026-.599.161-.25.304-.512.428-.783a8.85 8.85 0 0 1 .427-.831l1.381-2.679c.462-.891.855-1.691 1.202-2.397.143-.329.395-.598.714-.762a2.51 2.51 0 0 1 1.081-.21h2.814a8.993 8.993 0 0 1-.804.604 2.993 2.993 0 0 0-.898 1.061 56.481 56.481 0 0 0-2.189 4.058 243.72 243.72 0 0 0-1.963 4.109 9.21 9.21 0 0 0-.919 2.996c-.065.802.05 1.363.347 1.683.29.325.727.368 1.312.137a5.628 5.628 0 0 0 1.984-1.635 25.746 25.746 0 0 0 1.98-2.633 59.173 59.173 0 0 0 1.958-3.159 96.1 96.1 0 0 0 1.8-3.253 71.929 71.929 0 0 0 1.496-2.996c.145-.328.397-.597.714-.762.343-.148.713-.22 1.086-.21h2.489c-.42.297-.799.646-1.13 1.04a8.554 8.554 0 0 0-.901 1.314 14.25 14.25 0 0 0-.783 1.687c-.243.629-.504 1.331-.782 2.097a135.547 135.547 0 0 0-1.774 5.077 165.31 165.31 0 0 1-1.916 5.492 19.624 19.624 0 0 0 1.638-.6 10.98 10.98 0 0 0 1.774-.924c.61-.385 1.182-.824 1.71-1.314a10.867 10.867 0 0 0 1.522-1.713A29.63 29.63 0 0 0 95 247.145c.492-.954.855-1.644 1.107-2.076.253-.432.428-.548.646-.428.218.12.188.368-.026.822Zm-14.242 11.72-2.377.599c-.855.218-1.71.449-2.565.693-.855.244-1.71.501-2.488.762a28.65 28.65 0 0 0-2.168.809 9.016 9.016 0 0 0-2.924 2.029 6.576 6.576 0 0 0-1.57 2.47 2.643 2.643 0 0 0 .069 2.097c.308.588.953.874 1.937.857a6.164 6.164 0 0 0 3.134-.946 19.478 19.478 0 0 0 3.112-2.282 30.624 30.624 0 0 0 2.766-2.816c.856-.985 1.538-1.841 2.048-2.569.154-.244.317-.513.488-.804.17-.291.355-.591.538-.899Z" fill="url(#e)"/><path d="M109.078 245.437a67.724 67.724 0 0 1-1.659 3.369 14.017 14.017 0 0 1-1.868 2.748 7.672 7.672 0 0 1-2.394 1.845 7.328 7.328 0 0 1-3.25.668 5.456 5.456 0 0 1-2.86-.668 3.683 3.683 0 0 1-1.518-1.682 5.145 5.145 0 0 1-.393-2.376c.054-.941.225-1.871.508-2.769a17.2 17.2 0 0 1 1.15-2.817 17.4 17.4 0 0 1 1.544-2.491 9.841 9.841 0 0 1 2.903-2.701 6.433 6.433 0 0 1 3.275-.946c1.167 0 2.018.295 2.566.856a2.728 2.728 0 0 1 .624 2.307 3.577 3.577 0 0 1-.428 1.156 4.265 4.265 0 0 1-.804 1.014 2.204 2.204 0 0 1-.97.531.883.883 0 0 1-.855-.257c.248-.304.517-.667.808-1.083.278-.39.489-.824.624-1.284.214-.8.222-1.378.021-1.733a1.014 1.014 0 0 0-.944-.531 2.56 2.56 0 0 0-1.283.372 9.134 9.134 0 0 0-1.313.921 9.782 9.782 0 0 0-1.282 1.284c-.379.448-.732.919-1.056 1.408-.276.401-.53.817-.761 1.246a14.84 14.84 0 0 0-.83 1.712 14.73 14.73 0 0 0-.671 2.007 8.227 8.227 0 0 0-.274 2.076 4.873 4.873 0 0 0 .62 2.47 2.216 2.216 0 0 0 2.099 1.083 4.82 4.82 0 0 0 2.694-.762 9.22 9.22 0 0 0 2.138-1.939 16.626 16.626 0 0 0 1.749-2.607 87.717 87.717 0 0 0 1.475-2.812c.213-.428.427-.599.645-.509.218.09.184.411-.03.894Z" fill="url(#f)"/><path d="M121.063 245.437a69.52 69.52 0 0 1-1.659 3.369 14.196 14.196 0 0 1-1.865 2.748 7.73 7.73 0 0 1-2.398 1.845 7.328 7.328 0 0 1-3.25.668 5.465 5.465 0 0 1-2.873-.668 3.678 3.678 0 0 1-1.517-1.682 5.132 5.132 0 0 1-.394-2.376c.054-.941.225-1.871.509-2.769.299-.972.683-1.914 1.15-2.817a17.4 17.4 0 0 1 1.544-2.491 9.834 9.834 0 0 1 2.903-2.701 6.433 6.433 0 0 1 3.275-.946c1.167 0 2.018.295 2.565.856a2.726 2.726 0 0 1 .624 2.307 3.575 3.575 0 0 1-.427 1.156 4.265 4.265 0 0 1-.804 1.014 2.202 2.202 0 0 1-.971.531.883.883 0 0 1-.876-.257c.248-.304.517-.667.808-1.083.278-.39.489-.824.624-1.284.214-.8.222-1.378.022-1.733a1.012 1.012 0 0 0-.945-.531 2.56 2.56 0 0 0-1.283.372 9.134 9.134 0 0 0-1.313.921 9.782 9.782 0 0 0-1.282 1.284c-.379.448-.732.919-1.056 1.408-.276.401-.53.817-.761 1.246a15.175 15.175 0 0 0-.83 1.712 14.77 14.77 0 0 0-.671 2.007 8.268 8.268 0 0 0-.274 2.076 4.872 4.872 0 0 0 .62 2.47 2.228 2.228 0 0 0 2.1 1.083 4.82 4.82 0 0 0 2.693-.762 9.22 9.22 0 0 0 2.138-1.939 16.626 16.626 0 0 0 1.749-2.607 80.294 80.294 0 0 0 1.475-2.812c.218-.428.427-.599.645-.509.218.09.218.411.005.894Z" fill="url(#g)"/><path d="M144.112 245.369c-.338.71-.761 1.554-1.283 2.538-.5.987-1.071 1.935-1.71 2.838a11.961 11.961 0 0 1-2.138 2.333 3.659 3.659 0 0 1-3.758.736 2.223 2.223 0 0 1-1.082-.856 3.328 3.328 0 0 1-.53-1.661 7.079 7.079 0 0 1 .428-2.654c.234-.73.542-1.434.919-2.101.431-.782.969-1.697 1.616-2.744.237-.363.394-.771.462-1.199.026-.342-.086-.539-.346-.603a1.988 1.988 0 0 0-1.223.372 12.276 12.276 0 0 0-2.168 1.712 23.783 23.783 0 0 0-1.774 1.914 32.137 32.137 0 0 0-2.005 2.628 30.919 30.919 0 0 0-1.711 2.816 9.919 9.919 0 0 0-.992 2.423 1.35 1.35 0 0 1-1.222-.762 2.546 2.546 0 0 1-.253-1.776c.134-.946.398-1.87.783-2.744.372-.818.752-1.656 1.154-2.517.368-.766.706-1.524 1.014-2.26a4.297 4.297 0 0 0 .427-1.614c0-.342-.269-.393-.757-.162-.487.231-1.338.916-2.535 2.054a22.551 22.551 0 0 0-2.792 3.138 41.895 41.895 0 0 0-3.57 5.86 1.038 1.038 0 0 1-.599.62 4.189 4.189 0 0 1-1.154.116 8.446 8.446 0 0 1-.829.047 1.334 1.334 0 0 0-.693.231 187.769 187.769 0 0 0 3.112-6.506 97.24 97.24 0 0 1 3.16-6.322c.399-.835.91-1.611 1.518-2.307a2.237 2.237 0 0 1 1.753-.6c.318.033.633.086.945.159.325.077.663.086.992.025a4.56 4.56 0 0 0-1.223 1.199 24.716 24.716 0 0 0-1.475 2.17 63.146 63.146 0 0 0-1.522 2.654c-.51.939-.964 1.823-1.36 2.654a46.341 46.341 0 0 1 1.732-2.055 22.336 22.336 0 0 1 2.095-2.101c.556-.493 1.146-1.019 1.774-1.593a23.141 23.141 0 0 1 1.847-1.519 9.782 9.782 0 0 1 1.71-1.04 1.984 1.984 0 0 1 1.407-.185 1.261 1.261 0 0 1 .829.784c.119.417.07.864-.136 1.245a32.508 32.508 0 0 1-1.591 3.117 52.862 52.862 0 0 0-1.774 3.347 56.435 56.435 0 0 1 1.71-2.055 22.11 22.11 0 0 1 4.152-3.694 24.298 24.298 0 0 1 2.462-1.519 15.458 15.458 0 0 1 2.352-1.04 2.835 2.835 0 0 1 1.659-.185 174.381 174.381 0 0 0-2.536 4.752 35.78 35.78 0 0 0-.966 1.986c-.305.679-.59 1.333-.855 1.96a29.865 29.865 0 0 0-.714 1.777c-.172.468-.315.947-.428 1.434-.154.95-.141 1.575.043 1.866a.854.854 0 0 0 .74.428 2.762 2.762 0 0 0 1.843-.946 14.539 14.539 0 0 0 1.842-2.239 24.144 24.144 0 0 0 1.569-2.654c.462-.907.813-1.622 1.061-2.14.184-.398.389-.543.62-.428.231.116.188.39-.026.848Zm-1.616-11.985a8.566 8.566 0 0 1-.898 1.13 6.843 6.843 0 0 1-1.219 1.04 6.4 6.4 0 0 1-1.547.74 4.996 4.996 0 0 1-1.817.227 8.36 8.36 0 0 1-1.779-.274c-.57-.154-1.13-.317-1.68-.488a35.794 35.794 0 0 0-1.659-.458 9.032 9.032 0 0 0-1.659-.257 3.123 3.123 0 0 0-1.774.3 3.475 3.475 0 0 0-1.133.95c-.03.06-.12.099-.274.112a2.099 2.099 0 0 1-.462 0 2.794 2.794 0 0 1-.427-.069c-.124-.03-.184-.077-.184-.137a10.137 10.137 0 0 1 2.189-2.007 5.186 5.186 0 0 1 3.343-.899c.576.03 1.148.108 1.711.231.568.12 1.137.269 1.71.428.573.158 1.12.325 1.659.462a8.462 8.462 0 0 0 1.637.253 3.417 3.417 0 0 0 1.89-.3 3.934 3.934 0 0 0 1.244-1.036c0-.034.069-.055.205-.073.137-.017.278-.021.428-.021.124-.001.248.014.368.047.124.026.158.056.128.086v.013Z" fill="url(#h)"/><path d="M147.071 238.032c1.14-2.183 2.4-4.459 3.779-6.827a54.45 54.45 0 0 1 4.378-6.464 108.185 108.185 0 0 1 3.04-3.531 29.702 29.702 0 0 1 3.066-2.954 16.073 16.073 0 0 1 3.159-2.05 8.65 8.65 0 0 1 3.365-.856 4.608 4.608 0 0 1 2.625.462 2.441 2.441 0 0 1 1.176 1.567 5.042 5.042 0 0 1-.068 2.38 13.097 13.097 0 0 1-1.082 2.859 21.996 21.996 0 0 1-1.915 3.069 25.575 25.575 0 0 1-2.536 2.954 28.108 28.108 0 0 1-6.841 5.029 57.906 57.906 0 0 1-9.333 3.784c-.339.645-.668 1.26-.988 1.845a29.323 29.323 0 0 0-.855 1.661 39.265 39.265 0 0 0-1.612 3.715 20.654 20.654 0 0 0-1.069 3.673 7.642 7.642 0 0 0-.021 2.953 1.742 1.742 0 0 0 1.475 1.451c1.015.22 2.336-.656 3.964-2.628a20.745 20.745 0 0 0 1.911-2.748 26.376 26.376 0 0 0 1.547-2.975c.29-.713.505-1.455.642-2.213a5.253 5.253 0 0 0 .025-1.896 1.993 1.993 0 0 0-.739-1.284 2.413 2.413 0 0 0-1.681-.347 1.114 1.114 0 0 1-.761-.137c-.171-.124-.239-.257-.209-.394s.18-.261.428-.368a2.21 2.21 0 0 1 1.175-.021 4.443 4.443 0 0 1 2.074.805c.544.396.984.919 1.283 1.523.299.622.472 1.297.508 1.986a8.147 8.147 0 0 1-.162 2.192 14.601 14.601 0 0 1-.992 2.954c-.442.979-.99 1.908-1.633 2.769a11.27 11.27 0 0 1-2.215 2.234 7.47 7.47 0 0 1-2.672 1.319 8.51 8.51 0 0 1-3.344.368 3.842 3.842 0 0 1-2.137-.878 3.23 3.23 0 0 1-.988-1.776 5.04 5.04 0 0 1 .09-2.329c.215-.802.485-1.588.808-2.354.35-.856.761-1.772 1.223-2.722a192.003 192.003 0 0 1-2.814 5.136 12.894 12.894 0 0 1-1.89 2.744c-.183.154-.329.146-.427-.021a.487.487 0 0 1 .073-.578 25.082 25.082 0 0 0 1.517-2.354 99.821 99.821 0 0 0 1.753-3.159 125.514 125.514 0 0 0 1.89-3.694c.646-1.31 1.321-2.581 2.01-3.874Zm.089 0a5.295 5.295 0 0 1-1.979-.09 3.232 3.232 0 0 1-2.138-1.823 1.515 1.515 0 0 1-.094-.899.624.624 0 0 1 .252-.463.535.535 0 0 1 .428-.094.603.603 0 0 1 .346.21.718.718 0 0 1 .141.484v.09a1.55 1.55 0 0 0 1.283 1.365c.765.17 1.553.207 2.33.111l-.569 1.109Zm3.549-2.029a38.775 38.775 0 0 0 7.538-3.069 27.408 27.408 0 0 0 6.892-5.192 24.89 24.89 0 0 0 2.925-3.621 16.677 16.677 0 0 0 1.838-3.51c.364-.843.46-1.777.274-2.676-.197-.71-.774-1.061-1.711-1.061a6.193 6.193 0 0 0-3.155.967 17.514 17.514 0 0 0-3.296 2.568 34.718 34.718 0 0 0-3.25 3.669 103.433 103.433 0 0 0-5.81 8.329 218.007 218.007 0 0 0-2.253 3.613l.008-.017Z" fill="url(#i)"/><path d="M175.546 245.232c-.183.431-.482 1.107-.898 2.029-.438.964-.954 1.89-1.544 2.769a11.682 11.682 0 0 1-2.137 2.431 3.99 3.99 0 0 1-2.647 1.045 4.234 4.234 0 0 1-1.774-.33 3.57 3.57 0 0 1-1.176-.856 9.084 9.084 0 0 1-1.984 1.147 4.668 4.668 0 0 1-2.027.377 3.108 3.108 0 0 1-2.099-.758 3.524 3.524 0 0 1-1.013-1.896 7.334 7.334 0 0 1-.026-2.675c.167-1.04.461-2.055.877-3.022a17.01 17.01 0 0 1 1.71-2.996 15.091 15.091 0 0 1 2.189-2.492 10.927 10.927 0 0 1 2.42-1.686 4.956 4.956 0 0 1 2.445-.574 2.897 2.897 0 0 1 2.074.737 3.59 3.59 0 0 1 1.035 1.939c.172.891.181 1.806.025 2.701a12.627 12.627 0 0 1-.876 3.022c-.42.945-.929 1.848-1.522 2.696a15.777 15.777 0 0 1-2.352 2.748c.402.771 1.125 1.152 2.168 1.152a3.044 3.044 0 0 0 2.099-.921 11.417 11.417 0 0 0 1.817-2.217 24.567 24.567 0 0 0 1.48-2.628c.427-.895.782-1.618 1.056-2.17a.425.425 0 0 1 .556-.231c.231.107.295.321.124.659Zm-6.73-5.993a2.436 2.436 0 0 0-1.612.206 6.15 6.15 0 0 0-1.753 1.245 14.693 14.693 0 0 0-1.71 2.033 16.735 16.735 0 0 0-1.475 2.569c-.428.871-.79 1.774-1.082 2.701-.24.741-.402 1.506-.483 2.281a4.044 4.044 0 0 0 .137 1.687 1.243 1.243 0 0 0 .876.856c.494.118 1.012.07 1.475-.137a6.08 6.08 0 0 0 1.659-1.015 4.306 4.306 0 0 1-.551-1.155 3.734 3.734 0 0 1-.188-1.109c.021-.485.156-.959.393-1.383a1.287 1.287 0 0 1 1.223-.599 1.312 1.312 0 0 1 .992.428c.252.258.392.606.389.968 0 .086-.007.171-.022.256 0 .077-.038.159-.068.253a20.076 20.076 0 0 0 1.428-2.491c.43-.876.784-1.787 1.06-2.723.23-.75.373-1.524.428-2.307a3.967 3.967 0 0 0-.231-1.686 1.368 1.368 0 0 0-.885-.882v.004Z" fill="url(#j)"/><path d="M202.973 245.326c-.182.428-.481 1.104-.898 2.029a19.112 19.112 0 0 1-1.56 2.791 11.551 11.551 0 0 1-2.138 2.431 4.004 4.004 0 0 1-2.651 1.044 4.172 4.172 0 0 1-1.774-.333 3.66 3.66 0 0 1-1.176-.857 9.266 9.266 0 0 1-1.979 1.148 4.705 4.705 0 0 1-2.031.376 3.077 3.077 0 0 1-2.095-.762 3.517 3.517 0 0 1-1.014-1.892 7.356 7.356 0 0 1-.025-2.679c.165-1.04.459-2.055.876-3.022a17.136 17.136 0 0 1 1.71-2.996 15.253 15.253 0 0 1 2.19-2.496 10.961 10.961 0 0 1 2.419-1.682 5.003 5.003 0 0 1 2.442-.578 2.914 2.914 0 0 1 2.082.741c.538.521.9 1.197 1.035 1.934.17.892.179 1.807.025 2.701a12.985 12.985 0 0 1-.876 3.022c-.42.947-.929 1.852-1.522 2.701a15.999 15.999 0 0 1-2.352 2.744c.396.77 1.119 1.156 2.168 1.156a3.037 3.037 0 0 0 2.095-.925 11.263 11.263 0 0 0 1.821-2.204 24.162 24.162 0 0 0 1.475-2.633c.428-.89.783-1.614 1.061-2.166a.397.397 0 0 1 .556-.231c.243.081.29.321.136.638Zm-6.729-5.993a2.458 2.458 0 0 0-1.617.21 6.13 6.13 0 0 0-1.748 1.246 14.23 14.23 0 0 0-1.71 2.029 16.47 16.47 0 0 0-1.475 2.568 18.63 18.63 0 0 0-1.082 2.701 11.3 11.3 0 0 0-.488 2.286 4.106 4.106 0 0 0 .141 1.682 1.25 1.25 0 0 0 .856.856 2.288 2.288 0 0 0 1.479-.141 6.055 6.055 0 0 0 1.659-1.015 4.357 4.357 0 0 1-.556-1.151 3.8 3.8 0 0 1-.184-1.109c.02-.485.155-.959.394-1.383a1.276 1.276 0 0 1 1.222-.603 1.3 1.3 0 0 1 .988.428c.247.246.393.576.406.925.007.084.007.168 0 .252-.02.085-.044.17-.073.253a19.422 19.422 0 0 0 1.433-2.492c.428-.876.783-1.786 1.06-2.722.228-.751.372-1.524.428-2.307a3.978 3.978 0 0 0-.231-1.682 1.383 1.383 0 0 0-.907-.839l.005.008Zm-3.853-20.267c.462-1.447 1.262-2.427 2.399-2.954a8.854 8.854 0 0 1 4.194-.646 9.563 9.563 0 0 1 2.053.299c.627.172 1.225.364 1.795.578.569.214 1.155.428 1.753.578a8.647 8.647 0 0 0 1.958.3 4.409 4.409 0 0 0 2.352-.394 4.35 4.35 0 0 0 1.522-1.314c.03-.06.128-.099.299-.116a3.62 3.62 0 0 1 .531 0c.164.013.326.044.483.094.136.043.192.086.162.116-.366.489-.758.958-1.176 1.404-.462.487-.98.918-1.543 1.284a8.096 8.096 0 0 1-1.937.925 5.894 5.894 0 0 1-2.304.252 7.45 7.45 0 0 1-2.031-.347 42.318 42.318 0 0 1-1.796-.62 25.492 25.492 0 0 0-1.774-.599 7.889 7.889 0 0 0-2.006-.326 2.77 2.77 0 0 0-1.083.085 2.771 2.771 0 0 0-.969.493 4.102 4.102 0 0 0-1.223 1.871 7.699 7.699 0 0 0-.389 1.844 8.513 8.513 0 0 0 .09 1.94c.131.808.308 1.608.53 2.397.248.893.586 1.939 1.013 3.137.189.527.616 1.734 1.283 3.626a49.531 49.531 0 0 1 1.89 7.914c.064.338.026.428-.116.274a8.454 8.454 0 0 1-.53-.689 14.079 14.079 0 0 1-.829-1.34 36.298 36.298 0 0 0-1.257-4.824 607.399 607.399 0 0 0-1.428-4.246c-.248-.708-.547-1.5-.898-2.376a25.562 25.562 0 0 1-.924-2.722 14.846 14.846 0 0 1-.504-2.906 7.353 7.353 0 0 1 .41-2.992Z" fill="url(#k)"/><path d="M200.113 252.286a3.233 3.233 0 0 1-.299-1.55c.041-.697.222-1.38.53-2.007.367-.765.691-1.448.97-2.051.274-.599.552-1.177.83-1.733.278-.557.568-1.122.855-1.712.286-.591.663-1.246 1.06-1.982.4-.835.912-1.611 1.522-2.307a2.219 2.219 0 0 1 1.753-.6c.318.034.634.087.945.159.325.077.663.086.992.026a4.295 4.295 0 0 0-1.201 1.198c-.458.616-.945 1.34-1.45 2.17a61.293 61.293 0 0 0-1.522 2.654c-.509.942-.975 1.824-1.407 2.654a18.36 18.36 0 0 0-.897 2.097 7.543 7.543 0 0 0-.428 1.777c-.062.435-.006.878.163 1.284a1.116 1.116 0 0 0 .782.621c.349.042.702-.022 1.013-.185a3.41 3.41 0 0 0 1.338-1.061c.493-.592.922-1.233 1.283-1.913.32-.575.567-1.188.736-1.824.231-.73.293-1.502.183-2.26-.124-.526-.615-.753-1.475-.693-.06 0-.068-.039-.021-.116a.846.846 0 0 1 .231-.231 1.31 1.31 0 0 1 .389-.184.85.85 0 0 1 .509 0 2.497 2.497 0 0 1 1.312 1.434 3.5 3.5 0 0 1 .163 2.35 8.303 8.303 0 0 1-1.569 3.231 7.357 7.357 0 0 1-2.762 2.218 3.53 3.53 0 0 1-2.677.137 3.138 3.138 0 0 1-1.851-1.601Zm8.158-3.784a24.17 24.17 0 0 1-.898-.278 2.803 2.803 0 0 1-1.219-.784 2.135 2.135 0 0 1-.53-.993 1.944 1.944 0 0 1 .021-.993c.083-.295.262-.555.509-.736a1.456 1.456 0 0 1 1.435-.159c.162.074.308.179.429.309.132.115.238.256.311.415.074.158.114.33.117.505a1.525 1.525 0 0 1-.094.428c-.06.189-.107.325-.137.428a1.56 1.56 0 0 0-.115.428c0 .137.068.283.252.428.283.198.605.333.945.394a2.81 2.81 0 0 0 1.496-.094 4.277 4.277 0 0 0 1.71-1.104 7.858 7.858 0 0 0 1.616-2.654c.154-.428.351-.587.599-.463.248.125.261.428.047.878a11.656 11.656 0 0 1-1.569 2.628 4.62 4.62 0 0 1-1.612 1.284 3.74 3.74 0 0 1-1.659.347 8.762 8.762 0 0 1-1.654-.206v-.008Zm6.503-1.284c-.255.517-.48 1.048-.672 1.592a9.806 9.806 0 0 0-.483 1.845 3.419 3.419 0 0 0 .069 1.545.955.955 0 0 0 1.039.647c.581 0 1.188-.326 1.821-.968a14.38 14.38 0 0 0 1.774-2.264 29.638 29.638 0 0 0 1.497-2.607l1.039-2.055c.184-.398.389-.543.62-.428.231.116.239.394.025.856a65.689 65.689 0 0 1-1.282 2.539c-.5.986-1.072 1.935-1.711 2.838a12.326 12.326 0 0 1-2.137 2.333 3.796 3.796 0 0 1-2.489.967 2.175 2.175 0 0 1-1.086-.3 3.107 3.107 0 0 1-.987-.946 5.453 5.453 0 0 1-.607-1.81 4.01 4.01 0 0 1 .188-2.265c.367-.764.689-1.448.966-2.05a71.52 71.52 0 0 1 .829-1.734 114.771 114.771 0 0 1 1.937-3.694 10.07 10.07 0 0 1 1.522-2.307 2.222 2.222 0 0 1 1.749-.599c.318.033.634.086.945.158.325.077.663.086.992.026-.48.319-.895.725-1.223 1.199-.529.696-1.02 1.42-1.471 2.17-.51.83-1.017 1.715-1.522 2.654a54.222 54.222 0 0 0-1.342 2.658Z" fill="url(#l)"/><path d="M244.779 245.369c-.338.71-.761 1.553-1.282 2.538a23.28 23.28 0 0 1-1.732 2.838 11.961 11.961 0 0 1-2.138 2.333 3.659 3.659 0 0 1-3.758.736 2.239 2.239 0 0 1-1.082-.856 3.374 3.374 0 0 1-.496-1.657 7.166 7.166 0 0 1 .428-2.654c.234-.73.544-1.435.923-2.101a61.45 61.45 0 0 1 1.612-2.744c.241-.36.398-.77.462-1.198.03-.343-.085-.54-.346-.604a1.996 1.996 0 0 0-1.223.372 12.085 12.085 0 0 0-2.163 1.713 22.59 22.59 0 0 0-1.83 1.909c-.689.813-1.36 1.69-2.006 2.628a33.033 33.033 0 0 0-1.71 2.816 10.071 10.071 0 0 0-.992 2.423 1.339 1.339 0 0 1-1.218-.762 2.541 2.541 0 0 1-.257-1.776 10.28 10.28 0 0 1 .787-2.744c.368-.816.751-1.655 1.15-2.517a40.33 40.33 0 0 0 1.013-2.26 4.419 4.419 0 0 0 .428-1.614c0-.342-.269-.393-.761-.162s-1.338.916-2.536 2.054a22.58 22.58 0 0 0-2.787 3.138 41.927 41.927 0 0 0-3.575 5.86 1.038 1.038 0 0 1-.598.62 4.196 4.196 0 0 1-1.155.116 8.35 8.35 0 0 1-.829.047c-.247.01-.485.09-.688.231a205.61 205.61 0 0 0 3.108-6.506 99.314 99.314 0 0 1 3.16-6.322 9.984 9.984 0 0 1 1.522-2.307 2.207 2.207 0 0 1 1.748-.6c.318.033.634.086.945.159.326.077.663.086.992.025a4.483 4.483 0 0 0-1.218 1.199 22.939 22.939 0 0 0-1.475 2.17 57.13 57.13 0 0 0-1.522 2.654 62.005 62.005 0 0 0-1.36 2.654 51.444 51.444 0 0 1 1.71-2.055 22.5 22.5 0 0 1 2.099-2.101c.552-.493 1.142-1.019 1.775-1.593a24.828 24.828 0 0 1 1.842-1.519 9.634 9.634 0 0 1 1.711-1.04c.43-.234.931-.299 1.406-.185a1.252 1.252 0 0 1 .83.784c.117.417.066.865-.141 1.245a30.351 30.351 0 0 1-1.591 3.117 51.79 51.79 0 0 0-1.774 3.347 56.435 56.435 0 0 1 1.71-2.055 22.457 22.457 0 0 1 2.095-2.101c.654-.569 1.339-1.1 2.052-1.593a24.481 24.481 0 0 1 2.467-1.519c.754-.412 1.54-.76 2.352-1.04a2.82 2.82 0 0 1 1.659-.185 146.408 146.408 0 0 0-2.536 4.752 43.561 43.561 0 0 0-.97 1.986 55.865 55.865 0 0 0-.855 1.96 32.522 32.522 0 0 0-.714 1.777c-.17.469-.313.948-.428 1.434-.154.95-.137 1.575.047 1.866a.861.861 0 0 0 .736.428 2.745 2.745 0 0 0 1.842-.946 14.726 14.726 0 0 0 1.847-2.239 24.79 24.79 0 0 0 1.565-2.654c.462-.907.815-1.62 1.061-2.14.183-.398.393-.543.624-.428.231.116.239.39.038.848Zm-1.612-11.986c-.269.4-.569.778-.897 1.131a6.788 6.788 0 0 1-1.223 1.04 6.362 6.362 0 0 1-1.544.74 5.015 5.015 0 0 1-1.821.227 8.305 8.305 0 0 1-1.774-.274 51.433 51.433 0 0 1-1.685-.488 31.142 31.142 0 0 0-1.659-.458 8.865 8.865 0 0 0-1.659-.257 3.123 3.123 0 0 0-1.774.3 3.47 3.47 0 0 0-1.129.95c-.03.06-.124.099-.278.111a1.983 1.983 0 0 1-.462 0 2.674 2.674 0 0 1-.427-.068c-.124-.03-.184-.077-.184-.137a10.137 10.137 0 0 1 2.189-2.007 5.188 5.188 0 0 1 3.344-.899c.575.03 1.147.108 1.71.231.568.12 1.137.269 1.71.428.573.158 1.12.325 1.659.462a8.552 8.552 0 0 0 1.637.253 3.398 3.398 0 0 0 1.89-.3 3.876 3.876 0 0 0 1.244-1.036c0-.034.069-.056.21-.073a3.46 3.46 0 0 1 .427-.021c.125-.001.248.015.368.047.117.029.16.057.128.086v.012Z" fill="url(#m)"/><path d="M242.06 252.286a3.233 3.233 0 0 1-.299-1.55c.039-.698.22-1.381.53-2.007.368-.766.693-1.451.966-2.05.274-.6.556-1.178.83-1.734.273-.556.568-1.121.876-1.712.308-.591.663-1.246 1.061-1.982.4-.835.912-1.611 1.522-2.307a2.209 2.209 0 0 1 1.753-.599c.317.033.633.086.944.158.324.077.661.086.988.026a4.307 4.307 0 0 0-1.197 1.198c-.462.617-.946 1.34-1.454 2.17a57.424 57.424 0 0 0-1.518 2.654c-.504.942-.979 1.824-1.406 2.654-.343.68-.643 1.38-.898 2.097a7.34 7.34 0 0 0-.428 1.777c-.063.434-.008.878.159 1.284a1.105 1.105 0 0 0 .786.621c.349.043.702-.022 1.014-.184a3.428 3.428 0 0 0 1.338-1.062c.492-.592.922-1.233 1.283-1.913a7.768 7.768 0 0 0 .773-1.82c.229-.73.292-1.502.184-2.26-.124-.526-.615-.753-1.475-.693-.064 0-.068-.039-.021-.116a.766.766 0 0 1 .226-.231c.121-.081.254-.143.394-.184a.866.866 0 0 1 .509 0c.303.14.575.338.801.584.225.247.399.536.511.85.322.742.379 1.571.163 2.35a8.302 8.302 0 0 1-1.57 3.232 7.369 7.369 0 0 1-2.766 2.217 3.517 3.517 0 0 1-2.672.137 3.105 3.105 0 0 1-1.907-1.605Zm9.081-2.864a6.43 6.43 0 0 1-1.71-.809 5.436 5.436 0 0 1-1.317-1.173 2.206 2.206 0 0 1-.53-.993 1.933 1.933 0 0 1 .026-.993c.082-.294.259-.553.504-.736.269-.193.594-.291.924-.278.359.012.699.165.945.428a1.259 1.259 0 0 1 .427.92 1.199 1.199 0 0 1-.115.428c-.064.135-.103.28-.116.428.056.332.178.65.359.933.173.32.407.602.689.831.283.197.605.331.945.394a2.814 2.814 0 0 0 1.5-.095 4.343 4.343 0 0 0 1.711-1.108 7.912 7.912 0 0 0 1.612-2.654c.153-.428.354-.582.598-.458.244.124.261.428.047.856a11.487 11.487 0 0 1-1.59 2.654 4.7 4.7 0 0 1-1.659 1.318 3.943 3.943 0 0 1-1.685.343 5.647 5.647 0 0 1-1.565-.227v-.009Z" fill="url(#n)"/><path d="M281.887 245.437a73.927 73.927 0 0 1-1.659 3.369 14.17 14.17 0 0 1-1.869 2.748 7.73 7.73 0 0 1-2.398 1.845 7.314 7.314 0 0 1-3.25.668 5.444 5.444 0 0 1-2.856-.647 3.695 3.695 0 0 1-1.522-1.682 5.17 5.17 0 0 1-.393-2.376c.056-.94.227-1.87.509-2.769a16.67 16.67 0 0 1 1.154-2.817c.442-.873.958-1.706 1.544-2.491a9.784 9.784 0 0 1 2.903-2.701 6.416 6.416 0 0 1 3.27-.946c1.168 0 2.023.296 2.566.856.271.313.468.683.576 1.082.107.4.122.819.044 1.226a3.444 3.444 0 0 1-.428 1.155 4.198 4.198 0 0 1-.808 1.015 2.188 2.188 0 0 1-.966.53.883.883 0 0 1-.855-.256c.243-.304.513-.668.808-1.083a4.31 4.31 0 0 0 .62-1.284c.213-.802.222-1.38.025-1.734a1.02 1.02 0 0 0-1-.514 2.562 2.562 0 0 0-1.283.373 9.086 9.086 0 0 0-1.317.92 9.66 9.66 0 0 0-1.282 1.284c-.38.449-.734.919-1.061 1.408-.275.402-.53.817-.761 1.246a15.39 15.39 0 0 0-1.496 3.72 8.22 8.22 0 0 0-.278 2.076 4.874 4.874 0 0 0 .62 2.47 2.223 2.223 0 0 0 2.099 1.082 4.843 4.843 0 0 0 2.698-.761 9.329 9.329 0 0 0 2.138-1.939 16.934 16.934 0 0 0 1.753-2.607 87.717 87.717 0 0 0 1.475-2.812c.214-.429.427-.6.645-.51.219.09.248.373.035.856Z" fill="url(#o)"/><path d="M293.499 245.437a81.514 81.514 0 0 1-1.197 2.401c-.46.883-.969 1.741-1.522 2.569a12.342 12.342 0 0 1-1.843 2.191 4.837 4.837 0 0 1-2.138 1.22 2.563 2.563 0 0 1-1.312-.068 2.288 2.288 0 0 1-1.223-.899 3.59 3.59 0 0 1-.599-1.871 7.13 7.13 0 0 1 .599-2.975c.184-.462.428-.954.671-1.476a16.85 16.85 0 0 1 .83-1.524c.295-.492.56-.955.804-1.383.243-.428.427-.787.555-1.061.337-.771.151-1.317-.555-1.64a7.893 7.893 0 0 0-2.993-.531l-.556 1.477a69.14 69.14 0 0 1-1.013 2.517 50.057 50.057 0 0 1-1.339 2.859 28.804 28.804 0 0 1-1.565 2.723 13.398 13.398 0 0 1-1.658 2.101c-.184.155-.33.146-.428-.025a.492.492 0 0 1 .068-.574 28.661 28.661 0 0 0 2.536-3.946 43.799 43.799 0 0 0 3.574-8.839c.416-1.479.747-2.863.992-4.152a1.718 1.718 0 0 1 .735-1.285 1.098 1.098 0 0 1 1.082-.021c.393.241.694.608.855 1.04.239.61.28 1.28.116 1.914a3.854 3.854 0 0 1-1.082 1.823c-.445.471-.932.901-1.454 1.284.855.064 1.852.077 2.993.047a40.81 40.81 0 0 0 3.386-.231.993.993 0 0 1 .069.672 5.1 5.1 0 0 1-.231.92 11.27 11.27 0 0 1-.389 1.015l-.428.946-.624 1.245c-.291.587-.616 1.242-.966 1.965a34.88 34.88 0 0 0-1.013 2.282c-.297.71-.536 1.443-.715 2.191a4.126 4.126 0 0 0-.115 1.64.779.779 0 0 0 .804.693c.462 0 .975-.308 1.543-.925.616-.674 1.172-1.4 1.664-2.17a28.471 28.471 0 0 0 1.47-2.568c.428-.877.791-1.562 1.039-2.055.214-.398.428-.535.624-.428.197.107.197.428-.051.912Z" fill="url(#p)"/><path d="M309.682 245.369c-.342.71-.761 1.541-1.283 2.495a30.108 30.108 0 0 1-1.68 2.77 13.22 13.22 0 0 1-1.963 2.281 3.563 3.563 0 0 1-2.047 1.04 2.676 2.676 0 0 1-1.202-.209 2.185 2.185 0 0 1-1.06-.921 3.994 3.994 0 0 1-.483-1.849 9.235 9.235 0 0 1 .427-2.975 34.543 34.543 0 0 1-1.432 2.14 15.24 15.24 0 0 1-1.89 2.192 5.274 5.274 0 0 1-2.463 1.524 2.31 2.31 0 0 1-1.915-.347 3.256 3.256 0 0 1-1.129-1.823 7.296 7.296 0 0 1-.115-2.928 13.81 13.81 0 0 1 1.128-3.694 17.639 17.639 0 0 1 2.651-4.084 9.426 9.426 0 0 1 2.467-2.14c.916-.561 1.91-.981 2.95-1.245a6.602 6.602 0 0 1 2.903-.09c.916.172 1.75.642 2.373 1.335.338.338.428.664.3.972a.665.665 0 0 1-.804.368 2.053 2.053 0 0 0-1.501-1.571 3.37 3.37 0 0 0-2.42.428 13.263 13.263 0 0 0-3.223 2.701 24.75 24.75 0 0 0-2.908 3.899c-.09.155-.226.403-.427.741-.201.338-.377.728-.573 1.173-.197.445-.385.912-.556 1.387a7.401 7.401 0 0 0-.346 1.361 2.66 2.66 0 0 0 .162 1.755 1.095 1.095 0 0 0 .971.552 2.788 2.788 0 0 0 1.449-.531 7.652 7.652 0 0 0 1.659-1.498 27.425 27.425 0 0 0 2.189-3.116 73.462 73.462 0 0 0 1.915-3.347 15.13 15.13 0 0 1 1.407-2.26 1.865 1.865 0 0 1 1.71-.694c.318.035.634.089.945.163.327.071.665.071.992 0a8.36 8.36 0 0 0-.992 1.365 33.23 33.23 0 0 0-1.283 2.26 24.416 24.416 0 0 0-1.175 2.628c-.331.776-.593 1.58-.783 2.402-.367 1.846-.214 2.768.462 2.765.492.034 1.03-.261 1.612-.856a16.407 16.407 0 0 0 1.731-2.217 28.357 28.357 0 0 0 1.544-2.607c.462-.895.812-1.563 1.06-2.055.214-.398.428-.552.646-.462.218.09.214.364 0 .822Z" fill="url(#q)"/><path d="M321.987 245.437a68.61 68.61 0 0 1-1.659 3.369 14.21 14.21 0 0 1-1.868 2.748 7.718 7.718 0 0 1-2.395 1.845 7.324 7.324 0 0 1-3.249.668 5.452 5.452 0 0 1-2.848-.668 3.716 3.716 0 0 1-1.522-1.682 5.142 5.142 0 0 1-.389-2.376c.055-.94.225-1.87.505-2.769.3-.972.686-1.914 1.154-2.817a17.4 17.4 0 0 1 1.544-2.491 9.834 9.834 0 0 1 2.903-2.701 6.433 6.433 0 0 1 3.275-.946c1.167 0 2.018.295 2.565.856a2.73 2.73 0 0 1 .624 2.307 3.575 3.575 0 0 1-.427 1.156c-.215.378-.488.72-.808 1.014-.272.257-.604.44-.967.531a.883.883 0 0 1-.876-.257c.248-.304.517-.667.808-1.083.278-.389.488-.823.62-1.284.218-.8.222-1.378.026-1.733a1.02 1.02 0 0 0-.945-.531 2.56 2.56 0 0 0-1.283.372 9.134 9.134 0 0 0-1.313.921 9.543 9.543 0 0 0-1.282 1.284c-.379.449-.733.92-1.061 1.408-.213.304-.466.723-.761 1.246a16.87 16.87 0 0 0-.829 1.712 15.189 15.189 0 0 0-.705 2.041 8.227 8.227 0 0 0-.278 2.076 4.87 4.87 0 0 0 .624 2.47 2.205 2.205 0 0 0 2.095 1.083 4.82 4.82 0 0 0 2.698-.762 9.28 9.28 0 0 0 2.137-1.939 16.503 16.503 0 0 0 1.753-2.606 83.872 83.872 0 0 0 1.475-2.813c.214-.428.428-.599.646-.509.218.09.227.377.013.86Z" fill="url(#r)"/><path d="M345.028 245.369a61.21 61.21 0 0 1-1.283 2.538 23.073 23.073 0 0 1-1.71 2.838 11.843 11.843 0 0 1-2.138 2.333 3.652 3.652 0 0 1-3.754.736 2.249 2.249 0 0 1-1.086-.856 3.432 3.432 0 0 1-.53-1.661 7.163 7.163 0 0 1 .428-2.654c.236-.73.545-1.434.923-2.101.428-.784.966-1.713 1.612-2.744.24-.361.398-.77.462-1.199.03-.342-.086-.539-.347-.603a1.975 1.975 0 0 0-1.218.372 11.99 11.99 0 0 0-2.168 1.712 23.783 23.783 0 0 0-1.774 1.914 32.137 32.137 0 0 0-2.005 2.628 30.919 30.919 0 0 0-1.711 2.816 9.877 9.877 0 0 0-.991 2.423 1.355 1.355 0 0 1-1.223-.762 2.546 2.546 0 0 1-.253-1.776c.135-.946.398-1.87.783-2.744.368-.816.752-1.655 1.154-2.517.368-.766.706-1.524 1.014-2.26a4.278 4.278 0 0 0 .427-1.614c0-.342-.269-.393-.761-.162s-1.334.916-2.535 2.054a22.523 22.523 0 0 0-2.788 3.138 41.895 41.895 0 0 0-3.57 5.86 1.017 1.017 0 0 1-.611.62 4.171 4.171 0 0 1-1.151.116 8.414 8.414 0 0 1-.829.047 1.334 1.334 0 0 0-.693.231 199.525 199.525 0 0 0 3.113-6.506 101.398 101.398 0 0 1 3.155-6.322c.4-.835.912-1.611 1.522-2.307a2.227 2.227 0 0 1 1.753-.6c.318.034.634.087.945.159.326.077.663.086.992.025a4.46 4.46 0 0 0-1.223 1.199 24 24 0 0 0-1.475 2.17 57.382 57.382 0 0 0-1.522 2.654 60.282 60.282 0 0 0-1.359 2.654 54.437 54.437 0 0 1 1.71-2.055 22.5 22.5 0 0 1 2.099-2.101c.552-.493 1.146-1.019 1.774-1.593a24.038 24.038 0 0 1 1.843-1.519 9.662 9.662 0 0 1 1.71-1.04 1.985 1.985 0 0 1 1.407-.185 1.258 1.258 0 0 1 .83.784 1.66 1.66 0 0 1-.137 1.245 32.508 32.508 0 0 1-1.591 3.117 48.982 48.982 0 0 0-1.774 3.347 51.444 51.444 0 0 1 1.71-2.055 22.5 22.5 0 0 1 2.099-2.101 23.299 23.299 0 0 1 2.048-1.593 24.967 24.967 0 0 1 2.467-1.519c.754-.412 1.54-.76 2.352-1.04a2.82 2.82 0 0 1 1.659-.185 146.408 146.408 0 0 0-2.536 4.752c-.337.646-.662 1.31-.966 1.986-.303.676-.603 1.331-.855 1.96-.252.63-.517 1.224-.714 1.777-.17.469-.313.948-.428 1.434-.153.95-.136 1.575.047 1.866a.854.854 0 0 0 .74.428 2.758 2.758 0 0 0 1.843-.946 14.819 14.819 0 0 0 1.843-2.239 24.464 24.464 0 0 0 1.569-2.654c.459-.907.812-1.62 1.06-2.14.184-.398.389-.543.62-.428.231.116.218.39-.004.848Zm-1.612-11.986a8.51 8.51 0 0 1-.898 1.131 6.753 6.753 0 0 1-1.223 1.04 6.373 6.373 0 0 1-1.543.74 5.02 5.02 0 0 1-1.822.227 8.324 8.324 0 0 1-1.774-.274c-.57-.154-1.13-.317-1.68-.488a34.613 34.613 0 0 0-1.663-.458 8.865 8.865 0 0 0-1.659-.257 3.145 3.145 0 0 0-1.775.3 3.502 3.502 0 0 0-1.128.95c-.03.06-.124.099-.274.111a1.983 1.983 0 0 1-.462 0 2.566 2.566 0 0 1-.427-.068c-.124-.03-.188-.077-.188-.137a10.18 10.18 0 0 1 2.193-2.007 5.173 5.173 0 0 1 3.339-.899c.575.031 1.147.108 1.71.231.565.12 1.133.269 1.71.428.578.158 1.121.325 1.659.462a8.432 8.432 0 0 0 1.634.253 3.396 3.396 0 0 0 1.889-.3 3.89 3.89 0 0 0 1.245-1.036c0-.034.072-.056.209-.073.137-.017.278-.021.428-.021.124-.001.247.015.367.047.123.029.169.057.137.086l-.004.012Z" fill="url(#s)"/><path d="M347.798 251.785a9.363 9.363 0 0 0 1.685-1.913c.521-.78.998-1.589 1.428-2.423.427-.856.855-1.738 1.244-2.633.389-.894.744-1.712 1.082-2.516.338-.805.662-1.477.97-2.077.241-.506.568-.967.967-1.361a2.96 2.96 0 0 1 .739-.552c.269-.132.558-.217.855-.252.39-.052.783-.076 1.176-.073h1.68c.124 0 .137.043.047.115a2.317 2.317 0 0 1-.427.257 4.38 4.38 0 0 1-.671.253 2.443 2.443 0 0 1-.667.115c-.89-.03-1.522.146-1.89.531a8.173 8.173 0 0 0-1.15 1.64 30.018 30.018 0 0 0-1.591 3.505 45.704 45.704 0 0 1-1.937 4.281 17.489 17.489 0 0 1-2.445 3.625 4.116 4.116 0 0 1-3.156 1.52 5.307 5.307 0 0 1-2.052-.39 3.143 3.143 0 0 1-1.543-1.502c-.553-1.016-.714-1.831-.483-2.444a1.85 1.85 0 0 1 .992-1.178.936.936 0 0 1 1.103.232c.308.321.26.916-.137 1.776a1.148 1.148 0 0 0-.094.783c.063.275.18.534.346.762.171.231.392.422.646.557.248.134.526.204.808.205.459-.02.915-.089 1.359-.205.418-.12.801-.339 1.116-.638Zm9.911-12.841c.145-.328.397-.597.714-.762.342-.148.713-.22 1.086-.21h2.488a17.5 17.5 0 0 0-.876.762 5.587 5.587 0 0 0-.714.83 9.522 9.522 0 0 0-.714 1.203 38.818 38.818 0 0 0-.855 1.776 52.218 52.218 0 0 0-.992 2.008c-.321.689-.629 1.37-.919 2.029a38.148 38.148 0 0 0-.761 1.845 7.148 7.148 0 0 0-.428 1.455c-.218.985-.21 1.682.021 2.102a1.123 1.123 0 0 0 .855.668 2.601 2.601 0 0 0 1.681-.741c.62-.552 1.17-1.179 1.637-1.866.551-.8 1.051-1.633 1.497-2.496.474-.903.915-1.776 1.312-2.606.188-.399.394-.544.625-.429.23.116.239.394 0 .857a82.832 82.832 0 0 1-1.283 2.653 21.001 21.001 0 0 1-1.659 2.748 10.736 10.736 0 0 1-2.027 2.171 3.738 3.738 0 0 1-2.351.856c-.489.01-.97-.126-1.381-.39a2.35 2.35 0 0 1-.902-1.156 5.176 5.176 0 0 1-.3-1.866c.02-.851.176-1.693.462-2.495.214-.677.479-1.4.783-2.166.303-.766.641-1.55.992-2.333.35-.783.705-1.562 1.06-2.329.355-.766.667-1.459.949-2.106v-.012Z" fill="url(#t)"/><path d="M379.882 245.437a79.76 79.76 0 0 1-1.283 2.654 21.178 21.178 0 0 1-1.659 2.748 10.031 10.031 0 0 1-2.03 2.14 3.772 3.772 0 0 1-2.348.857 2.47 2.47 0 0 1-1.385-.39 2.38 2.38 0 0 1-.924-1.16 5.09 5.09 0 0 1-.299-1.866c.02-.851.176-1.694.462-2.496a33.966 33.966 0 0 1-1.317 2.102 15.78 15.78 0 0 1-1.518 1.892 7.957 7.957 0 0 1-1.684 1.382 3.256 3.256 0 0 1-1.71.531 5.024 5.024 0 0 1-.804-.068 2.573 2.573 0 0 1-.855-.3 2.684 2.684 0 0 1-.761-.646 2.44 2.44 0 0 1-.484-1.062 4.51 4.51 0 0 1-.047-1.429c.061-.466.177-.923.347-1.362.169-.441.369-.87.598-1.284.231-.428.453-.856.667-1.284a.762.762 0 0 1-.427-.141c-.137-.09-.133-.291 0-.599.163-.25.306-.512.427-.784a7.97 7.97 0 0 1 .428-.83c.457-.895.919-1.785 1.381-2.68.462-.894.855-1.69 1.197-2.397.145-.327.397-.596.714-.762a2.562 2.562 0 0 1 1.086-.209h2.809a6.602 6.602 0 0 0-.735.578 8.487 8.487 0 0 0-.667.714 9.35 9.35 0 0 0-.719 1.015 18.31 18.31 0 0 0-.829 1.571 44.088 44.088 0 0 0-1.15 2.307c-.337.645-.66 1.307-.971 1.986a47.459 47.459 0 0 1-.782 1.661 9.193 9.193 0 0 0-.919 2.996c-.065.801.051 1.361.342 1.682.29.321.731.368 1.316.137a5.553 5.553 0 0 0 1.98-1.635 20.586 20.586 0 0 0 1.915-2.632 57.717 57.717 0 0 0 1.822-3.159 137.426 137.426 0 0 0 3.134-6.25 1.56 1.56 0 0 1 .714-.762 2.53 2.53 0 0 1 1.082-.209h2.488c-.338.278-.629.535-.855.766a5.575 5.575 0 0 0-.714.835 9.704 9.704 0 0 0-.714 1.202c-.244.48-.539 1.07-.855 1.781-.317.711-.667 1.318-.988 2.016-.321.698-.633 1.374-.924 2.038a40.33 40.33 0 0 0-.761 1.849c-.191.471-.334.96-.427 1.459-.214.989-.205 1.687.026 2.106a1.112 1.112 0 0 0 .855.672 2.6 2.6 0 0 0 1.68-.74 9.794 9.794 0 0 0 1.637-1.871 24.091 24.091 0 0 0 1.501-2.491c.473-.907.911-1.776 1.313-2.607.184-.398.389-.543.62-.428.231.116.209.373.004.856Z" fill="url(#u)"/><path d="M382.832 238.032c1.14-2.183 2.4-4.459 3.78-6.827a54.45 54.45 0 0 1 4.378-6.464 106.973 106.973 0 0 1 3.04-3.531 29.692 29.692 0 0 1 3.065-2.954 16.08 16.08 0 0 1 3.16-2.05 8.646 8.646 0 0 1 3.365-.856 4.61 4.61 0 0 1 2.625.462 2.452 2.452 0 0 1 1.176 1.567 5.043 5.043 0 0 1-.069 2.38c-.247.992-.61 1.952-1.082 2.859a21.903 21.903 0 0 1-1.915 3.069 26.002 26.002 0 0 1-2.531 2.954 28.225 28.225 0 0 1-6.841 5.029 57.943 57.943 0 0 1-9.338 3.763 91.262 91.262 0 0 1-.987 1.844 30.015 30.015 0 0 0-.855 1.661 39.171 39.171 0 0 0-1.612 3.716 20.5 20.5 0 0 0-1.039 3.694 7.622 7.622 0 0 0-.022 2.953 1.744 1.744 0 0 0 1.475 1.451c1.012.22 2.333-.656 3.964-2.628a20.745 20.745 0 0 0 1.911-2.748 26.549 26.549 0 0 0 1.548-2.975c.289-.713.504-1.455.641-2.213a5.276 5.276 0 0 0 .026-1.896 1.998 1.998 0 0 0-.74-1.284 2.412 2.412 0 0 0-1.68-.347 1.112 1.112 0 0 1-.761-.137c-.171-.124-.24-.257-.21-.394s.18-.261.428-.368c.383-.112.789-.12 1.176-.021a4.44 4.44 0 0 1 2.073.805c.544.396.985.919 1.283 1.523.299.622.472 1.297.509 1.986a8.148 8.148 0 0 1-.163 2.192 14.601 14.601 0 0 1-.992 2.954c-.442.979-.99 1.908-1.633 2.769a11.27 11.27 0 0 1-2.215 2.234 7.47 7.47 0 0 1-2.672 1.319 8.508 8.508 0 0 1-3.343.368 3.842 3.842 0 0 1-2.138-.878 3.23 3.23 0 0 1-.988-1.776 5.053 5.053 0 0 1 .09-2.329c.215-.802.485-1.588.808-2.354.351-.856.761-1.772 1.223-2.722a192.308 192.308 0 0 1-2.813 5.136 12.967 12.967 0 0 1-1.89 2.744c-.184.154-.329.146-.428-.021a.494.494 0 0 1 .073-.578 25.092 25.092 0 0 0 1.518-2.354c.556-.955 1.137-2.008 1.753-3.159a128.073 128.073 0 0 0 1.889-3.694c.646-1.31 1.3-2.581 1.98-3.874Zm.09 0a5.3 5.3 0 0 1-1.98-.09 3.235 3.235 0 0 1-2.138-1.823 1.515 1.515 0 0 1-.094-.899.62.62 0 0 1 .253-.463.529.529 0 0 1 .427-.094c.135.03.255.103.342.21a.718.718 0 0 1 .141.484v.09a1.55 1.55 0 0 0 1.283 1.365c.765.17 1.553.207 2.33.111l-.564 1.109Zm3.548-2.029a38.75 38.75 0 0 0 7.538-3.069 27.408 27.408 0 0 0 6.892-5.192 24.759 24.759 0 0 0 2.925-3.621 16.641 16.641 0 0 0 1.847-3.532 4.47 4.47 0 0 0 .274-2.675c-.197-.711-.774-1.062-1.711-1.062a6.194 6.194 0 0 0-3.155.968 17.588 17.588 0 0 0-3.296 2.568 34.497 34.497 0 0 0-3.25 3.668 100.915 100.915 0 0 0-3.065 4.178 102.025 102.025 0 0 0-2.745 4.152 299.816 299.816 0 0 0-2.254 3.634v-.017Z" fill="url(#v)"/><path d="M393.063 252.286a3.233 3.233 0 0 1-.299-1.55c.042-.697.222-1.38.53-2.007.368-.766.693-1.451.966-2.05.274-.6.556-1.178.83-1.734.274-.556.569-1.121.855-1.712.286-.591.663-1.246 1.06-1.982.4-.835.912-1.611 1.522-2.307a2.215 2.215 0 0 1 1.753-.599c.318.033.634.086.945.158.324.077.66.086.988.026a4.294 4.294 0 0 0-1.197 1.198c-.462.617-.947 1.34-1.454 2.17a57.424 57.424 0 0 0-1.518 2.654c-.504.942-.975 1.824-1.406 2.654-.343.68-.643 1.38-.898 2.097a7.34 7.34 0 0 0-.428 1.777c-.063.434-.008.878.158 1.284a1.127 1.127 0 0 0 .787.621c.349.043.702-.022 1.013-.184a3.431 3.431 0 0 0 1.339-1.062c.492-.592.922-1.233 1.282-1.913a7.75 7.75 0 0 0 .74-1.824c.229-.73.291-1.502.184-2.26-.124-.526-.616-.753-1.475-.693-.064 0-.069-.039 0-.116a.766.766 0 0 1 .226-.231c.121-.082.254-.144.394-.184a.847.847 0 0 1 .508 0 2.489 2.489 0 0 1 1.313 1.434 3.53 3.53 0 0 1 .163 2.35 8.302 8.302 0 0 1-1.57 3.232 7.369 7.369 0 0 1-2.766 2.217 3.517 3.517 0 0 1-2.672.137 3.118 3.118 0 0 1-1.873-1.601Zm8.158-3.784a21.89 21.89 0 0 1-.898-.278 2.816 2.816 0 0 1-1.223-.784 2.206 2.206 0 0 1-.53-.993 1.933 1.933 0 0 1 .026-.993c.082-.294.259-.553.504-.736.269-.193.594-.291.924-.278a1.346 1.346 0 0 1 .945.428 1.259 1.259 0 0 1 .427.92 1.453 1.453 0 0 1-.09.428c-.064.189-.106.326-.141.428a1.763 1.763 0 0 0-.111.428c0 .137.069.283.252.428.283.198.606.333.945.394a2.802 2.802 0 0 0 1.497-.094 4.312 4.312 0 0 0 1.71-1.104 7.88 7.88 0 0 0 1.612-2.654c.154-.434.355-.588.603-.462.243.124.261.428.043.877a11.524 11.524 0 0 1-1.565 2.628 4.612 4.612 0 0 1-1.616 1.284 3.712 3.712 0 0 1-1.659.347 8.864 8.864 0 0 1-1.655-.205v-.009Zm6.499-1.284a15.291 15.291 0 0 0-.667 1.592 9.402 9.402 0 0 0-.483 1.845 3.378 3.378 0 0 0 .068 1.545.952.952 0 0 0 1.039.647c.582 0 1.189-.326 1.817-.968a14.204 14.204 0 0 0 1.779-2.264 29.628 29.628 0 0 0 1.496-2.607l1.039-2.054c.184-.399.389-.544.62-.429.231.116.24.394 0 .857a61.21 61.21 0 0 1-1.283 2.538 23.073 23.073 0 0 1-1.71 2.838 12.46 12.46 0 0 1-2.138 2.333 3.793 3.793 0 0 1-2.488.967 2.162 2.162 0 0 1-1.086-.3 3.092 3.092 0 0 1-.992-.946 5.544 5.544 0 0 1-.598-1.797 4.053 4.053 0 0 1 .183-2.265c.372-.766.693-1.451.971-2.05a71.52 71.52 0 0 1 .829-1.734c.278-.556.569-1.121.856-1.712.286-.59.658-1.245 1.06-1.982.399-.834.909-1.61 1.518-2.307a2.234 2.234 0 0 1 1.753-.599c.318.033.633.086.945.158.325.077.663.086.991.026a4.54 4.54 0 0 0-1.222 1.199 24.568 24.568 0 0 0-1.475 2.17 62.516 62.516 0 0 0-1.522 2.654c-.511.938-.944 1.82-1.3 2.645Z" fill="url(#w)"/><path d="M417.126 251.785a9.339 9.339 0 0 0 1.68-1.913c.523-.779 1-1.588 1.428-2.423a42.07 42.07 0 0 0 1.249-2.633c.393-.894.744-1.712 1.082-2.516.337-.805.658-1.477.966-2.076.241-.507.57-.968.97-1.362a2.97 2.97 0 0 1 .736-.552c.269-.131.558-.216.855-.252.39-.051.783-.076 1.176-.073h1.68c.124 0 .141.043.047.115a2.16 2.16 0 0 1-.428.257 4.295 4.295 0 0 1-.667.253 2.43 2.43 0 0 1-.667.115c-.893-.03-1.522.146-1.889.531a8.021 8.021 0 0 0-1.155 1.64 30.595 30.595 0 0 0-1.59 3.505 45.963 45.963 0 0 1-1.937 4.281 17.471 17.471 0 0 1-2.441 3.625 4.135 4.135 0 0 1-3.16 1.52 5.284 5.284 0 0 1-2.048-.39 3.158 3.158 0 0 1-1.548-1.502c-.553-1.016-.714-1.831-.483-2.444a1.853 1.853 0 0 1 .992-1.177.933.933 0 0 1 1.107.231c.308.321.261.916-.141 1.776-.121.243-.153.52-.089.783.059.276.177.536.346.762.17.233.391.423.645.557.248.133.524.204.804.205.459-.02.915-.089 1.36-.205.419-.12.803-.339 1.12-.638Zm7.427 2.029a2.755 2.755 0 0 1-1.381-.428 2.372 2.372 0 0 1-.898-1.156 4.994 4.994 0 0 1-.299-1.845 7.91 7.91 0 0 1 .461-2.469c.214-.677.475-1.399.783-2.166.308-.768.638-1.546.992-2.333.35-.784.705-1.563 1.06-2.329.355-.766.667-1.477.945-2.14.143-.329.395-.598.714-.762a2.53 2.53 0 0 1 1.082-.21h2.488c-.338.279-.629.531-.855.762a5.768 5.768 0 0 0-.714.831c-.266.384-.504.786-.714 1.202a34.733 34.733 0 0 0-.855 1.777c-.317.71-.667 1.314-.988 2.007-.321.694-.633 1.37-.923 2.029a38.148 38.148 0 0 0-.761 1.845c-.192.47-.335.957-.428 1.456-.214.984-.21 1.677 0 2.076a1.285 1.285 0 0 0 .855.693 2.191 2.191 0 0 0 1.821-.693 10.123 10.123 0 0 0 1.711-2.192 28.438 28.438 0 0 0 1.59-3.048c.51-1.121.995-2.213 1.454-3.274a55.714 55.714 0 0 1 1.312-2.838 6.141 6.141 0 0 1 1.176-1.755 2.92 2.92 0 0 1 .736-.552c.269-.131.558-.217.855-.253.39-.051.782-.075 1.175-.073h1.715c.12 0 .137.043.043.116a2.292 2.292 0 0 1-.428.257 4.291 4.291 0 0 1-.667.252c-.216.07-.44.109-.667.116-.893-.03-1.513.145-1.868.531a10.49 10.49 0 0 0-1.176 1.639 17.561 17.561 0 0 0-1.039 2.192c-.351.877-.735 1.797-1.15 2.769a41.89 41.89 0 0 1-1.36 2.906 16.24 16.24 0 0 1-1.612 2.569 8.13 8.13 0 0 1-1.915 1.819c-.664.464-1.461.7-2.27.672Zm11.385-14.857c.147-.329.4-.597.719-.762.341-.149.71-.221 1.081-.21h2.489c-.338.278-.629.531-.877.762a5.945 5.945 0 0 0-.714.83 9.643 9.643 0 0 0-.714 1.203 38.818 38.818 0 0 0-.855 1.776c-.339.645-.67 1.315-.992 2.008-.32.689-.628 1.37-.919 2.029a39.19 39.19 0 0 0-.761 1.845 7.212 7.212 0 0 0-.428 1.455c-.218.985-.209 1.682 0 2.102a1.13 1.13 0 0 0 .856.668 2.606 2.606 0 0 0 1.68-.741 9.896 9.896 0 0 0 1.637-1.866c.551-.8 1.051-1.633 1.497-2.496.479-.903.915-1.776 1.317-2.607.184-.398.389-.543.62-.428.231.116.239.394.025.857-.372.8-.799 1.686-1.282 2.653a21.517 21.517 0 0 1-1.659 2.748 10.676 10.676 0 0 1-2.031 2.171 3.735 3.735 0 0 1-2.352.856 2.467 2.467 0 0 1-1.381-.39 2.333 2.333 0 0 1-.898-1.156 5.084 5.084 0 0 1-.299-1.866 7.952 7.952 0 0 1 .458-2.495c.216-.677.478-1.399.786-2.166.304-.771.637-1.55.988-2.333l1.06-2.329c.354-.767.667-1.474.941-2.118h.008Z" fill="url(#x)"/><path d="M441.235 211.236c-.24 1.001-.525 2.114-.855 3.338a25.347 25.347 0 0 1-1.283 3.536 11.934 11.934 0 0 1-1.834 2.928 4.431 4.431 0 0 1-2.501 1.519 2.874 2.874 0 0 1-1.676-.132 2.758 2.758 0 0 1-1.283-1.113 6.044 6.044 0 0 1-.774-2.076 9.317 9.317 0 0 1-.043-2.967 32.662 32.662 0 0 1-1.026 2.714c-.373.872-.81 1.715-1.308 2.521a9.655 9.655 0 0 1-1.612 1.974 3.806 3.806 0 0 1-1.834 1.001c-.31.062-.625.098-.941.107a2.996 2.996 0 0 1-1.047-.145 3.2 3.2 0 0 1-1.022-.565 2.832 2.832 0 0 1-.8-1.109 5.263 5.263 0 0 1-.38-1.631 7.026 7.026 0 0 1 .081-1.639c.091-.55.221-1.092.389-1.622.171-.527.329-1.062.479-1.61a.882.882 0 0 1-.534-.056c-.184-.077-.218-.303-.112-.693.12-.326.219-.659.295-.997.077-.347.171-.694.283-1.049.325-1.13.649-2.256.97-3.386.321-1.13.599-2.14.825-3.03.09-.41.317-.776.642-1.041a2.99 2.99 0 0 1 1.197-.483l3.224-.651a7.146 7.146 0 0 0-.714.831 9.554 9.554 0 0 0-1.185 2.307 19.356 19.356 0 0 0-.594 1.99 48.878 48.878 0 0 0-.791 2.911 45.49 45.49 0 0 0-.654 2.5 56.3 56.3 0 0 1-.518 2.084 10.97 10.97 0 0 0-.367 3.656c.117.933.379 1.551.786 1.853.408.303.921.254 1.54-.145.615-.397 1.247-1.176 1.894-2.338a22.857 22.857 0 0 0 1.59-3.458c.488-1.31.945-2.658 1.36-4.045.415-1.387.816-2.761 1.184-4.118.368-1.357.693-2.62.975-3.775.092-.41.319-.777.646-1.04a2.93 2.93 0 0 1 1.192-.488l2.856-.574c-.324.398-.598.758-.829 1.079a7.165 7.165 0 0 0-.629 1.121 12.41 12.41 0 0 0-.543 1.545 78.86 78.86 0 0 0-.594 2.248 54.315 54.315 0 0 0-.671 2.538c-.21.873-.428 1.712-.59 2.568-.163.856-.334 1.597-.428 2.299a8.314 8.314 0 0 0-.141 1.768c0 1.185.15 1.986.509 2.414a1.308 1.308 0 0 0 1.133.573 3.065 3.065 0 0 0 1.762-1.237 11.724 11.724 0 0 0 1.445-2.521c.448-1.042.83-2.112 1.146-3.202.339-1.141.641-2.24.906-3.296.12-.5.325-.714.611-.646.287.069.325.377.193.955Z" fill="url(#y)"/><path d="M445.869 217.9a10.777 10.777 0 0 0 1.488-2.568 28.347 28.347 0 0 0 1.082-3.112 46.11 46.11 0 0 0 .825-3.3c.235-1.109.458-2.141.663-3.138a41.26 41.26 0 0 1 .633-2.602 5.47 5.47 0 0 1 .799-1.785 3.23 3.23 0 0 1 .719-.805c.285-.215.604-.382.944-.492a9.917 9.917 0 0 1 1.334-.351l1.929-.39c.141-.03.166 0 .081.12a2.596 2.596 0 0 1-.428.39 5.001 5.001 0 0 1-.709.428c-.232.13-.481.227-.74.286-1.032.172-1.713.52-2.044 1.045a9.736 9.736 0 0 0-.945 2.14 35.24 35.24 0 0 0-1.017 4.388 54.83 54.83 0 0 1-1.24 5.341 20.292 20.292 0 0 1-1.971 4.709 4.82 4.82 0 0 1-3.271 2.474 6.154 6.154 0 0 1-2.441.021 3.677 3.677 0 0 1-2.138-1.365c-.855-1.036-1.229-1.933-1.12-2.692a2.183 2.183 0 0 1 .855-1.58 1.093 1.093 0 0 1 1.321 0c.428.3.509.989.252 2.068-.085.305-.059.631.073.92.132.303.328.574.573.796.245.224.537.389.855.484.314.097.647.116.971.055a7.764 7.764 0 0 0 1.513-.552 3.163 3.163 0 0 0 1.154-.933Zm8.419-16.998c.09-.409.316-.776.641-1.04a2.996 2.996 0 0 1 1.197-.483l2.856-.578c-.324.398-.602.757-.829 1.078-.247.35-.458.725-.628 1.118a10.877 10.877 0 0 0-.543 1.541 71.115 71.115 0 0 0-.599 2.238 61.254 61.254 0 0 0-.676 2.53c-.213.869-.427 1.712-.59 2.543-.162.83-.333 1.592-.449 2.294a8.827 8.827 0 0 0-.141 1.763c-.022 1.179.147 1.979.509 2.402a1.31 1.31 0 0 0 1.133.569 2.993 2.993 0 0 0 1.762-1.233 11.512 11.512 0 0 0 1.445-2.521c.448-1.044.83-2.115 1.146-3.206.337-1.147.641-2.247.906-3.292.12-.5.325-.714.616-.646.29.069.363.394.222.976a115.977 115.977 0 0 1-.855 3.339 25.157 25.157 0 0 1-1.283 3.531 12.334 12.334 0 0 1-1.83 2.958 4.34 4.34 0 0 1-2.492 1.545 2.874 2.874 0 0 1-1.676-.128 2.748 2.748 0 0 1-1.283-1.118 5.921 5.921 0 0 1-.774-2.076 9.286 9.286 0 0 1-.047-2.962c.09-.826.227-1.712.402-2.671a70.44 70.44 0 0 1 .599-2.902c.222-.984.453-1.952.684-2.915.231-.963.406-1.849.577-2.654Z" fill="url(#z)"/><path d="M481.202 203.201a93.896 93.896 0 0 1-.855 3.343 24.994 24.994 0 0 1-1.282 3.532 11.694 11.694 0 0 1-1.83 2.927 4.439 4.439 0 0 1-2.501 1.524 2.874 2.874 0 0 1-1.676-.132 2.723 2.723 0 0 1-1.283-1.118 5.916 5.916 0 0 1-.774-2.071 9.26 9.26 0 0 1-.047-2.967c-.285.905-.626 1.81-1.022 2.714a18.766 18.766 0 0 1-1.308 2.517 9.613 9.613 0 0 1-1.612 1.978 3.888 3.888 0 0 1-1.834 1.001 6.01 6.01 0 0 1-.945.107 2.932 2.932 0 0 1-1.043-.15 3.06 3.06 0 0 1-1.022-.565 2.808 2.808 0 0 1-.8-1.104 5.416 5.416 0 0 1-.385-1.631 7.311 7.311 0 0 1 .086-1.639c.091-.55.221-1.092.389-1.622.171-.531.329-1.066.475-1.61a.933.933 0 0 1-.535-.056c-.179-.077-.214-.308-.111-.697.121-.324.221-.656.299-.993.073-.347.171-.698.282-1.049.325-1.13.646-2.26.971-3.39.325-1.13.599-2.14.825-3.026.089-.41.315-.778.642-1.041a2.94 2.94 0 0 1 1.197-.488l3.223-.646a6.984 6.984 0 0 0-.714.831 8.777 8.777 0 0 0-.602.975c-.224.43-.42.873-.586 1.327-.188.517-.385 1.18-.59 1.991a49.599 49.599 0 0 0-.791 2.915 44.61 44.61 0 0 0-.654 2.5 56.3 56.3 0 0 1-.518 2.084 10.867 10.867 0 0 0-.367 3.656c.114.927.374 1.543.782 1.849.408.305.921.258 1.539-.142a6.57 6.57 0 0 0 1.899-2.337 24.127 24.127 0 0 0 1.59-3.458c.487-1.31.941-2.658 1.36-4.045.419-1.387.813-2.761 1.184-4.122.368-1.356.693-2.614.975-3.776a1.86 1.86 0 0 1 .645-1.035 2.934 2.934 0 0 1 1.193-.488l2.856-.574c-.325.398-.603.758-.829 1.079a6.423 6.423 0 0 0-.629 1.121 11.744 11.744 0 0 0-.543 1.545 85.698 85.698 0 0 0-.594 2.243 54.105 54.105 0 0 0-.671 2.539 45.673 45.673 0 0 0-.59 2.568c-.163.856-.334 1.592-.428 2.298a8.883 8.883 0 0 0-.141 1.768c-.017 1.182.154 1.985.513 2.41a1.314 1.314 0 0 0 1.133.574 3.048 3.048 0 0 0 1.757-1.233 11.744 11.744 0 0 0 1.45-2.521 28.434 28.434 0 0 0 1.146-3.206c.337-1.147.637-2.247.906-3.292.12-.501.325-.715.612-.646.286.068.325.394.183.954Z" fill="url(#A)"/></g><defs><linearGradient id="b" x1="-3532.83" y1="18088.1" x2="56789" y2="18088.1" gradientUnits="userSpaceOnUse"><stop stop-color="#B47E11"/><stop offset=".51" stop-color="#EAD98B"/><stop offset="1" stop-color="#B47E11"/></linearGradient><linearGradient id="c" x1="-937.326" y1="7533.47" x2="15901.2" y2="7533.47" gradientUnits="userSpaceOnUse"><stop stop-color="#B47E11"/><stop offset=".51" stop-color="#EAD98B"/><stop offset="1" stop-color="#B47E11"/></linearGradient><linearGradient id="d" x1="-1414.9" y1="7493.82" x2="23724.2" y2="7493.82" gradientUnits="userSpaceOnUse"><stop stop-color="#B47E11"/><stop offset=".51" stop-color="#EAD98B"/><stop offset="1" stop-color="#B47E11"/></linearGradient><linearGradient id="e" x1="-2014.41" y1="14286.8" x2="33526.2" y2="14286.8" gradientUnits="userSpaceOnUse"><stop stop-color="#B47E11"/><stop offset=".51" stop-color="#EAD98B"/><stop offset="1" stop-color="#B47E11"/></linearGradient><linearGradient id="f" x1="-891.27" y1="7542.22" x2="15951" y2="7542.22" gradientUnits="userSpaceOnUse"><stop stop-color="#B47E11"/><stop offset=".51" stop-color="#EAD98B"/><stop offset="1" stop-color="#B47E11"/></linearGradient><linearGradient id="g" x1="-878.939" y1="7542.45" x2="15957.2" y2="7542.45" gradientUnits="userSpaceOnUse"><stop stop-color="#B47E11"/><stop offset=".51" stop-color="#EAD98B"/><stop offset="1" stop-color="#B47E11"/></linearGradient><linearGradient id="h" x1="-1873.34" y1="9385.35" x2="32090.4" y2="9385.35" gradientUnits="userSpaceOnUse"><stop stop-color="#B47E11"/><stop offset=".51" stop-color="#EAD98B"/><stop offset="1" stop-color="#B47E11"/></linearGradient><linearGradient id="i" x1="-2093.85" y1="16344.1" x2="36044.4" y2="16344.1" gradientUnits="userSpaceOnUse"><stop stop-color="#B47E11"/><stop offset=".51" stop-color="#EAD98B"/><stop offset="1" stop-color="#B47E11"/></linearGradient><linearGradient id="j" x1="-1065.44" y1="7386.55" x2="19826.3" y2="7386.55" gradientUnits="userSpaceOnUse"><stop stop-color="#B47E11"/><stop offset=".51" stop-color="#EAD98B"/><stop offset="1" stop-color="#B47E11"/></linearGradient><linearGradient id="k" x1="-1655.45" y1="16332.3" x2="29778.5" y2="16332.3" gradientUnits="userSpaceOnUse"><stop stop-color="#B47E11"/><stop offset=".51" stop-color="#EAD98B"/><stop offset="1" stop-color="#B47E11"/></linearGradient><linearGradient id="l" x1="-1325.03" y1="7246.27" x2="24711" y2="7246.27" gradientUnits="userSpaceOnUse"><stop stop-color="#B47E11"/><stop offset=".51" stop-color="#EAD98B"/><stop offset="1" stop-color="#B47E11"/></linearGradient><linearGradient id="m" x1="-1772.79" y1="9385.34" x2="32192.2" y2="9385.34" gradientUnits="userSpaceOnUse"><stop stop-color="#B47E11"/><stop offset=".51" stop-color="#EAD98B"/><stop offset="1" stop-color="#B47E11"/></linearGradient><linearGradient id="n" x1="-877.198" y1="7248.4" x2="18228.6" y2="7248.4" gradientUnits="userSpaceOnUse"><stop stop-color="#B47E11"/><stop offset=".51" stop-color="#EAD98B"/><stop offset="1" stop-color="#B47E11"/></linearGradient><linearGradient id="o" x1="-716.488" y1="7533.47" x2="16092.1" y2="7533.47" gradientUnits="userSpaceOnUse"><stop stop-color="#B47E11"/><stop offset=".51" stop-color="#EAD98B"/><stop offset="1" stop-color="#B47E11"/></linearGradient><linearGradient id="p" x1="-891.208" y1="9343.86" x2="19054.7" y2="9343.86" gradientUnits="userSpaceOnUse"><stop stop-color="#B47E11"/><stop offset=".51" stop-color="#EAD98B"/><stop offset="1" stop-color="#B47E11"/></linearGradient><linearGradient id="q" x1="-999.327" y1="7589.14" x2="21038.5" y2="7589.14" gradientUnits="userSpaceOnUse"><stop stop-color="#B47E11"/><stop offset=".51" stop-color="#EAD98B"/><stop offset="1" stop-color="#B47E11"/></linearGradient><linearGradient id="r" x1="-675.948" y1="7542.04" x2="16125.4" y2="7542.04" gradientUnits="userSpaceOnUse"><stop stop-color="#B47E11"/><stop offset=".51" stop-color="#EAD98B"/><stop offset="1" stop-color="#B47E11"/></linearGradient><linearGradient id="s" x1="-1672.14" y1="9385.34" x2="32286.7" y2="9385.34" gradientUnits="userSpaceOnUse"><stop stop-color="#B47E11"/><stop offset=".51" stop-color="#EAD98B"/><stop offset="1" stop-color="#B47E11"/></linearGradient><linearGradient id="t" x1="-1192.8" y1="7279.27" x2="25005.8" y2="7279.27" gradientUnits="userSpaceOnUse"><stop stop-color="#B47E11"/><stop offset=".51" stop-color="#EAD98B"/><stop offset="1" stop-color="#B47E11"/></linearGradient><linearGradient id="u" x1="-953.871" y1="7273.76" x2="21500.5" y2="7273.76" gradientUnits="userSpaceOnUse"><stop stop-color="#B47E11"/><stop offset=".51" stop-color="#EAD98B"/><stop offset="1" stop-color="#B47E11"/></linearGradient><linearGradient id="v" x1="-1855.97" y1="16344.1" x2="36246.6" y2="16344.1" gradientUnits="userSpaceOnUse"><stop stop-color="#B47E11"/><stop offset=".51" stop-color="#EAD98B"/><stop offset="1" stop-color="#B47E11"/></linearGradient><linearGradient id="w" x1="-1131.83" y1="7246.49" x2="24900.1" y2="7246.49" gradientUnits="userSpaceOnUse"><stop stop-color="#B47E11"/><stop offset=".51" stop-color="#EAD98B"/><stop offset="1" stop-color="#B47E11"/></linearGradient><linearGradient id="x" x1="-1743.77" y1="7277.57" x2="35046.1" y2="7277.57" gradientUnits="userSpaceOnUse"><stop stop-color="#B47E11"/><stop offset=".51" stop-color="#EAD98B"/><stop offset="1" stop-color="#B47E11"/></linearGradient><linearGradient id="y" x1="409.002" y1="218.743" x2="495.47" y2="199.554" gradientUnits="userSpaceOnUse"><stop stop-color="#B47E11"/><stop offset=".51" stop-color="#EAD98B"/><stop offset="1" stop-color="#B47E11"/></linearGradient><linearGradient id="z" x1="23806.8" y1="8294.53" x2="28626.4" y2="7124.02" gradientUnits="userSpaceOnUse"><stop stop-color="#B47E11"/><stop offset=".51" stop-color="#EAD98B"/><stop offset="1" stop-color="#B47E11"/></linearGradient><linearGradient id="A" x1="20198.6" y1="8140.07" x2="24327.7" y2="7275.46" gradientUnits="userSpaceOnUse"><stop stop-color="#B47E11"/><stop offset=".51" stop-color="#EAD98B"/><stop offset="1" stop-color="#B47E11"/></linearGradient><clipPath id="a"><path fill="#fff" d="M0 0h481v271H0z"/></clipPath></defs></svg>