<svg width="275" height="13" fill="none" xmlns="http://www.w3.org/2000/svg"><path d="M133.887.91h.957a1.37 1.37 0 0 1-.727.284h-.23V.91ZM275 .3h-71.149c0 .488 0 .935-.765 1.3L201.25.3h-3.826c-.535.57-1.224 0-1.912.529l.727-.528h-2.831l.574.812-2.334-.69h-24.519v.203l-2.181.73a.815.815 0 0 1-.427-.363.895.895 0 0 1-.108-.57h-21.269V.99a1.588 1.588 0 0 1-.803 0h-1.53a.858.858 0 0 0-.65.203 1.132 1.132 0 0 1-.719-.198 1.247 1.247 0 0 1-.467-.614h-6.082l.535.568h-.688c.612 0 .803.406.841.731h1.224l2.104-.893c-.085.29-.085.602 0 .893h14.23c.215-.04.435-.04.65 0 .203-.04.41-.04.612 0h122.408V.301" fill="url(#a)"/><path d="M118.395.3h-7.191v.244l-.306-.243H.272v1.096l.497.365h115.943l.803-.284v.284h.651l.229-.243c-.344-.447 0-.934 0-1.218Z" fill="url(#b)"/><path d="M132.128.3h-11.093l-.536.65V.463h-.918a3.27 3.27 0 0 0-.765 1.462h6.197a1.939 1.939 0 0 1-.803-.569 15.88 15.88 0 0 0 2.868.569h3.214a7.658 7.658 0 0 0 1.989-1.462" fill="url(#c)"/><path d="m89.706 11.222-2.486.04 2.486-.04Z" fill="url(#d)"/><path d="m122.679 2.98.077 1.584-.077-1.584Z" fill="url(#e)"/><path d="m138.21 11.871 1.683.568-1.683-.568Z" fill="url(#f)"/><defs><linearGradient id="a" x1="-9795.6" y1="596.483" x2="159727" y2="596.483" gradientUnits="userSpaceOnUse"><stop stop-color="#B47E11"/><stop offset=".51" stop-color="#EAD98B"/><stop offset="1" stop-color="#B47E11"/></linearGradient><linearGradient id="b" x1="-8243.53" y1="631.548" x2="132517" y2="631.548" gradientUnits="userSpaceOnUse"><stop stop-color="#B47E11"/><stop offset=".51" stop-color="#EAD98B"/><stop offset="1" stop-color="#B47E11"/></linearGradient><linearGradient id="c" x1="-820.897" y1="701.688" x2="15224.4" y2="701.688" gradientUnits="userSpaceOnUse"><stop stop-color="#B47E11"/><stop offset=".51" stop-color="#EAD98B"/><stop offset="1" stop-color="#B47E11"/></linearGradient><linearGradient id="d" x1="-86.309" y1="28.763" x2="2876.62" y2="28.763" gradientUnits="userSpaceOnUse"><stop stop-color="#B47E11"/><stop offset=".51" stop-color="#EAD98B"/><stop offset="1" stop-color="#B47E11"/></linearGradient><linearGradient id="e" x1="117.342" y1="686.843" x2="208.479" y2="686.843" gradientUnits="userSpaceOnUse"><stop stop-color="#B47E11"/><stop offset=".51" stop-color="#EAD98B"/><stop offset="1" stop-color="#B47E11"/></linearGradient><linearGradient id="f" x1="20.752" y1="257.355" x2="2026.31" y2="257.355" gradientUnits="userSpaceOnUse"><stop stop-color="#B47E11"/><stop offset=".51" stop-color="#EAD98B"/><stop offset="1" stop-color="#B47E11"/></linearGradient></defs></svg>