<svg width="206" height="52" fill="none" xmlns="http://www.w3.org/2000/svg"><path d="M18.344 0c-3.81 0-8.335 3.64-12.132 9.84A42.754 42.754 0 0 0 0 31.01c0 10.058 5.641 20.2 18.283 20.2 12.642 0 18.296-10.142 18.296-20.2a42.864 42.864 0 0 0-6.14-21.122C26.68 3.725 22.154.048 18.309.048L18.344 0Zm98.744 15.093h12.799v33.363h13.722V15.093h12.799V2.754h-39.32v12.339Zm68.571-.001h20.115V2.742h-20.115c-18.477 0-28.341 9.196-28.341 22.87 0 13.672 9.864 22.856 28.341 22.856h20.115v-12.35h-20.115c-8.493 0-14.17-3.058-14.17-10.507s5.617-10.519 14.17-10.519ZM89.196 2.754 81.892 30.04 74.577 2.754H50.349v45.702h13.709V11.283l9.973 37.173h15.723l9.973-37.197v37.197h13.709V2.754h-24.24Z" fill="#E30611"/></svg>