<svg width="65" height="99" fill="none" xmlns="http://www.w3.org/2000/svg"><path fill-rule="evenodd" clip-rule="evenodd" d="M43.355 4.389c1.233.353 1.266 1.571 1.47 2.563-.44-.877-1.727-1.6-1.47-2.563Z" fill="url(#a)"/><path fill-rule="evenodd" clip-rule="evenodd" d="M54.172 75.861c.247-.55 3.175-1.116 3.378-2.317-1.362.792-2.049-.485-1.951-1.55-.879.96-1.64 3.071-1.427 3.867Zm-5.07.687c1.137.211 3.441.282 4.492-.76-2.261.76-1.598-2.133-1.736-3.303-1.672.998-1.32 2.953-2.756 4.063Zm-32.65 16.077c-3.633 2.736-7.878.802-10.986 1.378.01-.875.76-.121.482-1.007-1.49-.497-1.984-3.077-3.012-4.533-1.888 6.982 10.451 11.364 13.517 4.162ZM7.61 84.28c-.407 1.527-1.21 2.868-2.175 4.136.257 1.972 2.014 1.972 1.993 3.213 1.511-.204 3.035 1.097 4.257.169-1.846.01-3.86-4.566-4.075-7.518Zm6.839 4.293c.29.42 3.656-.146 2.97-1.897-.407.148-.825.3-1.244.44-1.5-2.011-.89-5.508-.901-8.071-1.435.466-3.795 2.133-4.963 2.6 1.072 1.142-1.565 6.41 2.07 7.385-1.094-3.208-2.38-7.6 1.768-7.631-1.404 1.803-1.072 5.214.3 7.174Zm2.904-5.23c2.659-.688.28-4.795 3.42-4.57-.6-.908.472-1.017-.118-1.919-3.365.56-3.676 3.553-3.302 6.49Zm27.988-11.06c1.297-2.899 3.077-6.662 2.734-9.651-1.963 2.713-3.58 5.594-2.734 9.651Zm12.616.838c1.276-.382 1.094-1.772.88-2.27 3.966-3.972 3.934-9.215 2.219-15.067-2.594 1.141-5.704 2.002-7.965 2.83-.129 1.227-.697 1.697.224 2.998-2.442 1.66-2.002 4.692-2.442 7.304 2.732-2.415 1.05-6.932 4.33-9.094.096.25.31.224.418.41.643 1.274-1.114 2.49.075 3.334.397-1.116-.012-2.618 1.019-3.441.986.209 1.392.984 1.693 1.638.503-1.207.32-2.743 1.522-3.618 1.864 1.297 2.219 5.227.707 6.747-.6.111-.621-1.002-1.339-.645-.376 2.814-.74 5.703-1.34 8.874Zm-40.882-8.717c1.35-1.2-.75-4.519-1.285-5.985-.183 1.675.963 3.685 1.285 5.985ZM6.71 24.971c.567 2.15 2.229 4.512 3.3 6.94 3.452-3.383 7.429-6.52 11.417-9.654.107.33-.365.387-.323.673 2.24-2.168 6.143-3.547 7.643-6.07-7.182 4.445-12.37 7.716-18.694 12.798-.182-.497-.353-.994-.535-1.491.481-.53.589-1.235 1.724-1.456-.9-.786-.942-2.35-.9-3.319-1.597.49-2.165 1.58-3.632 1.58Zm21.598-9.355c.847-.653 1.854-.47 2.219-1.629-1.168.211-2.519 1.406-2.22 1.629Zm-8.543 2.752c1.982-1.237 5.466-2.419 6.505-4.548-1.96 1.615-5.09 2.678-6.505 4.548Zm9.143-5.77c.9.23 1.834-.957 2.22-1.625-.965.432-1.919.877-2.22 1.625Zm18.855 4.224c-.407-.433-.73-1.295-.783-2.238-2.497.784-4.738 2.12-6.871 3.558-9.786 6.61-19.176 10.788-28.951 17.002-.29-.482-.065-.716-.107-1.082.074 5.601 3.794 11.847 4.694 17.93 1.822 3.954 4.523 11.3 4.726 15.688 2.596 6.672 3.796 12.877 2.692 17.8-.29.86.77.42.525 1.494-2.798 2.956-4.48 8.172-8.565 10.599-4.234 2.526-8.147.33-12.112-1.013C1.852 94.077-.676 91.146.17 87.766c.182-.756 1.383-2.154 2.1-3.549 3.066-5.986 9.841-8.764 17.678-9.355-.848-3.292-.902-7.313-2.542-10.295-.3.99 1.759 3.165.334 4.078-5.822-13.616-8.308-29.63-13.636-44.714.419-.692.257-1.663 1.201-2.11.215 1.147.921 1.25 1.136 2.402 10.152-8.46 23.261-15.828 37.044-21.838.708-1.199 2.294-2.388 4.042-2 .58 1.373-.278 2.07-.269 3.182 2.133 3.84 3.152 10.305 4.236 15.85-.023 1.071.846.24.942 1.067 2.584 13.563 10.761 27.744 12.52 43.154-1.06 2.874-1.35 5.872-3.247 8.99-2.348 3.868-7.108 6.594-12.972 6.846-1.028-.315-1.949-2.091-3.096-.854.054-.907-.236-.882-1.105-.735-.407-2.973-2.486-4.608-2.486-7.794 0-4.807 3.493-10.055 8.339-12.764 3.173-1.761 6.925-1.439 10.29-3.37-4.061-15.387-10.46-29.383-13.474-45.052-.73-.656-2.122.098-2.776-.694-.365-1.567 1.04.02 1.222-1.274a11.659 11.659 0 0 0-.89-3.324C40.7 4.77 38.609 6.9 35.34 8.635c.568.098 1.832-.93 2.026.965 1.79-.447 2.53-2.06 4.394-1.838.225 2.296-2.509 2.847-3.934 3.915-5.124 3.822-10.622 8.696-16.367 12.249 1.48.984 2.68-1.564 4.383-1.836.279-.144.043-.526-.02-.834 5.808-1.854 10.074-6.947 16.432-8.915-1.608 2.69-6.648 5.126-10.538 7.382-3.462 2.006-6.432 4.657-9.722 6.532 8.521-3.78 17.108-8.665 24.526-13.749-.43-.934-1.234-2.041-1.736-3.301 1.874-.499 1.177 3.293 2.582 4.122-.46 1.166.654 2.056.397 3.495Z" fill="url(#b)"/><defs><linearGradient id="a" x1="44.824" y1="4.103" x2="42.478" y2="5.411" gradientUnits="userSpaceOnUse"><stop stop-color="#986B0D"/><stop offset=".49" stop-color="#EEC267"/><stop offset=".934" stop-color="#A07314"/></linearGradient><linearGradient id="b" x1="64.956" y1="-10.659" x2="-30.421" y2="49.163" gradientUnits="userSpaceOnUse"><stop stop-color="#986B0D"/><stop offset=".49" stop-color="#EEC267"/><stop offset=".934" stop-color="#A07314"/></linearGradient></defs></svg>