<svg width="21" height="34" fill="none" xmlns="http://www.w3.org/2000/svg"><path fill-rule="evenodd" clip-rule="evenodd" d="M12.454 26.571c1.4-3.854 2.43-8.093 3.458-12.32.283-1.137.607-2.64 1.052-4.4.332-1.265 1.056-2.419 1.226-3.551.102-.645-.017-1.333.184-1.924.39-1.12 1.567-2.249 1.157-3.22.307-.263.639-.488 1.226-.316-1.052 8.211-3.857 17.784-6.321 26.734-.128.508.093.65-.117 1.13-.722.572-1.326 1.52-1.944 2.59-2.803 2.029-9.638 4.446-11.463-.492-.156.016-.28-1.333-.186-1.776C1.14 27 3.478 25.14 4.929 24.493c1.483-.334 5.457 1.082 7.525 2.078Z" fill="#312C93"/></svg>