<svg width="315" height="803" fill="none" xmlns="http://www.w3.org/2000/svg"><path fill-rule="evenodd" clip-rule="evenodd" d="M297.291 332.881v27.45l.788.768c.021-.337.052-.668.059-.994.01-.471.454-.423.887-.478 1.168-.149 1.92.654 2.89.934v-.009c-.042-.704.29-1.418-.995-1.705-.981-.221-.81-.842.168-1.392.867-.489 2.357-.846 1.009-2.285-.229-.245-.272-.839.369-.835.752 0 1.214-.045 1.15-.951-.024-.321.338-.274.612.072.535.679.901 1.631 2.293 1.369-.622.535-1.028.911-1.475 1.253-.327.255-.578.388-.943-.104-.48-.649-.843-.198-.885.324-.06.844-.003 1.688.003 2.53.681.172.964 1.391 2.029.628.402-.292.956-.599.729-1.036-.3-.583-.801-.254-1.181.091-.149.139-.327.439-.536.121a1.787 1.787 0 0 1-.286-.872c-.021-.368.251-.563.643-.459.694.183 1.107.374 1.218-.702.09-.905 1.681-1.177 2.657-.58.805.491 1.406 1.113.676 2.07-.284.376-.509.82-.873 1.111-.493.395-.728 1.089-1.429 1.222-1.143.216.351 1.163-.369 1.279-1.063.172-.707-.772-.897-1.276-1.138.439-1.726-.403-2.457-.92l.076-.677-.089.679c.077.841-.904.601-1.217 1.036v.009c-.834.584-1.709 1.123-2.449 1.899l2.582 2.518.033-.007c.305-.017.553.071.541.326a.812.812 0 0 1-.036.206l3.711 3.618c.551-.056.922.279 1.321.307.109.442-.083.589-.317.621l-.046.006.488.476c.156-.075.326-.123.503-.14.251-.01.31.314.144.492-.044.047-.086.1-.13.152l6.718 6.55v-27.081l-.015.006c-.419-.141-.39-.455-.374-.753l-2.521-2.459c-.158.41-.695.177-.839-.133-.425-.924-.98-.863-1.717-.443l-.005-.004c.346.611.52 1.208-.459 1.391-.469.09-.952.106-1.369.425.393-.871.77-1.688 1.902-1.752l.003.003c.134-.875-.037-1.629-.788-2.11-.695.067-.564.413-.442.666.135.281.369.568.015.79-.355.223-.912.266-1.057-.138-.382-1.055-1.419-.799-2.179-1.095h-.001l-.004-.006c.247.792-.406 1.462-.342 2.223l.005-.005h-.001l.067-.064c.23 1.039 1.145 2.254-.81 2.723l.07-.071a1.932 1.932 0 0 0-.226-.095c-.497-.145-1.239.015-1.167-.837.024-.271.184-.459.434-.461.909-.01 1.077.517.946 1.232-.015.076-.035.149-.055.228l.068-.067c.092.647-.046 1.283.225 1.955.271.671.583 1.172 1.377.89.888-.31.658-1.107.248-1.518-.618-.62-.734-.892.025-1.537.803-.681.055-2.036-1.187-2.374-.891 1.142-1.438-.411-2.181-.318l.096.067-.502-1.932.002-.002h-.003l-.001-.006-.005.006h-2.14c.885.81 1.475 1.761 2.652 1.94l-.096-.068c-.037.28 0 .847-.322.699-.633-.298-1.312-.135-1.913-.372-.789-.311-1.346-.389-.935.69.168.44.111.761-.47.795-.487.028-.793-.202-.836-.653a17.965 17.965 0 0 1-.068-1.626v-7.765c1.094-.065 1.464 1.198 2.473.813.293-.112.723.288.535.565-.885 1.317.21 1.586 1.095 2.047.245.128.291.555.738.571-.086-.727.64-1.156.76-1.819l-.055.043c1.061-.116 1.852.394 2.657.872l-8.995-8.771Zm10.31 29.752c1.107-.25 1.781-.882 2.234-1.796.239.262.386.438.553.598.404.395.801.773.703 1.403-.184 1.18-.466-.44-.869.034-.319.376-.57.991-1.232 1.036-.88.072-.893-.692-1.389-1.275Zm1.741-9.803c.493.297 1.475-.373 1.771.578.121.387-1.671 1.876-2.272 1.772-1.009-.172-.021-1.247-.738-1.763-.2-.149.47-.827 1.239-.587Zm-7.165-7.863c1.006.872 2.024.203 3.033.006h.001l.004.005c-.239-.905-1.158-1.853-1.763-1.606-1.096.449-1.974.195-2.968-.203.184 1.13 1.036 1.368 1.691 1.799l.002-.001Zm9.211 15.262c.175.014-.271-.188-.076-.459.325-.452.146-.862.205-1.285.059-.423.511-.846 1.038-.633.528.212.622.545.184 1.087-.313.377.338 1.324-1.351 1.29Zm-8.059 4.012c.166-.107.395-.188.515-.345.393-.518.804-1.036 1.558-.663.504.252.395 1.448-.132 1.869-.806.643-1.107-.219-1.581-.507a2.2 2.2 0 0 1-.361-.354h.001Zm.356-23.511c-.722-.12-1.333.29-2.255.48.339-.987.393-1.931 1.754-1.769 1.092.132.592.799.446 1.332l.055-.043Zm6.238 8.111c.476.802.081 1.54.48 2.177.306.488-.211.744-.554.78-.479.049-.737-.392-.663-.77.134-.65.415-1.273.737-2.187Zm-10.11 2.815c.144.19.308.306.303.411-.041.643.282 1.432-.695 1.735-.113.035-.386-.065-.402-.138-.177-.812-.32-1.631.794-2.008Zm.791-.633-1.66-1.619c1.686-.614 1.175 1.105 2.097 1.18l-.437.439Zm12.272 3.827c.058.578 1.202.821.577 1.499-.088.097-.485.026-.69-.065-1.082-.478-.007-.959.113-1.434Zm-11.193-6.476c-.105.295-.272.59-.631.611-.463.026-.747-.281-.815-.671-.054-.318.106-.584.553-.551.446.034.784.158.893.611Zm8.751 10.787a4.26 4.26 0 0 1-.606-.676c-.139-.242.051-.416.321-.418.269-.001.486.075.418.401-.044.222-.085.444-.133.693Zm2.158-8.564c-.339-.101-.636-.218-.705-.565-.057-.3.173-.419.422-.423.391 0 .529.285.588.591.043.222.067.475-.305.397Zm-15.301 71.488v27.449l17.687 17.245v-10.912c-.498.044-.942-.047-1.486-.376.623-.294 1.061-.288 1.486-.104v-14.791a.93.93 0 0 0-.463.083c-.055-.199-.184-.559-.155-.573.267-.11.46-.274.618-.463v-.313l-17.687-17.245Zm16.063 24.063c-.767-.069-1.585 1.38-1.898.378-.231-.728-.88-.44-1.016-.882.784-.12.514-.871.953-1.363.494.759.961 1.536 1.961 1.867Zm-14.464-13.386c-.169.255-.322.562-.714.362-.321-.162-.901-.172-.881-.547.055-.336.365-.583.728-.583.051 0 .102.004.152.015.399.06.698.375.714.753h.001Zm-.232 4.168c-.07.249-.035.606-.5.571-.325-.023-.664-.115-.666-.484 0-.321.272-.518.59-.589.401-.086.554.142.576.502Zm15.308 12.906c-.205 1.036-.391 1.553-1.155 1.725-.393-.845.187-1.161 1.155-1.725Zm-2.239-7.988c.203 0 .321.102.28.271-.068.276-.114.743-.273.782-.461.121-.142-.2-.099-.313.094-.239-.401-.548.092-.74Zm2.52 6.023c.235.091.639-.009.455.355-.073.143-.407.221-.629.235-.258.014-.516-.172-.435-.41.042-.12.422-.132.609-.18Z" fill="#312C93"/><path fill-rule="evenodd" clip-rule="evenodd" d="M297.291 467.324v27.449l17.687 17.246V484.57l-17.687-17.246Z" fill="#E30611"/><path fill-rule="evenodd" clip-rule="evenodd" d="M297.291 512.381v27.449l17.687 17.246v-27.45l-17.687-17.245Z" fill="#312C93"/><path fill-rule="evenodd" clip-rule="evenodd" d="M297.291 557.62v27.45l17.687 17.245v-27.45l-17.687-17.245Z" fill="#E30611"/><path fill-rule="evenodd" clip-rule="evenodd" d="M297.291 603.18v27.449l17.687 17.246v-27.45l-17.687-17.245ZM58.887 786.412h29.34l5.014 4.502c-.237.248-.341.549-.312.925.005.099.22.287.302.271.415-.08.56-.332.654-.618l6.328 5.681c-.41.684-.567 1.194.022 1.982.373-.76.295-1.279-.009-1.97l6.433 5.775H90.544c.047-.213.118-.449.51-.618 1.01-.437-.638-.983-.676-1.703-.205.973-.96 1.518-1.69 2.081.349.206.76.16 1.084.24H79.341c.13-.052.31-.183.557-.417 1.273-1.201 1.356-1.916.14-3.707l.004-.006-.013.017c-.92.101-.94-.975-1.912-1.301.147.834-.082 1.452-.314 2.669.719-1.143 1.646-.953 2.26-1.428l.007-.012-.003.009.012-.009-.017.026c-.465 1.583-2.223 1.105-3.114 1.924-.585-.573-.257-.971-.165-1.41.27-1.28 1.41-2.362.992-3.796l.053.045c-.713-.013-1.273-.624-2.029-.44-.056-.427.397-.526.497-.772.358-.886.485-1.94 2.005-1.31.32.132.68-.321.52-.579-.553-.877.738-1.404.512-2.394-2.823.388-5.517.754-8.212 1.13-.572.079-1.145.172-1.708.298-.47.098-.67.416-.57.863.122.533.468.539.91.319 1.085-.538 1.085-.011.868.765-.164.592.109 1.196-.116 1.825-.11.309.47.2.773.197l.005-.007.002.007h.006l-.004.007c.134.519-.724 1.062-.547 1.58l-.968-.869-.003-.019c-.033-.178-.179-.293-.38-.325l-2.03-1.821c.48-.337 1.266-.523.626-1.577l-1.02 1.223-8.078-7.253Zm20.24 16.548h-1.604c.506-.259.83-.781 1.453-.818.007.389.011.723.15.818Zm-2.17-.326-.655-.588c.087-.114.177-.226.269-.338.284.234.276.609.386.926Zm-3.668-3.293-1.97-1.767.005-.002-.04-.037.058.027-.08-.061c.793-.172 1.596.346 2.398 0l-.083.09c-.356-.909-1.213-1.753-.43-2.816l.058.035-1.964.741-.008.013v-.011l-.008.004.01-.015c.022-1.1.926-1.783 1.658-2.713l.315 1.979-.058-.034c.37-.668.493-1.498 1.66-1.826-.276.979-.418 1.828.216 2.777.35.525-.52 1.52-1.442 1.866l.083-.09c-.165.602.08 1.32-.378 1.84Zm7.607-.609c.418-1 1.249-1.035 2.08-1.035.608.009 1.223.238 1.476.721.299.59-.49 1.272-.011 1.929-.203.081-.566.257-.585.228-.49-.721-1.425-.707-2.08-1.134a8.826 8.826 0 0 1-.88-.709Zm6.548-5.168c-.932.402-2.026.306-2.839 1.165-.738.785-1.619.367-2.29-.311.11-.735 1.803-.958.683-2.034-.283-.273 0-.42.236-.432.236-.012.54.036.677.172 1.319 1.358 1.317 1.367 3.525 1.432l.007.004c.463-.007.896-1.032 1.35-.136.694 1.36 1.931 1.451 3.383 1.41-.369.892-.663 1.739-1.07 2.536-.13.255-.369.768-.922.409-.322-.214-.341-.497-.114-.785.435-.552.312-.785-.343-1.208-.886-.568-1.533-1.465-2.283-2.222Zm-9.606 2c.022-.69-.5-1.191-.836-2.019 1.094.173 2.101.085 2.125 1.369.02 1.036-.76.663-1.343.606l.054.044Zm-8.37-.745c-.326-.055-.663-.173-.737-.495-.094-.425.184-.732.591-.851.328-.096.631.014.66.427.03.412-.05.753-.513.919Zm22.582-.969-1.44-1.168c.173-.136.369-.345.41-.31.564.3 1.43.428 1.03 1.478Zm-2.029-2.362c.08-.505.604-.531.838-.826.114.172.32.345.322.517a.278.278 0 0 1 .002.036c0 .304-.251.557-.577.578-.195 0-.4-.201-.585-.305Zm4.082 4.102c-.332-.737-.628-1.262-.354-1.898.99.359 1.16.897.354 1.898Zm.085 3.947c1.129.039 1.702.138 1.986.821-.83.483-1.248-.006-1.986-.821Zm-8.117 3.233c-.024-.19.061-.312.244-.3.304.022.802 0 .869.138.184.411-.184.162-.318.138-.271-.05-.526.452-.795.024Zm5.998-3.212c.062-.232-.102-.591.31-.472.162.046.293.345.339.547.053.238-.115.506-.37.462-.132-.018-.2-.364-.28-.537Z" fill="#312C93"/><path fill-rule="evenodd" clip-rule="evenodd" d="M107.24 786.412h19.152c-.068.24-.038.559.07.969l.857-.969h9.26l18.433 16.548h-29.339l-18.433-16.548Zm39.034 10.99c.611.274.967.649 1.249 1.432-.729-.414-1.341-.576-1.249-1.432Z" fill="#E30611"/><path fill-rule="evenodd" clip-rule="evenodd" d="M156.181 786.412h29.339l18.432 16.548h-29.339l-18.432-16.548Zm13.719 9.111c.318.472 1.005.483.782 1.085-.018.05-.21.658-.738.285-.614-.44-.286-.794-.044-1.37Zm8.937-7.135c-.158-.092-.439-.121-.417-.363 0-.096.227-.241.358-.25a.273.273 0 0 1 .041-.003c.197 0 .356.149.356.333a.271.271 0 0 1-.005.056c-.012.164-.102.289-.333.227Zm-8.078.562c-.369-.306-.69-.507-.38-.875a.321.321 0 0 1 .204-.07c.034 0 .067.005.099.014.326.28.04.557.077.931Zm1.717-.791c.155-.135.328-.251.515-.345.255-.088.244.149.232.269-.021.254-.241.323-.473.306-.075-.003-.139-.112-.274-.23Zm-1.82 3.321c.03-.387.172-.534.402-.617.056.134.1.274.131.416.022.16-.037.329-.236.345-.198.016-.303-.099-.297-.144Z" fill="#312C93"/><path fill-rule="evenodd" clip-rule="evenodd" d="M204.534 786.412h29.339l18.432 16.548h-29.339l-18.432-16.548Z" fill="#E30611"/><path fill-rule="evenodd" clip-rule="evenodd" d="M252.691 786.412h19.121c.143.771.273 2.043 1.551 2.663.148-1.198 1.061-1.882 1.831-2.663h4.422c-.187.167-.372.347-.556.463-.372.233-.198.566.058.789 1.271 1.106.757 2.888 1.789 4.096.335.397.084.954-.355 1.241-.239.157-.732.228-.96.102-.635-.349.785-.866-.1-1.303-.843-.01-1.287 1.348-2.434.658-.871-.52-1.895-.669-2.935-.711-.952-.038-1.324-.942-1.77-1.366-.706.117.407 1.979-1.171.704-.307-.247-.62-.204-.753.205-.076.226 1.312 2.423 1.533 2.406.505-.038.77-.868 1.796-.25-1.712.509-1.594 2.382-3.169 2.884-.018 0-.824 1.149.369 1.553a2.911 2.911 0 0 0 1.907.036c1.129-.307 2.445.446 2.593 1.195.285 1.443.111 1.672-1.713 2.122.081-2.381-1.758-2.678-3.894-2.942.681 1.092.721 1.092.511 1.768a5.11 5.11 0 0 0-.157 2.074l-17.514-15.724Zm28.626 0h.713l.411.369c-.364-.14-.763-.233-1.124-.369Zm2.205 1.339 16.942 15.209h-18.451l-.077-.108c-1.447-1.965-1.943-4.002-1.529-6.279.663 1.299.937 2.189.871 3.397-.024.43.234.592.501.592.679.014 1.407-.043 1.765-.699.309-.553.48-1.159-.429-1.437-.502-.154-1.03-1.211-.949-1.808.028-.132-.139-.278-.184-.427-.219-.719-.096-1.097.826-.752.484.176 1.387.081 1.326-.214-.112-.564.179-1.486-.881-1.682-.323-.057-.887-.369-.703-.518 1.477-1.18-.846-1.534-.622-2.433 1.937.429 2.15.351 3.276-1.24-.862.027-1.533-.532-1.57-1.049a2.04 2.04 0 0 0-.112-.552Zm-8.297.353 1.804-.469c-.356 1.042-1.134.708-1.804.469Zm13.304 13.87c-.45-.155-.497-.517-.383-.92.072-.248.314-.367.543-.205.262.188.476.459.401.8a.393.393 0 0 1-.402.356.443.443 0 0 1-.161-.031h.002Z" fill="#312C93"/><path fill-rule="evenodd" clip-rule="evenodd" d="M297.291 648.419v17.851c.382.114.759.302.967.592.381.529-.077 1.173-.967 1.496v1.842c.274.257.685.424 1.413.362-.545.176-1.004.336-1.413.435v4.872l13.733 13.39a.78.78 0 0 1 .082-.512c.505-.935.395-2.164.553-3.263.056-.388 0-.821.174-1.159.249-.501.021-1.395 1.107-1.315 1.2.095 1.218.924 1.271 1.727.184.458-.322.723-.369 1.067-.082.779-.232 1.553.905 2.013.084.034.161.067.231.1v-22.252l-17.687-17.246Zm15.678 42.736 2.009 1.959V689.1a6.93 6.93 0 0 1-.31.189c-.36.207-.766.383-1.047.663-.231.226-2.099.491-.072.92.149.032.088.322-.015.291a.916.916 0 0 0-.565-.008Zm-12.878-37.2c1.878 2.244 1.878 2.244-1.463 3.717l1.463-3.717Zm5.622 20.167c.721.532.655 1.149.608 1.753-.046.604-.407 1.14-1.06 1.036-.922-.143-.493-.823-.26-1.241.264-.476-.011-1.12.712-1.548Zm-6.055-10.492c-.481-.628-1.376-1.115-.738-2.002.082-.113.539-.15.666-.049.83.664.055 1.356.072 2.051Zm9.601 21.115c-.247-.727.432-.773.799-1.02.243-.162.497-.068.652.152.316.438-.035.517-.382.54-.39.017-.62.512-1.069.328Zm-8.864-23.608c.111-.098.214-.261.297-.252.414.024.746.332.774.721.031.224-.165.547-.395.398-.297-.191-.458-.57-.676-.867Zm12.603 19.185c-.369.155-.456-.128-.473-.323-.016-.195.049-.546.185-.607.273-.123.401.186.524.372.182.266-.057.406-.236.558Z" fill="#E30611"/><path fill-rule="evenodd" clip-rule="evenodd" d="M297.291 693.476v1.79c.034-.102.13-.201.328-.298.244-.114.46-.28.717-.473l-1.045-1.019Zm11.502 26.841c-.018.783-.369 1.456-.738 2.144-.226.42-.358.88-.389 1.349-.062 1.521-.035 1.521-1.835 1.586.284-2.07-.339-4.541 2.951-5.064l.011-.015Zm.003.015c.922-.619.707-1.94 1.888-2.522l2.139 2.122c-1.533.172-2.613 1.241-4.028.387l.001.013Zm-1.309-9.373c2.616.202 2.747.306 2.766 1.999-1.066-.474-1.574-1.622-2.766-1.999Zm-10.196-15.494v13.702c1.144-.283 2.237-.544 2.649-1.915-.257-.602-1.291-.662-1.43-1.46.109-.051.248-.172.336-.148.964.266 2.163 1.137 2.189-.811.564.219.608-1.535 1.645-.255.642.795 1.692 1.814 3.329 1.142-1.354.806-2.779 1.208-2.362 3.01.075.328-.369.88-.738 1.153-.758.574-1.153 1.149-.541 2.006a.541.541 0 0 1 .146.367.554.554 0 0 1-.255.46c-.489.404-.78-.034-1.04-.272-.605-.555-.563-1.677-1.791-1.701-.673-.014-1.385-.32-.691.814.203.331-.922.155-.922.058.008-.52-.205-.824-.524-1.049v10.359l3.29 3.209a.478.478 0 0 1 .534-.501c.255 0 .522.064.45.39a.546.546 0 0 1-.532.426l.003.001a.717.717 0 0 1-.132-.002l.694.677c.664-.386 1.347-.875 2.191.308-.181.328-.773.394-1.089.767l2.732 2.663c-.084-.228.02-.51.031-.781.024-.597.267-.843.898-.795.631.048.878.424.723.947-.155.523-.508.964-1.172.985a1.072 1.072 0 0 1-.183-.066l2.511 2.448c.354-.449.861-.666 1.519-.148-.949.988-.044 1.256.738 1.57-.583-.417-.765-1-.812-1.638a.67.67 0 0 0 .21.034c.179 0 .35-.072.468-.198.273-.254.369-.442-.097-.662-.747-.345-.576-.835-.052-1.38.684.518.95 1.217 1.226 1.914.248.617 1.306 1.035.812 1.782-.341.514-.716 1.064-1.264 1.406l3.99 3.89v-23.169c-.631-.207-.982-.496-.82-1.137.057-.228.553-.59.651-.542.063.031.119.063.169.1v-2.702l-2.779-2.71-.017.088c-.034.205-.279.255-.339.107-.457-1.09-2.036-.087-2.519-1.227.464-.125 1.202.02 1.428-.378l-6.988-6.813c-.32.275-.494.663-.178 1.293.145.294-.618.538-1.053.207-.782-.584-1.132-1.605-2.523-1.735.544-.845 1.034-1.474 1.313-2.144l-2.549-2.486c-.126.264-.384.466-.247.761.127.276.725.679-.022.863-.402.102-.8-.183-.979-.6-.069-.165-.193-.325-.235-.482Zm7.027 15.125c.591-.533-.158-1.582.781-2.06.112-.058.382-.052.429.015.625.892-.168 1.636-.31 2.452-.068.388-.315.595-.67.463-.354-.133-.383-.478-.23-.87Zm-.717-7.518c.802.336 1.728.149 2.617.623-1.535.294-1.535.294-2.617-.623Zm6.754 23.235c-.27-.08-.543-.21-.457-.47.132-.416.147-.988.846-.975.26 0 .487.15.437.44a1.23 1.23 0 0 1-.828 1.004l.002.001Zm-.147-16.142c-.476 0-.295-.345-.209-.455.161-.207.295-.627.738-.31.133.095.38.197.369.291-.03.597-.727.095-.898.474Zm-7.95 11.496c-.334-.378-.686-.679-.896-1.05-.172-.302.232-.283.4-.311.642-.1.865.299.876.789.004.18-.231.365-.38.572Zm1.831-7.877c.028.232.048.497-.263.537-.272.032-.504-.13-.369-.414.096-.204.317-.356.483-.532l.149.409Zm6.71 2.143c-.322-.162-.251-.478-.31-.733-.096-.421.2-.544.537-.439.152.046.31.345.306.518v.038a.639.639 0 0 1-.534.615l.001.001Z" fill="#312C93"/><path fill-rule="evenodd" clip-rule="evenodd" d="M297.291 738.835v27.33l4.041 3.941c.126-.393.368-.772.806-.931.708-.261.553.681 1.007.82.553.172.528 1.15 1.527.792.351-.126 1.201 1.86.825 2.091a2.543 2.543 0 0 0-.689.616l2.371 2.314c.234-.116.467-.38.7-.87.185-.371.814.016.98.381.214.469-.068 1.143-.544 1.596l6.663 6.497V755.96l-6.416-6.255c-.069.286-.077.596-.059.932l-.026.01a4.83 4.83 0 0 1-.039-1.063l-10.038-9.786c-.093.099-.162.203-.171.32-.004.049-.115.091-.377.286-.096-.472-.252-.79-.197-1.073.048-.249-.133-.389-.364-.496Zm14.224 37.557c.092-.89-.152-1.328-1.246-1.654-1.198-.358-2.229-1.263-3.261-2.016-.262-.191-.219-.981.152-.943 1.265.135.636-.668.859-1.129.657-1.356.815-1.585.165-2.731-.157-.275-.104-.387 0-.544.142-.21.413-.345.599-.103.777 1.01 1.384 2.105 2.916 2.416.541.11.244 2.588-.315 3.152-.306.306-1.064.435-.599 1.054.263.345.738.345 1.15.116.413-.23.898-.364 1.151 0 .465.652 1.107 1.036 1.765 1.458.059.038-.067.491-.229.632-.568.497-1.53.517-1.697 1.534-.087.517-.69.11-1.07.036-1.046-.211-.41-.808-.34-1.278Zm-4.563-18.146c.41-.847-.608-1.273-.911-2.02 1.015-.237 1.595-.282 1.891.894.263 1.035-.644 1.553-.771 2.395-.121.81-.712 1.644-1.795 1.574-.651-.042-1.502-2.135-1.311-2.825.17-.613.553-.912 1.218-1.036.804-.157.691.506.94.839.164.216.348.29.739.179Zm1.542-7.604c.406.497 1.394.785.749 1.665-.316.43-.677.973-1.341.295-.184-.185-.452-.121-.426.203.034.389.553.931-.411.943-.911.01-1.306-.637-1.695-1.208-.184-.281.184-.74.434-.68 1.291.323 1.684-1.013 2.671-1.208l.019-.01Zm3.1 15.305c.38-.471 1.053-.768 1.046-1.472 0-.319-.553-.783.211-.862.253-.03.535.297.825.414.646.258.251.581.116.93-.39 1.01-1.24 1.104-2.198.99Zm1.8-10.458c.384.799.764 1.368 0 1.843-.149.093-.588.04-.676-.083-.493-.697.088-1.13.676-1.76Zm.57 26.296c-.332-.129-.603-.328-.572-.662.019-.29.275-.514.584-.514.025 0 .052.002.077.005.318.04.556.295.556.595a.48.48 0 0 1-.003.055c-.026.366-.299.51-.642.521Zm-2.81-19.936c.235-.067.462-.138.693-.198.424-.112.81-.116.948.378a.604.604 0 0 1-.002.439c-.429.549-.632-.078-.922-.197-.242-.099-.61-.036-.717-.422Zm-1.439 2.327c.239-.98.922-.565 1.527-.437.197.043.299.13.278.321-.027.249-.171.456-.444.407-.475-.081-.937-.229-1.402-.344l-.005-.006c.072.379.22.764.199 1.139-.021.647-.588 1.163-1.281 1.163l-.036-.001c-.876-.026-1.15-1.006-1.16-1.527-.011-.642.625-1.236 1.584-.821.217.093.491.072.738.105l-.01-.014.012.015Zm.018 12.087c-.09-.293.109-.436.354-.466.484-.058.469.371.526.618.057.246.048.673-.456.575-.372-.084-.387-.437-.424-.727Zm-5.651-8.334c-.041-.326-.065-.691.406-.606.288.055.524.345.782.517-.224.188-.42.44-.684.554-.564.249-.334-.319-.504-.465ZM40.117 786.532H17.816v-6.27a.79.79 0 0 1-.837-.159c-.438-.44 0-.613.33-.822.131-.081.184-.257.286-.39h-.005c-1.332.402-.873-.535-.902-1.078-.016-.297-.086-.706.436-.691.42.017.52.346.553.691.032.345-.334.7-.09 1.078h.003c.068.141.143.283.226.418v-14.836L6.342 753.124c-.069.121-.144.242-.159.372-.039.333-.332.084-.501.026-.203-.068-.46-.198-.172-.401.158-.111.225-.325.351-.474l-4.387-4.34c-.126.905-.225 1.816-.778 2.592-.025.038-.103.043-.156.064l.001.001c.183.39-.032.558-.417.597a.256.256 0 0 1-.107-.031l-.001 1.167c.516-.195 1.025-.455 1.556-.498.352-.03 1.04-.017 1.075.569.03.495-.509.706-.9.662-.288-.029-.391-.025-.481.192-.1.243.072.395.228.551l-.009.006c.767.059.153.824.611 1.036l.006-.007c.324-.178.431-1.106.995-.391.498.634-.369.884-.76 1.496-.256-.495-.313-.807-.184-1.161l-.032.033.024-.027c-.717.735-1.162.014-1.958-.314.552-.305 1.12-.269 1.343-.688l.014-.006c-1.043.264-.997-.679-1.529-.979l-.001 1.95c.204.046.402.171.584.31.131.103.273.195.542.387-.7.34-.597 1.122-1.128 1.57v.529c.63.628 1.246 1.272 1.9 1.873.123.112.5.012.302.345-.105.173-.395.494-.476.387-.478-.616-1.205.351-1.629-.267.242.584.454 1.11-.1 1.642l-.001 1.214c.047.015.097.03.151.043.36.087.738.192.467.825-.414.965-.12 2.112-.62 3.091L0 771.293c.426-.096.405.289.414.588.017.104.05.205.1.299l.01-.011a3.047 3.047 0 0 0 1.142.105c1.25-.172 1.815.285 1.93 1.434.02.206-.05.409.073.614.279.466.208.741-.442.594a.808.808 0 0 0-.784.216c-.216.2-.701.237-.708.569l.436.429c.188.006.403-.024.58.062a2.11 2.11 0 0 1-.184.328l2.978 2.932c-.125-.572-.223-1.15-.717-1.581-.176-.152-.294-.378-.039-.539.37-.229.726-.82 1.157-.517.656.469 1.877.274 1.966 1.487.024.346.483.734 1.07.715-.767 1.087-.913 1.139-2.236.849-.137.548 1.117.798.662 1.421L29.456 803h17.87c-.09-.48.141-.886.67-1.319.396.536.225.946.126 1.319H54.4c.245-.197.579-.363.85-.633.102.236.224.446.364.633h1.152l-2.521-2.494c-.299.425-1.46.466-1.952.064-.795-.653.072-1.05.308-1.536l.064-.091-.839-.829a.41.41 0 0 1-.107.027c-.587.05-.847-.359-1.03-.794v-.009c0-.093.036-.182.1-.25l-10.67-10.556Zm6.696 14.562a.451.451 0 0 1-.308-.419c0-.03.003-.06.01-.089.02-.324.183-.562.563-.502.1.016.234.224.236.345a.669.669 0 0 1-.5.665ZM.563 772.125l.003-.003-.003.002.004-.016-.023.028a.982.982 0 0 1-.543.146l-.001.992c.327-.261.47-.721.563-1.149Zm-.237-24.953-.306-.302v.31c.094-.009.195-.012.306-.008Zm-.309 3.333v.809c.132-.18.22-.423.562-.317-.018-.206.024-.606-.158-.556-.14.038-.274.059-.404.064Zm12.816 15.132c-.145.449-.828.459-.553 1.082.569-.209 1.187-.306 1.638.304-.338.548-.987.196-1.391.588-.28.274-.795.216-.782-.518.01-.609-.922-.491-1.33-.935.795-.438 1.306-1.497 2.418-.521Zm-9.115-.976c.624.26.87.669 1.365.595-.133.552-.72.274-.978.545-.228.24-.54.476-.022.747.135.069.519.035.217.374-.302.34.227 1.008-.462 1.246-.089.032-.311-.036-.313-.07-.046-.518-.7-.854-.37-1.508.29-.546.602-1.119.563-1.929Zm7.527 10.674a.649.649 0 0 1 .632-.454h.007c.455-.023 1.556.372 2.165.753-1.321.613-1.321.613-2.804-.299Zm-5.782-6.452c.612.401.513.956.908 1.263-.553.502-1.098.517-1.708.547-.107-.815.228-1.332.8-1.81Zm2.818 5.055c-.343-.309.26-.564.042-.878-.2-.285-.35-.628.146-.763.27-.072.762.15.683.316-.438.903 1.107.162.796.892-.276.654-.964.116-1.366.42-.064.048-.201.012-.3.013Zm-2.99-17.196c-.027-.354-.489-.999.486-.711.463.136.981.272 1.23.798-.651.33-1.221.218-1.77-.138l.055.051Zm7.258 17.781c-.84.158-1.41.247-2.112-.126.729-.659 1.29-.707 2.112.126Zm-.625 6.485c-.393-.048-.297-.404-.432-.611-.207-.319-.225-.712.2-.772.588-.081.3.41.352.678.051.267.228.51-.12.705Zm2.628-8.841c.124-.666.541-.608.845-.718a.257.257 0 0 1 .119-.029.25.25 0 0 1 .25.201c.024.043.037.09.037.139a.292.292 0 0 1-.185.266c-.35.067-.71.114-1.066.14v.001Zm-3.048-8.132c-.242.032-.42-.083-.435-.222-.043-.454.1-.846.625-.998.184-.052.393.047.406.19.033.465-.228.796-.596 1.03Zm9.036 28.459c.295-.572.694-.905 1.53-1.169-.447.682-.62 1.255-1.53 1.169ZM6.487 761.841c1.152-.146 1.152-.146.973.958a1.678 1.678 0 0 1-.973-.959v.001Zm-1.78-.549-.966 1.217c-.043-.777.385-1.038.966-1.217Zm-.634-2.939c.079-.207.155-.39.354-.345.053.012.076.297.05.447-.014.088.184.393-.166.255-.122-.048-.174-.255-.238-.357Zm-.548-1.907c-.289.15.54.703-.2.601-.302-.043-.801-.032-1.023-.433.404-.352.855-.066 1.28-.115v.001-.001l.011-.001-.01-.006c.05-.239-.032-.533.39-.577.322-.035.588-.02.57.345-.03.568.29.602.738.482l-.048-.051c-.054.276.252.828-.533.491-.448-.194-.553-.83-1.177-.737l.002.001Zm5.385 3.079a.606.606 0 0 1 .436-.518c.184-.061.4.154.431.374a.396.396 0 0 1-.353.44c-.224.049-.44.049-.514-.296Zm.961 19.754-.07-.742c.48 0 .126.314.201.468.037.076-.018.193-.031.29l-.1-.016Zm-2.205-20.023c-.126.22-.133.517-.421.638-.024.01-.184-.143-.168-.172.094-.224-.041-.578.36-.635.064-.016.147.093.229.169Zm-5.22 5.568c.11-.1.225-.29.343-.294.341-.008.23.273.234.45 0 .13 0 .366-.184.346-.223-.034-.329-.26-.393-.502Z" fill="#E30611"/><path fill-rule="evenodd" clip-rule="evenodd" d="M17.707 746.443v-.899l-.102.073c-.065-.324-.173-.539-.134-.733.1-.517-1.292-.345-.588-.966.184-.165.514-.014.824.183v-18.09c-.066-.016-.111-.035-.111-.051-.007-.841-.848-.846-1.483-1.291.497-.271 1.076-.353 1.594-.507v-5.169l-5.987-5.837.151.668c-.969-.774-1.246-.995-1.025-1.52l-2.044-1.993c-.036.329-.165.664-.435 1.009-.845-.172-1.326-.48-.992-1.46.039-.114.228-.406.257-.69l-.66-.644-.032-.005c-.093-.014-.157-.099-.189-.21l-6.536-6.372a1.48 1.48 0 0 0-.195.198v27.061l17.687 17.245Zm-7.811-29.117c.998-.283 1.752-.643 2.617-.606.343.014.686-.076.933.271.306.43.922.804-.068 1.208-.553.223-.553.497-.026.947a9.158 9.158 0 0 1 1.736 2.131c.318.518.705 1.208-.2 1.692-.238.129-.457.317-.066.604.119.079.19.207.19.345 0 .199-.15.372-.357.412-.738.107-.891.65-.738 1.053.332.847-.911 1.113-.646 1.869.011.032-.062.129-.09.128-2.565-.181-1.173 1.77-1.626 2.709-.185.391.184 1.036-.445 1.273-.806.304-.738-.69-1.356-.887.052.928-.151 1.606-1.343 1.092-.332.71-1.363.106-1.442.409-.153.581-.782.756-.897 1.191-.276 1.054-.88.235-.972.09a1.196 1.196 0 0 1-.082-1.079c.299-.702.5-2.129.275-2.732-.26-.7-.238-1.217.507-1.667.707-.426.786-.933-.105-1.32-.269-.117-.553-.312-.466-.613.394-1.32.262-2.761.922-3.991.291-.539.442-1.106.71-1.641.157-.309.288-.578.738-.556.45.023.553.335.708.62.155.285.024.507-.04.775-.135.555.354.742.78.892a.587.587 0 0 0 .22.043c.293 0 .536-.216.552-.49.083-.749 1.149-.884 1.083-1.77-.066-.887-.023-1.701-1.006-2.402Zm3.248 19.465c.952-.061 1.261.846 2.188.55-.428.792-.897.376-1.334.452 0 0-.088.114-.06.159.471.74.062 1.831 1.106 2.357.321.161.113.466-.046.691-.158.224-.306.484-.647.445-.383-.045-.388-.323-.37-.611.043-.69-.243-.594-.64-.228-.183.172-.39.235-.569 0a.393.393 0 0 1-.102-.262c0-.121.058-.236.157-.313.307-.316 1.126-.268.876-.977-.12-.345.085-.937-.699-.93-.067.004.575-.774.14-1.333Zm-6.203-24.087c.708.027.836.345.906.761.057.345 0 1.049.682.345.137.272.256.801.05.789-.755-.045-.473.853-1.168.907-.245-.925 1.158-2.074-.47-2.802Zm-.125 5.887c-.164-.401-.455-.758-.369-.971.162-.384 1.036-.137 1.036-.851 0-.057.133.2.222.298.184.214.58.518-.048.666-.48.111-.452.589-.84.858Zm2.047.095c-.068.143-.094.366-.324.248-.231-.117-.539-.267-.604-.464-.079-.243.25-.317.476-.312.356.009.474.23.452.528Z" fill="#312C93"/><path fill-rule="evenodd" clip-rule="evenodd" d="M17.707 701.205v-3.103c-.745.239-1.237.346-1.776-.057a1.297 1.297 0 0 0-1.151-.173 1.958 1.958 0 0 1-.39.099l3.317 3.234Zm0-3.275v-1.756c-.166.14-.402.258-.685.331-.21.053-.471-.084-.649.177.64.202.47 1.091 1.334 1.248Zm0-2.685v-21.491L2.811 659.231c-.071.033-.191.057-.242.034-.291-.136-.328-.329-.277-.54L.02 656.509v27.451l13.755 13.411-.004-.085c0-.289.13-.566.358-.763.708-.565 1.833-.605 2.281-1.58.032-.067.847-.031 1.297.302ZM1.739 680.296.6 680.058c.3-1.488.811-1.951 1.95-1.738.652.123.782.408.254.811-.34.259-.493.57-.698.88.286.145.316.394.395.666.282.98 1.261 1.346 2.213.94a.495.495 0 0 0 .333-.459.475.475 0 0 0-.034-.173c-.553-.885.028-.862.666-.747.279.05.531.21.838.159.369-.058.738-.103 1.107-.155.227.385-.15.704-.152 1.082 0 .562-.845.759-1.016.574-.317-.345-.48-.345-.817-.142-.408.236 0 .464 0 .69-.015.316-.293.417-.453.267-.655-.614-1.65.154-2.283-.536a.417.417 0 0 0-.246-.08.4.4 0 0 0-.353.201c-.096.206-.048.461.247.492.592.065.609.717 1.123.862-.776.195-1.24-.526-1.94-.5-.05 0-.173-.188-.15-.249.432-1.035-.774-.593-1.095-1.126.703-.258.473-1.195 1.249-1.481Zm11.964 14.774c.127-.629.632-.305.966-.393.174-.046.343-.109.37.11.026.219-.201.535-.322.473-.323-.171-.756.148-1.014-.19ZM10.9 673.56c-.1.148-.131.41-.387.39-.105-.009-.26-.213-.27-.335a.385.385 0 0 1-.002-.04c0-.184.16-.333.356-.333.02 0 .04.001.06.004.175.011.31.094.243.314Zm.602 7.555c-.325.346-.54.646-.935.346a.299.299 0 0 1-.06-.284c.3-.296.592-.025.995-.062Zm-.845-1.606a2.325 2.325 0 0 1-.369-.485c-.096-.237.156-.226.286-.216.273.02.345.226.327.442-.002.071-.119.133-.244.259Zm1.8 13.765c-.165.041-.222 0-.168-.139a.58.58 0 0 1 .064-.148c.09-.107.176-.088.231.048.055.136.011.213-.127.239Zm1.746-12.064c-.413-.028-.57-.161-.656-.374.143-.053.292-.095.443-.124.173-.021.352.034.37.22.016.186-.109.284-.157.278Z" fill="#E30611"/><path fill-rule="evenodd" clip-rule="evenodd" d="M17.707 656.147v-27.45L.058 611.489c.268.426 1.03.688.495 1.268-.07.076-.327.049-.533-.01v1.752c.113.149.12.336 0 .569v23.834l17.687 17.245ZM2.626 620.946c-.307-.139-.295-.452-.307-.727-.013-.345.246-.65.553-.626.382.031.3.438.307.713.024.332-.123.588-.553.64Z" fill="#312C93"/><path fill-rule="evenodd" clip-rule="evenodd" d="M17.707 610.909v-27.45L2.113 568.255c.037.893-.878.88-1.45 1.519.016-1.115.552-1.428 1.224-1.74L.02 566.213v19.972c.286.36.753.222.865.589-.724.112-.549.764-.865 1.248v5.641l16.224 15.819c.032-.102.07-.209.113-.32.296.288.38.551.378.8l.972.947Zm-2.85-15c.596-.038 1.011-.036 1.415-.096.953-.143 1.74-.106.756.959-.518.562-.343.91-.014 1.406.296.449-.046.776-.467.852-.42.077-.838-.125-.691-.657.268-.966-.52-1.551-.999-2.464Zm-2.423 3.748c.17-.255.322-.561.715-.362.321.162.9.172.88.549-.056.334-.365.58-.728.58a.712.712 0 0 1-.153-.015c-.4-.06-.698-.375-.714-.753v.001Zm.233-4.167c.07-.249.037-.608.5-.571.324.023.665.113.665.483 0 .323-.269.517-.59.59-.4.086-.551-.143-.575-.502Z" fill="#E30611"/><path fill-rule="evenodd" clip-rule="evenodd" d="M17.707 566.944v-27.451L.02 522.248v27.451l17.687 17.245Zm-.911-21.969c1.59 1.71-.236 2.095-.608 3.013-1.919-1.494.326-1.834.608-3.013Z" fill="#312C93"/><path fill-rule="evenodd" clip-rule="evenodd" d="M17.707 521.705v-17.473c-.552-.248-.806-.797-.963-1.368-.038-.141.184-.465.349-.517.156-.044.385.039.614.184v-8.277L.119 477.107l-.1.021v1.677c.765.393 1.498.747 2.179 1.179.252.157.758.458.3.906-.275.269-.577.243-.848-.009-.52-.484-.784-.402-1.326.143a5.105 5.105 0 0 1-.304.277v11.084c.728.352 1.383.872 2.155 1.127.45.149.823.518 1.515.05-.738-.947.035-2.517-1.609-3.172l.042.04-.04-.03c.428.639.078 1.477 1.192 2.316-1.253-.391-1.872-.69-2.778-.678.485-.85 1.627-.714 1.66-1.582l-.012-.01c2.068-.861 2.81-.688 3.895.669.774.965.214.889-.554.789-.058.669.616 1.065.722 1.699-.404.444-1.09.117-1.53.466 1.438 1.393 3.168 2.416 5.522 3.452-1.271.074-1.965.096-2.655.162-.332.031-.794-.173-.76.529.045.854-.708.591-.88.216-.425-.927-.983-.862-1.72-.442l-.003-.002c.347.61.522 1.208-.459 1.38-.469.092-.952.106-1.368.427.391-.87.768-1.684 1.893-1.753l.01.009.002-.01c.132-.87-.041-1.619-.789-2.099-.693.068-.564.413-.442.665.137.281.369.568.014.79-.354.223-.91.266-1.056-.136-.348-.962-1.238-.836-1.967-1.029v2.376c.898.517 1.327 1.573.65 2.149-.762.645-.645.918-.028 1.537.41.411.642 1.208-.247 1.519a1.276 1.276 0 0 1-.375.079v.572l2.692 2.624c.165.052.323.121.468.209.538.329.986.717 1.003 1.225l.87.849c.103.029.179.088.2.195l.934.911c.016-.243-.027-.48.008-.721.06-.423.508-.846 1.038-.634.502.2.62.547.184 1.088-.22.268.032.813-.374 1.101l3.253 3.171a.454.454 0 0 1 .165-.018c.284.022.313.254.311.483l6.935 6.762ZM2.156 489.638c-.996-.533-.923-1.308-.783-2.071.096-.561.428-1.097.974-1.254.67-.19 1.274.637 2.04.291.055.201.184.561.156.575-.835.345-.955 1.208-1.503 1.762a8.951 8.951 0 0 1-.884.697Zm1.864 14.465c.493.297 1.475-.371 1.768.579.124.388-1.669 1.877-2.272 1.773-1.007-.172-.018-1.249-.738-1.765-.197-.148.471-.826 1.242-.587Zm2.735-10.158c.057-.429.081-.807.514-.769.5.041 1.046.345 1.04.776 0 .366-.437 1.01-.737 1.036-.82.079-.41-.831-.817-1.043Zm-2.156 6.17c.478.803.082 1.541.481 2.178.305.488-.211.746-.553.78-.48.049-.738-.391-.666-.77.135-.65.421-1.268.738-2.188Zm2.953 6.009c.057.578 1.202.822.577 1.502-.089.094-.485.024-.69-.066-1.08-.485-.007-.962.113-1.436Zm-.283-4.253c-.339-.098-.638-.217-.704-.563-.059-.301.172-.42.42-.422.394 0 .53.283.589.59.043.222.067.472-.305.395Zm-.093-16.436c-.201 0-.321-.102-.28-.271.068-.278.114-.743.272-.782.462-.121.142.2.1.312-.094.244.4.553-.092.741Zm1.39 14.365c-.195-.158-.577-.317-.614-.53-.09-.5.395-.262.651-.32.257-.059.648-.278.676.209.01.333-.325.477-.713.641Zm1.074 1.975c-.487-.172-.37-.564-.37-.898 0-.194.2-.313.287-.195.193.297.364.609.506.931-.14.054-.278.113-.423.162Z" fill="#E30611"/><path fill-rule="evenodd" clip-rule="evenodd" d="M17.707 476.648v-27.45L.02 431.952v14.294c.113 0 .235.008.367.025-.15.054-.27.115-.367.18v12.951l17.687 17.246Zm-8.049-13.831c.271 1.208-.777 1.118-1.407 1.825.008-1.224.64-1.479 1.407-1.825Zm-7.425-1.867c-.46.059-.78.03-.854-.357-.042-.228.11-.507.341-.447.34.09.853.016.943.476.018.098-.33.256-.43.328Z" fill="#312C93"/><path fill-rule="evenodd" clip-rule="evenodd" d="M17.707 431.408v-27.449L.02 386.714v2.91a8.55 8.55 0 0 1 .59-.678c.393.376.516.946 1.01 1.237.08-.228-.04-.621.347-.61.354.01.349.4.258.593-.184.41-.417-.17-.65-.03l-.001.001v.001l.007.119c0 .091-.011.182-.034.272-.142.28-.291.034-.426-.028-.324-.149-.199-.973-.75-.621-.415.264.518.402.386.797a.478.478 0 0 1-.082.1c-.3-.18-.519-.315-.655-.44v7.035c.115-.21.304-.341.558-.286.397.084.943.131 1 .704.068.673 1.151.135 1.098.988a5.034 5.034 0 0 0-2.042 1.035c-.21.171-.417.254-.614.251v11.089a.534.534 0 0 1 .38.254c.155.245.018.409-.324.272l-.056-.021v2.505l3.181 3.103c.03-.207.104-.405.353-.421a.645.645 0 0 1 .063-.004c.253 0 .46.193.46.43 0 .009 0 .018-.002.027-.021.223-.206.338-.41.419l14.042 13.691ZM1.338 405.267c.44.401 1.306.146 1.129 1.063-.048.249.135.386.42.405.287.019.578.017.681.346-1.237.129-1.274.136-1.503-.891-.072-.332-.262-.293-.468-.345-.207-.052-.378-.061-.259-.578Zm2.815-.304c-.258.172-.514.469-.76.461-.34-.014-.444-.432-.513-.709-.051-.211.184-.376.45-.385.456-.016.577.367.823.633ZM.488 393.514c.251-.173-.172-.691.384-.68.413 0 .738.24.728.62-.01.38-.383.423-.721.436-.286.01-.43-.093-.39-.376Zm.898-.781c-.369-.441-.354-.804-.64-1.035-.156-.126-.058-.345.128-.432.262-.11.597.116.533.238-.19.362.26.693-.02 1.229Zm1.056 16.558c-.443.036-.688.116-.891.057-.3-.084-.609-.233-.68-.575-.012-.049.076-.154.141-.172.408-.148.553.109.738.387.071.113.308.14.692.303ZM.89 395.258c-.037-.238.118-.284.232-.345.256-.117.197-.669.69-.436.07.051.115.129.122.212.045.416-.294.487-.61.578-.126.05-.251.129-.434-.009Zm7.643 19.265c.07-.154.15-.304.242-.447.2-.268.493-.32.688-.054.195.265-.113.345-.317.423-.163.068-.312.16-.469.243l-.144-.165Zm-5.826-2.23c.176.262.077.414-.232.374-.146-.01-.257-.122-.257-.258 0-.046.013-.092.039-.132.127-.171.321 0 .484.043l.001.001.46-.842c.058.414.405.931-.5.805l.034.032-.029-.023Zm1.177-3.339a.35.35 0 0 1 .268.375c-.025.195-.184.319-.368.249a.353.353 0 0 1-.181-.303c0-.047.01-.093.03-.137.037-.098.044-.27.251-.184Z" fill="#E30611"/><path fill-rule="evenodd" clip-rule="evenodd" d="M17.707 385.848v-19.184c-.229.063-.438.113-.487-.18-.053-.32.295-.783.469-.69l.018.008v-1.354c-.934.435-1.988.734-2.484 1.808-.053.114-1.637.026-2.158-.7-.418-.585.184-1.312 1.266-1.588.307-.078.687.122.945-.26-1.071-.345-.58-2.028-2.654-1.85 1.505-.487 2.355-.863 3.303-.149.313.227.7.35 1.095.35.202 0 .402-.032.592-.094l.095-.033v-3.534L.02 341.152v1.325c.22.389.419.787.201 1.193a2.84 2.84 0 0 0-.201.48v24.453l17.687 17.245Zm-6.473-7.383c-1.878-2.244-1.878-2.244 1.462-3.719l-1.462 3.719Zm-5.62-20.167c-.721-.533-.655-1.149-.609-1.753.047-.604.408-1.141 1.06-1.036.921.143.492.825.261 1.241-.266.475.013 1.12-.712 1.548Zm6.053 10.491c.48.628 1.377 1.115.738 2-.082.114-.541.15-.666.05-.829-.662-.052-1.356-.072-2.05Zm-9.602-21.114c.248.725-.43.772-.798 1.018-.242.162-.496.068-.653-.152-.314-.438.037-.517.384-.54.388-.024.62-.512 1.067-.326Zm8.866 23.598c-.113.098-.214.26-.297.251-.416-.023-.748-.331-.777-.719-.03-.224.166-.549.395-.401.299.203.461.582.679.869Z" fill="#312C93"/><path fill-rule="evenodd" clip-rule="evenodd" d="M274.881 16.468h13.723c.413-.37 1.009-.61 1.274-1.155-.489-.173-1.554.24-1.121-.843-.256-.022-.515-.057-.782-.087l.711-.927c.072.004.145.02.213.048.963.573 1.094.566 1.58-.409.11-.216.166-.328.399-.413.409-.15.689-.098.615.354-.074.453-.127 1.003-.321 1.38-.252.496-.33.64.294.754a.196.196 0 0 1 .166.189c0 .092-.07.17-.166.188-.356.067-.497.404-.674.477-.311.128-.71.026-.649.444h7.039v22.06l17.795 17.601.021-25.277a.216.216 0 0 1-.097-.134c-.053-.226-.386-.445-.117-.69.084-.077.148-.18.215-.286l.001-.732-5.464-5.38c-.247.17-.475.27-.829-.166-.465-.573-.369.597-.839.395.25-.674.457-1.048.737-1.146L285.543 0h-27.309l16.647 16.468ZM313.828 47.8c.149-.288.31-.47.327-.661.028-.3.103-.55.459-.483.327.061.349.374.325.638-.06.608-.475.657-1.111.506Zm-24.486-31.33h.437c-.154-.242-.297-.153-.437 0Zm12.013 2.39c.496-.6 1.218-.553 1.725-.912.121-.086.389.164.295.32-.325.544.204 1.257-.032 1.528-.42.48-.837-.478-1.423-.362-.2.038-.507.414-.655-.068a.63.63 0 0 1 .089-.507h.001Zm-2.222-2.27c.721.203 1.55.046 1.929.862a.59.59 0 0 1 .086.303.59.59 0 0 1-.296.504c-.39.29-.436-.106-.666-.226-.646-.34-1.099-.666-1.053-1.443Zm5.581 3.965c-.133.085-.24.302-.445.12-.135-.118-.232-.346-.107-.444.153-.13.467-.265.605-.2.262.122.089.35-.053.524ZM285.868 6.412c-.184.064-.283.345-.461.104-.12-.165-.322-.36-.184-.58.166-.276.422-.085.608-.014.371.143.042.33.037.49Zm28.471 22.192c.05.172.406.276.129.517-.162.139-.346.058-.496-.032a.264.264 0 0 1-.152-.235c0-.074.032-.144.09-.194.101-.108.252-.27.429-.056ZM289.068 7.829c-.139-.081-.184-.095-.209-.124-.103-.172-.335-.298-.271-.539.013-.044.156-.11.196-.09.228.116.184.368.273.55a.778.778 0 0 1 .009.203h.002Zm-1.438-1.04c.107.077.282.173.151.275-.131.102-.356 0-.513-.088-.059-.03-.118-.172-.089-.22.165-.234.305.005.451.034Zm16.805 12.4c-.221 0-.4.23-.621.107-.141-.076-.107-.195.031-.283.184-.113.335-.318.57-.102.083.071.228.173.02.278Z" fill="#E30611"/><path fill-rule="evenodd" clip-rule="evenodd" d="M297.291 56.556v27.45l17.687 17.245V75.548c-.118.013-.249.014-.278-.031a4.275 4.275 0 0 1-.544-1.05c-.067-.236.134-.482.568-.703.133.47.072.924.254 1.297V73.8l-2.819-2.748c-.382.065-.735.412-1.209.298-.258-.062-.284-.538-.651-.295-.336.223-.083.58-.185.863a.589.589 0 0 0 0 .264c.112 1.05.112 1.05-1.187 1.072.457-.985.142-1.532-.979-1.619-.332-.025-.553-.102-.625-.401-.072-.3.204-.346.431-.4.27-.074.516-.212.711-.402.553-.506 1.026-.555 1.789-.257.131.052.304.157.38.048a.93.93 0 0 1 .355-.312l-13.698-13.356Zm14.259 17.4c-.131.622-.553 1.037-.856 1.545.89.432.981 1.137 1.022 2.024.03.637-.335.662-.664.827-.141.071-.451-.138-.368-.278.322-.549.068-.749-.445-.981-.291-.132.053-.46.055-.713 0-.732-.166-1.317-1.07-1.38-.324-.023-.424-.173-.429-.389 0-.172.135-.391.332-.36.394.065.625-.546 1.15-.149.216.167.782-.076 1.273-.145Zm-8.274-3.154c.388-.862 1.056-1.154 1.922-1.088.432.032.799.06 1.16-.287.414-.397.965-.048 1.476-.033-.666.188-.992.987-1.922.75-.253-.063-.655.55-1.044.762-.493.278-1.049.492-1.592-.104Zm-.831 12.066c-.626.228-1.033.559-1.961.442.811-.299.787-.763.798-1.32l1.163.878Zm2.381-6.973c-.553-.29-1.057-.424-1.564-.052 1.071-.818 1.071-.818 1.564.052Zm3.163 1.156c.019.083.031.168.033.254-.125.45-.391.752-.939.707-.062 0-.149-.112-.166-.183-.144-.617.635-.345.786-.69.024-.049.166-.05.286-.088Zm-3.515-11.906c-.035.197-.11.397-.314.381-.332-.022-.395-.335-.5-.559-.106-.224.081-.3.284-.285.308.022.514.162.53.463Zm7.693 13.26c.078-.038.165-.12.227-.105.268.062.574-.152.799.074.027.036.042.08.042.124a.21.21 0 0 1-.152.198c-.384.151-.742.174-.916-.29Zm-6.851-7.21c.173-.111.249-.2.328-.201.255 0 .517-.313.764 0a.275.275 0 0 1 .049.354c-.273.464-.563.034-.843.022-.071-.013-.152-.088-.298-.174Zm8.093 5.573c.21-.013.33.043.354.198.045.272-.069.391-.383.376-.184-.01-.406.07-.408-.173-.001-.243.317-.29.437-.401Zm-1.108 3.064a1.305 1.305 0 0 1-.263-.067c-.221-.172-.569-.223-.636-.547 0-.012.073-.055.113-.057.409-.01.668.164.786.671Zm-4.141-7.024c.255-.09.235.096.233.203 0 .235-.093.452-.397.424a.388.388 0 0 1-.278-.25c-.019-.275.348-.203.442-.377Zm-2.545 3.898c0-.237-.172-.54.252-.623.184-.036.397-.055.443.172.079.404-.231.183-.401.214-.125.05-.239.118-.338.204l.044.033Zm-.043-.028c-.054.19-.136.37-.242.54a.326.326 0 0 1-.25.114.327.327 0 0 1-.23-.093c-.247-.271.078-.345.236-.432a1.91 1.91 0 0 1 .526-.092l-.04-.037Zm-1.674 3.94c.121.1.496-.071.453.283-.016.148-.184.133-.321.09-.162-.054-.394-.032-.424-.247-.02-.16.092-.223.292-.126Zm9.852 6.269c.264-.07.529-.137.86-.223-.238.668-.494.71-.83.19l-.002.002h-.141c-.465.016-.863-.066-.87-.606.006-.129.119-.23.257-.23a.25.25 0 0 1 .033.002c.497.084.923.241.692.862l.022-.02-.021.022Z" fill="#312C93"/><path fill-rule="evenodd" clip-rule="evenodd" d="M297.291 101.795v10.037l.085-.028c.172 0 .312.131.312.293a.305.305 0 0 1-.005.052c-.017.252-.053.566-.369.587l-.023.003v11.463a.405.405 0 0 1 .187-.045c.339.012.442.432.51.709.052.209-.184.376-.448.385a.615.615 0 0 1-.249-.039v4.033l1.431 1.395a4.976 4.976 0 0 0 1.511-.875c.445-.362.88-.328 1.233.077.193.248.34.526.431.821.133.361-.208.402-.446.517a.82.82 0 0 0-.479.623c-.035.292-.165.561-.38.662l9.318 9.084c.084-.018.17-.03.244-.034.258-.016.516.172.433.411-.017.051-.089.083-.182.106l1.415 1.38c.415-.295.768-.542.951.041.23.73.88.44 1.016.882-.34.052-.482.223-.569.439l1.76 1.716v-1.649a1.462 1.462 0 0 1-.241.144h.002c-.04-.33.09-.567.239-.652v-18.189c-.175.578-.921.645-1.412 1.195.015-1.216.645-1.479 1.405-1.825l.007.031v-6.504l-13.734-13.392c.014.518-.187.984-.485 1.481l1.33 1.378c-1.124.101-1.58-.173-1.5-1.107l-.129.198c.057-.902-.505-.991-1.234-.927.55-.538.866-1.217 1.666-1.366l-1.656-1.615c-.114.073-.205.197-.257.411-.028.114-.777.201-1.156-.077-.1-.072-.262-.254-.155-.276.529-.11.296-.728.698-.863l.033-.011-1.108-1.08Zm10.985 28.01c-.517-.288-1.34-.223-1.464-.963-.041-.236.41-.69.588-.58.525.345 1.464.228 1.562 1.036.037.295-.346.452-.686.507Zm-3.159-.925c-.738-.794-.41-1.475-.496-2.087-.039-.271-.093-.617.317-.741.369-.113.603.156.843.33.28.204.382.518.061.75-.528.389-.743.913-.725 1.748Zm-2.182 3.943c-.103-1.075-1.475-.557-1.166-1.617.101-.345.397-.457.75-.345.855.289.663.891.416 1.962Zm7.798 1.671c-.922.435-1.437.212-2.106-.271.789-.187 1.343-.19 2.106.271Zm-.474 5.652c.207-1.035.393-1.553 1.157-1.725.398.846-.187 1.161-1.157 1.725Zm-2.702-16.505c-.459.059-.78.03-.854-.357-.042-.23.11-.507.342-.447.339.09.85.016.942.476.018.104-.33.263-.43.328Zm.221-9.047c.319.095.711.156.474.64-.085.173-.16.321.031.452.257.173.443.325.104.601-.259.209-.47.157-.766.059-.485-.159-.69-.76-1.315-.691-.122.014-.245-.197-.184-.301.137-.22.303-.528.513-.575.357-.074.752.022 1.143-.185Zm-8.247 9.713c-.439-.401-1.305-.146-1.129-1.063.048-.249-.135-.386-.421-.405-.286-.019-.577-.017-.68-.346 1.237-.129 1.274-.136 1.503.891.073.332.263.294.47.336.206.043.378.071.257.587Zm9.575-10.471c-.704.749-1.211.536-1.877.32.562-.554 1.125-.119 1.877-.32Zm-10.677 6.454c.441-.036.688-.116.891-.059.301.087.607.235.681.577.009.049-.077.153-.142.172-.41.148-.553-.109-.738-.387-.074-.113-.308-.14-.692-.303Zm3.288-2.096a3.269 3.269 0 0 0-.39.136c-.339.173-.682.133-.865-.157-.155-.245-.018-.409.325-.272.121.048.293.107.387.062.208-.097.339-.077.543.231Zm1.284 3.482c-.415.143-.597 0-.738-.173-.121-.138-.204-.345-.033-.464.171-.119.351 0 .465.154.114.154.188.3.306.483Zm9.475 19.713a.347.347 0 0 1 .347-.268h.02c.201.014.383.143.276.33a.702.702 0 0 1-.463.236c-.136.025-.203-.12-.18-.298Zm2.289-.136c.053.083.103.128.094.148-.126.261-.148.604-.553.656-.052 0-.174-.1-.17-.148-.002-.007-.002-.014-.002-.02 0-.334.274-.611.629-.637l.002.001Zm-11.758-23.749c.01-.194.117-.345.321-.314.205.031.284.186.301.369.016.182-.113.224-.251.224-.192.002-.353-.065-.371-.279Zm3.989-.979c.14-.012.184-.031.223-.015.196.09.438.129.529.345.019.041-.112.183-.117.181a8.09 8.09 0 0 1-.578-.319c-.035-.019-.025-.081-.057-.192Zm-8.831.763c-.173-.262-.075-.414.232-.375.145.01.257.123.257.259 0 .045-.013.09-.037.13-.127.171-.323.001-.485-.043l-.003-.002-.469.835c-.057-.414-.401-.931.502-.805l-.018-.016.021.017Zm.738-12.431a.294.294 0 0 1-.344.108.474.474 0 0 1-.394-.305c-.048-.164.121-.183.241-.172a.584.584 0 0 1 .496.369h.001Z" fill="#E30611"/><path fill-rule="evenodd" clip-rule="evenodd" d="M297.291 146.853v27.45l.788.768c.021-.337.052-.668.059-.994.01-.471.454-.423.887-.478 1.168-.15 1.92.654 2.89.934v-.009c-.042-.704.29-1.419-.995-1.705-.981-.221-.81-.842.168-1.393.867-.488 2.357-.845 1.009-2.284-.229-.245-.272-.839.369-.835.752 0 1.214-.045 1.15-.951-.024-.321.338-.274.612.072.535.678.901 1.631 2.293 1.369-.622.535-1.028.911-1.475 1.253-.327.255-.578.388-.943-.104-.48-.649-.843-.198-.885.324-.06.844-.003 1.688.003 2.53.681.172.964 1.391 2.029.628.402-.292.956-.599.729-1.036-.3-.584-.801-.254-1.181.091-.149.138-.327.439-.536.121a1.791 1.791 0 0 1-.286-.873c-.021-.367.251-.562.643-.458.694.183 1.107.374 1.218-.702.09-.905 1.681-1.177 2.657-.581.805.492 1.406 1.114.676 2.071-.284.376-.509.82-.873 1.111-.493.395-.728 1.089-1.429 1.222-1.143.216.351 1.163-.369 1.278-1.063.173-.707-.771-.897-1.275-1.138.439-1.726-.404-2.457-.92l.076-.677-.089.679c.077.841-.904.601-1.217 1.036v.009c-.834.583-1.709 1.123-2.449 1.899l2.582 2.518.033-.007c.305-.017.553.071.541.326a.812.812 0 0 1-.036.206l3.711 3.617c.551-.055.922.28 1.321.308.109.442-.083.588-.317.621l-.046.006.488.476c.156-.075.326-.123.503-.14.251-.01.31.314.144.492-.044.047-.086.1-.13.152l6.718 6.55v-27.081l-.015.005c-.419-.141-.39-.454-.374-.753l-2.521-2.458c-.158.41-.695.177-.839-.133-.425-.924-.98-.863-1.717-.443l-.005-.004c.346.611.52 1.208-.459 1.391-.469.09-.952.106-1.369.424.393-.87.77-1.687 1.902-1.751l.003.003c.134-.875-.037-1.629-.788-2.11-.695.067-.564.412-.442.666.135.281.369.568.015.79-.355.223-.912.266-1.057-.138-.382-1.055-1.419-.799-2.179-1.095l-.001-.001-.004-.005c.247.792-.406 1.462-.342 2.222l.005-.004h-.001l.067-.064c.23 1.039 1.145 2.253-.81 2.723l.07-.071a2.127 2.127 0 0 0-.226-.096c-.497-.145-1.239.016-1.167-.836.024-.271.184-.459.434-.461.909-.011 1.077.517.946 1.231-.015.077-.035.15-.055.228l.068-.066c.092.647-.046 1.283.225 1.955.271.671.583 1.171 1.377.89.888-.31.658-1.108.248-1.518-.618-.62-.734-.892.025-1.538.803-.68.055-2.035-1.187-2.373-.891 1.142-1.438-.412-2.181-.318l.096.067-.502-1.932.002-.002h-.003l-.001-.006-.005.006h-2.14c.885.809 1.475 1.761 2.652 1.94l-.096-.068c-.037.28 0 .847-.322.699-.633-.298-1.312-.135-1.913-.373-.789-.31-1.346-.388-.935.691.168.44.111.761-.47.795-.487.028-.793-.202-.836-.654a17.943 17.943 0 0 1-.068-1.625v-7.765c1.094-.065 1.464 1.198 2.473.813.293-.112.723.288.535.565-.885 1.316.21 1.585 1.095 2.046.245.128.291.556.738.572-.086-.727.64-1.156.76-1.819l-.055.043c1.061-.116 1.852.393 2.657.871l-8.995-8.77Zm10.31 29.752c1.107-.25 1.781-.882 2.234-1.797.239.263.386.439.553.599.404.395.801.773.703 1.403-.184 1.18-.466-.44-.869.034-.319.376-.57.991-1.232 1.036-.88.072-.893-.693-1.389-1.275Zm1.741-9.803c.493.297 1.475-.373 1.771.578.121.387-1.671 1.876-2.272 1.772-1.009-.172-.021-1.247-.738-1.763-.2-.149.47-.827 1.239-.587Zm-7.165-7.863c1.006.872 2.024.203 3.033.006h.001l.004.005c-.239-.905-1.158-1.853-1.763-1.606-1.096.449-1.974.195-2.968-.204.184 1.131 1.036 1.369 1.691 1.8l.002-.001Zm9.211 15.262c.175.014-.271-.188-.076-.459.325-.452.146-.863.205-1.285.059-.423.511-.846 1.038-.634.528.213.622.546.184 1.088-.313.377.338 1.324-1.351 1.29Zm-8.059 4.012c.166-.107.395-.188.515-.345.393-.518.804-1.036 1.558-.663.504.252.395 1.448-.132 1.869-.806.642-1.107-.219-1.581-.507a2.241 2.241 0 0 1-.361-.354h.001Zm.356-23.511c-.722-.12-1.333.29-2.255.48.339-.987.393-1.931 1.754-1.769 1.092.132.592.799.446 1.332l.055-.043Zm6.238 8.11c.476.802.081 1.541.48 2.178.306.488-.211.743-.554.779-.479.05-.737-.391-.663-.769.134-.65.415-1.273.737-2.188Zm-10.11 2.816c.144.19.308.306.303.41-.041.644.282 1.432-.695 1.736-.113.035-.386-.065-.402-.138-.177-.812-.32-1.632.794-2.008Zm.791-.633-1.66-1.619c1.686-.614 1.175 1.105 2.097 1.18l-.437.439Zm12.272 3.827c.058.578 1.202.821.577 1.499-.088.097-.485.026-.69-.065-1.082-.478-.007-.959.113-1.434Zm-11.193-6.476c-.105.295-.272.59-.631.611-.463.026-.747-.281-.815-.672-.054-.317.106-.583.553-.55.446.034.784.157.893.611Zm8.751 10.787a4.35 4.35 0 0 1-.606-.676c-.139-.242.051-.416.321-.418.269-.001.486.074.418.401-.044.222-.085.444-.133.693Zm2.158-8.565c-.339-.1-.636-.217-.705-.564-.057-.3.173-.419.422-.423.391 0 .529.285.588.59.043.223.067.476-.305.397Z" fill="#312C93"/><path fill-rule="evenodd" clip-rule="evenodd" d="M297.291 192.091v27.45l16.517 16.105c.369-.32.816-.625 1.17-.767v-1.515c-.304-.369-.387-.814 0-1.377v-3.718a3.683 3.683 0 0 0-.586.876c-.239-.261-.386-.439-.553-.599-.404-.394-.8-.773-.703-1.403.184-1.18.467.44.869-.034.272-.323.496-.821.973-.985v-16.787l-17.687-17.246Zm15.548 37.673c-.175-.013.272.188.076.461-.325.45-.146.863-.205 1.284-.059.42-.511.847-1.04.635-.5-.202-.62-.547-.184-1.088.315-.39-.336-1.337 1.353-1.292Zm-4.139-4.314c.305.138.295.452.305.726.014.346-.244.651-.554.627-.382-.029-.302-.439-.307-.713-.019-.338.127-.593.556-.64Zm5.091 5.372c.223.202.427.426.603.667.138.243-.053.416-.323.417-.269.002-.487-.074-.418-.398.051-.213.09-.438.138-.686Z" fill="#E30611"/><path fill-rule="evenodd" clip-rule="evenodd" d="M297.291 236.057v27.449l17.687 17.245v-10.912c-.498.044-.942-.047-1.486-.376.623-.294 1.061-.288 1.486-.104v-14.791a.94.94 0 0 0-.463.082c-.055-.198-.184-.559-.155-.572.267-.11.46-.274.618-.463v-.313l-17.687-17.245Zm16.063 24.063c-.767-.069-1.585 1.38-1.898.378-.231-.728-.88-.44-1.016-.882.784-.12.514-.871.953-1.363.494.759.961 1.536 1.961 1.867Zm-14.464-13.386c-.169.255-.322.562-.714.362-.321-.162-.901-.172-.881-.547.055-.336.365-.583.728-.583.051 0 .102.004.152.015.399.06.698.375.714.753h.001Zm-.232 4.168c-.07.249-.035.606-.5.571-.325-.023-.664-.115-.666-.484 0-.321.272-.518.59-.589.401-.086.554.142.576.502Zm15.308 12.906c-.205 1.036-.391 1.553-1.155 1.725-.393-.845.187-1.161 1.155-1.725Zm-2.239-7.988c.203 0 .321.102.28.271-.068.276-.114.742-.273.782-.461.12-.142-.2-.099-.313.094-.239-.401-.548.092-.74Zm2.52 6.023c.235.091.639-.009.455.355-.073.143-.407.221-.629.235-.258.014-.516-.172-.435-.41.042-.12.422-.132.609-.18Z" fill="#312C93"/><path fill-rule="evenodd" clip-rule="evenodd" d="M297.291 281.295v27.45l17.687 17.245v-27.449l-17.687-17.246Z" fill="#E30611"/><path fill-rule="evenodd" clip-rule="evenodd" d="M297.291 326.353v27.449l17.687 17.246v-27.449l-17.687-17.246ZM13.86.114H43.2l11.398 10.233c-.425.108-.588.437-.573.846.01.32-.033.54-.402.54-.214 0-.553-.056-.553-.287-.011-1.041-1.42-.787-1.671-1.617-.067-.223-.371-.135-.6-.038-.44.183-.735.512-1.048.828l.016.02c-.082.758-.998-.35-1.032.394-.033.744-.532 1.31-.883 2 1.44-.204 1.616-.445 1.877-2.429l-.013-.016.015.009v-.002l.006.006c.13.086.27.158.414.218.942.284 1.583.904 1.407 1.492-.224.767-.901.446-1.436.435a.727.727 0 0 0-.171 0c-.395.071-.714.326-.569.658.146.332.585 1.023.791.794.674-.748 1.115-.168 1.581.084.395.211.668.066.922-.12.254-.187.354-.078.474.172.207.424.696.354 1.083.502.04-.85-1.35-1.044-.996-2.003.534-.015.87.348 1.3.431.497.097 1.033.249 1.498-.112.185-.14.168-.636.554-.371.297.202.633.545.184.94l-.026-.008c.294-.021.885.219.725-.288-.064-.205-.093-.433-.174-.654l4.336 3.892h-29.34L13.86.114ZM48.512 5.25c-.12.69-.905.654-.966 1.269-.24-.887-.24-.887.966-1.269ZM38.148 7.737c.61.274.966.649 1.248 1.432-.728-.414-1.335-.576-1.248-1.432Zm19.909 7.548c.096-.213.24-.385.483-.365.21.015.373.177.373.374 0 .016 0 .032-.003.048a.43.43 0 0 1-.475.344c-.258-.013-.363-.182-.378-.401Zm-7.77-6c-.778.172-1.278.286-1.844.41.485-.559.485-.559 1.844-.41Zm-.992-2.147c-.224-.042-.441-.134-.449-.364 0-.164.185-.202.351-.172.184.035.486-.026.446.291-.02.157-.173.233-.348.245Zm7.47 6.583c.073.316.674.528.213.937-.046.042-.214.016-.291-.029-.592-.345.232-.587.085-.906l-.006-.002Z" fill="#312C93"/><path fill-rule="evenodd" clip-rule="evenodd" d="M62.213.114h2.423a.514.514 0 0 0 .107.132c.419.378.043.984.63 1.302.61-.398.557-.93.364-1.434h.597c.152.145.275.348.521.417.15-.15.254-.288.323-.417h18.26c.218.48.866.902 1.485.843.27-.032.945.128.721-.517-.035-.1-.058-.21-.078-.326h3.987l1.657 1.488c-.246 0-.46.054-.5.351-.042.318.236.455.476.604.24.15.567.343.738.043.048-.082.1-.154.155-.218l4.642 4.167a.508.508 0 0 0-.265.004c-.303.08-.63.247-.683.642-.051.368.073.765.414.765.689.008.658.668.988.826 1.084-.677.242-1.19.043-1.727a.944.944 0 0 0-.046-.104l6.977 6.263-.032.046a.452.452 0 0 0 .449.343h.015l3.07 2.756c-.374.052-.733.189-1.096.3H87.612c-.577-.708-1.002-1.495-1.847-1.33-.688.132-1.218-.158-1.83-.139-.612.02-.933.19-.68.652.157.288.302.583.51.817h-3.118l-.096-.087.002-.034c.018-.249-.238-.363-.448-.399l-.044-.006-5.798-5.205.047.007c.618.081.988.666 1.748.494.856-.19.824-.56.653-1.208-.553.191-.855.844-1.476.581-.08-.248-.025-.363.136-.472.243-.159.726-.083.612-.6-.049-.385-.355-.698-.76-.778-.504-.122-2.029.421-2.06.837a1.038 1.038 0 0 0-.001.15L62.212.115Zm26 11.521c-.026.154-.023.43-.08.44-1.136.223-.821 1.187-1.064 1.847-.481-.043-.332-.346-.37-.596-.055-.438.205-1.018-.593-1.163-.116-.02-.228-.37-.232-.569 0-.553.643-.568.874-.862.184-.246-.386-.796.145-1.148a.564.564 0 0 1 .301-.12c.194.01.238.13.267.32.168 1.104.184 1.114.738 1.86l.013-.009Zm14.693.347c-.57-.013-1.062-.24-1.564-.466a2.709 2.709 0 0 0-.985-.247c-1.107-.041-1.107-.023-1.156-1.171 1.502.18 3.32-.218 3.689 1.886l.016-.002Zm-.011.002c.452.583 1.415.452 1.845 1.208l-1.55 1.365c-.124-.977-.904-1.67-.28-2.571l-.015-.002ZM80.78 11.78c1.081-.16 2.27.38 3.268-.447.073-.06.474.226.824.4-.354.313-.615.622-.951.82-.519.31-1.209.43-1.555-.084-.417-.62-.933-.702-1.582-.676l-.002-.007.001.008c-.369.258-.572.89-1.214.478-.315-.203-.71-.432-.216-.863.135-.116.089-.29-.15-.272-.282.02-.676.358-.685-.263-.01-.581.465-.833.885-1.083.206-.121.54.122.496.277-.236.83.738 1.075.88 1.705l.001.007Zm7.432-.14c.196-.085.518-.132.566-.262.308-.863.773-.416 1.225-.173l.055-.051c-.521.157-.162.507-.184.77-.021.261.26.48-.07.835-.544-.346-.953-.901-1.59-1.132l-.002.013Zm1.791-.426c.738-.198 1.291.026 1.673.665.184.302.235.723.738.766l.021-.004c.685.118.632-.614 1.045-.865.35-.209.623-.454.986-.274.454.224.766.583.314 1.09-.719-.607-.922-.027-1.145.468.31-.362.732-.478 1.197-.507a.385.385 0 0 0 .122.433c.183.172.32.231.48-.064.257-.476.609-.366 1.005-.031-.368.436-.887.606-1.395.783-.45.158-.76.832-1.3.518-.595-.345-1.262-.746-1.27-1.553h-.023l.026-.004c-1.09-.078-1.979-.45-2.414-1.474l-.06.053ZM80.385 1.47c-.01-.298.089-.532.448-.571.46-.05.89.102.888.543a1.482 1.482 0 0 1-.474 1.02c-.19.155-.814-.545-.862-.992Zm16.027 8.676c.153-.475.498-.298.83-.287.435.016.614.172.58.573-.032.4-.31.561-.69.464-.382-.096-.705-.33-.72-.75Zm-16.838 5.061c.418-.374.922-.671 1.377-.547.456.125.069.779.528 1.24-.84-.04-1.343-.4-1.905-.693ZM88.25 4.995c.347-.06.578-.16.784-.126.553.095.37-1.208 1.033-.549.276.271-.279.879-.553 1.222-.45.58-.668-.282-1.063-.306-.027-.003-.057-.074-.2-.241Zm18.419 11.314c.17-.626.349-1.035.946-.898.169.036.432.345.397.414-.249.435-.738.371-1.343.484Zm-8.133-3.328c.059-.172.153-.345.343-.293.302.084.72.094.71.54 0 .172-.11.312-.321.28a.871.871 0 0 1-.733-.527Z" fill="#E30611"/><path fill-rule="evenodd" clip-rule="evenodd" d="M119.14.114h20.57l2.385 2.142-.022.04c-.057.095.18.264.397.296l15.672 14.07h-9.028c.199-.118.355-.213.527-.307.247-.136.573-.293.369-.577-.185-.257-.495-.149-.738.06-.219.187-.479.352-.471.825h-1.805c-.117-.141-.26-.27-.483-.237-.179.024-.199.145-.037.212a.168.168 0 0 1 .04.025h-17.712l-1.597-1.434c.268-.08.572-.04.877-.012.251.024.444.345.778.23.587-.038 1.189-.05 1.25-.81.059-.688-.59-.543-.959-.702-.247-.11-.563-.075-.847-.11-.8-.093-1.696-.023-2.379-.345-.217-.103-.43-.061-.641.024l-3.96-3.556c.361-.222.695-.488.93-.796.484-.627-.938-.187-.719-.94.238-.822-.773-.834-1.142-.846-.847-.03-1.42-.477-2.342-.994a1.396 1.396 0 0 1-.149.505l-4.376-3.929c.257-.057.512-.188.736-.309a9.574 9.574 0 0 0 2.279-1.623c.483-.491.774-.491 1.012.026.432.925.832.35 1.291.062.37-.231.274-.552.291-.871l.003-.119Zm21.414 3.73c-.249.69-1.475.371-1.35 1.695-.356-.961-.624-1.503-.107-2.109.164-.2.253-.446.253-.7 0-.128-.023-.257-.069-.378-.125-.316-.229-.69.168-.85.143-.063.298-.094.456-.094.31 0 .606.122.816.336.607.662.648 1.713 1.689 2.134.083.033.018 1.046-.511 1.38-.425.27-.957-.119-1.158-.807-.055-.198.091-.441-.187-.607ZM121.93 5.527c-.522.322-.69-.247-1.056-.1-.201.08-.494.462-.632-.014-.074-.257.135-.517.439-.624.247-.094.492-.346.714.058.159.238.338.467.535.68Zm14.676 4.487c-.389.462-.839.42-1.278.389-.438-.032-.831-.261-.758-.677.105-.586.601-.313.905-.172.35.176.82-.002 1.131.46ZM124.061.91c-.455.314.184 1.269-.608 1.222-.618-.036.406-.837-.262-1.208-.196-.107.116-.563.369-.58.252-.018.487.246.501.566Zm.919 8.62c.639-.19 1.107-.345 1.361.198.096.198.04.507-.205.536-.47.058-.712-.34-1.156-.734Zm19.28-3.38c.457-.31.814-.88 1.459-.476a.414.414 0 0 1 .037.425c-.483.534-.989.03-1.496.05Zm-15.404 6.13c.529-.158.564.275.738.518a.27.27 0 0 1 .058.165.28.28 0 0 1-.168.251c-.319.2-.382-.022-.393-.243-.008-.257-.369-.406-.235-.69Zm-3.224-9.362c-.313.232-.494-.095-.738-.158-.3-.076-.508-.27-.224-.549.184-.172.4-.076.553.097.153.173.456.304.409.61Zm.357 3.621c.013-.267.013-.507.308-.538.164-.02.369.032.389.241.024.292-.059.563-.42.59-.091.007-.202-.208-.277-.293Zm20.09.08c.072.072.184.138.184.19-.016.265-.242.478-.525.495-.163.02-.399-.106-.292-.252.139-.19.417-.294.633-.433Zm-13.995 8.05c-.113-.232.092-.292.236-.304.143-.013.396.033.442.122.091.173-.137.258-.273.335-.184.107-.296-.041-.405-.153Z" fill="#312C93"/><path fill-rule="evenodd" clip-rule="evenodd" d="M159.505.114h2.876c-.077.152-.02.339.127.471.421.378.044.986.631 1.302.649-.425.546-1 .322-1.532.669-.266.678.373 1.159.509.287-.287.408-.531.425-.75h1.921c.14.049.294.07.465.058a.21.21 0 0 0 .126-.058h15.575l-.002.03c.02.587.811 1.217 1.561 1.137.267-.026.942.134.719-.509-.068-.193-.091-.433-.138-.658h3.574l2.032 1.824c-.203.016-.366.09-.401.348-.044.319.238.457.476.606.238.148.565.343.738.041.035-.06.072-.115.111-.165l4.565 4.099a.536.536 0 0 0-.146.019c-.303.083-.627.247-.683.642-.051.368.072.765.414.765.689.01.658.667.988.826 1.046-.657.287-1.161.062-1.682l6.874 6.171a.445.445 0 0 0 .362.326l3.04 2.729h-22.159c-.46-.596-.874-1.137-1.589-1.001-.686.13-1.217-.16-1.829-.142-.612.02-.933.19-.681.652.09.165.177.334.274.49h-3.042c-.086-.104-.244-.16-.382-.184a.427.427 0 0 0-.144-.006l-5.84-5.242c.063.015.127.027.192.035.617.083.988.666 1.747.494.857-.19.824-.559.653-1.208-.553.193-.858.844-1.476.582-.08-.241-.027-.36.134-.472.243-.158.727-.084.612-.601-.048-.385-.353-.698-.757-.777-.504-.123-2.031.422-2.062.838a1.1 1.1 0 0 0 .012.26L159.505.115Zm26.473 11.854c-.024.154-.022.43-.08.442-1.134.22-.818 1.187-1.064 1.845-.481-.043-.33-.346-.369-.594-.057-.439.203-1.02-.593-1.163-.118-.023-.231-.371-.235-.571 0-.553.644-.568.874-.863.184-.245-.386-.794.146-1.148a.556.556 0 0 1 .299-.119c.184.01.238.132.267.32.168 1.104.184 1.116.738 1.86l.017-.009Zm14.693.349c-.57-.013-1.062-.242-1.564-.468a2.707 2.707 0 0 0-.984-.247c-1.107-.041-1.107-.022-1.159-1.171 1.505.18 3.32-.218 3.689 1.887l.018-.001Zm-.009.001c.449.582 1.414.45 1.844 1.208-.446.391-.909.8-1.55 1.367-.125-.979-.905-1.67-.282-2.574l-.012-.001Zm-22.117-.204c1.083-.162 2.271.378 3.27-.446.072-.06.472.224.822.4-.354.313-.615.62-.949.82-.521.309-1.21.428-1.555-.087-.417-.62-.935-.702-1.584-.674-.369.26-.572.892-1.214.48-.314-.204-.711-.433-.216-.863.134-.114.088-.288-.148-.271-.284.02-.679.357-.688-.262 0-.584.465-.836.885-1.084.207-.123.541.122.498.276-.236.83.738 1.075.878 1.706l.001.005Zm7.433-.14c.195-.085.52-.13.566-.261.308-.863.773-.418 1.225-.173l.055-.051c-.52.157-.162.517-.184.77-.022.251.26.48-.069.835-.544-.346-.955-.9-1.591-1.132l-.002.011Zm1.79-.427c.749-.198 1.291.026 1.673.665.184.301.234.723.738.768l.024-.006c.691.123.637-.612 1.05-.864.351-.21.624-.454.987-.275.453.226.766.585.315 1.091-.721-.607-.922-.028-1.147.468.298-.363.724-.479 1.189-.508a.335.335 0 0 0-.026.132.39.39 0 0 0 .146.3c.184.173.322.234.481-.061.258-.478.608-.368 1.007-.033-.369.437-.889.606-1.396.784-.452.157-.762.833-1.291.518-.596-.346-1.263-.746-1.271-1.554h-.034l.027-.002c-1.088-.078-1.979-.45-2.414-1.476l-.058.053Zm-9.618-9.746c0-.3.09-.532.45-.571.457-.052.889.1.885.543a1.483 1.483 0 0 1-.475 1.019c-.187.16-.812-.54-.86-.991Zm16.029 8.68c.151-.477.498-.301.828-.289.435.017.616.172.581.575-.035.402-.31.561-.692.462-.381-.098-.702-.33-.717-.749Zm-16.841 5.059c.419-.374.922-.67 1.378-.547.456.123.068.78.529 1.24-.84-.041-1.344-.4-1.907-.693Zm8.68-10.21c.345-.062.577-.162.782-.128.553.095.369-1.208 1.033-.549.278.271-.277.88-.553 1.222-.45.58-.668-.28-1.063-.306-.025-.001-.057-.072-.199-.24Zm18.416 11.312c.168-.628.346-1.035.946-.9.166.036.429.344.394.415-.245.438-.733.373-1.34.485Zm-8.13-3.328c.057-.172.151-.345.341-.293.303.086.721.094.71.542 0 .172-.107.31-.318.277a.864.864 0 0 1-.735-.527l.002.001Z" fill="#E30611"/><path fill-rule="evenodd" clip-rule="evenodd" d="M216.884.114h20.119l2.828 2.539c-.008.072.111.17.255.228l15.35 13.782h-7.989c.241-.13.521-.287.328-.556-.185-.256-.495-.146-.738.062-.157.135-.336.258-.42.494h-20.52l-1.2-1.077c.287-.115.619-.069.953-.037.25.022.444.343.778.23.586-.037 1.189-.048 1.248-.813.059-.688-.59-.543-.959-.702-.247-.11-.562-.074-.845-.11-.802-.1-1.698-.032-2.381-.354-.243-.115-.483-.047-.718.058l-3.943-3.54c.385-.23.743-.508.991-.833.485-.626-.939-.184-.719-.94.238-.82-.771-.833-1.14-.846-.848-.027-1.42-.476-2.342-.994-.025.227-.091.41-.184.566l-4.426-3.974c.285-.044.57-.192.817-.325a9.595 9.595 0 0 0 2.282-1.623c.481-.492.773-.492 1.012.026.432.926.832.35 1.291.064.371-.233.274-.553.291-.873a2.51 2.51 0 0 0-.019-.452Zm21.435 4.063c-.249.69-1.475.371-1.35 1.696-.354-.962-.621-1.504-.107-2.11.163-.2.252-.446.252-.7 0-.128-.023-.257-.069-.378-.124-.314-.229-.682.168-.85a1.167 1.167 0 0 1 1.273.242c.607.662.647 1.715 1.689 2.134.085.035.018 1.046-.511 1.38-.426.268-.956-.12-1.156-.807-.054-.196.084-.441-.189-.607ZM219.695 5.86c-.52.322-.69-.247-1.053-.1-.203.083-.496.464-.633-.014-.075-.255.133-.518.438-.624.247-.094.493-.346.714.06.156.237.337.465.532.678h.002Zm14.677 4.487c-.387.461-.837.42-1.278.39-.44-.029-.831-.26-.758-.675.105-.587.601-.316.905-.173.349.174.819-.004 1.131.459Zm-12.543-9.102c-.456.313.184 1.269-.611 1.22-.618-.036.406-.835-.262-1.208-.193-.106.117-.564.369-.58.253-.015.483.245.504.568Zm.917 8.62c.639-.192 1.107-.345 1.361.198.096.198.04.506-.205.535-.476.057-.712-.338-1.156-.733Zm19.28-3.391c.457-.307.814-.88 1.461-.475a.433.433 0 0 1 .076.243.409.409 0 0 1-.043.184c-.481.54-.987.048-1.494.048Zm-15.404 6.14c.53-.158.564.275.738.517a.277.277 0 0 1 .056.165.281.281 0 0 1-.166.253c-.321.2-.384-.024-.395-.245-.006-.256-.367-.405-.233-.69ZM223.4 3.252c-.314.231-.496-.097-.738-.157-.301-.078-.507-.273-.225-.55.184-.173.402-.077.553.097.152.175.454.303.41.61Zm.354 3.62c.013-.267.013-.507.308-.538.165-.017.369.032.39.241.024.292-.059.563-.421.59-.09 0-.194-.208-.277-.293Zm20.09.081c.072.071.184.136.184.19a.551.551 0 0 1-.526.496c-.164.019-.4-.106-.291-.254.141-.19.418-.294.633-.432Zm-13.994 8.048c-.113-.231.094-.291.236-.301.142-.01.397.031.442.12.091.173-.136.258-.271.335-.195.12-.298-.04-.407-.154ZM17.707 290.62v-27.45L.019 245.924v14.294c.114 0 .235.008.368.025-.15.054-.27.115-.368.18v12.951l17.688 17.246Zm-8.05-13.831c.272 1.208-.776 1.118-1.407 1.824.008-1.223.64-1.478 1.408-1.824Zm-7.425-1.867c-.459.059-.78.03-.853-.357-.042-.228.109-.507.341-.447.34.09.852.016.943.476.018.097-.33.256-.43.328Z" fill="#312C93"/><path fill-rule="evenodd" clip-rule="evenodd" d="M17.707 245.38v-27.449L.019 200.685v2.91a8.57 8.57 0 0 1 .59-.677c.393.376.517.945 1.011 1.237.08-.228-.04-.621.347-.611.354.01.348.401.258.594-.184.41-.418-.171-.65-.03l-.001.001.007.119c0 .092-.012.183-.034.272-.142.28-.291.035-.426-.028-.324-.148-.2-.973-.75-.621-.415.264.518.402.386.798a.505.505 0 0 1-.083.1c-.3-.181-.518-.316-.655-.441v7.035c.116-.21.304-.34.56-.286.396.085.942.132 1 .704.067.673 1.15.135 1.097.989a5.021 5.021 0 0 0-2.042 1.035c-.21.171-.417.253-.615.25v11.09a.532.532 0 0 1 .38.254c.156.245.02.409-.324.272l-.056-.022v2.506l3.182 3.102c.03-.206.104-.404.352-.421a.67.67 0 0 1 .064-.003c.253 0 .459.192.459.429v.027c-.023.223-.207.338-.412.419l14.043 13.692ZM1.338 219.238c.439.402 1.306.147 1.129 1.063-.048.25.134.387.42.406.286.019.578.017.68.345-1.236.129-1.273.136-1.502-.891-.072-.331-.262-.293-.469-.345-.206-.051-.377-.06-.258-.578Zm2.815-.304c-.258.173-.515.47-.76.461-.341-.013-.444-.431-.513-.709-.052-.21.184-.376.45-.385.455-.015.577.367.823.633ZM.488 207.485c.251-.172-.172-.69.383-.679.414 0 .738.239.729.619-.01.38-.384.423-.721.437-.286.01-.43-.094-.391-.377Zm.898-.78c-.369-.442-.354-.804-.64-1.036-.156-.126-.059-.345.128-.431.262-.111.597.115.532.238-.19.361.26.692-.02 1.229Zm1.055 16.557c-.442.036-.687.116-.89.057-.301-.084-.609-.232-.681-.574-.01-.05.077-.154.142-.172.408-.149.553.108.738.386.071.113.308.141.691.303ZM.89 209.23c-.037-.239.118-.285.232-.346.256-.117.197-.669.69-.436.07.052.115.129.122.212.044.416-.295.487-.61.579-.126.049-.252.129-.434-.009Zm7.643 19.264c.07-.154.15-.304.242-.447.2-.268.493-.319.688-.054.195.266-.113.345-.318.423-.162.069-.311.161-.468.243l-.144-.165Zm-5.826-2.23c.175.262.077.414-.232.375a.266.266 0 0 1-.257-.258c0-.047.013-.092.038-.132.128-.172.322-.001.485.043l.462-.842c.057.414.403.931-.502.806l.035.032-.03-.024Zm1.177-3.339a.351.351 0 0 1 .268.375c-.025.195-.184.32-.369.249a.351.351 0 0 1-.18-.302.34.34 0 0 1 .029-.137c.038-.098.045-.271.252-.185Z" fill="#E30611"/><path fill-rule="evenodd" clip-rule="evenodd" d="M17.707 199.82v-19.184c-.229.063-.438.113-.487-.18-.053-.32.295-.783.469-.69l.018.008v-1.354c-.934.435-1.989.734-2.484 1.808-.053.114-1.638.026-2.158-.7-.418-.585.184-1.312 1.266-1.588.307-.078.687.122.945-.26-1.071-.346-.58-2.028-2.654-1.85 1.505-.487 2.355-.863 3.303-.149a1.886 1.886 0 0 0 1.687.255l.095-.032v-3.534L.019 155.124v1.325c.22.389.42.787.202 1.193a2.83 2.83 0 0 0-.202.479v24.454l17.688 17.245Zm-6.474-7.383c-1.877-2.244-1.877-2.244 1.463-3.719l-1.463 3.719Zm-5.62-20.167c-.72-.533-.654-1.15-.608-1.753.047-.604.408-1.141 1.06-1.036.921.143.492.824.261 1.24-.266.476.012 1.121-.712 1.549Zm6.053 10.491c.481.628 1.378 1.115.738 2-.081.114-.54.15-.666.05-.828-.662-.051-1.356-.072-2.05Zm-9.601-21.114c.247.725-.43.772-.798 1.018-.242.162-.497.067-.653-.152-.314-.438.037-.517.383-.54.389-.024.621-.512 1.068-.326Zm8.866 23.597c-.113.098-.214.261-.297.252-.416-.023-.748-.331-.777-.719-.03-.224.166-.549.395-.401.299.202.461.582.679.868Z" fill="#312C93"/><path fill-rule="evenodd" clip-rule="evenodd" d="M17.707 154.581V142.5a13.1 13.1 0 0 1-.544-.851c-.468-.761-1.035-1.763.291-2.476.092-.049.18-.105.253-.166v-.587a1.322 1.322 0 0 0-.155-.131.605.605 0 0 1-.28-.504c0-.263.177-.494.435-.583v-10.071l-6.768-6.599c-.163.239-.46.408-.701.485-.834.273-1.64 1.429-2.7-.059.248-.454 1.28-.409 1.29-1.354 0-.302.257-.48.595-.549l-7.852-7.657a.883.883 0 0 0-.077.289l.006.025c-.198.955.955.879 1.344 1.446.328.48.711.854.43 1.351-.353.621-.914 1.051-1.707.432.95-.987.042-1.254-.738-1.57.581.413.764.995.81 1.634a.64.64 0 0 0-.678.172c-.274.252-.37.442.099.659.747.355.573.836.05 1.381-.573-.433-.853-.995-1.09-1.575v10.411c.837-.289 1.606-.529 2.512.018l-.003-.014c-.912.618-.706 1.94-1.888 2.523l-.622-.617v2.934a.657.657 0 0 1 .508-.434c.322.162.25.478.307.733.096.421-.199.543-.536.44-.113-.035-.228-.206-.279-.363v6.062l5.427 5.291c1.202-.22 1.281-.153 2.277.687-.604-.261-1.282-.213-1.96-.377l2.14 2.085c.227-.109.62-.122.888.08.782.585 1.132 1.608 2.527 1.735-.216.335-.422.637-.61.92l2.134 2.081c.394-.086.782.198.957.606.083.196.243.388.25.573l3.658 3.565Zm-2.04-17.915c-1.557.85-3.67.436-4.28 2.471.254.602 1.28.663 1.427 1.462-.11.05-.245.173-.335.149-.963-.268-2.164-1.139-2.188.809-.564-.217-.61 1.536-1.646.256-.641-.794-1.692-1.814-3.32-1.141 1.353-.807 2.778-1.208 2.363-3.009-.076-.329.369-.882.738-1.155.76-.574 1.154-1.149.54-2.005a.552.552 0 0 1-.144-.369c0-.183.094-.355.253-.461.49-.404.782.034 1.042.272.605.556.553 1.679 1.789 1.703.673.013 1.387.317.693-.817-.203-.331.913-.153.913-.058-.022 1.245 1.217 1.251 2.155 1.893ZM1.51 111.773c.011-.133.025-.262.044-.39l-1.536-1.498v2.465a2.234 2.234 0 0 1 1.493-.57v-.007Zm1.02 14.3c.02-.782.37-1.456.738-2.145.223-.42.356-.879.388-1.347.062-1.521.035-1.522 1.833-1.588-.284 2.062.339 4.544-2.951 5.066l-.007.014Zm1.308 9.36c-2.615-.203-2.746-.307-2.766-1.999 1.064.471 1.576 1.621 2.766 1.999Zm1.577-18.261c.738.207.468.682.45 1.137-.026.596-.27.843-.899.796-.628-.047-.877-.424-.725-.949.153-.525.506-.963 1.174-.984Zm1.59 18.628c-.588.535.158 1.582-.778 2.06-.113.057-.382.052-.43-.016-.625-.89.169-1.635.31-2.451.069-.387.314-.594.67-.461.356.132.38.476.228.868ZM.969 120.085c.27.078.542.209.46.468-.135.416-.15.989-.847.975-.26 0-.49-.148-.438-.44.047-.455.367-.845.825-1.003Zm.148 16.141c.476 0 .294.345.208.454-.16.207-.293.627-.738.311-.133-.097-.369-.199-.369-.292.034-.597.73-.095.899-.473Zm7.95-11.497c.332.38.687.679.897 1.051.17.301-.234.284-.4.31-.643.102-.867-.297-.876-.788-.004-.182.233-.366.38-.573Zm-1.83 7.877c-.028-.232-.049-.497.263-.537.271-.033.501.131.369.414-.098.206-.319.357-.486.532l-.147-.409Zm3.054-10.666c.322-.024.483.145.452.417a.483.483 0 0 1-.486.394l-.043-.001c-.256 0-.523-.062-.451-.389a.556.556 0 0 1 .527-.42v-.001Z" fill="#E30611"/><path fill-rule="evenodd" clip-rule="evenodd" d="M17.707 109.523v-12.94a2.266 2.266 0 0 1-.26-.21c-.105-.104.024-.312.26-.525V82.074l-8.18-7.976-.1.066c.262.545.726 1.065.683 1.54-.05.54-.266 1.273-.922 1.51-.709.262-.553-.68-1.008-.82-.553-.172-.527-1.15-1.526-.791-.351.126-1.203-1.859-.825-2.092.724-.445 1.028-1.087 1.282-1.768l-.813-.794c-.032.136-.06.275-.085.416-.923-.243-1.845-1.852-2.767.086-.184.371-.813-.015-.98-.38-.333-.728.528-1.95 1.46-2.07a3.11 3.11 0 0 0 .312-.06l-.924-.901c-.047.03-.094.058-.143.084a.267.267 0 0 1-.223.013c-.483-.285-.772-.815-1.405-.758.049-.288.18-.523.34-.735L.018 64.827v4.18c.072.119.05.26 0 .409v1.664c.192.24.52.42 1.037.573 1.197.358 2.227 1.262 3.26 2.014.263.191.22.984-.152.944-1.266-.133-.636.669-.857 1.128-.657 1.356-.816 1.586-.166 2.732.156.274.104.386 0 .543-.14.212-.414.345-.6.103-.707-.918-1.27-1.906-2.522-2.312v5.147a.357.357 0 0 1 .231-.03c.474.082.934.229 1.4.345l.005.006v-.005l-.001-.001c-.073-.378-.218-.759-.198-1.133.025-.65.596-1.163 1.29-1.163h.025c.876.025 1.15 1.005 1.16 1.528.01.64-.624 1.234-1.582.821-.218-.094-.49-.074-.738-.105l.006.007-.006-.006c-.24.98-.922.564-1.53.435l-.062-.016V84.3a.425.425 0 0 1 .152.24l-.152.043v7.694L2 94.208c.024-.04.05-.082.083-.125.317-.431.677-.973 1.34-.297.185.185.454.123.426-.203-.031-.388-.553-.928.411-.94.913-.013 1.306.636 1.698 1.207.184.284-.185.743-.434.69-1.055-.262-1.507.567-2.165.994l14.347 13.988ZM.019 72.219v1.26c.337-.26.95-.415.52-.986a.694.694 0 0 0-.52-.274Zm4.353 15.926c-.41.847.61 1.272.911 2.02-1.014.236-1.594.28-1.89-.893-.264-1.036.643-1.553.772-2.397.122-.81.712-1.644 1.793-1.574.651.043 1.503 2.135 1.311 2.825-.17.613-.553.913-1.215 1.036-.804.157-.694-.506-.943-.839-.162-.214-.348-.29-.739-.178Zm-2.78-18.012c.09.293-.11.439-.354.468-.485.057-.468-.371-.525-.62-.057-.248-.05-.673.453-.572.377.075.39.427.427.724Zm5.652 8.328c.04.328.065.69-.408.606-.286-.055-.522-.345-.782-.517.227-.19.422-.442.686-.556.563-.253.336.32.504.467Z" fill="#312C93"/><path fill-rule="evenodd" clip-rule="evenodd" d="M17.707 64.285V36.833L.019 19.588v27.451l6.62 6.455-.528-2.068c.826.617.874.653.682 2.217l10.914 10.642Zm-4.211-7.052a6.376 6.376 0 0 0-.333-.618c-.283-.42-.974-.84-.16-1.31.176-.106.382-.163.593-.163.3 0 .588.114.797.316.638.646.01.898-.486 1.208-.183.117-.28.373-.416.568h-.002.002l-.002.003.007-.004c1.942-.585 1.27.786 1.315 1.58.024.436.125 1.036-.638 1.003-.618-.024-.764-.498-.806-1-.046-.537.49-1.037.129-1.583Zm-.422-5.72c-1.09-.163-1.024-1.24-1.986-1.322 1.39-.333 1.39-.333 1.986 1.322ZM9.18 37.303c-.429.837-1.016 1.324-2.243 1.71.65-.997.902-1.836 2.243-1.71Zm.937 15.28c.068-.306.212-.604.57-.613.258 0 .317.261.273.478-.053.265.042.665-.456.613-.249-.026-.368-.238-.387-.478Zm287.174 321.292v27.45l17.687 17.245v-10.912c-.498.043-.942-.047-1.486-.377.623-.294 1.061-.287 1.486-.104v-14.79a.94.94 0 0 0-.463.082c-.055-.198-.184-.559-.155-.573.267-.11.46-.273.618-.463v-.313l-17.687-17.245Zm16.063 24.064c-.767-.069-1.585 1.38-1.898.378-.231-.728-.88-.44-1.016-.882.784-.121.514-.872.953-1.363.494.759.961 1.536 1.961 1.867Zm-14.464-13.387c-.169.256-.322.563-.714.363-.321-.163-.901-.173-.881-.547.055-.337.365-.584.728-.584.051 0 .102.005.152.015.399.06.698.375.714.753h.001Zm-.232 4.169c-.07.248-.035.606-.5.571-.325-.024-.664-.116-.666-.485 0-.32.272-.517.59-.588.401-.087.554.142.576.502Zm15.308 12.906c-.205 1.035-.391 1.553-1.155 1.725-.393-.845.187-1.161 1.155-1.725Zm-2.239-7.988c.203 0 .321.102.28.271-.068.276-.114.742-.273.782-.461.12-.142-.201-.099-.313.094-.24-.401-.549.092-.74Zm2.52 6.022c.235.092.639-.008.455.356-.073.143-.407.22-.629.235-.258.013-.516-.173-.435-.411.042-.12.422-.131.609-.18Zm-296.54-62.023v-19.183c-.229.062-.438.113-.487-.18-.053-.321.295-.784.469-.69l.018.008v-1.355c-.934.436-1.988.734-2.484 1.809-.053.114-1.637.026-2.158-.701-.418-.585.184-1.311 1.266-1.588.307-.077.687.123.945-.26-1.071-.345-.58-2.027-2.654-1.85 1.505-.487 2.355-.862 3.303-.148a1.885 1.885 0 0 0 1.687.255l.095-.032v-3.534L.02 292.943v1.325c.22.389.419.787.201 1.193a2.797 2.797 0 0 0-.201.479v24.453l17.687 17.245Zm-6.473-7.383c-1.878-2.243-1.878-2.243 1.462-3.718l-1.462 3.718Zm-5.62-20.166c-.721-.534-.655-1.15-.609-1.754.047-.604.408-1.14 1.06-1.035.921.143.492.824.261 1.24-.266.475.013 1.12-.712 1.549Zm6.053 10.491c.48.628 1.377 1.114.738 2-.082.113-.541.149-.666.049-.829-.661-.052-1.355-.072-2.049Zm-9.602-21.114c.248.724-.43.771-.798 1.018-.242.162-.496.067-.653-.152-.314-.439.037-.518.384-.54.388-.024.62-.513 1.067-.326Zm8.866 23.597c-.113.098-.214.261-.297.252-.416-.023-.748-.332-.777-.72-.03-.224.166-.549.395-.4.299.202.461.581.679.868Z" fill="#E30611"/></svg>