<svg width="840" height="522" fill="none" xmlns="http://www.w3.org/2000/svg"><path fill-rule="evenodd" clip-rule="evenodd" d="M816.623 470.058v17.461c.504.525.831 1.283 1.572 1.621.234-.622-.326-1.978 1.145-1.427.031-.325.078-.656.12-.995l1.26.905a.81.81 0 0 1-.066.271c-.779 1.225-.769 1.391.557 2.011.293.139.446.211.561.506.203.521.133.878-.482.783-.615-.094-1.363-.162-1.877-.408-.673-.321-.868-.42-1.025.373a.26.26 0 0 1-.512 0c-.091-.452-.549-.631-.649-.856-.173-.396-.035-.904-.604-.826v8.956h-29.997l-23.936 22.639 34.373.028a.3.3 0 0 1 .183-.124c.307-.067.605-.491.938-.148.104.107.246.188.388.273l.996.001 7.317-6.952c-.231-.314-.368-.604.225-1.054.779-.592-.812-.47-.537-1.068.916.319 1.424.581 1.559.938l30.886-29.342v-34.746l-22.395 21.18Zm-42.605 49.553c.391.19.638.395.899.416.408.035.748.132.657.584-.084.416-.509.444-.868.413-.827-.076-.893-.603-.688-1.413Zm42.605-31.154v.557c.328-.196.208-.378 0-.557Zm-3.25 15.285c.814.631.751 1.549 1.239 2.194.118.155-.223.496-.436.375-.739-.413-1.708.26-2.077-.04-.652-.535.65-1.065.493-1.811-.052-.253-.563-.645.092-.833a.904.904 0 0 1 .689.113v.002Zm3.087-2.828c-.277.918-.063 1.973-1.174 2.455a.814.814 0 0 1-1.096-.268c-.394-.495.144-.554.308-.847.462-.821.905-1.398 1.962-1.34Zm-5.393 7.101c-.115-.169-.41-.305-.162-.566.159-.171.469-.295.603-.136.176.195.361.594.272.77-.166.333-.476.113-.713-.068Zm19.232-23.977c-.087-.234-.47-.361-.141-.587.223-.153.488-.41.789-.234.375.211.115.537.018.774-.195.471-.448.053-.666.047Zm-30.178 36.223c-.235.063-.375.517-.704.164-.188-.206-.078-.44.044-.631a.36.36 0 0 1 .584-.079c.146.129.366.321.076.546Zm28.251-32.153c.11-.176.128-.234.168-.264.235-.132.406-.427.733-.346.061.017.15.199.122.249-.158.291-.5.235-.748.347a1.046 1.046 0 0 1-.275.012v.002Zm1.413-1.829c-.104.136-.235.359-.373.192-.139-.166 0-.452.119-.652.043-.075.234-.15.3-.113.318.209-.007.387-.046.573Zm-16.862 21.381c0-.281-.312-.509-.145-.79.104-.179.265-.137.385.039.153.235.432.427.139.725-.097.106-.236.291-.379.026Z" fill="#312C93"/><path fill-rule="evenodd" clip-rule="evenodd" d="M762.109 498.568H724.78l-23.451 22.504h34.953c-.018-.15-.02-.317.042-.354a5.9 5.9 0 0 1 1.427-.691c.321-.085.657.17.958.722-.639.168-1.257.092-1.764.323h1.712l3.738-3.587c-.089-.486-.561-.934-.406-1.538.084-.329.733-.361.401-.829-.303-.427-.789-.105-1.173-.234a.897.897 0 0 0-.359-.001c-1.429.143-1.429.143-1.458-1.509 1.34.581 2.083.18 2.201-1.246.035-.423.139-.704.546-.796.408-.091.47.26.545.549.1.343.288.656.545.905.688.704.756 1.305.35 2.276-.07.167-.214.387-.066.483.2.128.332.282.425.452l18.163-17.429Zm-23.663 18.143c-.845-.167-1.409-.704-2.1-1.089-.588 1.132-1.547 1.248-2.753 1.3-.866.038-.899-.427-1.124-.844-.097-.181.188-.575.377-.47.747.41 1.019.087 1.336-.566.178-.37.624.068.969.071.995 0 1.791-.211 1.877-1.361.03-.413.234-.54.528-.547.234 0 .532.172.49.423-.088.501.742.795.202 1.463-.227.275.104.995.198 1.62Zm4.289-10.527c1.174.493 1.57 1.343 1.481 2.445-.045.549-.082 1.016.39 1.476.54.526.066 1.227.044 1.877-.255-.847-1.342-1.262-1.02-2.445.087-.321-.746-.834-1.035-1.328-.379-.627-.67-1.335.14-2.025Zm-16.407-1.058c-.31-.796-.76-1.314-.601-2.495.405 1.033 1.037 1.002 1.795 1.016-.427.526-.741.918-1.194 1.479Zm9.482 3.029c.395-.703.577-1.344.071-1.99 1.112 1.363 1.112 1.363-.071 1.99Zm-1.572 4.024c-.113.025-.229.04-.345.043-.612-.159-1.023-.497-.962-1.194 0-.08.152-.19.249-.212.84-.183.469.808.939 1 .065.03.067.211.119.363Zm16.191-4.472c-.268-.044-.54-.139-.519-.399.031-.422.456-.502.761-.636.304-.134.408.104.387.361-.03.392-.221.655-.629.674Zm-18.033 9.789c.052.098.164.209.144.289-.084.34.206.73-.101 1.016a.297.297 0 0 1-.169.053.283.283 0 0 1-.269-.193c-.206-.489-.236-.944.395-1.165Zm9.804-8.717c.153.221.272.317.275.418 0 .324.425.657 0 .971a.4.4 0 0 1-.281.117.388.388 0 0 1-.2-.055c-.632-.347-.048-.715-.031-1.072.019-.091.12-.193.237-.379Zm-7.577 10.297c.017.267-.058.42-.269.451-.371.056-.533-.089-.511-.488.014-.235-.097-.517.234-.519.331-.002.395.403.546.556Zm-4.167-1.41c.018-.116.049-.228.091-.335.235-.281.303-.723.744-.809.017 0 .075.094.078.144.014.521-.223.85-.913 1Zm9.553-5.268c.122.324-.132.298-.277.295-.32 0-.615-.117-.577-.504a.505.505 0 0 1 .34-.354c.375-.024.277.443.514.563Zm-5.301-3.239c.321 0 .734-.219.847.321.049.235.075.505-.234.563-.55.101-.25-.293-.291-.509a1.496 1.496 0 0 0-.278-.431l-.044.056Zm.037-.054a2.953 2.953 0 0 1-.733-.308.405.405 0 0 1-.029-.61c.368-.315.469.098.587.3.075.215.117.441.126.668l.049-.05Zm-5.357-2.13c-.136.154.096.631-.385.577-.202-.022-.181-.235-.122-.409.073-.206.042-.502.335-.54.216-.025.304.118.172.372Zm-8.525 12.535c.094.335.185.673.303 1.094-.909-.303-.967-.629-.259-1.056l-.002-.003v-.178c-.022-.592.089-1.099.824-1.108a.327.327 0 0 1 .31.37c-.115.631-.329 1.173-1.173.879l.028.029-.031-.027Z" fill="#E30611"/><path fill-rule="evenodd" clip-rule="evenodd" d="M700.589 498.568H686.94l.038.109a.398.398 0 0 1-.469.39c-.343-.021-.77-.067-.799-.469l-.003-.03h-15.588c.04.081.063.159.061.238-.017.432-.587.563-.965.65-.284.066-.511-.234-.523-.57a.749.749 0 0 1 .052-.318h-5.483l-1.897 1.822a6.284 6.284 0 0 0 1.189 1.922c.492.565.446 1.119-.104 1.569a3.588 3.588 0 0 1-1.117.548c-.49.169-.546-.264-.703-.567a1.102 1.102 0 0 0-.848-.609c-.397-.045-.762-.211-.899-.484l-12.353 11.855c.025.107.04.217.046.31.021.329-.234.658-.558.552-.07-.022-.113-.114-.146-.232l-1.876 1.8c.401.528.737.977-.055 1.21-.993.293-.598 1.119-1.199 1.292-.072-.432-.304-.613-.599-.724l-2.333 2.24h2.244a1.792 1.792 0 0 1-.197-.306v.001c.449-.05.772.115.887.305h24.734c-.785-.222-.877-1.172-1.625-1.796 1.655.018 2.011.82 2.482 1.788l-.042.008h8.844l18.212-17.474c-.704.017-1.338-.238-2.014-.617l-1.875 1.692c-.137-1.43.237-2.01 1.506-1.908l-.268-.164c1.226.073 1.347-.643 1.26-1.57.731.699 1.654 1.102 1.857 2.12l2.196-2.108c-.099-.144-.267-.26-.559-.327-.154-.035-.272-.988.106-1.471.098-.127.345-.333.375-.197.15.673.99.378 1.173.889l.015.041 1.469-1.41Zm-38.09 13.977c.392-.657.303-1.705 1.309-1.863.322-.052.939.521.789.748-.469.669-.31 1.863-1.408 1.988-.402.048-.615-.44-.69-.873Zm1.257-4.019c1.08-.939 2.007-.522 2.839-.632.369-.049.838-.117 1.007.404.155.469-.211.768-.448 1.072-.277.357-.704.486-1.021.078-.527-.671-1.24-.945-2.377-.922Zm-5.362-2.776c1.463-.132.759-1.877 2.2-1.484.469.129.622.505.469.955-.393 1.087-1.211.844-2.669.529Zm-2.271 9.921c-.592-1.173-.289-1.828.369-2.68.253 1.004.258 1.709-.369 2.68Zm-7.687-.603c1.408.263 2.112.5 2.346 1.472-1.15.506-1.578-.237-2.346-1.472Zm22.445-3.438c-.08-.584-.04-.992.486-1.086.312-.053.69.139.607.434-.122.432-.021 1.082-.647 1.2-.142.023-.357-.421-.446-.548Zm12.303.282c-.129.405-.212.904-.871.603-.234-.109-.436-.204-.615.039-.234.326-.44.563-.816.132-.285-.329-.214-.598-.08-.974.216-.618 1.032-.878.939-1.673-.019-.155.267-.312.41-.235.298.174.718.386.782.653.101.455-.031.958.251 1.455Zm-13.209-10.494c.546-.558.199-1.659 1.445-1.436.34.061.526-.171.552-.535.026-.364.023-.734.47-.866.176 1.574.185 1.621-1.211 1.912-.451.094-.399.335-.458.598-.058.263-.096.482-.798.327Zm14.239 12.184c-1.018-.897-.728-1.542-.434-2.389.753.715.162 1.431.434 2.389Zm-8.776-13.585c.049.561.157.875.08 1.134-.118.382-.32.772-.784.865-.067.012-.209-.098-.234-.18-.202-.521.148-.704.526-.939.154-.094.191-.392.412-.88Zm2.851 4.184a4.117 4.117 0 0 0-.186-.497c-.234-.431-.181-.868.214-1.101.333-.197.556-.023.37.413-.066.155-.145.374-.084.493.131.265.104.431-.314.692Zm-4.735 1.633c-.195-.528 0-.76.234-.939.188-.155.469-.26.632-.042.162.217 0 .446-.21.591-.209.146-.408.24-.656.39Zm-26.808 12.055c.212.04.365.226.365.441l-.001.025c-.018.256-.194.488-.448.352a.875.875 0 0 1-.321-.589c-.034-.173.163-.258.405-.229Zm.185 2.912c-.113.067-.174.131-.201.119-.355-.159-.822-.188-.892-.703 0-.066.136-.221.202-.216.009-.003.018-.003.027-.003.453 0 .83.349.865.801l-.001.002Zm32.296-14.96c.263.012.469.149.427.409-.043.26-.254.361-.502.382-.248.021-.305-.143-.305-.319-.002-.244.089-.448.38-.472Zm1.331 5.075c.016.179.042.235.021.285-.122.249-.176.556-.47.673-.056.023-.249-.144-.246-.15.133-.251.28-.495.434-.734.026-.045.111-.033.261-.074Zm-1.038-11.235c.357-.22.563-.096.51.296a.352.352 0 0 1-.528.278c-.233-.161-.002-.41.057-.616l.004-.004-1.136-.596c.563-.074 1.267-.512 1.095.638l.022-.023-.024.027Zm16.905.939a.368.368 0 0 1-.147-.438.614.614 0 0 1 .415-.502c.223-.061.249.155.234.308a.75.75 0 0 1-.502.63v.002Z" fill="#312C93"/><path fill-rule="evenodd" clip-rule="evenodd" d="M639.316 498.568h-37.328l-1.045 1.003c.459.027.908.067 1.352.076.64.012.575.577.65 1.129.203 1.485-.889 2.442-1.27 3.677h.012c.958-.054 1.929.368 2.319-1.267.3-1.248 1.145-1.031 1.893.214.664 1.103 1.15 2.999 3.107 1.283.333-.291 1.141-.345 1.136.47 0 .957.061 1.544 1.293 1.463.436-.03.373.43-.099.779-.922.681-2.217 1.145-1.861 2.917-.728-.791-1.239-1.308-1.704-1.877-.347-.416-.527-.734.141-1.199.883-.61.27-1.072-.44-1.126-1.148-.076-2.295-.004-3.44.004-.235.865-1.892 1.226-.854 2.581.396.511.814 1.216 1.408.927.794-.381.346-1.019-.124-1.502-.188-.19-.596-.416-.164-.682.36-.218.768-.342 1.186-.364.5-.026.765.319.624.818-.249.883-.509 1.409.955 1.549 1.23.115 1.6 2.14.789 3.382-.668 1.023-1.514 1.788-2.816.859-.511-.361-1.115-.647-1.511-1.11-.537-.627-1.48-.927-1.661-1.819-.293-1.454-1.581.447-1.739-.469-.234-1.352 1.049-.899 1.734-1.141-.596-1.448.549-2.196 1.251-3.126l.922.097-.924-.113c-1.143.098-.817-1.15-1.409-1.549l-.012.001c-.793-1.062-1.527-2.176-2.582-3.117l-3.424 3.285.009.043c.023.387-.096.703-.444.688a1.241 1.241 0 0 1-.279-.046l-4.92 4.721c.076.702-.379 1.173-.418 1.681-.601.139-.8-.105-.845-.404l-.008-.058-.647.621c.102.199.167.415.19.639.014.32-.426.395-.668.184-.064-.056-.137-.11-.207-.165l-8.908 8.547h36.827l-.007-.018c.191-.535.618-.498 1.024-.476l3.343-3.208c-.558-.202-.241-.885.181-1.067 1.256-.542 1.173-1.248.602-2.186l.005-.006c-.83.441-1.642.662-1.891-.584-.123-.597-.144-1.211-.577-1.741 1.184.5 2.294.98 2.381 2.419l-.003.004c1.189.171 2.215-.047 2.869-1.002-.092-.884-.561-.717-.905-.563-.383.172-.773.47-1.075.019-.303-.451-.362-1.16.188-1.345 1.435-.486 1.086-1.805 1.488-2.772l.001-.001.008-.005c-1.077.314-1.988-.517-3.022-.435l.006.006v-.001l.087.085c-1.413.293-3.065 1.457-3.703-1.03l.096.088c.05-.093.093-.188.13-.287.197-.633-.021-1.576 1.138-1.485.369.031.624.234.627.552.014 1.157-.704 1.37-1.675 1.204-.104-.019-.204-.045-.31-.071l.09.087c-.879.118-1.745-.058-2.658.287-.913.344-1.593.741-1.211 1.752.422 1.129 1.506.836 2.065.315.842-.786 1.213-.934 2.091.033.925 1.021 2.767.069 3.227-1.511-1.553-1.134.56-1.829.433-2.776l-.092.123 2.628-.638.003.002v-.003l.007-.002-.007-.007v-2.722c-1.101 1.126-2.396 1.877-2.638 3.374l.091-.122c-.38-.047-1.151 0-.95-.41.406-.805.184-1.669.507-2.433.422-1.005.528-1.713-.939-1.19-.598.214-1.035.14-1.081-.598-.038-.62.275-1.01.888-1.063a25.438 25.438 0 0 1 2.211-.087h10.559c.089 1.391-1.629 1.863-1.106 3.146.153.373-.391.919-.767.68-1.791-1.126-2.157.268-2.784 1.394-.174.312-.755.37-.776.939.988-.11 1.572.814 2.473.967l-.059-.071c.158 1.351-.535 2.357-1.185 3.382l11.927-11.446Zm-40.458 13.119c.339 1.408 1.199 2.265 2.442 2.842-.356.304-.596.49-.814.703-.537.514-1.051 1.019-1.907.895-1.605-.235.598-.594-.047-1.106-.512-.405-1.348-.725-1.409-1.567-.098-1.12.942-1.137 1.735-1.767Zm13.33 2.215c-.404.627.507 1.877-.786 2.252-.526.155-2.551-2.125-2.41-2.89.234-1.284 1.696-.026 2.398-.939.203-.254 1.124.598.798 1.577Zm10.693-9.117c-1.186 1.28-.276 2.576-.009 3.859v.001l-.007.006c1.232-.305 2.521-1.474 2.184-2.244-.61-1.393-.264-2.511.277-3.776-1.537.234-1.861 1.319-2.447 2.152l.002.002Zm-20.755 11.719c-.018.224.256-.345.624-.096.615.413 1.173.185 1.748.26.575.075 1.15.65.861 1.322-.288.671-.741.79-1.478.234-.513-.399-1.801.43-1.755-1.72Zm-5.456-10.252c.146.211.256.501.47.654.704.5 1.408 1.023.901 1.983-.343.64-1.969.502-2.542-.169-.873-1.025.298-1.408.69-2.011.144-.171.305-.326.481-.459v.002Zm31.972.452c.164-.919-.394-1.696-.653-2.869 1.343.431 2.626.5 2.406 2.231-.179 1.389-1.086.753-1.811.568l.058.07Zm-11.029 7.937c-1.091.605-2.095.103-2.961.61-.664.39-1.011-.268-1.06-.704-.068-.61.532-.939 1.046-.844.884.171 1.732.527 2.975.938Zm-3.828-12.864c-.259.184-.416.392-.559.386-.875-.052-1.947.359-2.36-.885-.047-.143.089-.49.188-.511 1.104-.225 2.218-.407 2.731 1.01Zm.861 1.007 2.201-2.112c.835 2.144-1.502 1.494-1.605 2.668l-.596-.556Zm-5.205 15.614c-.786.073-1.117 1.53-2.039.734-.131-.113-.035-.617.089-.878.65-1.377 1.305-.009 1.95.144Zm8.807-14.242c-.401-.133-.803-.345-.831-.803-.035-.588.382-.95.913-1.037.431-.067.793.136.748.704-.045.568-.214.998-.83 1.136Zm-14.669 11.135c.278-.289.588-.548.919-.772.329-.176.566.066.568.409.002.342-.101.619-.545.532-.301-.056-.604-.108-.942-.169Zm11.646 2.745c.136-.432.296-.809.768-.896.408-.073.57.22.575.537 0 .497-.387.673-.803.748-.303.054-.646.085-.54-.389Z" fill="#E30611"/><path fill-rule="evenodd" clip-rule="evenodd" d="M577.798 498.568H540.47l-21.9 21.015c.434.47.85 1.039 1.042 1.489h2.061c.501-.387 1.106-.493 1.873 0h5.055a5.068 5.068 0 0 0-1.19-.745c.354-.305.596-.491.814-.704.535-.514 1.05-1.019 1.907-.894 1.605.234-.598.593.047 1.105.439.346 1.117.631 1.339 1.238h22.828l23.452-22.504Zm-51.23 19.783c.019-.223-.255.345-.627.096-.612-.413-1.173-.185-1.745-.26-.572-.075-1.152-.65-.864-1.323.275-.636.743-.789 1.479-.235.53.4 1.818-.427 1.757 1.722Zm5.867-5.266c-.188.387-.615.375-.988.387-.47.019-.884-.31-.852-.704.04-.486.596-.385.969-.391.46-.024.807.162.871.708Zm-7.305 6.477c-.275.284-.58.542-.907.767-.331.175-.566-.068-.568-.411-.002-.342.101-.619.542-.532.29.066.595.115.933.176Z" fill="#312C93"/><path fill-rule="evenodd" clip-rule="evenodd" d="M518.01 498.568h-37.328l-23.451 22.504h14.839c-.059-.634.064-1.198.512-1.891.4.793.391 1.35.142 1.891h20.113a1.127 1.127 0 0 0-.112-.589c.269-.07.76-.234.779-.197.15.339.372.585.629.786h.426l23.451-22.504Zm-32.723 20.437c.093-.976-1.877-2.015-.514-2.414.99-.294.598-1.12 1.199-1.293.164.997 1.185.655 1.854 1.213-1.033.629-2.089 1.222-2.539 2.494Zm18.204-18.402c-.347-.215-.765-.41-.493-.908.221-.408.234-1.147.744-1.121a.936.936 0 0 1 .773 1.12 1.08 1.08 0 0 1-1.024.908v.001Zm-5.669-.295c-.338-.089-.824-.044-.777-.636.033-.413.158-.845.66-.847.436 0 .703.345.8.751.117.509-.193.704-.683.732Zm-17.55 19.476c-1.408-.26-2.112-.497-2.346-1.468 1.149-.5 1.579.237 2.346 1.468Zm10.862-2.848c0 .258-.139.408-.368.356-.375-.087-1.01-.145-1.063-.347-.164-.587.272-.18.425-.127.326.12.746-.509 1.006.118Zm-8.19 3.206c-.124.3.012.813-.483.579-.194-.093-.3-.518-.319-.8-.019-.329.234-.657.558-.554.163.054.179.537.244.775Z" fill="#E30611"/><path fill-rule="evenodd" clip-rule="evenodd" d="M456.494 498.568h-37.329l-23.451 22.504h37.327l23.453-22.504Z" fill="#312C93"/><path fill-rule="evenodd" clip-rule="evenodd" d="M395.22 498.568h-37.327l-23.452 22.504h37.328l23.451-22.504Z" fill="#E30611"/><path fill-rule="evenodd" clip-rule="evenodd" d="M333.701 498.568h-37.328l-23.451 22.504h37.328l23.451-22.504Z" fill="#312C93"/><path fill-rule="evenodd" clip-rule="evenodd" d="M271.745 498.568h-37.327l-23.452 22.504h37.328l23.451-22.504ZM22.574 74.938v37.329l-6.122 6.379c-.338-.302-.747-.434-1.259-.397-.134.007-.39.28-.368.385.108.527.45.711.84.832l-7.724 8.051c-.931-.523-1.625-.722-2.696.028 1.033.474 1.739.375 2.679-.012L.07 135.718v-20.503c.29.06.611.151.84.648.594 1.285 1.338-.81 2.317-.859-1.324-.261-2.065-1.221-2.83-2.149-.28.442-.218.965-.327 1.378v-13.272c.071.167.25.395.568.709 1.633 1.62 2.604 1.725 5.04.179l.009.004-.023-.016c-.138-1.171 1.326-1.196 1.77-2.434-1.136.188-1.976-.103-3.63-.399 1.554.915 1.295 2.095 1.941 2.876l.017.009-.013-.004.012.015-.034-.021c-2.154-.592-1.503-2.828-2.617-3.963.779-.744 1.32-.326 1.917-.209 1.74.343 3.212 1.793 5.162 1.262l-.062.068c.02-.909.85-1.62.599-2.582.581-.072.715.505 1.05.632 1.205.455 2.639.617 1.782 2.55-.18.409.436.867.786.663 1.193-.704 1.91.939 3.257.651-.528-3.591-1.026-7.019-1.537-10.447a25.062 25.062 0 0 0-.406-2.174c-.133-.598-.566-.853-1.173-.725-.725.155-.732.596-.434 1.157.731 1.38.015 1.38-1.04 1.105-.805-.209-1.626.138-2.482-.148-.42-.139-.272.597-.268.985l.01.005-.01.003v.007l-.01-.005c-.705.17-1.444-.92-2.148-.696l1.182-1.231.025-.004c.243-.043.399-.228.443-.484l2.476-2.582c.459.611.712 1.61 2.144.797l-1.662-1.298 9.863-10.278ZM.07 100.689v-2.041c.352.644 1.063 1.056 1.112 1.849-.529.009-.982.014-1.112.192Zm.444-2.761.799-.834c.155.111.308.226.46.343-.319.361-.829.35-1.26.49ZM4.99 93.26l2.404-2.506.003.007.05-.052-.037.074.082-.102c.235 1.01-.47 2.03 0 3.051l-.122-.105c1.237-.453 2.384-1.544 3.83-.547l-.048.073-1.007-2.498-.019-.01h.015l-.004-.01.02.011c1.495.03 2.425 1.179 3.689 2.111l-2.692.4.048-.073c.908.47 2.036.627 2.482 2.112-1.33-.352-2.485-.532-3.776.275-.714.445-2.068-.662-2.537-1.835l.122.105c-.818-.21-1.795.101-2.503-.481Zm.828 9.679c1.361.532 1.409 1.589 1.409 2.647-.013.772-.325 1.555-.981 1.877-.803.38-1.73-.622-2.623-.014-.11-.258-.35-.72-.31-.744.98-.624.962-1.814 1.541-2.647.297-.393.62-.768.965-1.119Zm7.029 8.331c-.547-1.186-.417-2.579-1.584-3.612-1.068-.939-.5-2.06.422-2.915 1 .141 1.303 2.296 2.767.871.37-.361.57 0 .587.3.016.3-.05.688-.235.861-1.846 1.678-1.858 1.675-1.947 4.484l-.005.009c.01.59 1.403 1.141.185 1.719-1.85.882-1.973 2.456-1.917 4.304-1.213-.47-2.366-.845-3.449-1.361-.347-.167-1.044-.47-.557-1.174.291-.41.676-.434 1.068-.145.751.554 1.068.396 1.643-.436.773-1.128 1.992-1.951 3.022-2.905Zm-2.72-12.222c.938.028 1.619-.636 2.745-1.063-.234 1.392-.115 2.673-1.861 2.703-1.409.026-.901-.967-.824-1.709l-.06.069ZM11.141 88.4c.075-.416.234-.845.673-.94.576-.119.995.235 1.156.754.132.417-.018.802-.58.84-.56.036-1.024-.064-1.25-.654Zm1.316 28.73 1.589-1.832c.185.22.47.469.422.521-.408.718-.582 1.819-2.01 1.311Zm3.212-2.581c.688.101.723.768 1.124 1.066-.234.145-.47.408-.703.41a.79.79 0 0 1-.835-.732c0-.249.273-.509.414-.744Zm-5.578 5.193c1.002-.422 1.716-.799 2.582-.45-.488 1.26-1.22 1.476-2.582.45Zm-5.366.108c-.054 1.436-.188 2.166-1.117 2.527-.657-1.056.007-1.588 1.117-2.527ZM.328 109.524c.259-.031.425.078.409.31-.03.387 0 1.021-.188 1.106-.559.234-.22-.235-.188-.404.068-.345-.614-.669-.033-1.012Zm4.368 7.631c.317.079.805-.129.643.394-.063.207-.47.373-.744.432-.324.067-.688-.146-.629-.47.025-.168.495-.255.73-.356Z" fill="#E30611"/><path fill-rule="evenodd" clip-rule="evenodd" d="M22.574 136.456v24.367c-.327-.086-.761-.048-1.319.09l1.319 1.09v11.781L.07 197.236v-37.328l22.504-23.452ZM7.628 186.12c-.373.777-.882 1.229-1.947 1.589.563-.927.784-1.706 1.947-1.589Z" fill="#312C93"/><path fill-rule="evenodd" clip-rule="evenodd" d="M22.574 197.728v6.36l-.24.357c.082-.003.162.001.24.011v7.036c-.51.103-1.18-.297-1.476.452-.393.993 1.572-.016 1.016 1.211-.069.151.183.334.46.412v21.489l-5.664 5.903c.037-.162.043-.343.02-.529-.053-.457-.368-.572-.776-.572-.613.061-1.565.857-1.347 1.096.37.368.864.585 1.385.605a.847.847 0 0 0 .154-.012L2.06 256.436c-.395-.425-1.255-.416-1.097-1.24l-.01-.033c.06-.639.634-.705 1.044-.939.868-.486 1.173-1.176.904-2.129.342-.573.95-1.166-.224-1.558-.18-.058-.241-.469-.356-.718l.006-.001c-.209-.031-.584-.028-.598-.099-.214-1.025-.938-1.121-1.659-1.201v6.969a1.81 1.81 0 0 1 .895-.234v-.047l.005.034c.106-1.384.61-2.518 2.004-3.07l-.073-.075.07.071c-.214-.662-.704-.207-1.046-.235-.343-.027-.655.329-1.136-.088.469-.704 1.222-1.213 1.538-2.025l-.01-.02c1.013-.705 1.027-.725 2.529-.939.256-.035.42-.103.434-.338a.676.676 0 0 0-.164-.38c-.478-.679-1.226.046-1.56-.188-.4-.294-.422-1.11-1.173-1.11-.272.001-.746.147-.774.295-.193.99-.948.697-1.539.751v-19.581c.419.128.821.213.983-.502l.022.023-.02-.034c.217.003.434.035.643.096.833.385 1.375-.167 1.375-.761-.01-.469-.246-1.385-1.01-1.408h-.028c-.602 0-1.095.479-1.114 1.081.02.351.077.703.168 1.042l.012.013-.01-.003.002.006-.003-.006c-.34-.091-.676-.205-1.02-.282v-4.607c.819.441 1.26 1.23 1.794 1.973.162.225.399.101.52-.097a.411.411 0 0 0 0-.504c-.56-1.063-.427-1.277.143-2.535.193-.426-.354-1.173.747-1.049.321.038.366-.696.131-.875-.39-.305-.778-.638-1.18-.942l1.77-1.845c.355.2.71.548 1.063.651.153-.876.347-1.706 1.687-1.579-.97 1.133-.742 2.731-2.02 3.571-.327.216.413 2.057.717 1.943.866-.334.854.579 1.323.734.406.129.26.994.876.76.56-.235.75-.908.795-1.408.037-.444-.358-.924-.592-1.429.627-.493 2.323-.595.807-1.984-.334-.317.128-.401.234-.608.326-.64.526-1.347.843-1.994.17-.35.084-.632-.188-.721-1.192-.389-1.174-1.29-1.223-2.313l-.009-.117 10.01-10.434c.004.166.08.346.114.535.066.365-.3 1.035.448.922.543-.08.517-.615.254-1.049-.156-.26-.067-.684-.433-.807l3.873-4.037Zm-19.12 35.581c-.356.786.528 1.173.791 1.877-.882.218-1.384.26-1.643-.829-.234-.966.562-1.438.672-2.224.105-.751.617-1.528 1.558-1.462.566.04 1.305 1.983 1.138 2.623a1.222 1.222 0 0 1-1.055.965c-.704.145-.603-.469-.819-.779-.142-.203-.304-.274-.642-.171Zm-2.166 23.933-.322.334a1.635 1.635 0 0 0-.575-.845c.348.146.725.285.897.511Zm16.14-34.598c.185-.61 1.053-.624.692-1.474-.72.284-1.506.416-2.083-.41.431-.746 1.255-.268 1.77-.803.359-.37 1.01-.293.995.704-.014.829 1.173.667 1.694 1.272-1 .598-1.65 2.03-3.068.711Zm-15.3 17.721c.22 1.374-.513 2.885.61 4.156.083.094-.307.603-.546 1.047-.425-.451-.842-.782-1.115-1.209-.42-.662-.581-1.539.118-1.978.843-.53.955-1.187.918-2.013l.003-.001h-.001c-.352-.469-1.212-.729-.65-1.546.275-.399.587-.901 1.173-.275.154.171.391.113.368-.188-.026-.361-.486-.864.36-.873.79-.012 1.133.589 1.47 1.124.167.263-.163.69-.374.633-1.129-.3-1.462.939-2.32 1.12l-.014.003Zm17.32-30.909a.827.827 0 0 1-.8.616h-.008c-.582.032-1.98-.507-2.758-1.023 1.68-.834 1.68-.834 3.566.407Zm-1.657 1.104c1.066-.216 1.791-.338 2.688.171-.93.896-1.643.962-2.688-.171Zm-2.55 3.204c-.158.906-.688.826-1.073.976a.305.305 0 0 1-.159.044.324.324 0 0 1-.32-.278.396.396 0 0 1 .187-.551c.449-.09.908-.155 1.366-.191h-.002Zm3.889 11.058c.304-.044.535.11.551.303.054.615-.128 1.15-.795 1.356-.234.071-.5-.063-.517-.26-.05-.63.293-1.085.76-1.399Zm3.291 6.129a.805.805 0 0 1-.555.704c-.235.085-.51-.206-.55-.506a.526.526 0 0 1 .45-.601c.294-.062.559-.071.655.403Zm-1.225-26.859.092 1.009c-.612 0-.16-.429-.256-.637-.049-.104.023-.261.04-.395l.124.023Zm-15.25 20.23c.035.303.057.645-.352.561-.249-.049-.455-.315-.68-.483.174-.198.375-.372.597-.514.487-.226.285.312.435.436Z" fill="#E30611"/><path fill-rule="evenodd" clip-rule="evenodd" d="M22.574 259.248v9.543c-1.092-.299-1.287.551-1.229 1.666-.783-.268-.699-1.623-1.722-1.207-.802.321-.333 1.199-.568 1.73-.576 1.278 1.195 3.932-2.07 3.686-.034-.005-.126.13-.112.174.335 1.026-1.245 1.39-.824 2.542.194.544 0 1.283-.939 1.431a.572.572 0 0 0-.21 1.031c.5.389.22.645-.085.821-1.152.655-.659 1.594-.253 2.297a12.318 12.318 0 0 0 2.207 2.903c.669.612.669.983-.035 1.288-1.26.549-.477 1.056-.087 1.643.317.469.753.347 1.187.368 1.1.051 2.06-.439 3.33-.824-1.248-.953-1.202-2.061-1.284-3.268-.081-1.206 1.274-1.389 1.378-2.41a.705.705 0 0 1 .985-.605c.109.041.223.085.33.134v4.057c-.034.074-.06.165-.093.24-.014.194.013.363.094.489v9.6L.07 320.029V289.58c.458-.173.943-.152 1.347.596.25.462 1.833-.352 1.598-.821-.659-1.371-.032-2.585.188-3.858.054-.316-.004-.708-.276-.76-.932-.166-1.697-.863-2.71-.778-.063.005-.109.043-.147.099v-1.357l4.676-4.873c-.212.516-.438 1.03-.056 1.611.043.063.275.068.374.014.814-.444.164-1.417.676-1.912.102-.288.11-.546-.044-.703l16.878-17.59Zm-9.313 19.098c-1.352.788-3.187.403-3.717 2.292.234.561 1.115.618 1.242 1.357-.096.047-.214.162-.294.138-.835-.246-1.876-1.055-1.898.751-.49-.201-.53 1.427-1.429.235-.558-.737-1.468-1.683-2.89-1.059 1.173-.748 2.412-1.128 2.05-2.794-.065-.303.325-.817.637-1.07.659-.533 1.002-1.068.47-1.862a.523.523 0 0 1 .092-.771c.425-.375.678.031.904.254.525.514.49 1.555 1.555 1.579.584 0 1.204.296.601-.758-.176-.307.793-.143.793-.054-.006 1.159 1.063 1.165 1.884 1.762Zm-3.776 9.442c-.704 1.173-1.312 1.903-1.352 2.981-.017.469-.032 1.755-1.15 1.45-1.028-.28-.427 1.532-1.279.915-.657-.47-1.173-1.247-1.544-1.99-.643-1.282-.19-1.927 1.098-2.966.427-.347 1.69-.596 1.129-1.807-.129-.275.535-.499.913-.192.68.537.974 1.487 2.185 1.609Zm9.842 8.516c-.235-1.095-.436-2.077-.672-3.201 1.723 1.471 1.723 1.471.672 3.201Zm-8.692-3.588c-.439-.662.335-.875.136-1.34-.11-.255-.631-.629.019-.804.35-.094.703.168.849.556.127.315.47.629-.083.908-.32.2-.631.432-.92.679l-.001.001ZM4.53 311.392c-.627-.495-.57-1.068-.528-1.629.043-.561.352-1.058.918-.962.798.132.43.763.234 1.15-.225.444.01 1.042-.624 1.441Zm12.38-15.961c-.426-.58-1.726.234-1.66-.777.049-.786 1.136.519 1.642-.331.148-.249.768.149.79.47.02.321-.335.619-.771.638Zm-11.72 1.168c.258.812.469 1.409-.27 1.732-.272.122-.69.052-.73-.26-.077-.606.46-.897 1-1.472Zm1.173-12.079c-.704-.312-1.502-.139-2.274-.577 1.333-.275 1.333-.275 2.274.577ZM1.45 301.532c.214.673-.374.704-.704.939a.395.395 0 0 1-.222.069.382.382 0 0 1-.343-.212c-.275-.408.03-.488.33-.502.35-.008.549-.467.939-.294Zm12.73-4.102c-.315-.399.13-.629.213-.939.106-.381.37-.645.748-.284.235.234.104.509-.131.703-.235.195-.413.579-.83.52Zm-4.924.448c.364.017.69.017.733.392.025.206-.045.469-.33.492-.395.033-.764-.075-.802-.535-.01-.114.296-.248.4-.349Z" fill="#312C93"/><path fill-rule="evenodd" clip-rule="evenodd" d="M22.574 319.034v37.328L.07 379.814v-37.329l22.504-23.451Zm-12.39 17.454c-.643.406-.657 1.279-1.476.996-.067-.023-.894-.268-.387-.939.598-.782 1.08-.364 1.863-.057Zm9.703 11.372c.124-.202.164-.558.492-.531.132 0 .33.289.34.456a.453.453 0 0 1-.524.498c-.223-.015-.392-.13-.308-.423Zm-.765-10.278c.416-.469.69-.878 1.19-.483a.394.394 0 0 1 .076.385c-.38.415-.757.051-1.266.098Zm1.075 2.184c.184.197.342.418.47.656.119.324-.202.31-.366.295-.346-.028-.44-.307-.416-.603.005-.094.152-.176.312-.348Zm-4.515-2.315c.526.037.725.218.838.511a3.55 3.55 0 0 1-.565.167c-.218.028-.448-.047-.47-.3-.02-.253.136-.386.197-.378Z" fill="#E30611"/><path fill-rule="evenodd" clip-rule="evenodd" d="M22.574 380.552v37.329L.07 441.333v-37.329l22.504-23.452Z" fill="#312C93"/><path fill-rule="evenodd" clip-rule="evenodd" d="M22.574 441.824v24.328c-1.05.182-2.779.348-3.622 1.973 1.63.189 2.56 1.35 3.622 2.331v5.626c-.228-.239-.472-.473-.63-.707-.317-.474-.77-.253-1.073.073-1.504 1.616-3.928.964-5.57 2.276-.54.427-1.297.107-1.687-.451-.214-.305-.31-.932-.14-1.223.475-.807 1.179 1 1.772-.126.014-1.073-1.833-1.638-.894-3.098.706-1.107.91-2.41.966-3.733.052-1.211 1.282-1.685 1.859-2.253-.16-.898-2.692.519-.958-1.49.335-.389.277-.788-.28-.957-.307-.096-3.294 1.669-3.27 1.95.05.643 1.179.981.34 2.285-.694-2.178-3.24-2.028-3.922-4.031 0-.023-1.563-1.049-2.112.469a3.497 3.497 0 0 0-.05 2.426c.417 1.436-.606 3.111-1.624 3.299-1.962.362-2.274.141-2.886-2.179 3.238.102 3.641-2.237 4-4.954-1.485.866-1.485.916-2.404.65-.961-.249-1.914-.319-2.82-.2l21.383-22.284Zm0 36.422v.906l-.502.524c.19-.463.317-.971.502-1.43Zm-1.821 2.805L.07 502.606v-23.475l.147-.097c2.673-1.842 5.442-2.473 8.54-1.946-1.767.843-2.979 1.192-4.621 1.108-.584-.031-.805.298-.805.638-.02.863.059 1.79.95 2.245.753.393 1.577.61 1.955-.546.21-.639 1.647-1.31 2.46-1.207.178.036.377-.177.579-.234.979-.279 1.492-.122 1.023 1.051-.24.615-.11 1.765.29 1.687.768-.142 2.021.228 2.289-1.121.076-.411.502-1.129.703-.895 1.605 1.88 2.086-1.076 3.309-.79-.583 2.464-.477 2.734 1.687 4.167-.037-1.096.723-1.95 1.427-1.997a2.92 2.92 0 0 0 .75-.143Zm-.48-10.556.637 2.295c-1.417-.453-.962-1.443-.638-2.295ZM1.41 487.421c.21-.572.704-.632 1.25-.486.339.092.5.399.28.69-.255.333-.624.605-1.089.511a.514.514 0 0 1-.44-.717l-.001.002ZM838.86 17.65v37.328L824.945 69.48c-.147-.542-.595-.748-1.15-.73-.436.012-.734-.041-.734-.51 0-.273.075-.704.389-.704 1.416-.014 1.071-1.807 2.2-2.126.302-.086.183-.473.051-.763-.25-.56-.697-.937-1.126-1.335l-.026.02c-1.033-.103.474-1.269-.537-1.311-1.012-.043-1.781-.678-2.72-1.124.277 1.831.606 2.055 3.303 2.389l.022-.017-.012.018h.003l-.009.008a3.08 3.08 0 0 0-.296.527c-.387 1.199-1.229 2.014-2.029 1.79-1.043-.286-.606-1.147-.592-1.827a.8.8 0 0 0 .006-.11.779.779 0 0 0-.006-.108c-.096-.503-.444-.908-.895-.723-.451.185-1.391.743-1.079 1.006 1.016.857.228 1.418-.115 2.012-.287.501-.09.85.164 1.173.254.323.105.45-.234.602-.577.263-.481.886-.683 1.378 1.157.052 1.42-1.717 2.724-1.266.021.678-.474 1.105-.587 1.654-.131.632-.338 1.314.153 1.906.19.234.866.213.505.704-.274.377-.742.806-1.279.234l.012-.033c.028.373-.298 1.126.392.922.277-.08.588-.118.889-.22l-5.293 5.515V41.103L838.86 17.65Zm-6.985 44.088c-.938-.152-.888-1.152-1.725-1.23 1.207-.304 1.207-.304 1.725 1.23Zm-3.381-13.187c-.373.777-.882 1.23-1.947 1.59.563-.928.783-1.7 1.947-1.59Zm-10.264 25.33c.289.123.523.305.495.616a.509.509 0 0 1-.573.47.558.558 0 0 1-.468-.605c.018-.327.248-.46.546-.48Zm8.159-9.885c-.234-.99-.389-1.626-.558-2.347.76.618.76.618.558 2.347Zm2.919-1.262c.058-.285.183-.561.495-.57.223 0 .275.234.235.446-.048.234.035.617-.397.567-.213-.026-.316-.22-.333-.443Zm-8.952 9.505c-.43.092-.718.857-1.274.27-.057-.059-.021-.272.04-.37.469-.753.798.295 1.231.108l.003-.008Z" fill="#E30611"/><path fill-rule="evenodd" clip-rule="evenodd" d="M838.86 79.169v3.083a.696.696 0 0 0-.18.136c-.514.533-1.338.054-1.769.8.54.777 1.265.71 1.949.464v.76c-.197.193-.472.35-.567.663.204.191.392.323.567.41v23.234c-.652.277-1.226 1.101-1.147 1.889.045.343-.174 1.202.704.918.135-.045.286-.075.443-.1v5.073l-2.023 2.108c.001-.314-.074-.585-.478-.636-.432-.054-.618.3-.821.606-.204.305-.467.72-.059.938.112.061.209.126.297.197l-5.667 5.906a.614.614 0 0 0-.005-.337c-.11-.385-.336-.801-.873-.868-.5-.066-1.04.091-1.04.526-.012.876-.908.837-1.124 1.257.92 1.38 1.62.307 2.349.055.046-.016.094-.036.142-.059l-8.518 8.876-.062-.04h-.001a.583.583 0 0 0-.465.571v.019l-3.749 3.907c-.07-.476-.256-.933-.407-1.395v-26.646c.963-.733 2.032-1.274 1.807-2.35-.178-.875.216-1.549.19-2.328-.026-.779-.258-1.187-.887-.866-.391.2-.792.385-1.11.649v-3.966l.118-.123.047.003c.338.023.492-.303.541-.57l.009-.056 7.078-7.377-.01.06c-.11.786-.905 1.257-.671 2.224.258 1.089.76 1.049 1.643.83-.261-.703-1.148-1.088-.791-1.877.338-.102.494-.032.642.173.216.309.113.924.817.778.523-.062.948-.45 1.057-.966.166-.641-.573-2.582-1.138-2.622a1.511 1.511 0 0 0-.205 0l13.367-13.931Zm-15.667 33.079c-.209-.033-.584-.028-.598-.101-.303-1.446-1.615-1.045-2.511-1.354.058-.612.469-.422.809-.469.596-.071 1.384.26 1.582-.756.027-.148.504-.291.774-.295.752 0 .772.818 1.173 1.112.333.234 1.081-.491 1.56.185a.69.69 0 0 1 .163.382c-.012.247-.176.303-.434.34-1.502.214-1.516.234-2.53.939l.012.017Zm-.471 18.695c.016-.725.326-1.352.633-1.99.195-.391.308-.818.335-1.253.057-1.409.033-1.409 1.594-1.472-.247 1.912.295 4.225-2.565 4.694l.003.021Zm-.003-.014c-.794.575-.615 1.8-1.643 2.347l-1.856-1.972c1.328-.157 2.269-1.15 3.496-.356l.003-.019Zm.277-28.137c.218 1.375-.517 2.888.607 4.158.083.093-.307.602-.544 1.049-.425-.451-.845-.784-1.115-1.211-.42-.66-.584-1.538.115-1.978.842-.531.954-1.187.919-2.013l.009-.003-.01.002c-.352-.47-1.211-.728-.65-1.545.275-.401.587-.903 1.173-.275.158.172.395.113.371-.189-.028-.36-.488-.862.356-.874.791-.012 1.134.592 1.474 1.126.164.263-.166.688-.377.632-1.129-.3-1.462.939-2.319 1.119l-.009.002Zm.191 9.456c.114.249.178.659.356.72 1.173.392.566.983.234 1.559l.071.07c-.214-.664-.69-.207-1.047-.234-.356-.028-.654.33-1.136-.089.47-.693 1.225-1.213 1.539-2.023l-.017-.003Zm.578 2.279c.27.938-.035 1.642-.903 2.128-.411.234-.984.298-1.042.939l.004.027c-.16.871.836.804 1.177 1.329.285.446.618.793.374 1.255-.305.577-.794.974-1.484.399.826-.915.038-1.173-.636-1.457.493.394.65.931.69 1.523a.54.54 0 0 0-.589.155c-.234.234-.315.408.087.612.647.326.497.774.043 1.278-.594-.469-.824-1.128-1.066-1.776-.214-.572-1.132-.966-.704-1.654.47-.756 1.014-1.605 2.112-1.615v-.03l.006.034c.105-1.387.61-2.518 2.003-3.072l-.072-.075Zm13.251-12.238c.406-.012.723.113.777.571.068.584-.139 1.131-.739 1.128a2.077 2.077 0 0 1-1.387-.602c-.211-.243.742-1.036 1.349-1.097Zm-11.798 20.392c.645.195.406.634.39 1.056-.021.553-.234.781-.779.739-.544-.043-.763-.395-.631-.88.131-.485.448-.896 1.02-.915Zm-6.882-21.424c.509.532.912 1.173.743 1.753-.169.579-1.058.087-1.687.671.057-1.068.545-1.708.944-2.424Zm13.887 11.041c.082.441.218.734.171.997-.129.704 1.643.469.746 1.314-.368.352-1.194-.355-1.661-.704-.789-.572.383-.849.416-1.352.004-.035.1-.073.328-.255Zm-15.386 23.434c.851.216 1.408.444 1.222 1.204-.049.214-.47.549-.563.505-.593-.317-.506-.939-.659-1.709Zm4.525-10.348c.235.075.47.194.4.436-.115.385-.129.918-.735.904-.234 0-.425-.139-.38-.409.042-.421.319-.782.715-.932v.001Z" fill="#312C93"/><path fill-rule="evenodd" clip-rule="evenodd" d="M838.86 151.599v26.172l-2.912 3.034-.056-.028c-.128-.072-.358.229-.402.505l-19.134 19.94v-11.486c.162.252.291.451.418.669.186.315.4.73.786.469.349-.235.201-.628-.083-.938-.254-.278-.478-.61-1.121-.599v-2.297c.192-.149.367-.33.322-.614-.033-.228-.197-.253-.289-.047a.203.203 0 0 1-.033.051v-22.535l1.95-2.033c.108.342.054.729.016 1.117-.033.318-.47.565-.312.99.051.746.067 1.513 1.101 1.59.936.075.738-.751.954-1.221.15-.314.103-.716.15-1.077.127-1.018.031-2.158.47-3.027.14-.276.082-.547-.034-.815l4.836-5.039c.302.46.664.885 1.083 1.184.852.615.254-1.194 1.279-.915 1.117.303 1.133-.983 1.15-1.453.039-1.077.648-1.807 1.351-2.98a2.012 2.012 0 0 1-.687-.19l5.343-5.568c.078.328.257.652.42.937a12.236 12.236 0 0 0 2.207 2.9c.668.614.668.985-.035 1.287-1.258.55-.476 1.059-.084 1.643.314.471.75.349 1.185.37l.161.004Zm-5.072 27.245c-.939-.317-.505-1.877-2.305-1.718 1.307-.453 2.043-.793 2.868-.136a1.563 1.563 0 0 0 1.466.234c.43-.159.939-.29 1.157.214a1.41 1.41 0 0 1-.33 1.619c-.901.772-2.331.824-2.903 2.149-.044.105-1.422.023-1.877-.65-.365-.542.162-1.218 1.099-1.474.269-.07.6.116.825-.238Zm-2.288-23.696c-.439-.664.335-.877.136-1.342-.111-.256-.629-.629.018-.805.35-.093.704.171.849.558.127.315.47.627-.079.909-.324.202-.635.43-.924.68Zm-6.103 18.674c-.627-.496-.571-1.068-.528-1.626.043-.559.355-1.059.919-.965.799.133.427.765.235 1.152-.239.444.002 1.042-.626 1.439Zm12.38-15.962c-.426-.579-1.725.235-1.661-.774.049-.786 1.138.517 1.643-.333.145-.249.765.148.789.469.024.322-.335.62-.771.638Zm-11.721 1.169c.258.814.469 1.408-.269 1.731-.27.123-.69.052-.73-.26-.078-.598.462-.905.999-1.471Zm4.597 24.531c.421.581 1.197 1.035.646 1.856a.592.592 0 0 1-.578.047c-.725-.615-.04-1.258-.068-1.903Zm-8.338-19.599c.216.673-.373.718-.703.939a.379.379 0 0 1-.566-.141c-.272-.405.03-.486.33-.5.35-.009.552-.469.939-.298Zm12.733-4.102c-.317-.399.128-.628.214-.938.103-.383.368-.648.746-.287.234.235.104.51-.132.704-.235.195-.412.581-.828.521Zm-4.925.454c.364.017.69.017.732.392.026.209-.044.469-.329.495-.396.031-.764-.075-.802-.535-.01-.116.284-.256.399-.352Zm-.109 25.56c-.098.092-.188.235-.258.235a.716.716 0 0 1-.673-.669c-.028-.206.143-.506.342-.37.259.176.4.53.589.804Zm-10.946-17.805c.315-.144.396.117.413.3.017.182-.045.504-.167.563-.234.115-.35-.174-.455-.347-.146-.235.056-.377.209-.516Z" fill="#E30611"/><path fill-rule="evenodd" clip-rule="evenodd" d="M838.86 201.963v37.328l-22.504 23.45v-37.327l22.504-23.451Z" fill="#312C93"/><path fill-rule="evenodd" clip-rule="evenodd" d="M838.86 261.746v37.33l-14.409 15.015c-.172-.472-.598-.653-1.12-.635-.439.015-.734-.042-.734-.511 0-.273.075-.704.39-.704 1.412-.014 1.07-1.805 2.196-2.126.303-.085.182-.472.054-.763-.253-.56-.7-.935-1.127-1.334l-.016.012c-1.031-.104.476-1.27-.535-1.312-1.011-.043-1.781-.678-2.72-1.124.265 1.834.605 2.056 3.302 2.389l.011-.009-.006.009.009.001-.022.017a2.96 2.96 0 0 0-.295.527c-.389 1.199-1.232 2.013-2.032 1.793-1.042-.289-.603-1.149-.589-1.831a.995.995 0 0 0 .001-.216c-.096-.503-.442-.911-.894-.723-.453.188-1.392.746-1.08 1.009 1.017.855.225 1.415-.115 2.011-.289.502-.101.85.162 1.174.263.323.115.45-.223.602-.579.263-.483.885-.682 1.38 1.157.052 1.419-1.72 2.722-1.269.023.666-.472 1.096-.587 1.642-.132.634-.336 1.314.154 1.906.188.234.866.213.505.703-.277.38-.742.807-1.279.235v.001c-.434.189-.764-.861-1.234-.109-.061.098-.096.312-.038.373.569.585.846-.18 1.272-.272l-.001-.018c.031.375-.296 1.126.392.924.227-.068.477-.105.724-.172l-4.66 4.856v-37.328l22.504-23.453Zm-7.437 44.69c-.939-.153-.889-1.152-1.727-1.227 1.219-.308 1.219-.308 1.727 1.227Zm-3.382-13.188c-.373.777-.882 1.23-1.947 1.589.563-.927.783-1.706 1.947-1.589Zm-10.266 25.332c.289.122.524.304.496.617a.51.51 0 0 1-.575.467.559.559 0 0 1-.469-.603c.021-.329.252-.463.548-.481Zm8.159-9.886-.559-2.347c.761.617.761.617.559 2.347Zm2.921-1.263c.058-.285.183-.561.495-.568.235 0 .276.234.235.444-.047.234.038.617-.395.567-.217-.023-.321-.22-.335-.443Z" fill="#E30611"/><path fill-rule="evenodd" clip-rule="evenodd" d="M838.86 323.264v3.661c-.207-.099-.46-.026-.641.161-.514.535-1.34.056-1.769.803.576.825 1.36.694 2.083.41.361.85-.508.862-.693 1.474.39.365.723.519 1.02.541v2.444a1.368 1.368 0 0 0-.079.591.263.263 0 0 0 .079.161v19.816l-.041-.003c-.798.026-1.655 1.032-1.546 1.986.035.34-.183 1.199.692.915.263-.086.589-.116.895-.175v4.546l-2.481 2.585c-.021-.257-.123-.465-.472-.509-.434-.056-.622.303-.824.606-.202.303-.467.718-.057.939.082.043.157.091.225.14l-5.574 5.809a.614.614 0 0 0-.026-.186c-.113-.386-.336-.799-.873-.869-.5-.066-1.04.092-1.04.526-.013.877-.908.837-1.124 1.257.894 1.332 1.58.366 2.287.08l-8.391 8.745a.583.583 0 0 0-.443.461l-3.711 3.867v-28.192c.81-.586 1.546-1.113 1.361-2.022-.178-.873.219-1.549.193-2.328-.026-.778-.259-1.187-.886-.865-.225.114-.454.225-.668.348v-3.87c.143-.11.218-.311.251-.487a.49.49 0 0 0 .008-.183l7.129-7.43c-.02.081-.036.162-.048.245-.113.784-.906 1.257-.672 2.222.259 1.091.761 1.049 1.643.831-.263-.704-1.147-1.091-.791-1.877.328-.103.49-.036.641.17.216.309.115.924.819.779.522-.061.948-.45 1.056-.964.167-.641-.575-2.583-1.141-2.623a1.508 1.508 0 0 0-.353.015l13.962-14.551Zm-16.12 33.682c-.209-.03-.584-.028-.601-.101-.3-1.443-1.614-1.041-2.508-1.354.058-.612.469-.42.807-.469.597-.073 1.387.258 1.582-.756.03-.15.504-.293.777-.298.751 0 .772.819 1.173 1.112.333.235 1.08-.49 1.56.186a.681.681 0 0 1 .162.38c-.014.234-.179.303-.434.34-1.502.214-1.519.234-2.53.939l.012.021Zm-.474 18.695c.017-.725.329-1.352.636-1.99.195-.392.309-.818.335-1.253.057-1.408.031-1.408 1.594-1.474-.246 1.915.295 4.224-2.567 4.694l.002.023Zm-.002-.012c-.79.572-.612 1.8-1.642 2.346a669.554 669.554 0 0 0-1.859-1.971c1.331-.16 2.272-1.152 3.499-.36l.002-.015Zm.277-28.139c.221 1.377-.514 2.888.608 4.16.082.091-.305.601-.545 1.046-.425-.451-.842-.783-1.115-1.208-.42-.662-.581-1.539.118-1.978.843-.531.955-1.19.918-2.016-.355-.469-1.214-.728-.653-1.544.277-.399.589-.904 1.173-.275.154.171.392.113.368-.188-.027-.361-.486-.864.357-.875.793 0 1.136.591 1.474 1.126.167.263-.167.688-.375.633-1.129-.3-1.462.939-2.32 1.117l-.008.002Zm.192 9.456c.115.249.176.662.354.72 1.174.392.568.984.235 1.559l.07.07c-.214-.662-.704-.206-1.046-.234-.343-.028-.655.33-1.136-.087.469-.693 1.222-1.216 1.539-2.025l-.016-.003Zm.579 2.278c.27.953-.035 1.642-.903 2.129-.41.234-.984.298-1.045.939l.009.03c-.168.879.832.81 1.175 1.336.284.447.617.794.373 1.256-.308.577-.796.974-1.484.401.826-.918.038-1.173-.636-1.46.494.379.651.921.691 1.512a.549.549 0 0 0-.589.153c-.234.235-.316.41.084.612.65.329.5.774.045 1.282-.594-.47-.824-1.132-1.066-1.776-.214-.575-1.133-.97-.704-1.643.47-.758 1.014-1.607 2.112-1.616v-.044l.004.034c.106-1.384.612-2.517 2.007-3.071l-.073-.074Zm13.254-12.237c.409 0 .723.115.777.572.07.582-.136 1.131-.739 1.126a2.075 2.075 0 0 1-1.385-.604c-.218-.238.734-1.033 1.347-1.094Zm-11.803 20.393c.648.193.409.634.392 1.054-.023.554-.234.783-.781.739-.548-.044-.763-.394-.629-.88.134-.485.448-.893 1.018-.913Zm-6.88-21.426c.509.533.91 1.174.743 1.753-.166.58-1.06.087-1.686.673.057-1.069.544-1.71.943-2.426Zm13.884 11.043c.084.439.22.734.174.995-.129.704 1.643.47.747 1.314-.369.355-1.197-.352-1.662-.703-.789-.573.381-.849.416-1.352.002-.033.097-.072.325-.254Zm-15.382 23.431c.853.214 1.407.441 1.224 1.203-.049.212-.469.547-.565.502-.596-.312-.508-.933-.659-1.705Zm4.525-10.344c.234.073.469.193.399.434-.118.386-.129.918-.737.904-.235 0-.423-.136-.378-.405.041-.425.318-.787.717-.935l-.001.002Z" fill="#312C93"/><path fill-rule="evenodd" clip-rule="evenodd" d="M838.86 396.269v25.598l-3.452 3.597c-.098-.01-.233.142-.311.325l-18.741 19.53v-10.164c.177.306.39.663.755.417.35-.236.199-.63-.084-.939-.183-.2-.351-.428-.671-.534v-26.108l1.465-1.527c.155.365.092.788.05 1.212-.031.319-.467.565-.312.99.05.746.064 1.514 1.104 1.589.936.075.739-.751.955-1.221.15-.314.101-.715.15-1.075.136-1.021.043-2.161.481-3.029.156-.309.064-.615-.079-.914l4.813-5.016c.314.49.691.945 1.133 1.26.852.618.251-1.194 1.279-.915 1.115.303 1.133-.98 1.15-1.45.038-1.079.648-1.807 1.352-2.98a1.984 1.984 0 0 1-.77-.233l5.404-5.632c.061.363.261.725.443 1.04a12.26 12.26 0 0 0 2.207 2.903c.669.612.669.983-.035 1.288-1.26.549-.477 1.058-.087 1.642.317.472.751.349 1.187.371.208.009.412 0 .614-.025Zm-5.525 27.272c-.939-.317-.505-1.877-2.307-1.718 1.31-.451 2.047-.79 2.87-.136a1.57 1.57 0 0 0 1.466.233c.427-.158.927-.291 1.155.214a1.405 1.405 0 0 1-.328 1.619c-.901.772-2.332.824-2.903 2.149-.047.109-1.422.023-1.876-.65-.364-.542.164-1.216 1.098-1.471.266-.069.6.107.825-.24Zm-2.288-23.696c-.439-.662.335-.877.136-1.339-.113-.259-.632-.632.018-.805.348-.096.704.169.85.557.126.314.469.626-.083.908a7.298 7.298 0 0 0-.921.678v.001Zm-6.103 18.675c-.627-.493-.57-1.066-.531-1.626.04-.56.355-1.059.92-.965.798.133.429.765.234 1.152-.236.443.006 1.041-.623 1.439Zm12.378-15.96c-.425-.579-1.725.235-1.659-.777.049-.786 1.136.517 1.642-.333.146-.246.768.148.789.47.021.321-.333.614-.772.64Zm-11.722 1.167c.261.814.47 1.408-.269 1.731-.269.123-.688.052-.728-.26-.077-.605.46-.906.997-1.471Zm4.612 24.531c.417.581 1.196 1.035.645 1.858a.612.612 0 0 1-.581.043c-.733-.613-.064-1.256-.064-1.901Zm-8.35-19.599c.214.674-.375.718-.703.939a.386.386 0 0 1-.569-.14c-.272-.409.033-.488.334-.502.348-.009.55-.468.938-.297Zm12.731-4.1c-.315-.399.132-.631.214-.938.106-.383.37-.646.748-.287.234.235.104.511-.133.704-.237.193-.411.578-.829.521Zm-4.923.451c.364.017.69.017.732.392.023.209-.044.469-.328.495-.397.031-.765-.075-.803-.535.002-.115.283-.246.399-.352Zm-.11 25.561c-.097.091-.185.234-.259.234a.724.724 0 0 1-.674-.669c-.026-.21.144-.51.346-.371.258.18.399.532.587.806Zm-10.945-17.805c.315-.144.397.119.41.3.014.18-.042.505-.164.563-.234.115-.35-.174-.455-.345-.162-.249.055-.38.209-.518Z" fill="#E30611"/><path fill-rule="evenodd" clip-rule="evenodd" d="M210.227 498.568h-24.275c-.155.486-.411.967-.805 1.232-.719.484-1.596-.099-2.035-1.232h-2.505c-.35.349-.577.872-.491 1.798-.24-.693-.458-1.277-.593-1.798h-6.624l-18.21 17.474c.23-.036.462-.013.697.104 1.272.643 2.942.502 4.437.704.528.07 1.116 0 1.577.22.68.317 1.896.028 1.788 1.409-.13 1.526-1.257 1.55-2.349 1.617-.623.234-.984-.41-1.45-.469-1.061-.104-2.113-.296-2.738 1.152a6.463 6.463 0 0 1-.137.293h30.261l23.452-22.504Zm-58.116 19.948-2.664 2.556h5.459a8.286 8.286 0 0 1-.257-.394c-.282-.458-.522-.974-.901-1.333-.308-.293-.669-2.67-1.251-.091-.045.189-.439.113-.396-.019.09-.287.081-.52.01-.719Zm50.587-16.385c-3.051 2.389-3.051 2.389-5.055-1.861l5.055 1.861Zm-27.424 7.153c-.723.918-1.563.833-2.384.774-.822-.059-1.55-.518-1.409-1.349.195-1.173 1.12-.627 1.687-.331.648.336 1.524-.014 2.106.906Zm14.268-7.704c.853-.612 1.515-1.751 2.722-.939.154.104.204.686.067.848-.903 1.055-1.844.07-2.789.091Zm-28.714 12.216c.988-.315 1.051.549 1.387 1.016.221.31.092.633-.206.83-.596.401-.704-.044-.734-.486-.023-.496-.698-.79-.447-1.36Zm32.104-11.278c.134.141.355.272.343.378a1.051 1.051 0 0 1-.981.984c-.304.04-.743-.209-.541-.502.259-.378.776-.583 1.179-.86Zm-26.089 16.035c-.211-.47.174-.58.439-.601.265-.022.742.061.826.234.167.347-.254.511-.506.667-.362.232-.552-.073-.759-.3Z" fill="#312C93"/><path fill-rule="evenodd" clip-rule="evenodd" d="M148.953 498.568h-2.434c.139.044.274.166.405.419.156.309.381.585.644.911l1.385-1.33Zm-36.499 14.635c-1.066-.024-1.981-.47-2.917-.939a4.726 4.726 0 0 0-1.834-.495c-2.068-.079-2.068-.044-2.157-2.335 2.816.361 6.176-.431 6.887 3.755l.021.014Zm-.022.004c.843 1.173 2.638.899 3.431 2.401l-2.886 2.722c-.234-1.95-1.687-3.325-.526-5.125l-.019.002Zm12.747-1.666c-.275 3.328-.416 3.495-2.718 3.52.644-1.357 2.206-2.004 2.718-3.52Zm21.069-12.973h-18.632c.385 1.457.74 2.847 2.603 3.371.819-.326.901-1.643 1.986-1.819.07.139.234.315.202.427-.362 1.227-1.547 2.753 1.102 2.785-.298.718 2.088.774.348 2.094-1.082.816-2.467 2.152-1.554 4.235-1.096-1.722-1.643-3.536-4.093-3.006-.446.097-1.196-.469-1.567-.939-.782-.964-1.563-1.466-2.729-.688a.762.762 0 0 1-1.125-.138c-.549-.623.047-.993.37-1.324.756-.769 2.281-.715 2.314-2.278.019-.857.434-1.762-1.107-.88-.451.258-.211-1.173-.08-1.173.708.011 1.121-.26 1.427-.667h-14.087l-4.363 4.186a.623.623 0 0 1 .681.68c0 .324-.087.664-.53.572a.704.704 0 0 1-.58-.676l-.001.003a.933.933 0 0 1 .002-.168l-.92.884c.525.844 1.19 1.713-.419 2.787-.446-.23-.536-.983-1.042-1.385l-3.623 3.476c.311-.107.695.026 1.062.039.812.031 1.148.34 1.082 1.143-.066.803-.577 1.117-1.288.919-.711-.197-1.311-.646-1.34-1.491.027-.088.057-.166.09-.233l-3.329 3.195c.611.451.906 1.095.202 1.933-1.344-1.208-1.708-.056-2.135.939.567-.742 1.36-.974 2.228-1.033a.797.797 0 0 0 .223.863c.345.347.6.469.899-.124.47-.95 1.136-.733 1.877-.066-.704.87-1.655 1.208-2.602 1.56-.84.315-1.409 1.661-2.424 1.033-.698-.435-1.448-.911-1.912-1.608l-5.29 5.076h31.507c.282-.803.675-1.249 1.546-1.043.31.073.803.703.737.828a1.49 1.49 0 0 1-.135.215h3.673l3.685-3.536-.118-.021c-.28-.043-.348-.355-.146-.432 1.482-.581.118-2.59 1.669-3.205.169.591-.028 1.529.514 1.817l9.264-8.891c-.375-.407-.901-.628-1.758-.226-.401.185-.732-.787-.281-1.34.793-.995 2.182-1.44 2.358-3.21 1.15.692 2.006 1.315 2.917 1.671l3.379-3.243c-.359-.161-.633-.489-1.035-.315-.375.162-.922.923-1.173-.027-.139-.512.249-1.019.817-1.247.224-.087.441-.244.654-.299Zm-20.567 8.942c.725.751 2.151-.202 2.801.993.078.143.071.486-.021.546-1.213.795-2.224-.214-3.334-.395-.528-.087-.809-.401-.629-.851.181-.451.65-.488 1.183-.293Zm10.224-.913c-.458 1.02-.204 2.199-.848 3.33-.4-1.953-.4-1.953.848-3.33Zm-31.597 8.593c.109-.343.284-.69.638-.582.566.169 1.345.188 1.326 1.077 0 .331-.204.619-.598.556a1.65 1.65 0 0 1-1.365-1.053l-.001.002Zm21.95-.187c0-.606.47-.375.62-.265.281.203.852.375.42.939-.129.168-.267.483-.394.469-.812-.039-.13-.926-.646-1.143Zm-15.633-10.114c.514-.425.924-.874 1.429-1.141.41-.219.385.295.422.509.136.817-.406 1.101-1.072 1.115-.246.005-.497-.294-.779-.483Zm10.712 2.329c-.315.035-.676.061-.73-.335-.044-.345.176-.641.563-.469.277.122.484.403.724.614l-.557.19Zm-2.914 8.537c.22-.41.65-.319.997-.394.573-.122.739.254.597.682-.063.195-.47.395-.704.39h-.053a.853.853 0 0 1-.836-.679l-.001.001Z" fill="#E30611"/><path fill-rule="evenodd" clip-rule="evenodd" d="M87.27 498.568H50.106l-5.36 5.142c.535.161 1.05.468 1.267 1.026.354.901-.927.704-1.115 1.281-.235.704-1.565.672-1.077 1.943.171.446-2.53 1.528-2.845 1.049a3.315 3.315 0 0 0-.838-.877l-3.145 3.018c.157.297.516.593 1.182.891.505.234-.02 1.035-.518 1.246-.637.272-1.554-.086-2.17-.693l-8.835 8.478h37.331l8.507-8.163c-.39-.088-.811-.098-1.268-.075l-.014-.033c.473-.075.959-.074 1.445-.049l13.309-12.772c-.135-.118-.277-.206-.435-.217-.068-.006-.124-.148-.39-.48.642-.122 1.075-.321 1.46-.251.338.061.528-.169.673-.464Zm-51.072 18.098c1.21.117 1.806-.193 2.25-1.585.486-1.525 1.717-2.837 2.74-4.149.26-.333 1.336-.279 1.284.193-.184 1.61.908.809 1.534 1.093 1.844.836 2.157 1.037 3.715.21.373-.2.526-.132.739 0 .286.18.47.526.14.763-1.373.988-2.862 1.76-3.285 3.71-.15.688-3.52.31-4.287-.401-.416-.39-.591-1.354-1.433-.763-.47.335-.47.939-.157 1.464.311.525.495 1.142 0 1.464-.888.591-1.409 1.408-1.983 2.245-.052.075-.668-.084-.86-.291-.675-.723-.703-1.947-2.085-2.159-.704-.11-.15-.878-.05-1.361.288-1.332 1.1-.522 1.738-.433Zm24.676-5.805c1.152.521 1.731-.774 2.748-1.159.321 1.29.382 2.029-1.216 2.405-1.408.335-2.112-.818-3.257-.98-1.101-.155-2.236-.906-2.14-2.284.056-.828 2.903-1.912 3.842-1.668.833.215 1.239.703 1.408 1.549.214 1.023-.688.879-1.14 1.196-.294.208-.395.443-.245.941Zm10.342 1.961c-.676.517-1.068 1.774-2.265.953-.585-.401-1.323-.861-.401-1.706.25-.234.164-.575-.277-.541-.528.042-1.265.703-1.282-.524-.013-1.159.866-1.661 1.643-2.156.382-.234 1.007.234.924.552-.439 1.642 1.378 2.142 1.643 3.398l.015.024Zm-20.814 3.944c.64.484 1.044 1.34 2.001 1.331.435 0 1.066-.704 1.174.27.04.321-.404.68-.563 1.049-.352.821-.791.319-1.265.148-1.373-.497-1.502-1.579-1.348-2.798Zm14.222 2.291c-1.086.488-1.861.972-2.507 0-.127-.19-.053-.748.113-.861.948-.627 1.537.112 2.394.861Zm-35.76.725c.176-.422.447-.767.901-.728a.744.744 0 0 1 .692.841.818.818 0 0 1-.884.704c-.498-.033-.694-.381-.709-.817Zm27.11-3.576c.092.3.189.589.27.883.153.54.157 1.03-.514 1.206a.884.884 0 0 1-.298.052.828.828 0 0 1-.299-.055c-.746-.546.106-.804.268-1.173.135-.308.05-.777.574-.913Zm-3.163-1.83c1.332.304.767 1.173.593 1.942-.058.251-.176.381-.436.355-.338-.035-.62-.219-.554-.566.11-.603.312-1.191.469-1.783l.008-.007c-.516.092-1.04.28-1.549.254a1.632 1.632 0 0 1-1.581-1.63v-.046c.036-1.115 1.368-1.464 2.078-1.476.873-.014 1.68.796 1.116 2.016-.127.275-.098.624-.143.939l.018-.013-.02.015Zm-16.437.023c.399-.115.593.139.633.451.08.615-.505.596-.84.668-.335.073-.915.061-.781-.579.113-.474.593-.493.988-.54Zm11.333-7.19c.444-.052.939-.082.824.517-.075.365-.47.666-.704.995-.255-.286-.598-.535-.752-.87-.34-.719.433-.426.632-.642ZM22.41 51.055V22.681h8.526a.97.97 0 0 1 .216-1.065c.599-.556.834 0 1.117.42.11.167.35.235.53.364v-.006c-.545-1.695.729-1.11 1.468-1.147.403-.022.96-.11.938.553-.023.535-.47.662-.938.704-.47.042-.953-.425-1.467-.113v.003a6.368 6.368 0 0 0-.568.287h20.175L67.84 8.084c-.165-.088-.33-.184-.506-.203-.453-.05-.115-.422-.035-.638.092-.259.27-.584.544-.219.151.201.443.287.645.447L74.39 1.89c-1.23-.16-2.469-.286-3.524-.989-.052-.032-.059-.131-.087-.199l-.001.002c-.532.232-.76-.04-.813-.532 0-.042.018-.088.042-.136H68.42c.266.656.619 1.304.678 1.979.04.448.023 1.323-.774 1.368-.673.038-.96-.648-.9-1.146.039-.365.034-.497-.261-.612-.33-.128-.537.093-.75.291l-.008-.011c-.08.976-1.12.194-1.409.777l.01.007c.242.413 1.503.55.531 1.267-.861.633-1.202-.47-2.034-.967.673-.326 1.098-.399 1.58-.234l-.046-.04.037.03c-1-.913-.019-1.479.427-2.492.415.702.366 1.424.935 1.708l.008.019C66.085.653 67.368.71 67.776.034L65.124.032c-.063.259-.232.512-.421.743-.141.167-.265.347-.526.69C63.714.573 62.65.705 62.04.03l-.719-.001c-.854.803-1.73 1.586-2.547 2.417-.153.157-.017.637-.47.385-.234-.134-.67-.502-.525-.606.837-.608-.477-1.532.362-2.072-.794.307-1.509.577-2.232-.128h-1.65a1.822 1.822 0 0 0-.06.192c-.118.457-.26.939-1.121.593-1.312-.527-2.873-.153-4.203-.79L43.132.017c.13.542-.392.515-.8.526-.14.021-.278.064-.405.127l.014.013a3.618 3.618 0 0 0-.143 1.453c.234 1.591-.387 2.31-1.95 2.455-.28.026-.556-.063-.835.094-.634.354-1.007.264-.808-.563a.994.994 0 0 0-.294-.997c-.271-.275-.321-.892-.772-.9l-.584.554c-.009.239.032.512-.084.737a2.867 2.867 0 0 1-.446-.233L32.038 7.07c.777-.159 1.564-.284 2.15-.912.206-.224.514-.374.732-.05.312.47 1.115.925.704 1.472-.638.835-.373 2.389-2.023 2.502-.47.03-.998.614-.972 1.36-1.478-.975-1.549-1.16-1.154-2.844-.746-.174-1.086 1.422-1.934.843L.015 37.49v22.736c.653-.115 1.205.18 1.794.851-.729.506-1.286.287-1.794.162v7.987c.268.31.494.736.86 1.081a4.31 4.31 0 0 0-.86.463v1.466l3.392-3.209c-.579-.38-.634-1.857-.087-2.483.887-1.011 1.427.092 2.088.392l.124.081 1.128-1.066a.458.458 0 0 1-.037-.138c-.068-.746.488-1.076 1.08-1.309h.011a.52.52 0 0 1 .341.127L22.41 51.055Zm-19.803 8.52a.61.61 0 0 1 .69-.38c.441.027.766.233.683.717-.021.127-.305.298-.47.3-.013.002-.028.002-.042.002a.9.9 0 0 1-.861-.64ZM42 .73l.004.003-.002-.003.02.004-.037-.03a1.192 1.192 0 0 1-.2-.69H40.44c.354.417.98.6 1.562.717ZM75.933.429l.411-.389h-.42c.011.12.015.248.01.389ZM71.401.036h-1.1c.245.168.575.279.431.715.28-.023.825.03.756-.202a2.175 2.175 0 0 1-.087-.513ZM50.824 16.342c-.61-.185-.624-1.054-1.471-.704.284.723.415 1.51-.413 2.084-.747-.43-.268-1.256-.8-1.77-.373-.356-.294-1.011.703-.995.83.014.669-1.173 1.273-1.692.595 1.012 2.036 1.662.708 3.077Zm1.328-11.597c-.355.793-.91 1.105-.81 1.736-.75-.169-.373-.915-.741-1.244-.326-.29-.647-.688-1.016-.028-.093.172-.047.66-.51.275-.461-.384-1.37.29-1.694-.587-.042-.113.05-.396.097-.399.703-.058 1.16-.889 2.05-.47.742.37 1.521.767 2.624.717Zm-14.516 9.577a.832.832 0 0 1 .617.803v.009c.032.58-.505 1.98-1.024 2.754-.834-1.68-.834-1.68.407-3.566Zm8.774-7.357c-.546.779-1.3.653-1.718 1.155-.682-.704-.703-1.397-.743-2.174 1.107-.136 1.811.291 2.461 1.019Zm-6.875 3.585c.42-.436.768.33 1.194.054.388-.256.854-.446 1.038.185.098.343-.204.97-.43.869-1.227-.557-.22 1.408-1.213 1.014-.889-.352-.157-1.227-.57-1.74-.066-.08-.017-.255-.019-.382ZM62.92 6.746c.482-.035 1.359-.622.967.618-.185.589-.37 1.248-1.086 1.565-.448-.829-.296-1.554.188-2.253l-.069.07ZM38.74 15.98c-.214-1.068-.336-1.793.17-2.687.897.928.963 1.64-.17 2.687Zm-8.819-.796c.066-.5.55-.377.83-.549.435-.262.97-.286 1.051.254.11.748-.558.383-.922.448-.364.066-.694.291-.959-.152Zm12.023 3.345c.906.157.826.688.976 1.075a.321.321 0 0 1-.233.469.398.398 0 0 1-.551-.188c-.09-.446-.156-.902-.19-1.356h-.002Zm11.058-3.879c-.043-.307.113-.535.302-.553.618-.054 1.15.128 1.357.795.07.234-.063.5-.258.517-.632.041-1.083-.29-1.401-.759Zm-38.7 11.498c.777.375 1.23.882 1.59 1.947-.928-.57-1.707-.79-1.59-1.947ZM55.986 8.267c.2 1.467.2 1.467-1.303 1.239a2.21 2.21 0 0 1 1.305-1.238l-.002-.001Zm.746-2.264-1.654-1.23c1.056-.053 1.41.49 1.654 1.23Zm3.997-.807c.281.1.53.197.47.45-.017.068-.405.097-.608.063-.12-.016-.535.235-.348-.21.065-.155.348-.221.486-.303Zm2.593-.698c-.204-.366-.955.688-.817-.252.059-.386.043-1.02.59-1.303.478.514.09 1.088.155 1.628l.002.014.007-.012c.325.064.725-.04.785.496.048.41.028.748-.469.725-.772-.038-.819.368-.655.939l.069-.061c-.375-.068-1.126.32-.667-.678.263-.57 1.129-.704 1.002-1.498l-.002.002Zm-4.187 6.852a.811.811 0 0 1 .705.555c.082.234-.21.51-.51.549a.527.527 0 0 1-.598-.45c-.066-.285-.066-.56.403-.654Zm-26.863 1.223 1.01-.088c0 .61-.428.159-.637.255-.104.047-.263-.023-.394-.04l.021-.127Zm27.23-2.806c-.3-.16-.704-.169-.869-.535-.014-.03.195-.235.235-.214.304.12.786-.052.863.457.022.083-.126.188-.23.292Zm-7.573-6.64c.137.14.395.285.4.435.012.434-.37.294-.612.298-.176 0-.498 0-.47-.234.046-.284.354-.418.682-.5Z" fill="#312C93"/><path fill-rule="evenodd" clip-rule="evenodd" d="M76.927 22.544h1.223l-.1-.13c.44-.082.734-.22.997-.17.704.126.47-1.643 1.314-.749.224.235.02.655-.25 1.05h24.601c.022-.085.048-.142.069-.142 1.144-.008 1.15-1.079 1.756-1.886.368.631.48 1.368.689 2.027h7.029l7.938-7.616-.908.191c1.052-1.232 1.353-1.585 2.067-1.303l2.71-2.601c-.447-.046-.903-.21-1.372-.554.234-1.075.653-1.687 1.985-1.262.156.05.552.29.939.327l.875-.84.007-.04c.019-.118.135-.2.285-.24L137.447.29a2 2 0 0 0-.269-.25h-36.8l-23.45 22.505Zm39.595-9.938c.385 1.27.875 2.23.824 3.33-.018.436.104.873-.368 1.187-.585.39-1.094 1.173-1.643-.087-.303-.704-.676-.704-1.288-.032a12.302 12.302 0 0 1-2.898 2.209c-.704.404-1.643.896-2.3-.256-.176-.302-.432-.581-.821-.084a.572.572 0 0 1-1.03-.212c-.145-.939-.884-1.133-1.432-.939-1.151.422-1.513-1.159-2.541-.821-.045.014-.176-.08-.174-.115.246-3.264-2.408-1.493-3.685-2.07-.532-.234-1.408.235-1.731-.565-.413-1.025.939-.939 1.206-1.725-1.262.066-2.184-.193-1.485-1.708-.965-.423-.143-1.735-.556-1.836-.79-.194-1.028-.995-1.62-1.14-1.433-.352-.32-1.12-.122-1.237a1.733 1.733 0 0 1 1.468-.105c.954.38 2.895.636 3.714.35.953-.33 1.655-.303 2.267.645.58.9 1.27 1 1.796-.133.159-.343.425-.704.833-.594 1.795.502 3.755.334 5.428 1.174.732.37 1.503.563 2.231.903.421.2.786.366.756.94-.031.572-.456.703-.843.9-.387.197-.69.03-1.054-.052-.755-.171-1.009.451-1.213.993a.704.704 0 0 0 .608.982c1.018.106 1.202 1.462 2.407 1.378 1.206-.084 2.313-.029 3.266-1.28Zm-26.47 4.133c.083 1.211-1.15 1.605-.748 2.783-1.077-.544-.51-1.14-.615-1.696 0 0-.154-.113-.215-.078-1.007.601-2.49.08-3.206 1.409-.218.408-.633.143-.939-.059-.305-.202-.659-.39-.605-.824.06-.486.439-.492.83-.47.94.054.808-.31.31-.813-.234-.235-.319-.497 0-.725a.555.555 0 0 1 .783.07c.43.39.364 1.433 1.328 1.114.47-.153 1.274.108 1.265-.889-.006-.085 1.052.732 1.813.178Zm32.756-7.892c-.038.901-.469 1.063-1.035 1.152-.469.073-1.427 0-.469.869-.371.174-1.089.325-1.073.063.061-.96-1.161-.601-1.234-1.486 1.258-.312 2.821 1.473 3.811-.598Zm-8.006-.16c.546-.208 1.03-.579 1.321-.469.521.207.185 1.319 1.156 1.319.078 0-.272.169-.405.281-.291.235-.704.74-.906-.06-.151-.61-.801-.575-1.166-1.07Zm-.129 2.606c-.194-.087-.497-.12-.338-.413.159-.294.364-.686.632-.768.33-.1.431.317.425.606-.013.452-.313.602-.719.575Z" fill="#E30611"/><path fill-rule="evenodd" clip-rule="evenodd" d="M138.445 22.544h4.219c-.326-.947-.471-1.574.077-2.26a1.547 1.547 0 0 0 .236-1.464 2.284 2.284 0 0 1-.135-.496l-4.397 4.22Zm4.453 0h2.388a2.154 2.154 0 0 1-.451-.87c-.071-.267.114-.6-.24-.827-.274.814-1.484.598-1.697 1.697Zm3.651 0h29.225l19.75-18.952c-.046-.09-.078-.243-.047-.308.186-.37.448-.416.735-.353l3.013-2.89h-37.329l-18.238 17.5.115-.004c.394 0 .771.165 1.037.455.77.9.824 2.332 2.149 2.902.092.041.042 1.078-.41 1.65Zm20.329-20.316.323-1.448c2.023.381 2.654 1.033 2.363 2.481-.166.83-.553.995-1.103.324-.351-.432-.774-.628-1.196-.888-.197.364-.535.401-.905.502-1.333.36-1.831 1.605-1.279 2.816a.672.672 0 0 0 .859.38c1.204-.703 1.173.036 1.016.848-.068.354-.284.675-.216 1.065.08.47.141.94.211 1.409-.523.288-.957-.19-1.471-.193-.765 0-1.032-1.075-.782-1.293.47-.403.47-.612.195-1.04-.321-.518-.632 0-.939 0-.43-.018-.568-.373-.364-.576.835-.834-.209-2.098.73-2.905a.506.506 0 0 0-.165-.762c-.28-.122-.627-.061-.669.315-.088.753-.976.774-1.173 1.429-.265-.988.716-1.577.681-2.469 0-.063.255-.22.338-.19 1.408.55.807-.985 1.532-1.393.351.894 1.624.602 2.014 1.588ZM146.786 17.45c.857.162.416.805.536 1.23.062.22.148.436-.151.47-.298.033-.727-.256-.642-.41.232-.41-.202-.961.257-1.29Zm29.252-3.565c-.201-.127-.558-.166-.53-.492.012-.134.289-.331.455-.343a.453.453 0 0 1 .501.526c-.015.223-.127.394-.426.31Zm-10.275.766c-.469-.413-.877-.688-.469-1.19a.42.42 0 0 1 .386-.075c.403.38.034.753.083 1.265Zm2.185-1.075c.199-.184.421-.343.66-.47.321-.122.307.2.293.364-.027.348-.307.44-.601.416-.096-.003-.181-.15-.352-.31Zm-18.718 2.29c-.057-.21 0-.282.188-.214a.825.825 0 0 1 .202.082c.145.115.119.223-.066.294-.185.07-.289.014-.324-.162Zm16.405 2.222c.038-.526.218-.725.509-.835.071.182.129.372.168.564.028.22-.047.448-.3.47-.252.02-.385-.138-.377-.199Z" fill="#312C93"/><path fill-rule="evenodd" clip-rule="evenodd" d="M199.715 22.544h37.329L260.444.09c-.578.34-.935 1.31-1.724.63-.103-.089-.066-.416.014-.68h-2.382c-.203.145-.458.154-.774 0h-32.411l-23.452 22.505Zm47.87-19.188c.188-.39.615-.375.988-.39.469-.016.884.313.852.704-.043.486-.596.383-.97.39-.451.03-.8-.156-.87-.704Z" fill="#E30611"/><path fill-rule="evenodd" clip-rule="evenodd" d="M261.235 22.544h37.328l20.676-19.84c-1.215.048-1.197-1.117-2.066-1.845 1.516.02 1.941.702 2.366 1.558L322.015.04h-27.159c-.49.364-.303.958-.802 1.1-.152-.92-1.038-.698-1.697-1.1h-7.67l-21.513 20.642c.139.04.286.088.437.144-.392.376-.75.482-1.088.481l-1.288 1.236Zm20.397-3.625c.052.758.049 1.286.131 1.8.195 1.212.144 2.212-1.304.962-.765-.66-1.237-.437-1.912-.019-.61.378-1.056-.058-1.159-.593-.104-.536.171-1.066.894-.88 1.313.342 2.108-.66 3.35-1.27Zm-5.096-3.084c.347.216.763.41.492.91-.22.409-.234 1.146-.746 1.12a.937.937 0 0 1-.769-1.12 1.08 1.08 0 0 1 1.024-.91h-.001Zm5.666.296c.338.09.826.048.777.637-.032.413-.154.847-.657.847-.439 0-.704-.343-.803-.751-.117-.51.195-.702.683-.733Z" fill="#312C93"/><path fill-rule="evenodd" clip-rule="evenodd" d="M321.022 22.544h37.329L381.803.041h-37.329l-23.452 22.503Zm29.875-1.159c-2.325 2.023-2.849-.3-4.097-.774 2.031-2.44 2.494.415 4.097.774Z" fill="#E30611"/><path fill-rule="evenodd" clip-rule="evenodd" d="M382.542 22.544h23.76c.338-.702 1.085-1.025 1.861-1.224.192-.05.633.234.703.443.06.2-.053.49-.251.781h11.256L443.19.168l-.029-.127h-2.282c-.533.973-1.015 1.904-1.602 2.771-.214.321-.623.965-1.232.382-.366-.35-.33-.734.012-1.08.658-.661.547-.996-.194-1.686a5.955 5.955 0 0 1-.377-.387h-15.073c-.479.927-1.186 1.76-1.533 2.742-.202.572-.703 1.047-.067 1.927 1.288-.939 3.423.045 4.313-2.046l-.054.053.04-.05c-.869.544-2.009.098-3.149 1.515.532-1.593.939-2.381.922-3.534 1.156.618.971 2.07 2.152 2.112l.013-.016c1.171 2.632.936 3.577-.91 4.956-1.313.985-1.209.272-1.073-.704-.91-.075-1.448.784-2.311.918-.603-.514-.159-1.387-.633-1.947-1.894 1.83-3.285 4.031-4.694 7.026-.101-1.617-.131-2.5-.22-3.377-.043-.423.234-1.011-.72-.967-1.162.057-.803-.9-.294-1.12 1.26-.541 1.173-1.25.601-2.188l.003-.004c-.829.44-1.643.664-1.877-.584-.124-.597-.144-1.211-.58-1.741 1.183.498 2.289.977 2.384 2.408l-.013.014.013.002c1.185.168 2.203-.053 2.855-1.004-.092-.882-.561-.717-.904-.563-.382.174-.772.47-1.075.019-.302-.451-.361-1.16.186-1.345 1.308-.442 1.137-1.575 1.4-2.502h-3.232c-.704 1.143-2.14 1.689-2.922.827-.878-.969-1.248-.82-2.091-.035-.558.522-1.643.817-2.065-.315a1.542 1.542 0 0 1-.108-.477h-.777l-3.569 3.426a2.55 2.55 0 0 1-.285.595c-.447.684-.975 1.254-1.665 1.276l-1.154 1.106c-.04.132-.12.228-.266.255l-1.238 1.188c.331.02.653-.034.981.01.575.078 1.15.647.861 1.321-.272.638-.744.79-1.479.235-.365-.28-1.105.04-1.498-.476l-4.312 4.138c.022.066.03.137.025.21-.03.362-.345.398-.658.396l-9.194 8.823Zm43.607-19.786c.725-1.266 1.778-1.173 2.816-.995.763.122 1.492.544 1.705 1.239.258.852-.866 1.621-.396 2.595-.272.07-.763.234-.782.2-.469-1.064-1.642-1.217-2.395-1.913a11.482 11.482 0 0 1-.948-1.126ZM406.477 5.13c-.403.627.505 1.877-.786 2.25-.528.158-2.553-2.124-2.412-2.89.234-1.282 1.699-.023 2.401-.94.201-.25 1.123.6.797 1.58Zm13.814 3.48c.585.073 1.098.104 1.047.655-.057.636-.47 1.33-1.056 1.323-.497 0-1.373-.556-1.408-.939-.108-1.043 1.129-.52 1.417-1.039Zm-8.39-2.742c-1.091.607-2.096.103-2.962.612-.663.387-1.014-.27-1.06-.704-.067-.61.531-.939 1.047-.847.884.17 1.724.535 2.975.939Zm-8.172 3.756c-.786.073-1.116 1.53-2.041.734-.129-.113-.033-.617.088-.877.661-1.375 1.309-.01 1.953.143Zm5.784-.36c.134-.43.296-.811.765-.896.41-.075.573.219.575.536 0 .5-.385.673-.802.748-.302.054-.643.085-.538-.387Zm22.352-.119c0-.255.138-.408.368-.356.378.087 1.009.145 1.063.347.164.587-.272.18-.425.127-.331-.12-.751.51-1.006-.118Zm-19.536 1.77c.216-.25.432-.734.721-.782.68-.114.356.502.436.829.079.327.377.824-.285.86-.453.012-.649-.415-.872-.907Zm-2.686 1.366c.234-.62.768-.47 1.222-.47.263 0 .425.254.265.364a9.207 9.207 0 0 1-1.267.644c-.073-.177-.152-.353-.22-.539Z" fill="#312C93"/><path fill-rule="evenodd" clip-rule="evenodd" d="M443.812 22.544h37.329L504.593.041h-19.439c0 .144-.01.299-.033.467a2.118 2.118 0 0 0-.245-.467h-17.611l-23.453 22.503Zm18.808-10.24c-1.643.345-1.52-.988-2.481-1.791 1.664.01 2.012.815 2.481 1.79Zm2.539-9.448c-.08-.584-.04-.992.486-1.086.31-.053.69.14.607.435-.122.431-.021 1.084-.647 1.199-.132.023-.348-.42-.446-.548Z" fill="#E30611"/><path fill-rule="evenodd" clip-rule="evenodd" d="M505.332 22.544h37.327L566.111.041h-3.958c.238.163.533.413.922.75-.511.5-1.286.658-1.683 1.287.311.1.845-.052.831.44-.014.451-.544.444-.807.33-.558-.235.232-.532.04-.829h-.002l-.162.009a1.6 1.6 0 0 1-.369-.044c-.381-.18-.047-.37.038-.542.202-.412 1.323-.253.844-.954-.359-.528-.546.66-1.084.49a.656.656 0 0 1-.136-.104c.245-.381.429-.66.599-.833h-9.567c.285.147.463.387.389.71-.115.505-.178 1.2-.957 1.273-.915.086-.184 1.464-1.345 1.396a6.247 6.247 0 0 0-1.407-2.598c-.232-.266-.345-.53-.341-.781h-15.08a.678.678 0 0 1-.345.484c-.333.197-.556.023-.37-.413l.029-.071h-3.407l-4.219 4.048c.281.037.55.132.573.448a.585.585 0 0 1-.58.665l-.036-.001c-.304-.028-.46-.262-.571-.523l-18.618 17.866Zm35.549-20.826c-.546.559-.199 1.662-1.445 1.437-.34-.062-.526.17-.552.535-.026.364-.023.734-.47.865-.175-1.574-.185-1.62 1.212-1.912.45-.091.399-.333.469-.596.07-.263.082-.48.786-.329Zm.413 3.582c-.234-.329-.638-.655-.627-.967.019-.434.587-.565.965-.653.286-.065.511.235.523.573.022.58-.499.734-.861 1.047Zm15.57-4.663c.234.32.939-.219.924.488 0 .526-.326.939-.843.927-.517-.012-.575-.488-.593-.918-.014-.364.126-.546.512-.497Zm1.061 1.143c.601-.47 1.093-.451 1.408-.814.171-.2.47-.075.587.162.15.333-.157.76-.324.677-.492-.241-.942.331-1.671-.025Zm-22.516 1.342c-.049-.563-.158-.875-.078-1.133.115-.383.317-.774.782-.866.067-.014.209.098.234.18.202.52-.148.704-.526.94-.154.09-.191.391-.412.88Zm19.082-1.974c.324-.047.387.15.47.295.159.326.91.251.593.878a.41.41 0 0 1-.288.156c-.566.056-.663-.375-.787-.777-.067-.16-.176-.32.012-.552Zm-26.197 9.724c.209.09.414.192.608.309.364.253.435.626.074.875-.362.248-.47-.144-.575-.404-.094-.207-.219-.396-.331-.596l.224-.184Zm3.032-7.412c-.356.223-.563.098-.509-.295a.352.352 0 0 1 .531-.278c.233.162.001.41-.059.617h-.001l1.146.587c-.563.073-1.267.514-1.096-.638l-.043.044.031-.037Zm4.541 1.497a.47.47 0 0 1-.51.342c-.265-.032-.434-.234-.338-.47a.484.484 0 0 1 .597-.192c.134.048.368.057.251.32Z" fill="#312C93"/><path fill-rule="evenodd" clip-rule="evenodd" d="M567.288 22.544h26.087c-.085-.29-.154-.557.244-.619.436-.067 1.066.375.939.596l-.011.023h1.842c-.592-1.188-.998-2.53-2.459-3.16-.155-.067-.036-2.083.952-2.745.796-.532 1.784.234 2.16 1.61.105.39-.167.874.353 1.203.47-1.363 2.758-.739 2.516-3.377.662 1.915 1.173 2.996.202 4.203a2.272 2.272 0 0 0-.347 2.146l.044.12h4.806L628.068.041h-1.802c-.529.28-1.071.533-1.622.256a3.993 3.993 0 0 0-.652-.256h-33.253l-23.451 22.503Zm10.039-8.236c3.051-2.389 3.051-2.389 5.057 1.861l-5.057-1.86Zm27.425-7.15c.725-.917 1.563-.833 2.384-.774.821.06 1.551.519 1.408 1.347-.194 1.174-1.121.627-1.687.334-.646-.34-1.523.016-2.105-.907Zm-14.267 7.701c-.854.612-1.516 1.753-2.719.94-.155-.104-.204-.689-.068-.848.9-1.054 1.843-.066 2.787-.092Zm28.712-12.216c-.985.315-1.049-.546-1.384-1.015-.22-.308-.092-.632.206-.83.597-.4.704.046.735.487.033.495.697.79.443 1.358Zm-32.089 11.28c-.133-.143-.354-.272-.342-.378.031-.528.45-.951.978-.988.305-.038.746.211.545.502-.275.38-.791.587-1.181.864Z" fill="#E30611"/><path fill-rule="evenodd" clip-rule="evenodd" d="M628.807 22.544h16.428c.377-.244.763-.475 1.157-.691 1.035-.597 2.398-1.317 3.368.37.066.117.142.23.226.322h.798c.057-.054.117-.119.178-.198a.843.843 0 0 1 1.477.197h13.696l8.974-8.61c-.325-.208-.555-.586-.66-.892-.371-1.062-1.943-2.087.08-3.436.618.316.557 1.628 1.842 1.642.411 0 .653.327.746.758l10.412-9.991a1.253 1.253 0 0 0-.392-.098l-.034.007c-1.298-.25-1.195 1.216-1.967 1.71-.653.418-1.161.906-1.837.546-.845-.448-1.429-1.16-.587-2.17 1.343 1.208 1.705.054 2.135-.939-.561.74-1.354.972-2.222 1.03a.792.792 0 0 0-.234-.863c-.343-.347-.601-.47-.897.127-.481.95-1.136.73-1.877.063.589-.729 1.353-1.085 2.141-1.387h-14.157c.393 1.065.72 2.044-.024 3.196l.018-.003c-.84-1.16-2.638-.899-3.431-2.403l.84-.79h-3.989a.855.855 0 0 1 .589.645c-.22.41-.65.32-.997.392-.572.122-.739-.254-.598-.683.048-.143.28-.29.493-.354h-8.243l-7.196 6.904c.299 1.529.209 1.63-.933 2.898.355-.77.289-1.632.513-2.495l-2.836 2.722c.148.29.167.79-.109 1.13-.795.996-2.186 1.442-2.36 3.216-.455-.274-.865-.537-1.25-.777l-2.83 2.716c.117.502-.269.995-.824 1.217-.267.106-.528.31-.779.32l-4.848 4.652Zm24.361-2.595c-1.155-1.98-.592-4.67-3.36-5.446-.819.324-.901 1.63-1.988 1.817-.068-.14-.234-.313-.202-.427.364-1.225 1.549-2.753-1.101-2.784.296-.717-2.088-.777-.347-2.093 1.08-.817 2.467-2.154 1.551-4.224 1.098 1.72 1.642 3.534 4.093 3.005.446-.096 1.199.47 1.569.94.781.966 1.563 1.468 2.727.687a.771.771 0 0 1 1.129.138c.55.624-.047.995-.37 1.326-.755.77-2.283.704-2.316 2.276-.018.856-.431 1.765 1.111.882.45-.258.209 1.161.079 1.161-1.692-.027-1.702 1.55-2.575 2.742ZM687.02 1.94c.181.014.357.031.531.055l2.036-1.953h-3.351c.45.487.765 1.09.775 1.899l.009-.001Zm-19.446 1.298c1.063.026 1.98.47 2.916.939a4.829 4.829 0 0 0 1.833.492c2.068.08 2.069.045 2.159 2.333-2.804-.361-6.179.431-6.89-3.755l-.018-.009Zm-12.728 1.664c.275-3.328.417-3.495 2.718-3.52-.641 1.354-2.204 2.006-2.718 3.52Zm24.832 2.005c-.282.94-.927.597-1.547.573-.809-.033-1.145-.343-1.081-1.143.064-.8.577-1.117 1.291-.922.713.194 1.309.643 1.337 1.492ZM654.347 8.93c-.728-.749-2.152.201-2.802-.99-.078-.144-.07-.486.021-.547 1.211-.795 2.224.214 3.335.395.525.087.807.399.626.852-.18.453-.648.484-1.18.29Zm21.369-7.681c-.105.343-.284.69-.636.584-.565-.171-1.344-.19-1.326-1.077 0-.33.202-.622.599-.556a1.62 1.62 0 0 1 1.364 1.049h-.001Zm-21.949.188c0 .606-.469.375-.617.265-.282-.204-.852-.373-.423-.94.132-.168.27-.469.397-.469.812.044.129.928.643 1.144Zm15.635 10.116c-.517.422-.925.873-1.429 1.14-.41.216-.387-.298-.422-.509-.139-.818.403-1.102 1.072-1.115.246-.004.497.297.779.484Zm-10.712-2.33c.315-.035.676-.061.73.335.045.346-.179.638-.563.47-.28-.124-.486-.406-.723-.618l.556-.187Zm14.504 3.886c.033.41-.197.615-.567.575a.626.626 0 0 1-.534-.672c0-.326.085-.667.528-.575a.718.718 0 0 1 .572.671l.001.001Z" fill="#312C93"/><path fill-rule="evenodd" clip-rule="evenodd" d="M690.08 22.544h17.595c.086-.116.183-.227.286-.331.142-.132.425.031.714.331h18.732l10.846-10.407-.089-.127c-.742.334-1.449.924-2.096.869-.732-.063-1.73-.338-2.053-1.173-.356-.901.924-.704 1.115-1.282.234-.704 1.565-.671 1.077-1.943-.171-.446 2.527-1.53 2.845-1.049.605.922 1.477 1.308 2.404 1.632l1.079-1.034a11.612 11.612 0 0 0-.565-.11c.331-1.173 2.518-2.346-.118-3.52-.504-.233.022-1.034.517-1.245.99-.425 2.652.67 2.816 1.856.02.138.047.27.08.397l1.226-1.176a2.88 2.88 0 0 1-.114-.181.32.32 0 0 1-.017-.284c.387-.614 1.107-.983 1.03-1.787.392.062.712.228 1 .431l2.47-2.37h-5.682c-.163.09-.356.064-.558 0h-2.263c-.326.243-.57.66-.78 1.318-.486 1.523-1.715 2.834-2.737 4.15-.261.333-1.339.279-1.284-.195.181-1.61-.91-.81-1.534-1.09-1.845-.836-2.157-1.038-3.715-.212-.373.199-.526.133-.739 0-.289-.179-.469-.526-.141-.763 1.25-.9 2.593-1.617 3.145-3.208h-6.999c.044.08.061.176.04.293-.111.604-.311 1.188-.468 1.783l-.008.005h.006l.002-.002c.514-.092 1.031-.277 1.541-.252a1.643 1.643 0 0 1 1.581 1.642v.032c-.035 1.114-1.367 1.463-2.079 1.476-.87.013-1.677-.794-1.116-2.013.129-.277.101-.625.143-.94l-.01.008.009-.007c-1.332-.305-.767-1.173-.591-1.946l.021-.08h-2.266a.579.579 0 0 1-.325.193l-.06-.192h-10.462l-2.627 2.521c.055.03.112.065.17.106.587.403 1.324.86.404 1.705-.251.234-.166.577.277.542.528-.04 1.262-.704 1.279.523.016 1.161-.866 1.661-1.643 2.16-.385.233-1.009-.235-.939-.553.358-1.341-.77-1.916-1.351-2.754L690.08 22.545ZM740.808.041h-1.714c.355.427.565 1.208 1.342.662a.866.866 0 0 0 .372-.662Zm-21.657 5.538c-1.151-.522-1.729.777-2.748 1.159-.319-1.29-.38-2.028 1.216-2.406 1.408-.335 2.112.819 3.259.984 1.101.154 2.236.905 2.14 2.28-.058.829-2.903 1.912-3.842 1.669-.833-.216-1.241-.704-1.408-1.547-.214-1.023.688-.882 1.141-1.199.291-.206.395-.443.242-.94Zm24.494-3.536c-.399.112-.596-.141-.636-.451-.078-.618.505-.597.843-.669.338-.072.914-.063.778.577-.102.48-.581.495-.985.543Zm-11.325 7.19c-.446.051-.939.082-.824-.52.075-.363.469-.663.704-.995.258.29.601.538.755.874.344.715-.435.426-.635.64Z" fill="#E30611"/><path fill-rule="evenodd" clip-rule="evenodd" d="M751.597 22.544h37.331L812.379.041h-37.33l-8.778 8.423 2.812-.672c-.839 1.05-.888 1.11-3.015.866l-14.471 13.886Zm9.59-5.357c.286-.126.568-.268.84-.424.572-.36 1.142-1.239 1.781-.204a1.408 1.408 0 0 1-.208 1.768c-.878.813-1.221.015-1.643-.617-.158-.233-.507-.357-.772-.53l-.001-.002.001.003-.005-.003.007.01c.795 2.47-1.07 1.616-2.15 1.672-.592.03-1.409.16-1.363-.812.032-.786.678-.971 1.361-1.025.73-.058 1.408.622 2.152.164Zm7.779-.537c.22-1.387 1.685-1.303 1.797-2.527.453 1.769.453 1.769-1.797 2.527Zm19.321-4.954c-1.138-.546-1.8-1.292-2.325-2.853 1.356.825 2.496 1.147 2.325 2.853Zm-20.779 1.192c.416.087.821.27.833.725 0 .329-.354.404-.65.347-.359-.067-.903.054-.833-.58.035-.316.324-.468.65-.492Z" fill="#312C93"/></svg>