<svg width="60" height="227" fill="none" xmlns="http://www.w3.org/2000/svg"><path d="M31.291 103.117c-.607.06-1.219.06-1.826 0v.406l.73-.325.69.487h-.568c-.406 0-.812 0-.65.65l1.056 1.38.812-.284v-.69h-.406.406v-1.868" fill="url(#a)"/><path d="M30.926 146.206h-.73l-.407-.487 1.137.649v-.162Zm.365-21.151h-1.989v26.063a1.535 1.535 0 0 0 1.096.772h.365l-.568.933-.893-.487v15.346h1.096c.316.018.63-.068.893-.244V151.89h-.244l.244-.244v-1.056h-.568l-.325-1.502v.203l-.284-.365h1.34v-4.709l-1.137-.934 1.299.244v-18.635" fill="url(#b)"/><path d="M30.966 88.583c-.365.569.325 1.665-.324 1.665l-.73-.244v.528c.446.243.933.65 1.338.65v-2.436h-.324" fill="url(#c)"/><path d="M30.276 80.26h-.974.974Zm0-5.155c0 .65-.446.812-.811.812h-.163v2.68h.447v-.325l.69.811h-.244l-.893-.203v3.29l.974.812v-.569h.812V78.8v.244-1.868h.243v-1.42l-.892-.975" fill="url(#d)"/><path d="M29.465 62.723v11.002h.243c1.056 0 .853 1.299 1.745 1.786V63.494l-.852.203h-.406l-.568-.934" fill="url(#e)"/><path d="m30.885 86.472.163.325.243-.163v-.04l-.406-.122Z" fill="url(#f)"/><path d="M31.29 83.955h-.283a1.461 1.461 0 0 1 0 1.3h.284v-1.462" fill="url(#g)"/><path d="M29.424 100.113v2.76h.852a1.865 1.865 0 0 0 1.137-.446v-.244c-.284-.812.324-1.827-.528-1.827h-.365v1.381c-1.136-.65.609-1.827-1.096-1.868" fill="url(#h)"/><path d="M29.302 73.846v1.218a.893.893 0 0 0 0-1.218Z" fill="url(#i)"/><path d="M30.926 205.154h-.73l-.407-.487 1.137.649v-.162Zm.365-21.151h-1.989v26.063a1.535 1.535 0 0 0 1.096.772h.365l-.568.933-.893-.487v15.346h1.096c.316.018.63-.068.893-.244v-15.548h-.244l.244-.244v-1.056h-.568l-.325-1.502v.203l-.284-.365h1.34v-4.709l-1.137-.934 1.299.244V183.84" fill="url(#j)"/><path d="M29.302 212.457v1.218a.893.893 0 0 0 0-1.218Z" fill="url(#k)"/><path d="M29.302 61.708v.487l.934-.203-.934-.284Z" fill="url(#l)"/><path d="M19.887 1.705h-.812a1.339 1.339 0 0 0 1.055-.528c0 .528 0 .69-.243.69v-.162ZM23.945.568h-1.989l-.405.447-.244-.65h-3.652l.243.244-1.461.325.568-.569H0v1.868h11.73c-.529-.284 0-1.015-.447-1.3 1.014 0 1.055.69.487 1.3h6.33c-.405-.447-.324-.61 0-.65V1.34h.853-1.014v.65h5.681l.285-.366h.69c0-.568 0-.73-.366-.73h-.933l-.528-.326c.464-.068.9-.265 1.258-.568" fill="url(#m)"/><path d="M30.56 17.05v.772h-1.258v.893a4.058 4.058 0 0 1 1.786-.446v-.244c-.244-.365-.325-.974-.73-.974" fill="url(#n)"/><path d="M59.254.365H25.57c.852.203.974 1.015 1.055 1.868h2.678v3.41c0 .487.569.771.73 1.177l-.73.366v7.023a2.719 2.719 0 0 0 1.462-.69 1.948 1.948 0 0 0 .527 1.583V2.273h27.963V.365Z" fill="url(#o)"/><path d="M31.088 31.098h-1.055v-.447l-.771-.447.406-.284c.446 0 .893.974 1.258 1.3l.162-.122Zm-.162-9.5-1.989.325v4.06l.244-.407v.487h.324c.325 0 .65 0 .65.812h-.853v6.415c.65-.366 1.38-.528 1.99-.934v-4.06l-.244-.852.243-.284v-5.684" fill="url(#p)"/><path d="M31.291 36.294a5.437 5.437 0 0 0-1.826.65v1.014h1.664v-1.745" fill="url(#q)"/><path d="M29.302 16.239v.609l.812.243a.975.975 0 0 0-.812-.852Z" fill="url(#r)"/><path d="M29.302 42.83v1.583l1.989.772v-1.543a4.058 4.058 0 0 0-1.989-.812Z" fill="url(#s)"/><path d="m34.335 37.268 1.34.122-1.34-.122Z" fill="url(#t)"/><path d="m29.302 80.18.974.08-.974-.08Z" fill="url(#u)"/><path d="m28.937 80.139.365.04-.365-.04Z" fill="url(#v)"/><path d="m43.304 111.48 1.34.122-1.34-.122Z" fill="url(#w)"/><path d="m7.508 11.936 1.258.771-1.258-.771ZM9.74 44.941l.934 1.38-.934-1.38Z" fill="#58595B"/><defs><linearGradient id="a" x1="-114.987" y1="1330.31" x2="2351.48" y2="1330.31" gradientUnits="userSpaceOnUse"><stop stop-color="#B47E11"/><stop offset=".51" stop-color="#EAD98B"/><stop offset="1" stop-color="#B47E11"/></linearGradient><linearGradient id="b" x1="-132.15" y1="18607.5" x2="2624.6" y2="18607.5" gradientUnits="userSpaceOnUse"><stop stop-color="#B47E11"/><stop offset=".51" stop-color="#EAD98B"/><stop offset="1" stop-color="#B47E11"/></linearGradient><linearGradient id="c" x1="-63.559" y1="1210.8" x2="1532.41" y2="1210.8" gradientUnits="userSpaceOnUse"><stop stop-color="#B47E11"/><stop offset=".51" stop-color="#EAD98B"/><stop offset="1" stop-color="#B47E11"/></linearGradient><linearGradient id="d" x1="-112.32" y1="3616.8" x2="2305.83" y2="3616.8" gradientUnits="userSpaceOnUse"><stop stop-color="#B47E11"/><stop offset=".51" stop-color="#EAD98B"/><stop offset="1" stop-color="#B47E11"/></linearGradient><linearGradient id="e" x1="-109.324" y1="5586.17" x2="2260.45" y2="5586.17" gradientUnits="userSpaceOnUse"><stop stop-color="#B47E11"/><stop offset=".51" stop-color="#EAD98B"/><stop offset="1" stop-color="#B47E11"/></linearGradient><linearGradient id="f" x1="2.564" y1="226.756" x2="486.135" y2="226.756" gradientUnits="userSpaceOnUse"><stop stop-color="#B47E11"/><stop offset=".51" stop-color="#EAD98B"/><stop offset="1" stop-color="#B47E11"/></linearGradient><linearGradient id="g" x1="11.182" y1="715.04" x2="349.686" y2="715.04" gradientUnits="userSpaceOnUse"><stop stop-color="#B47E11"/><stop offset=".51" stop-color="#EAD98B"/><stop offset="1" stop-color="#B47E11"/></linearGradient><linearGradient id="h" x1="-109.368" y1="1397.44" x2="2260.45" y2="1397.44" gradientUnits="userSpaceOnUse"><stop stop-color="#B47E11"/><stop offset=".51" stop-color="#EAD98B"/><stop offset="1" stop-color="#B47E11"/></linearGradient><linearGradient id="i" x1="12.571" y1="599.889" x2="298.245" y2="599.889" gradientUnits="userSpaceOnUse"><stop stop-color="#B47E11"/><stop offset=".51" stop-color="#EAD98B"/><stop offset="1" stop-color="#B47E11"/></linearGradient><linearGradient id="j" x1="-132.15" y1="18666.4" x2="2624.6" y2="18666.4" gradientUnits="userSpaceOnUse"><stop stop-color="#B47E11"/><stop offset=".51" stop-color="#EAD98B"/><stop offset="1" stop-color="#B47E11"/></linearGradient><linearGradient id="k" x1="12.571" y1="738.5" x2="298.245" y2="738.5" gradientUnits="userSpaceOnUse"><stop stop-color="#B47E11"/><stop offset=".51" stop-color="#EAD98B"/><stop offset="1" stop-color="#B47E11"/></linearGradient><linearGradient id="l" x1="-35.844" y1="272.122" x2="1076.51" y2="272.122" gradientUnits="userSpaceOnUse"><stop stop-color="#B47E11"/><stop offset=".51" stop-color="#EAD98B"/><stop offset="1" stop-color="#B47E11"/></linearGradient><linearGradient id="m" x1="-1716.45" y1="964.411" x2="27591.4" y2="964.411" gradientUnits="userSpaceOnUse"><stop stop-color="#B47E11"/><stop offset=".51" stop-color="#EAD98B"/><stop offset="1" stop-color="#B47E11"/></linearGradient><linearGradient id="n" x1="-95.325" y1="735.977" x2="2032.64" y2="735.977" gradientUnits="userSpaceOnUse"><stop stop-color="#B47E11"/><stop offset=".51" stop-color="#EAD98B"/><stop offset="1" stop-color="#B47E11"/></linearGradient><linearGradient id="o" x1="-2325.35" y1="6365.48" x2="37815.7" y2="6365.48" gradientUnits="userSpaceOnUse"><stop stop-color="#B47E11"/><stop offset=".51" stop-color="#EAD98B"/><stop offset="1" stop-color="#B47E11"/></linearGradient><linearGradient id="p" x1="-135.343" y1="5124.09" x2="2669.68" y2="5124.09" gradientUnits="userSpaceOnUse"><stop stop-color="#B47E11"/><stop offset=".51" stop-color="#EAD98B"/><stop offset="1" stop-color="#B47E11"/></linearGradient><linearGradient id="q" x1="-97.992" y1="790.209" x2="2078.29" y2="790.209" gradientUnits="userSpaceOnUse"><stop stop-color="#B47E11"/><stop offset=".51" stop-color="#EAD98B"/><stop offset="1" stop-color="#B47E11"/></linearGradient><linearGradient id="r" x1="-27.348" y1="384.467" x2="939.939" y2="384.467" gradientUnits="userSpaceOnUse"><stop stop-color="#B47E11"/><stop offset=".51" stop-color="#EAD98B"/><stop offset="1" stop-color="#B47E11"/></linearGradient><linearGradient id="s" x1="-109.487" y1="1059.85" x2="2260.29" y2="1059.85" gradientUnits="userSpaceOnUse"><stop stop-color="#B47E11"/><stop offset=".51" stop-color="#EAD98B"/><stop offset="1" stop-color="#B47E11"/></linearGradient><linearGradient id="t" x1="-59.135" y1="89.871" x2="1536.84" y2="89.871" gradientUnits="userSpaceOnUse"><stop stop-color="#B47E11"/><stop offset=".51" stop-color="#EAD98B"/><stop offset="1" stop-color="#B47E11"/></linearGradient><linearGradient id="u" x1="-38.677" y1="115.249" x2="1122.05" y2="115.249" gradientUnits="userSpaceOnUse"><stop stop-color="#B47E11"/><stop offset=".51" stop-color="#EAD98B"/><stop offset="1" stop-color="#B47E11"/></linearGradient><linearGradient id="v" x1="3.446" y1="97.672" x2="438.694" y2="97.672" gradientUnits="userSpaceOnUse"><stop stop-color="#B47E11"/><stop offset=".51" stop-color="#EAD98B"/><stop offset="1" stop-color="#B47E11"/></linearGradient><linearGradient id="w" x1="-50.163" y1="164.087" x2="1545.76" y2="164.087" gradientUnits="userSpaceOnUse"><stop stop-color="#B47E11"/><stop offset=".51" stop-color="#EAD98B"/><stop offset="1" stop-color="#B47E11"/></linearGradient></defs></svg>