<svg width="61" height="61" fill="none" xmlns="http://www.w3.org/2000/svg"><path fill-rule="evenodd" clip-rule="evenodd" d="M29.657 2.105c.189.104.37.204.47-.127l.038-.12c.093-.29.222-.694.082-.857a30.07 30.07 0 0 1 6.028.455c.089.176.231.295.401.24.298-.099.467.058.617.198.088.082.17.159.27.173a1.22 1.22 0 0 0 .18-.311A29.752 29.752 0 0 1 43.45 3.7v.002l-.001.002c.084.136.21.171.337.153.909.43 1.791.903 2.645 1.418a5.715 5.715 0 0 0-.285.216c-.071.056-.142.112-.215.165-.213.156-.19.364-.046.537.336.405 1.15.396 1.504.005l.033-.036a.793.793 0 0 0 .134-.175c.255.17.508.342.758.519l-.016.01c-.09.06-.182.12-.094.284.242.439.706.598 1.161.49.149.114.297.231.443.349-.338.097-.674.232-.971.549.64.253.976.005 1.26-.316a30.104 30.104 0 0 1 9.227 13.242l-.006.011c-.037.072-.077.148-.12.156-.252.05-.478-.025-.706-.1a1.982 1.982 0 0 0-.496-.117 26.45 26.45 0 0 0-.383-.979c-.003-.082-.004-.167-.005-.252-.005-.44-.01-.906-.354-1.307.018.274.034.55.047.826A28.957 28.957 0 0 0 44.74 5.727l.125-.063c.274-.137.491-.245.534-.536.008-.054-.252-.222-.377-.21-.396.04-.453.315-.43.729a28.746 28.746 0 0 0-2.38-1.144l.09-.17.002-.004.002-.005.182-.35c-.263-.246-.57-.261-.867-.276-.247-.013-.487-.025-.694-.167l.001-.003v-.002l.001-.002-.007.004.007-.004-.008.002c-.645-1.176-1.517-.922-2.4-.665-.203.059-.407.119-.61.16l.02.052a28.708 28.708 0 0 0-6.934-.847c-7.156 0-13.71 2.628-18.75 6.968a6.418 6.418 0 0 0-.624-.042 6.844 6.844 0 0 1-.587-.038c-.22-.027-.356.073-.353.235.012.68-.43.855-.938 1.059l-.08.032c-.308.123-.568.485-.41 1 .26-.098.495-.103.716-.057-.25.269-.496.54-.737.818a.472.472 0 0 0-.157-.198c-.255-.166-.426-.002-.599.164-.18.174-.363.35-.645.152-.076-.054-.214.181-.1.223.203.076.269.217.294.376-.257-.151-.417-.058-.263.344.118.3 0 .35-.172.423l-.027.011-.03.015-.018.008a.666.666 0 0 0 .004-.02l.002-.01.002-.011-.02.016-.013.012a2.261 2.261 0 0 1-.06-.052 1.36 1.36 0 0 0-.106-.087c-.164-.119-.333-.223-.513-.026-.025.028-.053.087-.041.108.108.184.276.286.486.234a.25.25 0 0 0 .076-.036c-.175.173-.189.41-.099.66a.768.768 0 0 1-.415.116.294.294 0 0 0-.252.159c-.143-.22-.367-.275-.603-.305a30.038 30.038 0 0 1 2.465-3.23.397.397 0 0 0 .08-.09c5.262-5.96 12.85-9.818 21.33-10.141-.013.053-.016.118-.02.185-.008.178-.018.372-.2.4-.098.015-.19.076-.304.153-.06.039-.125.082-.2.126.057.035.097.064.126.085.043.03.063.045.079.04.104-.027.22.037.335.1ZM7.525 13.678l-.017.037a.027.027 0 0 1 .004.007.779.779 0 0 0-.099.06l.02-.02.06-.056.01.01.003.002a1.1 1.1 0 0 0 .02-.04Zm8.095 42.59a.852.852 0 0 1 .105-.052c.22-.088.371-.286.318-.485-.076-.28-.217-.177-.345-.084a.66.66 0 0 1-.114.074c-.114.05-.202-.005-.295-.062-.122-.076-.254-.158-.469-.016.052.07.102.132.15.19.096.12.178.222.238.337.128.247.269.173.412.097Zm-8.656-7.57c.033.07.212.102.32.094.105-.008.253-.056.172-.234a1.63 1.63 0 0 1-.028-.031c-.07-.081-.142-.166-.267-.089l-.016.01-.03.017h-.001c-.095.054-.206.117-.15.233Zm5.148 3.972a28.807 28.807 0 0 0 8.431 5.119c-.056.03-.112.06-.165.092a8.273 8.273 0 0 0-1.085.731 30.186 30.186 0 0 1-13.3-11.07v-.004c.043-.175-.04-.36-.213-.407a.598.598 0 0 0-.07-.016 29.82 29.82 0 0 1-4.185-10.52c.077-.095.175-.183.309-.267.398-.251.305-.751.066-1.127-.106-.166-.25-.306-.407-.46-.074-.072-.152-.147-.23-.23a4.276 4.276 0 0 1-.048.087 27.083 27.083 0 0 1-.086-.82.1.1 0 0 1 .01.002h.017c.153-.001.425-.084.441-.168.086-.446.374-.437.656-.427h.003l.06.002c.18 2.389.656 4.696 1.388 6.888l-.072.08c-.25.274-.447.491-.228.816.044.065.261.093.335.043.117-.078.18-.162.203-.253a28.79 28.79 0 0 0 5.3 9.028.197.197 0 0 0 .015.224c.03.043.055.095.08.147.082.168.165.341.457.248a28.818 28.818 0 0 0 1.796 1.795.392.392 0 0 0 .03.183c.113.251.278.309.492.284ZM5.797 16.028a.204.204 0 0 1 .038-.055v-.037c-.015-.242-.181-.44-.435-.574-.153.25-.303.502-.449.757.098-.043.21 0 .326.046.185.072.376.147.52-.137ZM39.764 3.556c.391.046.775.09 1.157-.03l.001.002.003.001.001.001h.002a1.016 1.016 0 0 0-.013.458 28.853 28.853 0 0 0-1.31-.446c.046.002.09.006.134.01l.025.004ZM4.112 18.02c.029-.12.273-.313.322-.287.26.136.291.377.33.68.012.092.025.19.045.293-.486-.122-.8-.252-.697-.686Zm-1.474 6.05c-.041.25-.167.442-.408.532-.134-.042-.269-.111-.227-.248l.03-.112c.048-.198.1-.41.39-.404.127.003.24.079.215.233Zm2.722-6.418c-.091.202-.558-.193-.74-.399-.177-.198-.03-.471.221-.616l.018-.008.01-.003c-.02-.1-.033-.2-.033-.304a30 30 0 0 0-1.981 4.276c.107.113.22.232.341.362l.001.001.002.002.002.002.001.001.002.002.246.262c-.258.03-.49.117-.712.199-.068.025-.135.05-.201.072a29.76 29.76 0 0 0-1.319 5.859c.165-.198.391-.283.681-.06v-.012c.13.045.243.004.336-.088.135-.134.18-.234-.05-.35-.37-.186-.284-.44-.025-.729.184.147.306.324.402.514a28.563 28.563 0 0 1 2.96-8.99.412.412 0 0 1-.162.006Zm34.713 41.535c-.221-.006-.524-.014-.391.394.012.038.022.077.031.117a29.922 29.922 0 0 1-11.488 1.163.687.687 0 0 0-.032-.1c-.118-.292-.366-.285-.608-.28-.136.004-.27.008-.379-.041-.23-.105-.541-.074-.853-.043-.669.066-1.342.132-1.247-1.137.002-.02-.074-.073-.098-.065-.271.088-.46-.056-.652-.214a28.765 28.765 0 0 0 10.537.51c.008.01.016.02.025.027.15.136.292.15.444.04.068-.049.103-.1.115-.151a28.678 28.678 0 0 0 14.453-6.778.834.834 0 0 0 .21-.187 28.56 28.56 0 0 0 1.555-1.497.488.488 0 0 0 .5.387c.276-.005.794-.14.807-.574a.63.63 0 0 0-.536-.643c.89-.998 1.71-2.059 2.457-3.173l.021.005a.1.1 0 0 1-.005-.03c.151-.228.302-.46.448-.692l.008.043.007.039.008.041.026.149c.057.344.135.82.503 1.145-.276.411-.56.814-.854 1.21-.143-.105-.281-.074-.346.129-.005.022.01.077.044.154a.114.114 0 0 0-.05.066 1.781 1.781 0 0 1-.052.181c-.244.314-.497.624-.752.928a9.574 9.574 0 0 1-.268.188c-.07.048-.14.096-.209.146-.096.07-.078.164-.015.235a30.103 30.103 0 0 1-12.617 8.458 1.024 1.024 0 0 0-.616-.15 1.121 1.121 0 0 1-.13 0Zm17.022-14.113a.815.815 0 0 0 .218-.135.605.605 0 0 1 .331-.178 30.99 30.99 0 0 1-.515.952c-.128-.004-.237-.028-.292-.168-.116-.289.071-.38.258-.47Zm1.044-1.315c.351-.74.672-1.496.96-2.267a6.311 6.311 0 0 1-.093.004l-.083.004c-.076-.633.166-1.032.58-1.404.024.017.044.034.065.05a29.865 29.865 0 0 0 1.128-4.912 1.203 1.203 0 0 1-.45-.596 3.56 3.56 0 0 1 .535-.05c.063-.518.11-1.04.146-1.565a.366.366 0 0 1-.132.107c-.016.008-.13-.11-.12-.14a.643.643 0 0 0 .03-.174c.013-.143.026-.286.23-.317a.047.047 0 0 1 .023.004 29.846 29.846 0 0 0-.15-4.87.682.682 0 0 1-.253-.202.71.71 0 0 1 .216-.117 29.736 29.736 0 0 0-1.289-5.735.371.371 0 0 1-.213.063 1.065 1.065 0 0 1-.172-.014.87.87 0 0 0-.203-.013c-.253.023-.247.25-.154.355.041.044.101.08.16.114.152.09.296.175.07.409-.166.173-.314.084-.466-.008l-.032-.019c.136.434.26.873.375 1.315.029-.061.063-.123.107-.184.659 1.117.822 1.456.245 1.714.166.826.294 1.666.39 2.516.04-.046.072-.103.104-.16.092-.164.186-.33.466-.26.139.187.053.344-.033.502a.76.76 0 0 0-.105.262c-.024.204-.153.133-.268.069a.699.699 0 0 0-.096-.048l-.031-.013c.062.649.104 1.302.122 1.962l.015.005c.33.103.685.214.86.608-.307.167-.591.188-.862.105v.022l.001.043.002.067c0 2.161-.242 4.268-.696 6.294.05.008.102.009.162 0-.04.162-.122.233-.224.268a27.15 27.15 0 0 1-.412 1.556c.003.122-.01.238-.096.33a28.797 28.797 0 0 1-1.231 3.27c.528.058.796.402.872 1.05ZM1.19 32.084c0 .001 0 .003-.002.005h.004l-.058.04-.109.077a26.012 26.012 0 0 1-.017-.516c.058.036.093.141.128.246.017.052.034.104.055.148Zm.717-4.724c-.394.462-.037.614.317.765l.074.032c-.265-.206-.36-.487-.391-.797Zm-.586 4.742a2.09 2.09 0 0 1-.13-.012s.002 0 .002-.002l-.001-.002-.001-.002c.11-.281.314-.501.517-.72.127-.138.255-.276.358-.428-.187-.163-.333-.12-.466-.081-.063.018-.122.035-.182.03a.553.553 0 0 0-.196.035c-.077.023-.154.046-.222.032 0-.066 0-.132.002-.198l.001-.09c.607-.312.866-.851.944-1.503a.487.487 0 0 0 .025-.118.033.033 0 0 1-.003-.01.45.45 0 0 0 .004-.034v-.001a1.06 1.06 0 0 0 .334-.058 29.243 29.243 0 0 0-.074 2.052c0 .61.022 1.215.06 1.816-.346-.05-.66-.164-.763-.662-.006-.027-.107-.035-.209-.044Zm21.611 26.501a.572.572 0 0 0 .53.15 29.76 29.76 0 0 1-.53-.15ZM1.623 28.511c.197.102.388.2.349.487h-.01a3.71 3.71 0 0 1-.016.163c-.065.191-.236.265-.404.338-.057.025-.114.05-.167.079-.146.08-.264.172-.354.275.023-.613.063-1.221.123-1.824.025.04.052.08.08.122l.078.118c.072.113.198.178.321.242Z" fill="#986B0D"/><g clip-path="url(#a)"><path d="M45.975 17.672a1.971 1.971 0 0 0-1.946-.418l-28.678 9.453a1.955 1.955 0 0 0-1.35 1.778 1.955 1.955 0 0 0 1.177 1.896l7.093 3.103 2.14 9.924c.088.413.298.78.74.893.45.114.766-.13 1.1-.381l5.264-3.941 6.153 5.035a1.958 1.958 0 0 0 1.879.34 1.957 1.957 0 0 0 1.284-1.413l5.73-24.366a1.97 1.97 0 0 0-.586-1.903ZM26.71 35.262a.27.27 0 0 0-.01.029l-1.186 4.145-1.324-6.14 9.104-5.059-6.365 6.656a.958.958 0 0 0-.219.37Zm.377 5.64.538-1.883.516-1.801 1.847 1.511-2.901 2.172Zm17.61-21.766-5.73 24.366c-.004.012-.007.029-.035.038-.028.01-.042 0-.051-.009l-6.733-5.51-3.12-2.552 10.022-10.48a.958.958 0 0 0-1.157-1.498l-14.84 8.244-7.107-3.109c-.021-.01-.033-.015-.032-.051.002-.037.014-.041.037-.048l28.678-9.454c.014-.004.03-.01.052.011.024.022.02.038.016.052Z" fill="#986B0D"/></g><defs><clipPath id="a"><path fill="#fff" transform="translate(13.999 15)" d="M0 0h32.615v32.615H0z"/></clipPath></defs></svg>