<svg width="22" height="22" fill="none" xmlns="http://www.w3.org/2000/svg"><g clip-path="url(#a)" fill="#fff"><path d="m21.044 20.264-7.417-7.417a7.452 7.452 0 1 0-1.052 1.052l7.417 7.417a.744.744 0 0 0 1.052-1.052ZM7.87 14.094a5.958 5.958 0 0 1-5.952-5.952 5.952 5.952 0 1 1 5.952 5.952Z"/><path d="M11.59 7.398H8.614V4.422a.744.744 0 1 0-1.488 0v2.976H4.15a.744.744 0 1 0 0 1.488h2.976v2.976a.744.744 0 1 0 1.488 0V8.886h2.976a.744.744 0 1 0 0-1.488Z"/></g><defs><clipPath id="a"><path fill="#fff" transform="translate(.406 .678)" d="M0 0h20.846v20.846H0z"/></clipPath></defs></svg>