<svg width="61" height="70" viewBox="0 0 61 70" fill="none" xmlns="http://www.w3.org/2000/svg">
<path d="M52.9338 19.791C53.3063 19.889 53.5158 20.2659 53.4228 20.6316L53.0503 22.0223L54.4472 22.3952C54.8118 22.4936 55.0289 22.8693 54.9281 23.2361C54.835 23.6013 54.4547 23.8199 54.0901 23.721L51.3662 22.9932L52.0958 20.2765C52.1732 19.9704 52.4526 19.7676 52.7631 19.7676C52.8176 19.7676 52.8796 19.7754 52.9338 19.791ZM45.2283 19.886C45.6005 19.9843 45.8179 20.3609 45.717 20.7268L43.9633 27.252L50.5126 28.9995C50.8775 29.0978 51.0946 29.4744 50.9937 29.8404C50.9007 30.2052 50.5206 30.4242 50.1479 30.3253L42.2795 28.2221L44.39 20.3709C44.4677 20.0645 44.7471 19.8628 45.0573 19.8628C45.1118 19.8628 45.1738 19.8698 45.2283 19.886ZM37.895 26.1097C38.2596 26.208 38.477 26.5846 38.3837 26.9503L37.2663 31.1074L41.4334 32.2212C41.7983 32.3187 42.0154 32.6961 41.9224 33.0613C41.8215 33.427 41.449 33.6468 41.0765 33.5468L35.5746 32.0781L37.0492 26.5955C37.1344 26.2883 37.4138 26.0863 37.7164 26.0863C37.7709 26.0863 37.8329 26.0936 37.895 26.1097ZM60.9112 17.499C61.0973 17.8276 60.981 18.2476 60.6549 18.4373L30.8411 35.5937C30.5153 35.7848 30.0961 35.6703 29.9022 35.343C29.7158 35.0149 29.8245 34.5949 30.1582 34.4055L59.9645 17.2491C60.0729 17.1856 60.1972 17.1564 60.3059 17.1564C60.5541 17.1564 60.7793 17.2792 60.9112 17.499ZM54.9281 46.7639C55.0289 47.1299 54.8118 47.5064 54.4472 47.6039L53.0503 47.9766L53.4228 49.3684C53.5158 49.7341 53.3063 50.1107 52.9338 50.209C52.5613 50.3065 52.1888 50.0884 52.0958 49.7233L51.3662 47.0068L54.0901 46.2781C54.1445 46.2625 54.2063 46.2547 54.2686 46.2547C54.5712 46.2547 54.8507 46.4575 54.9281 46.7639ZM50.9937 40.1596C51.0946 40.5256 50.8775 40.9022 50.5126 40.9997L43.9633 42.7477L45.717 49.2723C45.8179 49.638 45.6005 50.0149 45.2283 50.1132C44.8634 50.2129 44.4909 49.9932 44.39 49.6274L42.2795 41.7779L50.1479 39.6739C50.2099 39.6583 50.2722 39.6508 50.3343 39.6508C50.6369 39.6508 50.9163 39.8533 50.9937 40.1596ZM41.9224 36.9381C42.0154 37.3039 41.7983 37.6799 41.4334 37.7779L37.2663 38.8918L38.3837 43.0494C38.477 43.4154 38.2596 43.7914 37.895 43.8894C37.5303 43.9891 37.15 43.7697 37.0492 43.4045L35.5746 37.9219L41.0765 36.4521C41.1386 36.436 41.2006 36.429 41.2551 36.429C41.5577 36.429 41.8371 36.6309 41.9224 36.9381ZM30.8411 34.4055L60.6549 51.5627C60.981 51.7523 61.0973 52.1721 60.9112 52.5002C60.7173 52.8266 60.2981 52.9425 59.9645 52.7509L30.1582 35.5937C29.8245 35.404 29.7158 34.984 29.9022 34.6561C30.0341 34.4364 30.2591 34.3127 30.4997 34.3127C30.6162 34.3127 30.7324 34.3428 30.8411 34.4055ZM32.4939 61.0009C32.7655 61.2695 32.7655 61.7042 32.4939 61.9716C32.2301 62.2401 31.7956 62.2401 31.5162 61.9725L30.4997 60.9539L29.4753 61.9725C29.2115 62.2401 28.777 62.2401 28.5054 61.9716C28.2338 61.7042 28.2338 61.2695 28.5054 61.0009L30.4997 59.0131L32.4939 61.0009ZM36.2654 54.3023C36.5291 54.5708 36.5291 55.0047 36.2654 55.2724C35.9938 55.5409 35.5592 55.5409 35.2876 55.2724L30.4997 50.4959L25.7038 55.2724C25.44 55.5409 25.0055 55.5409 24.7339 55.2724C24.4623 55.0047 24.4623 54.5708 24.7339 54.3023L30.4997 48.5554L36.2654 54.3023ZM34.527 44.8579C34.7986 45.1255 34.7986 45.5595 34.527 45.828C34.2554 46.0962 33.8209 46.0962 33.5572 45.828L30.4997 42.7848L27.45 45.828C27.1784 46.0962 26.7438 46.0962 26.4722 45.828C26.2085 45.5595 26.2085 45.1255 26.4722 44.8579L30.4997 40.8434L34.527 44.8579ZM31.1904 34.9996V69.3131C31.1904 69.6931 30.88 70 30.4997 70C30.1194 70 29.8092 69.6931 29.8092 69.3131V34.9996C29.8092 34.6205 30.1194 34.3136 30.4997 34.3136C30.88 34.3136 31.1904 34.6205 31.1904 34.9996ZM6.90922 46.2781L9.63307 47.0068L8.9035 49.7233C8.81045 50.0884 8.43797 50.3073 8.06549 50.209C7.69302 50.1107 7.47562 49.7341 7.57649 49.3684L7.94897 47.9766L6.55238 47.6039C6.18745 47.5064 5.97033 47.1299 6.06338 46.7639C6.14861 46.4575 6.42803 46.2547 6.73065 46.2547C6.79296 46.2547 6.84719 46.2625 6.90922 46.2781ZM10.8436 39.6739L18.7201 41.7779L16.6093 49.6274C16.5162 49.9932 16.1359 50.2137 15.7635 50.1132C15.3988 50.0149 15.1814 49.638 15.2823 49.2723L17.036 42.7477L10.4943 40.9997C10.1218 40.9022 9.90468 40.5256 10.0056 40.1596C10.083 39.8533 10.3624 39.6508 10.6728 39.6508C10.727 39.6508 10.7894 39.6583 10.8436 39.6739ZM19.9227 36.4521L25.4247 37.9219L23.9501 43.4045C23.8493 43.7705 23.4768 43.9891 23.1043 43.8894C22.7397 43.7914 22.5222 43.4154 22.6231 43.0494L23.7406 38.8918L19.5659 37.7779C19.201 37.6799 18.9839 37.3039 19.0769 36.9381C19.1624 36.6309 19.4416 36.429 19.7442 36.429C19.7987 36.429 19.8607 36.436 19.9227 36.4521ZM31.0973 34.6561C31.2834 34.984 31.1747 35.404 30.8411 35.5937L1.02727 52.7509C0.701174 52.9425 0.282309 52.8266 0.0959309 52.5002C-0.0979921 52.1721 0.0106956 51.7523 0.344332 51.5627L30.1582 34.4055C30.2669 34.3428 30.3831 34.3127 30.4997 34.3127C30.7324 34.3127 30.9652 34.4364 31.0973 34.6561ZM8.9035 20.2765L9.63307 22.9932L6.90922 23.721C6.54457 23.8185 6.16426 23.6013 6.06338 23.2361C5.97033 22.8693 6.18745 22.4936 6.55238 22.3952L7.94897 22.0223L7.57649 20.6316C7.47562 20.2659 7.69302 19.889 8.06549 19.791C8.12753 19.7754 8.18173 19.7676 8.24404 19.7676C8.54666 19.7676 8.8261 19.9704 8.9035 20.2765ZM16.6093 20.3709L18.7201 28.2221L10.8436 30.3253C10.4711 30.4233 10.0986 30.2052 10.0056 29.8404C9.90468 29.4744 10.1218 29.0978 10.4943 28.9995L17.036 27.252L15.2823 20.7268C15.1814 20.3609 15.3988 19.9843 15.7635 19.886C15.8255 19.8698 15.8875 19.8628 15.9495 19.8628C16.2522 19.8628 16.5316 20.0645 16.6093 20.3709ZM23.9501 26.5955L25.4247 32.0781L19.9227 33.5468C19.5503 33.6468 19.1778 33.427 19.0769 33.0613C18.9839 32.6961 19.201 32.3187 19.5659 32.2212L23.7406 31.1074L22.6231 26.9503C22.5222 26.5846 22.7397 26.208 23.1043 26.1097C23.1666 26.0936 23.2284 26.0863 23.2829 26.0863C23.5855 26.0863 23.8649 26.2883 23.9501 26.5955ZM1.02727 17.2491L30.8411 34.4055C31.1747 34.5949 31.2834 35.0149 31.0973 35.343C30.911 35.6703 30.484 35.7848 30.1582 35.5937L0.344332 18.4373C0.0106956 18.2476 -0.0979921 17.8276 0.0959309 17.499C0.220276 17.2792 0.453022 17.1564 0.685786 17.1564C0.802028 17.1564 0.926393 17.1856 1.02727 17.2491ZM32.4939 8.02808C32.7655 8.29575 32.7655 8.7297 32.4939 8.99821L30.4997 10.9869L28.5054 8.99821C28.2338 8.7297 28.2338 8.29575 28.5054 8.02808C28.777 7.75986 29.2115 7.75986 29.4753 8.02725L30.4997 9.04611L31.5162 8.02725C31.6559 7.89355 31.8345 7.82698 32.013 7.82698C32.1835 7.82698 32.362 7.89355 32.4939 8.02808ZM36.2654 14.7267C36.5291 14.9944 36.5291 15.4289 36.2654 15.6966L30.4997 21.4446L24.7339 15.6966C24.4623 15.4289 24.4623 14.9944 24.7339 14.7267C25.0055 14.4582 25.44 14.4582 25.7038 14.7267L30.4997 19.503L35.2876 14.7267C35.4274 14.593 35.6056 14.5256 35.7764 14.5256C35.9549 14.5256 36.1335 14.593 36.2654 14.7267ZM34.527 24.172C34.7986 24.4405 34.7986 24.8744 34.527 25.1421L30.4997 29.1566L26.4722 25.1421C26.2085 24.8744 26.2085 24.4405 26.4722 24.172C26.7438 23.9038 27.1784 23.9038 27.45 24.172L30.4997 27.2149L33.5572 24.172C33.689 24.0383 33.8598 23.9709 34.038 23.9709C34.2166 23.9709 34.3873 24.0383 34.527 24.172ZM30.4997 0C30.1194 0 29.8092 0.306937 29.8092 0.686017V34.9996C29.8092 35.3787 30.1194 35.6856 30.4997 35.6856C30.88 35.6856 31.1904 35.3787 31.1904 34.9996V0.686017C31.1904 0.306937 30.88 0 30.4997 0Z" fill="#312C93"/>
<path d="M52.9338 50.209C53.3063 50.111 53.5158 49.7341 53.4228 49.3684L53.0503 47.9777L54.4472 47.6048C54.8118 47.5064 55.0289 47.1307 54.9281 46.7639C54.835 46.3987 54.4547 46.1801 54.0901 46.279L51.3662 47.0068L52.0958 49.7235C52.1732 50.0296 52.4526 50.2324 52.7631 50.2324C52.8176 50.2324 52.8796 50.2246 52.9338 50.209ZM45.2283 50.114C45.6005 50.0157 45.8179 49.6391 45.717 49.2732L43.9633 42.748L50.5126 41.0005C50.8775 40.9022 51.0946 40.5256 50.9937 40.1596C50.9007 39.7948 50.5206 39.5758 50.1479 39.6747L42.2795 41.7779L44.39 49.6291C44.4677 49.9355 44.7471 50.1372 45.0573 50.1372C45.1118 50.1372 45.1738 50.1302 45.2283 50.114ZM37.895 43.8903C38.2596 43.792 38.477 43.4154 38.3837 43.0497L37.2663 38.8926L41.4334 37.7788C41.7983 37.6813 42.0154 37.3039 41.9224 36.9387C41.8215 36.573 41.449 36.3532 41.0765 36.4532L35.5746 37.9219L37.0492 43.4045C37.1344 43.7117 37.4138 43.9137 37.7164 43.9137C37.7709 43.9137 37.8329 43.9064 37.895 43.8903ZM60.9112 52.501C61.0973 52.1724 60.981 51.7524 60.6549 51.5627L30.8411 34.4063C30.5153 34.2152 30.0961 34.3297 29.9022 34.657C29.7158 34.9851 29.8245 35.4051 30.1582 35.5945L59.9645 52.7509C60.0729 52.8144 60.1972 52.8436 60.3059 52.8436C60.5541 52.8436 60.7793 52.7208 60.9112 52.501ZM54.9281 23.2361C55.0289 22.8701 54.8118 22.4936 54.4472 22.3961L53.0503 22.0234L53.4228 20.6316C53.5158 20.2659 53.3063 19.8893 52.9338 19.791C52.5613 19.6935 52.1888 19.9116 52.0958 20.2767L51.3662 22.9932L54.0901 23.7219C54.1445 23.7375 54.2063 23.7453 54.2686 23.7453C54.5712 23.7453 54.8507 23.5425 54.9281 23.2361ZM50.9937 29.8404C51.0946 29.4744 50.8775 29.0978 50.5126 29.0003L43.9633 27.2523L45.717 20.7277C45.8179 20.362 45.6005 19.9851 45.2283 19.8868C44.8634 19.7871 44.4909 20.0068 44.39 20.3726L42.2795 28.2221L50.1479 30.3261C50.2099 30.3417 50.2722 30.3492 50.3343 30.3492C50.6369 30.3492 50.9163 30.1467 50.9937 29.8404ZM41.9224 33.0619C42.0154 32.6961 41.7983 32.3201 41.4334 32.2221L37.2663 31.1082L38.3837 26.9506C38.477 26.5846 38.2596 26.2086 37.895 26.1106C37.5303 26.0109 37.15 26.2303 37.0492 26.5955L35.5746 32.0781L41.0765 33.5479C41.1386 33.564 41.2006 33.571 41.2551 33.571C41.5577 33.571 41.8371 33.3691 41.9224 33.0619ZM30.8411 35.5945L60.6549 18.4373C60.981 18.2477 61.0973 17.8279 60.9112 17.4998C60.7173 17.1734 60.2981 17.0575 59.9645 17.2491L30.1582 34.4063C29.8245 34.596 29.7158 35.016 29.9022 35.3439C30.0341 35.5636 30.2591 35.6873 30.4997 35.6873C30.6162 35.6873 30.7324 35.6572 30.8411 35.5945ZM32.4939 8.99905C32.7655 8.73055 32.7655 8.29576 32.4939 8.02837C32.2301 7.75986 31.7956 7.75986 31.5162 8.02752L30.4997 9.04612L29.4753 8.02752C29.2115 7.75986 28.777 7.75986 28.5054 8.02837C28.2338 8.29576 28.2338 8.73055 28.5054 8.99905L30.4997 10.9869L32.4939 8.99905ZM36.2654 15.6977C36.5291 15.4292 36.5291 14.9953 36.2654 14.7276C35.9938 14.4591 35.5592 14.4591 35.2876 14.7276L30.4997 19.5041L25.7038 14.7276C25.44 14.4591 25.0055 14.4591 24.7339 14.7276C24.4623 14.9953 24.4623 15.4292 24.7339 15.6977L30.4997 21.4446L36.2654 15.6977ZM34.527 25.1421C34.7986 24.8745 34.7986 24.4405 34.527 24.172C34.2554 23.9038 33.8209 23.9038 33.5572 24.172L30.4997 27.2152L27.45 24.172C27.1784 23.9038 26.7438 23.9038 26.4722 24.172C26.2085 24.4405 26.2085 24.8745 26.4722 25.1421L30.4997 29.1566L34.527 25.1421ZM31.1904 35.0004V0.686859C31.1904 0.306946 30.88 0 30.4997 0C30.1194 0 29.8092 0.306946 29.8092 0.686859V35.0004C29.8092 35.3795 30.1194 35.6864 30.4997 35.6864C30.88 35.6864 31.1904 35.3795 31.1904 35.0004ZM6.90922 23.7219L9.63307 22.9932L8.9035 20.2767C8.81045 19.9116 8.43797 19.6927 8.06549 19.791C7.69302 19.8893 7.47562 20.2659 7.57649 20.6316L7.94897 22.0234L6.55238 22.3961C6.18745 22.4936 5.97033 22.8701 6.06338 23.2361C6.14861 23.5425 6.42803 23.7453 6.73065 23.7453C6.79296 23.7453 6.84719 23.7375 6.90922 23.7219ZM10.8436 30.3261L18.7201 28.2221L16.6093 20.3726C16.5162 20.0068 16.1359 19.7863 15.7635 19.8868C15.3988 19.9851 15.1814 20.362 15.2823 20.7277L17.036 27.2523L10.4943 29.0003C10.1218 29.0978 9.90468 29.4744 10.0056 29.8404C10.083 30.1467 10.3624 30.3492 10.6728 30.3492C10.727 30.3492 10.7894 30.3417 10.8436 30.3261ZM19.9227 33.5479L25.4247 32.0781L23.9501 26.5955C23.8493 26.2295 23.4768 26.0109 23.1043 26.1106C22.7397 26.2086 22.5222 26.5846 22.6231 26.9506L23.7406 31.1082L19.5659 32.2221C19.201 32.3201 18.9839 32.6961 19.0769 33.0619C19.1624 33.3691 19.4416 33.571 19.7442 33.571C19.7987 33.571 19.8607 33.564 19.9227 33.5479ZM31.0973 35.3439C31.2834 35.016 31.1747 34.596 30.8411 34.4063L1.02727 17.2491C0.701174 17.0575 0.282309 17.1734 0.0959309 17.4998C-0.0979921 17.8279 0.0106956 18.2477 0.344332 18.4373L30.1582 35.5945C30.2669 35.6572 30.3831 35.6873 30.4997 35.6873C30.7324 35.6873 30.9652 35.5636 31.0973 35.3439ZM8.9035 49.7235L9.63307 47.0068L6.90922 46.279C6.54457 46.1815 6.16426 46.3987 6.06338 46.7639C5.97033 47.1307 6.18745 47.5064 6.55238 47.6048L7.94897 47.9777L7.57649 49.3684C7.47562 49.7341 7.69302 50.111 8.06549 50.209C8.12753 50.2246 8.18173 50.2324 8.24404 50.2324C8.54666 50.2324 8.8261 50.0296 8.9035 49.7235ZM16.6093 49.6291L18.7201 41.7779L10.8436 39.6747C10.4711 39.5767 10.0986 39.7948 10.0056 40.1596C9.90468 40.5256 10.1218 40.9022 10.4943 41.0005L17.036 42.748L15.2823 49.2732C15.1814 49.6391 15.3988 50.0157 15.7635 50.114C15.8255 50.1302 15.8875 50.1372 15.9495 50.1372C16.2522 50.1372 16.5316 49.9355 16.6093 49.6291ZM23.9501 43.4045L25.4247 37.9219L19.9227 36.4532C19.5503 36.3532 19.1778 36.573 19.0769 36.9387C18.9839 37.3039 19.201 37.6813 19.5659 37.7788L23.7406 38.8926L22.6231 43.0497C22.5222 43.4154 22.7397 43.792 23.1043 43.8903C23.1666 43.9064 23.2284 43.9137 23.2829 43.9137C23.5855 43.9137 23.8649 43.7117 23.9501 43.4045ZM1.02727 52.7509L30.8411 35.5945C31.1747 35.4051 31.2834 34.9851 31.0973 34.657C30.911 34.3297 30.484 34.2152 30.1582 34.4063L0.344332 51.5627C0.0106956 51.7524 -0.0979921 52.1724 0.0959309 52.501C0.220276 52.7208 0.453022 52.8436 0.685786 52.8436C0.802028 52.8436 0.926393 52.8144 1.02727 52.7509ZM32.4939 61.9719C32.7655 61.7042 32.7655 61.2703 32.4939 61.0018L30.4997 59.0131L28.5054 61.0018C28.2338 61.2703 28.2338 61.7042 28.5054 61.9719C28.777 62.2401 29.2115 62.2401 29.4753 61.9728L30.4997 60.9539L31.5162 61.9728C31.6559 62.1064 31.8345 62.173 32.013 62.173C32.1835 62.173 32.362 62.1064 32.4939 61.9719ZM36.2654 55.2733C36.5291 55.0056 36.5291 54.5711 36.2654 54.3034L30.4997 48.5554L24.7339 54.3034C24.4623 54.5711 24.4623 55.0056 24.7339 55.2733C25.0055 55.5418 25.44 55.5418 25.7038 55.2733L30.4997 50.497L35.2876 55.2733C35.4274 55.407 35.6056 55.4744 35.7764 55.4744C35.9549 55.4744 36.1335 55.407 36.2654 55.2733ZM34.527 45.828C34.7986 45.5595 34.7986 45.1256 34.527 44.8579L30.4997 40.8434L26.4722 44.8579C26.2085 45.1256 26.2085 45.5595 26.4722 45.828C26.7438 46.0962 27.1784 46.0962 27.45 45.828L30.4997 42.7851L33.5572 45.828C33.689 45.9617 33.8598 46.0291 34.038 46.0291C34.2166 46.0291 34.3873 45.9617 34.527 45.828ZM30.4997 70C30.1194 70 29.8092 69.6931 29.8092 69.314V35.0004C29.8092 34.6213 30.1194 34.3144 30.4997 34.3144C30.88 34.3144 31.1904 34.6213 31.1904 35.0004V69.314C31.1904 69.6931 30.88 70 30.4997 70Z" fill="#312C93"/>
</svg>
