<svg width="316" height="307" fill="none" xmlns="http://www.w3.org/2000/svg"><path d="M39.204 196.356a3.597 3.597 0 0 1-1.876-1.032c.397-.57.782-1.203 1.455-1.477 3.95-1.94 8.442-1.931 12.668-2.753 3.76-.477 7.237-2.027 10.83-3.131 4.237-1.381 8.255-3.315 12.288-5.173 2.862-1.278 5.87-2.187 8.691-3.565 4.757-2.103 9.039-5.115 13.676-7.447-2.249.195-4.457.735-6.716.77-1.143-.028-2.006.826-2.942 1.35-4.382 2.613-8.703 5.348-13.272 7.636-3.474 1.65-7.107 3.012-10.673 4.506a55.85 55.85 0 0 1-23.046 4.561c-2-.137-4.433-.071-5.9-1.61-.315-1.211 1.334-1.69 2.22-2.028 7.6-2.408 15.339-4.359 23.13-6.116a57.927 57.927 0 0 0 9.155-3.268c-4.639.541-9.17 1.803-13.758 2.701a71.46 71.46 0 0 1-15.759 1.315c-2.517-.12-5.74-.073-7.319-2.353 1.056-1.141 2.571-1.7 3.976-2.293 3.15-.536 6.33.599 9.49.168 4.578-.681 8.978-2.191 13.516-3.052 3.867-.962 7.876-1.29 11.727-2.336 5.68-1.985 11.442-3.722 17.194-5.461 1.176-.49 2.051-1.477 3.025-2.272a58.66 58.66 0 0 1-8.434-.323c-2.665.41-5.212 1.366-7.843 1.989-5.578 1.549-11.377 1.703-17.075 2.322-8.983 1.123-18.237 1.709-27.09-.53-1.295-.371-2.782-.981-3.331-2.318-.297-.694.54-1.171 1.142-1.142 7.623-.053 15.257.114 22.864-.291 10.155-1.61 20.44-2.611 30.427-5.123a134.135 134.135 0 0 0 14.395-4.772c.276-.884.652-1.734 1.119-2.534-4.178-1.994-8.66-3.2-13.157-4.218-8.439-2.31-17.16-3.338-25.81-4.461-4.874-.67-9.802-.124-14.697-.553a882.91 882.91 0 0 1-10.194-.95c-1.222-.187-2.624-.219-3.547-1.159a.87.87 0 0 1 .377-1.461c5.695-1.937 11.665-.139 17.508-.39 6.468-.37 12.936.265 19.326 1.101-7.764-1.871-15.761-2.444-23.552-4.163a80.157 80.157 0 0 1-11.932-3.974c-1.21-.501-2.451-1.097-3.243-2.19 1.623-1.002 3.626-.521 5.42-.491 5.188.567 10.452.868 15.493 2.312a1016.65 1016.65 0 0 1 39.05 9.146c5.283.869 10.257 2.925 15.431 4.266a48.198 48.198 0 0 1-4.014-5.204c-6.783-.708-13.556-1.518-20.355-2.037-.753-.091-1.645-.085-2.166-.728.032-1.481 1.664-2.111 2.876-2.461 2.874-.631 5.852-.659 8.785-.761-5.331-2.839-10.98-5.028-16.393-7.705-8.708-4.635-18.305-7.197-27.13-11.646-.926-.541-2.129-1-2.465-2.136.194-.796.98-1.583 1.855-1.266a113.396 113.396 0 0 1 25.473 9.111c4.94 1.763 9.584 4.233 14.5 6.041-4.513-4.163-9.646-7.619-13.977-11.991-4.262-4.147-8.326-8.57-11.49-13.621-.301-.6-1.02-1.483-.284-2.025.794-.056 1.348.689 1.947 1.105 4.729 4.448 10.38 7.832 14.993 12.376 3.388 3.155 6.985 6.079 10.36 9.243 3.442-.57 6.92.152 10.34.497-4.055-2.748-8.233-5.327-12.112-8.336-2.646-2.164-5.443-4.549-6.62-7.871a.829.829 0 0 1 1.055-1.123 44.19 44.19 0 0 1 12.909 6.919c1.46 1.498 3.677.989 5.526 1.447-.422-.689-.617-1.738-1.484-1.988-2.075-.702-4.324-1.451-5.687-3.282.874-1.395 2.669-1.096 4.072-1.118-1.35-3.886-4.862-6.714-5.678-10.782-2.086-3.583-4.558-7.1-5.455-11.218-.277-.862.28-2.046 1.302-1.53 1.892 1.122 3.018 3.136 4.198 4.93 2.296 3.578 4.774 7.043 6.672 10.86 1.394 3.247 4.364 5.357 6.272 8.267.674 1.334 2.248 1.364 3.501 1.785-1.989-2.602-3.877-5.383-5.063-8.473-.734-1.65 1.125-3.595 2.756-3.173a105.927 105.927 0 0 1 10.424 13.824c.646 1.241 2.096 1.519 3.267 2.042 4.141 1.591 7.955 3.898 12.051 5.597-1.257-2.244-2.071-4.96-4.352-6.407-4.401-3.3-10.016-4.742-13.89-8.764l.13-.799c3.852-.461 7.298 1.955 10.601 3.577-2.678-4.104-5.616-8.072-9.27-11.37-1.148-1.316-2.871-2.454-3.184-4.261.201-1.163 1.677-.66 2.358-.186 3.046 2.071 5.6 4.78 8.179 7.39 2.324-.111 4.507.768 6.723 1.293a56.184 56.184 0 0 0-4.345-6.067c-.446-.67-1.118-1.612-.556-2.403.668-.96 2.056-.767 2.965-.305 4.014 2.526 6.668 6.595 8.892 10.669.555.892.901 2.022 1.891 2.533 3.081 1.846 6.291 3.593 8.888 6.118 3.115 2.777 6.704 5.056 9.396 8.292 2.574 3.703 7.447 4.129 11.186 6.122-6.613-7.487-13.117-15.106-20.435-21.922-3.903-2.984-8.709-4.52-12.494-7.665-.671-.62-1.631-1.287-1.57-2.31.46-1.117 1.848-.967 2.836-.943 3.96.363 7.231 2.864 10.511 4.879 6.3 3.921 11.632 9.129 17.139 14.051-2.505-5.518-7.281-9.407-10.932-14.091-1.03-1.539-2.382-3.156-2.278-5.117 1.531-.573 2.827.67 3.97 1.496 6.822 5.131 11.51 12.412 15.903 19.59a45.44 45.44 0 0 1 3.623 7.289c1.082 1.191 2.364 2.193 3.504 3.328.973-.121 1.968-.202 2.931-.318-1.657-2.711-2.398-6.179-5.238-8.004-2.495-2.101-5.207-4.451-6.108-7.715.009-1.211 1.388-.83 2.112-.576-1.714-2.41-3.19-4.996-5.058-7.3-2.532-2.547-5.12-5.11-6.916-8.26-.374-.68-1.172-1.685-.35-2.35 1.026-.783 2.254.2 3.152.72a55.12 55.12 0 0 1 18.773 21.338c.495 1.66 2.164 2.402 3.464 3.343 1.396.399 2.905.322 4.331.627-.904-3.4-6.064-2.205-7.115-5.603 1.146-.895 2.631-.781 4.002-.826-1.301-3.852-4.812-6.611-5.598-10.635-2.09-3.664-4.668-7.23-5.516-11.437-.297-.876.503-1.982 1.431-1.373 2.773 1.93 4.084 5.217 6.044 7.86 2.325 3.255 4.116 6.833 6.072 10.313a77.505 77.505 0 0 1 5.175 6.098c.659 1.11 2.076 1.085 3.181 1.422-1.89-2.594-3.76-5.271-4.911-8.288-.779-1.76 1.043-3.591 2.787-3.34a127.884 127.884 0 0 1 10.302 13.806c.615 1.268 2.054 1.581 3.23 2.095 4.19 1.643 8.105 3.874 12.202 5.721-1.315-2.31-2.13-5.136-4.54-6.6-4.406-3.37-10.394-4.627-13.929-9.084a2.146 2.146 0 0 1 1.697-.505c3.338.453 6.304 2.158 9.221 3.732-2.123-3.073-4.162-6.215-6.781-8.884-1.756-1.903-3.829-3.535-5.331-5.664-.433-.55-.608-1.488.173-1.84 1.009-.12 1.86.582 2.646 1.105a59.544 59.544 0 0 1 6.608 6.114c.362.355.709.792 1.254.726 2.161.018 4.214.76 6.261 1.362a61.608 61.608 0 0 0-4.457-6.238c-.586-.742-1.16-2.025-.131-2.708 1.526-.82 3.169.293 4.279 1.315 3.535 2.794 5.775 6.837 7.929 10.723.581 1.257 2.001 1.666 3.072 2.393 4.661 2.489 8.319 6.331 12.483 9.509 2.669 2.009 4.591 4.777 6.947 7.105 1.929 1.952 4.043 3.709 6.035 5.588a132.98 132.98 0 0 1 10.658 13.024c-.526-2.954-1.13-5.944-2.477-8.646-3.08-4.542-7.283-8.143-10.707-12.401-4.596-5.445-9.57-10.538-14.596-15.582-4.35-4.196-10.748-5.482-14.888-9.928-.84-.76-.078-2.014.925-2.047 3.728-.395 7.085 1.728 10.112 3.615 7.173 4.243 13.277 9.969 19.356 15.6-1.386-2.383-2.768-4.824-4.633-6.877-2.873-3.449-6.432-6.436-8.444-10.528-.315-.693-.857-1.734.041-2.236 1.205-.227 2.224.75 3.153 1.366 6.848 5.033 11.576 12.238 15.978 19.387 2.191 3.351 3.686 7.082 5.074 10.837.916 2.805 3.122 4.857 4.858 7.149 3.415 3.99 6.09 8.555 9.511 12.537-.986-2.294-2.19-4.483-3.198-6.78-4.863-11.542-10.568-22.776-17.722-33.075-2.779-4.851-8.017-7.912-10.09-13.227-.25-.892.885-1.35 1.597-1.123 1.018.407 1.977.947 2.851 1.607 5.912 4.254 11.184 9.512 15.017 15.729a29.875 29.875 0 0 1 4.259 9.052c1.315 5.591 4.579 10.419 6.843 15.636 2.93 6.909 6.589 13.638 7.657 21.158 1.153.254 2.287.581 3.397.982 1.001.398 2.053-.221 3.073.038 2.552.4 4.14 2.729 5.442 4.743.792 2.274-1.613 4.418-3.641 4.882-2.084.277-4.184.41-6.287.399-.197 1.744-.398 3.485-.525 5.235-.787 7.903-3.238 15.538-6.177 22.875-2.741 6.617-6.96 12.479-10.649 18.594-3.156 4.605-6.363 9.642-11.508 12.224-1.217.699-3.672.026-2.977-1.707 1.394-2.256 3.623-3.859 5.147-6.032 4.857-6.568 10.764-12.528 13.887-20.2 1.918-5.04 4.427-9.863 5.561-15.176 1.706-5.138 2.624-10.472 3.839-15.727-.931-.009-1.858-.008-2.778-.077-1.074 7.668-3.721 15.068-6.82 22.111-6.094 12.661-13.789 25.109-25.477 33.366-1.654 1.029-3.269 2.791-5.382 2.484l-.317-.83c2.287-3.584 6.368-5.468 9.111-8.674 5.028-5.634 9.989-11.406 13.926-17.878 4.021-7.668 8.122-15.469 9.967-24a2061.696 2061.696 0 0 1-10.377 12.786c-3.408 3.717-7.027 7.238-10.295 11.102-5.558 6.701-10.788 13.753-17.304 19.618-1.635.555-3.423-1.706-2.594-3.272 1.959-4.031 5.104-7.335 8.287-10.447 6.128-7.189 11.989-14.605 18.271-21.656-2.631 2.206-5.767 3.835-8.726 5.716a107.826 107.826 0 0 0-9.969 13.24c-2.38 3.421-5.431 6.291-8.295 9.297-1.216 1.266-2.817 2.192-3.654 3.789-2.995 4.759-6.603 9.086-10.139 13.451-.967.916-1.928 2.202-3.337 2.354-.987-.2-.84-1.322-.591-2.038 1.387-3.953 4.169-7.181 6.544-10.551.754-3.226 3.757-5.179 5.319-7.976 2.339-4.017 4.81-7.954 7.291-11.877-3.781 1.995-7.316 4.389-11.05 6.491-2.973 1.718-6.306 2.631-9.533 3.716a55.274 55.274 0 0 1-20.98 19.064c-.879.607-2.738.707-2.783-.682 2.454-5.197 8.084-7.733 11.312-12.336a143.357 143.357 0 0 0 11.32-15.393c-2.134 1.693-4.298 3.359-6.56 4.878-1.175.814-2.585 1.379-3.396 2.623-4.907 6.395-10.242 12.758-17.331 16.812-.825.407-1.74 1.03-2.697.717-.812-.504-.239-1.494.106-2.112 2.347-3.81 6.027-6.473 9.204-9.535.487-2.151 2.39-3.53 3.604-5.267-5.809 4.482-11.799 8.898-18.466 12.083-2.617.961-3.951 3.631-6.296 5.032-1.312.967-3.106 2.258-4.764 1.281-1.337-.93-.014-2.482.743-3.307-.779-.237-1.976-.705-1.574-1.746 1.687-2.266 4.558-3.094 6.904-4.469a223.769 223.769 0 0 0 8.553-11.023 42.125 42.125 0 0 1-6.42 3.783c-1.152.623-2.545.962-3.334 2.088a59.871 59.871 0 0 1-13.759 12.606c-1.047.726-2.228 1.39-3.545 1.289-.716-1.448.775-2.505 1.702-3.4 3.118-2.634 6.429-5.091 8.969-8.322a31.476 31.476 0 0 1-6.375 1.427c-1.548.177-3.37.145-4.443-1.174.718-1.558 2.418-2.111 3.841-2.807 5.14-2.304 10.037-5.107 15.089-7.589 1.649-1.757 2.815-3.941 4.117-5.969a69.877 69.877 0 0 1-15.45 7.958c-1.172.53-2.574.803-3.372 1.915a87.835 87.835 0 0 1-9.469 10.046c-1.44.319-3.126-1.518-2.555-2.996.574-1.769 1.806-3.225 2.874-4.698-.74-.118-1.607-.229-1.641-1.142-1.366 1.832-3.389 3.024-4.783 4.818-2.006 2.97-3.929 6.004-6.285 8.717-2.262 2.506-3.931 5.649-6.786 7.547a1.047 1.047 0 0 1-1.307.03 1.049 1.049 0 0 1-.322-1.268c1.208-4.291 4.352-7.645 6.757-11.286.628-2.783 3.062-4.566 4.621-6.867 1.701-2.524 3.092-5.24 4.745-7.791-2.675.738-5.504.815-8.147 1.637-2.9 1.683-6.245 2.351-9.262 3.686a56.825 56.825 0 0 1-20.7 18.802c-.925.672-3.123.987-3.055-.64 2.525-5.135 8.063-7.668 11.306-12.224a163.518 163.518 0 0 0 11.333-15.306c-2.786 2.001-5.42 4.211-8.392 5.936-1.254.698-1.936 2.02-2.843 3.069-4.647 5.978-9.822 11.814-16.55 15.48-.765.356-1.854.968-2.545.159-.276-.698.21-1.37.524-1.961 2.269-3.786 6.054-6.26 9.036-9.415.675-1.916 2.152-3.373 3.329-4.959-5.468 4.183-11.042 8.317-17.238 11.366-3.25 1.617-6.612 3.57-10.369 3.44-.95-.052-2.345-.183-2.493-1.37.457-1.313 1.817-1.999 2.917-2.713 4.79-2.755 10.542-3.897 14.666-7.786 6.422-5.273 12.517-10.864 18.443-16.659-2.723.955-5.516 1.678-8.296 2.428-1.054.229-1.712 1.147-2.482 1.817-2.932 2.831-6.595 4.665-9.813 7.102-3.031 2.317-6.547 3.834-9.966 5.467-4.398 1.945-8.968 3.788-13.834 4.018-1.12 0-2.468-.128-3.15-1.151.08-1.429 1.745-1.879 2.795-2.487 5.5-2.426 10.706-5.446 16.122-8.04 2.221-1.145 4.213-2.669 6.38-3.919-.806-.452-1.765-1.576-.727-2.333 3.27-2.151 7.3-2.616 10.83-4.19 6.537-5.096 13.841-9.468 18.781-16.296-3.881 2.419-7.842 4.778-12.124 6.425-1.562.74-3.301 1.131-4.532 2.375-4.27 4-8.955 7.504-13.508 11.161-5.096 3.858-10.915 6.646-16.85 8.92-4.036 1.582-7.958 3.876-12.39 4.068a1.914 1.914 0 0 1-1.602-.786c4.569-4.353 11.347-4.933 16.36-8.636 4.127-3.106 8.622-5.689 12.948-8.536-5.974 2.205-12.01 4.221-17.934 6.565a117.59 117.59 0 0 1-20.69 5.341 24.654 24.654 0 0 1-8.233.202Zm3.984-.765.373-.623a175.215 175.215 0 0 1 17.604-3.581c3.474-1.047 7.02-1.959 10.298-3.556 7.737-2.561 15.679-4.682 22.967-8.427 3.76-1.608 7.534-3.171 11.002-5.373a234.753 234.753 0 0 1-30.401 11.315c4.585-2.057 9.474-3.386 14.09-5.374 5.222-2.254 10.66-3.998 15.609-6.795a52.88 52.88 0 0 0 6.329-3.225c-2.141.137-4.232.709-6.364.869-1.701.222-3.515.16-5.052 1.039-6.66 3.28-12.748 7.671-19.81 10.094-6.89 2.28-13.258 5.928-20.266 7.871-5.276 2.192-11.05 2.143-16.596 3.13-1.806.443-3.766.845-5.16 2.164 1.63.957 3.591.563 5.377.472Zm13.796-3.052c-4.618.957-9.283 1.808-13.825 3.068 4.724-.323 9.382-1.539 13.825-3.068Zm-12.702-3.165c2.69-.288 5.464-.362 8.02-1.298-1.044.022-2.08.226-3.127.259 1.882-.517 3.806-.761 5.604-1.507 6.124-2.327 12.34-4.418 18.405-6.895-.973.018-1.922.3-2.747.816-1.18.653-2.566.467-3.814.835-3.702 1.661-7.51 3.084-11.33 4.39-2.653.803-5.37 1.645-8.176 1.574 6.865-2.121 14.114-3.658 20.323-7.332l-1.747-.193c2.189-1.29 4.773-1.391 7.175-2.076l-2.2-.148c4.017-1.467 8.57-1.49 12.437-3.444-3.69.709-7.277 1.883-10.963 2.631-3.975 1.337-7.695 3.315-11.733 4.481-5.903 1.579-11.751 3.342-17.651 4.935-2.407.633-4.895 1.057-7.16 2.142 2.743 1.038 5.775.95 8.684.83Zm24.93 8.113c7.36-2.928 13.512-8.042 19.808-12.714-.69-.006-1.418-.159-2.093.059a135.904 135.904 0 0 0-12.577 8.449c-4.964 3.809-11.492 4.545-16.607 8.054 4.139-.085 7.782-2.25 11.47-3.848Zm2.437 7.978c3.826-2.208 8.176-3.315 11.796-5.856 4.47-2.977 9.206-5.557 13.416-8.929-1.494.3-3.041.319-4.499.839-3.063 1.777-6.033 3.717-9.195 5.34-4.504 1.931-8.646 4.602-13.158 6.509-1.868.935-3.88 1.562-5.601 2.8 2.398.683 4.926-.018 7.241-.703Zm-31.55-24.998c7.5.098 14.933-1.135 22.195-2.925 4.748-1.128 9.687-1.436 14.338-2.984-3.433.375-6.825 1.338-10.298 1.193 5.289-.801 10.589-1.637 15.763-3.035-2.573.127-5.086.808-7.666.919 1.162-.41 2.388-.64 3.573-.979-1.137-.115-2.427-.16-3.234-1.136-6.52 2.678-13.724 2.749-20.42 4.847 1.012.059 1.987-.23 3.005-.216-1.905.665-4.04.556-6.043.958-2.505.346-4.966 1.013-7.515.993-2.415-.03-4.844-.643-7.28-.45-1.193.289-2.208 1.038-3.277 1.603 2.11 1.116 4.519 1.294 6.853 1.22l.006-.008Zm43.597 32.097c4.96-2.297 9.862-4.809 14.201-8.158a107.749 107.749 0 0 0-11.51 6.146c-1.282.776-2.554 1.711-4.094 1.833a98.923 98.923 0 0 1 14.02-8.18 4 4 0 0 1 .875-1.169c4.301-3.504 9.244-6.092 13.692-9.396 4.274-2.877 7.906-6.584 11.197-10.516-5.05 3.871-9.791 8.146-14.981 11.834-1.045.722-2.135 1.51-3.442 1.612 5.776-3.768 11.015-8.287 16.362-12.628-2.705.894-5.865 1.088-7.874 3.362-5.946 5.658-11.918 11.299-18.385 16.376-3.556 3.255-8.13 4.973-12.519 6.79-1.88.951-3.927 1.846-5.286 3.537 2.67.512 5.337-.354 7.744-1.443Zm-17.362-29.087c-4.622 1.393-9.218 2.852-13.724 4.533 4.765-.776 9.277-2.665 13.724-4.533Zm-35.699-17.146c7.603 2.155 15.673 2.273 23.465 1.217-4-.001-8.036.734-12.025.095 1.544-.301 3.123-.262 4.664-.48-1.468-.218-2.97-.204-4.423-.539 7.68-.379 15.495.316 23.078-1.299 4.577-.907 9.222-1.449 13.773-2.477a41.657 41.657 0 0 0-1.373-.031 8.375 8.375 0 0 1-.905-1.762c-5.562 1.073-11.236 1.527-16.82 2.5-4.767.507-9.505 1.611-14.325 1.162-5.874.259-11.755-.064-17.61.16a6.619 6.619 0 0 0 2.501 1.454Zm72.416 42.69c1.861-2.516 3.85-4.937 5.718-7.455-2.468 1.796-5.03 3.501-7.223 5.646-2.894 2.706-6.246 5.134-8.095 8.737 3.605-1.663 6.725-4.222 9.6-6.928Zm6.325 5.942c2.774-3.434 5.602-6.86 8.388-10.304l-.615-.209c3.232-4.295 7.027-8.182 9.966-12.694-1.093.311-1.609 1.437-2.471 2.08.405-.697.855-1.366 1.346-2.004-.469-.114-.948-.222-1.421-.338-3.074 4.68-6.252 9.318-9.94 13.541-2.22 2.534-4.067 5.45-6.795 7.491-2.638 2.128-5.276 4.396-7.019 7.347 3.228-.78 5.867-3.059 8.561-4.91Zm-12.05-11.137c4.585-2.563 9.338-5.071 12.961-8.948-4.292 2.773-8.615 5.512-12.882 8.327l-.079.621Zm-8.591-17.358c-2.243 1.569-4.522 3.112-6.631 4.865 2.34-1.428 4.701-2.914 6.63-4.865Zm-15.75-7.009c2.063.176 3.713-1.33 5.392-2.281-3.483.858-6.915 1.922-10.437 2.582 1.679-.128 3.356-.307 5.044-.301Zm37.469 21.112c-2.183 2.262-4.077 4.791-6.01 7.27a144.185 144.185 0 0 0 6.01-7.27Zm11.802 1.168c-.212-.22-.421-.445-.633-.666-3.305 4.191-6.772 8.263-10.302 12.26 4.285-3.174 7.849-7.264 10.915-11.608l.02.014Zm3.604 21.315a14.852 14.852 0 0 0 4.485-5.281c-.149-2.91 2.188-5.096 3.48-7.496-1.494 1.097-2.391 2.78-3.55 4.227-1.716 2.641-4.15 5.264-4.415 8.55Zm-11.929-25.958c2.673-2.292 5.563-4.293 8.41-6.355l-.447-1.108c1.352-1.434 3.401-1.579 5.102-2.362a20.662 20.662 0 0 0 2.897-2.526c-1.892 1.021-3.774 2.116-5.873 2.647 2.1-2.143 5.033-3.146 7.594-4.622a14.538 14.538 0 0 0-6.432 2.831c-2.928 2.054-5.903 4.063-8.652 6.369-4.475 3.657-9.179 7.215-12.602 11.932 3.372-2.177 6.524-4.721 9.995-6.786l.008-.02Zm-23.093-6.327a60.58 60.58 0 0 0 9.86-2.357c6.232-2.927 12.594-5.849 19.375-7.176-4.776 1.901-9.721 3.47-14.245 5.954 3.162-.624 6.107-1.96 9.13-3.023l-.102-.607c1.957-.641 3.895-1.344 5.862-1.966-.16-.112-.5-.306-.662-.413-.081-.287-.168-.573-.252-.863-7.688 3.174-15.853 4.732-23.716 7.316-2.598.846-5.368 1.397-7.668 2.944.67.648 1.598.302 2.405.218l.013-.027ZM34.28 140.453c5.18.273 10.325.755 15.513.797 7.486-.039 14.894 1.171 22.286 2.193 6.808.926 13.434 2.796 20.01 4.73-1.443-.815-2.86-1.735-4.49-2.132-4.095-1.114-8.044-2.772-12.237-3.492 1.005.437 2.061.704 3.074 1.104-5.097-.63-9.975-2.491-15.004-3.542 1.864.822 3.794 1.373 5.673 2.12-3.106-.06-5.947-1.489-8.917-2.253-5.427-2.473-11.52-.795-17.25-1.398-4.312-.461-8.886-.923-13.042.666 1.11 1.212 2.876 1.064 4.363 1.246l.021-.039Zm65.796 49.377c-1.709.54-3 1.87-4.274 3.054a23.974 23.974 0 0 0 4.253-3.014l.021-.04Zm-24.641-25.555a156.205 156.205 0 0 0-10.993 1.867 44.636 44.636 0 0 0 10.993-1.867Zm13.64 6.776c6.724-1.209 13.488-2.39 20.279-3.04-2.329.931-4.814 1.308-7.258 1.793 4.654-.414 9.212-1.505 13.874-1.974a18.288 18.288 0 0 1-1.212-1.453c-12.925 1.801-26.443.474-38.835 5.245 4.377.639 8.836.442 13.14-.579l.013.008Zm-57.507-40.857a89.386 89.386 0 0 0 19.701 4.936 155.926 155.926 0 0 1 21.248 4.088c6.861 2.022 13.97 3.188 20.73 5.584 6.624 2.424 13.15 5.12 19.758 7.576-1.192-1.122-2.398-2.241-3.696-3.254 2.223.743 3.478 2.876 5.497 3.825l.717-.384c-4.102-3.537-9.432-4.95-13.891-7.913-4.565-1.569-9.158-3.219-13.958-3.916 5.697 2.454 12.136 3.507 17.116 7.392-5.726-2.998-12.187-4.072-18.073-6.664.269.296.532.583.792.874-8.503-3.695-17.695-5.343-26.637-7.638-1.406-.369-2.775-.956-4.247-1.037 1.984.771 4.06 1.333 6.003 2.223-5.054-.857-9.989-2.348-14.98-3.532-5.962-1.713-12.028-3.81-18.34-3.295.72.439 1.477.818 2.26 1.135Zm72.992 53.77c4.495-3.345 8.505-7.288 12.318-11.375-2.571 4.482-6.752 7.698-10.661 10.945 1.277-.33 2.685-.507 3.742-1.379a88.938 88.938 0 0 0 7.983-7.273l.067-.787c-1.076 1.424-2.671 2.238-4.06 3.263 2.17-2.935 5.173-5.089 7.385-7.988a14.035 14.035 0 0 0-2.139-.313c-1.34 1.375-2.319 3.062-3.606 4.492-3.91 4.586-9.413 7.332-13.895 11.27a18.193 18.193 0 0 0 2.866-.855Zm34.443 22.512c4.338-3.679 7.897-8.094 11.294-12.598-1.733.687-3.685.833-5.331 1.703-4.248 4.423-8.354 9.055-11.739 14.182 1.866-1.185 4.065-1.817 5.776-3.287Zm-10.257-8.568c-1.081-.101-2.135-.432-3.222-.507a14.305 14.305 0 0 0-2.566 3.085c1.935-.821 4.26-1.03 5.788-2.578ZM81.239 162.81c3.07.656 6.225.679 9.327.596 5.702-.013 11.561 2.163 17.142.215 2.944-.442 5.821-1.619 8.824-1.367-1.453.504-2.991.737-4.442 1.274 4.589-.295 9.069-1.659 13.647-1.834l-2.053.763c4.039-.422 7.946-1.575 11.941-2.285 1.749-.274 3.319-1.148 4.939-1.805-11.958 2.827-24.282 3.396-36.535 3.418-6.018-.249-12.014-.872-18.047-.935-2.82.071-5.858-.777-8.51.496.992 1 2.456 1.136 3.76 1.458l.007.006Zm42.392 34.687c.726-.64 1.518-1.307 1.808-2.274a11.78 11.78 0 0 0-1.808 2.274Zm30.622 19.481c3.248-3.968 7.791-6.707 10.924-10.816-.683.317-1.434.573-1.899 1.206a42.072 42.072 0 0 1-6.446 6.315c-1.754 1.453-3.8 2.635-5.098 4.562a9.116 9.116 0 0 0 2.53-1.283l-.011.016Zm-22.68-20.78c4.229-1.247 8.617-1.883 12.936-2.841 5.215-.493 10.2-2.321 14.988-4.353 6.633-2.174 13.393-4.032 19.764-6.948 4.512-2.285 9.365-3.834 13.618-6.604-9.867 4.319-19.919 8.247-30.27 11.206 1.962-1.07 4.091-1.61 6.158-2.358 7.09-2.585 14.079-5.454 21.023-8.416 2.865-1.781 6.152-2.769 8.961-4.662-3.358.512-6.741.886-10.106 1.4-5.94 2.454-11.093 6.473-17.037 8.943-3.489 1.663-7.245 2.642-10.753 4.262a120.942 120.942 0 0 1-17.66 6.585c-5.266 1.346-10.93.833-16.015 2.89a5.188 5.188 0 0 0-1.743 1.149c1.93.814 4.316.885 6.14-.275l-.004.022Zm-43.03-36.762a220.838 220.838 0 0 1 10.147-3.583c-.42-.359-.843-.714-1.264-1.08a141.738 141.738 0 0 1-15.442 5.182c2.168-.044 4.47.383 6.56-.519Zm13.335 5.625c-3.699-.862-7.167.937-10.691 1.767 3.563-.413 7.357-.074 10.666-1.766l.025-.001Zm43.767 44.96a64.464 64.464 0 0 0 8.002-8.612c-1.285.682-2.743.958-4.041 1.59-.982 1.35-1.762 2.847-2.855 4.102.676-1.357 1.261-2.74 1.959-4.075-.581.205-1.334.168-1.648.784-1.093 1.571-2.237 3.216-2.575 5.137.379.391.773.726 1.158 1.074Zm-14.203-18.14c-1.07-.002-2.142.007-3.214.016a28.08 28.08 0 0 0-1.483 3.059 47.747 47.747 0 0 1 4.697-3.075Zm-12.245-12.783c1.646-2.593 2.47-5.587 3.341-8.501-3.332 4.105-7.242 7.668-10.99 11.374a61.933 61.933 0 0 0 7.635-2.852l.014-.021Zm25.009 14.809c-4.595.907-9.201 1.848-13.747 2.983 4.682-.237 9.336-1.431 13.745-2.954l.002-.029Zm-24.374-6.044c2.521-1.662 5.014-3.355 7.536-5.003-1.126-.035-2.251-.081-3.374-.199-1.559 1.619-3.291 3.129-4.164 5.231l.002-.029Zm13.448 2.654c7.391-.543 14.463-3.05 21.191-5.954-4.885 1.35-9.598 3.416-14.542 4.493 6.907-2.664 13.964-4.975 20.8-7.816-1.737-.077-3.04 1.367-4.771 1.387-1.446-.039-2.705.711-3.992 1.258-5.613 2.116-11.235 4.822-17.317 4.997 6.909-2.115 14.141-3.749 20.46-7.327-.558-.073-1.138-.184-1.722-.255 2.073-1.23 4.509-1.441 6.832-1.943l.047-.418c-.466.126-.938.236-1.408.335-.089-.135-.268-.412-.356-.539-3.398 1.288-6.657 2.874-10.13 3.909-5.966 1.627-11.895 3.383-17.861 5.009-2.443.65-4.989 1.046-7.264 2.172 3.213 1.14 6.695 1 10.033.692Zm5.488.592c-1.18.147-2.355.304-3.534.415-1.752.102-3.101 1.367-4.596 2.142 2.864-.345 5.768-.729 8.134-2.572l-.004.015Zm31.905 24.479a14.5 14.5 0 0 1-5.543 1.106c-.648.766-1.471 1.545-1.36 2.645 2.822.302 4.917-2.113 6.899-3.754l.004.003Zm-27.448-19.922c-1.394.796-1.941 2.388-2.763 3.673 1.005-1.146 2.221-2.211 2.759-3.675l.004.002Zm-47.192-35.427c1.01-.892 2.053-1.743 3.011-2.69-2.094.716-4.098 1.672-6.155 2.493 1.031.067 2.08.144 3.124.183l.02.014Zm60.771 38.575c7.404-2.94 13.639-8.032 19.948-12.768-.737.035-1.522-.14-2.222.14a140.58 140.58 0 0 0-12.565 8.432c-4.949 3.777-11.453 4.506-16.536 8.013 4.077-.11 7.696-2.231 11.355-3.831l.02.014Zm2.417 7.971c3.889-2.219 8.323-3.377 12.011-5.974 4.421-2.94 9.112-5.49 13.262-8.83-1.523.273-3.116.34-4.574.878-2.779 1.683-5.571 3.369-8.402 4.961a146.609 146.609 0 0 0-9.8 4.949c-3.145 1.702-6.624 2.764-9.641 4.701 2.367.685 4.848-.054 7.144-.685Zm-9.014-7.861c2.226-2.105 4.027-4.65 6-7.004-1.627.877-3.979.696-4.857 2.605-1.673 2.745-4.085 4.89-6.16 7.312 1.563-1.152 3.376-1.894 5.017-2.913Zm-22.141-17.18a77.31 77.31 0 0 0 14.105-1.247c4.136-.739 8.184-1.892 12.334-2.553 3.141-.621 6.384-.916 9.398-2.027-3.121.312-6.2 1.202-9.369 1.091 5.035-.892 10.142-1.607 15.082-2.966-2.431.098-4.795.766-7.261.81 1.074-.397 2.205-.615 3.312-.91-1.135-.181-2.433-.134-3.231-1.122-6.446 2.577-13.489 2.76-20.115 4.731-2.204 1.066-4.77.852-7.114 1.473-3.349.823-6.743-.047-10.111-.125-1.58-.126-2.876.939-4.189 1.645 2.212 1.161 4.732 1.284 7.159 1.2Zm43.414 32.037c4.879-2.279 9.732-4.747 14.006-8.062a105.568 105.568 0 0 0-11.492 6.147c-1.256.763-2.517 1.657-4.024 1.802 1.812-1.223 3.651-2.421 5.483-3.619 7.799-4.698 16.832-7.66 23.175-14.492-4.695 3.309-9.607 6.308-14.422 9.447 3.722-3.547 8.406-5.833 12.545-8.823a57.86 57.86 0 0 0 12.88-11.598c-4.729 3.437-9.038 7.441-13.779 10.869-1.403.966-2.756 2.21-4.53 2.388 5.788-3.759 11.009-8.297 16.371-12.615-2.779.861-5.975 1.14-8.015 3.477-5.864 5.6-11.778 11.159-18.162 16.178-3.544 3.264-8.106 5.008-12.497 6.811-1.942.945-3.987 1.89-5.398 3.55 2.691.594 5.399-.34 7.847-1.443l.012-.017Zm-29.146-23.563c-1.972.21-3.597 1.363-5.216 2.404a6.73 6.73 0 0 0 5.205-2.387l.011-.017Zm-36.025-24.35.566-.769c-.829.163-1.637.418-2.41.758.586.043 1.209.031 1.824.021l.02-.01Zm-2.366-8.49a20.786 20.786 0 0 1-2.229-.218 45.629 45.629 0 0 1-3.53 3.322c2.491.673 4.328-1.372 5.739-3.094l.02-.01Zm45.17 24.254c1.14-.133 1.858-1.008 2.385-1.957-4.886.966-9.704 2.307-14.678 2.779-2.196-.037-3.788 1.875-4.981 3.493 5.7-1.55 11.505-2.85 17.254-4.304l.02-.011Zm-22.568-5.122c2.231-1.998 4.259-4.221 6.426-6.294-1.189.099-2.7-.381-3.511.784a71.118 71.118 0 0 1-7.301 7.097c1.449-.533 3.013-.82 4.367-1.577l.019-.01Zm-8.297-1.883c1.441-1.695 2.977-3.299 4.388-5.02a37.796 37.796 0 0 1-.623-.154c-1.146 1.821-3.043 3.192-3.784 5.184l.019-.01Zm-4.559-17.378c-2.639-1.099-5.291 1.189-7.84-.109-.93 1.276-1.936 2.494-2.964 3.691 4.027.75 7.338-1.926 10.784-3.571l.02-.011Zm-64.292-42.912c6.845 3.034 14.026 5.279 20.86 8.379 6.694 3.507 13.889 6.011 20.53 9.671a5.848 5.848 0 0 0 3.223.818c-5.744-2.481-11.087-5.73-16.57-8.718-2.677-1.315-5.449-2.415-8.148-3.691l-.144-.667a66.102 66.102 0 0 0-8.932-3.98c4.636 3.049 9.675 5.344 14.707 7.738-6.105-1.813-11.785-4.816-17.268-8.022-3.341-2.198-7.223-3.2-10.999-4.318-1.037-.216-2.136-.841-3.143-.269 1.7 1.476 3.849 2.203 5.861 3.074l.023-.015Zm79.92 63.693c3.836-1.671 7.698-3.362 11.747-4.422-3.47 1.908-7.278 3.075-10.821 4.823 6.097.426 11.489-2.965 17.014-4.946a53.67 53.67 0 0 0 9.316-3.99c-1.222.215-2.395.641-3.637.763 2.053-1.007 4.316-1.38 6.282-2.527-1.732.39-3.683.183-5.225 1.235-6.346 3.932-13.375 6.675-20.524 8.733 4.782-2.804 10.267-4.107 15.176-6.664 1.556-.836 3.148-1.584 4.659-2.487a16.875 16.875 0 0 0-3.41.421c-7.759 3.162-15.434 6.588-23.438 9.122.957.033 1.972.325 2.861-.061Zm17.137 11.055a5.853 5.853 0 0 0-3.836 2.073 27.653 27.653 0 0 0 3.836-2.073Zm11.822 3.204c-1.321 1.942-3.047 3.548-4.603 5.32 1.665-.765 3.741-1.123 4.778-2.763 1.196-1.719 2.555-3.331 3.589-5.157-1.474.71-3.302.887-4.375 2.253-1.86 2.201-3.844 4.291-5.719 6.469 2.323-1.86 4.303-4.032 6.347-6.111l-.017-.011Zm-53.503-34.985c-.534-.317-1.063.478-1.204.952a1.453 1.453 0 0 0 1.221-.94l-.017-.012Zm-6.612-4.077c.678 1.336 2.318 1.35 3.547 1.859l1.042-.492.371.867a10.177 10.177 0 0 1 3.4.539 1.413 1.413 0 0 1-.512-1.714c.511.325.989.688 1.481 1.03-.343.291-.69.58-1.038.861.963.743 2.163.646 3.285.416-1.106-.16-2.319-.815-1.921-2.104.913.481 1.865.883 2.847 1.202l-.781.79a10.415 10.415 0 0 1 4.327-.094c1.991.455 3.451-1.678 5.407-1.461 1.338.377 2.019 1.892.951 2.964 1.626-.586 3.552-.878 4.964.33 1.589-1.287 5.282-2.114 5.555.767.877-2.057-1.919-2.554-2.799-3.914 2.115-.703 4.631 1.499 3.8 3.691 1.959-.33 4.026-.413 5.906-.962-.309-.178-.608-.387-.91-.591 1.959-.664 3.028-2.794 5.096-3.194-.546 1.782-2.195 2.735-3.603 3.752 1.113-.358 2.053-1.104 3.149-1.516l-.904 1.063c1.558-.541 3.197-.85 4.646-1.68a6.715 6.715 0 0 1-.795-2.428c-1.401-.611-2.755-1.65-4.341-1.706-.933-.041-.83 1.035-.995 1.657.41-.256.819-.52 1.223-.786l.202.926a10.437 10.437 0 0 1-4.039 3.46c-1.127.306-1.741-.998-1.542-1.932.455.116.907.236 1.368.344l1.569-.942c-1.053.253-2.545.305-3.049-.868-.025-.839.317-1.654.091-2.493-1.962 1.069-4.09.155-6.166.47.176 1.304.029 3.405-1.725 3.354-2.989-.168-5.179-2.63-7.619-4.084-.587-.031-1.204.069-1.808.069-.127.332-.254.664-.394.987-.768-.602-1.423-1.454-2.501-1.437.777.791 2.706 1.195 2.278 2.633-1.023 1.601-3.013.497-4.372.044-2.435-1.085-5.184-.898-7.619-1.983-1.149-.544-2.384.101-3.603-.072l-1.443 1.041c-.166-.164-.502-.495-.669-.666a2.495 2.495 0 0 0-2.48 2.043c.377 0 .758-.014 1.14-.029l-.017-.011Zm24.615 20.379a.867.867 0 0 0 .679-.836c-.33-.26-1.03.562-.663.848l-.016-.012Zm-27.167-35.952c4.808.003 9.392 1.543 14.062 2.479 2.975.695 5.913 1.539 8.903 2.177 9.422 1.911 18.45 5.466 26.975 9.857.726.505 1.291-.368 1.863-.7-5.574-2.332-10.853-5.306-16.483-7.488-3.937-1.692-8.35-.976-12.421-2.056-1.117-.266-1.929-1.506-.739-2.341-8.207-2.782-16.916-3.034-25.42-4.165 1.287-.098 2.555-.049 3.804-.216-1.36-.337-2.766-.469-4.119-.862 1.045-.083 2.09.016 3.12-.107-3.36-.658-6.831-.491-10.206-.209-2.331.314-4.908.237-6.85 1.785 5.838.816 11.721 1.032 17.539 1.841l-.028.005Zm27.207 30.994c3.862.812 7.805.78 11.733.858l-.045-.408a20.08 20.08 0 0 1-5.054-.175c1.481-.29 2.998-.239 4.484-.502-1.339-.238-2.708-.265-4.043-.525 7.738-.411 15.612.313 23.245-1.328 4.572-.892 9.207-1.472 13.763-2.454-.478-.022-.946-.05-1.435-.03a8.44 8.44 0 0 1-.92-1.749c-8.532 1.369-17.115 2.52-25.679 3.654-7.684.193-15.381-.006-23.073.164 1.905 1.794 4.642 1.921 7.052 2.49l-.028.005Zm1.172 3.793a1.68 1.68 0 0 0 1.025-1.114c-.4-.125-1.153.721-.997 1.109l-.028.005Zm-.999-.427c.552-.64 1.067-1.31 1.543-2.008a38.75 38.75 0 0 0-.664-.279 9.512 9.512 0 0 0-.847 2.284l-.032.003Zm-5.061-14.427-1.236 1.216a7.824 7.824 0 0 0 3.024-2.157c-.446-.165-.94-.399-1.393-.142a61.305 61.305 0 0 0-8.775 4.245c3.109-.005 5.593-2.209 8.408-3.167l-.028.005Zm56.397 50.941c2.81-3.494 4.947-7.45 7.243-11.283-1.657.631-2.164 2.445-3.228 3.677-2.489 3.139-5.101 6.193-7.602 9.323 1.162-.585 2.455-.964 3.587-1.717Zm-72.737-58.896a47.78 47.78 0 0 0-6.946-2.014c2.193.856 4.467 2.164 6.917 2.012l.029.002Zm88.512 61.277c2.086-2.665 4.326-5.21 6.319-7.951a51.19 51.19 0 0 0-7.497 5.821c-2.789 2.59-5.993 4.963-7.744 8.433 3.303-1.526 6.197-3.865 8.893-6.305l.029.002Zm-39.69-23.284a4.545 4.545 0 0 0-2.342 2.254c1.194-.21 1.816-1.244 2.342-2.254Zm-14.784-17.594a58.752 58.752 0 0 0-4.472 5.028c2.498-.441 3.484-2.97 4.472-5.028Zm61.28 46.295c2.783-3.36 5.549-6.757 8.309-10.146l-.253-.626c3.575-4.77 7.91-9.004 10.852-14.221-1.195 1.306-2.297 2.663-3.612 3.879 1.259-2.046 2.832-3.886 4.057-5.962-1.327.988-2.958 1.705-3.833 3.172a146.156 146.156 0 0 1-15.195 19.868c-3.051 2.748-6.687 5.138-8.706 8.853 3.144-.79 5.758-2.989 8.381-4.817Zm-79.033-57.365a8.63 8.63 0 0 0-2.126 1.419c1.005.28 1.504-.804 2.108-1.401l.018-.018Zm66.629 36.185c-2.82 1.49-3.105 5.11-5.094 7.373-1.67 1.656-2.801 3.737-4.156 5.631 4.252-3.275 6.402-8.526 9.232-12.986l.018-.018Zm-49.385-31.321.316.421c5.744-1.58 11.729-2.244 17.285-4.454-4.89 3.186-10.915 3.681-16.395 5.353 4.403-.15 8.732-1.174 12.99-2.218 4.777-2.49 10.189-3.504 14.689-6.558-.168-.117-.513-.357-.668-.502-1.907.5-3.039 2.513-5.054 2.931.989-.895 2.08-1.676 3.112-2.529-5.515 1.643-11.101 3.022-16.596 4.732-7.335 2.203-14.976 2.84-22.456 4.193 4.268.096 8.748.553 12.761-1.355l.016-.014Zm-10.795-4.979c-1.519-.363-3.178.455-4.557-.504-.399.197-.804.378-1.215.548l-1.022 1.469c2.291-.275 4.959.285 6.778-1.499l.016-.014Zm12.009 14.11c.492-.996 1.007-1.99 1.428-3.024-1.722.244-1.712 2.461-2.61 3.663l1.182-.639Zm20.394 11.921c-1.501.678-2.591 1.972-3.51 3.293 1.176-1.069 2.496-2.02 3.504-3.285l.006-.008ZM75.83 122.995a7.893 7.893 0 0 0-2.39-1.23 8.14 8.14 0 0 0 2.384 1.238l.006-.008Zm97.85 62.557c-2.396.914-4.836 1.7-7.239 2.616-1.813 1.502-3.244 3.429-4.735 5.229 3.779-2.893 8.003-5.166 11.974-7.845Zm-82.149-54.121c1.45.742 2.76 1.921 4.448 2.042-2.957-1.875-6.282-3.081-9.05-5.238 3.206 1.135 6.175 2.799 9.25 4.208 1.42.758 2.86 1.595 4.529 1.593-1.74-.998-3.59-1.84-5.328-2.843-5.082-2.994-10.907-4.345-16.159-6.982a18.652 18.652 0 0 0-3.025-1.235c5.139 2.809 10.136 5.812 15.335 8.455Zm45.77 41.409a8.859 8.859 0 0 0 1.941-3.106c-1.205.543-1.466 1.994-1.941 3.106Zm39.667 25.521a42.08 42.08 0 0 0-4.664 2.721 20.96 20.96 0 0 0 4.664-2.721Zm-65.716-49.335a13.384 13.384 0 0 0-5.448-2.792c1.737 1.081 3.654 1.818 5.448 2.792Zm87.577 39.024c-2.917 1.191-6.046 1.741-9.014 2.751a39.69 39.69 0 0 0-3.71 3.354c-2.302 3.939-4.733 7.8-7.12 11.685a249.02 249.02 0 0 0 19.835-17.778l.009-.012Zm-63.588-18.586c1.931-.202 3.891-.227 5.804-.588-1.962-.093-3.934.307-5.883.168l.079.42Zm27.834 14.188c1.023-.823 1.691-2.002 2.562-2.973-2.779 1.963-6.654 2.439-8.376 5.667 1.952-.889 3.892-1.761 5.814-2.694Zm-33.201-25.058c-1.681-.744-3.357.142-4.689 1.164 1.556-.355 3.562.158 4.695-1.173l-.006.009Zm-19.1-11.392c-1.318-1.885-3.721-2.528-5.48-3.972 1.84 1.311 3.462 2.909 5.486 3.964l-.006.008Zm35.001 22.043c-1.605.101-3.219.347-4.834.472l-.809 1.836c1.877-.807 3.769-1.548 5.649-2.316l-.006.008Zm8.308 4.685c1.484-.015 1.604-1.824 2.134-2.856-3.49 1.882-7.314 2.959-10.951 4.484 2.962-.485 5.874-1.204 8.835-1.628h-.018Zm17.966 22.304c1.947-2.036 3.342-4.548 4.687-6.997-1.944 1.996-3.027 4.725-4.661 7.003l-.026-.006Zm-60.835-51.003c.459.336.935.647 1.427.933-.804-.901-1.891-1.456-2.893-2.099.273.404.54.808.81 1.216l.656-.05Zm-7.997-9.796a31.889 31.889 0 0 0-7.07-1.066c2.327.508 4.685.861 7.058 1.058l.012.008Zm-19.448-13.131c-1.249-1.819-3.667-2.412-4.873-4.293 2.035.576 3.671 2.013 5.504 3.027-4.299-5.135-10.06-8.693-14.597-13.592-3.297-2.489-6.29-5.345-9.562-7.87a41.177 41.177 0 0 0 5.603 7.155 141.952 141.952 0 0 0 15.862 14.636 7.934 7.934 0 0 0 2.05.928l.013.009Zm34.193 27.045c-1.009-.702-1.984-1.454-2.99-2.16a51.01 51.01 0 0 0 1.164 2.028c.586.024 1.201.05 1.814.123l.012.009Zm.912-.584a78.497 78.497 0 0 0 6.819 5.032c.772-.236 1.658-.502 1.722-1.469-.8-1.634-1.86-3.26-3.53-4.106-3.407-1.999-6.446-4.832-10.278-5.983 4.209 3.129 8.68 5.9 12.972 8.893l.162.764c-1.8-1.167-3.796-1.99-5.646-3.077.365.455.732.917 1.097 1.373-2.993-2.576-6.678-4.404-9.176-7.481-.842-.976-2.138-1.171-3.317-1.48a36.904 36.904 0 0 1 2.961 2.614c-2.229-1.356-4.24-3.279-6.954-3.543 4.457 2.676 9.144 5.085 13.147 8.467l.021-.004Zm57.983 38.626c-2.256 1.615-4.588 3.146-6.704 4.936a34.453 34.453 0 0 0 6.704-4.936Zm-87.95-63.363c3.578.109 7.192-.219 10.609 1.038 5.204 1.411 10.528 2.37 15.662 4.092 1.628.67 3.404.305 5.102.305-.994-.32-2.052-.551-3.055-.859 2.752.088 5.332 1.202 8.074 1.356-3.854-1.409-7.902-2.18-11.793-3.475-6.195-2.113-12.514-3.996-19.047-4.73-3.285-.32-6.75-1.106-9.909.24 1.346.857 2.63 2.146 4.37 2.042l-.013-.009Zm120.984 79.002c-.206-.229-.406-.466-.61-.699-3.454 4.404-7.186 8.577-10.81 12.832a61.162 61.162 0 0 0 11.441-12.119l-.021-.014Zm-34.236-10.77c-.687.864-1.277 1.8-1.761 2.793.973-.62 1.878-1.543 1.782-2.779l-.021-.014Zm-77.578-60.883c3.514 1.575 6.838 3.815 10.713 4.344a46.523 46.523 0 0 0-3.516-7.512c-4.638-1.882-9.53-3.734-14.642-3.23 2.35 2.293 4.326 5.184 7.482 6.424l-.037-.026Zm63.921 49.273c1.458-.477 2.738-1.389 4.044-2.173-2.824.787-5.759 1.277-8.485 2.333 1.483-.021 2.968-.029 4.441-.16Zm51.672 43.548a14.235 14.235 0 0 0 4.632-5.781l-.476-.331a30.428 30.428 0 0 1 3.722-6.434 5.428 5.428 0 0 0-2.006 2.008c-2.17 2.917-4.494 5.811-5.816 9.232-.11.429-.481.962-.056 1.306Zm-42.918-48.569c-3.916.929-7.938 1.783-11.765 3.022 3.943-.775 8.104-1.295 11.775-3.045l-.01.023Zm30.948 22.687c5.052-4.485 11.197-7.533 16.005-12.316-1.906.945-3.738 2.099-5.835 2.637 3.018-3.191 7.714-3.947 11.076-6.643-2.658 1.073-5.176 2.487-7.882 3.453-3.263 2.064-6.414 4.335-9.483 6.68-4.905 4.021-10.127 7.834-13.966 12.956 3.497-2.085 6.593-4.722 10.081-6.77l.004.003Zm-23.722-6.157a61.653 61.653 0 0 0 10.45-2.47c6.243-2.962 12.63-5.823 19.419-7.188-4.849 1.929-9.839 3.553-14.463 6.015 3.075-.569 5.944-1.848 8.867-2.907l.348-.72c3.704-1.386 7.548-2.395 11.154-4.05 4.9-2.283 9.854-4.589 15.108-5.962-6.297 2.924-12.755 5.59-19.107 8.428 1.771-.333 3.418-1.08 5.118-1.651 4.917-1.607 10.073-2.506 14.775-4.714 4.843-2.226 10.088-3.507 14.722-6.194-1.298.247-2.548.722-3.872.866 6.484-2.319 12.649-5.438 18.701-8.71 1.562-.575 2.729-1.814 3.797-3.051-5.024 2.74-10.107 5.382-15.048 8.264.463-.525.912-1.065 1.343-1.623-.662.392-1.287.834-1.931 1.244 3.089-3.075 7.262-4.688 10.718-7.239l-1.368 1.483a48.67 48.67 0 0 1 6.622-2.656c.274-1.111-.561-1.705-1.536-1.957-4.016 2.027-7.601 4.799-11.534 6.951-9.817 4.92-20.017 9.043-30.253 13.044-4.548 1.706-9.242 2.957-13.757 4.729-7.06 2.892-14.596 4.273-21.815 6.659-2.802 1.016-6.028 1.364-8.364 3.313.614.216 1.277.25 1.91.099l-.004-.003Zm-15.747-13.393a1.35 1.35 0 0 0-1.396.204c.234.485 1.163.157 1.383-.177l.013-.027Zm7.021 1.976c1.295-1.712 3.264-2.765 4.281-4.717a19.483 19.483 0 0 0-7.654 6.546c1.178-.459 2.549-.741 3.369-1.814l.004-.015Zm-40.998-30.74c1.281.327 2.605.449 3.924.362a17.57 17.57 0 0 0-2.036-3.408c-1.552-.745-3.256-1.139-4.897-1.66a11.146 11.146 0 0 0 3.005 4.721l.004-.015Zm-5.495-4.633a2.523 2.523 0 0 0-2.03-1.291 9.027 9.027 0 0 0 2.026 1.306l.004-.015Zm-.937-3.624c5.733.258 11.45.801 17.191.784 5.311.006 10.575.832 15.835 1.472a125.092 125.092 0 0 1 25.613 5.768c-1.736-.891-3.383-2.025-5.313-2.479-4.226-1.181-8.335-2.835-12.668-3.609 1.151.49 2.38.754 3.529 1.237-2.674-.094-5.166-1.159-7.765-1.72-3.067-.703-6.073-1.632-9.106-2.427 2.542.923 5.105 1.781 7.63 2.746-4.254-.257-8.179-2.246-12.232-3.361-3.9-.467-7.837-.181-11.757-.156-5.026-.241-10.432-1.476-15.215.621 1.173 1.035 2.797 1.002 4.254 1.14l.004-.016Zm65.81 49.411c-1.746.68-3.102 2.043-4.474 3.262a20.718 20.718 0 0 0 4.474-3.262Zm-30.923-18.559 1.673-2.403-.829.263a61.13 61.13 0 0 0-.873 2.12l.029.02Zm-36.628-33.336a30.244 30.244 0 0 0-5.388-1.156c1.741.5 3.498 1.326 5.359 1.136l.029.02Zm-4.308-2.218c-1.241-1.655-1.873-3.861-3.807-4.896.613 1.437.922 2.979 1.517 4.416.74.213 1.497.367 2.262.46l.028.02Zm63.165 52.38c1.904-1.11 5.175-.63 5.744-3.223.68-1.652 1.416-3.277 1.987-4.974-1.777 1.4-3.423 2.951-5.229 4.313-1.323.912-1.664 2.592-2.502 3.884Zm-70.821-57.976c-.167-.792-.372-1.574-.574-2.36-.228-.128-.687-.386-.917-.51.468.971.954 1.936 1.491 2.87Zm41.577 26.497c-2.405-.377-4.764.721-7.066 1.342a46.54 46.54 0 0 0 7.063-1.338l.003-.004Zm-63.39-45.329a9.593 9.593 0 0 1 1.892-1.118 31.161 31.161 0 0 1-3.573-3.212c-1.228-2.102-3.865-2.409-5.82-3.58 1.677 3.322 4.646 5.661 7.521 7.881l-.02.029Zm51.513 40.181c-.064-1.116-.618-2.122-.906-3.187a270.81 270.81 0 0 1-2.115-.863c.313.618.671 1.213 1.07 1.779a20.683 20.683 0 0 0-.237 2.581 1.521 1.521 0 0 0 1.167.309 1.524 1.524 0 0 0 1.029-.631l-.008.012Zm-39.446-32.149c1.565 1.156 3.605 1.102 5.393 1.683-1.491-1.129-2.847-2.462-4.455-3.423-2.87-1.126-5.78-2.195-8.639-3.406 2.446 1.885 5.158 3.394 7.71 5.134l-.008.012Zm64.75 50.61a32.374 32.374 0 0 0 3.505-5.281c-1.64.843-3.371 1.563-4.901 2.598a19.297 19.297 0 0 0-1.57 3.779c1.013-.318 2.081-.524 2.966-1.096Zm-.449-5.628c-3.249.382-6.507.952-9.694 1.638a36.913 36.913 0 0 0 9.71-1.626l-.016-.012Zm-27.958-15.662c-.481-1.059-1.258-2.007-2.464-2.287.239.918.594 1.802 1.057 2.629.488-.098.949-.21 1.423-.33l-.016-.012Zm-39.572-34.033c4.951 1.838 9.813 3.888 14.774 5.684 4.066 1.453 7.83 3.622 11.63 5.615a7.311 7.311 0 0 1 2.05-.321c-2.222-.797-4.653-1.144-6.582-2.589l1.674-.114c-5.923-4.122-12.899-6.425-19.526-9.186 7.09.94 13.189 5.117 19.553 8.036 2.045.071 3.536 1.578 5.435 2.077-1.861-1.411-4.129-2.142-6.18-3.229-5.218-2.413-10.276-5.233-15.688-7.203 2.113.21 3.998 1.254 5.936 2.073 3.436 1.582 6.954 2.983 10.395 4.548-7.547-4.265-15.736-7.765-24.425-8.648-2.119-.166-4.3-.338-6.366.294 2.244 1.404 4.863 2.015 7.32 2.963Zm24.736 22.017c-.358-1.235-1.608-1.783-2.734-2.195.749.576 1.546 1.076 2.321 1.616-.422.065-.846.123-1.266.184.566.132 1.122.269 1.679.395Zm-3.102-1.885c.271-.39-.215-1.056-.652-1.129-.25.386.271 1.011.652 1.129Zm60.685 37.596c-2.937 1.158-4.092 4.288-5.982 6.565 2.814-1.226 4-4.383 5.982-6.565Zm-63.416-43.953c.81.174 1.693.709 2.473.156-3.514-1.136-7.062-2.302-10.709-2.879 2.656 1.135 5.473 1.872 8.236 2.723Zm59.764 43.146c7.627-1.432 15.29-2.803 23.001-3.568-1.848.863-3.902 1.041-5.838 1.618a22.797 22.797 0 0 0 4.238-.613c9.112-1.501 18.466-2.17 27.288-5.091.079.104.235.309.322.412 5.915-1.685 12.125-2.296 17.854-4.66-5.19 3.427-11.624 3.826-17.413 5.723 4.709-.152 9.285-1.418 13.839-2.493 4.756-2.547 10.263-3.427 14.675-6.653-2.291-.986-3.409 2.152-5.539 2.484A28.536 28.536 0 0 1 249 157.59c-4.982 1.507-10.051 2.693-15.013 4.268-7.473 2.296-15.234 3.264-22.911 4.357a156.122 156.122 0 0 1-25.911 2.737 85.226 85.226 0 0 0-15.66 2.126c-2.001.477-4.072.82-5.895 1.804 3.384.471 6.817.462 10.199-.027Zm-49.48-34.431c.548.472 1.297.428 1.962.513-2.599-2.083-5.543-3.705-7.996-6.008-1.728-1.891-4.509-1.92-6.815-2.691 4.104 3.026 8.748 5.18 12.849 8.186Zm-33.555-27.088a40.76 40.76 0 0 0-5.667-3.615c1.786 1.31 3.16 4.043 5.673 3.607l-.006.008Zm46.911 34.957c-2.402-1.3-4.913-2.81-7.699-3.032 2.628.886 5.176 1.941 7.712 3.029l-.013.003Zm-30.996-23.188c-1.538-1.29-2.968-2.735-4.864-3.458 1.525 1.256 2.884 2.944 4.864 3.458Zm41.198 33.052.545-.662c.482.402.946.811 1.405 1.227 1.36-.064 2.689.757 4.02.173 2.176-.756 4.527-.32 6.714-1.02 1.588-.174 3.312-1.349 4.783-.216 1.128 1.528-1.235 2.186-2.131 2.914.407-.034.815-.078 1.221-.119l.805-1.157a17.5 17.5 0 0 1 1.009 1.062c.461.107.921.233 1.396.295 2.6-1.113 4.914-3.326 7.859-3.42 1.266-.069 1.818 1.046 1.919 2.151 2.077-.753 4.166-1.472 6.218-2.303.291-.89.681-1.744 1.163-2.546-1.198-.572-2.46-1.261-3.827-.836.608 2.25-2.071 4.166-4.139 3.324.965-1.283 3.975-1.557 3.055-3.708-.267 2.859-3.97 1.75-5.381.366-1.692.856-3.564.528-5.255-.192.402.516.848 1.065.396 1.706.541-.165 1.072-.35 1.597-.545a24.67 24.67 0 0 1-1.551 1.764l.38-1.044c-.864.366-1.728 1.232-2.719.835-1.591-.583-2.888-2.21-4.737-1.853-2.18.376-4.162-.887-6.282-.956a7 7 0 0 1-4.597.814l-.442.836-.887-.58c-1.082.251-2.164.485-3.224.801l-.428.755-1.222-.187a2.592 2.592 0 0 0 2.337 2.321Zm39.16 28.839c-.047.576-.127 1.172-.187 1.757 1.86-2.358 2.027-5.652 3.035-8.439-.813.652-1.746 1.311-1.962 2.409-.604 2.32-1.754 4.436-2.534 6.694 1.054-.368 1.259-1.511 1.648-2.421Zm-27.596-25.535c-1.998.789-4.088 1.368-5.989 2.377 2.093-.497 4.208-1.121 5.993-2.374l-.004-.003Zm-30.967-20.411c-3.257-2.223-5.708-5.798-9.706-6.754 2.38 2.32 5.254 4.034 7.765 6.201.512.533 1.28.471 1.945.556l-.004-.003Zm52.745 35.803c.613-.286.852-.936 1.159-1.483-1.112.164-2.265.159-3.34.495-1.437 1.252-2.492 2.881-3.709 4.342 2.047-.981 3.917-2.261 5.894-3.351l-.004-.003Zm-12.587-7.383a26.781 26.781 0 0 0-2.461 3.03c1.539-.226 1.893-1.836 2.465-3.027l-.004-.003Zm-49.297-35.954a90.242 90.242 0 0 0 19.47 4.866c7.599.92 15.12 2.393 22.504 4.409 5.168 1.586 10.53 2.419 15.685 4.058 6.176 1.704 11.979 4.458 17.995 6.628a57.728 57.728 0 0 1 5.685 2.277 31.203 31.203 0 0 0-3.728-3.392c1.528.831 3.103 1.666 4.184 3.069a1.855 1.855 0 0 0 2.174.551 31.176 31.176 0 0 0-8.55-5.055c-2.569-1.032-4.686-2.986-7.389-3.686-3.857-1.204-7.684-2.644-11.718-3.137 5.63 2.462 12.027 3.498 16.938 7.385-5.719-3.006-12.128-4.209-18.088-6.615l1.427 1.212a26.859 26.859 0 0 0-4.759-2.094c-7.008-2.362-14.229-3.989-21.42-5.687-2.116-.511-4.154-1.362-6.335-1.571 2.202.747 4.483 1.293 6.569 2.355-7.829-1.497-15.544-3.693-23.217-5.878a35.477 35.477 0 0 0-9.756-.853c.745.449 1.525.837 2.333 1.161l-.004-.003Zm37.919 30.721a1.055 1.055 0 0 0 1.098-.703c-.331-.224-1.332.303-1.094.706l-.004-.003Zm-45.346-37.582c-.586-.907-1.09-1.933-2.167-2.293.604.87 1.336 1.644 2.171 2.296l-.004-.003Zm18.92 14.809c-1.118-2.147-2.822-3.942-5.289-4.404 1.307 1.884 3.435 3.078 5.285 4.402l.004.002Zm-23.741-27.436a111.624 111.624 0 0 1 16.427 7.778c4.006 2.415 8.421 4.033 12.425 6.442 4.308 2.34 7.956 5.682 12.184 8.119 3.311 1.025 6.761 1.544 10.141 2.313-8-5.128-16.536-9.406-25.086-13.578-2.284-1.145-4.741-1.935-6.857-3.444 4.877 2.292 9.964 4.054 14.775 6.555 5.356 2.802 10.89 5.35 15.938 8.656-2.621-1.824-5.106-3.87-8.004-5.253-3.198-1.617-6.151-3.672-9.345-5.286-5.207-2.667-10.68-4.777-16.016-7.144-3.011-1.797-6.262-3.031-9.479-4.35-2.163-.969-4.576-1.035-6.772-1.905-4.134-1.453-8.616-2.16-12.405-4.432-1.469-.261-3.053-.468-4.479.111 4.574 3.882 11.086 3.519 16.549 5.415l.004.003Zm11.286 14.623c-1.491-1.646-3.783-2.175-5.744-3.12.842 2.474 3.615 2.54 5.74 3.118l.004.002Zm20.488 18.471c-.102-.528-.208-1.058-.307-1.59-.378-.007-.763-.014-1.143-.028l.258 1.099c.394.17.788.347 1.188.516l.004.003Zm-7.243-5.753.926.035c-.534-1.236-1.406-2.354-2.789-2.616a60.643 60.643 0 0 0 1.859 2.578l.004.003Zm56.838 46.213c1.45-2.346 1.965-5.16 2.688-7.799-1.001.309-.978 1.457-1.241 2.291-.394 1.887-1.117 3.643-1.447 5.508Zm-45.33-38.242c-.047-.86-.119-1.72-.2-2.574-.744-.804-1.646-1.45-2.804-1.299.092.812.209 1.624.333 2.435.895.507 1.801.955 2.683 1.447l-.012-.009Zm-44.045-35.575a33.83 33.83 0 0 0-1.09-1.434l-.335.376c.462.351.95.691 1.416 1.053l.009.005Zm94.215 72.698c3.167-2.801 6.674-5.33 9.254-8.722-1.475 1.105-2.727 2.475-4.189 3.588-2.916 2.44-6.339 4.192-9.121 6.798 1.399-.409 2.982-.567 4.056-1.664Zm42.968 12.912c1.847-2.112 2.803-4.85 4.917-6.758-2.105 1.72-4.034 3.653-6.201 5.305a13.64 13.64 0 0 1 3.622-4.33c.747-2.28 2.67-4.047 4.486-5.572-1.752.82-2.631 2.626-3.96 3.941-6.272 6.827-13.061 13.257-18.23 21.009 6.583-2.531 11.119-8.227 15.366-13.595Zm-91.127-48.848c.226-.981.077-1.974-.92-2.467.038.909-.055 1.996.92 2.467Zm-11.225-9.102c.63-.031 1.263-.065 1.901-.108-.827-.356-1.66-.709-2.498-1.056.192.389.391.777.597 1.164Zm-28.755-25.787c-.512-2.318-3.634-2.049-5.497-2.705.48.571.963 1.145 1.437 1.724 1.361.161 2.854.999 4.077.992l-.017-.011Zm71.507 51.652a62.105 62.105 0 0 1-4.094-.084c-.762 1.296-1.458 2.638-2.228 3.929 2.402-.74 5.363-1.102 6.322-3.845Zm-7.041-.381c-1.181.158-1.679 1.187-2.012 2.209a19.661 19.661 0 0 0 2.004-2.215l.008.006Zm47.188 33.779a57.792 57.792 0 0 1 12.196-7.507c-3.896 2.702-8.117 4.97-11.665 8.145a68.152 68.152 0 0 0 6.783-3.518c3.611-2.023 6.538-5.021 10.008-7.252a141.132 141.132 0 0 1 12.493-7.393c3.006-1.257 5.37-3.569 8.114-5.264a458.353 458.353 0 0 1 8.06-4.583c-2.601 2.549-6.067 3.924-8.946 6.11-3.415 2.616-7.01 4.973-10.427 7.582 3.701-1.888 7.224-4.143 10.742-6.346 3.62-2.9 7.595-5.297 11.38-7.954 3.266-3.372 7.221-6.641 8.35-11.414a6.906 6.906 0 0 0-1.505-.645c-1.187.446-.698 1.949-.736 2.939-4.056 5.933-10.301 9.947-16.646 13.106-4.272 1.984-8.561 3.991-12.527 6.559-6.454 4.514-13.611 7.826-20.507 11.576-4.167 2.427-8.801 4.774-11.377 9.027 2.073-1.072 4.76-1.12 6.202-3.173l.008.005Zm-79.006-59.915c1.95.821 4.112.426 6.144.568-3.522-1.745-7.487-1.849-11.264-2.651 1.67.76 3.383 1.447 5.112 2.078l.008.005Zm-28.753-27.923c-4.285-1.892-8.784-3.556-13.427-4.26a244.649 244.649 0 0 0 13.418 4.254l.009.006Zm96.184 59.85c-4.149 2.392-8.254 4.905-12.768 6.562a105.29 105.29 0 0 1-2.098 6.638c5.445-3.792 10.853-7.828 14.858-13.206l.008.006Zm-25.67-5.984c4.153.314 8.286 1.138 12.475.972 4.082-.757 8.108-2.272 12.315-2.176-2.293.67-4.616 1.147-6.884 1.852 3.73-.741 7.508-1.217 11.254-1.867 1.575-.268 3.168-.633 4.775-.483-.944.323-1.936.48-2.873.795 4.31-.367 8.485-1.633 12.742-2.378 1.624-.27 3.093-1.069 4.593-1.675a141.147 141.147 0 0 1-27.546 3.152c-4.679.154-9.37.341-14.044-.116-5.442-.536-10.91-.517-16.361-.804-1.649.016-3.492-.329-4.905.74 4.395 2.382 9.635 1.876 14.475 1.974l-.016.014Zm-13.678-4.842a76.764 76.764 0 0 1-1.705-.176c-.348.58-.701 1.156-1.031 1.718a58.998 58.998 0 0 0 2.723-1.551l.013.009Zm-39.982-31.019c2.251.763 4.435 1.868 6.829 2.085a95.255 95.255 0 0 0-10.978-3.657c1.261.786 2.746 1.059 4.136 1.563l.013.009Zm24.755 21.604a7.495 7.495 0 0 1 3.197.313c-.434-.601-.859-1.207-1.319-1.788l.51 1.018c-1.41-.512-1.845-2.258-3.241-2.815-1.984-.815-3.537-2.346-5.468-3.263a51.665 51.665 0 0 1 6.308 6.526l.013.009Zm-49.972-43.858c-1.678-2.129-3.276-4.338-5.2-6.255-1.602-1.626-3.692-2.569-5.574-3.836a80.886 80.886 0 0 0 5.823 9.008c1.618.414 3.317.579 4.939 1.075l.012.008Zm10.217 9.405c-.725-2.063-2.781-2.757-4.678-3.365.512 2.256 2.884 2.531 4.666 3.357l.012.008Zm86.802 67.35c5.186-4.075 9.642-8.975 13.916-13.97-1.473.034-2.031 1.509-2.842 2.491-1.855 2.569-4.087 4.955-6.924 6.451 2.411-3.089 5.566-5.497 7.931-8.642-.993.167-1.974.361-2.963.531-1.159 1.508-2.409 2.945-3.473 4.518.487-.367.954-.767 1.415-1.158-2.709 4.532-6.858 7.904-10.891 11.198 1.338-.305 2.763-.506 3.831-1.419Zm-68.514-55.08a19.321 19.321 0 0 0-3.606-2.473c-1.445-.33-2.939-.414-4.399-.626 2.523 1.354 5.341 2.054 8.005 3.099Zm-12.539-9.384c-.551-2.55-3.107-2.99-5.095-4.008.922 2.183 3.165 2.976 5.095 4.008Zm45.882 32.586c-3.755-2.479-7.527-4.933-11.787-6.449a120.871 120.871 0 0 1 3.962 5.759c2.707-.899 5.098 1.502 7.825.69Zm13.146 6.481c-.032-.4-.059-.79-.101-1.203-.456-.219-.95-.454-1.428-.677a82.525 82.525 0 0 0-7.287 4.348c2.965-.683 5.899-1.557 8.804-2.477l.012.009Zm68.036 58.303c4.639-4.303 9.962-8.252 12.753-14.091-4.049 4.488-7.548 9.56-12.456 13.184-1.606 1.318-3.468 2.402-4.617 4.166a7.44 7.44 0 0 0 4.319-3.284l.001.025Zm-54.182-49.88c-3.836-.91-7.421 1.04-11.079 1.843 3.687-.521 7.592-.184 11.052-1.874l.027.031Zm-13.219-5.686c3.319-1.27 6.664-2.42 10.022-3.553-.405-.351-.81-.706-1.214-1.064a146.71 146.71 0 0 1-15.446 5.161c2.187-.037 4.524.384 6.61-.575l.028.031Zm-43.408-31.819c-.669-1.453-.664-3.647-2.458-4.201-4.069-1.845-7.782-4.356-11.747-6.403.991 1.201 1.7 2.754 3.194 3.398a76 76 0 0 1 10.984 7.175l.027.031Zm-42.236-32.88c-1.198-2.216-2.47-4.422-3.072-6.899l.483-.31a13.783 13.783 0 0 0-4.282-6.218c.318 3.753 2.623 6.958 4.445 10.132.724 1.112 1.242 2.459 2.399 3.264l.027.03Zm16.36 12.669c-1.408-2.562-2.988-5.087-3.584-7.974 1.59 2.605 2.672 5.513 4.476 7.986.89.62 2.017.795 3.007 1.192a24.704 24.704 0 0 1-2.126-3.069c.64.506 1.256 1.038 1.886 1.55-2.56-3.803-5.128-7.636-8.358-10.913-.71.548-1.455 1.295-.96 2.255a23.22 23.22 0 0 0 5.632 8.942l.027.031Zm107.321 87.54c7.468-5.306 16.105-8.654 23.716-13.72 2.171-3.226 4.415-6.493 5.865-10.135-4.474 2.299-9.358 3.588-13.945 5.621-2.584 1.788-4.851 3.997-7.243 6.034-1.036.893-2.243 1.648-2.978 2.835-1.934 3.069-3.938 6.088-5.415 9.365Zm18.903 15.114a68.586 68.586 0 0 0 9.445-10.31c-.704.557-1.392 1.126-2.159 1.615 1.205-1.853 2.969-3.225 4.333-4.949 3.394-3.879 5.779-8.497 9.086-12.436 1.863-1.802 3.327-3.993 5.366-5.612-2.564 3.817-6.005 6.994-8.226 11.062a23.165 23.165 0 0 0 3.795-4.343c3.524-5.231 7.063-10.483 11.523-14.984-1.846 1.462-3.985 2.488-5.875 3.876a32.105 32.105 0 0 1-4.131 5.253c-4.795 5.456-9.407 11.068-14.301 16.43-2.8 3.306-6.281 6.06-8.479 9.857-.799 1.332-2.33 3.402-.377 4.541Zm-26.372-30.978c1.602-2.539 2.479-5.514 3.266-8.413-3.329 4.119-7.205 7.73-11.024 11.38 2.602-.887 5.3-1.701 7.741-2.979l.017.012Zm-70.648-48.967a18.107 18.107 0 0 0-1.61-4.591c.377 1.541.309 3.442 1.597 4.582l.013.009Zm-1.254-.964a36.947 36.947 0 0 0-1.112-3.958c-.453-.224-.866-.426-1.297-.647.818 1.537.855 3.548 2.397 4.597l.012.008Zm6.048 2.474c.117-2.793-3.014-3.456-4.723-4.998.383 1.435.858 2.844 1.298 4.258 1.135.224 2.274.486 3.413.731l.012.009Zm76.279 49.213a33.221 33.221 0 0 0-5.669 1.961c-1.638 1.479-3.285 3.084-4.132 5.168 3.149-2.522 7.085-4.118 9.789-7.137l.012.008Zm-49.63-29.123.816-.351a7.235 7.235 0 0 0-2.513-2.242c.379.452.776.88 1.162 1.314-3.46-1.836-6.763-3.939-10.118-5.951-.857-.597-1.931-.638-2.93-.742 4.66 2.402 8.799 5.721 13.57 7.963l.013.009Zm-13.953-12.656a38.672 38.672 0 0 0-4.2-.841c1.274.68 2.771.76 4.188.833l.012.008Zm-10.029-6.979c-.535-.5-1.097-.97-1.667-1.428l.197 1.239c.48.054.962.14 1.463.172l.007.017Zm109.695 87.104c5.248-2.589 8.526-7.694 11.697-12.391-2.403 3.594-5.653 6.532-9.179 8.992 2.011-2.68 4.605-4.869 6.406-7.719 3.065-3.792 5.128-8.244 7.844-12.253 1.715-3.435 2.978-7.061 4.508-10.581-1.457 6.092-4.421 11.786-7.467 17.24a57.71 57.71 0 0 0-5.433 7.361c1.727-1.3 2.567-3.479 4.331-4.718 2.26-3.45 4.361-7.011 6.427-10.584 3.871-7.146 6.051-15.048 7.852-22.921l-.847 1.34c.31-4.015 1.356-7.951 1.325-11.992l-.696.125c-.322 6.193-2.501 12.063-4.037 18.05-1.449 5.05-3.82 9.769-5.845 14.594-3.197 7.036-8.938 12.338-13.424 18.496-1.614 2.152-3.702 3.902-5.26 6.081-.739 1.105 1.103 1.371 1.798.88ZM164.4 148.42c-.723-1.148-1.525-2.401-3.04-2.438a32.506 32.506 0 0 0 3.04 2.438Zm2.467 1.644c-1.064-1.228-1.955-2.615-3.153-3.729.71 1.499 1.545 3.091 3.182 3.749l-.029-.02Zm97.485 41.96a114.476 114.476 0 0 0-6.366 10.024c-3.38 4.857-7.577 9.06-11.86 13.106 7.585-6.29 14.056-14.153 18.226-23.13Zm-36.211 8.447a19.723 19.723 0 0 0 3.087-3.788c-1.523.797-2.202 2.419-3.08 3.805l-.007-.017Zm-59.433-49.492c1.447-.819 3.028.111 4.561-.089-2.179-2.022-4.7-3.745-7.768-4.017 1.152 1.319 1.417 3.433 3.207 4.106Zm14.897 10.537c1.098-.904 2.208-1.8 3.225-2.797a122.986 122.986 0 0 0-6.227 2.596c1.001.075 1.999.137 3.002.201Zm-53.411-42.756a12.893 12.893 0 0 0-2.609-4.738c.817 1.591 1.539 3.275 2.609 4.738Zm1.013.461c-.25-1.391-.626-2.828-1.846-3.665a29.297 29.297 0 0 0 1.857 3.649l-.011.016Zm-8.778-10.37c3.04 1.677 5.468 4.207 8.112 6.418 2.436 2.073 5.022 3.957 7.517 5.962.685.617 1.665.477 2.509.595a89.961 89.961 0 0 0-9.671-8.38c-2.907-3.18-6.909-5.076-10.592-7.212-2.895-1.71-5.906-3.543-9.323-3.9 3.421 2.837 7.667 4.312 11.468 6.488l-.02.029Zm15.35 13.367a55.352 55.352 0 0 0-5.666-4.308c.653 2.676 3.688 2.925 5.686 4.279l-.02.029Zm56.249 44.95.511-.734a7.093 7.093 0 0 0-2.475.792c.673-.031 1.334-.052 1.984-.086l-.02.028Zm-2.273-8.492c-.203.51-.422 1.009-.652 1.506a22.54 22.54 0 0 1 1.495-1.65 7.218 7.218 0 0 1-3.187-.075c-1.149 1.161-2.359 2.243-3.552 3.355 2.587.613 4.325-1.587 5.916-3.165l-.02.029Zm23.279 18.397c3.131-3.143 6.31-6.234 9.354-9.461-1.497.06-3.086.287-3.98 1.668-3.781 3.22-6.826 7.184-10.771 10.229 1.801-.865 4.029-.916 5.417-2.465l-.02.029Zm-36.329-25.28c-.594-2.934-4.142-2.377-6.342-3.196 1.982 1.282 3.665 3.884 6.362 3.167l-.02.029Zm17.327 15.174a.816.816 0 0 0 .636.039.828.828 0 0 0 .278-.169.83.83 0 0 0 .189-.265c-.206-.466-1.415-.163-1.083.366l-.02.029Zm5.239-8.404c-2.601-1.145-5.225 1.235-7.75-.132-.972 1.266-1.958 2.516-3.004 3.712 4.046.679 7.385-1.905 10.774-3.608l-.02.028Zm-78.079-51.86.262-.682c.23.16.666.512.89.68-2.343-2.678-4.018-6.011-7.044-8.031 2.22 2.47 3.842 5.407 5.912 8.005l-.02.028Zm38.849 29.183c1.699.927 2.996 2.694 5.018 2.938-.604-.688-1.506-.889-2.311-1.237.027-.59.492-1.259.061-1.784-3.005-3.881-6.765-7.07-10.428-10.301-1.533-1.298-2.797-3.164-4.83-3.751-2.639-.959-5.228-2.042-7.853-3.029.605 1.353 1.795 2.285 2.844 3.27 2.986 2.657 5.549 5.737 8.4 8.518 2.957 1.918 6.266 3.253 9.119 5.347l-.02.029Zm-22.749-19.307c7.192 3.13 14.783 5.319 21.742 9.004 5.735 2.774 11.748 4.991 17.311 8.083a6.082 6.082 0 0 0 3.34.869c-5.576-2.407-10.784-5.501-16.085-8.453-2.737-1.448-5.669-2.484-8.424-3.889a2.554 2.554 0 0 0-1.11-1.126c-2.555-1.254-5.09-2.616-7.834-3.405 4.375 2.916 9.203 5.034 13.903 7.354-6.02-1.753-11.564-4.783-16.961-7.93-3.258-2.133-7.096-3.111-10.781-4.22-1.066-.218-2.163-.811-3.22-.299 2.343 1.953 5.391 2.753 8.139 3.984l-.02.028Zm-13.451-8.502c-1.452-2.489-2.982-5.033-5.027-7.09 1.696 2.331 3.257 4.769 5.047 7.062l-.02.028Zm8.521 3.854c-.97-1.607-1.619-3.623-3.403-4.524-2.464-1.446-4.717-3.239-7.257-4.568 1.416 1.911 2.583 3.995 3.966 5.92 2.092 1.333 4.177 2.869 6.73 3.155l-.036.017Zm100.687 77.712c3.106-2.618 6.817-4.389 9.95-6.976-5.179 2.972-10.342 6.113-14.958 9.92 1.744-.844 3.527-1.673 5.008-2.944Zm-49.172-35.137c.618 1.344 2.263 1.35 3.458 1.865l.895-.412c.664 1.32 2.342.668 3.463 1.192a3.932 3.932 0 0 1-.019-1.566c.493.404 1.434.669 1.22 1.458l-.715.153c.642 1.257 2.159.852 3.261.626a9.662 9.662 0 0 1 4.361-.144c1.996.519 3.46-1.568 5.406-1.468 1.404.301 2.227 2.049.865 3.001 1.675-.57 3.669-.942 5.153.31 1.626-1.304 5.278-2.124 5.579.795.807-2.105-1.92-2.553-2.821-3.935 2.138-.692 4.558 1.491 3.815 3.696 3.289-.518 6.796-.544 9.604-2.584l-.909 1.078a22.108 22.108 0 0 0 4.659-1.629 6.188 6.188 0 0 1-.751-2.421c-1.613-.648-3.232-2.11-5.063-1.569-.115.492-.198.991-.249 1.495.431-.261.869-.522 1.315-.778.043 2.003-2.063 3.156-3.491 4.202-1.189.834-2.325-.578-2.019-1.753l1.327.376c.588-.346 1.164-.701 1.75-1.053-1.213.44-2.767.363-3.367-.98a3.87 3.87 0 0 0 .288-2.234c-2.005.966-4.136.135-6.235.446.07 1.011.145 2.19-.563 3.006a3.451 3.451 0 0 1-3.131-.103c-2.068-1-3.882-2.427-5.728-3.773-.537.089-1.078.158-1.618.208-.214.308-.403.632-.613.943a14.044 14.044 0 0 1-1.183-1.17 55.544 55.544 0 0 0-1.254-.228c1.058.737 2.627 1.22 2.446 2.811a2.998 2.998 0 0 1-3.344.23c-2.979-1.337-6.292-1.292-9.288-2.542-1.044-.172-2.099.25-3.16.06-.428.371-.868.723-1.313 1.065-.255-.22-.514-.443-.758-.661-1.245.04-2.059.886-2.433 2.027.365-.026.76-.025 1.16-.04Zm48.087 39.715a18.76 18.76 0 0 0 4.153-5.469c-2.197 1.065-2.88 3.579-4.153 5.469Zm-64.932-53.428c.341.061.824.452 1.106.161-.137-.661-2.446-.764-1.106-.161ZM117.56 98.558c-1.365-2.666-4.355-4.144-5.547-6.903a9.443 9.443 0 0 0-2.837-1.829c2.319 3.3 5.712 5.704 8.384 8.733Zm10.411 5.626c4.443 3.092 9.312 5.518 13.524 8.941 2.087 1.849 4.874 2.357 7.342 3.448-3.707-3.798-8.231-6.641-12.292-10.027-2.758-2.407-6.168-3.824-9.268-5.713-2.621-1.824-5.931-3.165-9.16-2.69 3.075 2.353 6.709 3.816 9.854 6.041Zm42.954 35.613a10.551 10.551 0 0 0-.843-1.414c-.812-.067-1.626-.14-2.443-.191.645 1.235 2.081 1.376 3.286 1.605Zm11.235-.992c8.128.298 15.889 2.996 23.782 4.707 9.729 1.942 19.046 5.625 27.833 10.199l1.367-.967c-6.127-2.571-11.982-5.854-18.22-8.203 3.289.523 6.279 2.202 9.369 3.414-6.967-4.093-15.077-5.256-22.703-7.579-7.629-2.484-15.735-2.559-23.634-3.66 1.346-.184 2.728-.044 4.089-.162-1.385-.355-2.801-.507-4.175-.878 1.136-.153 2.289.01 3.431-.091-4.564-.862-9.26-.483-13.834.115a6.997 6.997 0 0 0-3.666 1.383c5.431.832 10.936.918 16.355 1.73l.006-.008Zm-45.795-26.217c-.47-1.417-1.091-2.878-2.597-3.451.898 1.124 1.158 2.894 2.597 3.451Zm74.343 60.744c1.136-1.274 1.941-2.789 2.846-4.23-1.298 1.131-2.631 2.443-2.85 4.227l.004.003Zm-4.898-14.563-1.105 1.186a7.065 7.065 0 0 0 2.623-1.968l-.656-.457a56.26 56.26 0 0 0-9.392 4.485c3.113-.056 5.663-2.233 8.525-3.249l.005.003Zm-67.749-45.67c.261-.97-.788-1.493-1.361-2.043.283.775.605 1.589 1.357 2.04l.004.003Zm28.22 22.626c-2.302-3.805-5.524-6.936-8.605-10.085-1.083-1.156-2.66-1.541-4.043-2.205 4.219 4.087 9.096 7.517 12.644 12.288l.004.002Zm23.002 15.173a54.021 54.021 0 0 0-7.004-1.983c2.255.827 4.542 2.187 7 1.98l.004.003Zm-16.466-10.46c-.518-.726-.825-1.895-1.872-1.991.437.816.896 1.713 1.859 1.982l.013.009Zm-5.564-5.418a19.608 19.608 0 0 1-2.173-3.107c1.411.78 2.299 2.208 3.671 3.028-2.667-3.499-5.348-7.477-9.712-8.95 2.8 2.88 5.608 5.827 7.613 9.341.139-.086.439-.237.589-.321l.012.009Zm7.689 6.02a4.15 4.15 0 0 0-1.354-2.507c-.262 1.059.66 1.86 1.342 2.499l.012.008Zm48.845 29.728c-1.723 1.845-3.474 3.671-5.096 5.617 2.861-.463 3.655-3.485 5.075-5.614l.021-.003Zm-7.918-2.009c-.83 1.097-1.762 2.165-2.214 3.488 1.125-.855 1.571-2.231 2.193-3.484l.021-.004Zm-38.399-27.16a3.702 3.702 0 0 0-1.391-2.49 6.427 6.427 0 0 0 1.37 2.494l.021-.004Zm-8.023-6.976 2.224-.231c-.414-1.031-.543-2.247-1.229-3.132-1.989-1.001-4.047-1.867-6.123-2.672 1.783 1.935 3.44 3.989 5.107 6.038l.021-.003Zm45.836 37.673c1.323-1.429 2.909-2.579 4.232-4.008-.862.155-1.782.154-2.585.521a33.834 33.834 0 0 0-1.668 3.491l.021-.004Zm-34.997-30.29c-.826-.879-1.614-1.793-2.468-2.648.248.781.506 1.539.768 2.3.549.12 1.115.234 1.667.368l.033-.02Zm25.097 18.329a5.66 5.66 0 0 0-2.002 1.469c.936.012 1.455-.796 1.981-1.465l.021-.004Zm-75.619-60.39c-1.255-2.09-2.954-3.882-4.247-5.962 2.637 1.89 4.587 4.494 6.7 6.909-1.901-3.393-3.959-6.823-7.019-9.311-1.037-.856-2.217-1.95-3.684-1.705-.668.478-.043 1.224.241 1.744 1.451 1.984 3.049 3.87 4.328 5.977.7 1.419 2.414 1.632 3.66 2.352l.021-.003Zm22.702 18.185a26.127 26.127 0 0 0-4.966-4.308c1.604 1.457 2.944 3.321 4.945 4.312l.021-.004Zm59.504 41.979c-1.525-.276-3.179.448-4.559-.5a23.74 23.74 0 0 1-1.275.642c-.295.476-.59.953-.89 1.42 2.248-.378 4.937.306 6.703-1.558l.021-.004Zm-26.395-16.456c-1.089-1.305-2.017-2.779-3.298-3.914a17.728 17.728 0 0 0-2.704-.402c1.709 1.859 3.261 4.029 5.981 4.32l.021-.004Zm38.656 30.133c1.081-2.165 2.159-4.336 3.051-6.589a2.442 2.442 0 0 0-1.651 1.499 55.476 55.476 0 0 1-2.816 6.12c.503-.259 1.158-.431 1.396-1.026l.02-.004Zm-44.709-40.884c1.372.723 2.65 1.844 4.28 1.828-3.085-1.69-6.382-3.077-9.243-5.214 3.315 1.204 6.404 2.916 9.592 4.398a9.321 9.321 0 0 0 4.262 1.461c-1.712-.996-3.527-1.809-5.24-2.794-5.174-3.064-11.074-4.412-16.379-7.086-2.201-.923-4.347-1.96-6.599-2.766 6.676 2.892 12.83 6.84 19.306 10.177l.021-.004Zm65.831 52.075c-1.505 1.217-3.036 2.472-4.057 4.149 1.428-1.308 3.041-2.463 4.057-4.149Zm-56.318-40.127c-.66-1.677-.834-3.771-2.285-5.012.293 1.75.404 4.25 2.285 5.012Zm9.959 5.523c-2.081-1.935-4.902-2.632-7.391-3.877 2.337 1.524 4.967 2.513 7.391 3.877Zm26.46 23.406c1.089-2.439 3.099-4.322 3.907-6.883-.403.072-.807.144-1.212.21-.984 2.176-1.974 4.343-3.042 6.48l.347.193Zm-34.322-28.548a46.391 46.391 0 0 0-1.89-2.271c.182.675.395 1.34.607 2.006.413.08.836.173 1.271.256l.012.009Zm67.077 54.44c3.764-4.255 6.474-9.304 9.178-14.266 1.974-4.587 3.412-9.383 5.086-14.081l.42.402c.112-.16.309-.504.419-.671l-.275-.069c.648-1.911 1.066-3.885 1.684-5.806a9.522 9.522 0 0 0-2.654 5.502c-1.894 6.677-4.761 13.029-7.97 19.162-1.382 3.605-3.845 6.603-5.888 9.827Zm-85.994-72.98c-2.817-2.952-6.208-5.245-9.281-7.907-2.844-2.265-5.31-4.943-7.992-7.388 3.563 3.752 6.726 7.834 10.356 11.559 1.789 2.031 4.61 2.466 6.917 3.736Zm44.826 33.848.453-.738c-1.669-.62-3.309.187-4.591 1.243 1.375-.096 2.746-.342 4.126-.514l.012.009Zm16.732 9.816c1.927-1.587 3.215-3.851 5.223-5.37-2.89.425-5.705 1.102-8.553 1.677-.754 2.081-1.671 4.098-2.607 6.101 1.988-.766 3.987-1.548 5.936-2.415l.001.007Zm-92.105-71.338c4.649 2.681 7.758 7.225 11.844 10.593a53.918 53.918 0 0 1-5.743-7.181c-.649-1.115-1.851-1.715-2.879-2.381a87.992 87.992 0 0 1-8.343-6.385c3.629 1.26 6.237 4.39 9.566 6.255l.251-.86a85.771 85.771 0 0 0-7.832-5.097c-2.473-1.416-5.242-2.862-8.187-2.445 2.884 3.626 7.568 4.943 11.313 7.488l.01.013Zm48.821 37.627a31.036 31.036 0 0 0-7.176-1.061c2.362.505 4.756.857 7.164 1.052l.012.009Zm9.819 10.704a18.218 18.218 0 0 0-2.843-1.978c.222.337.443.667.667 1 .753.247 1.478.571 2.163.969l.013.009Zm41.905 30.853a19.953 19.953 0 0 0-1.952 2.806c1.31-.342 1.531-1.729 1.952-2.806Zm-70.745-54.952c-1.666-1.36-3.694-2.303-5.035-4.034 2.061.6 3.729 2.017 5.574 3.058-4.229-5.105-9.962-8.607-14.444-13.462-3.338-2.553-6.403-5.429-9.707-8.021 3.17 5.165 7.65 9.324 11.941 13.534 2.667 2.677 5.625 5.04 8.514 7.477.913.727 1.905 1.716 3.165 1.454l-.008-.006Zm34.062 27.313c-.973-.677-1.904-1.404-2.876-2.08.366.681.738 1.354 1.103 2.028.587.006 1.183.025 1.773.052Zm1.124-.435c2.048 1.571 4.031 3.255 6.227 4.631.588.458 1.314-.06 1.944-.169.076-.43.146-.863.209-1.298-2.177-.949-4.25-2.117-6.337-3.247.426.498.848.986 1.265 1.489-2.728-2.16-5.664-4.057-8.307-6.322-.199-.59-.44-1.165-.722-1.72-1.199-.28-2.38-.639-3.582-.977.973.86 2.021 1.638 2.904 2.582-2.21-1.313-4.181-3.257-6.873-3.475 4.52 2.665 9.231 5.109 13.257 8.519l.015-.013Zm-30.989-24.895c3.165.413 6.419-.264 9.543.601 3.788 1.162 7.723 1.781 11.5 2.967-1.324.004-2.538-.683-3.866-.717 5.522 2.302 11.5 3.283 17.064 5.445 9.275 4.407 19.055 7.615 28.556 11.408 6.201 2.105 11.102 6.672 17.024 9.362.218-.147.441-.302.658-.456a8.274 8.274 0 0 0-2.686-2.344c.401.456.822.901 1.231 1.356-5.581-2.909-10.753-6.545-16.358-9.41-5.493-2.605-11.294-4.462-16.961-6.634 1.185.143 2.326.499 3.506.65-3.844-1.896-7.968-3.109-11.948-4.661a60.032 60.032 0 0 1 8.745 2.237c-5.61-2.491-11.675-3.862-17.629-5.29 3.605.244 7.048 1.404 10.553 2.169-4.516-1.998-9.473-2.732-14.133-4.356-6.383-2.201-12.924-4-19.653-4.646-2.825-.316-5.848-.793-8.569.388 1.101.631 2.077 1.67 3.423 1.931Zm8.113 6.462a89.638 89.638 0 0 0-2.255-5.046c-.165-.444-.77-.354-1.125-.552.921 1.974 1.437 4.348 3.38 5.598Zm1.34.822c-.392-1.685-1.364-3.159-2.039-4.743-.352-.598-.492-1.56-1.356-1.552 1.207 2.045 2.037 4.327 3.386 6.307l.009-.012Zm-5.278-4.708-.778-1.595-.77.074a76.712 76.712 0 0 0 1.539 1.533l.009-.012Zm16.67 9.196a41.99 41.99 0 0 0-3.674-7.574 65.478 65.478 0 0 0-8.499-2.827c1.125 2.286 2.096 4.636 3.16 6.948 2.961 1.256 5.731 3.129 9.004 3.465l.009-.012Zm18.21 15.715c-.867-1.169-1.703-2.488-3.058-3.156-3.464-2.022-6.536-4.878-10.414-6.078 4.35 3.277 8.999 6.134 13.463 9.247l.009-.013Zm-48.278-37.917a176.644 176.644 0 0 0-10.36-16.75c-2.43-2.58-4.985-5.156-8.126-6.873 1.616 3.925 4.896 6.78 7.648 9.895 2.767 2.875 4.805 6.333 6.692 9.825.908 1.74 2.708 2.67 4.137 3.915l.009-.012Zm1.627 1.607a52.275 52.275 0 0 0-7.058-11.853c2.535 3.847 4.775 7.871 7.05 11.865l.008-.012Zm81.849 57.23a33.222 33.222 0 0 0 4.407-6.456c-1.896 1.36-4.924 1.633-5.653 4.17a52.107 52.107 0 0 1-2.514 6.166c1.835-.58 2.57-2.486 3.751-3.868l.009-.012Zm-69.951-51.964c-1.069-2.042-2.054-4.31-4.364-5.217.841 1.626 1.6 3.293 2.502 4.883.527.354 1.249.217 1.862.334Zm30.496 25.008c-.5-.69-1.155-1.297-2.066-1.274.641.495 1.332.921 2.062 1.271l.004.003Zm5.549 4.652c1.254.291 2.544.397 3.829.315-.644-1.173-1.164-2.491-2.116-3.451a39.525 39.525 0 0 0-4.821-1.602 10.66 10.66 0 0 0 3.104 4.735l.004.003Zm-12.589-13.022c-1.254-1.628-1.865-3.83-3.776-4.856.491 1.456 1.021 2.909 1.375 4.403.801.156 1.603.302 2.405.438l-.004.015Zm41.07 35.082a11.274 11.274 0 0 0 1.535-2.128c-.873.397-1.243 1.278-1.535 2.128Zm-32.068-31.308a33.827 33.827 0 0 0-9.394-2.555c3.081 1.006 6.24 1.803 9.394 2.555Zm-28.273-19.942a32.82 32.82 0 0 0-3.117-2.023c.416 1.477 1.654 2.095 3.117 2.023Zm73.498 61.495c3.542-3.148 6.17-7.116 9.233-10.696 1.93-3.132 4.705-5.633 6.759-8.636a128.96 128.96 0 0 0-15.98 19.341l-.012-.009Zm-20.257-24.446c-2.464-.37-4.893.741-7.23 1.404a55.037 55.037 0 0 0 7.234-1.383l-.004-.021Zm-41.609-26.519c-.268-1.076-.3-2.431-1.486-2.94a20.767 20.767 0 0 0 1.49 2.961l-.004-.021Zm29.699 21.403c-.11-1.873-.922-3.856-3.03-4.063a13.06 13.06 0 0 0 1.058 1.734c-.13.895-.192 1.798-.187 2.702a1.667 1.667 0 0 0 2.162-.352l-.003-.021Zm-51.456-40.202a5.548 5.548 0 0 1 1.876-1.13c-1.638-1.329-3.306-2.66-4.527-4.405-1.514-.992-3.289-1.564-4.899-2.41 1.673 3.362 4.644 5.752 7.554 7.965l-.004-.02Zm11.992 7.991c1.574 1.187 3.631 1.126 5.432 1.722-1.899-1.382-3.511-3.301-5.834-3.987-2.466-.918-4.913-1.908-7.362-2.869 2.506 1.859 5.194 3.437 7.768 5.155l-.004-.021Zm35.012 29.728 1.366-.389c-.512-1.075-1.302-2.014-2.526-2.275a13.04 13.04 0 0 0 1.163 2.685l-.003-.021Zm-38.569-34.529c5.668 2.118 11.277 4.408 16.955 6.52 3.912 1.535 7.439 3.861 11.27 5.565 3.581 1.092 7.023 2.604 10.622 3.635-3.659-2.205-8.023-2.837-11.954-4.434.93-.364 1.868.082 2.754.34 1.972.665 4.004 1.148 5.884 2.043-.295-.206-.878-.611-1.154-.835l.17-.368c-1.281-.836-2.448-1.88-3.849-2.508-1.973-.35-3.983-.489-5.948-.876 3.032.893 5.922 2.112 8.907 3.106.055.227.111.454.171.673-3.627-1.647-7.719-2.127-11.209-4.068l.882-.567c-5.726-4.143-12.646-6.256-19.108-8.992 5.268.566 9.951 3.313 14.649 5.548 2.036.862 3.766 2.462 6.035 2.701 1.58.223 2.672 1.586 4.237 1.786-6.352-3.629-13.238-6.35-19.688-9.767 4.527 1.561 8.84 3.771 13.264 5.62-6.85-4.085-14.463-7.057-22.389-8.152-2.492-.286-5.049-.47-7.507.122 2.138 1.469 4.673 2.034 7.01 2.929l-.004-.021Zm68.119 58.069a.79.79 0 0 0 .745-.603.812.812 0 0 0 .009-.34.769.769 0 0 0-.612.283.754.754 0 0 0-.142.66ZM204.526 137.4a.874.874 0 0 0-.319-.962.877.877 0 0 0-.325-.15c-.309.4.25 1.014.633 1.129l.011-.017Zm3.029 1.816c-.371-1.269-1.647-1.798-2.779-2.226.741.57 1.534 1.067 2.324 1.568l-1.055.283c.481.158.997.273 1.499.391l.011-.016Zm5.764 1.386c1.679 1.455 3.904 1.932 5.94 2.672-2.401-3.016-5.897-4.913-8.655-7.581a7.676 7.676 0 0 0-4.232-2.214c2.888 2.85 6.582 4.751 9.352 7.726a87.127 87.127 0 0 1-10.962-8.055c-1.769-.817-3.746-1.109-5.607-1.679 4.531 3.366 9.69 5.708 14.152 9.148l.012-.017Zm42.936 28.156a33.448 33.448 0 0 0-3.157 4.073l.829.358c-.707.421-1.452.817-2.13 1.24 2.809-.353 3.383-3.522 4.447-5.655l.011-.016Zm-79.367-56.106 1.586-.084a43.547 43.547 0 0 0-5.631-3.553c1.268 1.302 2.644 2.473 4.034 3.653l.011-.016Zm-5.143-5.734a25.046 25.046 0 0 0-1.301-2.154l.445-.36c-1.91-2.821-3.741-5.702-5.705-8.488-1.628-3.294-4.95-5.222-7.844-7.285-.46-.143-1.215-1.01-1.542-.409 1.709 3.625 4.814 6.285 7.536 9.128 2.198 2.687 3.877 5.742 5.984 8.506.783.418 1.595.781 2.428 1.087l-.001-.025Zm96.133 78.841a43.88 43.88 0 0 0 3.786-8.739c-1.86 2.645-2.748 5.759-3.802 8.752l.016-.013ZM246.344 162.5a17.38 17.38 0 0 0-3.835 2.318c1.319-.653 2.957-.969 3.82-2.304l.015-.014Zm-51.959-38.105c-1.535-1.293-3.011-2.759-4.913-3.492 1.535 1.269 2.905 2.966 4.898 3.506l.015-.014Zm-18.499-15.15c-2.697-5.067-5.998-10-10.444-13.69 3.081 3.866 5.784 8.006 8.523 12.11.426.753 1.217 1.139 1.905 1.593l.016-.013Zm71.175 51.525c-2.077.789-4.228 1.43-6.215 2.44 2.139-.545 4.36-1.113 6.199-2.426l.016-.014Zm-11.301-3.638c.774-.588 1.212.393 1.714.852 1.341-.072 2.652.731 3.964.201 2.234-.796 4.645-.323 6.893-1.06 1.733-.311 4.203-1.612 5.22.618-.722.959-1.789 1.513-2.78 2.132.429-.066.862-.136 1.293-.214.235-.302.485-.591.75-.867.557-.013.829.419 1.025.872a28.32 28.32 0 0 1 1.601.323c1.93-1.093 3.808-2.313 5.88-3.129 1.084-.421 2.468-.554 3.417.252.363.932.428 1.954.187 2.925 2.011.547 4.205-.173 6.043 1.045a4.337 4.337 0 0 0 .114-2.282c.538-1.35 2.282-1.171 3.348-.611-.535-.403-1.062-.819-1.581-1.228-.478.075-.961.147-1.444.212-.063-1.073.981-2.434 2.075-1.6 1.364 1.181 3.466 2.509 3.215 4.575a21.28 21.28 0 0 1-1.21-.885c.003.502.002 1.012-.001 1.516 2.6.506 5.285-.317 7.898.181 1.751-.907 3.853-.918 5.421-2.225a5.422 5.422 0 0 1-2.468 1.936c2.114.155 4.741-.294 5.398-2.656-.205-2.383-2.553-4.163-4.762-4.531-2.498 1.008-5.027-.301-7.4-1.046-.597.595-1.134 1.488-2.038 1.59-.878-.209-1.57-.825-2.306-1.307-2.168-.138-4.372-.357-6.48.362.499 2.223-2.073 4.098-4.085 3.246.986-1.33 3.809-1.52 3.065-3.706-.433 2.907-4.147 1.778-5.562.276-1.561 1.142-3.503.546-5.134-.084a2.563 2.563 0 0 1 .571 1.883c-.615.375-1.193.996-1.974.946-1.807-.247-3.013-2.224-4.934-1.966a10.029 10.029 0 0 1-3.669-.319c-.425-.088-.29.541-.15.706-.937.236-1.841.582-2.757.882-.224-1.27.978-1.755 2.008-1.879a3.634 3.634 0 0 0-3.2.075c.342.305.681.614 1.02.923-.463.324-.937.621-1.413.91l-.394-.737.785-.866a10.869 10.869 0 0 1-3.356.186l-.452.842c-.318-.191-.626-.387-.941-.582-1.274.38-2.952.235-3.708 1.541-.392-.059-.781-.111-1.17-.174.171 1.111 1.11 2.562 2.448 1.959l.016-.013Zm12.517 6.195c-.73.436-1.31 1.323-2.273 1.158l-.816.955c1.125-.514 2.4-.948 3.074-2.099l.015-.014Zm-25.629-18.589c-.812-1.825-2.163-3.331-3.019-5.145-.373-.917-1.343-1.221-2.178-1.552 1.791 2.178 2.933 5.024 5.197 6.697Zm-23.015-18.767c-.581-.916-1.134-1.958-2.211-2.379.609.904 1.352 1.71 2.203 2.391l.008-.012Zm19.117 15.007c-1.285-2.16-2.915-4.22-5.557-4.658 1.412 1.987 3.684 3.185 5.548 4.67l.009-.012Zm-24.077-27.714c6 2.252 11.8 5.009 17.335 8.24 3.436 2.062 7.201 3.415 10.634 5.446 5.024 2.667 9.323 6.438 14.156 9.406 4.708 2.71 8.885 6.359 14.018 8.299 3.443 1.178 6.473 3.342 9.477 5.377 1.815 1.172 3.343 3.605 5.804 3.034.346-.733-.403-1.547-.892-2.069-2.785-2.316-5.687-4.567-8.92-6.238 1.011 1.075 2.254 1.879 3.321 2.883-4.274-2.974-8.419-6.144-12.697-9.122-1.978-1.297-4.14-2.302-5.995-3.775-7.979-4.335-16.001-8.608-24.306-12.317a10.214 10.214 0 0 1-1.739-1.125c4.634 2.135 9.466 3.853 13.998 6.221 5.281 2.762 10.72 5.262 15.729 8.51-2.592-1.84-5.088-3.844-7.97-5.223-3.157-1.588-6.029-3.586-9.186-5.174-5.195-2.666-10.641-4.787-15.985-7.136a73.358 73.358 0 0 0-11.916-5.248c-5.186-2.312-10.571-4.549-16.216-5.421 4.985 1.996 10.396 2.918 15.22 5.252-4.73-1.209-9.413-2.678-14.014-4.309a6.696 6.696 0 0 0-6.328-.915c4.589 3.888 11.042 3.538 16.466 5.412l.006-.008Zm68.487 55.099c1.408-2.461 3.226-4.636 4.82-6.997a14.816 14.816 0 0 0-3.935-.102c-3.528 2.83-4.54 7.496-7.255 10.977a33.767 33.767 0 0 0 6.37-3.878Zm-57.238-40.476c-1.371-1.642-3.646-2.153-5.539-3.002.356.607.728 1.201 1.11 1.79 1.458.492 2.942.901 4.446 1.224l-.017-.012Zm20.578 18.551c-.229-1.377-.35-2.795-.9-4.096-.36-.507-.658-1.067-1.015-1.577.447 1.894-.302 4.843 1.919 5.676l-.004-.003Zm-2.409-1.962a25.083 25.083 0 0 0-.546-3.887c-.879-.356-1.749-.724-2.618-1.085.919 1.741 2.123 3.31 3.168 4.975l-.004-.003Zm-37.472-31.555a2.587 2.587 0 0 0-1.475-1.38c.383.566.887 1.04 1.476 1.387l-.001-.007Zm44.187 35.668c-.027-.836-.101-1.684-.15-2.54-1.074-.942-2.079-1.965-3.102-2.963.281 1.347.322 2.757.721 4.082.819.517 1.664.991 2.531 1.421Zm24.285 19.943a26.487 26.487 0 0 0 2.873-3.061c-1.583.306-2.217 1.733-2.873 3.061Zm-22.224-18.705c.133-.996-.013-1.993-1.011-2.493.085.918-.01 2.027 1.022 2.477l-.011.016Zm-39.758-34.649c-.817-2.474-3.694-2.321-5.766-2.965.461.57.923 1.141 1.381 1.716 1.491.325 2.949.767 4.397 1.233l-.012.016Zm42.577 35.935a38.528 38.528 0 0 0-1.146-1.205l.066.71c.365.164.728.324 1.091.479l-.011.016Zm17.769 10.076c-.516-.073-1.033-.152-1.55-.232a65.71 65.71 0 0 1-1.456 1.988c1.014-.591 2.051-1.136 3.017-1.772l-.011.016Zm-15.144-9.509c1.074.007 2.144.108 3.2.302a103.17 103.17 0 0 1-1.394-1.785c.133.263.397.794.535 1.06-1.405-.606-1.861-2.305-3.296-2.841-1.898-.773-3.397-2.285-5.271-3.144a60.149 60.149 0 0 1 6.238 6.392l-.012.016Zm-49.915-43.763c-1.826-2.215-3.479-4.625-5.57-6.58-1.555-1.484-3.551-2.343-5.29-3.572a90.968 90.968 0 0 0 5.774 8.956c1.633.558 3.451.606 5.098 1.179l-.012.017Zm10.183 9.393c-.714-1.94-2.58-2.776-4.43-3.259.139 2.276 2.867 2.372 4.441 3.243l-.011.016Zm5.747 2.879c-.55-2.569-3.129-2.975-5.11-4.031.936 2.173 3.183 2.976 5.122 4.015l-.012.016Zm38.1 31.992c2.621-1.142 5.058 1.48 7.784.582-3.758-2.475-7.58-4.927-11.831-6.473 1.412 1.908 2.811 3.844 4.058 5.874l-.011.017Zm-21.845-22.13c-.745-1.352-.675-3.465-2.345-4.067-4.108-1.848-7.848-4.383-11.858-6.425.965 1.238 1.737 2.816 3.292 3.441 3.886 1.949 7.368 4.567 10.923 7.035l-.012.016Zm-42.222-32.76a29.275 29.275 0 0 1-3.213-7.107l.621.043a14.023 14.023 0 0 0-4.325-6.383c.306 3.812 2.66 7.044 4.507 10.26.748 1.087 1.277 2.392 2.421 3.17l-.011.017Zm16.335 12.652c-1.323-2.473-2.981-4.876-3.482-7.708 1.552 2.468 2.572 5.254 4.29 7.624.831.695 1.978.841 2.98 1.185a30.556 30.556 0 0 1-2.078-3.041c.63.512 1.235 1.042 1.857 1.548-2.533-3.796-5.076-7.642-8.339-10.862-1.9.894-.75 2.96-.108 4.321 1.32 2.477 2.734 5.056 4.892 6.917l-.012.016Zm34.364 26.573c-.328-1.446-.302-3.005-.872-4.4-1.341-1.073-2.847-1.92-4.229-2.943a43.141 43.141 0 0 0 1.374 4.299c1.125 1.13 2.532 1.969 3.738 3.028l-.011.016Zm-5.174-3.844a17.132 17.132 0 0 0-1.613-4.629c.374 1.563.378 3.429 1.625 4.613l-.012.016Zm-1.219-.951c-.301-1.318-.71-2.62-1.088-3.923a84.305 84.305 0 0 1-1.33-.713c.789 1.56.881 3.572 2.43 4.619l-.012.017Zm47.824 30.319c-.482-.183-.934-.339-1.402-.506a26.85 26.85 0 0 1-3.455 5.158c1.718-1.472 3.616-2.763 4.868-4.668l-.011.016Zm-38.734-24.177a19.995 19.995 0 0 0-.715-3.749 81.25 81.25 0 0 1-1.383-.865c.289 1.334.452 2.665.732 3.987.466.196.924.405 1.377.611l-.011.016Zm1.094.536c-.275-1.354-.039-2.962-1.18-3.938.047 1.165.169 2.321.304 3.474l.876.464Zm11.724 6.496c-.699-1.095-1.228-2.321-2.042-3.338-2.793-2.163-5.986-3.727-8.929-5.666.222 1.019.119 2.183.604 3.105 3.401 2.051 6.994 3.79 10.378 5.883l-.011.016Zm7.359 4.719a22.07 22.07 0 0 0-3.265-4.171l.511 1.646c-.884-1.486-1.985-2.897-3.706-3.425 1.387 2.785 4.135 4.12 6.471 5.934l-.011.016Zm2.562 1.717c-1.634-1.668-2.62-3.961-4.489-5.353 1.538 1.746 2.289 4.315 4.501 5.336l-.012.017Zm1.881.955c1.445-.852 3.028.092 4.564-.076a44.502 44.502 0 0 0-8.691-5.779c.648 1.632 1.848 2.96 2.596 4.546.264.671.968.936 1.542 1.292l-.011.017Zm-38.434-32.194a15.266 15.266 0 0 0-2.639-4.765c.783 1.622 1.502 3.328 2.65 4.748l-.011.017Zm.914.331c-.252-1.326-.611-2.762-1.787-3.557a23.694 23.694 0 0 0 1.798 3.541l-.011.016Zm-5.353-7.987a216.523 216.523 0 0 0 12.358 10.135c.681.534 1.614.392 2.423.534-5.852-5.423-11.685-11.102-18.864-14.758-3.409-1.909-6.755-4.292-10.76-4.723 4.468 3.712 10.398 5.068 14.846 8.808l-.003.004Zm11.886 10.987a55.045 55.045 0 0 0-5.591-4.274c.585 2.702 3.63 2.928 5.594 4.27l-.003.004Zm-14.449-15.449.272-.487c.16.112.511.307.682.402-2.223-2.764-3.971-6.009-6.991-8.03 2.308 2.476 3.855 5.537 6.037 8.115Zm30.16 24.196a93.088 93.088 0 0 1 14.312 8.997c-3-4.56-6.651-8.658-10.837-12.162-3.416-2.73-6.196-6.224-9.973-8.487-2.791-1.686-4.863-4.29-7.621-6.015 1.791 2.677 1.918 6.327 4.67 8.304 3.39 2.846 6.095 6.475 9.452 9.359l-.003.004Zm-27.527-22.808c-1.531-2.49-3.017-5.107-5.125-7.152 1.75 2.35 3.286 4.868 5.13 7.143l-.005.009Zm9.248 5.503c-1.235-2.399-2.156-5.354-4.785-6.58-2.261-1.354-4.342-2.991-6.679-4.209 1.483 1.92 2.622 4.107 4.084 6.013 2.475 1.57 5.024 3.034 7.385 4.768l-.005.008Zm45.845 36.488c-1.137-2.618-2.022-5.371-3.428-7.866l-.38.485c.698 2.147.866 4.487 2.115 6.428.222.617.974 1.505 1.678.93l.015.023Zm-40.368-31.909c-1.162-2.416-1.782-5.313-3.882-7.116 1.209 2.437 1.322 5.59 3.882 7.116Zm-2.615-2.313a12.379 12.379 0 0 0-1.263-2.559c-.826-1.5-1.109-3.518-2.962-4.144 1.663 2.107 1.922 5.156 4.222 6.707l.003-.004Zm40.546 32.885c-1.489-3.021-3.575-5.685-5.638-8.32-4.205-5.97-8.753-11.807-14.461-16.413-4.185-3.716-7.598-8.331-12.457-11.244a68.592 68.592 0 0 1 11.371 11.658c3.685 3.672 7.681 7.336 9.827 12.171-5.495-7.477-12.352-13.801-18.77-20.458-3.622-3.544-7.881-6.27-11.754-9.489-3.443-3.005-7.817-4.569-11.534-7.18-2.218-.837-4.611-1.79-7.028-1.353 2.748 2.175 6.062 3.537 9.007 5.501 2.944 1.963 5.823 3.881 8.9 5.584 5.011 3.298 9.698 7.114 14.382 10.891 2.353 2.307 4.51 4.849 7.135 6.87 4.326 3.407 8.194 7.474 10.887 12.283 1.232 2.648 3.793 4.174 6.002 5.942-2.313-4.952-6.353-8.78-9.333-13.283 4.308 2.919 6.618 7.771 9.133 12.145.772 2.102 2.691 3.334 4.329 4.699l.002-.004Zm-61.011-50.207c-1.323-2.631-4.316-4.062-5.436-6.826a9.998 9.998 0 0 0-2.873-1.909c1.172 2.174 3.287 3.579 4.972 5.323 1.155 1.096 2.103 2.402 3.334 3.416l.003-.004Zm69.191 51.935c-2.73-3.89-5.503-7.762-8.927-11.083 1.128 3.629 2.634 7.125 3.898 10.707 1.688-.335 3.369.11 5.022.378l.007-.002Zm-9.596-5.459c-.167-.835-.251-1.783-.878-2.438-1.387-1.385-1.768-3.41-2.987-4.922.237 2.905 2.882 4.757 3.875 7.372l-.01-.012Zm.53-2.834c-.302-1.124-.594-2.368-1.636-3.057a12.764 12.764 0 0 0 1.645 3.069l-.009-.012Zm12.001 8.905 1.284-.672c-6.91-8.321-13.277-17.318-21.194-24.806 4.475 2.39 7.452 6.738 10.889 10.348-1.722-2.416-3.418-4.863-5.611-6.882-6.203-5.96-12.103-12.294-18.806-17.72a6.999 6.999 0 0 1 2.945 1.666c5.163 4.366 9.683 9.429 14.683 13.968-1.9-2.345-3.63-4.828-5.637-7.089-5.121-5.914-11.94-9.965-17.552-15.331a2.493 2.493 0 0 1-.732-1.301 97.046 97.046 0 0 1-13.432-9.633c1.667.326 2.949 1.51 4.267 2.495 3.532 2.799 7.49 4.986 11.218 7.459a80.268 80.268 0 0 0-14.523-10.234c-2.176-1.186-4.638-2.242-7.173-1.88 1.348 1.808 3.31 2.978 5.221 4.108 4.145 2.171 8.452 4.329 11.622 7.867a208.145 208.145 0 0 1 15.396 16.547c2.612 2.792 5.297 5.513 7.627 8.552 2.203 2.916 5.252 5.086 7.302 8.126 2.635 3.581 6.047 6.534 8.452 10.296 1.187 1.453 2.053 3.218 3.754 4.116Zm-14.248-12.247c-.654-1.143-1.721-1.964-2.449-3.061l.125.695c.877.708 1.474 1.671 2.333 2.379l-.009-.013Zm-45.648-38.845c-1.275-2.105-2.979-3.9-4.27-6.016 2.635 1.9 4.607 4.508 6.706 6.943-2.264-4.114-4.912-8.288-9.021-10.783-.612-.425-2.286-.556-1.907.58 1.223 2.372 3.257 4.226 4.572 6.553.71 1.639 2.544 1.953 3.93 2.735l-.01-.012Zm62.852 50.038c-.758-1.965-1.319-3.993-1.951-5.998-.504-1.306-1.492-2.371-1.924-3.719a221.136 221.136 0 0 0-11.87-24.169c1.07 1.025 1.801 2.337 2.734 3.473-2.227-5.367-6.198-9.792-9.144-14.771.122-.079.367-.238.49-.311-2.393-3.613-4.863-7.177-7.186-10.82-2.481-2.202-4.996-4.555-8.104-5.853 1.618 3.957 5.082 6.696 7.888 9.75 2.187 2.868 4.051 5.973 6.162 8.898 5.182 7.996 9.375 16.582 13.19 25.301 1.467 3.639 3.477 7.059 4.466 10.888.254 1.456 1.292 2.562 2.175 3.682-2.167-7.237-5.463-14.024-8.55-20.91.491.56.922 1.168 1.288 1.816a108.217 108.217 0 0 1 8.226 19.843 16.547 16.547 0 0 0 1.262 3.095l.848-.195Zm-29.426-35.942a47.256 47.256 0 0 0-13.126-10.589c4.088 3.855 8.777 7.003 13.126 10.589Zm5.22 3.146c-1.591-4.109-3.978-7.889-6.516-11.469 2.205 3.787 4.459 7.583 6.516 11.469Zm-1.955-2.353a184.905 184.905 0 0 0-10.297-16.7c-2.457-2.648-5.065-5.242-8.236-7.029 1.78 4.284 5.44 7.293 8.381 10.704 2.763 3.03 4.684 6.699 6.664 10.269.657 1.504 2.535 1.545 3.488 2.756Zm11.518.221c-.486-.71-.235-2.209-1.202-2.376l-.988-.688a100.692 100.692 0 0 1 2.19 3.064Zm-.753-2.417c-1.162-4.097-3.737-7.563-6.121-11.048-1.713-2.167-3.44-4.385-5.648-6.067 4.258 5.483 7.963 11.331 11.765 17.112l.004.003Zm-204.57 61.52c-.672.221-1.437.218-2.049.608a15.83 15.83 0 0 0 2.003-.201l.046-.407Zm2.19-.041.03-.375c-.503.144-1.02.266-1.536.369l-.064.363a25.018 25.018 0 0 1 1.57-.357Zm4.058-.792.011-.418a17.846 17.846 0 0 1-3.396.741l.018.403a18.02 18.02 0 0 1 3.367-.726Zm6.785-1.544c-2.082.08-4.083.733-6.132 1.043l.024.412c1.978-.7 4.115-.796 6.108-1.455Zm26.102-20.054c.9 1.034 1.919-.132 1.935-1.162-.682.323-1.33.712-1.935 1.162Zm3.289-.177-.616.99a1.147 1.147 0 0 0 1.714-.196 61.75 61.75 0 0 0-1.098-.794Zm7.302 1.197c1.043 1.335 3.167 1.363 4.548.559-1.477-.353-3.015-.96-4.548-.559Zm11.053.994c-.058.958.565 1.611 1.379 2.007a8.828 8.828 0 0 0-1.379-2.007Zm-3.809-2.042c.868.318 1.791.741 2.72.377-.784-.631-1.801-.474-2.72-.377Zm29.155 24.197c5.197-.609 10.327-1.892 15.439-3.017-5.201.692-10.306 2.01-15.442 3.021l.003-.004Zm-22.938-23.122-.229.626a4.731 4.731 0 0 0-2.775-.92c.765 1.306 2.413 1.563 3.282 2.764 1.78-.222.863-2.011-.281-2.466l.003-.004Zm6.929.639c1.147 1.194 2.659 1.935 3.869 3.057a4.298 4.298 0 0 0-3.872-3.053l.003-.004Zm18.956-.6-.832-.195-.475.534c.552.449 1.147.843 1.776 1.175a23.71 23.71 0 0 0-.472-1.51l.003-.004Zm1.34-.078c.302.947 1.195.557 1.696.029-.446-.584-1.352-.892-1.703-.028l.007-.001Zm5.48-1.331-.699-.658-.882.288c-.018.463.053.926.208 1.363.452-.301.915-.642 1.382-1.006l-.009.013Zm.339-.374c-.038.449-.072.9-.1 1.343a18.151 18.151 0 0 1 3.015-1.025c-.738-.988-1.967-.893-2.907-.33l-.008.012Zm2.124 2.057a8.74 8.74 0 0 0 4.487-.323c-1.333-.691-3.468-1.105-4.492.331l.005-.008Zm7.247 1.634c.832.231 1.757.467 2.515-.114-.819-.442-1.698-.158-2.515.114Zm6.651-2.977c-.963 1.156-2.661 1.303-3.583 2.524a5.15 5.15 0 0 0 2.54-.449c1.374.895 2.998-1.701 1.043-2.075Zm67.97 46.69a65.67 65.67 0 0 0 5.152-5.89c-4.138 4.196-8.864 8.189-10.903 13.918 2.086-2.542 3.5-5.589 5.736-8.033l.015.005Zm-61.511-44.162a4.291 4.291 0 0 0 4.099-2.67c-1.289 1.039-2.907 1.545-4.114 2.666l.015.004Zm8.192-1.35c.156.169.468.508.621.682.551-.311 1.493-.946.955-1.643-.555.275-1.088.595-1.591.956l.015.005Zm4.235.694a82.884 82.884 0 0 0-1.032-.827c-.636.495-.494 1.166.116 1.584.3-.248.603-.499.901-.761l.015.004Zm45.954 16.794c-5.194 2.906-11.101 4.263-16.266 7.214 9.356-2.622 18.438-6.617 26.174-12.546-3.42 1.572-6.538 3.701-9.923 5.327l.015.005Zm-41.788-15.904-.326.705a1.873 1.873 0 0 0 1.4 1.147 1.864 1.864 0 0 0 1.714-.582 18.712 18.712 0 0 1-2.803-1.274l.015.004Zm2.119-.48c1.027 1.403 3.162 1.3 4.563.564-1.49-.343-3.042-.966-4.579-.569l.016.005Zm11.135 1.094c.01.336.013.673.026 1.004l1.292.9a12.615 12.615 0 0 0-1.333-1.908l.015.004Zm-3.779-2.155c.811.357 1.717.866 2.58.334a3.6 3.6 0 0 0-2.595-.338l.015.004Zm7.563 3.035a3.132 3.132 0 0 0-1.556-1.99l-.22.614a5.6 5.6 0 0 0-2.724-.916c.741 1.35 2.405 1.619 3.311 2.81.382-.173.783-.338 1.174-.523l.015.005Zm8.225-.104.05-.318a26.042 26.042 0 0 0-2.798-.887c1.102 1.217 2.59 1.966 3.917 2.902a17.52 17.52 0 0 0-1.185-1.701l.016.004Zm8.506-1.795c-1.798.703-2.903 2.51-4.741 3.191 1.24.912 2.553-.116 3.516-.914.522-.549 1.914-1.535 1.21-2.281l.015.004Zm46.731 31.173c.849-3.093 1.944-6.154 2.328-9.339-1.07 2.561-1.632 5.294-2.51 7.928-.878 3.188-2.366 6.165-3.332 9.322 1.677-2.376 2.578-5.183 3.499-7.915l.015.004Zm-78.991-57.731c4.888 1.611 9.842 3.25 14.858 4.458-4.915-1.625-9.921-3.251-14.874-4.463l.016.005Zm38.54 26.861c.598.448 1.228.854 1.883 1.213-.043-1.058-.919-2.344-1.903-1.22l.02.007Zm2.689-.199c.886 1.037 2.194-.221.9-.969-.329.307-.63.634-.919.962l.019.007Zm8.021.102c1.47.512 3.048.082 4.533-.17-1.348-.828-3.445-1.192-4.55.159l.017.011Zm7.09 1.737c.884.147 1.879.449 2.66-.182-.897-.436-1.82-.098-2.677.171l.017.011Zm6.124-.463a2.994 2.994 0 0 0 1.764-1.878c-.406-.221-.82-.424-1.23-.63-.856 1.231-2.658 1.195-3.422 2.52a5.341 5.341 0 0 0 2.911-.745l-.023.733Zm-.593-3.085a2.506 2.506 0 0 0-1.665 1.886c.625-.563 1.179-1.2 1.649-1.897l.016.011Zm10.458 2.199a9.053 9.053 0 0 0 1.391-1.832c-1.282 1.037-2.963 1.475-4.102 2.692.985-.033 1.905-.69 2.89-.461l-.179-.399Zm6.661-.674c.736.342 1.457.716 2.176 1.082a22.643 22.643 0 0 0-2.189-2.034l-.451.648a2.336 2.336 0 0 0-2.208-.161c1.848.976 2.82 3.053 4.786 3.806-.193-1.377-1.228-2.365-2.119-3.332l.005-.009Zm4.798 4.733c2.132.577 4.616-.508 6.01-2.144-1.886 1.014-4.122 1.138-6.015 2.153l.005-.009Zm-.081-2.017c1.832 1.05 4.357.493 5.808-.945-1.959.129-4.003.101-5.814.953l.006-.008Zm-.825-3.916a8.394 8.394 0 0 0-1.275 1.876c.619-.452 1.297-1.015 1.269-1.868l.006-.008Zm.561 2.825c1.196.224 2.878.755 3.651-.558a10.997 10.997 0 0 0-3.66.571l.009-.013Z" fill="#312C93"/></svg>