<svg width="386" height="398" fill="none" xmlns="http://www.w3.org/2000/svg"><path fill-rule="evenodd" clip-rule="evenodd" d="m94.276 195.606-.103-.426c-.423-1.79-.517-4.438-1.954-3.771-.895.416-.473 3.708-.299 4.613.358 1.85 3.482 6.413 3.46 8.765-.012 1.449-.872 3.363-1.056 5.168-.499 4.884-.316 10.098-.34 14.597-.007 1.582-.094 2.938-.364 4.034-1.038 4.23-1.632 4.666-3.489 6.5-3.308 3.271-3.002 7.799-2.717 11.228.23 2.765.11 5.591.832 8.359.735 2.827 2.153 5.422 2.415 7.827.36 3.329-1.07 2.455-2.505 3.806-2.064 1.947-2.999 5.32-3.511 7.326-.955 3.738-.807 7.913-.58 11.454.228 3.52.524 7.732 1.765 10.367 3.118 6.624 10.616 10.755 13.338 18.21 1.952 5.344 1.356 10.712 1.818 17.052.281.818.356 2.289.525 1.811 5.832-1.187 10.979-4.267 17.465-4.674 11.227-.704 22.686 2.134 32.63-1.121 2.934-.96 7.795-2.509 8.788-4.285.289-.515.005-1.755.138-1.894.877-.92 4.144-1.64 5.932-2.551 2.515-1.282 4.554-1.852 6.024-2.797 7.262-4.678 11.671-14.681 18.752-17.862 1.267-.568 2.805-.281 4.147-.704 7.17-2.264 12.833-8.383 17.81-13.763 5.485-5.928 10.947-13.564 14.237-21.457 1.205-2.893 2.051-7.682 4.122-11.269 2.485-4.305 3.707-.784 4.164 1.523.922 4.641 3.626 8.772 4.525 11.932.07.244-.079 1.579-.048 1.648.249.561 1.244 1.182 1.601 1.697 1.499 2.154 1.944 4.348 3.198 6.447.937 1.571 5.143 6.43 4.375 8.544-.498 1.365-2.642 1.262-3.861 2.199-.895.687-2.864 2.857-3.284 5.187-.233 1.284 1.653 4.276 1.236 5.729-.179.622-1.793 1.829-2.3 2.492-1.761 2.311-2.963 5.265-2.957 8.085.004 1.582 1.525 3.37 1.262 4.905-.137.791-1.111 1.658-1.296 2.026-2.744 5.395 1.026 11.216 4.631 13.915.183.136 2.094.826 2.27 1.386.537 1.705-1.27 2.96-1.277 4.255-.021 4.012 6.205 8.919 11.168 10.472 2.251.705 5.888.737 7.666.304 1.807-.44 4.604-3.647 6.537-3.442 1.08.114 2.323 1.369 3.249 1.744 4.837 1.961 11.844 3.333 16.689 2.215 3.123-.719 8.655-3.273 10.33-6.22 1.297-2.283-.076-3.137.144-4.948.132-1.094.895-2.05 1.075-2.939.466-2.313.037-5.782-.856-7.535-.156-.306-2.384-2.072-2.312-2.79.068-.688 3.264-2.521 3.972-3.269 4.777-5.043 5.943-14.131 3.847-18.869-1.607-3.63-5.403-5.656-8.229-9.398-3.01-3.986-9.072-10.26-15.894-9.702-1.635.134-5.666 2.407-6.644 1.459-.855-.831.97-10.394 1.247-11.764 2.431-12.031 4.912-23.77 8.512-34.663 7.125-21.57 17.445-48.062 19.632-71.146.328-3.453 1.164-6.936 1.201-10.116.27-23.375-7.882-41.863-23.249-57.943-1.577-1.653-3.731-2.85-5.318-4.445-5.894-5.93-10.185-12.593-14.874-19.328-1.839-2.642-3.269-4.98-5.491-7.009-2.385-2.176-5.872-3.248-8.413-5.854-.21-.215-.576-1.779-.933-2.008-.857-.55-2.373-.292-2.874-.495-4.158-1.689-8.109-5.584-11.598-7.02-2.128-.876-3.983-2.38-6.011-3.31-15.574-7.132-29.461-7.67-43.977-8.862-9.989-.82-21.226-.124-28.888 3.044-2.757 1.14-5.815 3.554-8.234 5.044-1 .615-2.214.854-3.011 1.398-.636.434-1.011 1.373-1.698 1.6-1.041.35-2.388-.228-3.542-.183-4.166.16-7.925 1.262-11.705 2.385-2.323.69-4.897 1.014-6.399 1.548-1.874.667-3.437 2.636-5.443 2.73-2.434.117-4.054-1.007-6.083-.835-1.321.113-3.292.774-4.905 1.261-4.637 1.4-10.83 4.105-13.986 7.106-2.26 2.15-4.238 5.758-4.966 9.017-.866 3.884.406 8.158-.757 11.943-1.068 3.476-4.382 6.805-4.834 10.177-.434 3.26.921 6.076.809 9.183-.064 1.774-1.055 3.034-1.547 4.99-1.902 7.559.185 19.401 8.648 23.439 1.09.52 3.212.228 4.255 1.278.526.531.806 3.479 1.35 4.661 1.43 3.099 4.448 6.191 5.11 8.812.539 2.137.84 5.542.275 7.601-2.06 7.49-4.352 14.396-.505 20.367 1.122 1.744 2.97 2.022 4.493 4.423 1.263 1.99 1.582 6.028 2.546 8.985.085.26 1.783 2.067 1.374 3.836-.087.375-.933-.078-1.338.621-.117.202-.163 3.707-.299 4.614-.188 1.256.972.949.533 1.582-.511.735-4.056.507-5.127.347-.732-.108-2.547-1.453-3.208-.339a.449.449 0 0 0-.043.095l-.99-.362Z" fill="#FFFDF6"/><path fill-rule="evenodd" clip-rule="evenodd" d="M213.106 62.895c-1.513-4.573-11.073-7.409-14.878-4.888 5.125-.306 11.284.985 14.878 4.888Zm28.733 8.01c8.06 4.188 12.533 10.042 15.614 16.542-.793-6.503-7.766-14.588-15.614-16.542Z" fill="#E30611"/><path fill-rule="evenodd" clip-rule="evenodd" d="M251.269 81.575c1.192 1.494 1.434 3.636 3.179 4.218-1.209-3.99-4.918-7.8-9.079-9.903.898.532 1.283 1.126 1.807 1.688 1.291 1.385 2.975 2.593 4.093 3.997Zm-45.83-18.985c.545-2.281-7.372-2.876-8.376-1.397 1.644.596 4 .231 5.837.747.615.172 2.255 1.845 2.539.65Zm67.701 38.927c1.072-2.33-.484-4.518-2.085-4.93 1.436 1.3 1.303 3.327 2.085 4.93ZM140.358 52.953c1.427.38 1.368 1.653 2.539.65-1.094-2.416-4.617-2.46-6.86-2.509-5.568-.118-11.476 1.809-15.074 4.764 2.719.119 5.341-2.058 8.497-2.725 3.328-.703 7.5-1.085 10.898-.18Z" fill="#E30611"/><path fill-rule="evenodd" clip-rule="evenodd" d="M120.289 59.222c2.682-.543 4.943-2.13 7.672-2.749 2.153-.49 4.847.066 6.487-1.793-5.312.238-10.732.245-14.159 4.542Zm103.766 47.397c.784 1.171 2.403 2.519 3.675 1.344-4.809-3.868-5.561-9.62-4.65-16.145-3.636 3.066-1.11 11.683.975 14.801Z" fill="#E30611"/><path fill-rule="evenodd" clip-rule="evenodd" d="M232.105 105.118c-3.854-1.084-5.418-4.739-4.955-8.478-1.012-.135-1.147 1.616-1.877 2.091-.67-1.77 2.951-3.3 1.524-4.165-.832-.505-2.938 2.171-3.082 3.873-.279 3.254 4.852 11.214 8.39 6.679Zm-26.03-13.131c-1.474-.248-2.096 3.65-3.059 3.048 1.154-1.603 1.732-4.446 3.442-4.853-2.738-2.347-3.576 3.168-5.269 5.296-2.157 2.71-5.155 3.388-7.54 3.907 2.244-1.756 6.25-4.323 6.411-7.655-4.277 3.493-7.676 8.874-14.322 7.262.191 1.708 3.102 2.434 4.296 2.683 6.566 1.365 13.907-2.76 16.041-9.688ZM166.471 80.28c1.12 2.733.778 6.147 2.057 8.806-2.058-1.486-2.167-5.635-2.057-8.807Zm5.015 12.11c-.957-.264-2.095-3.779-2.552-5.931-.792-3.74-.768-7.348.442-9.56-1.956-1.316-1.536.896-2.61 1.822-.832.715-.93-.146-1.34.621-1.202 2.25-.42 3.695.144 6.44.69 3.36.135 5.467 2.618 6.514.477-.9-.001-1.356.561-2.295 1.212.843 1.183 4.027 2.511 4.528 1.486.562 2.601-1.41 2.479-2.982-.838-.888-1.221 1.13-2.253.843Zm-58.217-32.959c-.041-4.502-8.984-1.92-7.225 1.525 1.771-2.036 4.38-3.066 7.225-1.525Zm73.339 26.548c-2.833.612-4.59 3.545-6.607 5.916-.181-.798.743-2.108.495-2.875-2.677.768-3.362 6.794-1.218 7.887.708.362 1.854-.302 3.053.006.347-1.336-.986-.746-1.022-1.762-.037-1.085 1.62-1.905 1.99-3.162-.491-.54-1.389.113-1.225-.448 1.047-2.6 3.971-3.37 4.534-5.562Z" fill="#E30611"/><path fill-rule="evenodd" clip-rule="evenodd" d="M196.115 91.121c-.923-.597-1.782.263-2.252.843-1.858 2.302-3.459 5.302-6.894 4.423 1.543-.669 3.596-2.4 3.841-4.428-1.611-.3-2.019 1.504-3.035 2.223-1.363.962-3.269.597-4.35 2.02 1.389.12 1.794 1.588 2.917 1.9 4.09 1.137 8.144-3.418 9.773-6.98Zm-89.317-27.667c1.711-.113 3.058-1.007 4.039-2.69-1.967-.667-3.682 1.326-4.039 2.69Zm168.113 68.153c4.377 4.878 8.771-5.274 5.341-7.768.269 2.313.296 7.423-2.868 7.839 1.896-1.791 2.742-6.709.036-6.931.624 1.497.946 3.907-.412 5.682-.622.813-2.032-.256-2.097 1.178ZM163.468 90.014c-1-1.163-.331-3.1-1.865-4.015.126 2.18-.439 4.678 1.394 6.064.449-.19.757-1.034.537-1.47.548.356.175 1.139 1.2 1.273-.003-3.592-.082-7.147-1.608-10.032-.774 3.139.57 5.294.342 8.18Zm91.192 25.575c-.484 3.042-1.063 6.264-3.668 6.992-1.127.315-2.019-.787-3.142.24 4.036 4.6 9.916-3.851 6.81-7.232Z" fill="#E30611"/><path fill-rule="evenodd" clip-rule="evenodd" d="M252.03 115.184c-.545 2.008-.915 4.063-2.37 4.966-.972.602-1.992-.435-2.743.663 2.552 3.366 8.179-3.231 5.113-5.629Zm-5.908 1.727c-.079 2.332 3.866.102 2.252-.843-.07-.04-2.212-.361-2.252.843ZM90.433 78.578c.062-3.023.034-7.193 2.137-11.161 1.589-2.994 4.496-4.123 6.275-5.761-5.943-1.684-12.432 11.972-8.412 16.922Zm85.826 11.392c-1.5 1.243-2.567 5.066-.501 5.928.796-1.296.614-3.778 1.236-5.66l-.735-.268Zm37.884 14.133c-.76 1.44 1.072 2.456.46 4.057-.151.395-.924.775-1.029 1.291-.118.598.557 1.206.444 1.828-.471 2.553-3.417 3.763-5.378 3.311 4.637 5.477 10.915-7.99 5.503-10.487Zm15.231 6.96c-1.345-1.377-5.695-1.936-7.904-3.446-.01 2.594 5.862 4.638 7.904 3.446Zm-23.935.135c-.118-1.058-2.501-5.575-3.15-8.097-.232-.904.143-2.899-1.243-2.676-1.095.176-1.467 2.706-1.858 4.319-.626-.114-.369-.641-1.134-.691-.065 3.583 1.849 6.864 5.223 7.743-.321-2.428-1.972-4.238-2.284-6.669 1.161 2.051 1.914 5.33 4.446 6.071Zm29.235 2.081c-1.342 2.298-1.441 5.018-1.194 7.063.518 4.28 2.481 9.47 4.68 12.267-.9-6.294-4.781-11.203-2.84-18.815-.309-.128-.225-.439-.646-.515Z" fill="#E30611"/><path fill-rule="evenodd" clip-rule="evenodd" d="m237.81 116.093-.733-.268c-2.658 4.961 2.02 15.87 6.562 18.509.684.398 1.441 1.376 2.384.317-5.286-5.003-9.07-10.702-8.213-18.558Zm-77.993-28.248c-.139 2.17.26 3.859-.903 5.503 3.399.928 3.116-4.77.903-5.503Zm51.601 19.15c-.566 2.268-1.813 4.18-3.84 4.429 2.788 3.108 6.201-2.611 3.84-4.429ZM93.11 77.335c.204-2.89 2.538-7.84 4.008-10.2-3.269.308-6.282 7.684-4.007 10.2Zm137.19 38.788c-.102-.115-.375-.076-.491-.179-1.461 3.497-2.888 5.138-5.359 5.539-.804.132-2.105-.885-2.654.419 2.583 3.886 11.082-2.849 8.504-5.779Zm-5.233-1.635c-1.541.038-3.04.167-4.391.615.869 1.761 4.009 1.522 4.391-.615Z" fill="#E30611"/><path fill-rule="evenodd" clip-rule="evenodd" d="M227.271 115.294c-.624 2.835-3.535 3.111-5.646 4.045 1.803 2.658 8.315-1.232 5.646-4.045Zm-77.75-28.16c-.534 1.806-.169 4.38-2.395 5.79 2.476 2.13 5.219-4.79 2.395-5.79Zm-3.631.061c-.026.998-2.308 5.154-1.327 5.904 1.154.88 3.856-5.127 1.327-5.904Zm111.192 44.556c.216-1.131 1.608-2.296 1.008-3.519-1.304 1.005-2.387 2.046-2.502 3.806-.218 3.345 2.655 12.509 5.994 12.47-1.528-3.636-5.392-8.094-4.5-12.757Zm-22.369-2.625c-.737-3.659-2.357-6.906-3.414-10.415-1.294 3.797.583 7.858 3.414 10.415Zm36.494 16.403c2.06 1.117 2.87-1.889 3.239-3.537.512-2.293-.015-6.058-1.638-6.154.366 2.924 1.076 7.139-1.601 9.691ZM138.11 87.961c-3.155 5.027-6.599 11.771-11.322 11.968 3.126-2.334 7-5.346 8.066-10.66-1.902.12-2.142 2.65-3.173 4.116-.899 1.284-2.353 2.867-3.327 3.784-.752.707-3.938 1.316-4.105 2.11.044-.21 1.395 2.14 1.668 2.276.488.241 2.312.084 3.142-.24 2.987-1.164 9.647-9.792 9.786-13.085l-.735-.269Z" fill="#E30611"/><path fill-rule="evenodd" clip-rule="evenodd" d="M259.752 133.562c-.193.631-.48 1.227-.472 2.05.036 3.663 3.355 11.457 6.866 10.843-4.328-3.277-4.403-8.53-6.394-12.893Zm-5.644 4.046c-.423-1.674.037-4.165-.927-5.061-1.17 2.937-1.359 8.202 2.301 8.897.006-1.58-1.014-2.396-1.374-3.836Zm17.644 3.398c-.309-.127-.225-.438-.645-.514-.937 1.778-1.847 3.615-3.107 4.696 1.73 1.564 3.771-1.978 3.752-4.182ZM130.348 90.955c-2.153.073-3.229 2.144-5.442 2.731-.66.174-.976-.53-1.585.532 2.184 2.253 6.409-.703 7.027-3.263Z" fill="#E30611"/><path fill-rule="evenodd" clip-rule="evenodd" d="M264.461 141.95c.195 3.327 4.075-.145 0 0ZM88.546 86.776c.037-.054-.799-1.416-.777-1.673.205-2.403 3.944-3.528 5.604-5.45-2.206-2.312-8.24 5.144-7.3 7.052.619 1.258 2.197.47 2.473.071Zm92.125 27.583c1.978.848 5.915 2.264 7.642 1.13-1.452-1.395-6.382-3.037-7.642-1.13Zm-4.516-3.595c-1.257 1.089-1.816 3.681-3.418 4.027 1.814 3.053 5.538-2.303 3.418-4.027ZM90.62 86.423c.885.374 4.276-3.028 4.643-3.579-1.662-1.461-6.29 2.883-4.643 3.58Zm124.183 46.253c-2.935-3.473-8.601-8.769-12.238-10.586 1.696 2.656 4.871 5.132 7.451 7.724 2.44 2.452 4.55 4.961 6.807 7.212.478-1.365-.943-3.076-2.02-4.35Zm-42.55-21.118c-1.163-.311-1.708-.173-1.558-.291-1.981 1.593 3.054 3.27 2.539.65-.137-.696-.158-.138-.981-.359Zm-63.067-13.622c-1.552-3.296-1.966-7.51-3.258-10.08-1.06 2.193.231 6.195 1.233 8.783.999 2.582 2.31 5.549 4.177 6.806.556-2.197-1.2-3.485-2.152-5.51Zm9.189-3.861c-.653 1.82.45 4.516 2.64 5.688.168-2.383-1.53-3.898-2.64-5.688Zm-5.736 4.29c-1.083-2.197-1.138-5.638-2.928-7.182-.86 1.932 1.595 9.844 4.417 9.949.377-1.427-.962-1.699-1.489-2.767Zm-.079-5.861c.384 2.669 1.544 4.977 4.267 6.56-.633-2.43-2.07-5.53-4.267-6.56Zm96.962 40.185c.97 2.464 2.839 4.51 5.18 6.338-.13-2.73-2.95-5.257-5.18-6.338Zm17.412 8.59c.214-.981-.417-1.569-1.512-1.941-.286.972.456 2.233 1.512 1.941Zm-38.53-14.648c-.308-.127-.225-.437-.646-.514-1.649 1.993-3.277 4.035-4.958 5.965 3.025.675 4.153-2.736 5.604-5.451Zm-25.565 2.316c2.603-1.257 3.67-5.821 5.298-9.173-.307-.127-.224-.438-.644-.513-1.847 2.422-3.886 6.354-4.654 9.686Zm10.199-7.38c-1.526 1.416-4.847 5.382-3.937 7.726 1.577-1.581 4.071-5.317 3.937-7.726Zm-3.031-.83c-1.349 1.657-3.978 5.105-3.602 7.57 1.529-1.133 4.563-5.387 3.602-7.57Zm5.701 2.639c-.308-.128-.226-.438-.647-.513-1.246 1.402-2.088 3.675-3.129 5.521 2.145.24 2.8-2.729 3.776-5.008Zm6.214 1.996-.736-.269c-.733 2.415-3.065 3.547-3.375 5.431 2.31.551 3.774-2.907 4.111-5.162Zm-4.008-1.189c-1.303 1.43-2.229 3.67-3.376 5.432 2.109.75 4.332-3.783 3.376-5.432Zm6.123 2.24c-.963 2.017-2.385 3.042-3.597 4.517 1.959 1.472 4.037-2.133 4.331-4.249l-.734-.268ZM104.55 98.462c-1.761.067.655 4.084 2.779 3.794-.237-1.19-1.697-3.836-2.779-3.794Zm-8.999-2.736-.49-.18c-.06 2.112-.653 3.486-1.015 6.574-.101.848-.761 5.532.167 5.617 1.322.12 1.538-4.818 1.66-6.059.248-2.52.568-4.49-.322-5.952Zm159.138 75.981c2.532-3.943 7.349-10.593 5.89-15.345-.426 5.705-4.889 11.289-5.89 15.345ZM92.186 95.052c-1.179.556.138 13.526-1.81 14.058-.988.27-1.694-2.631-2.623-3.459-.56-.499-1.3-.153-1.87-.961-1.155 3.287.256 9.31 3.15 8.095-1.356-1.811-2.51-3.715-2.127-6.333.648.773 2.15 5.051 4.248 4.332 1.627-.559 3.057-14.709 1.032-15.732Zm130.469 57.161c2.242 6.863 7.71 14.881 10.345 21.839 1 2.639 1.239 5.573 3.084 7.515.51-1.97-1.111-3.594-1.081-5.395-.004.195.862-.877.847-.801.349-2.124-1.854-6.963-3.256-10.079-.591-1.315-3.168-6.955-4.154-7.63-.314-.215-1.367-.081-1.558-.292-2.831-3.106-2.681-10.051-4.077-13.157-1.548 1.166-.772 6.092-.15 8ZM97.773 98.761c-.463 1.268-.675 5.408-.95 7.152-.085.549-1.087 2.102-.07 2.474 1.765.646 3.23-10.523 1.02-9.626Zm2.851 1.321c.838 1.237-1.466 3.934.861 4.481 1.156-1.287 1.336-4.752-.861-4.481Zm94.42 39.533c.017 1.739 6.424.32 7.33.458 1.233.191 6.442 2.476 6.353.102-.039-1.043-.759-.464-1.381-.782-.759-.39-2.822-.988-4.009-1.189-1.361-.232-8.304.283-8.293 1.411Zm36.581 19.212c1.297 2.866 2.453 5.896 4.422 6.895-1.694-5.518-4.016-10.744-6.723-15.792-1.365 2.347 1.156 6.362 2.301 8.897Z" fill="#E30611"/><path fill-rule="evenodd" clip-rule="evenodd" d="M203.912 141.192c-1.008-.257-8.81.438-9.029 1.143-.566 1.826 7.382 2.884 9.8 3.584.654-1.594-2.384-1.47-2.982-2.481 1.748.29 7.049-1.012 2.211-2.246Zm49.552 30.067c2.417-2.602 3.466-7.192 3.673-10.044-.672 3.218-3.434 7.636-3.673 10.044ZM82.52 115.403c-1.468-4.056.272-10.865 1.368-15.889.04-.153.068-.302-.157-.333-3.972 3.798-5.013 17.459.009 19.724.468-1.438-.838-2.45-1.22-3.502Zm58.743 14.819c1.902-3.338 1.169-7.177-.049-9.741-.654 2.454.081 4.215-.011 6.107-.06 1.247-1.076 2.657.06 3.634Zm21.946 3.027c1.824.765 4.05.049 5.772.166 1.499.102 2.34 1.26 2.809-.084.662-1.899-3.088-1.907-4.32-1.858-1.972.08-3.497.095-4.261 1.776Zm-24.133-1.605c.375-4.174.466-8.215-1.071-11.502-.611 1.663-.253 4.026-.101 6.351.117 1.773.035 4.082 1.172 5.151Zm23.558 10.006c-1.312 1.094-1.482 2.814-.919 3.273.648.53 2.226-.645 2.743-.663.45-.015.971.461 1.469.537 3.099.478 6.953-1.161 10.768-1.339 2.955-.137 6.546.003 8.891.753.862.276 4.01 2.913 4.81 2.037 1.45-1.591-3.771-3.758-5.073-4.356.7-1.004 2.354-2.519 1.498-3.341-1.061-1.02-3.625 2.109-4.194 2.355-.956.416-3.087.642-4.636.527-5.619-.416-12.618-2.066-15.357.217Zm-15.033-16.608c-2.343 1.476-4.601 7.146-3.249 9.643.997-3.106 2.767-7.442 3.249-9.643Zm102.201 38.767c-.251.491 1.554 2.18.305 3.722 5.021 1.125 1.562-7.374-.305-3.722Zm-114.336-32.93c.858-3.256.133-7.511-1.184-10.432-1.11 1.606-.062 3.627.168 5.617.206 1.775-.327 3.917 1.016 4.815Zm-2.629-.406c.542-2.578-.432-7.235-2.391-8.652-.401 1.808.76 3.063 1.106 4.571.339 1.482-.336 3.429 1.285 4.081Zm-5.287-8.322c-.149 2.122.746 3.622 1.327 5.485.449 1.437.424 3.633 2.02 4.349-.094-3.625-1.295-7.795-3.347-9.834Z" fill="#E30611"/><path fill-rule="evenodd" clip-rule="evenodd" d="M85.175 114.985c-1.084-2.751-.705-6.181-1.723-8.963-1.534 3.04-1.339 8.057 1.723 8.963Zm29.002 7.274c2.246 1.677 3.51-4.627 1.524-4.165-.958.225-2.23 3.637-1.524 4.165Zm73.096 26.456c-4.49-1.722-9.898 2.86-10.625 7.781 2.223-1.628 3.198-4.174 5.361-5.539 1.712-1.081 3.896-.575 5.264-2.242Zm24.873 10.209c-2.539 4.081 1.113 10.517 2.248 13.599 1.547 4.201 1.905 8.117 3.969 11.173 1.855-7.049-4.304-14.429-5.332-21.115-.183-1.186.491-3.352-.885-3.657Zm6.992 3.669c-.082 3.139 3.039 6.391 4.261 9.613.421 1.108-.439 2.156 1.242 2.677.887-4.417-1.49-10.148-5.503-12.29Z" fill="#E30611"/><path fill-rule="evenodd" clip-rule="evenodd" d="M181.321 149.039c-1.082-.856-3.222-.23-4.148.705 1.669.381 3.112.275 4.148-.705Zm65.942 25.506c-1.027 1.62.395 3.096.771 4.726.48 2.077.749 4.678.79 6.956.041 2.372-1.032 4.84-.125 7.175 2.245-6.737 1.403-13.804-1.436-18.857Zm-106.2-20.232c1.701-2.085 3.031-6.593 3.248-9.644-.817-.591-.782.651-1.339.622-.189-1.065.821-2.686-.148-3.388-1.594 2.748-3.092 9.262-4.66 12.739 2.326-.392 2.377-5.685 4.403-6.722-.209 2.278-2.237 4.384-1.504 6.393Zm1.779 1.207c2.687-2.504 3.185-8.448 3.811-11.939l-.736-.269c-.36 2.64-1.473 6.059-2.401 8.843-.344 1.037-1.847 2.436-.674 3.365Zm6.815-10.285-.735-.268c-.227 2.526-3.051 7.536-2.538 10.737 2.371-3.078 1.895-6.477 3.273-10.469Zm95.557 40.227c-.439 2.088-1.206 5.945-.483 8.156 2.334-2.151 1.85-6.381.483-8.156Zm-3.122 13.857c.017-2.675.763-7.072-.341-8.18-.515.386-.884 1.398-1.051 2.116-2.217 9.479 3.15 19.363 2.577 27.885-.214 3.176-1.374 6.121-1.111 9.869 5.823-11.969-.147-20.781-.074-31.69Zm-30.466 11.91c2.388-9.471 2.418-24.354-.882-29.486-1.327 1.966-.387 5.04.096 8.09 1.081 6.813.582 16.21-1.849 24.044-.406 1.307-1.952 3.333-1.056 5.169 2.108-1.592 2.915-4.734 3.691-7.817Zm-39.922-32.099c1.286-2.446-1.506-3.396-3.065-5.287-1.745-2.113-1.998-3.669-3.514-4.063-.494 4.364 4.281 6.282 6.579 9.35Z" fill="#E30611"/><path fill-rule="evenodd" clip-rule="evenodd" d="M216.278 190.156c-2.855-1.925-1.387 5.662-1.35 6.728.091 2.525-.359 5.502-.794 7.486-.601 2.736-2.184 5.221-.859 6.908 2.662-3.82 3.308-8.945 3.523-13.433.092-1.922.376-7.086-.52-7.689Zm-69.485-14.304c1.58-3.037-1.524-3.902-2.641-5.688 1.577.527 3.515 1.651 3.788.274.46-2.31-9.698-2.859-10.271-1.534.371.936 2.693.775 2.85 1.32-1.844.751-6.097 1.102-6.535 3.442-.614 3.27 2.422.32 3.542.185 1.778-.212 2.913.532 4.499 1.367-1.648-.482-3.127-.603-4.057.461 1.44.852 3.213 2.185 4.565 1.949.678-.12-.108-.898.538-1.471.049-.043 2.349-.722 1.917-.687.828-.066.611.705 1.805.382Zm-34.422-16.757c-1.867-.236-3.887-1.774-4.769-.632.971 1.499 5.887 3.767 7.016 2.843 2.415-1.983-1.225-2.081-2.247-2.211Zm94.11 50.253c-.275 1.381-1.168 3.142-.208 4.368 3.146-4.854 4.903-15.596 2.506-18.248-1.14 2.495-1.012 6.078-1.509 9.447a90.474 90.474 0 0 1-.789 4.433Zm-80.841-32.622c1.802 1.527 4.215.782 5.643-.992-.095-.944-1.338-.577-1.537-1.117.996-.179 4.825-6.051 2.664-6.525-1.474-.324-.693 1.027-1.721 2.425-.809 1.104-3.501 4-5.401 4.136-2 .143.015 1.788.352 2.073Zm53.928 15.835c2.043 1.779 6.168 1.467 6.195-.234.018-1.039-5.044-.364-6.195.234Zm59.253 40.003c3.588-5.535 3.772-15.635 1.217-19.275-.777 2.194-.221 5.093-.239 8.245-.014 2.593-.047 5.176-.638 7.822-.216.964-1.454 1.837-.34 3.208Z" fill="#E30611"/><path fill-rule="evenodd" clip-rule="evenodd" d="M127.075 172.806c-2.246.34-4.06.33-6.082-.835-.198 2.977 5.027 3.666 6.082.835Zm65.787 25.173c-.846 3.241-.508 7.471-1.826 11.831-.541 1.786-1.975 3.509-1.147 5.413 1.809-1.477 3.121-5.73 3.804-8.885.648-2.983.388-6.953-.831-8.359Zm-20.941-3.493c.835-.374 2.027-1.137 2.454-2.158-4.208-.595-7.158 1.518-10.012 3.838 2.711.323 5.304-.672 7.558-1.68Z" fill="#E30611"/><path fill-rule="evenodd" clip-rule="evenodd" d="M188.018 214.261c2.263-4.643 3.838-10.729 1.477-13.903-1.021 3.589-.931 6.885-1.535 10.271-.223 1.244-1.573 2.8.058 3.632Zm13.253-7.374c-1.477 1.749-2.44 6.473-1.732 8.532 1.783-1.93 3.38-6.883 1.732-8.532Zm-38.289-11.504c-3.947-1.211-8.032-3.772-10.821-5.347.77 3.04 7.379 7.255 10.821 5.347Zm-50.055-12.752c1.642-.542 1.832-3.413 2.127-5.055l-.735-.269c-.73 1.135-2.439 4.35-1.392 5.324Z" fill="#E30611"/><path fill-rule="evenodd" clip-rule="evenodd" d="M162.421 197.677c-.023-1.282-3.056-1.267-4.565-1.948-3.061-1.379-5.28-3.785-7.081-3.422l-.268.734c2.254 1.302 6.125 4.757 8.591 5.365.803.198 3.342.349 3.323-.729Zm-52.66-13.983c1.419-.536 1.389-3.521 1.457-4.744l-.733-.268c-.481 1.781-1.599 3.86-.724 5.012Zm125.461 53.388c2.693-2.757 4.324-9.541 1.673-12.166-.465 2.339-.237 5.307-.974 7.977-.352 1.277-1.832 2.994-.699 4.189ZM98.088 193.59c.855.622 1.942-1.509 2.773-4.541.373-1.364 1.057-5.661.882-7.732-.06-.721-1.016-4.487-1.105-4.57-2.886-2.644-1 6.663-1.039 7.396-.126 2.293-2.807 8.506-1.51 9.447Zm55.484 4.74c.456 1.276 4.36 3.083 4.744 1.457.33-1.398-4.728-2.596-6.322-3.979.666 1.557-1.573.763-1.697 1.601-.156 1.06 1.005 2.052 2.827 2.145.823-.116-.245-1.258.448-1.224Zm-37.112-9.408c-2.16-.363-3.509 4.79-4.983 6.788-2.176 2.955-4.382 3.121-6.003 5.026 2.059 1.892 4.31-1.763 5.575-1.572-.551.566-1.172.983-1.543 1.937 2.283 2.194 4.299-2.035 4.577-4.16-.876-.829-1.607.872-1.739.197 1.629-2.473 3.72-5.591 4.116-8.216Zm101.906 40.327c-.807 7.808 3.345 13.555 4.621 20.022.463 2.349.008 5.883 1.435 7.469 1.91-7.612-2.132-14.381-4.107-20.667-.712-2.265-.534-4.807-1.949-6.824Zm-92.662-26.113c.821-.016 2.546-2.424.651-2.54-1.414-.086-2.151 2.568-.651 2.54Zm92.294 55.977c.582-2.182-.78-4.118-1.636-6.154-.803-1.909-1.832-4.03-2.708-6.268-1.385-3.546-2.82-10.479-4.566-13.335-.746 4.129 1.586 9.827 3.383 14.291 1.659 4.118 2.854 8.744 5.527 11.466Z" fill="#E30611"/><path fill-rule="evenodd" clip-rule="evenodd" d="M222.631 261.64c.884-.187.843-5.997.836-6.082-.238-3.271-1.393-6.163-2.146-8.563-.268-.854-2.341-8.064-3.329-7.605-1.154.535-.014 3.752.127 4.212 1.367 4.516 3.414 9.255 3.585 12.977-.013-.29-.904 5.451.927 5.061Zm-7.194 9.035c3.387-7.292-.586-13.422-2.994-19.149-1.415-3.364-1.59-7.132-3.951-8.945-.102 8.589 7.037 13.815 6.442 22.632-.666-.706-.067-2.002-1.666-2.276-1.032 4.374 2.047 8.904-1.117 12.923-.585-3.862 1.305-8.875-1.895-11.525-.064 4.656.488 9.328-.16 14.107-.135 1.004-1.277 2.029.084 2.809 1.484-.456 1.286-3.185 1.948-4.566 3.186 1.835 2.236-3.701 3.309-6.01Z" fill="#E30611"/><path fill-rule="evenodd" clip-rule="evenodd" d="M221.334 263.666c.488-1.722-.266-4.977-.543-6.866-.358-2.422-.612-4.948-2.218-6.089-1.501 2.998 1.863 5.5.807 9.185-.018.062-.879.307-1.183.956-.586 1.249-.152 5.133-.705 7.241-.289 1.104-1.619 3.454-.608 3.943 1.897.922 2.669-6.017 2.999-6.68.452-.905 1.059-.306 1.451-1.69Zm-34.245-17.247c1.352 2.051.395 3.255 2.421 4.773 1.411-5.882-6.231-10.387-10.583-13.592.164 3.37 5.91 5.401 8.162 8.819Z" fill="#E30611"/><path fill-rule="evenodd" clip-rule="evenodd" d="M176.56 239.512c-1.22-1.283-.885-2.824-2.468-3.124-1.041 4.749 5.377 5.964 8.318 9.153 1.233 1.335.559 2.838 2.379 3.369 1.756-4.581-5.242-6.253-8.229-9.398Zm14.605 8.675c.371 1.25-.15 2.529 1.309 3.257 1.072-3.356-.205-7.355-3.862-9.19.211 2.38 1.875 3.651 2.553 5.933Zm100.502 40.369c.098-3.279-7.221-7.091-9.995-5.322 4.401.728 7.084 3.303 9.995 5.322Zm-114.783-43.092c-.112 2.628 3.086 3.719 1.948 6.823-.352-.86-1.642-4.853-2.689-4.039-1.058.824.725 3.236 1.017 4.817.409 2.214-.516 4.249.591 5.215 1.121.026 1.083-2.032 1.321-2.85 3.84.773 1.319-10.596-2.188-9.966Zm-24.711-1.539c.408-1.646 1.496-3.155 1.636-5.234l-.735-.269c-3.754 5.206-3.663 12.984-.655 16.981.612-3.331-1.347-7.047-.246-11.478Zm130.964 42.9c-1.786-1.232-8.445 3.99-4.845 4.894.324-2.693 4.074-3.19 4.845-4.894Zm-78.328-5.317c1.65-1.33 2.918-4.424 2.084-6.458-.331-.813-1.202-1.022-1.355-1.608-.591-2.247.084-5.143-.187-7.845-.102-1.008-.231-4.52-.657-5.796-1.226-3.66-1.017 1.314-.921 3.274.319 6.515.433 13.74-3.247 21.033-.534 1.055-2.336 1.747-1.344 3.675 2.495-.334 4.826-7.103 5.681-10.976.246.089.219.305.401.423-.101 1.402-1.639 3.471-.455 4.278Zm-82.586-52.148-.735-.269c-.875 1.152-3.269 4.213-2.037 4.811 1.672.811 2.416-2.404 2.772-4.542Zm157.872 62.741c1.21-1.381 3.858-1.91 5.354-2.486-1.002-1.394-4.091-.472-5.55.748-.287.238-2.721 3.189-1.344 3.675 1.266.446.661-.932 1.54-1.937Z" fill="#E30611"/><path fill-rule="evenodd" clip-rule="evenodd" d="M282.258 291.504c-1.896.952-3.899 4.07-2.73 5.945 1.707-4.479 5.323-6.754 9.768-3.927.288-3.271-5.034-3.026-7.038-2.018Zm-133.783-36.71c.222-2.68-.445-8.076-.181-10.898-.048.507.963-4.526-.484-3.232-2.819 2.52-1.233 13.001.665 14.13Zm151.089 54.705c-.56 1.014-1.992.903-1.967 2.337 5.308.564 5.971-9.552 2.897-11.718-.621 2.89.662 6.488-.93 9.381Zm-92.151-26.76c1.508.475 2.246-4.928 2.33-6.37.187-3.164-.184-5.758-1.123-6.798-1.157 2.014-.681 3.514-.86 6.906-.052 1.004-.936 6.076-.347 6.262Zm-20.661-10.334c.862-3.108 2.293-9.192.62-10.051-.091.489-.505.434-.604.892-2.367 11.012-5.833 24.618-11.342 35.57-1.788 3.555-4.535 6.697-4.922 10.42 7.202-7.692 12.755-24.238 16.248-36.831Z" fill="#E30611"/><path fill-rule="evenodd" clip-rule="evenodd" d="M298.853 308.405c1.155-1.628.634-3.369-.191-4.791-1.666.4-.61 2.246-1.59 3.584-.715.975-2.442.297-2.186 1.423.305 1.348 3.274.761 3.967-.216Zm-104.29-17.867c.416-.263 1.094.078 1.493-.287 1.499-1.371 3.237-5.372 4.206-8.462 1.457-4.642 2.845-11.212 1.181-12.344-1.596 3.532-1.057 8.89-3.588 12.853.291-1.423 1.182-3.124.029-3.879-2.196 3.832-3.689 10.34-5.687 14.031 1.051.802 1.344-1.266 2.366-1.912Zm98.148 13.399c-.164.031-.739.352-.76.556-.291 2.801 4.011-1.2.76-.556Zm-148.097-46.944c.508-2.087.192-5.498-1.189-7.379-1.225 2.419-.381 5.585 1.189 7.379Zm40.27 37.226c2.738-4.79 5.965-10.146 7.228-15.966.584-2.688 2.211-8.817.596-9.226-2.838 6.512-3.029 15.625-7.795 21.314 1.159-2.075 2.073-5.263 2.598-7.104.724-2.537 2.429-5.463 1.619-7.464-2.558 3.028-3.4 7.592-5.125 11.737-1.595 3.831-3.502 7.424-5.101 10.911-.846 1.84-2.159 4.354-1.416 6.147.79-.049 1.006-1.337 1.386-2.27 2.84 1.069 3.864-4.325 6.01-8.079Zm-19.327-33.733-.735-.269c-.357 1.181-.821 2.223-.92 3.275-.481 5.116.921 12.02 1.663 16.718.288 1.828.809 3.819 1.751 5.084.471-4.003-.157-8.217-.804-12.237-.662-4.133-1.319-8.164-.955-12.571Zm85.015 39.428c1.375-1.727 1.313-4.54 1.841-6.55l-.736-.269c-.955 2.014-2.655 5.081-1.105 6.819ZM96.66 254.453c-.923-.531-.98.811-1.829.442.15-7.327 5.876-12.295 10.635-13.887-3.976-2.263-10.973 5.174-12.278 10.785-.515 2.215-.227 5.207 2.265 4.439-.056 5.16-.99 12.032-3.798 17.222 2.096.394 3.122-2.506 3.662-3.938 1.74-4.619 1.804-11.475 1.344-15.063Zm193.063 61.446c.974.426 1.628.686 1.985-.108.624-1.39-.717-.369-1.847-1.786-1.278-1.603-1.504-7.236-2.863-6.602-2.594 1.209 1.653 8.027 2.725 8.496Z" fill="#E30611"/><path fill-rule="evenodd" clip-rule="evenodd" d="M283.961 309.625c-.261 1.994 1.505 8.14 4.196 9.034.692-1.685-.765-2.313-1.219-3.501-.431-1.127-.505-6.843-1.524-7.223-1.07-.4-1.317.667-1.453 1.69ZM99.024 241.151c-1.46-2.331-4.99 1.145-6.472 4.022-1.275 2.477-2.634 6.027-1.283 7.308 2.11-2.864 2.569-7.385 5.232-9.752.878-.779 2-.348 2.523-1.578Zm176.788 64.938c-1.767-.237-4.248 2.091-6.93-.036.646 3.165 6.116 3.156 6.93.036Z" fill="#E30611"/><path fill-rule="evenodd" clip-rule="evenodd" d="M285.84 318.923c.806-.603-2.064-7.519-3.084-7.517-1.398 1.11 1.531 8.681 3.084 7.517Zm-16.564-9.391c-.184 3.128 6.171 2.558 4.882-.437-1.451 1.803-3.357.603-4.882.437Zm-113.004 6.721c1.1.855 2.843-3.282 2.994-3.628 4.246-9.847 2.628-23.426 1.352-32.558-.39-2.787-.62-9.239-1.495-11.101-.499.703-.784 1.518-.896 2.449-.544 4.555 1.099 10.38 1.687 15.894.866 8.128.939 14.288-1.288 21.749-.459 1.534-3.176 6.555-2.354 7.195Zm-36.28-61.044-.736-.269c-1.956 4.449-10.46 5.132-7.909 10.995 1.009-5.774 7.731-4.786 8.645-10.726Zm133.092 49.233c-2.393-.335-3.375 2.371-4.511 4.738-3.018-1.67-3.443 3.533-5.114 5.629-.264-.717.318-2.593-.844-2.252-1.831 1.103-.913 4.557 1.041 3.991-1.092 1.667.471 5.612 1.774 4.259.458-.473-.34-1.838-.328-2.897.026-2.621 1.553-5.946 2.777-7.594.263.861-.575 1.986-.83 3.029-.39 1.595-1.564 9.674.742 8.604.503-.234.219-6.019 1.087-9.046 1.125-3.931 2.83-5.691 4.206-8.461Zm-90.543-28.116c-.232 2.809.535 4.562.609 7.445.064 2.396-.564 4.838.545 6.864 1.557-3.998 2.173-12.272-1.154-14.309Zm-56.035-19.939c-3.17 1.673-4.757 7.812-2.025 10.092.079-2.692.561-6.896 2.426-9.668.014-.211-.102-.359-.401-.424Zm64.898 47.345c1.544-1.055 2.612-3.716 3.734-6.411 1.667-4.002 4.502-13.072 3.549-14.257-2.14 2.436-3.329 8.183-4.725 12.16-1.092 3.107-3.38 5.793-2.558 8.508Z" fill="#E30611"/><path fill-rule="evenodd" clip-rule="evenodd" d="M108.753 269.986c1.013-2.473-.396-6.436 1.667-9.113.546-.708 1.889-.368 2.031-1.757-5.158-1.125-6.332 8.603-3.698 10.87Zm163.47 48.955c-1.33-.335-1.951 5.589-3.023 7.506-.949 1.694-2.2 1.663-2.235 3.071 3.417 1.869 7.036-10.129 5.258-10.577Zm-143.38-30.22c.316-4.128-1.603-8.453-.934-13.395.365-2.69 2.976-7.056 1.643-8.288-1.284 1.624-2.662 4.919-3.178 7.171-1.015 4.439-.17 12.126 2.469 14.512Zm163.934 38.572-.734-.269c-.799 1.345-1.943 1.949-2.968 2.803 1.618 1.874 3.979-.326 3.702-2.534Zm-38.586-6.892c.317 2.225-.692 5.066 1.881 6.244.021-3.58-.6-7.462 1.469-10.851-1.681-.702-2.225 1.044-2.879 2.558-1.779-1.188-2.525.978-2.969 2.802-.561 2.303-.099 8.995 2.08 7.982 1.021-.473-2.121-7.482.418-8.735Z" fill="#E30611"/><path fill-rule="evenodd" clip-rule="evenodd" d="M268.877 320.496c-1.133 1.675-1.622 5.727-3.758 7.235 2.804 2.111 6.227-5.51 3.758-7.235Z" fill="#E30611"/><path fill-rule="evenodd" clip-rule="evenodd" d="M266.647 320.513c-.91-.048-2.48 3.611-2.771 4.542 2.58 1.305 4.747-4.435 2.771-4.542Zm-130.264-24.312c1.338.434 1.84-3.116 2.015-3.985 1.319-6.61-1.153-11.728.923-17.716l-.734-.269c-2.551 4.992-1.645 9.433-1.564 14.149.015.89-1.287 7.611-.64 7.821Zm158.01 38.07c-1.027-.473-2.836 2.972-4.154 3.76-1.361.813-2.298.575-3.657.884.092-.51 4.102-2.016 3.148-3.293-.754-1.01-4.5 1.74-5.083 1.752-6.851.131-4.671-7.028-5.798-10.731-2.252 1.681-1.158 4.896-1.105 6.818-1.754-2.236.499-6.333-1.321-8.539-1.806 2.6-1.461 7.644-.375 10.14.355.816 1.823 2.862 2.714 3.214.193.077 1.043-.313 1.494-.287 2.957.173 3.661 2.044 6.278 2.574 1.834.372 4.688-.827 5.999-1.972.277-.241 3.24-3.681 1.86-4.32Zm-151.488-20.963c5.352-7.238 10.438-15.998 10.387-25.365-.015-3.013.27-7.506-1.499-8.048-.48 3.502.264 7.284-.153 11.053-.915 8.209-7.227 17.568-10.987 23.203-2.666 3.992 1.432.265 2.252-.843Zm-47.26-40.895c1.847.801 5.07-10.946 2.025-10.092-1.283 1.493-.22 3.287-1.171 6.238-.456 1.414-2.178 3.28-.854 3.854Zm178.197 61.842c-.921-2.875-.313-4.974-.275-7.601l-.735-.269c-.418.527-1.103 1.809-1.32 2.852-.276 1.321.534 9.167 2.971 8.585 1.417-.339-.379-2.753-.641-3.567Z" fill="#E30611"/><path fill-rule="evenodd" clip-rule="evenodd" d="M134.784 294.506c1.936-1.83 1.423-5.212 1.307-8.134-.098-2.501.393-7.488-.226-9.248-2.929 2.865-1.553 10.067-1.541 13.324.004 1.313-.612 3.147.46 4.058Zm-2.445-3.95c1.621-.746-.304-3.659-.501-5.461-.284-2.568 1.446-5.959-.39-6.53-2.558 2.636-1.1 12.909.891 11.991Zm24.304 29.997c7.896-3.643 6.451-18.26 9.049-24.743.538-1.342 2.437-3.076 1.189-4.01-1.339-.999-2.774 2.14-2.611 1.824-2.068 4.003-1.286 10.696-3.13 16.909-1.309 4.41-3.61 6.911-4.497 10.02Zm113.196 9.46c-.749 1.161-1.323 2.699-2.169 3.651 1.944 2.565 4.488-2.837 2.169-3.651Zm-18.923.856c.384-2.755-.08-5.114-.945-7.289-1.432 1.784-1.618 6.053.945 7.289Zm-126.104-42.511c1.171-1.682.096-3.06-.258-5.372-.003-.015-.508-6.485-1.572-5.574-1.88 1.61.217 9.731 1.83 10.946Zm27.313 28.599c2.495-1.085 4.217-4.683 5.162-7.278 2.362-6.491 1.412-14.277.636-19.21l-.734-.268c-.854 5.926.671 11.227-1.169 17.626-1.153 4.009-3.015 5.766-3.895 9.13Zm110.027 13.578c-1.52.109-3.142 4.95-5.026 5.383-1.064.245-1.505-.944-1.738.198-.313 1.521 2.601 1.38 2.85 1.32.956-.229 6.424-7.084 3.914-6.901Z" fill="#E30611"/><path fill-rule="evenodd" clip-rule="evenodd" d="M258.158 331.574c-1.9.29-3.378 1.486-5.174 1.996 1.646 2.437 5.237.58 5.174-1.996Zm-146.35-38.806c2.222-3.938-2.713-6.374-2.342-10.3.098-1.048 1.488-2.329.763-3.61-4.959 4.876.407 9.884 1.579 13.91Zm-18.42 6.317c.571.379 1.503-.095 2.139.227 1.13.573 2.632 3.775 3.155 5.042.508 1.233.133 3.101 1.709 3.681.756-1.298.203-3.301-.281-4.547-.527-1.359-2.559-5.079-3.8-5.556-.512-.197-1.588.386-1.984.107-2.442-1.714-1.463-8.219-.246-11.477 1.76-4.711 4.505-7.661 6.505-10.953-1.006-.531-2.328.588-3.01 1.398-4.398 5.227-9.597 18.489-4.187 22.078Zm36.934 21.286c.467-.612 5.05-4.932 4.953-2.91-.066 1.376-3.304 2.456-4.953 2.91Zm16.698-26.667-.736-.269c-2.936 7.854-5.75 18.465-11.541 22.442.283-.741.732-1.56-.197-1.738-1.404.066-1.429 1.416-2.21 2.247-2.143 2.275-5.373 3.453-6.764 5.581 1.764.586 2.576-.876 3.992-1.04 1.304 3.045 6.389-1.591 7.849-3.239-.132-.861-1.404-.071-1.378-.782 5.374-4.031 10.039-14.947 10.985-23.202Zm-41.927-8.391c.126 2.315.694 5.756 1.77 7.313.733-.587.939-1.776.986-2.696.079-1.608-1.304-6.771-2.016-7.402-.478.895-.783 1.989-.74 2.785Zm-14.227-7.426c-2.909-.375-4.591 6.829-2.754 6.77.876-.029.894-2.402 1.768-4.075.665-1.27 2.916-2.446.986-2.695Zm59.186 39.423c3.156-3.78 6.051-12.301 4.264-16.217-1.168 2.353-1.242 5.925-2.246 9.179-.87 2.821-2.77 5.318-2.018 7.038Z" fill="#E30611"/><path fill-rule="evenodd" clip-rule="evenodd" d="M89.767 293.039c1.55.259.658-1.603.627-1.714-.858-3.162 1.982-7.494 3.118-10.804-2.025.097-4.289 4.177-4.916 7.368-.205 1.044-.3 4.905 1.171 5.15Zm27.655 25.391c5.226-3.282 4.429-11.998 5.604-16.837.668-2.753 2.343-6.645 2.133-8.109-.182-1.268-1.772.3-1.83.442-1.891 4.719-2.505 9.882-2.835 15.351-.205 3.393-2.91 6.029-3.072 9.153Zm15.098-5.588c2.284-.339 4.143-4.426 5.586-7.678 1.016-2.291 1.712-4.876 1.75-6.304l-.735-.269c-2.142 4.028-4.425 9.954-6.601 14.251Zm-6.737 4.758c.881.664 3.608-3.027 4.687-5.23 2.158-4.398 3.357-10.93 1.184-12.344-1.187 2.365-.226 7.097-2.742 12.052-.518 1.019-4.256 4.674-3.129 5.522Zm-20.67-7.282c.813-4.081.741-6.9-.873-9.764-.874-1.546-2.547-2.606-3.18-4.217-.811-2.064-.016-4.063-1.059-6.22-3.56 3.696.676 8.142 2.253 10.544 2.177 3.316.913 6.99 2.859 9.657Zm43.145.504c-1.276 2.307-3.298 5.403-4.003 7.146 1.942.336 3.71-2.797 4.846-4.894.377-.697 2.103-3.638.944-4.099-.801-.319-1.678 1.65-1.787 1.847Z" fill="#E30611"/><path fill-rule="evenodd" clip-rule="evenodd" d="M125.01 312.874c2.092.983 6.035-11.366 2.873-10.893-1.096 1.557-.395 3.901-1.774 7.128-.502 1.173-2.434 3.137-1.099 3.765Z" fill="#E30611"/><path fill-rule="evenodd" clip-rule="evenodd" d="M122.313 311.887c2.424.294 3.838-5.267 1.751-6.304-.457 1.332-1.379 4.364-1.751 6.304Zm-16.048-10.036c-.584 2.024.743 3.674.635 6.62-.086 2.305-1.292 4.662-.102 6.351 2.33-3.899 3.128-10.508-.533-12.971Zm6.695 19.669c1.393-.436 3.202-3.202 4.468-6.143 1.197-2.777 2.706-8.078.908-8.556-1.148 4.417-4.212 11.059-5.376 14.699Zm-3.283-9.255c-.892 3.008-2.649 5.308-4.271 7.88 2.922.425 6.8-5.609 4.271-7.88Zm12.896 4.994c-.894-.464-.894-.056-1.249.376-1.677 2.046-5.201 5.301-6.143 6.92 3.462-.01 6.364-3.501 7.392-7.296Zm-13.677 7.775c.998.804 3.694-1.604 3.729-3.359-1.619-.398-4.697 2.578-3.729 3.359Z" fill="#E30611"/><path fill-rule="evenodd" clip-rule="evenodd" d="M272.078 301.112c.756-.706 1.666-1.082 2.365-1.912.371-.19-.839 3.316-2.365 1.912Zm1.726-5.48c.322 1.441-1.361 2.316-1.99 3.162.004-.738 1.393-2.246 1.99-3.162Zm-5.687 2.642c.828-1.425 2.102-1.894 3.058-3.047-.073 1.31-1.671 3.108-3.058 3.047Zm20.712 42.85c-5.125 1.277-14.136-.609-17.733-3.152-.744-.526-1.057-1.892-1.757-2.032-1.292-.258-1.941 1.339-3.035 2.223-2.228 1.803-4.491 2.463-7.338 2.594 1.379-.732 5.498-3.491 6.274-5.76.212-.62.692-2.996-.484-3.232-1.114-.225-1.202 2.23-1.745 3.25-1.335 2.507-4.546 4.909-7.027 3.262-.597 1.024-.061 1.522.688 1.918-3.567-.185-10.745-4.608-10.391-8.799.217-2.575 3.077-4.243 1.815-5.724-.365-.429-2.091-.219-2.384-.318-3.412-1.138-8.335-7.35-5.348-11.954.371-.573 2.089-1.004 2.365-1.913.54-1.767-2.581-4.234-2.104-7.158.433-2.651 3.28-8.025 5.497-7.433.573.153 1.041 2.669 2.157 2.455.619-.117-.58-4.035-.257-5.37.65-2.687 2.173-4.077 4.242-4.004-2.057-2.341-5.083.702-5.891 3.955-5.348-4.772 2.642-10.736 5.723-9.572.617.233 3.784 4.746 4.937 6.249.891 1.165 1.869 1.743 2.801 2.969.239.315.235 1.303.532 1.584.691.651 2.391.923 3.162 1.99 1.005 1.391.312.948 2.491 2.299 2.705 1.676 4.388 4.679 7.905 3.447 1.902-.666 3.473-3.829 3.399-6.256-.018-.62-.625-.9-.777-1.673-.053-.27.449-.722.359-.981-.829-2.381-2.132-4.009-2.259-7.492-.06-1.616-.486-4.627-.013-5.282.299-.413 6.409-1.943 8.139-1.745 3.869.444 7.963 3.753 10.217 6.237 1.722 1.898 2.688 4.415 4.601 6.405 1.172 1.218 2.695 1.627 3.717 2.748 4.153 4.557 3.521 16.194-2.825 20.632-1.211.849-4.756 1.655-4.952 2.911-.356 2.268 5.389 3.392 4.601 6.404-2.65-.012-1.095 4.712-3.154 6.346-.316-.801 2.288-7.284.459-7.331-2.09-.054-.829 7.121-3.781 8.061 1.632.835 3.355 2.476 4.613.298 3.935 4.531-3.889 8.061-7.439 8.944Zm-41.059-66.957c7.531 1.883 12.699-5.034 18.09-9.216-2.11 3.406-7.552 8.469-12.343 10.207-2.235.811-4.497 2.129-5.747-.991Zm-.802-.849c-.928-1.04-1.323-2.652.096-3.297.68-.31 2.847.71 3.363.674 1.316-.09 4.557-1.465 6.178-2.462 1.754-1.08 4.411-3.205 6.428-5.426 2.037-2.24 4.677-4.359 5.874-6.185 2.23-3.403 4.508-5.632 6.547-9.549-3.39 8.939-9.363 14.735-15.348 19.94-2.31 2.011-7.397 5.869-9.905 5.821-1.319-.026-2.691-2.04-3.233.484Zm-.186-7.844c.53-1.487 2.068-1.271 3.19-1.889 5.097-2.808 10.325-6.901 14.775-11.539-4.192 6.59-10.912 11.537-17.965 13.428Zm13.306-12.077c-1.696 2.188-5.183 4.311-7.767 6.047 1.659-2.267 5.434-3.768 7.767-6.047Zm-17.441 6.675c-2.488-.345-3.233-1.383-3.58-4.642 4.797.776 8.414-1.705 12.177-4.435 6.927-5.023 15.012-11.971 20.875-19.863.896-1.206.498-1.426 1.475-2.516.877-.975 1.766-2.224 2.66-3.47-6.221 11.1-14.175 20.468-23.564 27.212-2.281 1.64-6.708 4.591-9.792 4.751-.334.017-2.338-.664-2.629-.406-1.457 1.29.45 2.621 2.067 2.699 2.313.113 6.572-1.506 8.497-2.724 14.304-9.057 27.079-29.14 37.752-47.021-.968 4.03-3.802 8.256-6.309 12.692-8.108 14.334-17.581 25.59-28.856 33.331-3.617 2.482-6.311 5.013-10.773 4.392Zm-1.297 2.026c1.322-.074 3.208 1.067 4.279.454.365 1.223-4.237 2.371-4.279-.454Zm18.139-22.253c9.839-9.391 19.776-23.095 27.458-36.343-2.732 7.596-8.551 14.625-13.502 21.727-4.938 7.082-10.311 13.631-15.969 18.602-5.114 4.493-11.398 9.422-18.427 9.371 7.287-1.898 14.357-7.551 20.44-13.357Zm-22.148 9.676c-.189-.72 3.006-1.995 3.279-2.133 8.038-4.078 16.777-9.971 23.433-16.984 8.2-8.641 15.284-20.195 21.34-30.247 4.622-7.673 10.091-16.63 14.355-25.581.281.683.157 1.4-.496 2.875-3.499 7.908-8.675 16.185-13.059 23.555-10.71 18.008-23.526 35.653-38.953 45.747-1.75 1.147-4.47 3.544-7.45 3.664-2.114.086-2.25-.129-2.449-.896Zm11.88-37.04c.966-1.382 3.587-2.272 4.977-3.735.927-.974 1.538-2.816 2.593-4.052 6.763-7.919 14.401-19.838 19.666-29.47 3.407-6.233 6.06-12.767 9.128-18.881 3.916-7.802 7.576-15.415 9.941-24.141.985-3.634 1.772-8.387 1.982-11.496 2.703 3.025-1.703 15.222-3.624 19.783-4.291 10.19-7.825 18.082-12.265 27.456-7.277 15.366-16.195 30.191-26.238 39.845-1.917 1.843-3.614 4.376-6.16 4.691Zm3.178-7.171c2.407-2.242 4.922-4.835 7.325-7.876-2.479 4.445-6.402 9.573-10.653 11.659.226-1.506 1.975-2.521 3.328-3.783Zm5.233-9.752c1.37-1.469 2.489-3.808 4.045-5.742.39-.484 1.422-1.024 1.607-1.357.282-.502.065-1.339.382-1.804 1.386-2.036 2.984-3.599 4.29-5.652 1.187-1.867 2.044-3.801 3.22-5.767.844-1.415 2.072-2.805 2.526-4.631.484.407-.483 2.415-1.009 3.52-5.708 11.976-15.67 24.297-23.772 31.58 1.474-4.379 5.681-6.893 8.711-10.147Zm-5.36-5.849c1.213 1.404 1.573 7.058-.753 8.892-2.296-2.318 1.649-5.574.753-8.892Zm8.946-41.168c-.764-.681-1.877-.938-2.514-1.475-.76-.64-.881-1.565-1.757-2.032-1.806-.96-4.66-.612-6.974-1.44-2.36-.844-8.794-3.805-8.479-6.433-.647-.839-1.275.554-1.828.442-1.105-.224-7.299-6.594-7.942-7.904-1.103-2.249.318-5.398-3.801-5.557-2.555-.099-6.267 3.962-9.493.139-1.291-1.529-.266-3.147-1.619-3.926-1.674-.962-4.541.214-6.663-.77-.986-.456-1.787-1.669-2.981-2.479-3.161-2.143-10.034-4-11.264-7.175-.248-.637.538-3.224.275-3.788-.594-1.268-5.224-3.17-7.638-4.183-4.924-2.064-12.562-3.254-16.616-4.688-.981-.347-1.823-.72-2.36-1.141-.71-.554-1.152-2.34-2.069-2.7-1.84-.721-2.4 1.34-4.593 1.93-.966.26-3.64.052-4.123-.12-1.851-.657-1.451-1.35-.886-3.656.296-1.203.373-3.616.055-4.702-.32-1.084-.984-.876-1.358-1.608-.452-.885.438-2.216-.908-2.831-1.138 1.533.37 4.518-1.504 6.393-.413-.467.696-5.35-.748-5.55-1.042-.146-.558 4.478-1.171 6.237-.434 1.244-1.536 2.384-1.32 2.85.245.531 2.262.359 2.384.317 1.209-.42 2.181-2.072 3.018-4.451.869 1.949-.056 3.451-1.303 5.078-.576.752-.384 1.42-.872 1.625-.777.328-2.865-.421-4.033-.364-1.337.066-2.782.598-3.568.64-4.077.22-6.922-.775-9.344 3.526-1.099 1.95-1.575 3.475-4.242 4.004-3.82.756-7.844.052-12.057.312-6.425.395-13.376 3.704-19.491 6.204-2.973 1.215-6.897 2.972-8.633 4.619-3.283 3.115-3.232 7.626-3.166 12.452-9.11-3.36-10.798-8.473-10.667-16.4.04-2.33 2.165-6.164 2.157-8.933-.012-3.581-1.478-6.277-.719-9.429.833-3.455 4.715-7.296 5.126-11.735.267-2.867-.659-6.264.285-9.895 2.437-9.356 10.736-12.475 17.501-14.43 1.664-.482 3.613-1.31 4.66-1.352 2.93-.116 4.868 1.294 7.242.705 1.641-.407 2.723-1.926 4.284-2.6 1.503-.648 3.817-.736 6.063-1.392 7.302-2.133 16.051-4.56 26.165-.152.715.311 1.508 1.29 2.271 1.386.844.105 1.665-1.048 3.59-1.465 1.229-.265 2.63.373 3.789.275.967-.081 1.846-1.098 2.832-.909.562.109.887.812 1.38.783.925-.054 1.64-1.096 2.588-.998.822.085 1.306 1.037 2.025 1.296 1.153.416 2.791-.175 4.123.12 3.83.847 6.214 3.42 8.683 5.12-3.247-1.268-9.918-4.759-13.344-3.77 3.52.15 11.34 4.397 14.587 6.447 2.584 1.63 1.614-1.088-.198-1.74 1.13-.163 4.57 2.735 5.503.902-6.832-1.579-11.124-9.237-18.26-7.789.753-1.055 3.795-.597 5.616-.17 2.496.59 5.318 2.643 7.171 3.18.374.108 1.135-.293 1.493-.287 1.215.018 2.518.834 3.764 1.099 2.506.533 5.067.907 7.398 1.038 3.154.178 6.296-1.557 9.518-.963.546.102.679.793 1.291 1.028 1 .385 1.554-.387 1.983-.108.562.366.756 1.627 1.266 1.853.758.333 2.441-.73 4.19.699.652.532.566 1.758 1.177 2.097.147.081 1.545-.239 1.738-.198 2.073.44 4.768 2.276 6.615 2.42.624.047 1.397-.674 1.919-.688 2.552-.073 6.771 1.234 8.752 2.646.272.193.615 1.018.957 1.183.671.325 1.381-.007 2.139.228 3.331 1.03 7.292 4.4 9.883 6.39.924.71 1.66 1.697 2.492 2.302.459.333 1.334.264 1.715.627.382.363-.147.97.287 1.493.238.29 1.38.48 1.869.962 1.921 1.892 1.335 4.203 2.511 4.53 1.194.33 1.829-1.822 3.992-1.04.96.346.8 1.093 1.601 1.696.51.384 1.327.386 1.96.717 4.748 2.486 8.528 7.931 11.209 11.877 1.227 1.804 2.084 2.295 4.183 3.751.057.04.724.746.801.849.801 1.068-.089 2.055.485 3.233.248.511 1.451.753 1.78 1.206.631.87.069 1.879.329 2.898.134.524.672.929.867 1.428 1.26 3.219 1 7.375-.824 11.365.846 1.396 1.558-.752 2.139.226-.367 5.317.72 12.37-4.372 14.233-.438.16-2.198-.144-2.563.173-.679.592-1.282 5.386-1.261 6.484.007.298.746.623.801.848.07.288-.12 4.489-.836 6.083-1.655 3.68-6.71 7.919-11.31 5.862-1.962-.877-2.974-3.459-4.805-5.09Zm-3.941 22.168c-1.336 1.919-3.04 3.294-4.534 5.564-1.207-2.062-1.962-4.828-3.395-8.187-.999-2.339-3.389-6.551-3.15-8.096.091-.577.806-.244 1.273-1.2.863-1.768.139-3.324 1.368-4.5 1.103-1.055 4.949-1.051 6.172.591.441.592-.17 1.934.083 2.808.343 1.175 1.479 1.362 1.578 2.521 1.327-.608 1.353-3.788.969-4.923 4.508-.163-2.631-6.283-3.646-5.222-.866.906.549 1.278 1.266 1.852-4.185-.985-8.003-1.175-9.589 3.437-4.441-5.29 5.682-10.247 11.066-5.951.815.65 1.566 2.146 2.468 3.124.967 1.05 2.597 2.178 2.892 2.724 2.111 3.906-2.37 11.939-4.821 15.458Zm-16.206-21.76c-.807-1.524.841-3.91 1.726-5.479.683 1.328-1.445 3.389-1.726 5.479Zm-6.202-8.102c-1.341 2.743.608 5.754-1.775 7.129-.941-3.028-.481-7.764.734-11.119 1.457 1.086 2.818 2.215 2.69 4.039-.158 1.083-.991-.692-1.649-.049Zm-13.84-12.283c1.73-1.872 1.841 3.679 1.595 4.751-.907-1.298-2.669-3.588-1.595-4.751Zm-6.173-.59c2.651.194 4.555 2.493 5.074 4.356-1.898-.545-3.21-3.118-5.074-4.356Zm-19.898-13.945c1.601.749 2.079 2.019 3.718 2.749-1.766 2.723-4.494-.337-3.718-2.749Zm-8.652-8.996c2.312.623 5.985 2.371 6.053 4.713-2.933-1.146-3.875-3.216-6.053-4.713Zm.108 1.983c-1.191.835-2.029-.778-2.516-1.476.576-.187 1.793 1.057 2.516 1.476Zm6.437 14.298c-4.495-.818-8.213-7.583-13.696-5.842.044-.466 2.431-2.536 1.254-3.43-.914-.696-4.644 4.899-5.425 4.959-1.042.082-2.461-1.841-3.561-2.413-2.818-1.467-4.52-1.585-6.662-.77-.303-1.751 1.845-3.553.789-4.434-.947-.789-2.143 2.47-2.995 3.627.402-3.584-2.156-1.959-2.341 1.088-.754-.396.385-1.671-1.021-1.762-2.127.598-.662 3.173-1.123 4.588-.165.502-1.715 2.537-2.056 2.582-1.693.223-1.714-1.365-2.558-2.881-.352-.631-1.108-.991-1.201-1.271-.663-2.002-.432-5.401.37-7.087.285-.599 1.35-1.163 1.697-1.601.994-1.254 1.34-2.984 2.079-3.406 2.491-1.426 4.418 1.669 7.619 1.952 1.775.157 2.789-1.755 4.438-2.265 3.145-.97 10.189.937 13.187 3.435 1.076.895.782 2.643 2.134 3.28 1.116.527 1.651-.346 2.318-.263 3.091.386 5.206 2.179 6.078 3.889.528 1.037-.211 2.435.304 3.723.636 1.584 2.922 2.003 4.003 4.241-1.359-.713-2.254.312-3.631.061Zm-13.613-3.035c.95-.728 2.666.193 4.189.7-1.117.365-2.779-.441-4.189-.7Zm-28.594 12.873c-1.57-3.143 1.705-6.455 3.338-9.889l.981.358c-.608 3.253-2.668 7.077-4.319 9.531Zm-48.352-17.406c.15-.857 2.038-1.734 3.346-1.554-.912.956-2.165 1.176-3.346 1.554Zm16.939-.748c.853.685 2.008 2.991 1.954 3.769-.043.652-1.106 1.658-1.32 2.85-.282 1.58 1.452 3.451-1.099 3.765.552-.104 1.064-6.471-.389-6.53-1.618-.067-.211 5.777-2.084 6.459-1.043.379-3.408-.76-3.674-1.344-.32-.696 1.206-1.348.315-2.385-2.244-.107-1.666 3.151-4.504 1.686.452-1.799 1.675-1.94 2.168-3.651-3.454-1.161-3.517 4.983-6.649 4.511-.396-1.828 3.206-2.291 2.502-3.806-.898-1.934-2.659 1.673-4.038 2.689-.542.4-1.38-.29-2.009.933-.57 1.113.182 2.044-.16 2.718-.357.705-1.82 1.161-2.277 1.668-1.648 1.832-2.11 4.174-3.13 5.521-1.975-1.993-1.873-6.329.084-8.581 1.764-2.031 3.12-4.551 5.293-6.118 1.241-.896 2.878-.667 4.66-1.351 3.737-1.435 8.877-7.209 14.357-2.803Zm-3.135 19.962c-.14-1.461-.382-3.843.477-5.103.991 1.035.671 3.754-.477 5.103Zm3.065-6.1c.64 1.716 1.224 5.465-.615 6.996-1.281-.513-.101-1.286-.018-2.228.175-1.972-.723-3.89.633-4.768Zm2.416 19.215c-3.683 1.943-2.473-4.003 0 0Zm-2.056 2.582c-.992 2.081-4.507 1.731-5.527-.079 1.927 1.87 3.229-.313 5.527.079Zm-6.209-5.049c.876-.194 1.484 1.474 1.333 2.431-.926-.586-.81-1.656-1.333-2.431Zm8.101-6.203c1.065.673 1.365 1.744 2.182 1.631 2.738-.376 1.78-5.883 2.044-7.863 1.842.289-.424 5.637.388 6.53 1.055 1.159 1.774-1.557 1.989-3.161.989 1.305-.218 3.627-.321 5.438.404.877.93-.218 1.649.048.013 3.624-1.606 7.695-2.604 10.157-.411 1.013-2.787.876-3.502 1.22-5.599 2.692-11.695 17.309-8.022 23.452.633 1.06 1.889 1.698 1.912 2.366.007.191-1.826 5.822-1.995 6.214-1.553 3.592-5.908 6.281-7.193 9.035-.502-2.953-2.408-4.974-3.149-8.096-.316-1.329-.11-3.491-.593-5.216-.243-.866-.39-3.356-.95-4.236-1.103-1.733-3.74-2.375-4.918-4.021-3.449-4.826-2.08-12.975 1.42-20.59.865 1.246 4.077 1.267 3.322-.73-.393-1.038-2.408-1.02-2.76-1.565-.986-1.528.3-2.728-.036-4.457-.424-2.179-5.687-7.2-5.355-8.902.059-.298 1.825-1.312 1.942-1.511.711-1.212.652-2.751.83-3.03.515-.809 4.212-4.118 5.425-4.961 1.182-.821 2.959-1.291 4.326-1.195-.767.686-2.415 1.505-1.722 2.426 1.03 1.368 2.044-1.12 3.658-.884.907.132 3.963 3.319 4.72 2.282.635-.869-.996-1.799-1.422-2.186.516-.357 2.188.461 2.45.896-1.136 2.365.478 6.515-2.754 6.769-.162-1.419 1.922-4.57.388-4.857-.534-.1-2.924 4.619-1.368 4.498.364.671-1.074 1.167-1.762 1.023.595-.865 1.368-7.98-.706-4.147-.676 1.251-.617 4.853-1.082 5.993-1.249 3.077-4.427 5.431-3.96 8.551.007.041.736.861.711 1.092-.253 2.404-2.237 3.647-.877 4.68 1.745 1.325 3.583-5.007 5.18-5.049.638 2.434 1.059 5.482 3.686 6.626 1.081.469 2.413-.704 3.364.674-.588 1.255-5.755-1.321-6.439.144-.635 1.353 3.66 2.126 5.298 2.216 4.434.245 8.85-3.307 2.792-2.313-.116-1.466 1.173-.374 2.341-1.087 1.596-.974 2.774-3.353 3.572-3.693.681-.289 2.803.826 3.233-.484.571-1.739-1.575-1.336-2.826-2.145-1.342-.867-2.404-2.668-3.783-3.327-5.501-2.633-10.383-.281-14.423 2.224 3.142-7.335 7.78-11.492 15.7-6.479Zm-1.549 42.207c-.746.727-1.704 1.002-2.52 1.578-.343-1.875 1.409-3.649 2.52-1.578Zm-26.545-58.039c-.513-3.22 2.777-5.243 4.714-6.052-.624 2.31-3.2 4.202-4.714 6.052Zm58.517-80.255c-.118 1.072-1.845 2.441-2.969 2.803.693-1.575 1.8-2.254 2.969-2.803Zm8.425-.251c-2.52 1.725-5.241 6.812-8.885 7.582 2.552-3.41 5.851-5.212 8.885-7.582Zm-4.785 8.526c2.228-4.107 6.899-6.748 10.426-9.52-2.149 2.438-7.518 7.187-10.426 9.52Zm6.333-2.128c1.998-3.143 5.995-5.775 9.218-7.739-1.571 2.328-6.496 4.975-9.218 7.74Zm13.472-6.46c-3.505 2.53-7.524 5.08-11.023 7.356 4.306-4.013 9.18-6.804 13.749-10.248-.58 1.042-1.721 2.168-2.726 2.891Zm12.77.781c-1.293 1.208-2.952 2.788-4.821 4.07-1.681 1.151-3.753 2.41-5.532 2.977 3.233-2.819 6.76-5.001 10.353-7.047Zm.674-3.363c.45.063.393.36.312.669-4.609 1.357-8.417 4.871-12.607 7.889-1.366.983-1.804 1.613-3.747 1.129 4.832-4.339 10.255-7.406 16.042-9.687Zm2.947 9.41c-1.535 1.075-2.927 2.456-4.552 3.334.547-1.456 2.954-2.683 4.552-3.334Zm16.054-4.405c.133 1.1-1.234.697-1.761 1.022-3.041 1.879-6.246 4.616-9.53 7.07-1.151.858-3.061 2.015-4.661 1.35 5.066-3.69 10.35-6.909 15.952-9.442Zm-4.767-.632c-.93 1.799-4.131 2.487-5.891 3.955.037-.817 1.062-1.303.316-2.384 2.051-.108 3.6-1.297 5.575-1.571Zm16.981.655c-.148 1.01-2.55 1.465-4.105 2.11-4.482 1.855-9.03 6.064-13.987 7.105 5.466-4.285 11.298-7.787 18.092-9.215Zm-12.321 9.38c2.462-1.707 5.961-4.973 9.572-5.664-3.159 1.956-6.38 3.78-9.572 5.665Zm14.43-5.276c-.137 1.038-1.35.77-2.097 1.177-2.254 1.232-4.79 3.985-7.163 5.158-.598.295-1.6.792-2.228.017 3.405-3.03 7.293-5.022 11.488-6.351Zm2.492 2.3c-3.944 1.142-7.025 4.144-10.731 5.797 2.424-2.678 6.856-4.785 10.419-6.465.45.061.393.36.312.668Zm9.805.53c-1.004.795-2.504.563-3.902.797-3.957.66-8.07 2.41-11.597 4.368 3.686-3.16 9.134-6.316 15.499-5.164Zm-14.076 7.352c1.461-1.819 5.148-2.632 7.539-3.909-1.641 1.433-5.065 2.813-7.539 3.909Zm6.931.035c-1.431.816-2.987 2.562-5.331 1.662 4.1-2.122 8.277-4.076 12.936-4.99-1.861 1.423-4.982 1.83-7.605 3.328Zm17.428-.57c-3.238.89-6.737 1.564-9.679 3.682-.802.578-1.354 1.149-2.898.33 3.58-2.656 7.692-4.165 12.577-4.012Zm.52 7.69c-.088.002-.176.001-.266.001-.714.273-2.663 1.367-3.3.639.886-.675 2.103-.635 3.3-.639.186-.07.293-.088.266 0Zm1.882-5.144c-3.517 1.184-7.308 1.778-10.814 2.989 3.029-2.236 6.47-3.586 10.814-2.99Zm2.844 4.374c-1.168.546-2.701.313-3.9.795.273-.738 2.535-.957 3.9-.795Zm5.587 3.71c.174.715-2.006 1.003-3.255 1.308-1.422.348-2.99.74-4.146.706 1.181-1.729 5.197-1.04 7.401-2.014Zm-4.241 4.003c1.649-1.27 4.024-.97 6.064-1.393-.863 1.022-4.394 2.074-6.064 1.393Zm10.45 1.044c-2.323.983-5.164.85-7.713 1.346 2.237-1.167 4.747-1.75 7.713-1.346Zm-5.801 3.711c.483-1.658 3.901-.6 5.485-1.327-.799.913-3.524 1.457-5.485 1.327Zm8.868 1.578c-1.569.127-3.104.321-4.793.19 1.394-.502 2.882-.8 4.793-.19Zm12.476 13.729c.585.541.302 1.487.263 2.318-1.021-.604-1.51-1.723-.263-2.318Zm4.739 4.51c.785.516.856 1.365.507 2.408-.879-.472-1.186-1.21-.507-2.408Zm4.346 12.422c-1.463-1.762.061-4.91.213-7.421 1.157 1.903-.018 4.889-.213 7.421Zm2.742-.664c-.27 3.194-.963 7.88-1.738 11.586-.148.261-.295.046-.244-.09-1.353-3.981 1.663-9.992 1.742-14.639 1.014.44.333 2.043.24 3.143Zm-6.313 27.133c.429.728-.114 2.131-.742 2.785.279-.958-.258-2.726.742-2.785Zm-14.231 29.793c-.153-1.493 1.867-6.228 2.868-7.839.255 2.152-2.203 4.874-2.868 7.839Zm-6.534 14.83c-1.206 3.684-4.649 6.337-6.949 9.125-.285-.173-.068-.577.179-.49 2.053-3.319 4.491-5.806 6.77-8.635Zm6.17-22.184c.379 1.59-1.174 4.917-2.084 6.458-.468-1.675 1.86-4.875 2.084-6.458Zm23.782-49.076c-2.648 30.121-19.399 66.374-37.001 86.737-.991-3.711 2.822-5.646 4.851-7.947 1.842-2.09 3.287-5.045 5.095-7.859 9.398-14.623 21.201-40.453 24.378-58.3.834-4.678 1.19-9.283 2.032-13.145.421.076.336.386.645.514Zm.557 12.148c.1-2.76.948-6.948 1.086-9.047.494 2.618-.021 5.704-1.086 9.047Zm3.907-3.849c-1.851 14.99-7.422 28.889-14.163 41.761 1.802-6.431 4.626-12.277 6.964-18.285 3.033-7.788 4.418-15.612 6.553-23.99.421.076.337.386.646.514Zm2.78 15.182c-1.6 9.021-5.755 17.287-8.984 25.324-8.587 21.36-19.261 41.354-32.553 55.588-.828.887-2.603 2.992-3.996 4.093-.606.477-3.623 2.86-4.351 2.02-1.358-1.57 2.398-4.886 3.556-5.922 4.874-4.369 10.875-11.094 14.761-16.821 5.808-8.554 11.374-17.625 16.412-28.162.789-1.651.767-3.448 1.636-5.234 1.09-2.243 2.542-4.49 3.667-6.991 2.121-4.707 4.492-10.006 6.805-15.565 1.208-2.906 2.015-5.672 3.047-8.33Zm2.606 1.232c-2.456 16.782-11.208 32.078-18.52 46.833-4.224 8.524-9.511 16.276-14.684 22.682 13.563-18.888 25.912-45.991 32.802-69.94.299.064.415.213.402.425Zm-43.448 89.933c1.874-1.363 2.657-3.634 4.689-5.229-4.515 6.19-10.682 12.616-17.212 15.925.257-1.177.242-3.828 1.457-4.744.468-.352.599.253 1.314.202 2.821-.2 5.825-3.852 8.592-6.022.264-.208.96.012 1.16-.132Zm-5.055-2.127c-1.199.984-2.716 2.503-4.351 2.02 1.036-1.786 3.177-1.873 4.709-3 5.773-4.245 9.97-10.801 14.851-17.066-3.577 7.329-9.668 13.485-15.209 18.046Zm-9.536 21.51c-.74 1.04-3.079 2.415-4.862 2.666 1.448-1.258 3.242-1.776 4.862-2.666Zm26.768-23.817c-5.423 8.908-13.344 16.229-21.324 21.087 6.696-6.164 15.035-12.584 21.324-21.087Zm-27.944 21.72c1.062-3.718 4.05-4.191 6.607-5.916 3.131-2.11 5.959-4.581 8.885-7.582 9.552-9.8 19.25-21.131 27.254-35.029-10.973 21.186-26.057 39.652-42.746 48.527Zm59.955-98.616c.225.031.196.18.156.335-.83 6.531-5.402 16.592-9.14 24.988-7.904 17.755-18.437 34.068-29.147 46.279 8.348-11.43 17.281-24.441 24.655-39.312 2.493-5.027 5.391-10.201 7.383-15.631 1.639-4.467 3.85-11.684 6.093-16.659Zm-.117 15.511c.885 2.193-.897 3.957-1.996 6.214-4.057 8.332-8.511 18.962-13.531 25.605 5.806-10.738 10.941-21.253 15.527-31.819Zm-4.422 4.493c-.021 1.257-1.244 3.325-2.127 5.055-.134-1.884 1.115-3.401 2.127-5.055Zm3.628 2.994c1.201 3.409-2.522 6.847-3.919 9.954.755-2.662 3.236-7.056 3.919-9.954Zm-3.578 18.134c-.349 2.254-.996 5.078-2.575 6.28.229-1.666 2.17-4.892 2.575-6.28Zm-10.364 24.54c1.939-4.585 5.179-10.159 7.694-14.962-.59 5.215-5.163 9.942-7.694 14.962Zm-8.948 29.781c-6.418 10.457-11.867 19.681-20.241 26.483-2.033 1.652-8.881 6.328-10.682 4.147-.586-.708 4.877-2.027 5.599-2.396 12.155-6.199 20.315-23.248 29.751-35.782.268 2.694-2.804 4.904-4.427 7.548Zm-.322 5.437c.118-1.801 1.913-3.761 2.64-5.701.439 2.303-1.773 3.644-2.64 5.701Zm.753 2.498c.366 1.414-.639 2.08-1.41 3.095-.372-1.113.882-2.463 1.41-3.095Zm-9.856 26.948c-1.496 3.241-5.007 7.96-8.22 10.326-1.69 1.243-6.108 4.114-7.111.454 6.62-.344 10.502-6.581 15.331-10.78Zm-18.754 6.473c1.461-.647 2.854-1.444 4.504-1.686-1.267 1.066-2.696 1.784-4.504 1.686Zm13.85-5.212c-2.679 3.287-6.564 7.765-11.604 7.422 3.995-2.199 8.265-3.807 11.604-7.422Zm4.091 3.997c-2.482 4.434-6.66 9.013-11.429 9.985 1.057-1.432 3.284-1.671 4.953-2.911 2.426-1.798 4.435-4.576 6.476-7.074Zm-3.457 14.011c2.283-1.485 3.756-4.353 5.718-6.519-1.497 4.08-5.205 7.185-8.819 8.163.296-1.334 2.031-.948 3.101-1.644Zm34.557 40.693c.132-1.095.896-2.05 1.076-2.94.465-2.313.036-5.782-.857-7.534-.155-.307-2.384-2.073-2.312-2.79.068-.688 3.265-2.522 3.973-3.269 4.777-5.044 5.943-14.131 3.846-18.87-1.607-3.63-5.403-5.655-8.228-9.397-3.01-3.986-9.072-10.261-15.894-9.703-1.636.135-5.667 2.407-6.645 1.459-.855-.83.971-10.393 1.248-11.764 2.431-12.031 4.911-23.77 8.511-34.662 7.125-21.57 17.446-48.062 19.633-71.147.328-3.453 1.164-6.936 1.201-10.116.27-23.374-7.882-41.863-23.249-57.943-1.578-1.653-3.732-2.849-5.318-4.445-5.894-5.93-10.185-12.592-14.874-19.328-1.839-2.641-3.269-4.98-5.492-7.008-2.385-2.176-5.871-3.248-8.413-5.854-.209-.216-.575-1.78-.932-2.008-.858-.55-2.374-.293-2.874-.496-4.158-1.688-8.109-5.583-11.598-7.019-2.128-.876-3.983-2.381-6.012-3.31-15.574-7.133-29.461-7.67-43.976-8.862-9.989-.82-21.226-.125-28.889 3.043-2.756 1.14-5.814 3.555-8.233 5.044-1 .616-2.214.855-3.011 1.399-.636.434-1.011 1.372-1.698 1.6-1.041.35-2.389-.229-3.542-.183-4.166.16-7.925 1.262-11.705 2.384-2.323.69-4.898 1.014-6.399 1.548-1.875.667-3.437 2.637-5.443 2.731-2.434.116-4.054-1.008-6.084-.836-1.321.113-3.291.774-4.904 1.261-4.637 1.401-10.83 4.105-13.987 7.106-2.26 2.15-4.237 5.758-4.965 9.017-.866 3.885.406 8.158-.757 11.944-1.068 3.476-4.383 6.805-4.834 10.176-.434 3.261.921 6.077.808 9.184-.063 1.773-1.054 3.033-1.546 4.989-1.902 7.56.185 19.402 8.647 23.44 1.09.519 3.213.227 4.256 1.277.526.531.806 3.48 1.35 4.661 1.429 3.1 4.448 6.191 5.11 8.812.539 2.137.84 5.543.275 7.601-2.06 7.491-4.352 14.397-.506 20.368 1.123 1.744 2.97 2.022 4.494 4.422 1.263 1.99 1.582 6.028 2.546 8.986.084.259 1.783 2.066 1.374 3.836-.087.374-.933-.079-1.338.62-.117.203-.163 3.707-.299 4.614-.189 1.257.971.95.533 1.583-.511.734-4.056.507-5.127.347-.732-.109-2.547-1.453-3.209-.34-.52.874 2.345 2.323 3.471 2.659 1.982.588 3.323.808 5.438.322 7.929-1.822 11.691-18.668 20.158-17.904.48.044 2.023.905 2.695.986 1.016.124 2.263-1.626 3.233-.485.682.804-.629 3.144-1.411 3.096 1.94-.214.175 1.941 2.248 2.211 1.365-.692-.186-2.904 1.409-3.095 1.236.917-.847 3.375 1.04 3.991 1.451-.832.434-2.519 1.344-3.675.775-.983 3.274-.157 3.281-2.133-1.007-.829-1.985.659-2.385-.317 3.063-3.189 8.242 1.14 10.714 3.363 1.064-1.182-1.12-1.907-.264-2.319 1.657.53 2.476 3.382 3.896 2.258.887-.699-3.167-5.179-5.185-3.285-.969-1.174-1.718-2.255-3.138-2.814-4.642-1.825-7.039 1.159-10.522 1.429-.968.075-2.377.062-3.543-.185-12.659-2.67-13.344-11.78-8.05-21.276.961-1.724 2.988-4.218 4.355-5.073 1.543-.965 3.928-.839 4.774-2.421 4.466-8.373 3.702-19.36-3.678-24.12-2.313 2.477.199 6.285-1.665 9.112-.666-.947 1.105-9.518-.629-9.674-1.737-.156.225 8.782-1.642 8.288-.287-.076-.515-9.219-.473-9.339.59-1.744 1.486-.152 2.145-2.826.251-1.019-.536-2.349-.484-3.233.034-.599.765-1.04.872-1.625.396-2.18-1.759-6.164-3.419-7.361 4.82-1.388 10.42-3.021 15.696-3.426 1.434-.109 3.307.866 4.236-.951-.773-.482-1.941.124-2.295-.56-.08-.156 2.102-3.787 2.683-4.296 2.33-2.04 16.392-3.572 20.064-3.217 1.672.161 3.1 1.005 4.345 1.034 2.669.06 2.586-1.21 5.192.231 2.896 1.604.747 1.152-.449 1.226-1.695.105-4.312 2.239-5.263 2.24-1.334.003-3.433-1.292-3.741-1.922 1.241-.538 3.374.842 4.302-.371-2.562-2.225-5.239-1.025-7.977-.973-5.132.096-10.37.565-14.023 2.648 4.806.861 8.025-1.699 12.661-1.203-3.787 3.386-6.857 9.74-5.286 14.454.8 2.403 2.662 3.794 2.486 5.353-.305 2.692-3.757 5.326-4.451 8.372-.148.654.377 1.461.263 2.318-.457 3.451-2.641 6.665.814 6.131-.223 1.053-.529 2.144.752 2.497 1.286-.275.354-1.555.986-2.694 1.58.96 1.144 2.857 2.444 3.949 1.029-1.009.626-2.318 1.01-3.519 1.172-3.686 3.743-5.74 5.92-7.835-.526-1.376-2.032.329-2.294-.561.579-3.061 3.734-6.83 3.673-10.045-1.835.297-2.034 2.933-2.861 4.786-1.895 4.248-2.845 7.908-5.322 9.999-.033-1.373.908-3.288 1.767-4.076-.111-.856-1.371-.554-1.445-1.362-.153-1.668 4.097-8.47 5.723-9.573.904-.613 4.323-.991 4.547-.281.178.565-.818 1.669-1.142 2.36-1.055 2.253-3.178 5.795-2.353 7.194 1.162-2.116 4.184-5.439 4.45-8.371.053-.57-.574-1.356-.442-1.829.045-.163 1.733-2.636 1.811-2.67 2.659-1.224 4.482 2.822 6.99 3.668 2.291.772 2.701-.839 5.061-.927-1.055 1.433 4.974 3.298 6.011 3.309 1.165.012 1.76-1.137 2.588-.998 1.201.202 2.21 1.534 3.161 1.99 3.719 1.785 7.248 1.725 9.339-.473 1.078-1.135.652-2.098 1.63-2.181 1.692-.142 5.615 5.733 7.392 4.092-1.407-2.193-5.144-3.305-6.609-5.473 2.85.548 4.61 3.268 6.967 4.493 2.421 1.259 5.704.884 7.081 3.423-3.025-.577-5.42-2.417-7.553-1.373 2.126.781 3.668 2.381 5.653 4.288 1.296 1.248 4.291 3.309 4.56 5.002.221 1.401-.787 4.175-.992 5.747-1.814 13.977 3.425 22.263 10.884 31.757 1.337-4.042-2.068-6.218-3.951-8.945-3.605-5.222-6.069-13.89-5.242-21.359.181-1.625.358-4.98.902-5.503.818-.787 6.233 1.541 5.019-2.331 2.235 1.673 2.869 4.09 5.115 5.759.963-3.758-5.568-6.285-5.821-9.905 1.813 2.383 5.988 4.702 6.627 7.7.276 1.295-.49 2.642-.608 3.944-.184 1.978-.188 5.242.185 7.845.33 2.296.939 5.723 2.104 7.158.435.535 1.005-.117 1.56.292.437.323.698 2.302 1.063 3.167 1.483 3.508 2.767 6.037 5.444 8.657-1.149-5.025-4.397-9.075-5.367-14.184 1.122 1.444.771 3.574 2.421 4.774.459-4.76-3.055-10.509-1.442-15.804.434 2.984-.583 6.643 1.811 8.718.979.043.14-1.782.872-1.626.898 1.414.187 3.574 1.931 4.595.826-2.282-.791-3.429-.167-5.617 2.688 4.123 2.107 8.971 3.742 13.313 2.963 7.872 8.448 14.822 7.798 24.239-1.023-1.355-.1-3.614-1.595-4.75-.135 4.13.941 7.698-.692 12.523-.666-.114-1.793-1.664-2.294-.561-1.151.483.667 1.306.353 2.074-2.297.255-1.304 2.939-1.703 4.655-2.096-1.015-2.315 1.717-2.324 3.316-.012 2.07 1.05 4.818.969 6.464-.123 2.441.016 1.71.728 3.323 1.307 2.954.281 8.864-1.049 13.503-2.922 10.193-8.319 16.119-14.369 20.298 4.214-8.576 2.757-15.904 2.83-23.685.028-2.886.255-5.787.329-8.49.073-2.768 1.08-5.946-.587-8.269-3.405 12.387 1.172 24.783-3.301 37.123.597-2.076.672-3.596.836-6.083.065-.984.731-5.59-1.171-5.151-.789.182-.822 4.366-.902 5.504-.156 2.221.095 3.861-.747 5.838-.581-.816.276-2.298-1.242-2.678-.636 1.747-1.682 5.372-.614 6.997.586-1.937 3.628-1.232 3.786.275.119 1.12-2.493 3.689-2.884 5.611-.503 2.459-1.201 5.484-2.467 8.263-2.869 6.296-8.047 13.386-13.095 19.098-6.834 7.73-14.238 13.052-23.004 13.529 4.978-7.563 8.814-17.514 9.164-25.812.121-2.884.854-6.509-1.411-8.293-.604 5.114.217 10.968-1.57 17.202-1.82 6.349-4.924 10.119-7.539 15.297-1.327 2.626-2.236 5.576-3.512 7.326-1.036 1.415-2.889 3.016-4.088 4.337-3.558 3.928-7.7 8.268-11.895 8.982.891-7.367 2.168-17.52 5.841-25.083.699-1.439 2.644-2.514 1.859-4.32-2.961 2.159-4.229 5.417-5.634 9.326-.933 2.599-.769 5.979-2.466 8.264-.418.561-1.648.451-2.098 1.178-1.19 1.923-.207 5.512-1.307 8.132-.741 1.76-1.977 1.935-2.015 3.985 2.492.399 3.051-3.36 4.446-5.317-.358 1.697.226 4.176-.657 5.591-1.073 1.723-5.725 2.324-6.781 3.353-.32.312-.188 1.516-.382 1.804-1.048 1.559-5.288 2.815-7.696 3.575-8.03 2.534-16.224.442-25.428.421-9.879-.024-17.405 1.528-23.728 7.153 5.866-1.175 11.032-4.283 17.548-4.691 11.228-.704 22.687 2.133 32.63-1.121 2.935-.96 7.796-2.509 8.789-4.285.289-.516.005-1.756.138-1.894.877-.921 4.144-1.64 5.932-2.552 2.515-1.282 4.554-1.851 6.023-2.796 7.263-4.678 11.672-14.681 18.753-17.862 1.266-.568 2.804-.281 4.147-.705 7.169-2.263 12.833-8.383 17.81-13.762 5.484-5.928 10.946-13.565 14.237-21.458 1.205-2.893 2.051-7.681 4.122-11.269 2.485-4.305 3.706-.783 4.164 1.523.922 4.642 3.626 8.773 4.525 11.932.07.244-.079 1.58-.049 1.648.25.561 1.245 1.183 1.602 1.697 1.498 2.154 1.944 4.348 3.197 6.447.938 1.572 5.144 6.431 4.376 8.544-.498 1.366-2.642 1.262-3.861 2.2-.895.687-2.864 2.856-3.285 5.186-.232 1.284 1.654 4.276 1.237 5.729-.18.623-1.794 1.829-2.3 2.492-1.761 2.311-2.963 5.266-2.957 8.085.003 1.583 1.524 3.371 1.262 4.906-.137.791-1.111 1.658-1.297 2.026-2.743 5.395 1.027 11.215 4.632 13.914.183.137 2.093.826 2.27 1.386.537 1.705-1.27 2.961-1.277 4.255-.021 4.012 6.205 8.919 11.168 10.472 2.25.706 5.888.737 7.665.305 1.808-.44 4.605-3.647 6.537-3.442 1.08.114 2.324 1.368 3.25 1.744 4.837 1.96 11.844 3.333 16.689 2.215 3.123-.72 8.654-3.274 10.33-6.221 1.297-2.283-.077-3.137.143-4.947Z" fill="#E30611"/><path fill-rule="evenodd" clip-rule="evenodd" d="M265.408 89.245c1.081 1.398 3.895 3.07 5.342 3.62-1.497-.97-2.966-2.524-5.342-3.62Zm-2.233 25.849c-2.261.013-3.065-3.26-2.51-4.53 1.142 1.435 1.678 3.152 3.424 4.308.193-2.531-1.854-4.021-3.131-5.867.039 1.337-1.557 1.18-1.518 1.111-1.205 2.193 1.938 8.668 3.735 4.978ZM139.048 229.681c-1.548-.021-.126 3.596-1.057 5.168.163-2.651-.793-4.782-1.948-6.823 4.137.839 8.979-2.88 9.398 3.16-.893-.197-1.001-2.313-2.067-2.701-.591-.215-2.521.314-2.831.91-.521.997 2.926 9.045-1.314 11.185 1.453-2.734 1.771-10.872-.181-10.899Zm-11.003 20.973c3.483.271 6.11-5.736 8.68-6.268.615-.128 1.074.533 1.56.292.666-.33 2.586-2.045 3.304-2.958.401-.512.305-1.253.873-1.624.867-.569 2.903-.079 3.142-.24 1.924-1.296 2.693-4.862 3.578-6.746 3.928.485.059-7.096.483-8.156.451-1.128 4.489-2.614 6.202-3.287 6.974-2.744 14.084-4.666 17.852-12.358-3.152 1.363-5.326 4.233-8.256 5.868-2.945 1.643-6.09 2.709-9.344 3.526 1.035-1.565 3.03-1.064 3.882-3.023-3.544-.48-5.945 1.503-8.585 2.97.65 1.081 1.816.346 2.784.741-3.019 1.673-6.71 4.235-9.703 4.506 1.293-1.067 3.948-1.346 4.063-3.514-2.733.431-7.584 2.771-10.904 3.234-1.908.265-4.126-.12-3.68 1.709-5.906-.692-8.952-7.262-10.099-10.36-.334-.9-.316-3.624-1.889-3.191-2.346.648.999 6.568 1.279 7.135a23.275 23.275 0 0 0 1.888 3.19c.616.879 1.911 2.192 2.223 3.035.928 2.504-.428 7.335-2.669 9.579 1.44-3.652 2.738-7.238.262-9.071-.839 2.103-.382 5.217-1.798 7.953-.731 1.415-2.353 2.131-2.169 3.651 1.813.544 2.48-1.378 3.616-2.289-.114 3.059-1.081 3.606-2.845 7.015-1.243 2.404-3.591 8.034-2.065 8.689 1.123.482 2.333-5.275 2.997-6.682 1.574-3.324 5.024-6.179 6.501-7.899 2.261-2.634 1.951-7.063 2.066-8.687 1.364 1.656 1.995 2.064 1.954 3.77-.064 2.664-4.762 7.586-4.36 8.126 1.352 1.815 7.392-5.258 6.409-7.655 1.134 2.308-.096 6.797-2.376 8.019-.324.174-1.174-.568-1.47-.538-.867.09-5.885 3.285-6.984 4.667-.524.659-2.365 3.399-.544 4.524 1.202-2.423 4.158-5.497 6.273-5.76.341.779-3.588 3.456-2.036 4.809.733.639 1.707-.818 1.672-.777 1.342-1.59 3.509-5.904 4.714-6.053-.504.062 1.534 1.039 1.537 1.118.018.627-2.251 2.627-3.24 3.537-2.025 1.866-3.76 2.584-4.778 5.473Zm23.304-103.967c-.961 3.701-1.636 7.268-2.628 10.983 2.581-.115 1.663-4.92 3.154-6.346.371 1.726-.95 4.238.837 5.306.474-3.949 1.357-8.087.579-11.455-.558.257-.72 1.367-1.051 2.115-.304-.197-.341-.519-.891-.603Zm9.815 31.644c-1.675-.302-4.41-2.27-4.362-3.262.12-2.471 4.276 1.721 4.362 3.262Zm-.395-3.477c-.504-.18-2.381-1.466-1.732-2.857.804.847 1.056 1.949 1.732 2.857Zm-9.857 4.171c.511.578 1.68-.411 2.897-.33 1.924.131 4.877 1.686 6.459 2.085 3.386.855 6.656.977 8.689 2.067 1.258.675 1.244 1.861 2.826 2.144.458-.687-.737-.607-.043-1.404 2.708.996 4.265.561 6.507.436 1.616-.09 3.593-.751 4.392-.616.491.084.863.799 1.38.783 1.59-.051 2.874-1.481 4.171-1.53-.179 3.163-4.392 2.742-5.646 4.046-.39.405-.074 1.214-.537 1.469-1.473.811-3.733-.476-4.572 1.106 3.382 1.972 9.863-.719 12.023-4.769.901-1.692 2.086-4.464.477-5.102-1.667-.661-2.379 3.156-4.529 2.509 3.586-4.824 5.172-12.436 1.946-15.954.282 5.927-.254 13.453-5.645 15.435-2.652.974-9.89 1.095-13.415-1.296-.683-.463-.931-1.641-1.422-2.187-2.055-2.286-5.374-5.211-6.448-8.19-1.314-3.652-.5-5.756-3.908-7.54-1.622-.85-7.188-1.389-8.556-.908-2.802.985-1.997 3.34-.251 2.964.674-.145 1.256-.72 1.673-.777 4.519-.624 10.492 1.942 7.475 6.9-.856-3.891-2.83.205-4.17 1.531.161-1.297 1.988-3.364.609-3.945-1.407 1.642-2.358 4.264-3.955 5.498 1.227.657 2.045-.133 3.096 1.411 1.309-.685 1.871-2.98 3.393-3.204.794 2.268-6.751 5.294-4.916 7.368Z" fill="#E30611"/><path fill-rule="evenodd" clip-rule="evenodd" d="M109.997 212.668c1.114 1.72-.02 4.484-.614 6.997.029-2.135-.287-5.129.614-6.997Zm21.229-6.401c2.463-.796 4.176-1.552 5.891-3.957.671-.941 1.02-3.359 2.168-3.651 2.07-.526 9.643 4.502 12.07 4.97 3.463.67 8.028-1.157 11.591-1.315 2.24-.098 4.34.46 5.773.167.104-.021 1.418-.711.98.359-4.303 2.445-10.022 3.965-16.013 5.809-5.629 1.732-10.909 5.224-15.923 5.564-1.795.122-3.779-.283-5.659-1.237-1.691-.858-4.425-3.697-3.98-5.065.368-1.13 2.94-1.593 3.102-1.644Zm-35.573 97.259c-3.224-3.763-7.223-6.694-8.336-11.382-1.426-6.011-1.903-13.369.865-21.348.36.62.521.816 1.38.782 1.535-2.418 6.168-8.38 4.457-11.425-.416-.74-1.002.383-1.65-.048-.624-.414-1.741-4.903-2.128-6.333-.68-2.515-1.386-5.272-.454-7.111.139-.273 1.226-.63 1.428-.866 1.464-1.699 2.566-4.762 3.912-6.902-2.836-1.42-3.706 5.283-5.58 4.626-1.862-.652 1.29-7.33 3.268-7.416-.253.796-.927 1.787.108 1.984.921-.557 2.767-1.46 3.638-3.114 1.305-2.471 2.106-6.675 1.488-8.621-1.552.6-1.57 4.505-2.886 5.611 1.566-6.134.76-12.642 1.217-19.276.095-1.377-.004-6.267 1.015-6.572.307-.092 2.736 2.389 2.736 2.389.3.871-.147 3.446-.141 4.948.003 1.642.046 3.443.101 5.036.123 3.556-.334 7.265 1.387 9.118.417-2.877.212-5.543.263-9.07.013-.929-.505-8.614.417-8.735 1.482-.194.581 4.161.592 5.216.022 2.103-.057 3.928 1.26 4.905 1.761-2.464.153-6.156 1.399-8.377 1.628 1.819.057 5.126.275 7.6.414 1.079 1.436-.159 1.715.627.189 2.788-1.541 5.701-.729 8.066.134.391 1.434.541 1.626.874 1.253 2.181-1.782 7.768.717 9.427.989-3.752.998-8.24 1.607-12.745.481-3.56 1.674-7.088 2.113-10.336.177-1.296-.802-2.852.766-3.609.17 2.327.335 4.805.365 7.355.028 2.508-.642 5.368.61 7.444 2.539-4.656-.002-9.746 1.474-13.903.77 1.294-.317 8.373 1.077 8.449 1.485.08.612-2.746 1.189-4.01.61.757.338 2.453 1.511 1.941 1.819-.791-.916-6.295.752-8.89.64-.995 3.59-2.447 4.839-1.841.584.282 1.482 3.379 1.71 3.681 4.838 6.39 12.804 4.963 18.403 2.842 3.092-1.171 6.841-2.625 10.594-3.903 6.155-2.097 12.423-3.307 16.55-7.279.695-.67.951-1.837 1.719-2.426 1.865-1.428 5.206-.682 7.47-1.434-.099 2.214-2.174 5.347.143 6.441.714-.55.873-3.461 1.434-3.921-.609 2.023.961 3.806 1.148 5.975.367 4.262-2.297 8.811-1.451 13.08 2.164-3.819 2.02-7.878 2.742-12.052.474-2.741 1.828-7.005 1.665-9.112-.08-1.063-.834-1.458-.597-2.162.305-.901 2.375-2.034 3.304-2.959 1.12-1.115 2.831-2.615 3.083-3.872.134-.671-.904-.691-.957-1.183-.173-1.632 1.807-4.188 2.151-5.88.79-3.874-.059-9.781-2.564-11.215.486 6.007 1.099 16.611-5.968 20.872-1.508.909-7.837.663-5.866 3.132-2.591 1.131-4.724-.847-7.486-.794-2.299.044-4.293 2.519-6.538 3.441-3.319 1.365-11.156 2.734-15.068 1.711-3.469-.906-7.704-4.622-11.179-4.366-1.058.077-2.671 2.673-3.998 4.093-2.213 2.367-3.98 3.388-6.537 3.442.976-.217 1.557-1.395 2.612-1.822.452-.184 1.044.553 1.559.292.099-.05.473-.596.514-.645 1.913-2.333 4.972-6.319 6.057-9.728-2.658-.617-2.992 3.774-5 4.559.332-1.51 1.937-3.611.788-4.433-2.101 2.189-3.097 6.76-5.365 8.591.254-.795.928-1.785-.107-1.982-.268 1.006-2.041 1.719-2.815 3.137-.217.398-.066 1.48-.381 1.804-.112.114-2.355 1.307-2.766 1.488-2.583 1.132-7.684 2.733-8.36.831-2.403 3.614-10.493 5.588-13.527-.225 1.151 1.219 1.939-.34 3.209.34.736.393.773 2.003 1.667 2.276 1.774.542 4.244-2.44 6.203-3.286 1.046-.454 2.315.776 3.363.674 2.509-.243 8.517-7.665 9.534-10.123.421-1.013 1.398-2.395.251-2.963-2.643 2.482-4.201 7.302-7.348 8.7 2.171-5.124-2.545-.419-3.745 1.13 2.762-10.288-5.889 7.449-8.253 2.815.4-.51 1.103-1.516.807-2.205-2.214-.095-3.343 2.144-6.131.813-.14 3.458-3.723.076-5.455-2.55-1.08-1.641-1.858-4.254-2.373-6.423-.422-1.79-.517-4.438-1.953-3.771-.896.416-.474 3.709-.3 4.614.358 1.849 3.482 6.412 3.461 8.764-.013 1.449-.873 3.363-1.056 5.169-.5 4.884-.316 10.098-.34 14.596-.007 1.582-.095 2.938-.365 4.034-1.038 4.23-1.632 4.667-3.488 6.5-3.309 3.271-3.002 7.799-2.718 11.228.231 2.765.11 5.591.832 8.359.736 2.827 2.154 5.422 2.415 7.828.36 3.328-1.07 2.454-2.504 3.806-2.064 1.946-3 5.319-3.512 7.326-.954 3.737-.806 7.912-.579 11.453.227 3.52.523 7.732 1.764 10.368 3.119 6.623 10.616 10.754 13.338 18.209 1.952 5.345 1.356 10.713 1.818 17.052 3.841-11.327.648-20.255-5.32-27.22Z" fill="#E30611"/></svg>